0
SECTION
2
HEADER
9
$INSUNITS
70
4
9
$ACADVER
1
AC1014
9
$HANDSEED
5
FFFF
0
ENDSEC
0
SECTION
2
TABLES
0
TABLE
2
VPORT
5
8
100
AcDbSymbolTable
0
ENDTAB
0
TABLE
2
LTYPE
5
5
100
AcDbSymbolTable
0
LTYPE
5
14
100
AcDbSymbolTableRecord
100
AcDbLinetypeTableRecord
2
BYBLOCK
70
0
0
LTYPE
5
15
100
AcDbSymbolTableRecord
100
AcDbLinetypeTableRecord
2
BYLAYER
70
0
0
ENDTAB
0
TABLE
2
LAYER
5
2
100
AcDbSymbolTable
70
2
0
LAYER
5
50
100
AcDbSymbolTableRecord
100
AcDbLayerTableRecord
2
0
70
0
6
CONTINUOUS
0
ENDTAB
0
TABLE
2
STYLE
5
3
100
AcDbSymbolTable
70
1
0
STYLE
5
11
100
AcDbSymbolTableRecord
100
AcDbTextStyleTableRecord
2
STANDARD
70
0
0
ENDTAB
0
TABLE
2
VIEW
5
6
100
AcDbSymbolTable
70
0
0
ENDTAB
0
TABLE
2
UCS
5
7
100
AcDbSymbolTable
70
0
0
ENDTAB
0
TABLE
2
APPID
5
9
100
AcDbSymbolTable
70
2
0
APPID
5
12
100
AcDbSymbolTableRecord
100
AcDbRegAppTableRecord
2
ACAD
70
0
0
ENDTAB
0
TABLE
2
DIMSTYLE
5
A
100
AcDbSymbolTable
70
1
0
ENDTAB
0
TABLE
2
BLOCK_RECORD
5
1
100
AcDbSymbolTable
70
1
0
BLOCK_RECORD
5
1F
100
AcDbSymbolTableRecord
100
AcDbBlockTableRecord
2
*MODEL_SPACE
0
BLOCK_RECORD
5
1B
100
AcDbSymbolTableRecord
100
AcDbBlockTableRecord
2
*PAPER_SPACE
0
ENDTAB
0
ENDSEC
0
SECTION
2
BLOCKS
0
BLOCK
5
20
100
AcDbEntity
100
AcDbBlockBegin
2
*MODEL_SPACE
0
ENDBLK
5
21
100
AcDbEntity
100
AcDbBlockEnd
0
BLOCK
5
1C
100
AcDbEntity
100
AcDbBlockBegin
2
*PAPER_SPACE
0
ENDBLK
5
1D
100
AcDbEntity
100
AcDbBlockEnd
0
ENDSEC
0
SECTION
2
ENTITIES
0
LINE
5
100
100
AcDbEntity
8
0
100
AcDbLine
10
-460.08246710677133
20
-774.64638389799597
30
0
11
-513.86072094425799
21
-774.4721483064211
31
0
0
SPLINE
5
101
100
AcDbEntity
8
0
100
AcDbSpline
70
0
71
3
72
59
73
55
74
0
42
0.000000001
43
0.0000000001
44
0.0000000001
40
0
40
0
40
0
40
0
40
20.07394898531475
40
60.221846955944251
40
80.295795941259001
40
100.36974492657376
40
120.4436939118885
40
140.51764289720325
40
160.591591882518
40
214.12212251002401
40
240.88738782377703
40
254.27002048065353
40
267.65265313753002
40
294.41791845128301
40
321.18318376503601
40
341.25713275035076
40
361.33108173566552
40
401.47897970629504
40
441.62687767692455
40
461.70082666223925
40
481.77477564755401
40
521.92267361818347
40
562.07057158881298
40
602.2184695594425
40
617.27393129842858
40
642.36636753007201
40
662.44031651538671
40
682.51426550070153
40
722.66216347133104
40
762.81006144196056
40
782.88401042727537
40
802.95795941259007
40
823.03190839790477
40
843.10585738321959
40
863.1798063685344
40
883.2537553538491
40
903.3277043391638
40
923.4016533244785
40
943.4756023097932
40
953.51257680245067
40
963.54955129510802
40
983.62350028042283
40
993.66047477308018
40
1003.6974492657375
40
1023.7713982510522
40
1033.8083727437097
40
1043.8453472363669
40
1063.9192962216816
40
1073.9562707143391
40
1083.9932452069966
40
1104.0671941923113
40
1109.0856814386398
40
1114.1041686849685
40
1124.141143177626
40
1124.141143177626
40
1124.141143177626
40
1124.141143177626
10
-513.86072094520421
20
-774.47214830637051
30
0
10
-517.37169235891224
20
-777.54335992015945
30
0
10
-527.27574650410975
20
-787.20769362132489
30
0
10
-537.56063412799836
20
-801.46459571850698
30
0
10
-543.81822926551956
20
-818.40935753990505
30
0
10
-546.39052767965927
20
-832.5162756157373
30
0
10
-546.99342417416756
20
-847.33163274375465
30
0
10
-545.48838573500848
20
-862.2269828606095
30
0
10
-539.72371530407861
20
-884.58219099633141
30
0
10
-526.22998726370031
20
-905.64047932071685
30
0
10
-508.20927995289537
20
-920.9224780947643
30
0
10
-496.81492523358224
20
-928.14570566162729
30
0
10
-484.77955971099641
20
-934.33131269119315
30
0
10
-468.86786299789782
20
-940.07259054204428
30
0
10
-450.94052331715216
20
-943.34006207772336
30
0
10
-434.55593179213815
20
-943.68115782259054
30
0
10
-414.83554412970818
20
-941.24695101304565
30
0
10
-389.97663005045871
20
-933.49417275281905
30
0
10
-366.99563531131332
20
-920.83449807865782
30
0
10
-351.38378815934999
20
-907.75864839849521
30
0
10
-337.76903018825533
20
-892.88751749519565
30
0
10
-324.00697858277107
20
-871.48623328272959
30
0
10
-312.26231590162712
20
-843.44762645898277
30
0
10
-308.51727889389355
20
-820.20840716299585
30
0
10
-308.64598888729563
20
-800.22737376752059
30
0
10
-310.30092107455977
20
-785.17521919689239
30
0
10
-313.90050559237847
20
-769.26344246369149
30
0
10
-320.26493359446363
20
-750.59368259450719
30
0
10
-331.66413252013376
20
-729.43212129427491
30
0
10
-346.88797153365738
20
-710.66473082944185
30
0
10
-361.80749733469048
20
-698.27269832721004
30
0
10
-373.97524774713639
20
-690.56940495173183
30
0
10
-386.60774767585968
20
-684.32601132010916
30
0
10
-399.33032573194458
20
-679.69113449893257
30
0
10
-412.7014583578304
20
-677.02393970504977
30
0
10
-426.87640662372559
20
-676.30664828445424
30
0
10
-441.09426353633398
20
-677.04624698615544
30
0
10
-454.11697219792222
20
-679.00405932175488
30
0
10
-463.69091211036061
20
-682.02921572381626
30
0
10
-471.3939987211196
20
-685.49673924921967
30
0
10
-479.06444398665894
20
-689.52703039534242
30
0
10
-486.53029051150605
20
-694.37260174331755
30
0
10
-492.96007656578814
20
-699.69630987749144
30
0
10
-498.59816167636336
20
-705.31292284952417
30
0
10
-503.32618451476674
20
-711.09874199962223
30
0
10
-507.62692519632947
20
-717.24661030338007
30
0
10
-511.51680997908869
20
-723.93785131706545
30
0
10
-514.5733310054643
20
-731.62021312277159
30
0
10
-516.55060135298288
20
-739.38498566624378
30
0
10
-517.79376020532902
20
-746.73563860276749
30
0
10
-517.98365685872909
20
-752.485062077566
30
0
10
-517.77857893098383
20
-757.71047483953669
30
0
10
-517.48353480174319
20
-761.34358179312085
30
0
10
-517.08745619340289
20
-764.19169660399291
30
0
10
-516.6912834197899
20
-766.1629340350986
30
0
0
LINE
5
102
100
AcDbEntity
8
0
100
AcDbLine
10
-516.6912834197899
20
-766.16293403509849
30
0
11
-460.05557616552255
21
-766.34642745971973
31
0
0
ARC
5
103
100
AcDbEntity
8
0
100
AcDbCircle
10
-464.40230017476864
20
-770.48236633589397
30
0
40
5.9999999994047748
210
0
220
0
230
1
100
AcDbArc
50
-43.947816544351156
51
43.576553866878292
0
ARC
5
104
100
AcDbEntity
8
0
100
AcDbCircle
10
-464.76650712132187
20
-725.48384021225183
30
0
40
10.000000000000339
210
0
220
0
230
1
100
AcDbArc
50
185.96737990547084
51
270.46372774962384
0
ARC
5
105
100
AcDbEntity
8
0
100
AcDbCircle
10
-444.87488221788169
20
-723.40459546936449
30
0
40
29.999999999999961
210
0
220
0
230
1
100
AcDbArc
50
104.56899911058791
51
185.96737990546976
0
SPLINE
5
106
100
AcDbEntity
8
0
100
AcDbSpline
70
0
71
3
72
23
73
19
74
0
42
0.000000001
43
0.0000000001
44
0.0000000001
40
950.81775811165608
40
950.81775811165608
40
950.81775811165608
40
950.81775811165608
40
956.9667395060485
40
956.9667395060485
40
956.9667395060485
40
974.6912094709736
40
974.6912094709736
40
974.6912094709736
40
992.40066873934097
40
992.40066873934097
40
992.40066873934097
40
1027.8478746231906
40
1027.8478746231906
40
1027.8478746231906
40
1045.5844163161287
40
1045.5844163161287
40
1045.5844163161287
40
1098.7412349865594
40
1098.7412349865594
40
1098.7412349865594
40
1098.7412349865594
10
-379.81532109960818
20
-704.79400415017585
30
0
10
-380.75554389190745
20
-704.24454120382825
30
0
10
-381.70400804509711
20
-703.7084964167509
30
0
10
-382.65952922653412
20
-703.18640415131415
30
0
10
-385.41382386412641
20
-701.68147055595557
30
0
10
-388.22446243127587
20
-700.29366885121567
30
0
10
-391.02503022756144
20
-699.04173185384184
30
0
10
-393.8232262477959
20
-697.79085511081757
30
0
10
-396.61550300453473
20
-696.67413509476592
30
0
10
-399.39775959182441
20
-695.72987297059558
30
0
10
-404.96671686922235
20
-693.83984045088039
30
0
10
-410.51158118225248
20
-692.63262501143913
30
0
10
-416.50422465562497
20
-692.03223950602933
30
0
10
-419.5027337952356
20
-691.73182760379268
30
0
10
-422.60058135923367
20
-691.58420358463343
30
0
10
-425.74470722284991
20
-691.55653996667434
30
0
10
-435.16772391362878
20
-691.47363147475494
30
0
10
-444.96571066818376
20
-692.48351813872091
30
0
10
-452.42125397692791
20
-694.36923300780245
30
0
0
ARC
5
107
100
AcDbEntity
8
0
100
AcDbCircle
10
-394.93467876294091
20
-730.70722380518657
30
0
40
29.999999999999908
210
0
220
0
230
1
100
AcDbArc
50
-90.185631336015163
51
59.738094728226656
0
LINE
5
108
100
AcDbEntity
8
0
100
AcDbLine
10
-395.03187493314931
20
-760.70706635318163
30
0
11
-413.13541652205811
21
-760.64841288168964
31
0
0
ARC
5
109
100
AcDbEntity
8
0
100
AcDbCircle
10
-413.03822035184976
20
-730.64857033369458
30
0
40
29.999999999999925
210
0
220
0
230
1
100
AcDbArc
50
217.79424110883684
51
269.81436866398496
0
ARC
5
110
100
AcDbEntity
8
0
100
AcDbCircle
10
-464.40230017476892
20
-770.48236633589465
30
0
40
35.000000000000824
210
0
220
-0
230
1
100
AcDbArc
50
37.794241108837504
51
90.463727749625079
0
CIRCLE
5
111
100
AcDbEntity
8
0
100
AcDbCircle
10
-472.99358366011978
20
-786.39930498457693
30
0
40
3.1999999999724076
210
0
220
-0
230
1
0
CIRCLE
5
112
100
AcDbEntity
8
0
100
AcDbCircle
10
-455.80120741329904
20
-754.76985353597786
30
0
40
3.1999999999962245
210
0
220
-0
230
1
0
LINE
5
113
100
AcDbEntity
8
0
100
AcDbLine
10
-328.98222535979517
20
-765.16984184727971
30
0
11
-326.74974481960408
21
-764.06393180276905
31
0
0
ARC
5
114
100
AcDbEntity
8
0
100
AcDbCircle
10
-326.52015519134136
20
-764.52740021945465
30
0
40
0.51721791410454487
210
-0
220
0
230
1
100
AcDbArc
50
-8.3214183570447435
51
116.35256174748139
0
LINE
5
115
100
AcDbEntity
8
0
100
AcDbLine
10
-326.00838267334126
20
-764.60225514908825
30
0
11
-327.07293268375332
21
-771.88043231166284
31
0
0
ARC
5
116
100
AcDbEntity
8
0
100
AcDbCircle
10
-327.71444559339534
20
-771.78660077123948
30
0
40
0.64833877812111207
210
0
220
0
230
1
100
AcDbArc
50
232.64752347915288
51
351.67858164295632
0
LINE
5
117
100
AcDbEntity
8
0
100
AcDbLine
10
-328.10780356425488
20
-772.30197702018472
30
0
11
-333.44021154228778
21
-768.23204716539067
31
0
0
ARC
5
118
100
AcDbEntity
8
0
100
AcDbCircle
10
-333.11851587377123
20
-767.81056261639401
30
0
40
0.53022384724314653
210
0
220
0
230
1
100
AcDbArc
50
116.35256174747694
51
232.64752347914947
0
LINE
5
119
100
AcDbEntity
8
0
100
AcDbLine
10
-333.35387875016204
20
-767.33543984846733
30
0
11
-330.99451311995665
21
-766.16667438684556
31
0
0
ELLIPSE
5
120
100
AcDbEntity
8
0
100
AcDbEllipse
10
-445.05972415929637
20
-772.57277130986938
30
0
11
-106.93367262772603
21
71.283435874620551
31
0.0
40
0.75893564103527789
41
3.9216600760901552
42
4.0652001371031705
0
ARC
5
121
100
AcDbEntity
8
0
100
AcDbCircle
10
-336.44208239937518
20
-750.3188188000131
30
0
40
1.0978851555082199
210
0
220
0
230
1
100
AcDbArc
50
124.49501630606241
51
206.47303932634114
0
LINE
5
122
100
AcDbEntity
8
0
100
AcDbLine
10
-337.06385269569154
20
-749.41396880509456
30
0
11
-336.91741742382385
21
-749.31334424247768
31
0
0
ARC
5
123
100
AcDbEntity
8
0
100
AcDbCircle
10
-336.36776868951523
20
-750.11322083086395
30
0
40
0.97052371829635287
210
0
220
-0
230
1
100
AcDbArc
50
26.537622057113246
51
124.49556215357137
0
ELLIPSE
5
124
100
AcDbEntity
8
0
100
AcDbEllipse
10
-433.47805487541973
20
-770.86593654479475
30
0
11
-94.335904853394098
21
76.348999580857011
31
0.0
40
0.75226764650830535
41
4.0181892929558387
42
4.1681943111228801
0
LINE
5
125
100
AcDbEntity
8
0
100
AcDbLine
10
-398.79464444656185
20
-876.19817938330402
30
0
11
-425.42359745245557
21
-824.41470205593589
31
0
0
ARC
5
126
100
AcDbEntity
8
0
100
AcDbCircle
10
-398.74442915182243
20
-810.69530050971355
30
0
40
29.999999999999908
210
0
220
-0
230
1
100
AcDbArc
50
89.814368663984609
51
207.21388055417327
0
LINE
5
127
100
AcDbEntity
8
0
100
AcDbLine
10
-398.64723298161391
20
-780.69545796171849
30
0
11
-353.55866688313233
21
-780.84153992658048
31
0
0
ARC
5
128
100
AcDbEntity
8
0
100
AcDbCircle
10
-353.65586305334085
20
-810.84138247457554
30
0
40
30.000000000000068
210
-0
220
0
230
1
100
AcDbArc
50
-1.2803990040144166
51
89.814368663984609
0
SPLINE
5
129
100
AcDbEntity
8
0
100
AcDbSpline
70
0
71
3
72
20
73
16
74
0
42
0.000000001
43
0.0000000001
44
0.0000000001
40
586.61921053941387
40
586.61921053941387
40
586.61921053941387
40
586.61921053941387
40
602.53522579715082
40
602.53522579715082
40
602.53522579715082
40
637.97842929818876
40
637.97842929818876
40
637.97842929818876
40
673.41760245082321
40
673.41760245082321
40
673.41760245082321
40
708.8628246675197
40
708.8628246675197
40
708.8628246675197
40
718.47845630412041
40
718.47845630412041
40
718.47845630412041
40
718.47845630412041
10
-347.53297682756147
20
-879.67803831840899
30
0
10
-345.82796360489488
20
-877.24116283383853
30
0
10
-344.19653721395821
20
-874.73386159869096
30
0
10
-342.63621180473251
20
-872.16920883638068
30
0
10
-339.16153990278485
20
-866.45801113443838
30
0
10
-336.03929079297637
20
-860.46236813967357
30
0
10
-333.38626122726623
20
-854.35972132172787
30
0
10
-330.73353334516304
20
-848.25776845326868
30
0
10
-328.55370210389776
20
-842.0569302708434
30
0
10
-326.9585933590767
20
-835.80038622100471
30
0
10
-325.36321234732236
20
-829.54277425020769
30
0
10
-324.35114164261347
20
-823.22343015535421
30
0
10
-323.90361379746082
20
-816.78055123762283
30
0
10
-323.78220779019136
20
-815.03271763755765
30
0
10
-323.70234809745261
20
-813.27579072333322
30
0
10
-323.66270527498796
20
-811.51175655837403
30
0
0
ARC
5
130
100
AcDbEntity
8
0
100
AcDbCircle
10
-372.11547614592905
20
-862.47877783708236
30
0
40
29.999999999999357
210
0
220
0
230
1
100
AcDbArc
50
207.21388055417242
51
325.02126104898673
0
LINE
5
131
100
AcDbEntity
8
0
100
AcDbLine
10
-449.86501757788392
20
-820.61885419352393
30
0
11
-416.95124051454337
21
-884.62399280863951
31
0
0
ARC
5
132
100
AcDbEntity
8
0
100
AcDbCircle
10
-443.63040881517645
20
-898.34339435486197
30
0
40
30.000000000000021
210
0
220
0
230
1
100
AcDbArc
50
-93.594526110486584
51
27.213880554173517
0
SPLINE
5
133
100
AcDbEntity
8
0
100
AcDbSpline
70
0
71
3
72
29
73
25
74
0
42
0.000000001
43
0.0000000001
44
0.0000000001
40
106.31709253997661
40
106.31709253997661
40
106.31709253997661
40
106.31709253997661
40
155.20160591264781
40
155.20160591264781
40
155.20160591264781
40
177.20207935526162
40
177.20207935526162
40
177.20207935526162
40
212.65045413424173
40
212.65045413424173
40
212.65045413424173
40
248.09170599353908
40
248.09170599353908
40
248.09170599353908
40
283.54002639831089
40
283.54002639831089
40
283.54002639831089
40
318.95342114968724
40
318.95342114968724
40
318.95342114968724
40
354.32836013324811
40
354.32836013324811
40
354.32836013324811
40
381.76268364531478
40
381.76268364531478
40
381.76268364531478
40
381.76268364531478
10
-530.50067742889985
20
-829.53376601494608
30
0
10
-531.85351266299654
20
-837.80753598603269
30
0
10
-532.07796830699544
20
-846.79814764222567
30
0
10
-530.9816948968172
20
-855.41404439052326
30
0
10
-530.48831708894988
20
-859.29162840471122
30
0
10
-529.73270635662357
20
-863.10485711877163
30
0
10
-528.70121947422138
20
-866.79583674428113
30
0
10
-527.03923098645691
20
-872.74294644662109
30
0
10
-524.65405208819857
20
-878.38417136221869
30
0
10
-521.55831334485219
20
-883.70868290969656
30
0
10
-518.46319665254669
20
-889.03212456135168
30
0
10
-514.65995606352124
20
-894.04171445348902
30
0
10
-510.2889723862595
20
-898.63138904890195
30
0
10
-505.91711694247522
20
-903.22197902743142
30
0
10
-500.98962651818374
20
-907.37910380742142
30
0
10
-495.65854474095482
20
-911.01054379665754
30
0
10
-490.33271544148079
20
-914.63840588959442
30
0
10
-484.5987808614118
20
-917.74467485384434
30
0
10
-478.59216213086802
20
-920.29718751563701
30
0
10
-472.59206604908138
20
-922.84692837780551
30
0
10
-466.32578882814084
20
-924.83961087880698
30
0
10
-460.06176187743392
20
-926.21635746257027
30
0
10
-455.20382157303203
20
-927.284065627117
30
0
10
-450.34720364814001
20
-927.98161248480585
30
0
10
-445.51136101358895
20
-928.28592021433394
30
0
0
ARC
5
134
100
AcDbEntity
8
0
100
AcDbCircle
10
-500.9170114779235
20
-834.51439939846239
30
0
40
29.999999999999623
210
0
220
-0
230
1
100
AcDbArc
50
89.814368663984254
51
170.44344188509109
0
LINE
5
135
100
AcDbEntity
8
0
100
AcDbLine
10
-500.8198153077148
20
-804.51455685046767
30
0
11
-472.17955012825303
21
-804.60734814044645
31
0
0
ARC
5
136
100
AcDbEntity
8
0
100
AcDbCircle
10
-464.40230017491399
20
-770.48236633658257
30
0
40
34.999999999296371
210
0
220
0
230
1
100
AcDbArc
50
257.16129781062364
51
259.23400810934464
0
ARC
5
137
100
AcDbEntity
8
0
100
AcDbCircle
10
-476.54418587851774
20
-834.3382557397473
30
0
40
30.000000000001023
210
0
220
-0
230
1
100
AcDbArc
50
27.213880554174423
51
79.234008109321337
0
LWPOLYLINE
5
138
100
AcDbEntity
8
0
100
AcDbPolyline
90
31
70
1
43
0.0
10
-354.64259351216691
20
-745.20041476535539
42
-0.072872758697298493
10
-352.88026313516065
20
-744.66387466847982
42
-0.068321888641012171
10
-351.65261957694406
20
-744.65782326108138
42
-0.16382915835021186
10
-349.16452273289048
20
-745.92317678421796
42
-0.054663599143778649
10
-348.30359602466694
20
-746.98450393226199
42
-0.047043046521220183
10
-347.61400178204894
20
-748.28533062239035
42
-0.10809007411096616
10
-347.2226241033693
20
-750.39515927830973
42
-0.23785133936147476
10
-349.06954297155579
20
-753.72394568676395
42
-0.19020148515444676
10
-352.73848215947828
20
-754.52329823013383
42
-0.028687641907762271
10
-353.90994430141455
20
-754.31017879254784
10
-355.03922531920517
20
-753.99966564099645
10
-356.98134500668766
20
-753.35524273637452
10
-358.94522928580011
20
-752.59695794376046
10
-360.09635979911252
20
-752.21254282102495
10
-361.11055406618846
20
-752.001238462522
10
-361.75628856211034
20
-751.99389938530874
10
-357.8547255395813
20
-758.80245263971801
10
-359.49294504041313
20
-759.74121545589946
10
-364.75110173976395
20
-750.56529296000872
42
-0.11578647091883527
10
-363.19788752910569
20
-750.04973843202254
42
-0.075684846100827957
10
-360.96389000718284
20
-750.14984525728153
10
-359.98773321510987
20
-750.37525933685117
10
-358.86102148313864
20
-750.71706141629522
10
-357.58375485052335
20
-751.1752516402363
42
0.028932137925666113
10
-354.09668303295018
20
-752.31897962297182
42
0.030451714165864223
10
-352.89076375603224
20
-752.54900379172693
42
0.072912089496362312
10
-351.35679119916642
20
-752.51789623893262
42
0.10623584871411508
10
-350.16868419705128
20
-752.03390323527901
42
0.40499579162186417
10
-349.47723826294009
20
-748.1777545524227
42
0.078733972381947612
10
-350.19444907847924
20
-747.26437713575228
42
0.34449948767721511
10
-353.81863430627533
20
-747.05536893242891
0
LWPOLYLINE
5
139
100
AcDbEntity
8
0
100
AcDbPolyline
90
51
70
1
43
0.0
10
-343.61460405721169
20
-764.64273997950215
10
-342.4727255130548
20
-766.32809371999531
42
0.2468334304587165
10
-340.21988606290449
20
-762.68625383205415
42
0.069430547700132558
10
-340.36626475014288
20
-761.08648977326891
42
0.065413159356669387
10
-341.12718906685666
20
-759.07568042867842
42
0.084484742823326631
10
-342.76209117337061
20
-756.87237473627181
42
0.052367591234345548
10
-343.7566501360788
20
-756.10861036520862
42
0.20601927244332491
10
-346.96597792671065
20
-755.63764689361619
42
0.10880531553766593
10
-348.52674886797183
20
-756.44747004296039
42
0.13044248884676593
10
-349.5814994730631
20
-757.94887446647476
42
0.117500106436059
10
-349.78855266460596
20
-760.2429911195843
42
0.02634756061503991
10
-349.52098000019049
20
-761.59665645045084
10
-348.90692297212513
20
-763.81011701619047
10
-348.49624715552915
20
-765.39873874849877
42
-0.048362152539287252
10
-348.36120938449903
20
-766.43886923854961
42
-0.10344574491321044
10
-348.52718758626651
20
-767.49557568070497
42
-0.11505125896732117
10
-349.05813941222823
20
-768.24708410819039
42
-0.27226020329161799
10
-351.37839440132632
20
-768.70174078511025
42
-0.11035961469489811
10
-352.74365999646477
20
-767.81030753276525
42
-0.078110062042462736
10
-353.92827676018777
20
-766.16947858597143
42
-0.1071059715504937
10
-354.61569062066451
20
-763.80727282768794
42
-0.05797478783920626
10
-354.57171612097386
20
-762.8596134602077
42
-0.072310512784539357
10
-354.31418646994211
20
-762.05047686873183
42
-0.060853155092730871
10
-353.83901438389211
20
-761.33279527814898
42
-0.057133707708761881
10
-352.93324131980171
20
-760.49811373824332
10
-354.07777917004665
20
-758.8520212739212
42
0.26322427489428551
10
-356.68099867031856
20
-763.29462695319069
42
0.071097491628095227
10
-356.42329610934956
20
-765.08093581455671
42
0.060516552366612915
10
-355.38315571996003
20
-767.46192601892392
42
0.095163303221447934
10
-353.57343270419284
20
-769.62274555447789
42
0.0561016039538507
10
-352.47557956321822
20
-770.32001713368732
42
0.082864128691134686
10
-351.03367915544595
20
-770.74816042688076
42
0.093731145900496707
10
-349.316350545646
20
-770.63675103912033
42
0.27424409334258654
10
-346.36447075473711
20
-767.73918040417186
42
0.059300086553041691
10
-346.22377648557222
20
-766.5603019295645
42
0.050170512787787794
10
-346.32884806240264
20
-765.36230078145354
10
-346.68446225506261
20
-763.844155814386
10
-347.42495464089757
20
-761.28268283957573
10
-347.6285657073584
20
-760.41353900826937
10
-347.73777785958515
20
-759.71454909989052
10
-347.75259110553645
20
-759.18571297425444
10
-347.67891981183533
20
-758.80844503840831
42
-0.29951295057168714
10
-346.00017723828677
20
-757.4799618013584
42
-0.14167633984440253
10
-344.66188482951759
20
-757.76551233811517
42
-0.067533933680676617
10
-343.98062324566229
20
-758.27265754883979
42
-0.046101241060859437
10
-343.31993085204908
20
-759.05854439771349
42
-0.033658293981279362
10
-342.70093362725652
20
-760.08806825330862
42
-0.047362976030056493
10
-342.29697148718731
20
-761.08163654235022
42
-0.064247996685721454
10
-342.14189972983604
20
-761.98721434098593
42
-0.07665505231263281
10
-342.23463137663498
20
-762.80588588617729
42
-0.095896098778650976
10
-342.72078433516191
20
-763.78516636350787
42
-0.074821457036287953
0
ENDSEC
0
SECTION
2
OBJECTS
0
DICTIONARY
5
C
100
AcDbDictionary
3
ACAD_GROUP
350
D
3
ACAD_MLINESTYLE
350
17
0
DICTIONARY
5
D
100
AcDbDictionary
0
DICTIONARY
5
1A
330
C
100
AcDbDictionary
0
DICTIONARY
5
17
100
AcDbDictionary
0
ENDSEC
0
EOF
