0
SECTION
2
HEADER
9
$INSUNITS
70
4
9
$ACADVER
1
AC1014
9
$HANDSEED
5
FFFF
0
ENDSEC
0
SECTION
2
TABLES
0
TABLE
2
VPORT
5
8
100
AcDbSymbolTable
0
ENDTAB
0
TABLE
2
LTYPE
5
5
100
AcDbSymbolTable
0
LTYPE
5
14
100
AcDbSymbolTableRecord
100
AcDbLinetypeTableRecord
2
BYBLOCK
70
0
0
LTYPE
5
15
100
AcDbSymbolTableRecord
100
AcDbLinetypeTableRecord
2
BYLAYER
70
0
0
ENDTAB
0
TABLE
2
LAYER
5
2
100
AcDbSymbolTable
70
2
0
LAYER
5
50
100
AcDbSymbolTableRecord
100
AcDbLayerTableRecord
2
0
70
0
6
CONTINUOUS
0
ENDTAB
0
TABLE
2
STYLE
5
3
100
AcDbSymbolTable
70
1
0
STYLE
5
11
100
AcDbSymbolTableRecord
100
AcDbTextStyleTableRecord
2
STANDARD
70
0
0
ENDTAB
0
TABLE
2
VIEW
5
6
100
AcDbSymbolTable
70
0
0
ENDTAB
0
TABLE
2
UCS
5
7
100
AcDbSymbolTable
70
0
0
ENDTAB
0
TABLE
2
APPID
5
9
100
AcDbSymbolTable
70
2
0
APPID
5
12
100
AcDbSymbolTableRecord
100
AcDbRegAppTableRecord
2
ACAD
70
0
0
ENDTAB
0
TABLE
2
DIMSTYLE
5
A
100
AcDbSymbolTable
70
1
0
ENDTAB
0
TABLE
2
BLOCK_RECORD
5
1
100
AcDbSymbolTable
70
1
0
BLOCK_RECORD
5
1F
100
AcDbSymbolTableRecord
100
AcDbBlockTableRecord
2
*MODEL_SPACE
0
BLOCK_RECORD
5
1B
100
AcDbSymbolTableRecord
100
AcDbBlockTableRecord
2
*PAPER_SPACE
0
ENDTAB
0
ENDSEC
0
SECTION
2
BLOCKS
0
BLOCK
5
20
100
AcDbEntity
100
AcDbBlockBegin
2
*MODEL_SPACE
0
ENDBLK
5
21
100
AcDbEntity
100
AcDbBlockEnd
0
BLOCK
5
1C
100
AcDbEntity
100
AcDbBlockBegin
2
*PAPER_SPACE
0
ENDBLK
5
1D
100
AcDbEntity
100
AcDbBlockEnd
0
ENDSEC
0
SECTION
2
ENTITIES
0
LINE
5
100
100
AcDbEntity
8
0
100
AcDbLine
10
-1268.0634797823875
20
-762.31028724688474
30
0
11
-1211.6119662904243
21
-762.49318390411065
31
0
0
ARC
5
101
100
AcDbEntity
8
0
100
AcDbCircle
10
-1215.9586902988476
20
-766.62912278028716
30
0
40
5.9999999999994023
210
0
220
0
230
1
100
AcDbArc
50
-43.947816538914736
51
43.576553872310207
0
LINE
5
102
100
AcDbEntity
8
0
100
AcDbLine
10
-1211.638857230027
20
-770.79314034239201
30
0
11
-1265.5647476077459
21
-770.61842642476358
31
0
0
ARC
5
103
100
AcDbEntity
8
0
100
AcDbCircle
10
-1260.3185041036841
20
-767.4936519991353
30
0
40
6.1063316414171531
210
0
220
0
230
1
100
AcDbArc
50
210.77892918012429
51
217.16777861447034
0
SPLINE
5
104
100
AcDbEntity
8
0
100
AcDbSpline
70
0
71
3
72
51
73
47
74
0
42
0.000000001
43
0.0000000001
44
0.0000000001
40
0
40
0
40
0
40
0
40
19.344839752708847
40
58.034519258126537
40
77.379359010835387
40
96.724198763544223
40
116.06903851625307
40
135.41387826896192
40
154.75871802167077
40
180.55183769194923
40
206.34495736222769
40
219.24151719736693
40
245.03463686764539
40
257.93119670278463
40
309.51743604334155
40
348.20711554875925
40
386.89679505417689
40
425.58647455959459
40
464.27615406501229
40
502.96583357042999
40
541.65551307584769
40
580.34519258126534
40
619.03487208668309
40
638.37971183939203
40
657.72455159210085
40
677.06939134480967
40
696.4142310975185
40
735.10391060293614
40
773.7935901083539
40
793.13842986106283
40
812.48326961377165
40
831.82810936648048
40
851.1729491191893
40
870.51778887189812
40
889.86262862460694
40
909.20746837731576
40
918.87988825367017
40
928.55230813002458
40
947.89714788273341
40
967.24198763544223
40
986.58682738815105
40
1005.93166714086
40
1025.2765068935689
40
1044.6213466462777
40
1063.9661863989866
40
1083.3110261516954
40
1083.3110261516954
40
1083.3110261516954
40
1083.3110261516954
10
-1265.1844553770143
20
-771.1827988262138
30
0
10
-1268.4943026852741
20
-774.11238678912594
30
0
10
-1277.8184428024297
20
-783.3919094806281
30
0
10
-1287.1454011444453
20
-797.19288631391282
30
0
10
-1292.7607824952859
20
-813.88754967381988
30
0
10
-1295.2171883271351
20
-827.77207233688603
30
0
10
-1295.866855328479
20
-842.28494670816758
30
0
10
-1294.4164196210691
20
-856.7173492021966
30
0
10
-1290.0963927382511
20
-871.87763320836893
30
0
10
-1281.9503304393081
20
-886.86304179110903
30
0
10
-1272.1563603121865
20
-899.05090977290865
30
0
10
-1260.8247614391655
20
-910.08941197633942
30
0
10
-1250.4244709398261
20
-917.67060465554687
30
0
10
-1230.1374876333546
20
-928.10708312296924
30
0
10
-1203.9150002194547
20
-934.2723743226519
30
0
10
-1170.9421717707219
20
-932.3976882393805
30
0
10
-1143.076425202979
20
-923.75389519252178
30
0
10
-1118.1616215168951
20
-908.49141143433098
30
0
10
-1096.7016449452992
20
-887.86094670888349
30
0
10
-1080.0829346974685
20
-863.61807154430539
30
0
10
-1069.4712635138985
20
-836.73075203206213
30
0
10
-1065.077615555376
20
-808.17584193712503
30
0
10
-1066.4625902250873
20
-784.01237689148547
30
0
10
-1070.6617184638246
20
-765.30747623171783
30
0
10
-1075.3149546379641
20
-751.83028542168233
30
0
10
-1081.3206026207674
20
-739.09458315243364
30
0
10
-1090.7462295762632
20
-723.14223151423539
30
0
10
-1105.3364737226163
20
-705.44478892837765
30
0
10
-1125.1642046112886
20
-691.73284152403789
30
0
10
-1141.5801531206851
20
-683.34605380852986
30
0
10
-1153.5086208824814
20
-678.76705387138611
30
0
10
-1165.9252088960216
20
-676.27081551739252
30
0
10
-1179.5489989992652
20
-675.44375159569438
30
0
10
-1193.4505131893452
20
-675.87627012538087
30
0
10
-1206.1772753203541
20
-677.77834901584879
30
0
10
-1215.1485565090265
20
-680.92795678828122
30
0
10
-1222.3297229995762
20
-684.17369725233675
30
0
10
-1229.5963269074578
20
-687.8783182281486
30
0
10
-1238.607609452961
20
-693.2590852555046
30
0
10
-1247.861288231232
20
-701.21637496309916
30
0
10
-1255.124298381168
20
-709.90562611634323
30
0
10
-1260.9098805836354
20
-718.97619685201505
30
0
10
-1265.367688582098
20
-729.66014404954262
30
0
10
-1268.3356937295898
20
-741.06850153833147
30
0
10
-1269.3947967148918
20
-751.85772078797436
30
0
10
-1268.7449160998858
20
-758.82162802545054
30
0
10
-1268.063479783242
20
-762.31028724651821
30
0
0
ARC
5
105
100
AcDbEntity
8
0
100
AcDbCircle
10
-1215.4405697273444
20
-721.63210564500014
30
0
40
9.9999999999995488
210
0
220
0
230
1
100
AcDbArc
50
179.30458823431113
51
269.34029382295597
0
ARC
5
106
100
AcDbEntity
8
0
100
AcDbCircle
10
-1195.4420428315595
20
-721.87484418453801
30
0
40
29.999999999999748
210
0
220
0
230
1
100
AcDbArc
50
104.03122103913803
51
179.30458823431377
0
SPLINE
5
107
100
AcDbEntity
8
0
100
AcDbSpline
70
0
71
3
72
29
73
25
74
0
42
0.000000001
43
0.0000000001
44
0.0000000001
40
928.478877958878
40
928.478877958878
40
928.478877958878
40
928.478877958878
40
951.92600006909151
40
951.92600006909151
40
951.92600006909151
40
968.8574744231737
40
968.8574744231737
40
968.8574744231737
40
985.79448708350947
40
985.79448708350947
40
985.79448708350947
40
1019.6552429997528
40
1019.6552429997528
40
1019.6552429997528
40
1028.107434334411
40
1028.107434334411
40
1028.107434334411
40
1036.5594866798237
40
1036.5594866798237
40
1036.5594866798237
40
1052.0326546258066
40
1052.0326546258066
40
1052.0326546258066
40
1053.5149101093753
40
1053.5149101093753
40
1053.5149101093753
40
1053.5149101093753
10
-1141.7646276208411
20
-700.15889995960833
30
0
10
-1145.5133347416595
20
-698.22342634620804
30
0
10
-1149.2172056528848
20
-696.53815577889327
30
0
10
-1152.7837390317545
20
-695.19430621239712
30
0
10
-1155.3591795550506
20
-694.22389481760297
30
0
10
-1157.8514900251459
20
-693.43761549219516
30
0
10
-1160.4094128731178
20
-692.81395654754965
30
0
10
-1162.9681724208249
20
-692.19009360329005
30
0
10
-1165.6066766354261
20
-691.72519028757188
30
0
10
-1168.4078061142684
20
-691.38285685430492
30
0
10
-1174.0078705102164
20
-690.69845819095735
30
0
10
-1180.2205347408058
20
-690.50612560531306
30
0
10
-1186.2485460172256
20
-690.72057602190694
30
0
10
-1187.7532349498001
20
-690.77410630803899
30
0
10
-1189.2482626940168
20
-690.85317148555305
30
0
10
-1190.7132255037645
20
-690.96293780807832
30
0
10
-1192.1781642234189
20
-691.07270232558778
30
0
10
-1193.6129973793745
20
-691.21317075638888
30
0
10
-1194.9972011352777
20
-691.38200177131625
30
0
10
-1197.5312622498157
20
-691.69108062479484
30
0
10
-1199.8691873556036
20
-692.08881073286238
30
0
10
-1202.081894565081
20
-692.61478773985459
30
0
10
-1202.2938613327287
20
-692.66517382146162
30
0
10
-1202.5050245099962
20
-692.71685291494691
30
0
10
-1202.71556033452
20
-692.7699314869526
30
0
0
ARC
5
108
100
AcDbEntity
8
0
100
AcDbCircle
10
-1155.5101462773289
20
-726.82475943684619
30
0
40
30.000000000000181
210
0
220
0
230
1
100
AcDbArc
50
-90.18563133601053
51
62.730136952530032
0
LINE
5
109
100
AcDbEntity
8
0
100
AcDbLine
10
-1155.6073424475348
20
-756.82460198484148
30
0
11
-1164.6918066461371
21
-756.79516932608385
31
0
0
ARC
5
110
100
AcDbEntity
8
0
100
AcDbCircle
10
-1164.5946104759287
20
-726.79532677808857
30
0
40
30.000000000000146
210
0
220
0
230
1
100
AcDbArc
50
217.79424110883645
51
269.81436866398468
0
ARC
5
111
100
AcDbEntity
8
0
100
AcDbCircle
10
-1215.9586902988481
20
-766.62912278028762
30
0
40
35.00000000000022
210
0
220
-0
230
1
100
AcDbArc
50
37.794241108836317
51
89.340293822953782
0
CIRCLE
5
112
100
AcDbEntity
8
0
100
AcDbCircle
10
-1224.5499737841997
20
-782.54606142896864
30
0
40
3.1999999998712445
210
0
220
-0
230
1
0
CIRCLE
5
113
100
AcDbEntity
8
0
100
AcDbCircle
10
-1207.3575975373783
20
-750.91660998036605
30
0
40
3.1999999998713462
210
0
220
-0
230
1
0
LINE
5
114
100
AcDbEntity
8
0
100
AcDbLine
10
-1080.5386154838725
20
-761.31659829167393
30
0
11
-1078.3061349436834
21
-760.21068824716326
31
0
0
ARC
5
115
100
AcDbEntity
8
0
100
AcDbCircle
10
-1078.0765453154208
20
-760.67415666384886
30
0
40
0.517217914104665
210
-0
220
0
230
1
100
AcDbArc
50
-8.321418357042047
51
116.35256174747012
0
LINE
5
116
100
AcDbEntity
8
0
100
AcDbLine
10
-1077.5647727974206
20
-760.74901159348246
30
0
11
-1078.6293228078328
21
-768.02718875605706
31
0
0
ARC
5
117
100
AcDbEntity
8
0
100
AcDbCircle
10
-1079.2708357174747
20
-767.93335721563381
30
0
40
0.64833877812099905
210
0
220
0
230
1
100
AcDbArc
50
232.64752347914273
51
351.67858164296558
0
LINE
5
118
100
AcDbEntity
8
0
100
AcDbLine
10
-1079.6641936883343
20
-768.44873346457894
30
0
11
-1084.996601666367
21
-764.37880360978511
31
0
0
ARC
5
119
100
AcDbEntity
8
0
100
AcDbCircle
10
-1084.6749059978504
20
-763.95731906078822
30
0
40
0.53022384724305072
210
0
220
0
230
1
100
AcDbArc
50
116.35256174748237
51
232.64752347915461
0
LINE
5
120
100
AcDbEntity
8
0
100
AcDbLine
10
-1084.9102688742412
20
-763.48219629286166
30
0
11
-1082.5509032440359
21
-762.31343083123966
31
0
0
ELLIPSE
5
121
100
AcDbEntity
8
0
100
AcDbEllipse
10
-1196.6161146208965
20
-768.71952779190588
30
0
11
-106.933673053384
21
71.283435742415662
31
0.0
40
0.75893564115222423
41
3.9216600733789444
42
4.065200134175341
0
ARC
5
122
100
AcDbEntity
8
0
100
AcDbCircle
10
-1087.9984725234549
20
-746.46557524440732
30
0
40
1.0978851555079383
210
0
220
0
230
1
100
AcDbArc
50
124.49501630604377
51
206.47303932640995
0
LINE
5
123
100
AcDbEntity
8
0
100
AcDbLine
10
-1088.6202428197707
20
-745.56072524948888
30
0
11
-1088.4738075479031
21
-745.46010068687178
31
0
0
ARC
5
124
100
AcDbEntity
8
0
100
AcDbCircle
10
-1087.9241588135944
20
-746.25997727525817
30
0
40
0.97052371829616235
210
0
220
-0
230
1
100
AcDbArc
50
26.537622057117741
51
124.49556215357036
0
ELLIPSE
5
125
100
AcDbEntity
8
0
100
AcDbEllipse
10
-1185.0344449292229
20
-767.01269297931447
30
0
11
-94.335904766575354
21
76.34899959916946
31
0.0
40
0.75226764641930366
41
4.0181892935178034
42
4.1681943117368885
0
ARC
5
126
100
AcDbEntity
8
0
100
AcDbCircle
10
-1215.9586902990136
20
-766.62912278106376
30
0
40
34.999999999206601
210
0
220
0
230
1
100
AcDbArc
50
257.16129781062392
51
259.23400810935073
0
ARC
5
127
100
AcDbEntity
8
0
100
AcDbCircle
10
-1228.1005760025973
20
-830.48501218414117
30
0
40
30.000000000000504
210
0
220
-0
230
1
100
AcDbArc
50
27.213880554173464
51
79.234008109320712
0
LINE
5
128
100
AcDbEntity
8
0
100
AcDbLine
10
-1201.4214077019637
20
-816.76561063791848
30
0
11
-1171.908937660153
21
-874.15646347943084
31
0
0
ARC
5
129
100
AcDbEntity
8
0
100
AcDbCircle
10
-1198.5881059607864
20
-887.87586502565318
30
0
40
30.000000000000036
210
0
220
0
230
1
100
AcDbArc
50
-94.677756012265846
51
27.213880554173087
0
SPLINE
5
130
100
AcDbEntity
8
0
100
AcDbSpline
70
0
71
3
72
35
73
31
74
0
42
0.000000001
43
0.0000000001
44
0.0000000001
40
105.28476682814835
40
105.28476682814835
40
105.28476682814835
40
105.28476682814835
40
122.24487972385883
40
122.24487972385883
40
122.24487972385883
40
139.16126339312427
40
139.16126339312427
40
139.16126339312427
40
173.01842672827254
40
173.01842672827254
40
173.01842672827254
40
189.94799666034342
40
189.94799666034342
40
189.94799666034342
40
206.87804773455761
40
206.87804773455761
40
206.87804773455761
40
240.74898030840282
40
240.74898030840282
40
240.74898030840282
40
257.67561704930478
40
257.67561704930478
40
257.67561704930478
40
274.61199085652891
40
274.61199085652891
40
274.61199085652891
40
308.49598807242495
40
308.49598807242495
40
308.49598807242495
40
360.0247533891947
40
360.0247533891947
40
360.0247533891947
40
360.0247533891947
10
-1279.6123438523168
20
-826.39998497466695
30
0
10
-1280.0419146609213
20
-829.37704286578582
30
0
10
-1280.3256382486645
20
-832.40148789828618
30
0
10
-1280.4618688781347
20
-835.45041216343179
30
0
10
-1280.5977482564024
20
-838.49147521324085
30
0
10
-1280.5869000292678
20
-841.5568627751893
30
0
10
-1280.4067941341596
20
-844.55983848813503
30
0
10
-1280.0463226038655
20
-850.57012066147036
30
0
10
-1279.0089608673552
20
-856.32798554842634
30
0
10
-1277.2295030099701
20
-861.7283024734129
30
0
10
-1276.3397221402745
20
-864.42861856699415
30
0
10
-1275.2620423783401
20
-867.0448487362795
30
0
10
-1274.0022137896842
20
-869.61041099654847
30
0
10
-1272.7423493964193
20
-872.17604617066729
30
0
10
-1271.298113779005
20
-874.69676663134942
30
0
10
-1269.700537211658
20
-877.1748863136288
30
0
10
-1266.5043620815911
20
-882.13271097112465
30
0
10
-1262.7108829195981
20
-886.89666622695017
30
0
10
-1258.528324392305
20
-891.25778294462509
30
0
10
-1256.4381354468219
20
-893.43720443837378
30
0
10
-1254.2491709556496
20
-895.51695572922597
30
0
10
-1251.966202837812
20
-897.47178605042222
30
0
10
-1249.6819214400641
20
-899.42774088990177
30
0
10
-1247.3033427198895
20
-901.25906347564194
30
0
10
-1244.8186633191997
20
-902.95365952388215
30
0
10
-1239.847654125989
20
-906.34397721728033
30
0
10
-1234.4514804485559
20
-909.18808479024528
30
0
10
-1228.730591194666
20
-911.45233239070421
30
0
10
-1220.030603472183
20
-914.89566531508444
30
0
10
-1210.5852735449032
20
-916.99254892309239
30
0
10
-1201.0345800090954
20
-917.7750416611326
30
0
0
ARC
5
131
100
AcDbEntity
8
0
100
AcDbCircle
10
-1249.9177014450029
20
-830.66943602856327
30
0
40
30.000000000000476
210
0
220
-0
230
1
100
AcDbArc
50
89.814368663983842
51
171.81817042314412
0
LINE
5
132
100
AcDbEntity
8
0
100
AcDbLine
10
-1249.820505274794
20
-800.66959348056776
30
0
11
-1223.7359402523325
21
-800.75410458483998
31
0
0
ARC
5
133
100
AcDbEntity
8
0
100
AcDbCircle
10
-1111.0888170710721
20
-806.96909950222789
30
0
40
29.999999999999698
210
-0
220
0
230
1
100
AcDbArc
50
-3.3407271707664696
51
89.814368663984695
0
SPLINE
5
134
100
AcDbEntity
8
0
100
AcDbSpline
70
0
71
3
72
14
73
10
74
0
42
0.000000001
43
0.0000000001
44
0.0000000001
40
566.6462265526776
40
566.6462265526776
40
566.6462265526776
40
566.6462265526776
40
579.39513608643472
40
579.39513608643472
40
579.39513608643472
40
647.13832667252734
40
647.13832667252734
40
647.13832667252734
40
685.36956079427978
40
685.36956079427978
40
685.36956079427978
40
685.36956079427978
10
-1102.688467005285
20
-869.55764104346952
30
0
10
-1101.2990771541747
20
-867.62632821310126
30
0
10
-1099.9700714727906
20
-865.6603017615862
30
0
10
-1098.7065398361078
20
-863.66325870662604
30
0
10
-1091.9925801638144
20
-853.05167911053741
30
0
10
-1087.1262214706289
20
-841.56482411120237
30
0
10
-1084.212476337942
20
-829.51794689010273
30
0
10
-1082.5680885939473
20
-822.71922690819463
30
0
10
-1081.5452158596727
20
-815.72881334256999
30
0
10
-1081.1379485538255
20
-808.71741798642915
30
0
0
ARC
5
135
100
AcDbEntity
8
0
100
AcDbCircle
10
-1127.052814749542
20
-852.05083835196774
30
0
40
29.999999999999996
210
0
220
0
230
1
100
AcDbArc
50
207.21388055417327
51
324.30117121289521
0
LINE
5
136
100
AcDbEntity
8
0
100
AcDbLine
10
-1153.7319830501751
20
-865.77023989819008
30
0
11
-1176.9799875765352
21
-820.56145850032988
31
0
0
ARC
5
137
100
AcDbEntity
8
0
100
AcDbCircle
10
-1150.3008192759016
20
-806.84205695410765
30
0
40
30.000000000000476
210
0
220
-0
230
1
100
AcDbArc
50
89.814368663983842
51
207.21388055417268
0
LINE
5
138
100
AcDbEntity
8
0
100
AcDbLine
10
-1150.2036231056927
20
-776.84221440611213
30
0
11
-1110.9916209008636
21
-776.96925695423317
31
0
0
LWPOLYLINE
5
139
100
AcDbEntity
8
0
100
AcDbPolyline
90
31
70
1
43
0.0
10
-1114.4228484010855
20
-731.8550232981811
42
-0.072872758697159312
10
-1112.7139867738831
20
-731.16692768538485
42
-0.068321888640894612
10
-1111.4915421849478
20
-731.05390311927283
42
-0.16382915835014028
10
-1108.9026304744157
20
-732.09758966176139
42
-0.054663599143765174
10
-1107.9524790963515
20
-733.07984343287762
42
-0.047043046521063073
10
-1107.1521344516568
20
-734.31561798630969
42
-0.10809007411082183
10
-1106.5783623996278
20
-736.3833072949385
42
-0.23785133936146385
10
-1108.1281303320434
20
-739.86039625187209
42
-0.19020148515444688
10
-1111.7134399340384
20
-740.97647613750246
42
-0.028687641907980056
10
-1112.899018891728
20
-740.86626733680009
10
-1114.051065658663
20
-740.65535910741335
10
-1116.0419601512888
20
-740.18265531036741
10
-1118.0644601321208
20
-739.59841981333807
10
-1119.2447142318397
20
-739.31579514109001
10
-1120.2734655718468
20
-739.19368771410313
10
-1120.9173824957845
20
-739.24265603390404
10
-1116.437261582545
20
-745.6852570645168
10
-1117.9874285930766
20
-746.76322784214119
10
-1124.0253107592293
20
-738.08050105424957
42
-0.11578647091884563
10
-1122.5229405353839
20
-737.43153682871616
42
-0.075684846100760511
10
-1120.2887191637856
20
-737.3365570039623
10
-1119.2966308114856
20
-737.47603564465396
10
-1118.144416543711
20
-737.71833766613031
10
-1116.8320763869629
20
-738.06346321588535
42
0.028932137925625691
10
-1113.2585914685942
20
-738.89892063407092
42
0.030451714165889154
10
-1112.0372131513241
20
-739.02296670114379
42
0.072912089496482563
10
-1110.5117890250251
20
-738.85828300443154
42
0.10623584871397036
10
-1109.3703858984704
20
-738.27258139204514
42
0.40499579162170674
10
-1109.0176566274913
20
-734.37084303517292
42
0.078733972381891518
10
-1109.8117443265046
20
-733.52345033666427
42
0.34449948767729072
10
-1113.4403547005388
20
-733.63110602803954
0
LWPOLYLINE
5
140
100
AcDbEntity
8
0
100
AcDbPolyline
90
12
70
1
43
0.0
10
-1102.2654476886032
20
-741.34712534462415
10
-1103.7048194887952
20
-739.27724856608518
10
-1106.8795699004479
20
-748.13169280752265
10
-1117.2583962996255
20
-747.81160673550085
10
-1115.806562641626
20
-749.8994041861597
10
-1107.5128925559698
20
-749.95462626088727
10
-1110.3793222953186
20
-757.70400252750608
10
-1108.883872134998
20
-759.85452233058652
10
-1105.3977122867182
20
-750.0523836886963
10
-1095.9970166951753
20
-750.36139097733155
10
-1097.3117677394202
20
-748.47072405188783
10
-1104.8547666723334
20
-748.25241774731853
0
LWPOLYLINE
5
141
100
AcDbEntity
8
0
100
AcDbPolyline
90
51
70
1
43
0.0
10
-1092.8693052033043
20
-763.02196855653892
10
-1091.5848835947038
20
-764.60138774458346
42
0.24683323845490401
10
-1089.6580249458393
20
-760.77705710138889
42
0.069430368312593943
10
-1089.9432753995877
20
-759.19613814549075
42
0.065413232598769744
10
-1090.8765575901739
20
-757.25929969352637
42
0.084484894619754752
10
-1092.697268605461
20
-755.20687012734231
42
0.052367113105905312
10
-1093.7546097357815
20
-754.53269318430375
42
0.20601954480146473
10
-1096.9927725620585
20
-754.34323274994188
42
0.10880346654272291
10
-1098.4770235456658
20
-755.2860044498359
42
0.13044291801688548
10
-1099.39690483512
20
-756.87362265028003
42
0.11749984365086893
10
-1099.4032235775453
20
-759.17705696547841
42
0.026347630087734289
10
-1099.0186897590565
20
-760.50225018123467
10
-1098.2140526805867
20
-762.65377059239813
10
-1097.6664824161214
20
-764.20055393247719
42
-0.048362091099749364
10
-1097.4413052846389
20
-765.22495691431891
42
-0.1034457449129802
10
-1097.5145538544068
20
-766.2921082228886
42
-0.11505248890993786
10
-1097.9779867312054
20
-767.08703278266353
42
-0.27225981759785972
10
-1100.2497868318437
20
-767.74218243661835
42
-0.11035975141701813
10
-1101.687551755037
20
-766.97313058597433
42
-0.07810997522809561
10
-1103.0106674815838
20
-765.44179290568297
42
-0.10710585568128533
10
-1103.9013450712223
20
-763.14848847994017
42
-0.0579747878391128
10
-1103.9401318638236
20
-762.20060261227729
42
-0.072310512784630424
10
-1103.7541030914786
20
-761.37209984180186
42
-0.060853023796270327
10
-1103.3432893463576
20
-760.61573513277517
42
-0.057133236624249809
10
-1102.5137113051478
20
-759.70528505549669
10
-1103.7973597102155
20
-758.16521029938417
42
0.26322444721161348
10
-1106.0034748283399
20
-762.81779568991556
42
0.071097198291819916
10
-1105.591065071992
20
-764.57484793557774
42
0.060516561707848193
10
-1104.347366809686
20
-766.85612203723065
42
0.095163222044276755
10
-1102.3562014532004
20
-768.85099276071901
42
0.056101532482744722
10
-1101.2017535052153
20
-769.44992859876879
42
0.082864663097623095
10
-1099.7280256685324
20
-769.75077155206259
42
0.093730839540544564
10
-1098.0269423390073
20
-769.49011054459174
42
0.2742442808678956
10
-1095.3388357467268
20
-766.34629206905583
42
0.059300026516185045
10
-1095.3014225322968
20
-765.15963778496587
42
0.050170664316232072
10
-1095.5105069599315
20
-763.97535298422997
10
-1095.9970833439293
20
-762.49397832065802
10
-1096.9580044028735
20
-760.00679156414685
10
-1097.236591310902
20
-759.15870129634823
10
-1097.4063087370801
20
-758.47188990228415
10
-1097.4671569166544
20
-757.94635693367456
10
-1097.4266476410808
20
-757.56410286348932
42
-0.2995129601046822
10
-1095.870078617078
20
-756.0943621543812
42
-0.14167599846362502
10
-1094.511991284518
20
-756.262186448227
42
-0.067534354353901496
10
-1093.7891224570951
20
-756.7080245670162
42
-0.046101288519516739
10
-1093.0624491615047
20
-757.43333843884727
42
-0.033658238712292732
10
-1092.3560773265983
20
-758.40499715796068
42
-0.047362941995115704
10
-1091.8670568795799
20
-759.35957746332008
42
-0.064248107392899906
10
-1091.6336488307645
20
-760.24819398683508
42
-0.076654669105994153
10
-1091.6546761182251
20
-761.07183170365317
42
-0.095896098778654557
10
-1092.0536292006111
20
-762.08975674530393
42
-0.07482145703595236
0
ENDSEC
0
SECTION
2
OBJECTS
0
DICTIONARY
5
C
100
AcDbDictionary
3
ACAD_GROUP
350
D
3
ACAD_MLINESTYLE
350
17
0
DICTIONARY
5
D
100
AcDbDictionary
0
DICTIONARY
5
1A
330
C
100
AcDbDictionary
0
DICTIONARY
5
17
100
AcDbDictionary
0
ENDSEC
0
EOF
