0
SECTION
2
HEADER
9
$INSUNITS
70
4
9
$ACADVER
1
AC1014
9
$HANDSEED
5
FFFF
0
ENDSEC
0
SECTION
2
TABLES
0
TABLE
2
VPORT
5
8
100
AcDbSymbolTable
0
ENDTAB
0
TABLE
2
LTYPE
5
5
100
AcDbSymbolTable
0
LTYPE
5
14
100
AcDbSymbolTableRecord
100
AcDbLinetypeTableRecord
2
BYBLOCK
70
0
0
LTYPE
5
15
100
AcDbSymbolTableRecord
100
AcDbLinetypeTableRecord
2
BYLAYER
70
0
0
ENDTAB
0
TABLE
2
LAYER
5
2
100
AcDbSymbolTable
70
2
0
LAYER
5
50
100
AcDbSymbolTableRecord
100
AcDbLayerTableRecord
2
0
70
0
6
CONTINUOUS
0
ENDTAB
0
TABLE
2
STYLE
5
3
100
AcDbSymbolTable
70
1
0
STYLE
5
11
100
AcDbSymbolTableRecord
100
AcDbTextStyleTableRecord
2
STANDARD
70
0
0
ENDTAB
0
TABLE
2
VIEW
5
6
100
AcDbSymbolTable
70
0
0
ENDTAB
0
TABLE
2
UCS
5
7
100
AcDbSymbolTable
70
0
0
ENDTAB
0
TABLE
2
APPID
5
9
100
AcDbSymbolTable
70
2
0
APPID
5
12
100
AcDbSymbolTableRecord
100
AcDbRegAppTableRecord
2
ACAD
70
0
0
ENDTAB
0
TABLE
2
DIMSTYLE
5
A
100
AcDbSymbolTable
70
1
0
ENDTAB
0
TABLE
2
BLOCK_RECORD
5
1
100
AcDbSymbolTable
70
1
0
BLOCK_RECORD
5
1F
100
AcDbSymbolTableRecord
100
AcDbBlockTableRecord
2
*MODEL_SPACE
0
BLOCK_RECORD
5
1B
100
AcDbSymbolTableRecord
100
AcDbBlockTableRecord
2
*PAPER_SPACE
0
ENDTAB
0
ENDSEC
0
SECTION
2
BLOCKS
0
BLOCK
5
20
100
AcDbEntity
100
AcDbBlockBegin
2
*MODEL_SPACE
0
ENDBLK
5
21
100
AcDbEntity
100
AcDbBlockEnd
0
BLOCK
5
1C
100
AcDbEntity
100
AcDbBlockBegin
2
*PAPER_SPACE
0
ENDBLK
5
1D
100
AcDbEntity
100
AcDbBlockEnd
0
ENDSEC
0
SECTION
2
ENTITIES
0
LINE
5
100
100
AcDbEntity
8
0
100
AcDbLine
10
-42.600011546737811
20
26.378018449837057
30
0
11
5.7455101173968348
21
1.7289052868479349
31
0
0
ARC
5
101
100
AcDbEntity
8
0
100
AcDbCircle
10
-3.3306690738754696e-15
20
1.5265566588595902e-15
30
0
40
6.0000000000000036
210
0
220
0
230
1
100
AcDbArc
50
-70.777086093295338
51
16.74728431249109
0
LINE
5
102
100
AcDbEntity
8
0
100
AcDbLine
10
1.9754657902225348
20
-5.665468640073871
30
0
11
-48.392168739446106
21
20.014624997118041
31
0
0
SPLINE
5
103
100
AcDbEntity
8
0
100
AcDbSpline
70
4
71
5
72
130
73
124
74
0
42
0.000000001
43
0.0000000001
44
0.0000000001
40
0.00085537134515734558
40
0.00085537134515734558
40
0.00085537134515734558
40
0.00085537134515734558
40
0.00085537134515734558
40
0.00085537134515734558
40
0.0083333333333333332
40
0.016666666666666666
40
0.025000000000000001
40
0.033333333333333333
40
0.041666666666666664
40
0.049999999999999996
40
0.058333333333333327
40
0.066666666666666666
40
0.074999999999999997
40
0.083333333333333329
40
0.09166666666666666
40
0.099999999999999992
40
0.10833333333333332
40
0.11666666666666665
40
0.12499999999999999
40
0.13333333333333333
40
0.14166666666666666
40
0.14999999999999999
40
0.15833333333333333
40
0.16666666666666666
40
0.17499999999999999
40
0.18333333333333332
40
0.19166666666666665
40
0.19999999999999998
40
0.20833333333333331
40
0.21666666666666665
40
0.22499999999999998
40
0.23333333333333331
40
0.24166666666666664
40
0.24999999999999997
40
0.2583333333333333
40
0.26666666666666666
40
0.27500000000000002
40
0.28333333333333338
40
0.29166666666666674
40
0.3000000000000001
40
0.30833333333333346
40
0.31666666666666682
40
0.32500000000000018
40
0.33333333333333354
40
0.3416666666666669
40
0.35000000000000026
40
0.35833333333333361
40
0.36666666666666697
40
0.37500000000000033
40
0.38333333333333369
40
0.39166666666666705
40
0.40000000000000041
40
0.40833333333333377
40
0.41666666666666713
40
0.42500000000000049
40
0.43333333333333385
40
0.44166666666666721
40
0.45000000000000057
40
0.45833333333333393
40
0.46666666666666728
40
0.47500000000000064
40
0.483333333333334
40
0.49166666666666736
40
0.50000000000000067
40
0.50833333333333397
40
0.51666666666666727
40
0.52500000000000058
40
0.53333333333333388
40
0.54166666666666718
40
0.55000000000000049
40
0.55833333333333379
40
0.5666666666666671
40
0.5750000000000004
40
0.5833333333333337
40
0.59166666666666701
40
0.60000000000000031
40
0.60833333333333361
40
0.61666666666666692
40
0.62500000000000022
40
0.63333333333333353
40
0.64166666666666683
40
0.65000000000000013
40
0.65833333333333344
40
0.66666666666666674
40
0.67500000000000004
40
0.68333333333333335
40
0.69166666666666665
40
0.69999999999999996
40
0.70833333333333326
40
0.71666666666666656
40
0.72499999999999987
40
0.73333333333333317
40
0.74166666666666647
40
0.74999999999999978
40
0.75833333333333308
40
0.76666666666666639
40
0.77499999999999969
40
0.78333333333333299
40
0.7916666666666663
40
0.7999999999999996
40
0.8083333333333329
40
0.81666666666666621
40
0.82499999999999951
40
0.83333333333333282
40
0.84166666666666612
40
0.84999999999999942
40
0.85833333333333273
40
0.86666666666666603
40
0.87499999999999933
40
0.88333333333333264
40
0.89166666666666594
40
0.89999999999999925
40
0.90833333333333255
40
0.91666666666666585
40
0.92499999999999916
40
0.93333333333333246
40
0.94166666666666576
40
0.94999999999999907
40
0.95833333333333237
40
0.96666666666666567
40
0.97499999999999898
40
0.98333333333333228
40
0.98880543195119219
40
0.98880543195119219
40
0.98880543195119219
40
0.98880543195119219
40
0.98880543195119219
40
0.98880543195119219
41
1
41
1
41
1
41
1
41
1
41
1
41
1
41
1
41
1
41
1
41
1
41
1
41
1
41
1
41
1
41
1
41
1
41
1
41
1
41
1
41
1
41
1
41
1
41
1
41
1
41
1
41
1
41
1
41
1
41
1
41
1
41
1
41
1
41
1
41
1
41
1
41
1
41
1
41
1
41
1
41
1
41
1
41
1
41
1
41
1
41
1
41
1
41
1
41
1
41
1
41
1
41
1
41
1
41
1
41
1
41
1
41
1
41
1
41
1
41
1
41
1
41
1
41
1
41
1
41
1
41
1
41
1
41
1
41
1
41
1
41
1
41
1
41
1
41
1
41
1
41
1
41
1
41
1
41
1
41
1
41
1
41
1
41
1
41
1
41
1
41
1
41
1
41
1
41
1
41
1
41
1
41
1
41
1
41
1
41
1
41
1
41
1
41
1
41
1
41
1
41
1
41
1
41
1
41
1
41
1
41
1
41
1
41
1
41
1
41
1
41
1
41
1
41
1
41
1
41
1
41
1
41
1
41
1
41
1
41
1
41
1
41
1
41
1
41
1
10
-42.600011546737804
20
26.378018449837057
30
0
10
-43.098054355015847
20
27.499651370438283
30
0
10
-44.118181255703412
20
29.865896821487176
30
0
10
-45.569647545697727
20
33.462097698366286
30
0
10
-47.303608183342646
20
38.264332687347384
30
0
10
-49.110561367712535
20
44.244031673761732
30
0
10
-50.557209932680806
20
50.307539437018825
30
0
10
-51.589174473649074
20
56.360522806845346
30
0
10
-52.178597091244967
20
62.456150100414369
30
0
10
-52.285524650171823
20
68.669475101604377
30
0
10
-51.865342126692198
20
75.074734277022216
30
0
10
-50.875015226443509
20
81.725210048214734
30
0
10
-49.279423657385664
20
88.634564759094573
30
0
10
-47.058577114324379
20
95.7514856439157
30
0
10
-44.210853513268816
20
102.96105624372005
30
0
10
-40.752186522331755
20
110.11360680396265
30
0
10
-36.716239693065923
20
117.04575517208349
30
0
10
-32.154456436839183
20
123.60535863787706
30
0
10
-27.135543160262703
20
129.67309753892397
30
0
10
-21.746840482032308
20
135.18994345668068
30
0
10
-16.082313637847438
20
140.14740320520784
30
0
10
-10.227830925865465
20
144.56950010418328
30
0
10
-4.2466000552195649
20
148.49716922344373
30
0
10
1.8337455427155493
20
151.97259518467735
30
0
10
8.0389406641983179
20
155.0213032593665
30
0
10
14.450032966598643
20
157.64275186336153
30
0
10
21.17111805679988
20
159.81976445542244
30
0
10
28.304061563581989
20
161.52405854723139
30
0
10
35.920628723780482
20
162.72329929740204
30
0
10
44.035258334435532
20
163.38756535042646
30
0
10
52.578795691024723
20
163.49588322234928
30
0
10
61.422313851022508
20
163.03518542468808
30
0
10
70.399674145097151
20
161.99951642371178
30
0
10
79.330136752932788
20
160.38916683122693
30
0
10
88.041860288585752
20
158.20979631868431
30
0
10
96.392870166219794
20
155.47167081868079
30
0
10
104.29852764287766
20
152.18858613153637
30
0
10
111.73123523936218
20
148.37817876986568
30
0
10
118.70214039040171
20
144.06318798709395
30
0
10
125.24848200307203
20
139.27234747674603
30
0
10
131.41813991585485
20
134.04162451024263
30
0
10
137.25650575071444
20
128.41487029812754
30
0
10
142.78959783067918
20
122.44582670489132
30
0
10
148.0198814477782
20
116.19510529037727
30
0
10
152.93394352282891
20
109.72223608004752
30
0
10
157.50685123073271
20
103.07931947502028
30
0
10
161.70799789825878
20
96.303480211386955
30
0
10
165.50599173271092
20
89.411078055271446
30
0
10
168.87474437506441
20
82.388040392592714
30
0
10
171.79568137242779
20
75.195193642041076
30
0
10
174.25702871179294
20
67.785653381134722
30
0
10
176.25390810571432
20
60.118399869742959
30
0
10
177.78816499811592
20
52.174183901010693
30
0
10
178.86817241381988
20
43.968671303683145
30
0
10
179.50901596171286
20
35.57135592487888
30
0
10
179.73017016697102
20
27.09293649664135
30
0
10
179.55227415214495
20
18.661945043431281
30
0
10
178.99427997451625
20
10.405447668642866
30
0
10
178.07028432614032
20
2.4269099866944628
30
0
10
176.78686910060776
20
-5.2120828341929997
30
0
10
175.1392751125816
20
-12.518456365400652
30
0
10
173.11269109137976
20
-19.558164287104681
30
0
10
170.68641052809195
20
-26.426712678393571
30
0
10
167.83710328829983
20
-33.22551445170356
30
0
10
164.54245434456232
20
-40.036563391305336
30
0
10
160.78464099104536
20
-46.896099649543466
30
0
10
156.55389643174092
20
-53.773749176962156
30
0
10
151.85225169590515
20
-60.593924314013051
30
0
10
146.69722713888214
20
-67.252749767086939
30
0
10
141.12564370671126
20
-73.636806178391041
30
0
10
135.19717869486161
20
-79.640843923942199
30
0
10
128.9985504985014
20
-85.186532478011912
30
0
10
122.64596479492937
20
-90.239081559348477
30
0
10
116.26070739404717
20
-94.795625854214222
30
0
10
109.94720383485597
20
-98.875464129609782
30
0
10
103.76845231360778
20
-102.50928765605309
30
0
10
97.726401387817376
20
-105.72957890688713
30
0
10
91.730829733208139
20
-108.55872599182356
30
0
10
85.605701712261691
20
-111.0043572322779
30
0
10
79.153714380854097
20
-113.06602528376092
30
0
10
72.209494056702908
20
-114.73939683807734
30
0
10
64.692655575710177
20
-116.02113128329543
30
0
10
56.672197901246584
20
-116.91421231454301
30
0
10
48.389872164122039
20
-117.43068101133395
30
0
10
40.169610997223302
20
-117.58675813403809
30
0
10
32.350608952326965
20
-117.39954199562106
30
0
10
25.206458352845868
20
-116.88281223919041
30
0
10
18.88077352645546
20
-116.04383590143344
30
0
10
13.289346926565276
20
-114.87819018842808
30
0
10
8.1506296180424993
20
-113.37216300096594
30
0
10
3.1226712082352814
20
-111.51150376827451
30
0
10
-2.1001235802980442
20
-109.28767766739034
30
0
10
-7.6518669226332854
20
-106.70668363530032
30
0
10
-13.450949562347516
20
-103.7915454657101
30
0
10
-19.298740208660423
20
-100.57475307157412
30
0
10
-24.949546714046779
20
-97.092711357652746
30
0
10
-30.185172922977259
20
-93.37991189631397
30
0
10
-34.904722119837587
20
-89.461912436367328
30
0
10
-39.122593553319099
20
-85.355326868852828
30
0
10
-42.912450183437727
20
-81.071938653902038
30
0
10
-46.370162378228663
20
-76.621348242342933
30
0
10
-49.564039530886923
20
-72.014640666445388
30
0
10
-52.505684167609665
20
-67.266315331237251
30
0
10
-55.175686961492957
20
-62.391338665129624
30
0
10
-57.53974235227345
20
-57.403205990248829
30
0
10
-59.569589281013307
20
-52.311181597617839
30
0
10
-61.258777112288357
20
-47.119124761369889
30
0
10
-62.610793360852391
20
-41.835918068271802
30
0
10
-63.629935168226091
20
-36.484447141325198
30
0
10
-64.310589641986681
20
-31.111847976449198
30
0
10
-64.628790374880325
20
-25.797182211062847
30
0
10
-64.560086746991473
20
-20.625831936120264
30
0
10
-64.094334562355328
20
-15.667705561329274
30
0
10
-63.254476019616718
20
-10.950711832013662
30
0
10
-62.105019369841457
20
-6.4461999371881262
30
0
10
-60.716435031842586
20
-2.1039547138021089
30
0
10
-59.139661885593654
20
2.1230969947851839
30
0
10
-57.368615533148876
20
6.2435676456977092
30
0
10
-55.356375873246989
20
10.236833451452469
30
0
10
-53.204160554915504
20
13.810594673777416
30
0
10
-51.289771002940824
20
16.501934483733255
30
0
10
-49.77916404083026
20
18.398089667442449
30
0
10
-48.791044963297423
20
19.558230665930278
30
0
10
-48.392168739446113
20
20.01462499711803
30
0
0
CIRCLE
5
104
100
AcDbEntity
8
0
100
AcDbCircle
10
-2.233094609952099
20
17.860943101166772
30
0
40
3.2000000000000006
210
0
220
-0
230
1
0
CIRCLE
5
105
100
AcDbEntity
8
0
100
AcDbCircle
10
2.233094609952099
20
-17.860943101166772
30
0
40
3.2000000000000006
210
0
220
-0
230
1
0
ENDSEC
0
SECTION
2
OBJECTS
0
DICTIONARY
5
C
100
AcDbDictionary
3
ACAD_GROUP
350
D
3
ACAD_MLINESTYLE
350
17
0
DICTIONARY
5
D
100
AcDbDictionary
0
DICTIONARY
5
1A
330
C
100
AcDbDictionary
0
DICTIONARY
5
17
100
AcDbDictionary
0
ENDSEC
0
EOF
