0
SECTION
2
HEADER
9
$INSUNITS
70
4
9
$ACADVER
1
AC1014
9
$HANDSEED
5
FFFF
0
ENDSEC
0
SECTION
2
TABLES
0
TABLE
2
VPORT
5
8
100
AcDbSymbolTable
0
ENDTAB
0
TABLE
2
LTYPE
5
5
100
AcDbSymbolTable
0
LTYPE
5
14
100
AcDbSymbolTableRecord
100
AcDbLinetypeTableRecord
2
BYBLOCK
70
0
0
LTYPE
5
15
100
AcDbSymbolTableRecord
100
AcDbLinetypeTableRecord
2
BYLAYER
70
0
0
ENDTAB
0
TABLE
2
LAYER
5
2
100
AcDbSymbolTable
70
2
0
LAYER
5
50
100
AcDbSymbolTableRecord
100
AcDbLayerTableRecord
2
0
70
0
6
CONTINUOUS
0
ENDTAB
0
TABLE
2
STYLE
5
3
100
AcDbSymbolTable
70
1
0
STYLE
5
11
100
AcDbSymbolTableRecord
100
AcDbTextStyleTableRecord
2
STANDARD
70
0
0
ENDTAB
0
TABLE
2
VIEW
5
6
100
AcDbSymbolTable
70
0
0
ENDTAB
0
TABLE
2
UCS
5
7
100
AcDbSymbolTable
70
0
0
ENDTAB
0
TABLE
2
APPID
5
9
100
AcDbSymbolTable
70
2
0
APPID
5
12
100
AcDbSymbolTableRecord
100
AcDbRegAppTableRecord
2
ACAD
70
0
0
ENDTAB
0
TABLE
2
DIMSTYLE
5
A
100
AcDbSymbolTable
70
1
0
ENDTAB
0
TABLE
2
BLOCK_RECORD
5
1
100
AcDbSymbolTable
70
1
0
BLOCK_RECORD
5
1F
100
AcDbSymbolTableRecord
100
AcDbBlockTableRecord
2
*MODEL_SPACE
0
BLOCK_RECORD
5
1B
100
AcDbSymbolTableRecord
100
AcDbBlockTableRecord
2
*PAPER_SPACE
0
ENDTAB
0
ENDSEC
0
SECTION
2
BLOCKS
0
BLOCK
5
20
100
AcDbEntity
100
AcDbBlockBegin
2
*MODEL_SPACE
0
ENDBLK
5
21
100
AcDbEntity
100
AcDbBlockEnd
0
BLOCK
5
1C
100
AcDbEntity
100
AcDbBlockBegin
2
*PAPER_SPACE
0
ENDBLK
5
1D
100
AcDbEntity
100
AcDbBlockEnd
0
ENDSEC
0
SECTION
2
ENTITIES
0
LINE
5
100
100
AcDbEntity
8
0
100
AcDbLine
10
-764.72177531051034
20
-773.474300485909
30
0
11
-773.19290216965089
21
-782.57054122144882
31
0
0
SPLINE
5
101
100
AcDbEntity
8
0
100
AcDbSpline
70
0
71
3
72
40
73
36
74
0
42
0.000000001
43
0.0000000001
44
0.0000000001
40
17.814015226912296
40
17.814015226912296
40
17.814015226912296
40
17.814015226912296
40
58.274803797770836
40
78.505201220732062
40
98.73559864369328
40
139.19639348961573
40
159.42679091257696
40
179.65718833553817
40
193.14411995084566
40
206.63105156615313
40
233.6049147967681
40
260.57877802738307
40
287.552641257998
40
314.526504488613
40
341.50036771922794
40
368.47423094984293
40
395.44809418045787
40
422.42195741107287
40
462.88275225699533
40
503.34354710291774
40
543.80434194884015
40
584.26513679476261
40
624.72593164068508
40
665.18672648660754
40
705.64752133253
40
746.10831617845247
40
786.56911102437493
40
827.02990587029728
40
867.49070071621975
40
907.95149556214221
40
928.18189298510345
40
948.41229040806468
40
968.64268783102591
40
988.87308525398714
40
1150.7162646376767
40
1150.7162646376767
40
1150.7162646376767
40
1150.7162646376767
10
-773.19286453105804
20
-782.57057724391484
30
0
10
-779.68172315977404
20
-789.16811100206837
30
0
10
-787.97206779144562
20
-799.3867963516725
30
0
10
-794.91255367063059
20
-815.89869465227605
30
0
10
-798.96907529571786
20
-834.66904668097311
30
0
10
-799.37704244005045
20
-855.25967057181515
30
0
10
-795.4971646407464
20
-874.66824690891588
30
0
10
-790.56262191354062
20
-886.69160531757848
30
0
10
-784.7017934601904
20
-896.56578910121584
30
0
10
-776.75768062755139
20
-907.34634213102754
30
0
10
-764.97360941867271
20
-919.87249512364485
30
0
10
-748.65125234567029
20
-932.64009466788525
30
0
10
-730.53960985513766
20
-941.72745019870774
30
0
10
-711.19636347602579
20
-946.64007390939548
30
0
10
-691.14515017234851
20
-948.21775225769227
30
0
10
-670.8220322132172
20
-946.82997454429608
30
0
10
-650.83695281232269
20
-942.18078474659092
30
0
10
-628.60767838540585
20
-932.90689415512475
30
0
10
-605.56809537514698
20
-917.41528052452509
30
0
10
-584.05227843683338
20
-895.07180672243749
30
0
10
-567.95753884083479
20
-869.10952176720559
30
0
10
-557.61200013733412
20
-840.85500029085222
30
0
10
-553.59228651522972
20
-811.18031084029428
30
0
10
-556.64695424219622
20
-780.84600782148652
30
0
10
-565.82809824610445
20
-751.77638717055186
30
0
10
-580.1396402729913
20
-725.68135907119631
30
0
10
-599.11152458877143
20
-704.25170925000668
30
0
10
-622.70269545604276
20
-687.80770544974985
30
0
10
-649.04888232660267
20
-676.85184905933068
30
0
10
-671.59935227797985
20
-673.37915536787318
30
0
10
-689.46453487418864
20
-674.25494340653267
30
0
10
-702.67147328119245
20
-676.70764289704266
30
0
10
-715.35292661089886
20
-680.73824408919177
30
0
10
-754.22904367671947
20
-698.92526240626114
30
0
10
-773.9733280881469
20
-735.00617123788868
30
0
10
-767.49396215651973
20
-765.16527534560441
30
0
0
LINE
5
102
100
AcDbEntity
8
0
100
AcDbLine
10
-767.49396215651973
20
-765.16527534560441
30
0
11
-710.01107852630696
21
-765.35151352750074
31
0
0
ARC
5
103
100
AcDbEntity
8
0
100
AcDbCircle
10
-714.35780253555447
20
-769.48745240367521
30
0
40
6.0000000000006342
210
0
220
0
230
1
100
AcDbArc
50
-43.947816538902636
51
43.576553866870505
0
LINE
5
104
100
AcDbEntity
8
0
100
AcDbLine
10
-710.03796946673219
20
-773.65146996577994
30
0
11
-764.72177531051034
21
-773.474300485909
31
0
0
ARC
5
105
100
AcDbEntity
8
0
100
AcDbCircle
10
-715.01028758816642
20
-724.49218306059731
30
0
40
9.9999999999998721
210
0
220
0
230
1
100
AcDbArc
50
188.23049314428602
51
270.83079888431348
0
ARC
5
106
100
AcDbEntity
8
0
100
AcDbCircle
10
-695.21628393223159
20
-721.62906949860712
30
0
40
30.00000000000043
210
0
220
0
230
1
100
AcDbArc
50
107.51646606271331
51
188.23049314428519
0
SPLINE
5
107
100
AcDbEntity
8
0
100
AcDbSpline
70
0
71
3
72
23
73
19
74
0
42
0.000000001
43
0.0000000001
44
0.0000000001
40
954.48383579935557
40
954.48383579935557
40
954.48383579935557
40
954.48383579935557
40
967.01664816087043
40
967.01664816087043
40
967.01664816087043
40
1032.8559932574856
40
1032.8559932574856
40
1032.8559932574856
40
1040.6670073390551
40
1040.6670073390551
40
1040.6670073390551
40
1077.4734326640184
40
1077.4734326640184
40
1077.4734326640184
40
1095.9150968393778
40
1095.9150968393778
40
1095.9150968393778
40
1114.3072857956181
40
1114.3072857956181
40
1114.3072857956181
40
1114.3072857956181
10
-626.71636463054836
20
-703.96773132450551
30
0
10
-628.6197963959205
20
-702.83019914776992
30
0
10
-630.55541140899811
20
-701.74770672036198
30
0
10
-632.51522989825526
20
-700.72444560384042
30
0
10
-642.81085725777427
20
-695.34888903830097
30
0
10
-653.75463548749724
20
-691.6163231834588
30
0
10
-664.6170459000017
20
-689.92262479125816
30
0
10
-665.9057349136508
20
-689.72168867969754
30
0
10
-667.19381769814447
20
-689.54938903402945
30
0
10
-668.47991599657018
20
-689.40648758192401
30
0
10
-674.54016380655185
20
-688.73311898076372
30
0
10
-680.56457182050212
20
-688.71477256148933
30
0
10
-686.54213817661116
20
-689.32903187412876
30
0
10
-689.53716609230833
20
-689.63680324448785
30
0
10
-692.5228235094944
20
-690.10228164248974
30
0
10
-695.48692583462866
20
-690.7240624750051
30
0
10
-698.44307607850635
20
-691.34417519651709
30
0
10
-701.40178094599548
20
-692.12870263108221
30
0
10
-704.24568012057296
20
-693.02015472586606
30
0
0
ARC
5
108
100
AcDbEntity
8
0
100
AcDbCircle
10
-642.10393050492803
20
-729.72133701665871
30
0
40
29.999999999999908
210
0
220
0
230
1
100
AcDbArc
50
-90.185631336014865
51
59.142032766724796
0
LINE
5
109
100
AcDbEntity
8
0
100
AcDbLine
10
-642.20112667513627
20
-759.72117956465365
30
0
11
-663.09091888284331
21
-759.65349894947076
31
0
0
ARC
5
110
100
AcDbEntity
8
0
100
AcDbCircle
10
-662.99372271263496
20
-729.65365640147525
30
0
40
30.000000000000359
210
0
220
0
230
1
100
AcDbArc
50
217.79424110883789
51
269.81436866398496
0
ARC
5
111
100
AcDbEntity
8
0
100
AcDbCircle
10
-714.35780253555345
20
-769.48745240367441
30
0
40
34.999999999999417
210
0
220
-0
230
1
100
AcDbArc
50
37.794241108836133
51
90.830798884313523
0
CIRCLE
5
112
100
AcDbEntity
8
0
100
AcDbCircle
10
-722.94908602090504
20
-785.40439105235623
30
0
40
3.1999999999076332
210
0
220
-0
230
1
0
CIRCLE
5
113
100
AcDbEntity
8
0
100
AcDbCircle
10
-705.75670977408413
20
-753.77493960375682
30
0
40
3.1999999999575497
210
0
220
-0
230
1
0
LINE
5
114
100
AcDbEntity
8
0
100
AcDbLine
10
-578.93772772057957
20
-764.17492791506095
30
0
11
-576.70524718038905
21
-763.06901787055028
31
0
0
ARC
5
115
100
AcDbEntity
8
0
100
AcDbCircle
10
-576.47565755212645
20
-763.53248628723577
30
0
40
0.51721791410454487
210
-0
220
0
230
1
100
AcDbArc
50
-8.3214183570562952
51
116.35256174747569
0
LINE
5
116
100
AcDbEntity
8
0
100
AcDbLine
10
-575.96388503412629
20
-763.60734121686949
30
0
11
-577.02843504453858
21
-770.88551837944408
31
0
0
ARC
5
117
100
AcDbEntity
8
0
100
AcDbCircle
10
-577.66994795418054
20
-770.79168683902071
30
0
40
0.64833877812106899
210
0
220
0
230
1
100
AcDbArc
50
232.64752347915075
51
351.67858164295558
0
LINE
5
118
100
AcDbEntity
8
0
100
AcDbLine
10
-578.06330592504003
20
-771.30706308796584
30
0
11
-583.39571390307287
21
-767.23713323317202
31
0
0
ARC
5
119
100
AcDbEntity
8
0
100
AcDbCircle
10
-583.07401823455643
20
-766.81564868417524
30
0
40
0.5302238472430203
210
0
220
0
230
1
100
AcDbArc
50
116.35256174744946
51
232.64752347916675
0
LINE
5
120
100
AcDbEntity
8
0
100
AcDbLine
10
-583.30938111094702
20
-766.34052591624845
30
0
11
-580.95001548074174
21
-765.17176045462679
31
0
0
ELLIPSE
5
121
100
AcDbEntity
8
0
100
AcDbEllipse
10
-695.01522664402319
20
-771.57785739157237
30
0
11
-106.93367278402305
21
71.283435826043828
31
0.0
40
0.75893564107889611
41
3.9216600750948669
42
4.0652001360283148
0
ARC
5
122
100
AcDbEntity
8
0
100
AcDbCircle
10
-586.39758476016061
20
-749.32390486779423
30
0
40
1.0978851555080187
210
0
220
0
230
1
100
AcDbArc
50
124.49501630604865
51
206.47303932637027
0
LINE
5
123
100
AcDbEntity
8
0
100
AcDbLine
10
-587.01935505647657
20
-748.41905487287579
30
0
11
-586.87291978460894
21
-748.3184303102588
31
0
0
ARC
5
124
100
AcDbEntity
8
0
100
AcDbCircle
10
-586.32327105030026
20
-749.11830689864519
30
0
40
0.97052371829628947
210
0
220
-0
230
1
100
AcDbArc
50
26.537622057108731
51
124.49556215357036
0
ELLIPSE
5
125
100
AcDbEntity
8
0
100
AcDbEllipse
10
-683.43355725731635
20
-769.87102261958
30
0
11
-94.335904878221328
21
76.348999575545861
31
0.0
40
0.75226764656341449
41
4.0181892928141831
42
4.1681943109644255
0
LINE
5
126
100
AcDbEntity
8
0
100
AcDbLine
10
-646.46146357813734
20
-879.653908932376
30
0
11
-675.37909981324094
21
-823.4197881237169
31
0
0
ARC
5
127
100
AcDbEntity
8
0
100
AcDbCircle
10
-648.69993151260769
20
-809.70038657749456
30
0
40
29.999999999999908
210
0
220
-0
230
1
100
AcDbArc
50
89.814368663984496
51
207.21388055417316
0
LINE
5
128
100
AcDbEntity
8
0
100
AcDbLine
10
-648.60273534239911
20
-779.7005440294995
30
0
11
-599.66578791319182
21
-779.85909432402855
31
0
0
ARC
5
129
100
AcDbEntity
8
0
100
AcDbCircle
10
-599.76298408340062
20
-809.85893687202361
30
0
40
30.000000000000146
210
-0
220
0
230
1
100
AcDbArc
50
-0.58459093021794362
51
89.814368663984055
0
SPLINE
5
130
100
AcDbEntity
8
0
100
AcDbSpline
70
0
71
3
72
17
73
13
74
0
42
0.000000001
43
0.0000000001
44
0.0000000001
40
578.45672685966838
40
578.45672685966838
40
578.45672685966838
40
578.45672685966838
40
598.80140468080344
40
598.80140468080344
40
598.80140468080344
40
672.43773990491229
40
672.43773990491229
40
672.43773990491229
40
709.24449619144048
40
709.24449619144048
40
709.24449619144048
40
722.72608972255841
40
722.72608972255841
40
722.72608972255841
40
722.72608972255841
10
-595.91445612721111
20
-884.10654701557496
30
0
10
-593.61425021567675
20
-881.08510402832223
30
0
10
-591.44926415076816
20
-877.96864717511062
30
0
10
-589.42517603349802
20
-874.76686785082052
30
0
10
-582.09911108241772
20
-863.17822055397744
30
0
10
-576.6236694470341
20
-850.48053291861049
30
0
10
-573.32590739389832
20
-837.39564332873158
30
0
10
-571.67753741715637
20
-830.85522628183458
30
0
10
-570.57378644905168
20
-824.21545845364517
30
0
10
-570.0731340381061
20
-817.5284463226219
30
0
10
-569.88975487118898
20
-815.07912482343022
30
0
10
-569.78715933960257
20
-812.62347921466574
30
0
10
-569.76320398993494
20
-810.16503721849801
30
0
0
ARC
5
131
100
AcDbEntity
8
0
100
AcDbCircle
10
-619.782295277505
20
-865.934507386154
30
0
40
29.999999999999044
210
0
220
0
230
1
100
AcDbArc
50
207.21388055417341
51
322.71577239566028
0
LINE
5
132
100
AcDbEntity
8
0
100
AcDbLine
10
-699.82051993866844
20
-819.62394026130505
30
0
11
-664.14148314852116
21
-889.00648760652462
31
0
0
ARC
5
133
100
AcDbEntity
8
0
100
AcDbCircle
10
-690.8206514491543
20
-902.72588915274707
30
0
40
30.000000000000021
210
0
220
0
230
1
100
AcDbArc
50
-90.251473240868691
51
27.213880554173478
0
SPLINE
5
134
100
AcDbEntity
8
0
100
AcDbSpline
70
0
71
3
72
56
73
52
74
0
42
0.000000001
43
0.0000000001
44
0.0000000001
40
83.275005565951886
40
83.275005565951886
40
83.275005565951886
40
83.275005565951886
40
101.69922161001173
40
101.69922161001173
40
101.69922161001173
40
120.1058767850605
40
120.1058767850605
40
120.1058767850605
40
156.92335001636448
40
156.92335001636448
40
156.92335001636448
40
175.31865628702394
40
175.31865628702394
40
175.31865628702394
40
205.626629571607
40
205.626629571607
40
205.626629571607
40
212.13748946961027
40
212.13748946961027
40
212.13748946961027
40
230.54722075198507
40
230.54722075198507
40
230.54722075198507
40
231.69760943057116
40
231.69760943057116
40
231.69760943057116
40
232.84800610890699
40
232.84800610890699
40
232.84800610890699
40
235.14884600813514
40
235.14884600813514
40
235.14884600813514
40
239.75086983284805
40
239.75086983284805
40
239.75086983284805
40
248.95755797251667
40
248.95755797251667
40
248.95755797251667
40
267.37537178449867
40
267.37537178449867
40
267.37537178449867
40
304.21089526196465
40
304.21089526196465
40
304.21089526196465
40
341.10019883805444
40
341.10019883805444
40
341.10019883805444
40
377.88282569591621
40
377.88282569591621
40
377.88282569591621
40
380.63707393014107
40
380.63707393014107
40
380.63707393014107
40
380.63707393014107
10
-781.97721688263584
20
-827.49268775659743
30
0
10
-782.61144080800989
20
-830.58770809933196
30
0
10
-783.08036899558886
20
-833.81001503450375
30
0
10
-783.39198065923028
20
-837.1039170856036
30
0
10
-783.70329531313223
20
-840.39467958480498
30
0
10
-783.85760093571764
20
-843.75691754237107
30
0
10
-783.84659040380802
20
-847.10209758820747
30
0
10
-783.82456684982753
20
-853.79321423162901
30
0
10
-783.14249489969097
20
-860.39917627863633
30
0
10
-781.67541061659563
20
-866.52464071708494
30
0
10
-780.94240364072687
20
-869.58513847822655
30
0
10
-780.00997106246803
20
-872.53284860473923
30
0
10
-778.8611489862983
20
-875.39788073553325
30
0
10
-776.96835806012461
20
-880.11828690882328
30
0
10
-774.47218237388734
20
-884.66431241412261
30
0
10
-771.43354775628438
20
-889.12195014006647
30
0
10
-770.78077813389268
20
-890.07955474256346
30
0
10
-770.10441082048624
20
-891.03099861665271
30
0
10
-769.40450568515212
20
-891.97825452367147
30
0
10
-767.42549436153183
20
-894.65666059860541
30
0
10
-765.25380802997961
20
-897.30728767439405
30
0
10
-762.98467003966039
20
-899.84549819507311
30
0
10
-762.8428759735674
20
-900.0041060857626
30
0
10
-762.700701685377
20
-900.16227507247686
30
0
10
-762.55705847733577
20
-900.32112113548919
30
0
10
-762.41341427040607
20
-900.47996830310944
30
0
10
-762.26830113327151
20
-900.63949254615852
30
0
10
-762.12329817234809
20
-900.79808336494057
30
0
10
-761.83328638399576
20
-901.11527141874603
30
0
10
-761.54371523298335
20
-901.42872569487167
30
0
10
-761.25130429423155
20
-901.74176474090586
30
0
10
-760.66643869484994
20
-902.36788963920856
30
0
10
-760.07021261971386
20
-902.99235273731608
30
0
10
-759.46838723133442
20
-903.60939189332407
30
0
10
-758.26439114691834
20
-904.84382424215778
30
0
10
-757.03798062727401
20
-906.04854381751136
30
0
10
-755.78470201816549
20
-907.22730953206224
30
0
10
-753.27754073205153
20
-909.58540911458215
30
0
10
-750.66205882179645
20
-911.84055464718881
30
0
10
-747.97466229374641
20
-913.93944100430485
30
0
10
-742.5998844339631
20
-918.1372018500457
30
0
10
-736.94202291008583
20
-921.7043560710465
30
0
10
-731.03780942243338
20
-924.47658528039688
30
0
10
-725.12497574552651
20
-927.25286196202956
30
0
10
-718.94747270794937
20
-929.23927590136486
30
0
10
-712.4984055966072
20
-930.57177008902386
30
0
10
-706.06798793777216
20
-931.90041096167749
30
0
10
-699.3436930521093
20
-932.59015900532347
30
0
10
-692.49324993120297
20
-932.70642057148393
30
0
10
-691.98029524359129
20
-932.71512612735796
30
0
10
-691.46663794567144
20
-932.72059345082209
30
0
10
-690.95230993450787
20
-932.72278682401179
30
0
0
ARC
5
135
100
AcDbEntity
8
0
100
AcDbCircle
10
-752.5876837144823
20
-833.513928505639
30
0
40
29.999999999999766
210
0
220
-0
230
1
100
AcDbArc
50
89.814368663983842
51
168.42163454931458
0
LINE
5
136
100
AcDbEntity
8
0
100
AcDbLine
10
-752.49048754427338
20
-803.51408595764406
30
0
11
-722.135052489038
21
-803.61243420822746
31
0
0
ARC
5
137
100
AcDbEntity
8
0
100
AcDbCircle
10
-714.35780253561325
20
-769.48745240396011
30
0
40
34.99999999970894
210
0
220
0
230
1
100
AcDbArc
50
257.16129781063358
51
259.23400810932952
0
ARC
5
138
100
AcDbEntity
8
0
100
AcDbCircle
10
-726.49968823930305
20
-833.34334180752865
30
0
40
30.00000000000178
210
0
220
-0
230
1
100
AcDbArc
50
27.213880554174107
51
79.234008109321607
0
LWPOLYLINE
5
139
100
AcDbEntity
8
0
100
AcDbPolyline
90
31
70
1
43
0.0
10
-604.65562654299958
20
-745.29185999927063
42
-0.072872758697181517
10
-602.85323981448312
20
-744.91095881242416
42
-0.068321888640879222
10
-601.62974039573476
20
-745.01192661860387
42
-0.16382915835022532
10
-599.26139433749711
20
-746.48931701803565
42
-0.05466359914379134
10
-598.49624447120516
20
-747.62164020256466
42
-0.047043046521082654
10
-597.92264885923873
20
-748.97761895281621
42
-0.10809007411093269
10
-597.71664417436352
20
-751.11352988600561
42
-0.23785133936147382
10
-599.84665781053343
20
-754.26867967143619
42
-0.19020148515440261
10
-603.57130374179758
20
-754.74522131702781
42
-0.028687641907945278
10
-604.71973353373323
20
-754.43081321016302
10
-605.81765429195548
20
-754.02305832902357
10
-607.69621847078906
20
-753.21182076424282
10
-609.58654070299224
20
-752.2852576811805
10
-610.69978683162026
20
-751.80197773915802
10
-611.6917053950051
20
-751.50308460289625
10
-612.33434303349168
20
-751.43949398347775
10
-609.04103115210251
20
-758.5621822603008
10
-610.75483530364988
20
-759.3545925631679
10
-615.19324878875443
20
-749.75530867004511
42
-0.11578647091890852
10
-613.60101148928243
20
-749.37708752086428
42
-0.075684846100904105
10
-611.38423988710247
20
-749.6715191227496
10
-610.43144379786384
20
-749.9811531039436
10
-609.33880955830296
20
-750.41985392114486
10
-608.10633722012926
20
-750.98762171500471
42
0.028932137925669725
10
-604.73221722543417
20
-752.43091580174018
42
0.0304517141658967
10
-603.55093476271963
20
-752.76516744936032
42
0.072912089496420848
10
-602.02008823268307
20
-752.86787278774432
42
0.10623584871417321
10
-600.79431956669202
20
-752.48927187182392
42
0.40499579162182309
10
-599.7694192905135
20
-748.70806048286659
42
0.078733972381927114
10
-600.40429481520903
20
-747.73564970168786
42
0.34449948767734662
10
-603.99647265884084
20
-747.21156828229573
0
LWPOLYLINE
5
140
100
AcDbEntity
8
0
100
AcDbPolyline
90
13
70
1
43
0.0
10
-593.96477819852726
20
-757.54337584553457
10
-595.30225676400232
20
-754.65071239854922
10
-609.82501291740186
20
-761.36558795278859
10
-608.9684768688935
20
-763.21808157960334
10
-596.6053116700507
20
-757.50173442828782
10
-607.02638471629143
20
-767.41838738301669
10
-606.22481332102871
20
-769.1520049041327
10
-592.11842981086374
20
-767.7519646955086
10
-604.27356052629818
20
-773.37212310328778
10
-603.41702447779005
20
-775.22461673010241
10
-588.89426832439108
20
-768.50974117586338
10
-590.08975453545133
20
-765.92417505661956
10
-604.5277356608417
20
-767.30919773390247
0
ENDSEC
0
SECTION
2
OBJECTS
0
DICTIONARY
5
C
100
AcDbDictionary
3
ACAD_GROUP
350
D
3
ACAD_MLINESTYLE
350
17
0
DICTIONARY
5
D
100
AcDbDictionary
0
DICTIONARY
5
1A
330
C
100
AcDbDictionary
0
DICTIONARY
5
17
100
AcDbDictionary
0
ENDSEC
0
EOF
