0
SECTION
2
HEADER
9
$INSUNITS
70
4
9
$ACADVER
1
AC1014
9
$HANDSEED
5
FFFF
0
ENDSEC
0
SECTION
2
TABLES
0
TABLE
2
VPORT
5
8
100
AcDbSymbolTable
0
ENDTAB
0
TABLE
2
LTYPE
5
5
100
AcDbSymbolTable
0
LTYPE
5
14
100
AcDbSymbolTableRecord
100
AcDbLinetypeTableRecord
2
BYBLOCK
70
0
0
LTYPE
5
15
100
AcDbSymbolTableRecord
100
AcDbLinetypeTableRecord
2
BYLAYER
70
0
0
ENDTAB
0
TABLE
2
LAYER
5
2
100
AcDbSymbolTable
70
2
0
LAYER
5
50
100
AcDbSymbolTableRecord
100
AcDbLayerTableRecord
2
0
70
0
6
CONTINUOUS
0
ENDTAB
0
TABLE
2
STYLE
5
3
100
AcDbSymbolTable
70
1
0
STYLE
5
11
100
AcDbSymbolTableRecord
100
AcDbTextStyleTableRecord
2
STANDARD
70
0
0
ENDTAB
0
TABLE
2
VIEW
5
6
100
AcDbSymbolTable
70
0
0
ENDTAB
0
TABLE
2
UCS
5
7
100
AcDbSymbolTable
70
0
0
ENDTAB
0
TABLE
2
APPID
5
9
100
AcDbSymbolTable
70
2
0
APPID
5
12
100
AcDbSymbolTableRecord
100
AcDbRegAppTableRecord
2
ACAD
70
0
0
ENDTAB
0
TABLE
2
DIMSTYLE
5
A
100
AcDbSymbolTable
70
1
0
ENDTAB
0
TABLE
2
BLOCK_RECORD
5
1
100
AcDbSymbolTable
70
1
0
BLOCK_RECORD
5
1F
100
AcDbSymbolTableRecord
100
AcDbBlockTableRecord
2
*MODEL_SPACE
0
BLOCK_RECORD
5
1B
100
AcDbSymbolTableRecord
100
AcDbBlockTableRecord
2
*PAPER_SPACE
0
ENDTAB
0
ENDSEC
0
SECTION
2
BLOCKS
0
BLOCK
5
20
100
AcDbEntity
100
AcDbBlockBegin
2
*MODEL_SPACE
0
ENDBLK
5
21
100
AcDbEntity
100
AcDbBlockEnd
0
BLOCK
5
1C
100
AcDbEntity
100
AcDbBlockBegin
2
*PAPER_SPACE
0
ENDBLK
5
1D
100
AcDbEntity
100
AcDbBlockEnd
0
ENDSEC
0
SECTION
2
ENTITIES
0
LINE
5
100
100
AcDbEntity
8
0
100
AcDbLine
10
-42.16516519511805
20
26.156310697792257
30
0
11
5.7455101173968348
21
1.7289052868479349
31
0
0
ARC
5
101
100
AcDbEntity
8
0
100
AcDbCircle
10
-3.3306690738754696e-15
20
1.5265566588595902e-15
30
0
40
6.0000000000000036
210
0
220
0
230
1
100
AcDbArc
50
-70.777086093295338
51
16.74728431249109
0
LINE
5
102
100
AcDbEntity
8
0
100
AcDbLine
10
1.9754657902225348
20
-5.665468640073871
30
0
11
-48.480895055404396
21
20.05986238265676
31
0
0
SPLINE
5
103
100
AcDbEntity
8
0
100
AcDbSpline
70
4
71
5
72
130
73
124
74
0
42
0.000000001
43
0.0000000001
44
0.0000000001
40
0.00029991597552387537
40
0.00029991597552387537
40
0.00029991597552387537
40
0.00029991597552387537
40
0.00029991597552387537
40
0.00029991597552387537
40
0.0083333333333333332
40
0.016666666666666666
40
0.025000000000000001
40
0.033333333333333333
40
0.041666666666666664
40
0.049999999999999996
40
0.058333333333333327
40
0.066666666666666666
40
0.074999999999999997
40
0.083333333333333329
40
0.09166666666666666
40
0.099999999999999992
40
0.10833333333333332
40
0.11666666666666665
40
0.12499999999999999
40
0.13333333333333333
40
0.14166666666666666
40
0.14999999999999999
40
0.15833333333333333
40
0.16666666666666666
40
0.17499999999999999
40
0.18333333333333332
40
0.19166666666666665
40
0.19999999999999998
40
0.20833333333333331
40
0.21666666666666665
40
0.22499999999999998
40
0.23333333333333331
40
0.24166666666666664
40
0.24999999999999997
40
0.2583333333333333
40
0.26666666666666666
40
0.27500000000000002
40
0.28333333333333338
40
0.29166666666666674
40
0.3000000000000001
40
0.30833333333333346
40
0.31666666666666682
40
0.32500000000000018
40
0.33333333333333354
40
0.3416666666666669
40
0.35000000000000026
40
0.35833333333333361
40
0.36666666666666697
40
0.37500000000000033
40
0.38333333333333369
40
0.39166666666666705
40
0.40000000000000041
40
0.40833333333333377
40
0.41666666666666713
40
0.42500000000000049
40
0.43333333333333385
40
0.44166666666666721
40
0.45000000000000057
40
0.45833333333333393
40
0.46666666666666728
40
0.47500000000000064
40
0.483333333333334
40
0.49166666666666736
40
0.50000000000000067
40
0.50833333333333397
40
0.51666666666666727
40
0.52500000000000058
40
0.53333333333333388
40
0.54166666666666718
40
0.55000000000000049
40
0.55833333333333379
40
0.5666666666666671
40
0.5750000000000004
40
0.5833333333333337
40
0.59166666666666701
40
0.60000000000000031
40
0.60833333333333361
40
0.61666666666666692
40
0.62500000000000022
40
0.63333333333333353
40
0.64166666666666683
40
0.65000000000000013
40
0.65833333333333344
40
0.66666666666666674
40
0.67500000000000004
40
0.68333333333333335
40
0.69166666666666665
40
0.69999999999999996
40
0.70833333333333326
40
0.71666666666666656
40
0.72499999999999987
40
0.73333333333333317
40
0.74166666666666647
40
0.74999999999999978
40
0.75833333333333308
40
0.76666666666666639
40
0.77499999999999969
40
0.78333333333333299
40
0.7916666666666663
40
0.7999999999999996
40
0.8083333333333329
40
0.81666666666666621
40
0.82499999999999951
40
0.83333333333333282
40
0.84166666666666612
40
0.84999999999999942
40
0.85833333333333273
40
0.86666666666666603
40
0.87499999999999933
40
0.88333333333333264
40
0.89166666666666594
40
0.89999999999999925
40
0.90833333333333255
40
0.91666666666666585
40
0.92499999999999916
40
0.93333333333333246
40
0.94166666666666576
40
0.94999999999999907
40
0.95833333333333237
40
0.96666666666666567
40
0.97499999999999898
40
0.98333333333333228
40
0.98913972899058034
40
0.98913972899058034
40
0.98913972899058034
40
0.98913972899058034
40
0.98913972899058034
40
0.98913972899058034
41
1
41
1
41
1
41
1
41
1
41
1
41
1
41
1
41
1
41
1
41
1
41
1
41
1
41
1
41
1
41
1
41
1
41
1
41
1
41
1
41
1
41
1
41
1
41
1
41
1
41
1
41
1
41
1
41
1
41
1
41
1
41
1
41
1
41
1
41
1
41
1
41
1
41
1
41
1
41
1
41
1
41
1
41
1
41
1
41
1
41
1
41
1
41
1
41
1
41
1
41
1
41
1
41
1
41
1
41
1
41
1
41
1
41
1
41
1
41
1
41
1
41
1
41
1
41
1
41
1
41
1
41
1
41
1
41
1
41
1
41
1
41
1
41
1
41
1
41
1
41
1
41
1
41
1
41
1
41
1
41
1
41
1
41
1
41
1
41
1
41
1
41
1
41
1
41
1
41
1
41
1
41
1
41
1
41
1
41
1
41
1
41
1
41
1
41
1
41
1
41
1
41
1
41
1
41
1
41
1
41
1
41
1
41
1
41
1
41
1
41
1
41
1
41
1
41
1
41
1
41
1
41
1
41
1
41
1
41
1
41
1
41
1
41
1
41
1
10
-42.16516519511805
20
26.156310697792261
30
0
10
-42.625621224062328
20
27.324196110141166
30
0
10
-43.530450974584852
20
29.696674246892645
30
0
10
-44.793683426691643
20
33.255931013808869
30
0
10
-46.276576593676033
20
37.973267234765331
30
0
10
-47.784921223233852
20
43.813042068649551
30
0
10
-48.941445525189877
20
49.639096912904712
30
0
10
-49.718855868373318
20
55.433906807845744
30
0
10
-50.089442897393575
20
61.240047311352853
30
0
10
-50.013734346777603
20
67.117609970448584
30
0
10
-49.449130661631244
20
73.126426775446191
30
0
10
-48.357386701016239
20
79.310355707312155
30
0
10
-46.711739381869407
20
85.682681090498122
30
0
10
-44.506179081086501
20
92.206283913980869
30
0
10
-41.755173804002588
20
98.796635736517004
30
0
10
-38.486109048668339
20
105.34214382296744
30
0
10
-34.733834466121884
20
111.71948954662665
30
0
10
-30.534401281963884
20
117.81087918732659
30
0
10
-25.919022153659071
20
123.52080898590461
30
0
10
-20.908292410087622
20
128.79210111317514
30
0
10
-15.516120512555574
20
133.59619924296379
30
0
10
-9.7531875121772078
20
137.92473227707256
30
0
10
-3.6306848543859402
20
141.78029611042922
30
0
10
2.8362966734674528
20
145.16828565526038
30
0
10
9.6246611467130201
20
148.08653462490054
30
0
10
16.701620792019213
20
150.52245159484303
30
0
10
24.025857128324741
20
152.4592139046533
30
0
10
31.54800849023146
20
153.87951948804624
30
0
10
39.211296938774723
20
154.77058426441423
30
0
10
46.95239341983762
20
155.12802130698952
30
0
10
54.701414892373698
20
154.96168630633167
30
0
10
62.38605151452289
20
154.2934120504286
30
0
10
69.938137929215301
20
153.15018324720424
30
0
10
77.299306913231888
20
151.55884776330177
30
0
10
84.427391569363394
20
149.53989803535589
30
0
10
91.301664177109686
20
147.10233640724351
30
0
10
97.93078222565822
20
144.2362928898842
30
0
10
104.34473149563473
20
140.9186155691489
30
0
10
110.58207569224179
20
137.12225099946272
30
0
10
116.6786918643875
20
132.82442272154131
30
0
10
122.6560854990597
20
128.01516316428999
30
0
10
128.50940650619737
20
122.70605520856491
30
0
10
134.19693255102229
20
116.93788077252451
30
0
10
139.65233133529151
20
110.77120174557457
30
0
10
144.79564195279298
20
104.2778954263934
30
0
10
149.54457346641587
20
97.532469641869312
30
0
10
153.82603168920093
20
90.603167717717668
30
0
10
157.58669403396368
20
83.543881129269209
30
0
10
160.80623614612574
20
76.383834769743814
30
0
10
163.49260455603269
20
69.132358044481435
30
0
10
165.67272602800986
20
61.787516650987648
30
0
10
167.3848658596022
20
54.343305624123019
30
0
10
168.67010884419685
20
46.797709248372698
30
0
10
169.56467165697407
20
39.159765706621023
30
0
10
170.09067489650974
20
31.458697454290885
30
0
10
170.25713627081987
20
23.738908215517576
30
0
10
170.06321881743759
20
16.051796365415104
30
0
10
169.5007000708913
20
8.4487506790555074
30
0
10
168.55677030022201
20
0.97345555742959466
30
0
10
167.2166734102704
20
-6.3450516608803156
30
0
10
165.4664518613676
20
-13.50087389994696
30
0
10
163.29513537305533
20
-20.504086487270293
30
0
10
160.69684214907647
20
-27.371745913856088
30
0
10
157.67297652778478
20
-34.119379911161978
30
0
10
154.2342460502658
20
-40.752656568855315
30
0
10
150.40310254495296
20
-47.258065236221441
30
0
10
146.21498229730429
20
-53.596734683121738
30
0
10
141.71298263032833
20
-59.715713630622673
30
0
10
136.94342785385493
20
-65.556879222525893
30
0
10
131.9509439421077
20
-71.067161576324253
30
0
10
126.77408381901996
20
-76.207293248643992
30
0
10
121.43988639577509
20
-80.963419288475222
30
0
10
115.96169958884192
20
-85.34993898203308
30
0
10
110.34306535293256
20
-89.395982447170979
30
0
10
104.58028412287209
20
-93.135540930235479
30
0
10
98.66548911907168
20
-96.595982450496237
30
0
10
92.589536557146786
20
-99.787615862850203
30
0
10
86.344883025538692
20
-102.69183004327405
30
0
10
79.92975234262272
20
-105.27160404315174
30
0
10
73.352121820611814
20
-107.48289116662073
30
0
10
66.634306682165331
20
-109.28634066986474
30
0
10
59.81609622013486
20
-110.65738792998053
30
0
10
52.961513740409394
20
-111.60076430606971
30
0
10
46.150749042301825
20
-112.14656702289354
30
0
10
39.46255893325705
20
-112.3341203853376
30
0
10
32.95841132507968
20
-112.19861969451458
30
0
10
26.668278660555167
20
-111.75847417780689
30
0
10
20.569975385051016
20
-110.99788385944618
30
0
10
14.591192504067781
20
-109.86696105602702
30
0
10
8.6464047599875133
20
-108.30901545645889
30
0
10
2.6677232468360219
20
-106.28311792227558
30
0
10
-3.3663464801628615
20
-103.78503252795471
30
0
10
-9.3900479324517718
20
-100.87758312488214
30
0
10
-15.263298988381118
20
-97.679114994125058
30
0
10
-20.823068524833303
20
-94.322141082939538
30
0
10
-25.926181651594945
20
-90.918398317714392
30
0
10
-30.489681649433358
20
-87.526412281854334
30
0
10
-34.547160071092783
20
-84.105122182199864
30
0
10
-38.229789419987704
20
-80.532507590034101
30
0
10
-41.691032699136031
20
-76.672787299282703
30
0
10
-45.054964766111851
20
-72.423204951407754
30
0
10
-48.339039333840745
20
-67.783009636224733
30
0
10
-51.447048301412465
20
-62.861364222444195
30
0
10
-54.240999576707694
20
-57.816695704833819
30
0
10
-56.591729969315679
20
-52.814327753464234
30
0
10
-58.440479508443197
20
-47.97512206107033
30
0
10
-59.849025325151445
20
-43.332371657987949
30
0
10
-60.931960615562247
20
-38.852424715328738
30
0
10
-61.801295694686267
20
-34.452748097514821
30
0
10
-62.495263586911676
20
-30.018718561512088
30
0
10
-62.950081243103483
20
-25.428567974838732
30
0
10
-63.071192227998807
20
-20.606333927173203
30
0
10
-62.778683567510491
20
-15.560376959358262
30
0
10
-62.076484450642148
20
-10.447944314399926
30
0
10
-61.038895337438007
20
-5.5182431440434963
30
0
10
-59.762151030305553
20
-0.99658715355334893
30
0
10
-58.328370575795191
20
3.0038788677793726
30
0
10
-56.760818163904631
20
6.6039668845542785
30
0
10
-55.023247031216151
20
10.051144781023847
30
0
10
-53.148640909537619
20
13.378059086924933
30
0
10
-51.400720366576365
20
16.129060799153912
30
0
10
-49.928610106896876
20
18.196255772404584
30
0
10
-48.913421150927185
20
19.515407545788285
30
0
10
-48.480895055404396
20
20.059862382656757
30
0
0
CIRCLE
5
104
100
AcDbEntity
8
0
100
AcDbCircle
10
-2.233094609952099
20
17.860943101166772
30
0
40
3.2000000000000006
210
0
220
-0
230
1
0
CIRCLE
5
105
100
AcDbEntity
8
0
100
AcDbCircle
10
2.233094609952099
20
-17.860943101166772
30
0
40
3.2000000000000006
210
0
220
-0
230
1
0
ENDSEC
0
SECTION
2
OBJECTS
0
DICTIONARY
5
C
100
AcDbDictionary
3
ACAD_GROUP
350
D
3
ACAD_MLINESTYLE
350
17
0
DICTIONARY
5
D
100
AcDbDictionary
0
DICTIONARY
5
1A
330
C
100
AcDbDictionary
0
DICTIONARY
5
17
100
AcDbDictionary
0
ENDSEC
0
EOF
