0
SECTION
2
HEADER
9
$INSUNITS
70
4
9
$ACADVER
1
AC1014
9
$HANDSEED
5
FFFF
0
ENDSEC
0
SECTION
2
TABLES
0
TABLE
2
VPORT
5
8
100
AcDbSymbolTable
0
ENDTAB
0
TABLE
2
LTYPE
5
5
100
AcDbSymbolTable
0
LTYPE
5
14
100
AcDbSymbolTableRecord
100
AcDbLinetypeTableRecord
2
BYBLOCK
70
0
0
LTYPE
5
15
100
AcDbSymbolTableRecord
100
AcDbLinetypeTableRecord
2
BYLAYER
70
0
0
ENDTAB
0
TABLE
2
LAYER
5
2
100
AcDbSymbolTable
70
2
0
LAYER
5
50
100
AcDbSymbolTableRecord
100
AcDbLayerTableRecord
2
0
70
0
6
CONTINUOUS
0
ENDTAB
0
TABLE
2
STYLE
5
3
100
AcDbSymbolTable
70
1
0
STYLE
5
11
100
AcDbSymbolTableRecord
100
AcDbTextStyleTableRecord
2
STANDARD
70
0
0
ENDTAB
0
TABLE
2
VIEW
5
6
100
AcDbSymbolTable
70
0
0
ENDTAB
0
TABLE
2
UCS
5
7
100
AcDbSymbolTable
70
0
0
ENDTAB
0
TABLE
2
APPID
5
9
100
AcDbSymbolTable
70
2
0
APPID
5
12
100
AcDbSymbolTableRecord
100
AcDbRegAppTableRecord
2
ACAD
70
0
0
ENDTAB
0
TABLE
2
DIMSTYLE
5
A
100
AcDbSymbolTable
70
1
0
ENDTAB
0
TABLE
2
BLOCK_RECORD
5
1
100
AcDbSymbolTable
70
1
0
BLOCK_RECORD
5
1F
100
AcDbSymbolTableRecord
100
AcDbBlockTableRecord
2
*MODEL_SPACE
0
BLOCK_RECORD
5
1B
100
AcDbSymbolTableRecord
100
AcDbBlockTableRecord
2
*PAPER_SPACE
0
ENDTAB
0
ENDSEC
0
SECTION
2
BLOCKS
0
BLOCK
5
20
100
AcDbEntity
100
AcDbBlockBegin
2
*MODEL_SPACE
0
ENDBLK
5
21
100
AcDbEntity
100
AcDbBlockEnd
0
BLOCK
5
1C
100
AcDbEntity
100
AcDbBlockBegin
2
*PAPER_SPACE
0
ENDBLK
5
1D
100
AcDbEntity
100
AcDbBlockEnd
0
ENDSEC
0
SECTION
2
ENTITIES
0
LINE
5
100
100
AcDbEntity
8
0
100
AcDbLine
10
48.316798104503007
20
19.976197046691002
30
0
11
-1.9754657902225325
21
-5.6654686400738719
31
0
0
ARC
5
101
100
AcDbEntity
8
0
100
AcDbCircle
10
-5.5511151231257827e-16
20
0
30
0
40
6
210
0
220
0
230
1
100
AcDbArc
50
163.25271568750895
51
250.7770860932954
0
LINE
5
102
100
AcDbEntity
8
0
100
AcDbLine
10
-5.7455101173968259
20
1.7289052868479258
30
0
11
42.296693568080215
21
26.223370843958669
31
0
0
ARC
5
103
100
AcDbEntity
8
0
100
AcDbCircle
10
39.058974673051353
20
21.046068156826564
30
0
40
6.1063316940215646
210
0
220
-0
230
1
100
AcDbArc
50
57.97946139335663
51
64.368310766188173
0
SPLINE
5
104
100
AcDbEntity
8
0
100
AcDbSpline
70
4
71
5
72
130
73
124
74
0
42
0.000000001
43
0.0000000001
44
0.0000000001
40
0
40
0
40
0
40
0
40
0
40
0
40
0.0083333333333333332
40
0.016666666666666666
40
0.025000000000000001
40
0.033333333333333333
40
0.041666666666666664
40
0.049999999999999996
40
0.058333333333333327
40
0.066666666666666666
40
0.074999999999999997
40
0.083333333333333329
40
0.09166666666666666
40
0.099999999999999992
40
0.10833333333333332
40
0.11666666666666665
40
0.12499999999999999
40
0.13333333333333333
40
0.14166666666666666
40
0.14999999999999999
40
0.15833333333333333
40
0.16666666666666666
40
0.17499999999999999
40
0.18333333333333332
40
0.19166666666666665
40
0.19999999999999998
40
0.20833333333333331
40
0.21666666666666665
40
0.22499999999999998
40
0.23333333333333331
40
0.24166666666666664
40
0.24999999999999997
40
0.2583333333333333
40
0.26666666666666666
40
0.27500000000000002
40
0.28333333333333338
40
0.29166666666666674
40
0.3000000000000001
40
0.30833333333333346
40
0.31666666666666682
40
0.32500000000000018
40
0.33333333333333354
40
0.3416666666666669
40
0.35000000000000026
40
0.35833333333333361
40
0.36666666666666697
40
0.37500000000000033
40
0.38333333333333369
40
0.39166666666666705
40
0.40000000000000041
40
0.40833333333333377
40
0.41666666666666713
40
0.42500000000000049
40
0.43333333333333385
40
0.44166666666666721
40
0.45000000000000057
40
0.45833333333333393
40
0.46666666666666728
40
0.47500000000000064
40
0.483333333333334
40
0.49166666666666736
40
0.50000000000000067
40
0.50833333333333397
40
0.51666666666666727
40
0.52500000000000058
40
0.53333333333333388
40
0.54166666666666718
40
0.55000000000000049
40
0.55833333333333379
40
0.5666666666666671
40
0.5750000000000004
40
0.5833333333333337
40
0.59166666666666701
40
0.60000000000000031
40
0.60833333333333361
40
0.61666666666666692
40
0.62500000000000022
40
0.63333333333333353
40
0.64166666666666683
40
0.65000000000000013
40
0.65833333333333344
40
0.66666666666666674
40
0.67500000000000004
40
0.68333333333333335
40
0.69166666666666665
40
0.69999999999999996
40
0.70833333333333326
40
0.71666666666666656
40
0.72499999999999987
40
0.73333333333333317
40
0.74166666666666647
40
0.74999999999999978
40
0.75833333333333308
40
0.76666666666666639
40
0.77499999999999969
40
0.78333333333333299
40
0.7916666666666663
40
0.7999999999999996
40
0.8083333333333329
40
0.81666666666666621
40
0.82499999999999951
40
0.83333333333333282
40
0.84166666666666612
40
0.84999999999999942
40
0.85833333333333273
40
0.86666666666666603
40
0.87499999999999933
40
0.88333333333333264
40
0.89166666666666594
40
0.89999999999999925
40
0.90833333333333255
40
0.91666666666666585
40
0.92499999999999916
40
0.93333333333333246
40
0.94166666666666576
40
0.94999999999999907
40
0.95833333333333237
40
0.96666666666666567
40
0.97499999999999898
40
0.98333333333333228
40
0.98557368680352886
40
0.98557368680352886
40
0.98557368680352886
40
0.98557368680352886
40
0.98557368680352886
40
0.98557368680352886
41
1
41
1
41
1
41
1
41
1
41
1
41
1
41
1
41
1
41
1
41
1
41
1
41
1
41
1
41
1
41
1
41
1
41
1
41
1
41
1
41
1
41
1
41
1
41
1
41
1
41
1
41
1
41
1
41
1
41
1
41
1
41
1
41
1
41
1
41
1
41
1
41
1
41
1
41
1
41
1
41
1
41
1
41
1
41
1
41
1
41
1
41
1
41
1
41
1
41
1
41
1
41
1
41
1
41
1
41
1
41
1
41
1
41
1
41
1
41
1
41
1
41
1
41
1
41
1
41
1
41
1
41
1
41
1
41
1
41
1
41
1
41
1
41
1
41
1
41
1
41
1
41
1
41
1
41
1
41
1
41
1
41
1
41
1
41
1
41
1
41
1
41
1
41
1
41
1
41
1
41
1
41
1
41
1
41
1
41
1
41
1
41
1
41
1
41
1
41
1
41
1
41
1
41
1
41
1
41
1
41
1
41
1
41
1
41
1
41
1
41
1
41
1
41
1
41
1
41
1
41
1
41
1
41
1
41
1
41
1
41
1
41
1
41
1
41
1
10
41.700478929783614
20
26.551496570590345
30
0
10
42.142935066608061
20
27.691872016669507
30
0
10
42.992435514016066
20
29.966346075081983
30
0
10
44.160451807408052
20
33.359223084897188
30
0
10
45.505304549076342
20
37.845417689969352
30
0
10
46.829764568842656
20
43.395900736628874
30
0
10
47.790374267071513
20
48.906172316358187
30
0
10
48.373136846823357
20
54.409347900228042
30
0
10
48.554173367746365
20
59.962954885981112
30
0
10
48.300390330136963
20
65.644978180824495
30
0
10
47.57658699346991
20
71.529399461590998
30
0
10
46.351381813144876
20
77.66505911387307
30
0
10
44.603043490772322
20
84.055924624680202
30
0
10
42.326792550319908
20
90.633873416356778
30
0
10
39.534348839091479
20
97.269010857528798
30
0
10
36.249245395492494
20
103.80035359832833
30
0
10
32.5034729109015
20
110.06007288294526
30
0
10
28.333567535908514
20
115.90058278309201
30
0
10
23.776963003406962
20
121.21999241261319
30
0
10
18.868167439339128
20
125.98942522884397
30
0
10
13.638108110412791
20
130.2325858768688
30
0
10
8.1136075559145677
20
134.00447453615507
30
0
10
2.316696014154684
20
137.36958845072985
30
0
10
-3.7357473108561869
20
140.38225153684829
30
0
10
-10.033145560428849
20
143.0613076590308
30
0
10
-16.569294823897025
20
145.38714679124251
30
0
10
-23.337893679706141
20
147.3171073190174
30
0
10
-30.328825981071425
20
148.79557368417818
30
0
10
-37.524069537657795
20
149.76636331123871
30
0
10
-44.893909530494938
20
150.18385630819009
30
0
10
-52.392614919661014
20
150.02541338305602
30
0
10
-59.962517287301004
20
149.28813674871896
30
0
10
-67.53866294816936
20
147.98464952518754
30
0
10
-75.053220184153957
20
146.13925145981278
30
0
10
-82.440064591073096
20
143.78388224088576
30
0
10
-89.639107943670879
20
140.95426699167126
30
0
10
-96.601217804571149
20
137.68573516331466
30
0
10
-103.28773849100298
20
134.01186442627943
30
0
10
-109.66921786089543
20
129.96351936033318
30
0
10
-115.72441362997415
20
125.56778515334487
30
0
10
-121.43919625740737
20
120.84686697405931
30
0
10
-126.80547699659377
20
115.81718291336499
30
0
10
-131.82018919667047
20
110.48789788840588
30
0
10
-136.48374827339043
20
104.86357695622077
30
0
10
-140.79838556999971
20
98.947762948646073
30
0
10
-144.76653797927858
20
92.74621128097634
30
0
10
-148.38919066505127
20
86.270324196599105
30
0
10
-151.66429640422774
20
79.540373360904596
30
0
10
-154.58500759043963
20
72.589165682462379
30
0
10
-157.14104941870553
20
65.458572118765872
30
0
10
-159.32031637288605
20
58.195551971691437
30
0
10
-161.11037589314108
20
50.848391480542936
30
0
10
-162.50003674271642
20
43.462787624638601
30
0
10
-163.48083025162032
20
36.078151955826314
30
0
10
-164.04869116079675
20
28.723404744030368
30
0
10
-164.20337764964711
20
21.418577756434416
30
0
10
-163.94764635938984
20
14.177049899267729
30
0
10
-163.28651335324611
20
7.0075582104775354
30
0
10
-162.22648757866023
20
-0.08370864195180662
30
0
10
-160.77480033923763
20
-7.0910311768226029
30
0
10
-158.93868531235154
20
-14.007137592145131
30
0
10
-156.72572711972907
20
-20.822476186874056
30
0
10
-154.14416257932663
20
-27.524457920590443
30
0
10
-151.20319467825726
20
-34.096642277363138
30
0
10
-147.91331498291791
20
-40.518097694776159
30
0
10
-144.28659148887454
20
-46.762317905427238
30
0
10
-140.33708182836835
20
-52.79753071458866
30
0
10
-136.08162866607276
20
-58.590418980307078
30
0
10
-131.54049647927917
20
-64.109073976979204
30
0
10
-126.73825109583376
20
-69.326453928004639
30
0
10
-121.70412791613344
20
-74.22316927185426
30
0
10
-116.47364332796668
20
-78.791706450992663
30
0
10
-111.08525892199621
20
-83.035068717389052
30
0
10
-105.57342012116258
20
-86.961281121522944
30
0
10
-99.962494605210992
20
-90.579030212684074
30
0
10
-94.260670182932188
20
-93.89298789405025
30
0
10
-88.453074321936526
20
-96.898915246631248
30
0
10
-82.497531079786739
20
-99.579893649367349
30
0
10
-76.344653844721748
20
-101.91333113466855
30
0
10
-69.95521902253563
20
-103.87682740133917
30
0
10
-63.319661094848598
20
-105.45480875078141
30
0
10
-56.474199652647592
20
-106.64407303232126
30
0
10
-49.524851456184621
20
-107.46179007045897
30
0
10
-42.621211190317212
20
-107.9380060465845
30
0
10
-35.918709452771672
20
-108.10463291148147
30
0
10
-29.542553383535672
20
-107.98488355525311
30
0
10
-23.555960433994592
20
-107.58419647772472
30
0
10
-17.914342984949712
20
-106.87643161611454
30
0
10
-12.46923579899625
20
-105.80673224729937
30
0
10
-7.0405146214913632
20
-104.31711402008652
30
0
10
-1.4745032050960993
20
-102.36754479133796
30
0
10
4.2978793444433094
20
-99.956569372898656
30
0
10
10.188340712893918
20
-97.148030417852908
30
0
10
15.997183841125405
20
-94.049949387380792
30
0
10
21.486546086297658
20
-90.7825644076012
30
0
10
26.44735638770376
20
-87.448691956902479
30
0
10
30.761915396336107
20
-84.106283817296543
30
0
10
34.486518072270997
20
-80.73182727807486
30
0
10
37.801971155386049
20
-77.243408660546876
30
0
10
40.918965452625983
20
-73.543952536118624
30
0
10
44.00623922737158
20
-69.554567517950318
30
0
10
47.090378753081552
20
-65.259715908486044
30
0
10
50.078116322208288
20
-60.702732394293719
30
0
10
52.827309298037861
20
-55.962692201397878
30
0
10
55.197108615015829
20
-51.13766797178026
30
0
10
57.118671051395005
20
-46.324505261471813
30
0
10
58.613937875549212
20
-41.602745562397658
30
0
10
59.744875658433507
20
-37.019520672291996
30
0
10
60.583125735539014
20
-32.577976334395345
30
0
10
61.163408920344118
20
-28.215840805083708
30
0
10
61.473679139431098
20
-23.819733154235845
30
0
10
61.486028327800433
20
-19.28574695512334
30
0
10
61.17592724216486
20
-14.564107525488366
30
0
10
60.5496676012283
20
-9.7202564364356263
30
0
10
59.634750341198171
20
-4.8926576752055126
30
0
10
58.464923319184479
20
-0.23362432671004826
30
0
10
57.067161259821198
20
4.1429983929830154
30
0
10
55.447483636965302
20
8.2195351923622368
30
0
10
53.595191643330239
20
12.036276982768655
30
0
10
51.795848332206774
20
15.125714145017998
30
0
10
50.265400856216118
20
17.406049147535537
30
0
10
49.123365434052566
20
18.947765442684386
30
0
10
48.458781745897561
20
19.796877507892233
30
0
10
48.316798104503022
20
19.976197046690988
30
0
0
CIRCLE
5
105
100
AcDbEntity
8
0
100
AcDbCircle
10
-2.233094609952099
20
-17.860943101166772
30
0
40
3.2000000000000006
210
0
220
0
230
1
0
CIRCLE
5
106
100
AcDbEntity
8
0
100
AcDbCircle
10
2.233094609952099
20
17.860943101166772
30
0
40
3.2000000000000006
210
0
220
0
230
1
0
ENDSEC
0
SECTION
2
OBJECTS
0
DICTIONARY
5
C
100
AcDbDictionary
3
ACAD_GROUP
350
D
3
ACAD_MLINESTYLE
350
17
0
DICTIONARY
5
D
100
AcDbDictionary
0
DICTIONARY
5
1A
330
C
100
AcDbDictionary
0
DICTIONARY
5
17
100
AcDbDictionary
0
ENDSEC
0
EOF
