0
SECTION
2
HEADER
9
$INSUNITS
70
4
9
$ACADVER
1
AC1014
9
$HANDSEED
5
FFFF
0
ENDSEC
0
SECTION
2
TABLES
0
TABLE
2
VPORT
5
8
100
AcDbSymbolTable
0
ENDTAB
0
TABLE
2
LTYPE
5
5
100
AcDbSymbolTable
0
LTYPE
5
14
100
AcDbSymbolTableRecord
100
AcDbLinetypeTableRecord
2
BYBLOCK
70
0
0
LTYPE
5
15
100
AcDbSymbolTableRecord
100
AcDbLinetypeTableRecord
2
BYLAYER
70
0
0
ENDTAB
0
TABLE
2
LAYER
5
2
100
AcDbSymbolTable
70
2
0
LAYER
5
50
100
AcDbSymbolTableRecord
100
AcDbLayerTableRecord
2
0
70
0
6
CONTINUOUS
0
ENDTAB
0
TABLE
2
STYLE
5
3
100
AcDbSymbolTable
70
1
0
STYLE
5
11
100
AcDbSymbolTableRecord
100
AcDbTextStyleTableRecord
2
STANDARD
70
0
0
ENDTAB
0
TABLE
2
VIEW
5
6
100
AcDbSymbolTable
70
0
0
ENDTAB
0
TABLE
2
UCS
5
7
100
AcDbSymbolTable
70
0
0
ENDTAB
0
TABLE
2
APPID
5
9
100
AcDbSymbolTable
70
2
0
APPID
5
12
100
AcDbSymbolTableRecord
100
AcDbRegAppTableRecord
2
ACAD
70
0
0
ENDTAB
0
TABLE
2
DIMSTYLE
5
A
100
AcDbSymbolTable
70
1
0
ENDTAB
0
TABLE
2
BLOCK_RECORD
5
1
100
AcDbSymbolTable
70
1
0
BLOCK_RECORD
5
1F
100
AcDbSymbolTableRecord
100
AcDbBlockTableRecord
2
*MODEL_SPACE
0
BLOCK_RECORD
5
1B
100
AcDbSymbolTableRecord
100
AcDbBlockTableRecord
2
*PAPER_SPACE
0
ENDTAB
0
ENDSEC
0
SECTION
2
BLOCKS
0
BLOCK
5
20
100
AcDbEntity
100
AcDbBlockBegin
2
*MODEL_SPACE
0
ENDBLK
5
21
100
AcDbEntity
100
AcDbBlockEnd
0
BLOCK
5
1C
100
AcDbEntity
100
AcDbBlockBegin
2
*PAPER_SPACE
0
ENDBLK
5
1D
100
AcDbEntity
100
AcDbBlockEnd
0
ENDSEC
0
SECTION
2
ENTITIES
0
LINE
5
100
100
AcDbEntity
8
0
100
AcDbLine
10
1.9754657902225357
20
-5.6654686400738701
30
0
11
-48.300874277171566
21
19.968078234268056
31
0
0
SPLINE
5
101
100
AcDbEntity
8
0
100
AcDbSpline
70
4
71
5
72
130
73
124
74
0
42
0.000000001
43
0.0000000001
44
0.0000000001
40
0
40
0
40
0
40
0
40
0
40
0
40
0.0083333333333333332
40
0.016666666666666666
40
0.025000000000000001
40
0.033333333333333333
40
0.041666666666666664
40
0.049999999999999996
40
0.058333333333333327
40
0.066666666666666666
40
0.074999999999999997
40
0.083333333333333329
40
0.09166666666666666
40
0.099999999999999992
40
0.10833333333333332
40
0.11666666666666665
40
0.12499999999999999
40
0.13333333333333333
40
0.14166666666666666
40
0.14999999999999999
40
0.15833333333333333
40
0.16666666666666666
40
0.17499999999999999
40
0.18333333333333332
40
0.19166666666666665
40
0.19999999999999998
40
0.20833333333333331
40
0.21666666666666665
40
0.22499999999999998
40
0.23333333333333331
40
0.24166666666666664
40
0.24999999999999997
40
0.2583333333333333
40
0.26666666666666666
40
0.27500000000000002
40
0.28333333333333338
40
0.29166666666666674
40
0.3000000000000001
40
0.30833333333333346
40
0.31666666666666682
40
0.32500000000000018
40
0.33333333333333354
40
0.3416666666666669
40
0.35000000000000026
40
0.35833333333333361
40
0.36666666666666697
40
0.37500000000000033
40
0.38333333333333369
40
0.39166666666666705
40
0.40000000000000041
40
0.40833333333333377
40
0.41666666666666713
40
0.42500000000000049
40
0.43333333333333385
40
0.44166666666666721
40
0.45000000000000057
40
0.45833333333333393
40
0.46666666666666728
40
0.47500000000000064
40
0.483333333333334
40
0.49166666666666736
40
0.50000000000000067
40
0.50833333333333397
40
0.51666666666666727
40
0.52500000000000058
40
0.53333333333333388
40
0.54166666666666718
40
0.55000000000000049
40
0.55833333333333379
40
0.5666666666666671
40
0.5750000000000004
40
0.5833333333333337
40
0.59166666666666701
40
0.60000000000000031
40
0.60833333333333361
40
0.61666666666666692
40
0.62500000000000022
40
0.63333333333333353
40
0.64166666666666683
40
0.65000000000000013
40
0.65833333333333344
40
0.66666666666666674
40
0.67500000000000004
40
0.68333333333333335
40
0.69166666666666665
40
0.69999999999999996
40
0.70833333333333326
40
0.71666666666666656
40
0.72499999999999987
40
0.73333333333333317
40
0.74166666666666647
40
0.74999999999999978
40
0.75833333333333308
40
0.76666666666666639
40
0.77499999999999969
40
0.78333333333333299
40
0.7916666666666663
40
0.7999999999999996
40
0.8083333333333329
40
0.81666666666666621
40
0.82499999999999951
40
0.83333333333333282
40
0.84166666666666612
40
0.84999999999999942
40
0.85833333333333273
40
0.86666666666666603
40
0.87499999999999933
40
0.88333333333333264
40
0.89166666666666594
40
0.89999999999999925
40
0.90833333333333255
40
0.91666666666666585
40
0.92499999999999916
40
0.93333333333333246
40
0.94166666666666576
40
0.94999999999999907
40
0.95833333333333237
40
0.96666666666666567
40
0.97499999999999898
40
0.98333333333333228
40
0.98733238320977801
40
0.98733238320977801
40
0.98733238320977801
40
0.98733238320977801
40
0.98733238320977801
40
0.98733238320977801
41
1
41
1
41
1
41
1
41
1
41
1
41
1
41
1
41
1
41
1
41
1
41
1
41
1
41
1
41
1
41
1
41
1
41
1
41
1
41
1
41
1
41
1
41
1
41
1
41
1
41
1
41
1
41
1
41
1
41
1
41
1
41
1
41
1
41
1
41
1
41
1
41
1
41
1
41
1
41
1
41
1
41
1
41
1
41
1
41
1
41
1
41
1
41
1
41
1
41
1
41
1
41
1
41
1
41
1
41
1
41
1
41
1
41
1
41
1
41
1
41
1
41
1
41
1
41
1
41
1
41
1
41
1
41
1
41
1
41
1
41
1
41
1
41
1
41
1
41
1
41
1
41
1
41
1
41
1
41
1
41
1
41
1
41
1
41
1
41
1
41
1
41
1
41
1
41
1
41
1
41
1
41
1
41
1
41
1
41
1
41
1
41
1
41
1
41
1
41
1
41
1
41
1
41
1
41
1
41
1
41
1
41
1
41
1
41
1
41
1
41
1
41
1
41
1
41
1
41
1
41
1
41
1
41
1
41
1
41
1
41
1
41
1
41
1
41
1
10
-41.745714587300817
20
25.942452513156372
30
0
10
-42.316364533116669
20
27.209833844575616
30
0
10
-43.420516743984209
20
29.740034204492133
30
0
10
-44.965303352112507
20
33.521645394174193
30
0
10
-46.80209865530783
20
38.536433015426674
30
0
10
-48.722983898345916
20
44.764167607430267
30
0
10
-50.258069955569866
20
50.966132653236244
30
0
10
-51.386541899328918
20
57.171622057935387
30
0
10
-52.073024617094092
20
63.431035754646459
30
0
10
-52.267412117250053
20
69.814879683219843
30
0
10
-51.915943212781421
20
76.392427454237108
30
0
10
-50.970713439201546
20
83.212994284721844
30
0
10
-49.39875929142076
20
90.288515239480276
30
0
10
-47.193898956118957
20
97.569807711568643
30
0
10
-44.376574119035901
20
104.9497405156992
30
0
10
-40.983626197834738
20
112.28890263394162
30
0
10
-37.061024535405885
20
119.43466661444822
30
0
10
-32.655245072376019
20
126.24330458302417
30
0
10
-27.805561640253487
20
132.59998594752955
30
0
10
-22.535052460207528
20
138.44187233835663
30
0
10
-16.855357099119704
20
143.74755842609392
30
0
10
-10.772627715704902
20
148.52353442049352
30
0
10
-4.2932229591212661
20
152.79140035701917
30
0
10
2.570875121408859
20
156.57550404313366
30
0
10
9.795594296705131
20
159.88863792816423
30
0
10
17.341820281481922
20
162.72439016751781
30
0
10
25.16036795242357
20
165.06451131410188
30
0
10
33.195271341388015
20
166.8831304450168
30
0
10
41.387864183844727
20
168.15238791495815
30
0
10
49.680234912423444
20
168.84708391780032
30
0
10
58.019656167063587
20
168.950684289695
30
0
10
66.359797949957908
20
168.45704801778996
30
0
10
74.65879183448132
20
167.36801483246947
30
0
10
82.878177225606919
20
165.69214146870664
30
0
10
90.981425983241806
20
163.44291204775539
30
0
10
98.932794973777078
20
160.63731730985648
30
0
10
106.69567608822541
20
157.2939293493057
30
0
10
114.23263378526207
20
153.43261337486817
30
0
10
121.50698410551774
20
149.07574032671113
30
0
10
128.48392154198103
20
144.24893413378007
30
0
10
135.13189234406337
20
138.9821283163368
30
0
10
141.42372409887156
20
133.31022166087433
30
0
10
147.33820608255454
20
127.27457516398687
30
0
10
152.8601765854248
20
120.92161734228526
30
0
10
157.9788652353152
20
114.29798373624166
30
0
10
162.68671350891248
20
107.44669070586841
30
0
10
166.97794863638237
20
100.40259154309751
30
0
10
170.84738966775305
20
93.188820818413433
30
0
10
174.28884614500686
20
85.811123180919509
30
0
10
177.29488125753815
20
78.259593986172362
30
0
10
179.85807276492153
20
70.51869344215342
30
0
10
181.97185329286509
20
62.57484859683035
30
0
10
183.6315806141622
20
54.425532596926288
30
0
10
184.83537640243341
20
46.086570907005878
30
0
10
185.58540263018344
20
37.603087457994327
30
0
10
185.88741742965991
20
29.045815657949948
30
0
10
185.7491689797433
20
20.49749716317352
30
0
10
185.17917093391515
20
12.042508658710902
30
0
10
184.18524465057942
20
3.7545568427213247
30
0
10
182.77333947854521
20
-4.3134057691396857
30
0
10
180.94579175614538
20
-12.143694233583837
30
0
10
178.70164361881166
20
-19.752211739698804
30
0
10
176.03876533186505
20
-27.172521588380263
30
0
10
172.9554624906331
20
-34.444114772451591
30
0
10
169.45231684290235
20
-41.598526208664779
30
0
10
165.53387675490524
20
-48.647386668096637
30
0
10
161.21054880428045
20
-55.566975561781923
30
0
10
156.49931776232339
20
-62.306071048589544
30
0
10
151.42423778372051
20
-68.798862848203271
30
0
10
146.01697580426045
20
-74.976067363694327
30
0
10
140.31740244294303
20
-80.776916597575351
30
0
10
134.37401318898603
20
-86.160486537831957
30
0
10
128.24483426548451
20
-91.11809662942153
30
0
10
121.98793381091535
20
-95.663460399453868
30
0
10
115.65190287091977
20
-99.822128774280543
30
0
10
109.2655041447178
20
-103.62070588495017
30
0
10
102.8295687877964
20
-107.07727649950206
30
0
10
96.303266531445928
20
-110.18859297627776
30
0
10
89.609739175856461
20
-112.92857607240863
30
0
10
82.667043861300414
20
-115.26173521538499
30
0
10
75.4133294664163
20
-117.15305292307013
30
0
10
67.83320231762157
20
-118.57890708361958
30
0
10
59.986325372671743
20
-119.53848421218238
30
0
10
52.027049684853282
20
-120.06224510504239
30
0
10
44.154741974201514
20
-120.19672251811294
30
0
10
36.572609192785244
20
-119.99220585080862
30
0
10
29.440605961673892
20
-119.48847547383625
30
0
10
22.836937475097209
20
-118.70329691868105
30
0
10
16.700387291491857
20
-117.61481851525927
30
0
10
10.861564866859579
20
-116.17223536069429
30
0
10
5.119718235203349
20
-114.32104989241468
30
0
10
-0.69792175280668389
20
-112.02255465313947
30
0
10
-6.6624135802553024
20
-109.27842201675233
30
0
10
-12.69675382779063
20
-106.14507686471769
30
0
10
-18.641894717906069
20
-102.70590786087156
30
0
10
-24.310181302747186
20
-99.0478773932265
30
0
10
-29.538770074915661
20
-95.238957995026226
30
0
10
-34.254712269624008
20
-91.299168062671612
30
0
10
-38.494304085637353
20
-87.195496090944431
30
0
10
-42.345347605194448
20
-82.876969499757465
30
0
10
-45.908380908732212
20
-78.29962345173891
30
0
10
-49.248126561926284
20
-73.45717854195523
30
0
10
-52.35520078047189
20
-68.404652243141399
30
0
10
-55.178760398445149
20
-63.227965046169288
30
0
10
-57.654861338562043
20
-58.016766315909436
30
0
10
-59.734949828649192
20
-52.837491697936301
30
0
10
-61.418120386047306
20
-47.702561381477224
30
0
10
-62.733270036250758
20
-42.588850620566426
30
0
10
-63.715132674078951
20
-37.46211570028948
30
0
10
-64.382421512385548
20
-32.299414181012466
30
0
10
-64.715362533534929
20
-27.112012571799266
30
0
10
-64.678625644864297
20
-21.93392571180755
30
0
10
-64.241641955297936
20
-16.811545886881312
30
0
10
-63.403559157051575
20
-11.791996449592085
30
0
10
-62.204708335904812
20
-6.9146833947381579
30
0
10
-60.701869918949157
20
-2.2099218680066093
30
0
10
-58.95164838736725
20
2.3027858135138057
30
0
10
-56.987629994184552
20
6.618556087534496
30
0
10
-54.816431592055814
20
10.738997560253228
30
0
10
-52.671335147143374
20
14.252266174035853
30
0
10
-50.84720482781912
20
16.846500535871197
30
0
10
-49.453642226521374
20
18.614947166956956
30
0
10
-48.586068133991638
20
19.639260703241735
30
0
10
-48.300874277171573
20
19.968078234268049
30
0
0
LINE
5
102
100
AcDbEntity
8
0
100
AcDbLine
10
-41.745714587300817
20
25.942452513156372
30
0
11
5.7455101173968259
21
1.728905286847926
31
0
0
ARC
5
103
100
AcDbEntity
8
0
100
AcDbCircle
10
-4.4408920985006262e-15
20
1.5959455978986625e-15
30
0
40
6.0000000000000036
210
0
220
0
230
1
100
AcDbArc
50
-70.777086093295338
51
16.747284312491018
0
CIRCLE
5
104
100
AcDbEntity
8
0
100
AcDbCircle
10
-2.233094609952099
20
17.860943101166772
30
0
40
3.2000000000000006
210
0
220
-0
230
1
0
CIRCLE
5
105
100
AcDbEntity
8
0
100
AcDbCircle
10
2.233094609952099
20
-17.860943101166772
30
0
40
3.2000000000000006
210
0
220
-0
230
1
0
ENDSEC
0
SECTION
2
OBJECTS
0
DICTIONARY
5
C
100
AcDbDictionary
3
ACAD_GROUP
350
D
3
ACAD_MLINESTYLE
350
17
0
DICTIONARY
5
D
100
AcDbDictionary
0
DICTIONARY
5
1A
330
C
100
AcDbDictionary
0
DICTIONARY
5
17
100
AcDbDictionary
0
ENDSEC
0
EOF
