0
SECTION
2
HEADER
9
$INSUNITS
70
4
9
$ACADVER
1
AC1014
9
$HANDSEED
5
FFFF
0
ENDSEC
0
SECTION
2
TABLES
0
TABLE
2
VPORT
5
8
100
AcDbSymbolTable
0
ENDTAB
0
TABLE
2
LTYPE
5
5
100
AcDbSymbolTable
0
LTYPE
5
14
100
AcDbSymbolTableRecord
100
AcDbLinetypeTableRecord
2
BYBLOCK
70
0
0
LTYPE
5
15
100
AcDbSymbolTableRecord
100
AcDbLinetypeTableRecord
2
BYLAYER
70
0
0
ENDTAB
0
TABLE
2
LAYER
5
2
100
AcDbSymbolTable
70
2
0
LAYER
5
50
100
AcDbSymbolTableRecord
100
AcDbLayerTableRecord
2
0
70
0
6
CONTINUOUS
0
ENDTAB
0
TABLE
2
STYLE
5
3
100
AcDbSymbolTable
70
1
0
STYLE
5
11
100
AcDbSymbolTableRecord
100
AcDbTextStyleTableRecord
2
STANDARD
70
0
0
ENDTAB
0
TABLE
2
VIEW
5
6
100
AcDbSymbolTable
70
0
0
ENDTAB
0
TABLE
2
UCS
5
7
100
AcDbSymbolTable
70
0
0
ENDTAB
0
TABLE
2
APPID
5
9
100
AcDbSymbolTable
70
2
0
APPID
5
12
100
AcDbSymbolTableRecord
100
AcDbRegAppTableRecord
2
ACAD
70
0
0
ENDTAB
0
TABLE
2
DIMSTYLE
5
A
100
AcDbSymbolTable
70
1
0
ENDTAB
0
TABLE
2
BLOCK_RECORD
5
1
100
AcDbSymbolTable
70
1
0
BLOCK_RECORD
5
1F
100
AcDbSymbolTableRecord
100
AcDbBlockTableRecord
2
*MODEL_SPACE
0
BLOCK_RECORD
5
1B
100
AcDbSymbolTableRecord
100
AcDbBlockTableRecord
2
*PAPER_SPACE
0
ENDTAB
0
ENDSEC
0
SECTION
2
BLOCKS
0
BLOCK
5
20
100
AcDbEntity
100
AcDbBlockBegin
2
*MODEL_SPACE
0
ENDBLK
5
21
100
AcDbEntity
100
AcDbBlockEnd
0
BLOCK
5
1C
100
AcDbEntity
100
AcDbBlockBegin
2
*PAPER_SPACE
0
ENDBLK
5
1D
100
AcDbEntity
100
AcDbBlockEnd
0
ENDSEC
0
SECTION
2
ENTITIES
0
LINE
5
100
100
AcDbEntity
8
0
100
AcDbLine
10
-967.62787566158613
20
-775.47894475783778
30
0
11
-1021.8942311037686
21
-775.30312777107474
31
0
0
SPLINE
5
101
100
AcDbEntity
8
0
100
AcDbSpline
70
0
71
3
72
61
73
57
74
0
42
0.000000001
43
0.0000000001
44
0.0000000001
40
0
40
0
40
0
40
0
40
21.163799341886541
40
31.74569901282981
40
42.327598683773083
40
74.073297696602893
40
84.655197367546165
40
126.98279605131924
40
148.14659539320579
40
169.31039473509233
40
183.41959429635003
40
197.52879385760772
40
225.74719298012312
40
239.85639254138079
40
253.96559210263848
40
282.18399122515387
40
310.40239034766927
40
338.62078947018466
40
359.78458881207121
40
380.94838815395769
40
423.27598683773078
40
444.43978617961733
40
465.60358552150387
40
486.76738486339042
40
507.93118420527696
40
550.25878288905005
40
571.42258223093654
40
592.58638157282314
40
613.75018091470974
40
634.91398025659623
40
656.07777959848272
40
677.24157894036932
40
698.40537828225592
40
719.56917762414241
40
761.8967763079155
40
777.76962581433042
40
804.22437499168859
40
825.38817433357508
40
846.55197367546168
40
867.71577301734828
40
888.87957235923477
40
910.04337170112126
40
920.6252713720645
40
931.20717104300775
40
952.37097038489424
40
973.53476972678084
40
994.69856906866744
40
1005.2804687396107
40
1015.8623684105539
40
1058.1899670943271
40
1079.3537664362136
40
1100.5175657781001
40
1121.6813651199866
40
1132.26326479093
40
1142.8451644618731
40
1185.1727631456463
40
1185.1727631456463
40
1185.1727631456463
40
1185.1727631456463
10
-1021.8942311036687
20
-775.30312777064125
30
0
10
-1025.7204636222
20
-778.39331679074121
30
0
10
-1031.1273853082864
20
-783.2184017455254
30
0
10
-1037.5454384361947
20
-790.15313074926189
30
0
10
-1044.8571611074444
20
-799.18884532623474
30
0
10
-1050.6111939820078
20
-809.27941514085262
30
0
10
-1056.8888818696184
20
-827.72045010836325
30
0
10
-1059.2761109691091
20
-846.12273521047132
30
0
10
-1057.1973949127068
20
-867.33333057483037
30
0
10
-1053.4995345472444
20
-880.824258119869
30
0
10
-1048.859104137121
20
-891.8750863774743
30
0
10
-1042.4427356397164
20
-903.7327128741897
30
0
10
-1034.7471579299354
20
-914.42540262027649
30
0
10
-1025.4100033238351
20
-923.90544863510161
30
0
10
-1014.7656370182341
20
-932.5252723415781
30
0
10
-999.18577485336061
20
-941.61486509178928
30
0
10
-978.277346788979
20
-949.67425302471622
30
0
10
-958.32656064724256
20
-953.90828102366061
30
0
10
-940.22303961518196
20
-954.61722241016616
30
0
10
-919.03986042408121
20
-952.04661612533346
30
0
10
-898.70888432867423
20
-945.10133795639558
30
0
10
-879.59988264719186
20
-935.53013183933308
30
0
10
-866.19092470324949
20
-927.11637727553148
30
0
10
-853.88882445262107
20
-917.35843333301591
30
0
10
-839.31561275609977
20
-902.25402178326988
30
0
10
-827.43081707023657
20
-884.00437777264051
30
0
10
-818.16101051030512
20
-864.3785118955077
30
0
10
-812.7225738772886
20
-849.45822559711485
30
0
10
-809.0804398392097
20
-834.53458955676285
30
0
10
-807.35383625707402
20
-819.45760683727394
30
0
10
-807.30490259912449
20
-803.8414359770527
30
0
10
-808.86617314700686
20
-787.85001223088079
30
0
10
-812.13501656234155
20
-771.89061692550627
30
0
10
-819.00889724679132
20
-751.28074214281833
30
0
10
-828.44779729794982
20
-733.82520331755541
30
0
10
-839.63972260352602
20
-717.73201432171948
30
0
10
-849.22408123751393
20
-707.00531916308012
30
0
10
-862.45180554968726
20
-696.72771855609449
30
0
10
-876.25046532661077
20
-688.26796650153256
30
0
10
-890.53895875164312
20
-681.04262378584099
30
0
10
-904.1713884658036
20
-675.79411201345647
30
0
10
-914.46534258285124
20
-673.88893121665194
30
0
10
-923.24800295025284
20
-673.19297978900136
30
0
10
-932.46944254577875
20
-672.82692013841699
30
0
10
-944.68311722947169
20
-672.93439805236574
30
0
10
-958.96097899917038
20
-674.71939056859287
30
0
10
-969.73099912974919
20
-678.13550356660232
30
0
10
-977.75873928358806
20
-681.78173852263035
30
0
10
-989.41866981289422
20
-687.97987548791298
30
0
10
-1001.6932921782944
20
-697.22780276589128
30
0
10
-1012.7057216199287
20
-710.56602862167381
30
0
10
-1019.4095403912065
20
-721.59346604056054
30
0
10
-1022.8942930889581
20
-731.09352863763252
30
0
10
-1024.5051004897548
20
-738.64736103382961
30
0
10
-1026.1660938443745
20
-750.0683535122829
30
0
10
-1026.0676920597898
20
-759.45069982320786
30
0
10
-1024.1370994250315
20
-766.99581756371367
30
0
0
LINE
5
102
100
AcDbEntity
8
0
100
AcDbLine
10
-1024.1370994250315
20
-766.99581756371367
30
0
11
-967.60098472033587
21
-767.17898831956165
31
0
0
ARC
5
103
100
AcDbEntity
8
0
100
AcDbCircle
10
-971.94770872958338
20
-771.31492719573566
30
0
40
5.9999999994048263
210
0
220
0
230
1
100
AcDbArc
50
-43.947816544352321
51
43.576553866867357
0
ARC
5
104
100
AcDbEntity
8
0
100
AcDbCircle
10
-973.60306319440554
20
-726.34538415162865
30
0
40
10.000000000000117
210
0
220
0
230
1
100
AcDbArc
50
196.4524354713254
51
272.10813839757873
0
ARC
5
105
100
AcDbEntity
8
0
100
AcDbCircle
10
-954.42195955527791
20
-720.68099864346937
30
0
40
30.000000000000174
210
0
220
0
230
1
100
AcDbArc
50
111.60124173893492
51
196.45243547132461
0
SPLINE
5
106
100
AcDbEntity
8
0
100
AcDbSpline
70
0
71
3
72
38
73
34
74
0
42
0.000000001
43
0.0000000001
44
0.0000000001
40
992.89062267146755
40
992.89062267146755
40
992.89062267146755
40
992.89062267146755
40
1005.8462502489298
40
1005.8462502489298
40
1005.8462502489298
40
1015.4553740791002
40
1015.4553740791002
40
1015.4553740791002
40
1025.0539225859827
40
1025.0539225859827
40
1025.0539225859827
40
1044.2579335093092
40
1044.2579335093092
40
1044.2579335093092
40
1053.8536769571522
40
1053.8536769571522
40
1053.8536769571522
40
1063.4598552164441
40
1063.4598552164441
40
1063.4598552164441
40
1082.6486444233988
40
1082.6486444233988
40
1082.6486444233988
40
1101.8706605968378
40
1101.8706605968378
40
1101.8706605968378
40
1140.2651911783182
40
1140.2651911783182
40
1140.2651911783182
40
1159.4593200421914
40
1159.4593200421914
40
1159.4593200421914
40
1178.6744575377056
40
1178.6744575377056
40
1178.6744575377056
40
1178.6744575377056
10
-875.80901791033637
20
-706.22558811058479
30
0
10
-877.88104241127439
20
-704.91347465896524
30
0
10
-880.00248482854647
20
-703.64063793648211
30
0
10
-882.15216970470112
20
-702.41261163059505
30
0
10
-883.74658016820888
20
-701.50179069433182
30
0
10
-885.35656646187863
20
-700.61562532716448
30
0
10
-886.97354738762624
20
-699.75768064956378
30
0
10
-888.58874874466994
20
-698.90068018316151
30
0
10
-890.21155052645088
20
-698.07157195135358
30
0
10
-891.82956325777798
20
-697.27871883970465
30
0
10
-895.06675418765735
20
-695.69244151810926
30
0
10
-898.28722805753432
20
-694.2499145660704
30
0
10
-901.35399116986594
20
-693.04092843127364
30
0
10
-902.88637272071685
20
-692.43682958818135
30
0
10
-904.38257731742635
20
-691.89020394841134
30
0
10
-905.83255996012349
20
-691.41147946345438
30
0
10
-907.2841193743925
20
-690.93223439353562
30
0
10
-908.68691336063296
20
-690.52182559568951
30
0
10
-910.06155704849812
20
-690.1727813463749
30
0
10
-912.80747194296748
20
-689.47554917524394
30
0
10
-915.47239495047631
20
-689.01715957037527
30
0
10
-918.40585338357357
20
-688.68847298183766
30
0
10
-921.3443913411777
20
-688.35921724544278
30
0
10
-924.56218834428398
20
-688.15679525386145
30
0
10
-927.88819103741207
20
-688.0328353356681
30
0
10
-934.5316310888179
20
-687.78523472879101
30
0
10
-941.54158342939036
20
-687.85343843907162
30
0
10
-947.93078110806027
20
-688.55176893210137
30
0
10
-951.12485801755383
20
-688.9008771324045
30
0
10
-954.16493414501065
20
-689.40880338989746
30
0
10
-957.05992218529809
20
-690.10918985940725
30
0
10
-959.95807888917921
20
-690.81034292590334
30
0
10
-962.71907473501744
20
-691.70392022794135
30
0
10
-965.46630064877706
20
-692.78794341801176
30
0
0
ARC
5
107
100
AcDbEntity
8
0
100
AcDbCircle
10
-891.85367323670675
20
-731.57421307078027
30
0
40
29.999999999999908
210
0
220
0
230
1
100
AcDbArc
50
-90.185631336015064
51
57.667842448816266
0
LINE
5
108
100
AcDbEntity
8
0
100
AcDbLine
10
-891.9508694069151
20
-761.57405561877522
30
0
11
-920.68082507687279
21
-761.48097374153156
31
0
0
ARC
5
109
100
AcDbEntity
8
0
100
AcDbCircle
10
-920.58362890666444
20
-731.48113119353638
30
0
40
30.000000000000007
210
0
220
0
230
1
100
AcDbArc
50
217.79424110883701
51
269.81436866398496
0
ARC
5
110
100
AcDbEntity
8
0
100
AcDbCircle
10
-971.94770872958316
20
-771.31492719573555
30
0
40
34.999999999999879
210
0
220
-0
230
1
100
AcDbArc
50
37.79424110883663
51
92.108138397579125
0
CIRCLE
5
111
100
AcDbEntity
8
0
100
AcDbCircle
10
-980.53899221493566
20
-787.23186584442249
30
0
40
3.2000000001076274
210
0
220
-0
230
1
0
CIRCLE
5
112
100
AcDbEntity
8
0
100
AcDbCircle
10
-963.34661596811475
20
-755.6024143958241
30
0
40
3.200000000135014
210
0
220
-0
230
1
0
LINE
5
113
100
AcDbEntity
8
0
100
AcDbLine
10
-836.52763391460837
20
-766.00240270712209
30
0
11
-834.29515337441876
21
-764.89649266261131
31
0
0
ARC
5
114
100
AcDbEntity
8
0
100
AcDbCircle
10
-834.06556374615604
20
-765.3599610792968
30
0
40
0.517217914104665
210
-0
220
0
230
1
100
AcDbArc
50
-8.3214183570295273
51
116.35256174748697
0
LINE
5
115
100
AcDbEntity
8
0
100
AcDbLine
10
-833.55379122815577
20
-765.43481600893028
30
0
11
-834.61834123856818
21
-772.71299317150522
31
0
0
ARC
5
116
100
AcDbEntity
8
0
100
AcDbCircle
10
-835.25985414821037
20
-772.61916163108162
30
0
40
0.64833877812105256
210
0
220
0
230
1
100
AcDbArc
50
232.64752347917894
51
351.67858164293864
0
LINE
5
117
100
AcDbEntity
8
0
100
AcDbLine
10
-835.65321211906962
20
-773.13453788002698
30
0
11
-840.98562009710247
21
-769.06460802523293
31
0
0
ARC
5
118
100
AcDbEntity
8
0
100
AcDbCircle
10
-840.66392442858603
20
-768.64312347623627
30
0
40
0.53022384724317928
210
0
220
0
230
1
100
AcDbArc
50
116.352561747444
51
232.64752347915925
0
LINE
5
119
100
AcDbEntity
8
0
100
AcDbLine
10
-840.89928730497661
20
-768.16800070830936
30
0
11
-838.53992167477122
21
-766.99923524668759
31
0
0
ELLIPSE
5
120
100
AcDbEntity
8
0
100
AcDbEllipse
10
-952.60513279345798
20
-773.40533218229916
30
0
11
-106.93367272734633
21
71.283435842607716
31
0.0
40
0.75893564108845157
41
3.9216600754656028
42
4.0652001364267374
0
ARC
5
121
100
AcDbEntity
8
0
100
AcDbCircle
10
-843.98749095419021
20
-751.15137965985525
30
0
40
1.0978851555081723
210
0
220
0
230
1
100
AcDbArc
50
124.49501630603366
51
206.47303932639676
0
LINE
5
122
100
AcDbEntity
8
0
100
AcDbLine
10
-844.60926125050605
20
-750.24652966493647
30
0
11
-844.46282597863842
21
-750.14590510231983
31
0
0
ARC
5
123
100
AcDbEntity
8
0
100
AcDbCircle
10
-843.91317724432963
20
-750.94578169070599
30
0
40
0.97052371829622575
210
0
220
-0
230
1
100
AcDbArc
50
26.537622057117741
51
124.49556215358349
0
ELLIPSE
5
124
100
AcDbEntity
8
0
100
AcDbEllipse
10
-941.02346340630538
20
-771.69849740566167
30
0
11
-94.335904822512745
21
76.348999587158588
31
0.0
40
0.75226764650898914
41
4.018189293175487
42
4.1681943113590894
0
LINE
5
125
100
AcDbEntity
8
0
100
AcDbLine
10
-901.3170266845475
20
-886.79867101138416
30
0
11
-932.96900600727042
21
-825.24726291577781
31
0
0
ARC
5
126
100
AcDbEntity
8
0
100
AcDbCircle
10
-906.28983770663706
20
-811.52786136955547
30
0
40
30.00000000000005
210
0
220
-0
230
1
100
AcDbArc
50
89.814368663984055
51
207.21388055417307
0
LINE
5
127
100
AcDbEntity
8
0
100
AcDbLine
10
-906.19264153642825
20
-781.52801882156029
30
0
11
-852.30256991164742
21
-781.70261669039223
31
0
0
ARC
5
128
100
AcDbEntity
8
0
100
AcDbCircle
10
-852.3997660818568
20
-811.70245923838763
30
0
40
30.00000000000032
210
-0
220
0
230
1
100
AcDbArc
50
-0.3273983912257023
51
89.814368663982975
0
SPLINE
5
129
100
AcDbEntity
8
0
100
AcDbSpline
70
0
71
3
72
20
73
16
74
0
42
0.000000001
43
0.0000000001
44
0.0000000001
40
613.58550554329167
40
613.58550554329167
40
613.58550554329167
40
613.58550554329167
40
641.00111464690463
40
641.00111464690463
40
641.00111464690463
40
679.39504663777473
40
679.39504663777473
40
679.39504663777473
40
717.81339824337454
40
717.81339824337454
40
717.81339824337454
40
756.23807122307812
40
756.23807122307812
40
756.23807122307812
40
767.36358789106362
40
767.36358789106362
40
767.36358789106362
40
767.36358789106362
10
-850.71730732077253
20
-891.18652869329617
30
0
10
-847.65266309965068
20
-887.13629740292265
30
0
10
-844.78606981946587
20
-882.80837988257372
30
0
10
-842.12362106190449
20
-878.2935355426971
30
0
10
-838.39501973334575
20
-871.97076423823819
30
0
10
-835.07156618091233
20
-865.29692656320367
30
0
10
-832.25794589795169
20
-858.56789213450384
30
0
10
-829.44253607378653
20
-851.83457785167786
30
0
10
-827.15004607150104
20
-845.07157255013965
30
0
10
-825.52819327066027
20
-838.3512858296076
30
0
10
-823.90607360937736
20
-831.62989334985718
30
0
10
-822.95178428423833
20
-824.94109837909878
30
0
10
-822.57820410566876
20
-817.98322636619378
30
0
10
-822.47003734246152
20
-815.96863743022084
30
0
10
-822.4105195217179
20
-813.9304056495256
30
0
10
-822.39872607091024
20
-811.87389245948555
30
0
0
ARC
5
130
100
AcDbEntity
8
0
100
AcDbCircle
10
-874.63785838391618
20
-873.07926946516261
30
0
40
29.999999999997968
210
0
220
0
230
1
100
AcDbArc
50
207.21388055417347
51
322.87518878909708
0
LINE
5
131
100
AcDbEntity
8
0
100
AcDbLine
10
-957.41042613269747
20
-821.45141505336596
30
0
11
-919.31712340576019
21
-895.52881785806881
31
0
0
ARC
5
132
100
AcDbEntity
8
0
100
AcDbCircle
10
-945.99629170639332
20
-909.24821940429092
30
0
40
30.000000000000032
210
0
220
0
230
1
100
AcDbArc
50
-91.515065316743517
51
27.213880554172892
0
SPLINE
5
133
100
AcDbEntity
8
0
100
AcDbSpline
70
0
71
3
72
35
73
31
74
0
42
0.000000001
43
0.0000000001
44
0.0000000001
40
103.31616264346155
40
103.31616264346155
40
103.31616264346155
40
103.31616264346155
40
141.71934059063889
40
141.71934059063889
40
141.71934059063889
40
180.12530056038358
40
180.12530056038358
40
180.12530056038358
40
218.53307898492494
40
218.53307898492494
40
218.53307898492494
40
256.94756308448012
40
256.94756308448012
40
256.94756308448012
40
276.13939819032055
40
276.13939819032055
40
276.13939819032055
40
295.34051547192297
40
295.34051547192297
40
295.34051547192297
40
333.74694236129596
40
333.74694236129596
40
333.74694236129596
40
372.16341185910107
40
372.16341185910107
40
372.16341185910107
40
410.55848611704459
40
410.55848611704459
40
410.55848611704459
40
413.49451549621153
40
413.49451549621153
40
413.49451549621153
40
413.49451549621153
10
-1040.8618394494858
20
-828.06593388055012
30
0
10
-1042.445579634245
20
-834.3863569114651
30
0
10
-1043.310951979357
20
-841.30042863095309
30
0
10
-1043.3790941712869
20
-848.21170560785981
30
0
10
-1043.4472412996079
20
-855.12348325501182
30
0
10
-1042.7182880590344
20
-862.02421643781474
30
0
10
-1041.1398911569838
20
-868.63109423487288
30
0
10
-1039.5614195206101
20
-875.23828485599893
30
0
10
-1037.135258953211
20
-881.54895127539578
30
0
10
-1034.0758469094833
20
-887.5412401707955
30
0
10
-1031.0159007181496
20
-893.53457526942725
30
0
10
-1027.3390371906257
20
-899.17890841239694
30
0
10
-1023.1837847154201
20
-904.24360758559556
30
0
10
-1021.1078250299897
20
-906.77392586712722
30
0
10
-1018.9107185840696
20
-909.16043075621224
30
0
10
-1016.5367798914491
20
-911.41832349939409
30
0
10
-1014.1616930378489
20
-913.67730827766138
30
0
10
-1011.609198842767
20
-915.80826831503612
30
0
10
-1008.8698024531192
20
-917.82259044219256
30
0
10
-1003.3904115605471
20
-921.85167449879623
30
0
10
-997.15047864169924
20
-925.42280819380835
30
0
10
-990.50551185770644
20
-928.46982987765819
30
0
10
-983.85880753120182
20
-931.51764830434843
30
0
10
-976.81341460540477
20
-934.03991282875825
30
0
10
-969.70478105817574
20
-935.87961643466542
30
0
10
-962.60010651399466
20
-937.71829545657442
30
0
10
-955.42743406655995
20
-938.8722365457154
30
0
10
-948.39930972974321
20
-939.18256513231336
30
0
10
-947.86187674043038
20
-939.20629562027466
30
0
10
-947.325286308351
20
-939.22511265180049
30
0
10
-946.78952142177195
20
-939.23905562898949
30
0
0
ARC
5
134
100
AcDbEntity
8
0
100
AcDbCircle
10
-1011.7561366283337
20
-835.33628898100278
30
0
40
30.00000000000005
210
0
220
-0
230
1
100
AcDbArc
50
89.814368663984922
51
165.97500436546179
0
LINE
5
135
100
AcDbEntity
8
0
100
AcDbLine
10
-1011.6589404581254
20
-805.33644643300761
30
0
11
-979.7249586830676
21
-805.43990900028803
31
0
0
ARC
5
136
100
AcDbEntity
8
0
100
AcDbCircle
10
-971.94770872947106
20
-771.3149271951944
30
0
40
35.000000000552681
210
0
220
0
230
1
100
AcDbArc
50
257.16129781065996
51
259.23400810930633
0
ARC
5
137
100
AcDbEntity
8
0
100
AcDbCircle
10
-984.08959443333231
20
-835.17081659958876
30
0
40
30.000000000001709
210
0
220
-0
230
1
100
AcDbArc
50
27.213880554172558
51
79.234008109321579
0
LWPOLYLINE
5
138
100
AcDbEntity
8
0
100
AcDbPolyline
90
31
70
1
43
0.0
10
-856.34977951331791
20
-751.78765085368263
42
-0.072872758697229409
10
-854.54739278480122
20
-751.40674966683605
42
-0.068321888640960643
10
-853.32389336605286
20
-751.50771747301576
42
-0.16382915835016273
10
-850.95554730781532
20
-752.98510787244766
42
-0.054663599143737668
10
-850.19039744152349
20
-754.11743105697656
42
-0.047043046521275479
10
-849.61680182955683
20
-755.47340980722811
42
-0.10809007411093707
10
-849.41079714468185
20
-757.60932074041762
42
-0.23785133936146174
10
-851.54081078085153
20
-760.76447052584808
42
-0.19020148515446483
10
-855.26545671211591
20
-761.24101217144005
42
-0.028687641907873943
10
-856.41388650405122
20
-760.92660406457514
10
-857.51180726227346
20
-760.51884918343558
10
-859.39037144110728
20
-759.70761161865471
10
-861.28069367331011
20
-758.7810485355925
10
-862.39393980193825
20
-758.29776859357014
10
-863.38585836532297
20
-757.99887545730826
10
-864.02849600380989
20
-757.93528483788964
10
-860.73518412242061
20
-765.05797311471269
10
-862.4489882739681
20
-765.85038341757991
10
-866.88740175907287
20
-756.25109952445712
42
-0.11578647091889074
10
-865.29516445960053
20
-755.87287837527606
42
-0.075684846100814107
10
-863.07839285742034
20
-756.16730997716161
10
-862.12559676818159
20
-756.47694395835538
10
-861.03296252862094
20
-756.91564477555676
10
-859.80049019044759
20
-757.48341256941671
42
0.02893213792562593
10
-856.42637019575227
20
-758.92670665615231
42
0.030451714166105971
10
-855.24508773303796
20
-759.26095830377221
42
0.072912089496419766
10
-853.71424120300117
20
-759.36366364215633
42
0.10623584871416147
10
-852.48847253701013
20
-758.98506272623604
42
0.40499579162181698
10
-851.46357226083182
20
-755.20385133727859
42
0.078733972382213663
10
-852.09844778552724
20
-754.23144055609987
42
0.34449948767727229
10
-855.69062562915906
20
-753.70735913670774
0
LWPOLYLINE
5
139
100
AcDbEntity
8
0
100
AcDbPolyline
90
6
70
1
43
0.0
10
-845.96581828347269
20
-763.37543932386154
10
-846.85441697966655
20
-761.4536014463265
10
-861.37717313306655
20
-768.16847700056587
10
-857.18152099193333
20
-777.2427230469724
10
-855.46771684038606
20
-776.4503127441053
10
-858.77477028532428
20
-769.2979045752337
0
ENDSEC
0
SECTION
2
OBJECTS
0
DICTIONARY
5
C
100
AcDbDictionary
3
ACAD_GROUP
350
D
3
ACAD_MLINESTYLE
350
17
0
DICTIONARY
5
D
100
AcDbDictionary
0
DICTIONARY
5
1A
330
C
100
AcDbDictionary
0
DICTIONARY
5
17
100
AcDbDictionary
0
ENDSEC
0
EOF
