0
SECTION
2
HEADER
9
$INSUNITS
70
4
9
$ACADVER
1
AC1014
9
$HANDSEED
5
FFFF
0
ENDSEC
0
SECTION
2
TABLES
0
TABLE
2
VPORT
5
8
100
AcDbSymbolTable
0
ENDTAB
0
TABLE
2
LTYPE
5
5
100
AcDbSymbolTable
0
LTYPE
5
14
100
AcDbSymbolTableRecord
100
AcDbLinetypeTableRecord
2
BYBLOCK
70
0
0
LTYPE
5
15
100
AcDbSymbolTableRecord
100
AcDbLinetypeTableRecord
2
BYLAYER
70
0
0
ENDTAB
0
TABLE
2
LAYER
5
2
100
AcDbSymbolTable
70
2
0
LAYER
5
50
100
AcDbSymbolTableRecord
100
AcDbLayerTableRecord
2
0
70
0
6
CONTINUOUS
0
ENDTAB
0
TABLE
2
STYLE
5
3
100
AcDbSymbolTable
70
1
0
STYLE
5
11
100
AcDbSymbolTableRecord
100
AcDbTextStyleTableRecord
2
STANDARD
70
0
0
ENDTAB
0
TABLE
2
VIEW
5
6
100
AcDbSymbolTable
70
0
0
ENDTAB
0
TABLE
2
UCS
5
7
100
AcDbSymbolTable
70
0
0
ENDTAB
0
TABLE
2
APPID
5
9
100
AcDbSymbolTable
70
2
0
APPID
5
12
100
AcDbSymbolTableRecord
100
AcDbRegAppTableRecord
2
ACAD
70
0
0
ENDTAB
0
TABLE
2
DIMSTYLE
5
A
100
AcDbSymbolTable
70
1
0
ENDTAB
0
TABLE
2
BLOCK_RECORD
5
1
100
AcDbSymbolTable
70
1
0
BLOCK_RECORD
5
1F
100
AcDbSymbolTableRecord
100
AcDbBlockTableRecord
2
*MODEL_SPACE
0
BLOCK_RECORD
5
1B
100
AcDbSymbolTableRecord
100
AcDbBlockTableRecord
2
*PAPER_SPACE
0
ENDTAB
0
ENDSEC
0
SECTION
2
BLOCKS
0
BLOCK
5
20
100
AcDbEntity
100
AcDbBlockBegin
2
*MODEL_SPACE
0
ENDBLK
5
21
100
AcDbEntity
100
AcDbBlockEnd
0
BLOCK
5
1C
100
AcDbEntity
100
AcDbBlockBegin
2
*PAPER_SPACE
0
ENDBLK
5
1D
100
AcDbEntity
100
AcDbBlockEnd
0
ENDSEC
0
SECTION
2
ENTITIES
0
LINE
5
100
100
AcDbEntity
8
0
100
AcDbLine
10
-42.971915228506106
20
26.567634687744768
30
0
11
5.7455101173968348
21
1.7289052868479349
31
0
0
ARC
5
101
100
AcDbEntity
8
0
100
AcDbCircle
10
-3.3306690738754696e-15
20
1.5265566588595902e-15
30
0
40
6.0000000000000036
210
0
220
0
230
1
100
AcDbArc
50
-70.777086093295338
51
16.74728431249109
0
LINE
5
102
100
AcDbEntity
8
0
100
AcDbLine
10
1.9754657902225348
20
-5.665468640073871
30
0
11
-49.235638642968816
21
20.444670725985009
31
0
0
SPLINE
5
103
100
AcDbEntity
8
0
100
AcDbSpline
70
4
71
5
72
130
73
124
74
0
42
0.000000001
43
0.0000000001
44
0.0000000001
40
0
40
0
40
0
40
0
40
0
40
0
40
0.0083333333333333332
40
0.016666666666666666
40
0.025000000000000001
40
0.033333333333333333
40
0.041666666666666664
40
0.049999999999999996
40
0.058333333333333327
40
0.066666666666666666
40
0.074999999999999997
40
0.083333333333333329
40
0.09166666666666666
40
0.099999999999999992
40
0.10833333333333332
40
0.11666666666666665
40
0.12499999999999999
40
0.13333333333333333
40
0.14166666666666666
40
0.14999999999999999
40
0.15833333333333333
40
0.16666666666666666
40
0.17499999999999999
40
0.18333333333333332
40
0.19166666666666665
40
0.19999999999999998
40
0.20833333333333331
40
0.21666666666666665
40
0.22499999999999998
40
0.23333333333333331
40
0.24166666666666664
40
0.24999999999999997
40
0.2583333333333333
40
0.26666666666666666
40
0.27500000000000002
40
0.28333333333333338
40
0.29166666666666674
40
0.3000000000000001
40
0.30833333333333346
40
0.31666666666666682
40
0.32500000000000018
40
0.33333333333333354
40
0.3416666666666669
40
0.35000000000000026
40
0.35833333333333361
40
0.36666666666666697
40
0.37500000000000033
40
0.38333333333333369
40
0.39166666666666705
40
0.40000000000000041
40
0.40833333333333377
40
0.41666666666666713
40
0.42500000000000049
40
0.43333333333333385
40
0.44166666666666721
40
0.45000000000000057
40
0.45833333333333393
40
0.46666666666666728
40
0.47500000000000064
40
0.483333333333334
40
0.49166666666666736
40
0.50000000000000067
40
0.50833333333333397
40
0.51666666666666727
40
0.52500000000000058
40
0.53333333333333388
40
0.54166666666666718
40
0.55000000000000049
40
0.55833333333333379
40
0.5666666666666671
40
0.5750000000000004
40
0.5833333333333337
40
0.59166666666666701
40
0.60000000000000031
40
0.60833333333333361
40
0.61666666666666692
40
0.62500000000000022
40
0.63333333333333353
40
0.64166666666666683
40
0.65000000000000013
40
0.65833333333333344
40
0.66666666666666674
40
0.67500000000000004
40
0.68333333333333335
40
0.69166666666666665
40
0.69999999999999996
40
0.70833333333333326
40
0.71666666666666656
40
0.72499999999999987
40
0.73333333333333317
40
0.74166666666666647
40
0.74999999999999978
40
0.75833333333333308
40
0.76666666666666639
40
0.77499999999999969
40
0.78333333333333299
40
0.7916666666666663
40
0.7999999999999996
40
0.8083333333333329
40
0.81666666666666621
40
0.82499999999999951
40
0.83333333333333282
40
0.84166666666666612
40
0.84999999999999942
40
0.85833333333333273
40
0.86666666666666603
40
0.87499999999999933
40
0.88333333333333264
40
0.89166666666666594
40
0.89999999999999925
40
0.90833333333333255
40
0.91666666666666585
40
0.92499999999999916
40
0.93333333333333246
40
0.94166666666666576
40
0.94999999999999907
40
0.95833333333333237
40
0.96666666666666567
40
0.97499999999999898
40
0.98333333333333228
40
0.9850658687824454
40
0.9850658687824454
40
0.9850658687824454
40
0.9850658687824454
40
0.9850658687824454
40
0.9850658687824454
41
1
41
1
41
1
41
1
41
1
41
1
41
1
41
1
41
1
41
1
41
1
41
1
41
1
41
1
41
1
41
1
41
1
41
1
41
1
41
1
41
1
41
1
41
1
41
1
41
1
41
1
41
1
41
1
41
1
41
1
41
1
41
1
41
1
41
1
41
1
41
1
41
1
41
1
41
1
41
1
41
1
41
1
41
1
41
1
41
1
41
1
41
1
41
1
41
1
41
1
41
1
41
1
41
1
41
1
41
1
41
1
41
1
41
1
41
1
41
1
41
1
41
1
41
1
41
1
41
1
41
1
41
1
41
1
41
1
41
1
41
1
41
1
41
1
41
1
41
1
41
1
41
1
41
1
41
1
41
1
41
1
41
1
41
1
41
1
41
1
41
1
41
1
41
1
41
1
41
1
41
1
41
1
41
1
41
1
41
1
41
1
41
1
41
1
41
1
41
1
41
1
41
1
41
1
41
1
41
1
41
1
41
1
41
1
41
1
41
1
41
1
41
1
41
1
41
1
41
1
41
1
41
1
41
1
41
1
41
1
41
1
41
1
41
1
41
1
10
-42.107770393031423
20
26.877623117622043
30
0
10
-42.630936822239313
20
28.153879088345764
30
0
10
-43.640717942333538
20
30.692327667613313
30
0
10
-45.045735521751155
20
34.457807993041364
30
0
10
-46.699749645471663
20
39.394075097491033
30
0
10
-48.398211879224888
20
45.430218798424455
30
0
10
-49.717232678702587
20
51.351962985619579
30
0
10
-50.636539869744809
20
57.198268353718163
30
0
10
-51.121805761378468
20
63.035689677739313
30
0
10
-51.123876490163681
20
68.959307509913955
30
0
10
-50.59096309359991
20
75.065168367808496
30
0
10
-49.479574990081979
20
81.425419954664804
30
0
10
-47.76457779154785
20
88.065538179645984
30
0
10
-45.452985429299204
20
94.932925935661785
30
0
10
-42.581778240414224
20
101.90228323828428
30
0
10
-39.203036079307076
20
108.81013446537317
30
0
10
-35.372832100665867
20
115.48075061375592
30
0
10
-31.138392951974367
20
121.75595463243985
30
0
10
-26.526445004846835
20
127.52244252612711
30
0
10
-21.529843633234627
20
132.74241744291845
30
0
10
-16.121072338749954
20
137.43359351019211
30
0
10
-10.266928073390815
20
141.64675626002619
30
0
10
-3.9434532710350583
20
145.44339976556375
30
0
10
2.8507693955081819
20
148.87519960116649
30
0
10
10.076851001242286
20
151.95814581912364
30
0
10
17.653761481874717
20
154.6659289168077
30
0
10
25.476483271956837
20
156.9474606362443
30
0
10
33.428803643454778
20
158.73801162696697
30
0
10
41.398836632066242
20
159.97341642155368
30
0
10
49.292085314941772
20
160.60185113291041
30
0
10
57.048727462572074
20
160.59938338396142
30
0
10
64.647615879421934
20
159.97401175809199
30
0
10
72.092189765621356
20
158.75413663289899
30
0
10
79.401006094580694
20
156.98100061029797
30
0
10
86.596038695909272
20
154.69921558011501
30
0
10
93.692796251366389
20
151.94884154015213
30
0
10
100.68746255114303
20
148.75493677042539
30
0
10
107.55751517782673
20
145.12854473697996
30
0
10
114.26801059273386
20
141.0724957984761
30
0
10
120.77600165807237
20
136.58561067259981
30
0
10
127.03583755068968
20
131.66768802050345
30
0
10
133.00382699588891
20
126.32387244210335
30
0
10
138.64384524428286
20
120.57003153306502
30
0
10
143.92724195970604
20
114.43184773631346
30
0
10
148.83145872362505
20
107.94247832828373
30
0
10
153.33910368894374
20
101.14072189165722
30
0
10
157.43680479958047
20
94.068943424441457
30
0
10
161.1142368835724
20
86.771180701432215
30
0
10
164.36288089155119
20
79.290981896902949
30
0
10
167.17599491646808
20
71.67042862264897
30
0
10
169.54910203917007
20
63.949640136409073
30
0
10
171.48028816018726
20
56.16613465362682
30
0
10
172.97063789179384
20
48.35422323560168
30
0
10
174.02447939105838
20
40.544448345417727
30
0
10
174.65004935903914
20
32.762850620079462
30
0
10
174.85839654621427
20
25.03101270458426
30
0
10
174.66116861155544
20
17.366584220835165
30
0
10
174.06878232512216
20
9.7836693025073949
30
0
10
173.08833553756986
20
2.2932470616987102
30
0
10
171.7218617195235
20
-5.0963721620194704
30
0
10
169.96382713882349
20
-12.379241864305872
30
0
10
167.80379946812175
20
-19.550345390985743
30
0
10
165.23026360729358
20
-26.603915802972708
30
0
10
162.23408612847092
20
-33.531814680977909
30
0
10
158.81203417270999
20
-40.321942552037271
30
0
10
154.97049654355305
20
-46.956498525680523
30
0
10
150.72847109811156
20
-53.410699273848124
30
0
10
146.11463133183196
20
-59.655127819884214
30
0
10
141.164977813928
20
-65.65771232823748
30
0
10
135.92025631134496
20
-71.385881580557523
30
0
10
130.42350739794492
20
-76.80856263106412
30
0
10
124.71749097732904
20
-81.898445169136352
30
0
10
118.84238609685831
20
-86.633495260942524
30
0
10
112.83406583011711
20
-90.996569085392196
30
0
10
106.72234907693996
20
-94.975372820837137
30
0
10
100.52907980645199
20
-98.562317802787192
30
0
10
94.266689834225815
20
-101.75435415370033
30
0
10
87.935498515679399
20
-104.5529911649524
30
0
10
81.527304330033161
20
-106.96328549952145
30
0
10
75.031525939904625
20
-108.99241135909472
30
0
10
68.440796623267758
20
-110.64830684545629
30
0
10
61.756180168644178
20
-111.93842253701177
30
0
10
54.994042790568841
20
-112.86809984907589
30
0
10
48.186330876962622
20
-113.44039564111553
30
0
10
41.374279328050704
20
-113.65732448070661
30
0
10
34.603797257141515
20
-113.52076649923131
30
0
10
27.920420693231428
20
-113.03340018334774
30
0
10
21.363849238431172
20
-112.19989383897092
30
0
10
14.964728318885195
20
-111.02708015070789
30
0
10
8.7458716740240838
20
-109.52237215202048
30
0
10
2.7223648232816808
20
-107.6924114018436
30
0
10
-3.0976387386795592
20
-105.54196999713371
30
0
10
-8.7130211109022166
20
-103.07189914694034
30
0
10
-14.127100197468373
20
-100.280758010771
30
0
10
-19.342433657703619
20
-97.170200563926002
30
0
10
-24.356142539981445
20
-93.749541191448401
30
0
10
-29.155396349158064
20
-90.040250089468998
30
0
10
-33.711826531816037
20
-86.081575228292238
30
0
10
-37.988620838240614
20
-81.922167296355596
30
0
10
-41.949854234645443
20
-77.609109883601562
30
0
10
-45.568098727489783
20
-73.179111431692846
30
0
10
-48.834945850433911
20
-68.645860930837415
30
0
10
-51.762689986298781
20
-63.999203953797938
30
0
10
-54.370781668622492
20
-59.224945502623015
30
0
10
-56.676404493256392
20
-54.31882789865216
30
0
10
-58.681953235130699
20
-49.305335445782568
30
0
10
-60.368214336418845
20
-44.246888072028696
30
0
10
-61.709759382593631
20
-39.214318833133454
30
0
10
-62.686298228790463
20
-34.264655880382193
30
0
10
-63.297476391155449
20
-29.412296698445218
30
0
10
-63.57043882053275
20
-24.614547034763188
30
0
10
-63.538976883208875
20
-19.813297292865478
30
0
10
-63.229407048390343
20
-14.964033049507222
30
0
10
-62.638427176003468
20
-10.079005983921558
30
0
10
-61.736590016629592
20
-5.2266470802482932
30
0
10
-60.494580010009955
20
-0.49324698457329114
30
0
10
-58.900908863426721
20
4.042503129005822
30
0
10
-56.988527884176747
20
8.345931792868921
30
0
10
-54.813855394762008
20
12.411289902544651
30
0
10
-52.807265020521292
20
15.633020611809583
30
0
10
-51.17925627431508
20
17.958663876628357
30
0
10
-50.007095580403146
20
19.489602165156114
30
0
10
-49.349344301861215
20
20.304989454883746
30
0
10
-49.235638642968823
20
20.444670725984999
30
0
0
ARC
5
104
100
AcDbEntity
8
0
100
AcDbCircle
10
-41.061021038829686
20
22.600164727763811
30
0
40
4.4036728406513506
210
0
220
0
230
1
100
AcDbArc
50
103.75078286635606
51
115.71734944054319
0
CIRCLE
5
105
100
AcDbEntity
8
0
100
AcDbCircle
10
-2.233094609952099
20
17.860943101166772
30
0
40
3.2000000000000006
210
0
220
-0
230
1
0
CIRCLE
5
106
100
AcDbEntity
8
0
100
AcDbCircle
10
2.233094609952099
20
-17.860943101166772
30
0
40
3.2000000000000006
210
0
220
-0
230
1
0
ENDSEC
0
SECTION
2
OBJECTS
0
DICTIONARY
5
C
100
AcDbDictionary
3
ACAD_GROUP
350
D
3
ACAD_MLINESTYLE
350
17
0
DICTIONARY
5
D
100
AcDbDictionary
0
DICTIONARY
5
1A
330
C
100
AcDbDictionary
0
DICTIONARY
5
17
100
AcDbDictionary
0
ENDSEC
0
EOF
