0
SECTION
2
HEADER
9
$INSUNITS
70
4
9
$ACADVER
1
AC1014
9
$HANDSEED
5
FFFF
0
ENDSEC
0
SECTION
2
TABLES
0
TABLE
2
VPORT
5
8
100
AcDbSymbolTable
0
ENDTAB
0
TABLE
2
LTYPE
5
5
100
AcDbSymbolTable
0
LTYPE
5
14
100
AcDbSymbolTableRecord
100
AcDbLinetypeTableRecord
2
BYBLOCK
70
0
0
LTYPE
5
15
100
AcDbSymbolTableRecord
100
AcDbLinetypeTableRecord
2
BYLAYER
70
0
0
ENDTAB
0
TABLE
2
LAYER
5
2
100
AcDbSymbolTable
70
2
0
LAYER
5
50
100
AcDbSymbolTableRecord
100
AcDbLayerTableRecord
2
0
70
0
6
CONTINUOUS
0
ENDTAB
0
TABLE
2
STYLE
5
3
100
AcDbSymbolTable
70
1
0
STYLE
5
11
100
AcDbSymbolTableRecord
100
AcDbTextStyleTableRecord
2
STANDARD
70
0
0
ENDTAB
0
TABLE
2
VIEW
5
6
100
AcDbSymbolTable
70
0
0
ENDTAB
0
TABLE
2
UCS
5
7
100
AcDbSymbolTable
70
0
0
ENDTAB
0
TABLE
2
APPID
5
9
100
AcDbSymbolTable
70
2
0
APPID
5
12
100
AcDbSymbolTableRecord
100
AcDbRegAppTableRecord
2
ACAD
70
0
0
ENDTAB
0
TABLE
2
DIMSTYLE
5
A
100
AcDbSymbolTable
70
1
0
ENDTAB
0
TABLE
2
BLOCK_RECORD
5
1
100
AcDbSymbolTable
70
1
0
BLOCK_RECORD
5
1F
100
AcDbSymbolTableRecord
100
AcDbBlockTableRecord
2
*MODEL_SPACE
0
BLOCK_RECORD
5
1B
100
AcDbSymbolTableRecord
100
AcDbBlockTableRecord
2
*PAPER_SPACE
0
ENDTAB
0
ENDSEC
0
SECTION
2
BLOCKS
0
BLOCK
5
20
100
AcDbEntity
100
AcDbBlockBegin
2
*MODEL_SPACE
0
ENDBLK
5
21
100
AcDbEntity
100
AcDbBlockEnd
0
BLOCK
5
1C
100
AcDbEntity
100
AcDbBlockBegin
2
*PAPER_SPACE
0
ENDBLK
5
1D
100
AcDbEntity
100
AcDbBlockEnd
0
ENDSEC
0
SECTION
2
ENTITIES
0
LINE
5
100
100
AcDbEntity
8
0
100
AcDbLine
10
-263.81712664180191
20
-766.9724986532816
30
0
11
-207.38348715390856
21
-767.15533740052956
31
0
0
ARC
5
101
100
AcDbEntity
8
0
100
AcDbCircle
10
-211.73021116233073
20
-771.29127627670755
30
0
40
6.0000000000001519
210
0
220
0
230
1
100
AcDbArc
50
-43.947816538905272
51
43.576553872327722
0
LINE
5
102
100
AcDbEntity
8
0
100
AcDbLine
10
-207.41037809350897
20
-775.45529383881217
30
0
11
-260.71781157603453
21
-775.28258365308773
31
0
0
SPLINE
5
103
100
AcDbEntity
8
0
100
AcDbSpline
70
0
71
3
72
52
73
48
74
0
42
0.000000001
43
0.0000000001
44
0.0000000001
40
7.8960452184941715e-10
40
7.8960452184941715e-10
40
7.8960452184941715e-10
40
7.8960452184941715e-10
40
21.727724851416845
40
32.591587276730465
40
43.455449702044085
40
76.047036977984959
40
86.910899403298572
40
130.36634910455308
40
173.82179880580756
40
188.30694870622574
40
202.79209860664389
40
231.76239840748022
40
260.73269820831655
40
289.70299800915285
40
347.64359761082551
40
405.58419721249817
40
463.52479681417077
40
521.46539641584343
40
543.1931212664706
40
564.92084611709788
40
608.37629581835245
40
630.10402066897973
40
651.8317455196069
40
695.28719522086135
40
717.01492007148863
40
738.7426449221158
40
760.47036977274297
40
782.19809462337025
40
825.65354432462482
40
847.3812691752521
40
869.10899402587927
40
890.83671887650644
40
912.56444372713372
40
934.292168577761
40
956.01989342838829
40
977.74761827901557
40
999.47534312964285
40
1021.2030679802701
40
1032.0669304055837
40
1042.9307928308974
40
1064.6585176815247
40
1086.3862425321518
40
1108.113967382779
40
1129.8416922334063
40
1151.5694170840336
40
1173.2971419346609
40
1216.7525916359152
40
1216.7525916359152
40
1216.7525916359152
40
1216.7525916359152
10
-260.71781157543796
20
-775.28258365300712
30
0
10
-264.64021945869621
20
-778.41617443463304
30
0
10
-270.20206310049804
20
-783.31029002029868
30
0
10
-276.87016734890244
20
-790.34146156941677
30
0
10
-284.51834207395768
20
-799.49987195747099
30
0
10
-290.66297118316521
20
-809.72179101686584
30
0
10
-297.41543784129044
20
-828.44051876671085
30
0
10
-300.84906737005122
20
-852.58611505812598
30
0
10
-297.50964119500077
20
-877.94201365790116
30
0
10
-291.19467050646006
20
-894.3975912005227
30
0
10
-284.67067150590987
20
-906.92800340425481
30
0
10
-273.94426398278819
20
-921.23503142066625
30
0
10
-257.89114981265539
20
-936.0092800949476
30
0
10
-233.1233010216734
20
-951.62536535063259
30
0
10
-197.42466524769779
20
-961.86621641538761
30
0
10
-152.78378140300779
20
-958.49524372399742
30
0
10
-111.86953146701333
20
-940.98110163971967
30
0
10
-85.292590746650461
20
-919.05129368201813
30
0
10
-69.615636742690043
20
-898.87198057556373
30
0
10
-57.990891483835426
20
-879.99266771771897
30
0
10
-49.272976495206521
20
-859.53516024054102
30
0
10
-44.109056104424184
20
-838.63887046381819
30
0
10
-41.493155750947849
20
-817.4750441463442
30
0
10
-42.38090379269444
20
-795.79838098514642
30
0
10
-46.573573293878653
20
-774.36203303257525
30
0
10
-51.505842310581613
20
-758.92598752201695
30
0
10
-58.071676564022553
20
-744.30145840261343
30
0
10
-68.577323775962512
20
-726.19713373279922
30
0
10
-81.026564707250913
20
-710.02488362707413
30
0
10
-97.168158407296715
20
-696.56724742355721
30
0
10
-110.83152366904956
20
-687.95953885146776
30
0
10
-125.08343973758556
20
-680.79535236603294
30
0
10
-138.97667476494294
20
-675.30599983602553
30
0
10
-152.34639360831255
20
-672.05161194686286
30
0
10
-166.60808830324018
20
-670.90519888970846
30
0
10
-181.6807040987066
20
-671.26676409049423
30
0
10
-196.26310357668831
20
-673.16618963209532
30
0
10
-207.21883078211641
20
-676.40751366032407
30
0
10
-215.50599316332654
20
-680.05228420607511
30
0
10
-223.57791291651708
20
-684.29224806303978
30
0
10
-233.28868554250658
20
-690.57088207800189
30
0
10
-243.40549799452856
20
-699.23090779265226
30
0
10
-251.63142354907208
20
-708.95704464389132
30
0
10
-258.37056208339749
20
-719.74663915012457
30
0
10
-262.9663776212517
20
-731.51381783868362
30
0
10
-265.90713301965775
20
-747.71426187732209
30
0
10
-265.5351940344496
20
-759.47493549474882
30
0
10
-263.81712664187904
20
-766.97249865408253
30
0
0
ARC
5
104
100
AcDbEntity
8
0
100
AcDbCircle
10
-213.60227131243863
20
-726.33023324171609
30
0
40
9.9999999999999751
210
0
220
0
230
1
100
AcDbArc
50
198.30264185049583
51
272.38426908175177
0
ARC
5
105
100
AcDbEntity
8
0
100
AcDbCircle
10
-194.61405133728275
20
-720.04950858805569
30
0
40
30.000000000000032
210
0
220
0
230
1
100
AcDbArc
50
113.94308625095866
51
198.30264185049705
0
SPLINE
5
106
100
AcDbEntity
8
0
100
AcDbSpline
70
0
71
3
72
35
73
31
74
0
42
0.000000001
43
0.0000000001
44
0.0000000001
40
1017.6483176994436
40
1017.6483176994436
40
1017.6483176994436
40
1017.6483176994436
40
1020.0470552814439
40
1020.0470552814439
40
1020.0470552814439
40
1040.0252864698734
40
1040.0252864698734
40
1040.0252864698734
40
1059.9918529490087
40
1059.9918529490087
40
1059.9918529490087
40
1079.9693731568448
40
1079.9693731568448
40
1079.9693731568448
40
1099.9366368717624
40
1099.9366368717624
40
1099.9366368717624
40
1119.8991404693379
40
1119.8991404693379
40
1119.8991404693379
40
1139.8786372630861
40
1139.8786372630861
40
1139.8786372630861
40
1179.8225828690106
40
1179.8225828690106
40
1179.8225828690106
40
1209.7351482402194
40
1209.7351482402194
40
1209.7351482402194
40
1219.7602629059209
40
1219.7602629059209
40
1219.7602629059209
40
1219.7602629059209
10
-109.51227300531124
20
-706.67332427211136
30
0
10
-109.87494194155045
20
-706.42957163930669
30
0
10
-110.23966024195188
20
-706.18733265377614
30
0
10
-110.60636929140074
20
-705.9465850068209
30
0
10
-113.66055838809612
20
-703.94148357970607
30
0
10
-116.85118016689711
20
-702.04089373598561
30
0
10
-120.10307229630627
20
-700.25962344206903
30
0
10
-123.35306574029191
20
-698.47939318017336
30
0
10
-126.66688981675691
20
-696.81718142721127
30
0
10
-129.96834060339867
20
-695.30045279486387
30
0
10
-133.27160257757103
20
-693.78289207984596
30
0
10
-136.55941603880603
20
-692.41138143568696
30
0
10
-139.74999764102077
20
-691.24348975807663
30
0
10
-142.93894119320385
20
-690.07619767804374
30
0
10
-146.01052813708515
20
-689.12099954849043
30
0
10
-149.05306990957524
20
-688.38045579608638
30
0
10
-152.09488635204207
20
-687.64008858640761
30
0
10
-155.13777476926623
20
-687.10766971832584
30
0
10
-158.34055566901858
20
-686.74473079842699
30
0
10
-161.54606295446004
20
-686.38148292468202
30
0
10
-164.90903105039254
20
-686.18657165867285
30
0
10
-168.35936599942627
20
-686.12680831016428
30
0
10
-175.25743720458038
20
-686.00732662517999
30
0
10
-182.46890036489756
20
-686.42923340342679
30
0
10
-188.97166705340675
20
-687.45769460825704
30
0
10
-193.84135207608261
20
-688.22787172908397
30
0
10
-198.31418033675112
20
-689.34123716976387
30
0
10
-202.55654061715873
20
-690.9096546140463
30
0
10
-203.97835608957021
20
-691.43530544096461
30
0
10
-205.37275472701481
20
-692.0112430717561
30
0
10
-206.78892098746928
20
-692.63103764234063
30
0
0
ARC
5
107
100
AcDbEntity
8
0
100
AcDbCircle
10
-126.25303727360121
20
-731.56800292448042
30
0
40
29.999999999999908
210
0
220
0
230
1
100
AcDbArc
50
-90.185631336014666
51
56.080605843240562
0
LINE
5
108
100
AcDbEntity
8
0
100
AcDbLine
10
-126.35023344380933
20
-761.56784547247537
30
0
11
-160.46332750962006
21
-761.45732282250333
31
0
0
ARC
5
109
100
AcDbEntity
8
0
100
AcDbCircle
10
-160.36613133941177
20
-731.45748027450838
30
0
40
29.999999999999861
210
0
220
0
230
1
100
AcDbArc
50
217.79424110883645
51
269.81436866398508
0
ARC
5
110
100
AcDbEntity
8
0
100
AcDbCircle
10
-211.73021116233036
20
-771.29127627670732
30
0
40
34.999999999999766
210
0
220
-0
230
1
100
AcDbArc
50
37.794241108836957
51
92.38426908175181
0
CIRCLE
5
111
100
AcDbEntity
8
0
100
AcDbCircle
10
-220.32149464768401
20
-787.20821492539244
30
0
40
3.2000000000940054
210
0
220
-0
230
1
0
CIRCLE
5
112
100
AcDbEntity
8
0
100
AcDbCircle
10
-203.12911840086585
20
-755.57876347679394
30
0
40
3.2000000002395752
210
0
220
-0
230
1
0
LINE
5
113
100
AcDbEntity
8
0
100
AcDbLine
10
-58.943023051985158
20
-768.22227785038524
30
0
11
-56.710542511793733
21
-767.1163678058756
31
0
0
ARC
5
114
100
AcDbEntity
8
0
100
AcDbCircle
10
-56.480952883531202
20
-767.57983622256108
30
0
40
0.51721791410457985
210
-0
220
0
230
1
100
AcDbArc
50
-8.3214183570054061
51
116.35256174746863
0
LINE
5
115
100
AcDbEntity
8
0
100
AcDbLine
10
-55.969180365530981
20
-767.65469115219435
30
0
11
-57.03373037594308
21
-774.93286831476905
31
0
0
ARC
5
116
100
AcDbEntity
8
0
100
AcDbCircle
10
-57.675243285585218
20
-774.83903677434569
30
0
40
0.6483387781212574
210
0
220
0
230
1
100
AcDbArc
50
232.64752347913642
51
351.67858164295791
0
LINE
5
117
100
AcDbEntity
8
0
100
AcDbLine
10
-58.068601256444992
20
-775.35441302329093
30
0
11
-63.401009234477613
21
-771.2844831684971
31
0
0
ARC
5
118
100
AcDbEntity
8
0
100
AcDbCircle
10
-63.07931356596108
20
-770.86299861950056
30
0
40
0.53022384724303884
210
0
220
0
230
1
100
AcDbArc
50
116.35256174748311
51
232.64752347914384
0
LINE
5
119
100
AcDbEntity
8
0
100
AcDbLine
10
-63.314676442351953
20
-770.38787585157388
30
0
11
-60.95531081214672
21
-769.21911038995177
31
0
0
ELLIPSE
5
120
100
AcDbEntity
8
0
100
AcDbEllipse
10
-175.02052190064296
20
-775.62520732060068
30
0
11
-106.93367268947257
21
71.283435854795798
31
0.0
40
0.75893564106704903
41
3.9216600757023463
42
4.0652001366832975
0
ARC
5
121
100
AcDbEntity
8
0
100
AcDbCircle
10
-66.402880091565351
20
-753.37125480311954
30
0
40
1.0978851555079836
210
0
220
0
230
1
100
AcDbArc
50
124.49501630604743
51
206.47303932629796
0
LINE
5
122
100
AcDbEntity
8
0
100
AcDbLine
10
-67.02465038788128
20
-752.4664048082011
30
0
11
-66.878215116013536
21
-752.36578024558401
31
0
0
ARC
5
123
100
AcDbEntity
8
0
100
AcDbCircle
10
-66.328566381705059
20
-753.16565683397039
30
0
40
0.97052371829626538
210
0
220
-0
230
1
100
AcDbArc
50
26.537622057124491
51
124.49556215356067
0
ELLIPSE
5
124
100
AcDbEntity
8
0
100
AcDbEllipse
10
-163.43885258634924
20
-773.91837255112944
30
0
11
-94.335904876359706
21
76.348999576004815
31
0.0
40
0.75226764653622114
41
4.0181892928100202
42
4.1681943109630026
0
LINE
5
125
100
AcDbEntity
8
0
100
AcDbLine
10
-145.97514396917558
20
-781.50436790253013
30
0
11
-87.011345682963039
21
-781.69540408431146
31
0
0
ARC
5
126
100
AcDbEntity
8
0
100
AcDbCircle
10
-87.108541853171445
20
-811.69524663230663
30
0
40
30.000000000000018
210
0
220
-0
230
1
100
AcDbArc
50
0.56199317245538294
51
89.814368663984823
0
SPLINE
5
127
100
AcDbEntity
8
0
100
AcDbSpline
70
0
71
3
72
20
73
16
74
0
42
0.000000001
43
0.0000000001
44
0.0000000001
40
628.10322168984715
40
628.10322168984715
40
628.10322168984715
40
628.10322168984715
40
660.57485610524589
40
660.57485610524589
40
660.57485610524589
40
700.50071342399087
40
700.50071342399087
40
700.50071342399087
40
740.44642060282285
40
740.44642060282285
40
740.44642060282285
40
780.38827857497915
40
780.38827857497915
40
780.38827857497915
40
795.25840242747063
40
795.25840242747063
40
795.25840242747063
40
795.25840242747063
10
-88.016183616334231
20
-897.9354901287752
30
0
10
-84.207267352284632
20
-893.22857986807958
30
0
10
-80.706506952793674
20
-888.21369616797244
30
0
10
-77.508167494568539
20
-882.94377434930857
30
0
10
-73.57561383150275
20
-876.46408367771312
30
0
10
-70.106406550763282
20
-869.6065174826615
30
0
10
-67.209854637460026
20
-862.6223442551775
30
0
10
-64.311862651129559
20
-855.63469872000371
30
0
10
-61.987514957317927
20
-848.52246785124964
30
0
10
-60.324597747952097
20
-841.3644980801721
30
0
10
-58.661840778884283
20
-834.20721805793039
30
0
10
-57.659573131935311
20
-826.99389116363761
30
0
10
-57.278817706158776
20
-819.65028680849764
30
0
10
-57.137064652438724
20
-816.91630517046883
30
0
10
-57.081198957817527
20
-814.16439799768625
30
0
10
-57.10862967015764
20
-811.40097934500307
30
0
0
ARC
5
128
100
AcDbEntity
8
0
100
AcDbCircle
10
-111.33369495334128
20
-879.0580434899573
30
0
40
29.999999999999993
210
0
220
0
230
1
100
AcDbArc
50
207.21388055417228
51
321.00697802690286
0
LINE
5
129
100
AcDbEntity
8
0
100
AcDbLine
10
-138.01286325397467
20
-892.77744503617919
30
0
11
-172.75150844001755
21
-825.22361199674936
31
0
0
ARC
5
130
100
AcDbEntity
8
0
100
AcDbCircle
10
-146.07234013938432
20
-811.50421045052724
30
0
40
30.000000000002039
210
0
220
-0
230
1
100
AcDbArc
50
89.814368663984183
51
207.21388055417279
0
LINE
5
131
100
AcDbEntity
8
0
100
AcDbLine
10
-197.19292856544564
20
-821.42776413433637
30
0
11
-156.18933825265182
21
-901.16460128423932
31
0
0
ARC
5
132
100
AcDbEntity
8
0
100
AcDbCircle
10
-182.8685065532849
20
-914.88400283046212
30
0
40
30.000000000000057
210
-0
220
0
230
1
100
AcDbArc
50
-88.988437218173345
51
27.213880554174107
0
SPLINE
5
133
100
AcDbEntity
8
0
100
AcDbSpline
70
0
71
3
72
35
73
31
74
0
42
0.000000001
43
0.0000000001
44
0.0000000001
40
101.37798295615046
40
101.37798295615046
40
101.37798295615046
40
101.37798295615046
40
141.32444117341271
40
141.32444117341271
40
141.32444117341271
40
181.26714953275643
40
181.26714953275643
40
181.26714953275643
40
201.23997481581193
40
201.23997481581193
40
201.23997481581193
40
221.21304654401561
40
221.21304654401561
40
221.21304654401561
40
261.15710718031653
40
261.15710718031653
40
261.15710718031653
40
281.11425139174139
40
281.11425139174139
40
281.11425139174139
40
301.09011015330304
40
301.09011015330304
40
301.09011015330304
40
341.02560574235287
40
341.02560574235287
40
341.02560574235287
40
420.93227465292699
40
420.93227465292699
40
420.93227465292699
40
433.58989585791113
40
433.58989585791113
40
433.58989585791113
40
433.58989585791113
10
-280.68449553777202
20
-826.64169368149771
30
0
10
-282.62312438265803
20
-833.02085837812922
30
0
10
-283.78395083662684
20
-840.11486236820474
30
0
10
-284.20064560619784
20
-847.34153706117013
30
0
10
-284.61730125975583
20
-854.56753337100622
30
0
10
-284.283462003387
20
-861.90773215742422
30
0
10
-283.10766185203204
20
-868.91748445065309
30
0
10
-282.51971847123946
20
-872.42261876880195
30
0
10
-281.72055563982542
20
-875.84983066690722
30
0
10
-280.70576369578043
20
-879.17982083251127
30
0
10
-279.69095923019444
20
-882.50985208694033
30
0
10
-278.46092908441841
20
-885.74185077274581
30
0
10
-277.0054418692074
20
-888.89002955391584
30
0
10
-274.09461921904602
20
-895.18605881973008
30
0
10
-270.2831303093318
20
-901.14660720086886
30
0
10
-265.75755593694799
20
-906.72935413046957
30
0
10
-263.49645531396544
20
-909.51864705149728
30
0
10
-261.05786171045065
20
-912.2121472700328
30
0
10
-258.47137206458069
20
-914.77574042697586
30
0
10
-255.88245697198144
20
-917.34173755976599
30
0
10
-253.14690311822716
20
-919.77656301354818
30
0
10
-250.29134949092636
20
-922.06655324371059
30
0
10
-244.58256116555023
20
-926.64467405579796
30
0
10
-238.39599626624891
20
-930.64048572694242
30
0
10
-231.84730181208374
20
-933.91241623432109
30
0
10
-218.7440624049591
20
-940.45920033941673
30
0
10
-204.21367440604638
20
-944.11199786785323
30
0
10
-189.39678205409461
20
-944.78549460512158
30
0
10
-187.04971123531325
20
-944.89217990059615
30
0
10
-184.69541418800429
20
-944.92383890638575
30
0
10
-182.33884615058821
20
-944.8813698549227
30
0
0
ARC
5
134
100
AcDbEntity
8
0
100
AcDbCircle
10
-251.96449121167404
20
-835.31125834812974
30
0
40
30.00000000000005
210
0
220
-0
230
1
100
AcDbArc
50
89.81436866398488
51
163.20277152699998
0
LINE
5
135
100
AcDbEntity
8
0
100
AcDbLine
10
-251.86729504146567
20
-805.31141580013457
30
0
11
-219.50746111581483
21
-805.41625808126003
31
0
0
ARC
5
136
100
AcDbEntity
8
0
100
AcDbCircle
10
-211.73021116241642
20
-771.29127627711057
30
0
40
34.99999999958807
210
0
220
0
230
1
100
AcDbArc
50
257.16129781063273
51
259.23400810933646
0
ARC
5
137
100
AcDbEntity
8
0
100
AcDbCircle
10
-223.87209686607923
20
-835.14716568056087
30
0
40
30.000000000001354
210
0
220
-0
230
1
100
AcDbArc
50
27.213880554176551
51
79.234008109321977
0
LWPOLYLINE
5
138
100
AcDbEntity
8
0
100
AcDbPolyline
90
31
70
1
43
0.0
10
-86.152727888213448
20
-739.65110351039539
42
-0.072872758697292359
10
-84.390397511207368
20
-739.11456341351959
42
-0.068321888640922604
10
-83.162753952990727
20
-739.10851200612126
42
-0.16382915835015852
10
-80.674657108937112
20
-740.37386552925796
42
-0.054663599143663727
10
-79.813730400713524
20
-741.43519267730187
42
-0.047043046521171666
10
-79.12413615809561
20
-742.73601936743012
42
-0.10809007411088283
10
-78.732758479415963
20
-744.84584802334962
42
-0.23785133936150138
10
-80.579677347602399
20
-748.17463443180395
42
-0.1902014851544287
10
-84.248616535524818
20
-748.97398697517372
42
-0.028687641907774494
10
-85.420078677461106
20
-748.76086753758773
10
-86.549359695251496
20
-748.45035438603634
10
-88.491479382734042
20
-747.80593148141429
10
-90.455363661846491
20
-747.04764668880011
10
-91.606494175158957
20
-746.66323156606484
10
-92.620688442234979
20
-746.45192720756188
10
-93.266422938157007
20
-746.44458813034862
10
-89.364859915627747
20
-753.2531413847579
10
-91.003079416459769
20
-754.19190420093946
10
-96.261236115810647
20
-745.01598170504849
42
-0.11578647091883493
10
-94.708021905152322
20
-744.50042717706208
42
-0.075684846100838796
10
-92.474024383229207
20
-744.6005340023213
10
-91.497867591156165
20
-744.82594808189106
10
-90.371155859185052
20
-745.16775016133511
10
-89.093889226569999
20
-745.62594038527618
42
0.028932137925661544
10
-85.606817408996747
20
-746.76966836801182
42
0.030451714166069378
10
-84.400898132078893
20
-746.99969253676682
42
0.072912089496261032
10
-82.866925575213045
20
-746.96858498397262
42
0.10623584871414876
10
-81.678818573097828
20
-746.48459198031878
42
0.40499579162181931
10
-80.987372638986628
20
-742.62844329746247
42
0.07873397238197255
10
-81.70458345452586
20
-741.71506588079228
42
0.34449948767727684
10
-85.328768682321964
20
-741.50605767746913
0
LWPOLYLINE
5
139
100
AcDbEntity
8
0
100
AcDbPolyline
90
12
70
1
43
0.0
10
-74.868880959955845
20
-750.16667253178514
10
-76.122373867861171
20
-747.97922274096481
10
-80.056759060193059
20
-756.52327541866828
10
-90.368193552117361
20
-755.29983304711834
10
-89.103848097026514
20
-757.50622143896294
10
-80.846550850912408
20
-758.28407435344366
10
-84.37747560405316
20
-765.75413609080033
10
-83.075146233811651
20
-768.02680958623546
10
-78.74793960240612
20
-758.56580989213808
10
-69.409948255491486
20
-759.69296592137357
10
-70.554913794903257
20
-757.69490545059989
10
-78.050182691461714
20
-756.82001419288497
0
LWPOLYLINE
5
140
100
AcDbEntity
8
0
100
AcDbPolyline
90
6
70
1
43
0.0
10
-67.071180714331746
20
-763.77431056753744
10
-68.123897706028629
20
-761.93723151526899
10
-82.006150421335832
20
-769.89229654004146
10
-77.035590875093277
20
-778.5663379894271
10
-75.397371374261184
20
-777.62757517324576
10
-79.315213928807538
20
-770.79061277612755
0
ENDSEC
0
SECTION
2
OBJECTS
0
DICTIONARY
5
C
100
AcDbDictionary
3
ACAD_GROUP
350
D
3
ACAD_MLINESTYLE
350
17
0
DICTIONARY
5
D
100
AcDbDictionary
0
DICTIONARY
5
1A
330
C
100
AcDbDictionary
0
DICTIONARY
5
17
100
AcDbDictionary
0
ENDSEC
0
EOF
