0
SECTION
2
HEADER
9
$INSUNITS
70
4
9
$ACADVER
1
AC1014
9
$HANDSEED
5
FFFF
0
ENDSEC
0
SECTION
2
TABLES
0
TABLE
2
VPORT
5
8
100
AcDbSymbolTable
0
ENDTAB
0
TABLE
2
LTYPE
5
5
100
AcDbSymbolTable
0
LTYPE
5
14
100
AcDbSymbolTableRecord
100
AcDbLinetypeTableRecord
2
BYBLOCK
70
0
0
LTYPE
5
15
100
AcDbSymbolTableRecord
100
AcDbLinetypeTableRecord
2
BYLAYER
70
0
0
ENDTAB
0
TABLE
2
LAYER
5
2
100
AcDbSymbolTable
70
2
0
LAYER
5
50
100
AcDbSymbolTableRecord
100
AcDbLayerTableRecord
2
0
70
0
6
CONTINUOUS
0
ENDTAB
0
TABLE
2
STYLE
5
3
100
AcDbSymbolTable
70
1
0
STYLE
5
11
100
AcDbSymbolTableRecord
100
AcDbTextStyleTableRecord
2
STANDARD
70
0
0
ENDTAB
0
TABLE
2
VIEW
5
6
100
AcDbSymbolTable
70
0
0
ENDTAB
0
TABLE
2
UCS
5
7
100
AcDbSymbolTable
70
0
0
ENDTAB
0
TABLE
2
APPID
5
9
100
AcDbSymbolTable
70
2
0
APPID
5
12
100
AcDbSymbolTableRecord
100
AcDbRegAppTableRecord
2
ACAD
70
0
0
ENDTAB
0
TABLE
2
DIMSTYLE
5
A
100
AcDbSymbolTable
70
1
0
ENDTAB
0
TABLE
2
BLOCK_RECORD
5
1
100
AcDbSymbolTable
70
1
0
BLOCK_RECORD
5
1F
100
AcDbSymbolTableRecord
100
AcDbBlockTableRecord
2
*MODEL_SPACE
0
BLOCK_RECORD
5
1B
100
AcDbSymbolTableRecord
100
AcDbBlockTableRecord
2
*PAPER_SPACE
0
ENDTAB
0
ENDSEC
0
SECTION
2
BLOCKS
0
BLOCK
5
20
100
AcDbEntity
100
AcDbBlockBegin
2
*MODEL_SPACE
0
ENDBLK
5
21
100
AcDbEntity
100
AcDbBlockEnd
0
BLOCK
5
1C
100
AcDbEntity
100
AcDbBlockBegin
2
*PAPER_SPACE
0
ENDBLK
5
1D
100
AcDbEntity
100
AcDbBlockEnd
0
ENDSEC
0
SECTION
2
ENTITIES
0
LINE
5
100
100
AcDbEntity
8
0
100
AcDbLine
10
100.95157746676149
20
84.147283905462501
30
0
11
93.525971835814389
21
76.330907982047165
31
0
0
LINE
5
101
100
AcDbEntity
8
0
100
AcDbLine
10
93.525971835814389
20
76.330907982047165
30
0
11
92.03385116021677
21
77.748431883063546
31
0
0
LINE
5
102
100
AcDbEntity
8
0
100
AcDbLine
10
92.03385116021677
20
77.748431883063546
30
0
11
97.376049776502754
21
83.371762116009776
31
0
0
SPLINE
5
103
100
AcDbEntity
8
0
100
AcDbSpline
70
0
71
3
72
9
73
5
74
0
42
0.000000001
43
0.0000000001
44
0.0000000001
40
0
40
0
40
0
40
0
40
0.15333287375923751
40
0.31011671084778569
40
0.31011671084778569
40
0.31011671084778569
40
0.31011671084778569
10
97.376049776502754
20
83.371762116009762
30
0
10
96.862280491818638
20
83.40524385004187
30
0
10
95.823178851090034
20
83.472960869732091
30
0
10
94.860638503727415
20
83.870779711387343
30
0
10
94.374012779497662
20
84.071902586353744
30
0
0
LINE
5
104
100
AcDbEntity
8
0
100
AcDbLine
10
94.374012779497662
20
84.071902586353744
30
0
11
95.660377885402212
21
85.425962274173642
31
0
0
SPLINE
5
105
100
AcDbEntity
8
0
100
AcDbSpline
70
0
71
3
72
9
73
5
74
0
42
0.000000001
43
0.0000000001
44
0.0000000001
40
0
40
0
40
0
40
0
40
0.092310084654538632
40
0.20231293332005096
40
0.20231293332005096
40
0.20231293332005096
40
0.20231293332005096
10
95.660377885402212
20
85.425962274173656
30
0
10
95.948204160119502
20
85.313704715699373
30
0
10
96.579023405303403
20
85.067673569402942
30
0
10
97.252094325326425
20
84.988292194534864
30
0
10
97.618060639696068
20
84.945130458786323
30
0
0
SPLINE
5
106
100
AcDbEntity
8
0
100
AcDbSpline
70
0
71
3
72
9
73
5
74
0
42
0.000000001
43
0.0000000001
44
0.0000000001
40
0
40
0
40
0
40
0
40
0.11270810935552886
40
0.21742062626120065
40
0.21742062626120065
40
0.21742062626120065
40
0.21742062626120065
10
97.618060639696068
20
84.945130458786323
30
0
10
97.998333816381773
20
84.927509499833022
30
0
10
98.731903323474938
20
84.893517625132489
30
0
10
99.41290824293803
20
85.166144907943874
30
0
10
99.740888804710735
20
85.297445647212442
30
0
0
LINE
5
107
100
AcDbEntity
8
0
100
AcDbLine
10
99.740888804710735
20
85.297445647212427
30
0
11
100.95157746676149
21
84.147283905462501
31
0
0
SPLINE
5
108
100
AcDbEntity
8
0
100
AcDbSpline
70
0
71
3
72
9
73
5
74
0
42
0.000000001
43
0.0000000001
44
0.0000000001
40
0
40
0
40
0
40
0
40
0.14480022262489772
40
0.30924058114529662
40
0.30924058114529662
40
0.30924058114529662
40
0.30924058114529662
10
107.42433590115317
20
64.16287288840816
30
0
10
107.43844757813562
20
64.655185708534219
30
0
10
107.46858498477687
20
65.706586734314754
30
0
10
108.05598636895537
20
66.583246705153712
30
0
10
108.3683402451897
20
67.049415405818223
30
0
0
LINE
5
109
100
AcDbEntity
8
0
100
AcDbLine
10
108.3683402451897
20
67.049415405818223
30
0
11
110.03887911992484
21
65.745260585263111
31
0
0
SPLINE
5
110
100
AcDbEntity
8
0
100
AcDbSpline
70
0
71
3
72
9
73
5
74
0
42
0.000000001
43
0.0000000001
44
0.0000000001
40
0
40
0
40
0
40
0
40
0.096511564593617177
40
0.17669446126250393
40
0.17669446126250393
40
0.17669446126250393
40
0.17669446126250393
10
110.03887911992484
20
65.745260585263111
30
0
10
109.86816085485238
20
65.464917978132505
30
0
10
109.55560792918313
20
64.951663570285703
30
0
10
109.53427546665856
20
64.353474916120689
30
0
10
109.52459492191437
20
64.082020459072623
30
0
0
SPLINE
5
111
100
AcDbEntity
8
0
100
AcDbSpline
70
0
71
3
72
9
73
5
74
0
42
0.000000001
43
0.0000000001
44
0.0000000001
40
0
40
0
40
0
40
0
40
0.077926006803855905
40
0.16751011178298997
40
0.16751011178298997
40
0.16751011178298997
40
0.16751011178298997
10
109.52459492191437
20
64.082020459072623
30
0
10
109.58501343504979
20
63.824517276372688
30
0
10
109.71488935586466
20
63.270987220262995
30
0
10
110.10951975309436
20
62.859135416267463
30
0
10
110.32056737617265
20
62.638877815981324
30
0
0
SPLINE
5
112
100
AcDbEntity
8
0
100
AcDbSpline
70
0
71
3
72
9
73
5
74
0
42
0.000000001
43
0.0000000001
44
0.0000000001
40
0
40
0
40
0
40
0
40
0.092493186084335932
40
0.16639671729636074
40
0.16639671729636074
40
0.16639671729636074
40
0.16639671729636074
10
110.32056737617265
20
62.638877815981324
30
0
10
110.55463306049643
20
62.428453147636702
30
0
10
110.97572096061143
20
62.049895812409929
30
0
10
111.52577547176884
20
61.927424820629184
30
0
10
111.77007699041741
20
61.873030485748679
30
0
0
SPLINE
5
113
100
AcDbEntity
8
0
100
AcDbSpline
70
0
71
3
72
9
73
5
74
0
42
0.000000001
43
0.0000000001
44
0.0000000001
40
0
40
0
40
0
40
0
40
0.062420571042646242
40
0.11955666607750227
40
0.11955666607750227
40
0.11955666607750227
40
0.11955666607750227
10
111.77007699041741
20
61.873030485748679
30
0
10
111.98506671295891
20
61.874599534084453
30
0
10
112.3968452987464
20
61.877604796369098
30
0
10
112.71622824815236
20
62.135446928128076
30
0
10
112.86886126434854
20
62.258669605938621
30
0
0
SPLINE
5
114
100
AcDbEntity
8
0
100
AcDbSpline
70
0
71
3
72
9
73
5
74
0
42
0.000000001
43
0.0000000001
44
0.0000000001
40
0
40
0
40
0
40
0
40
0.035687486032259422
40
0.069675382867680186
40
0.069675382867680186
40
0.069675382867680186
40
0.069675382867680186
10
112.86886126434854
20
62.258669605938621
30
0
10
112.94618748988904
20
62.352211152607097
30
0
10
113.09715733868636
20
62.53483940140751
30
0
10
113.13492585217102
20
62.768491169618414
30
0
10
113.15334946589383
20
62.882467323986269
30
0
0
SPLINE
5
115
100
AcDbEntity
8
0
100
AcDbSpline
70
0
71
3
72
9
73
5
74
0
42
0.000000001
43
0.0000000001
44
0.0000000001
40
0
40
0
40
0
40
0
40
0.039564554147590893
40
0.091557641375277499
40
0.091557641375277499
40
0.091557641375277499
40
0.091557641375277499
10
113.15334946589383
20
62.882467323986269
30
0
10
113.14368157141905
20
63.015131857738936
30
0
10
113.12130877753204
20
63.322135236552057
30
0
10
112.98536137553668
20
63.599432045304013
30
0
10
112.90816055401979
20
63.756901339497638
30
0
0
SPLINE
5
116
100
AcDbEntity
8
0
100
AcDbSpline
70
0
71
3
72
9
73
5
74
0
42
0.000000001
43
0.0000000001
44
0.0000000001
40
0
40
0
40
0
40
0
40
0.0650684290391325
40
0.17982531706304272
40
0.17982531706304272
40
0.17982531706304272
40
0.17982531706304272
10
112.90816055401979
20
63.756901339497638
30
0
10
112.80043745420629
20
63.945184333514582
30
0
10
112.50273024250573
20
64.465529600745683
30
0
10
112.17907622885028
20
64.970228932862014
30
0
10
111.97253396878281
20
65.292306634085307
30
0
0
SPLINE
5
117
100
AcDbEntity
8
0
100
AcDbSpline
70
0
71
3
72
9
73
5
74
0
42
0.000000001
43
0.0000000001
44
0.0000000001
40
0
40
0
40
0
40
0
40
0.15593760972028706
40
0.26838956407757908
40
0.26838956407757908
40
0.26838956407757908
40
0.26838956407757908
10
111.97253396878281
20
65.292306634085307
30
0
10
111.69274110164871
20
65.736335702423318
30
0
10
111.21118000951165
20
66.500569348833437
30
0
10
111.01333742223281
20
67.379067986974405
30
0
10
110.93044379083894
20
67.747148203128489
30
0
0
SPLINE
5
118
100
AcDbEntity
8
0
100
AcDbSpline
70
0
71
3
72
9
73
5
74
0
42
0.000000001
43
0.0000000001
44
0.0000000001
40
0
40
0
40
0
40
0
40
0.12315717930166074
40
0.24346095596176495
40
0.24346095596176495
40
0.24346095596176495
40
0.24346095596176495
10
110.93044379083894
20
67.747148203128489
30
0
10
110.93422158035378
20
68.16982373917115
30
0
10
110.94168963257712
20
69.005381931150723
30
0
10
111.45037485555972
20
69.667464704479272
30
0
10
111.70173652960818
20
69.994626231379428
30
0
0
SPLINE
5
119
100
AcDbEntity
8
0
100
AcDbSpline
70
0
71
3
72
9
73
5
74
0
42
0.000000001
43
0.0000000001
44
0.0000000001
40
0
40
0
40
0
40
0
40
0.080223289195625533
40
0.16209221990744094
40
0.16209221990744094
40
0.16209221990744094
40
0.16209221990744094
10
111.70173652960818
20
69.994626231379428
30
0
10
111.90244566295038
20
70.176636335215449
30
0
10
112.30798112908921
20
70.544390164211734
30
0
10
112.83139648895919
20
70.705417814495362
30
0
10
113.09576115652413
20
70.786749056372869
30
0
0
SPLINE
5
120
100
AcDbEntity
8
0
100
AcDbSpline
70
0
71
3
72
9
73
5
74
0
42
0.000000001
43
0.0000000001
44
0.0000000001
40
0
40
0
40
0
40
0
40
0.084723090342054594
40
0.17458185427502421
40
0.17458185427502421
40
0.17458185427502421
40
0.17458185427502421
10
113.09576115652413
20
70.786749056372869
30
0
10
113.37884864812283
20
70.82891785765915
30
0
10
113.96218359265605
20
70.915811613439161
30
0
10
114.52627432065594
20
70.741733201277043
30
0
10
114.81661661180991
20
70.652133563277673
30
0
0
SPLINE
5
121
100
AcDbEntity
8
0
100
AcDbSpline
70
0
71
3
72
9
73
5
74
0
42
0.000000001
43
0.0000000001
44
0.0000000001
40
0
40
0
40
0
40
0
40
0.10056895973844411
40
0.21566400192985197
40
0.21566400192985197
40
0.21566400192985197
40
0.21566400192985197
10
114.81661661180991
20
70.652133563277673
30
0
10
115.12292762339273
20
70.51122705535569
30
0
10
115.77979291030573
20
70.209061640943034
30
0
10
116.31839547913673
20
69.72559998014799
30
0
10
116.60583559352432
20
69.467587332004541
30
0
0
SPLINE
5
122
100
AcDbEntity
8
0
100
AcDbSpline
70
0
71
3
72
9
73
5
74
0
42
0.000000001
43
0.0000000001
44
0.0000000001
40
0
40
0
40
0
40
0
40
0.17853461619471667
40
0.32202427367866093
40
0.32202427367866093
40
0.32202427367866093
40
0.32202427367866093
10
116.60583559352432
20
69.467587332004541
30
0
10
117.03430463889143
20
69.035838920316635
30
0
10
117.80713758338692
20
68.257090957321765
30
0
10
118.08012432696343
20
67.200055146992113
30
0
10
118.20176352479774
20
66.729054297771
30
0
0
SPLINE
5
123
100
AcDbEntity
8
0
100
AcDbSpline
70
0
71
3
72
9
73
5
74
0
42
0.000000001
43
0.0000000001
44
0.0000000001
40
0
40
0
40
0
40
0
40
0.1295107517485343
40
0.26583387997738828
40
0.26583387997738828
40
0.26583387997738828
40
0.26583387997738828
10
118.20176352479774
20
66.729054297771
30
0
10
118.19483148428336
20
66.285756248165129
30
0
10
118.1806027719856
20
65.375842291816923
30
0
10
117.63174818058314
20
64.648085808199042
30
0
10
117.35028828973282
20
64.274882661767663
30
0
0
LINE
5
124
100
AcDbEntity
8
0
100
AcDbLine
10
117.35028828973282
20
64.274882661767663
30
0
11
115.7129376467075
21
65.699044604536653
31
0
0
SPLINE
5
125
100
AcDbEntity
8
0
100
AcDbSpline
70
0
71
3
72
9
73
5
74
0
42
0.000000001
43
0.0000000001
44
0.0000000001
40
0
40
0
40
0
40
0
40
0.074425672391398329
40
0.13543703555166761
40
0.13543703555166761
40
0.13543703555166761
40
0.13543703555166761
10
115.7129376467075
20
65.699044604536653
30
0
10
115.84750240365128
20
65.914350169105205
30
0
10
116.0923782802756
20
66.306155126534293
30
0
10
116.0975722516274
20
66.765936778031616
30
0
10
116.09991201985326
20
66.973058155132563
30
0
0
SPLINE
5
126
100
AcDbEntity
8
0
100
AcDbSpline
70
0
71
3
72
9
73
5
74
0
42
0.000000001
43
0.0000000001
44
0.0000000001
40
0
40
0
40
0
40
0
40
0.063352507631828217
40
0.14397226729838911
40
0.14397226729838911
40
0.14397226729838911
40
0.14397226729838911
10
116.09991201985326
20
66.973058155132563
30
0
10
116.03724035892353
20
67.177914928963659
30
0
10
115.89481535545167
20
67.643463891465643
30
0
10
115.5481226417637
20
67.988533845727304
30
0
10
115.35398606407304
20
68.181761731227425
30
0
0
SPLINE
5
127
100
AcDbEntity
8
0
100
AcDbSpline
70
0
71
3
72
9
73
5
74
0
42
0.000000001
43
0.0000000001
44
0.0000000001
40
0
40
0
40
0
40
0
40
0.084785741185804855
40
0.15484242953933128
40
0.15484242953933128
40
0.15484242953933128
40
0.15484242953933128
10
115.35398606407304
20
68.181761731227425
30
0
10
115.13949680802446
20
68.373045443130408
30
0
10
114.74777955637171
20
68.722382893839836
30
0
10
114.24257173700465
20
68.857982273881348
30
0
10
114.01399623053358
20
68.919332664318659
30
0
0
SPLINE
5
128
100
AcDbEntity
8
0
100
AcDbSpline
70
0
71
3
72
9
73
5
74
0
42
0.000000001
43
0.0000000001
44
0.0000000001
40
0
40
0
40
0
40
0
40
0.038912389339800665
40
0.07742291283091253
40
0.07742291283091253
40
0.07742291283091253
40
0.07742291283091253
10
114.01399623053358
20
68.919332664318659
30
0
10
113.87944994352871
20
68.923479841015123
30
0
10
113.61174688989367
20
68.931731364638111
30
0
10
113.40714073328662
20
68.759087719019675
30
0
10
113.30536866204397
20
68.673213952106508
30
0
0
SPLINE
5
129
100
AcDbEntity
8
0
100
AcDbSpline
70
0
71
3
72
9
73
5
74
0
42
0.000000001
43
0.0000000001
44
0.0000000001
40
0
40
0
40
0
40
0
40
0.036246096384398019
40
0.07465156819379147
40
0.07465156819379147
40
0.07465156819379147
40
0.07465156819379147
10
113.30536866204397
20
68.673213952106508
30
0
10
113.23105216518005
20
68.573330202496123
30
0
10
113.07799173696938
20
68.367612089670558
30
0
10
113.08594964130286
20
68.110786700391998
30
0
10
113.0900436888619
20
67.97865953298583
30
0
0
SPLINE
5
130
100
AcDbEntity
8
0
100
AcDbSpline
70
0
71
3
72
9
73
5
74
0
42
0.000000001
43
0.0000000001
44
0.0000000001
40
0
40
0
40
0
40
0
40
0.078611764833976985
40
0.21261895044918488
40
0.21261895044918488
40
0.21261895044918488
40
0.21261895044918488
10
113.0900436888619
20
67.97865953298583
30
0
10
113.17107758824079
20
67.728416390132239
30
0
10
113.3902476154388
20
67.051591051036951
30
0
10
113.78880671384806
20
66.459395606554864
30
0
10
114.04000625634569
20
66.08615303019215
30
0
0
SPLINE
5
131
100
AcDbEntity
8
0
100
AcDbSpline
70
0
71
3
72
9
73
5
74
0
42
0.000000001
43
0.0000000001
44
0.0000000001
40
0
40
0
40
0
40
0
40
0.14275282125182043
40
0.2468515412983445
40
0.2468515412983445
40
0.2468515412983445
40
0.2468515412983445
10
114.04000625634569
20
66.08615303019215
30
0
10
114.29962504209236
20
65.68591834917909
30
0
10
114.74856396217517
20
64.99382311055092
30
0
10
115.069162926514
20
64.234440319750462
30
0
10
115.20436136060268
20
63.914204212931331
30
0
0
SPLINE
5
132
100
AcDbEntity
8
0
100
AcDbSpline
70
0
71
3
72
9
73
5
74
0
42
0.000000001
43
0.0000000001
44
0.0000000001
40
0
40
0
40
0
40
0
40
0.082443224596089298
40
0.16269377900427087
40
0.16269377900427087
40
0.16269377900427087
40
0.16269377900427087
10
115.20436136060268
20
63.914204212931331
30
0
10
115.27792719988305
20
63.646148547963151
30
0
10
115.42310231229266
20
63.117166459612797
30
0
10
115.34933385653031
20
62.573806726997915
30
0
10
115.31294672784598
20
62.305788367277586
30
0
0
SPLINE
5
133
100
AcDbEntity
8
0
100
AcDbSpline
70
0
71
3
72
9
73
5
74
0
42
0.000000001
43
0.0000000001
44
0.0000000001
40
0
40
0
40
0
40
0
40
0.083770801981926657
40
0.17803980333827424
40
0.17803980333827424
40
0.17803980333827424
40
0.17803980333827424
10
115.31294672784598
20
62.305788367277586
30
0
10
115.22902180779732
20
62.036173720476107
30
0
10
115.05065445417134
20
61.463156182646998
30
0
10
114.65511067788691
20
61.010474396057369
30
0
10
114.44567707886068
20
60.770787207272235
30
0
0
SPLINE
5
134
100
AcDbEntity
8
0
100
AcDbSpline
70
0
71
3
72
9
73
5
74
0
42
0.000000001
43
0.0000000001
44
0.0000000001
40
0
40
0
40
0
40
0
40
0.090270067562256737
40
0.18219484872037711
40
0.18219484872037711
40
0.18219484872037711
40
0.18219484872037711
10
114.44567707886068
20
60.770787207272235
30
0
10
114.22030129130482
20
60.565678603681917
30
0
10
113.76541842007333
20
60.151701612066049
30
0
10
113.17921820182445
20
59.964957929080036
30
0
10
112.88345612536709
20
59.870738074283295
30
0
0
SPLINE
5
135
100
AcDbEntity
8
0
100
AcDbSpline
70
0
71
3
72
9
73
5
74
0
42
0.000000001
43
0.0000000001
44
0.0000000001
40
0
40
0
40
0
40
0
40
0.093601869738798665
40
0.19036860585493146
40
0.19036860585493146
40
0.19036860585493146
40
0.19036860585493146
10
112.88345612536709
20
59.870738074283295
30
0
10
112.57108531572511
20
59.819417682489508
30
0
10
111.9357818147666
20
59.71504165383778
30
0
10
111.32019302324804
20
59.904876243912128
30
0
10
111.00728156456812
20
60.001371533148181
30
0
0
SPLINE
5
136
100
AcDbEntity
8
0
100
AcDbSpline
70
0
71
3
72
9
73
5
74
0
42
0.000000001
43
0.0000000001
44
0.0000000001
40
0
40
0
40
0
40
0
40
0.10931032260980349
40
0.23804053200527253
40
0.23804053200527253
40
0.23804053200527253
40
0.23804053200527253
10
111.00728156456812
20
60.001371533148181
30
0
10
110.67632166410142
20
60.158422964082554
30
0
10
109.95560408776852
20
60.500427317187011
30
0
10
109.3636295717229
20
61.036564039085007
30
0
10
109.04349500150755
20
61.326502025246967
30
0
0
SPLINE
5
137
100
AcDbEntity
8
0
100
AcDbSpline
70
0
71
3
72
9
73
5
74
0
42
0.000000001
43
0.0000000001
44
0.0000000001
40
0
40
0
40
0
40
0
40
0.18152404705016684
40
0.33187529686656969
40
0.33187529686656969
40
0.33187529686656969
40
0.33187529686656969
10
109.04349500150755
20
61.326502025246967
30
0
10
108.61076643125097
20
61.768204161398614
30
0
10
107.81962098771167
20
62.575755722440064
30
0
10
107.54758006348032
20
63.668032753310307
30
0
10
107.42433590115317
20
64.16287288840816
30
0
0
LWPOLYLINE
5
138
100
AcDbEntity
8
0
100
AcDbPolyline
90
12
70
1
43
0.0
10
98.315626104102861
20
71.780706705474955
10
100.20068959106781
20
69.989884695294108
10
104.48935848096156
20
71.037544449018839
10
103.65752432350219
20
66.705870248455398
10
105.55320788645005
20
64.904959100189032
10
106.69648391097658
20
71.43605683616704
10
112.70959439352531
20
72.916480402579978
10
110.88825136245774
20
74.646767584247684
10
106.98296840177861
20
73.598575574590171
10
107.79780925143345
20
77.582706767135733
10
105.96053610639154
20
79.328127655931709
10
104.83505045553329
20
73.315556678510433
0
LWPOLYLINE
5
139
100
AcDbEntity
8
0
100
AcDbPolyline
90
10
70
1
43
0.0
10
110.38390227533979
20
83.17598686232455
42
-0.076904766290380219
10
128.12083651632213
20
66.325789268702778
10
126.64986604488999
20
65.189989096915923
42
0.57735026918713184
10
126.82331904277633
20
63.902583155718673
10
133.4991676438801
20
61.160981668266359
42
0.5773502691896244
10
134.52736738307942
20
61.954899332189086
10
133.56373961771445
20
69.107154556289913
42
0.57735026919210886
10
132.36208686864836
20
69.600642824382305
10
130.89111639721636
20
68.464842652595607
42
0.07690476629053794
10
112.37819128323125
20
86.052236390904568
42
0.99999999999999989
0
LINE
5
140
100
AcDbEntity
8
0
100
AcDbLine
10
58.01107875471012
20
45.039717318804982
30
0
11
29.910600109422351
21
28.815898408590762
31
0
0
ARC
5
141
100
AcDbEntity
8
0
100
AcDbCircle
10
24.910600109422354
20
37.476152446435144
30
0
40
10
210
0
220
0
230
1
100
AcDbArc
50
236.38779996124299
51
299.99999999999994
0
ARC
5
142
100
AcDbEntity
8
0
100
AcDbCircle
10
-2.2204460492503131e-15
20
5.5511151231257827e-16
30
0
40
35
210
0
220
-0
230
1
100
AcDbArc
50
56.38779996124299
51
93.612200038756981
0
ARC
5
143
100
AcDbEntity
8
0
100
AcDbCircle
10
-2.8351362950575898
20
44.910600109422354
30
0
40
10
210
0
220
0
230
1
100
AcDbArc
50
209.99999999999994
51
273.61220003875701
0
LINE
5
144
100
AcDbEntity
8
0
100
AcDbLine
10
-11.49539033290198
20
39.910600109422361
30
0
11
-12.086789648019074
21
40.934933770766605
31
0
0
SPLINE
5
145
100
AcDbEntity
8
0
100
AcDbSpline
70
0
71
3
72
14
73
10
74
0
42
0.000000001
43
0.0000000001
44
0.0000000001
40
0
40
0
40
0
40
0
40
1.1328689728220898
40
1.1328689728220898
40
2.2657379456441804
40
2.2657379456441804
40
3.1628245210037691
40
3.1628245210037691
40
4.0599110963633578
40
4.0599110963633578
40
4.0599110963633578
40
4.0599110963633578
10
-5.6122229867437241
20
77.650785331397742
30
0
10
-8.5050561979920225
20
75.223558860588199
30
0
10
-10.896141043784741
20
72.254503344578055
30
0
10
-14.405640012200928
20
65.566972686294335
30
0
10
-15.49050141186159
20
61.912433982099756
30
0
10
-16.12466212843745
20
55.175697924158229
30
0
10
-15.942761982521231
20
52.173056505733129
30
0
10
-14.667578919864674
20
46.330008377243821
30
0
10
-13.581933940285056
20
43.52459964961789
30
0
10
-12.086789648019076
20
40.934933770766605
30
0
0
SPLINE
5
146
100
AcDbEntity
8
0
100
AcDbSpline
70
0
71
3
72
17
73
13
74
0
42
0.000000001
43
0.0000000001
44
0.0000000001
40
0.18002482403083706
40
0.18002482403083706
40
0.18002482403083706
40
0.18002482403083706
40
0.2061675860050842
40
0.2061675860050842
40
0.2061675860050842
40
0.22974920906844074
40
0.22974920906844074
40
0.22974920906844074
40
0.25634356344416503
40
0.25634356344416503
40
0.25634356344416503
40
0.25980541430136866
40
0.25980541430136866
40
0.25980541430136866
40
0.25980541430136866
10
-5.6122229867437969
20
77.650785331397657
30
0
10
-1.6059192017043671
20
81.012267272126635
30
0
10
2.9513358635757516
20
84.233371044782899
30
0
10
7.6379012267839776
20
87.046289747991182
30
0
10
11.865335878326439
20
89.583634066555049
30
0
10
16.156108400145605
20
91.773275102478266
30
0
10
20.553576053141587
20
93.57954315807909
30
0
10
25.512853572138354
20
95.6165756659408
30
0
10
30.675496743136925
20
97.194224448663178
30
0
10
36.341277485380225
20
98.317360672068261
30
0
10
37.078805745782994
20
98.463562006487578
30
0
10
37.824880322875202
20
98.601819380258533
30
0
10
38.578878669144544
20
98.731952210094136
30
0
0
SPLINE
5
147
100
AcDbEntity
8
0
100
AcDbSpline
70
0
71
3
72
22
73
18
74
0
42
0.000000001
43
0.0000000001
44
0.0000000001
40
0
40
0
40
0
40
0
40
1.1328689728220858
40
1.1328689728220858
40
2.2657379456441751
40
2.2657379456441751
40
3.3986069184662631
40
3.3986069184662631
40
4.5314758912883537
40
4.5314758912883537
40
5.6643448641104444
40
5.6643448641104444
40
6.797213836932535
40
6.797213836932535
40
7.4538784536012299
40
7.4538784536012299
40
8.1105430702699213
40
8.1105430702699213
40
8.1105430702699213
40
8.1105430702699213
10
58.011078754710169
20
45.039717318804989
30
0
10
61.281389786787194
20
46.927832273508471
30
0
10
64.15164402685329
20
49.436660285611431
30
0
10
68.768922913946142
20
55.41331361281766
30
0
10
70.471803858200886
20
58.823998864585107
30
0
10
72.474348623845742
20
66.106132053176708
30
0
10
72.754867025805083
20
69.907958827648685
30
0
10
71.842816788614314
20
77.405145878779223
30
0
10
70.658967846837555
20
81.028828960946285
30
0
10
66.968892931073427
20
87.61844172884453
30
0
10
64.497946084526973
20
90.52137112489811
30
0
10
58.582397991464404
20
95.216681559093374
30
0
10
55.194352608940775
20
96.96417287034221
30
0
10
49.464001697825857
20
98.621169910202028
30
0
10
47.299168348129257
20
98.9891827750738
30
0
10
42.928093567747055
20
99.231099862021921
30
0
10
40.735870840263146
20
99.104228219119562
30
0
10
38.578878669144594
20
98.731952210094136
30
0
0
SPLINE
5
148
100
AcDbEntity
8
0
100
AcDbSpline
70
0
71
3
72
14
73
10
74
0
42
0.000000001
43
0.0000000001
44
0.0000000001
40
0.45173077036061599
40
0.45173077036061599
40
0.45173077036061599
40
0.45173077036061599
40
0.48643907479309495
40
0.48643907479309495
40
0.48643907479309495
40
0.52246105802603227
40
0.52246105802603227
40
0.52246105802603227
40
0.54901307704157276
40
0.54901307704157276
40
0.54901307704157276
40
0.54901307704157276
10
149.88729228145078
20
36.843957858276781
30
0
10
153.14271920238861
20
28.786636679948696
30
0
10
155.4504801686677
20
20.111793995325733
30
0
10
156.51376668066735
20
11.188223758723526
30
0
10
157.61729765209728
20
1.9269042360093847
30
0
10
157.35907667695503
20
-7.5929630951900258
30
0
10
155.78349306188807
20
-16.851585806159846
30
0
10
154.62212096759484
20
-23.676171912085362
30
0
10
152.76119682876794
20
-30.33746253138591
30
0
10
150.34384749295066
20
-36.596724482571588
30
0
0
SPLINE
5
149
100
AcDbEntity
8
0
100
AcDbSpline
70
0
71
3
72
16
73
12
74
0
42
0.000000001
43
0.0000000001
44
0.0000000001
40
0
40
0
40
0
40
0
40
1.1328689728220906
40
1.1328689728220906
40
2.2657379456441804
40
2.2657379456441804
40
3.3986069184662679
40
3.3986069184662679
40
4.2084098478441705
40
4.2084098478441705
40
5.0182127772220699
40
5.0182127772220699
40
5.0182127772220699
40
5.0182127772220699
10
108.79124616394847
20
-51.263649874437959
30
0
10
112.0615571960255
20
-53.151764829141442
30
0
10
115.66939310826575
20
-54.3830639103072
30
0
10
123.15396616278557
20
-55.393418059284052
30
0
10
126.95914670725648
20
-55.162813590745372
30
0
10
134.266931425141
20
-53.256001635713581
30
0
10
137.69966919360127
20
-51.598024310803375
30
0
10
142.8756360182939
20
-47.706698932094355
30
0
10
144.79623078252988
20
-45.791267649701979
30
0
10
148.05203452169525
20
-41.484812651292387
30
0
10
149.37135689404394
20
-39.114802161062826
30
0
10
150.34384749298033
20
-36.596724482494729
30
0
0
LINE
5
150
100
AcDbEntity
8
0
100
AcDbLine
10
108.79124616394847
20
-51.263649874437959
30
0
11
39.910600109422347
21
-11.495390332901998
31
0
0
ARC
5
151
100
AcDbEntity
8
0
100
AcDbCircle
10
44.910600109422354
20
-2.8351362950575991
30
0
40
10.000000000000002
210
0
220
0
230
1
100
AcDbArc
50
176.38779996124308
51
239.99999999999997
0
ARC
5
152
100
AcDbEntity
8
0
100
AcDbCircle
10
-2.2204460492503131e-15
20
5.5511151231257827e-16
30
0
40
35
210
-0
220
0
230
1
100
AcDbArc
50
-3.6122000387569431
51
3.6122000387569599
0
ARC
5
153
100
AcDbEntity
8
0
100
AcDbCircle
10
44.910600109422354
20
2.8351362950576005
30
0
40
10
210
0
220
0
230
1
100
AcDbArc
50
120.00000000000006
51
183.61220003875704
0
LINE
5
154
100
AcDbEntity
8
0
100
AcDbLine
10
39.910600109422347
20
11.495390332901982
30
0
11
108.49902755799766
21
51.094937383630054
31
0
0
SPLINE
5
155
100
AcDbEntity
8
0
100
AcDbSpline
70
0
71
3
72
16
73
12
74
0
42
0.000000001
43
0.0000000001
44
0.0000000001
40
0
40
0
40
0
40
0
40
1.1328689728220918
40
1.1328689728220918
40
2.265737945644184
40
2.265737945644184
40
3.3986069184662733
40
3.3986069184662733
40
4.1859426115781817
40
4.1859426115781817
40
4.9732783046900888
40
4.9732783046900888
40
4.9732783046900888
40
4.9732783046900888
10
149.88729228145161
20
36.843957858274948
30
0
10
148.47267004668464
20
40.345208529335608
30
0
10
146.38770025921468
20
43.536678156680885
30
0
10
141.11177897367719
20
48.940778812998403
30
0
10
137.97126815869865
20
51.101743694233825
30
0
10
131.03868605777541
20
54.098234096147031
30
0
10
127.31289403526472
20
54.905111535369073
30
0
10
120.91331453662669
20
55.02391860258161
30
0
10
118.2948038774873
20
54.716206476587246
30
0
10
113.21236103849061
20
53.404804743318365
30
0
10
110.77186992980145
20
52.407163538816562
30
0
10
108.49902755799766
20
51.094937383630054
30
0
0
SPLINE
5
156
100
AcDbEntity
8
0
100
AcDbSpline
70
0
71
3
72
14
73
10
74
0
42
0.000000001
43
0.0000000001
44
0.0000000001
40
0.74946635582110777
40
0.74946635582110777
40
0.74946635582110777
40
0.74946635582110777
40
0.78417819782860243
40
0.78417819782860243
40
0.78417819782860243
40
0.81195418093155902
40
0.81195418093155902
40
0.81195418093155902
40
0.82016741550427574
40
0.82016741550427574
40
0.82016741550427574
40
0.82016741550427574
10
33.835355094964122
20
-96.764475033633033
30
0
10
26.481010051785887
20
-94.924736307593207
30
0
10
19.535169542076034
20
-92.259276398493441
30
0
10
13.032106981899219
20
-89.042160575445536
30
0
10
7.8284374172030846
20
-86.467864612645897
30
0
10
2.9284394901871518
20
-83.551870806915417
30
0
10
-1.4039822352228315
20
-80.427173906493792
30
0
10
-2.6850600558288882
20
-79.503214941056783
30
0
10
-3.9143510998270807
20
-78.561653930591305
30
0
10
-5.097287465498443
20
-77.598342331299065
30
0
0
SPLINE
5
157
100
AcDbEntity
8
0
100
AcDbSpline
70
0
71
3
72
14
73
10
74
0
42
0.000000001
43
0.0000000001
44
0.0000000001
40
0
40
0
40
0
40
0
40
1.1328689728220884
40
1.1328689728220884
40
2.2657379456441795
40
2.2657379456441795
40
3.1842370228728329
40
3.1842370228728329
40
4.1027361001014846
40
4.1027361001014846
40
4.1027361001014846
40
4.1027361001014846
10
-11.89993536116112
20
-40.611292652316621
30
0
10
-13.788050315864599
20
-43.881603684393653
30
0
10
-15.019349397030361
20
-47.489439596633872
30
0
10
-16.029703546007216
20
-54.974012651153707
30
0
10
-15.799099077468535
20
-58.779193195624615
30
0
10
-14.072697694851923
20
-65.395561216355844
30
0
10
-12.835412996436261
20
-68.217021038076467
30
0
10
-9.5243426907286572
20
-73.367938354696506
30
0
10
-7.4713488884859958
20
-75.665050759101319
30
0
10
-5.0972874655300675
20
-77.598342331273301
30
0
0
LINE
5
158
100
AcDbEntity
8
0
100
AcDbLine
10
-11.89993536116112
20
-40.611292652316621
30
0
11
-11.495390332901978
21
-39.910600109422347
31
0
0
ARC
5
159
100
AcDbEntity
8
0
100
AcDbCircle
10
-2.8351362950575796
20
-44.910600109422354
30
0
40
10.000000000000002
210
0
220
-0
230
1
100
AcDbArc
50
86.387799961243033
51
150.00000000000003
0
ARC
5
160
100
AcDbEntity
8
0
100
AcDbCircle
10
-2.2204460492503131e-15
20
5.5511151231257827e-16
30
0
40
35
210
0
220
0
230
1
100
AcDbArc
50
266.38779996124305
51
303.61220003875695
0
ARC
5
161
100
AcDbEntity
8
0
100
AcDbCircle
10
24.91060010942234
20
-37.476152446435151
30
0
40
10.000000000000002
210
0
220
-0
230
1
100
AcDbArc
50
59.999999999999993
51
123.61220003875702
0
LINE
5
162
100
AcDbEntity
8
0
100
AcDbLine
10
29.91060010942234
20
-28.815898408590765
30
0
11
55.373037421324049
21
-43.516643444841201
31
0
0
SPLINE
5
163
100
AcDbEntity
8
0
100
AcDbSpline
70
0
71
3
72
22
73
18
74
0
42
0.000000001
43
0.0000000001
44
0.0000000001
40
0
40
0
40
0
40
0
40
1.13286897282209
40
1.13286897282209
40
2.2657379456441795
40
2.2657379456441795
40
3.3986069184662711
40
3.3986069184662711
40
4.5314758912883599
40
4.5314758912883599
40
5.6643448641104497
40
5.6643448641104497
40
6.7972138369325403
40
6.7972138369325403
40
7.5618994994617879
40
7.5618994994617879
40
8.3265851619910354
40
8.3265851619910354
40
8.3265851619910354
40
8.3265851619910354
10
33.835355094964129
20
-96.764475033633033
30
0
10
37.498701106220217
20
-97.68088560238148
30
0
10
41.306018894948338
20
-97.873001849909713
30
0
10
48.779993023728267
20
-96.787018407527967
30
0
10
52.3751940974783
20
-95.519301311233832
30
0
10
58.877298087755854
20
-91.677128356457359
30
0
10
61.722037346215821
20
-89.139405765568711
30
0
10
66.278646704372903
20
-83.116369946984022
30
0
10
67.94695313506206
20
-79.688640224521777
30
0
10
69.875761566769214
20
-72.3866304088221
30
0
10
70.117823107898289
20
-68.582161509325601
30
0
10
69.130011004085105
20
-61.094580019795146
30
0
10
67.909581381254526
20
-57.483052789848301
30
0
10
64.763499256716656
20
-51.99578606683599
30
0
10
63.209650425977784
20
-49.961273651380111
30
0
10
59.610319045949595
20
-46.351087636754016
30
0
10
57.580494786857592
20
-44.79111954905661
30
0
10
55.373037421324049
20
-43.516643444841201
30
0
0
LINE
5
164
100
AcDbEntity
8
0
100
AcDbLine
10
3.9532011979922728
20
-4.5135573872714279
30
0
11
-50.057776117368249
21
0.23487775409805622
31
0
0
SPLINE
5
165
100
AcDbEntity
8
0
100
AcDbSpline
70
4
71
5
72
12
73
6
74
0
42
0.000000001
43
0.0000000001
44
0.0000000001
40
0
40
0
40
0
40
0
40
0
40
0
40
0.00043300511787781074
40
0.00043300511787781074
40
0.00043300511787781074
40
0.00043300511787781074
40
0.00043300511787781074
40
0.00043300511787781074
41
1
41
1
41
1
41
1
41
1
41
1
10
-50.05589566101294
20
0.011544989562941588
30
0
10
-50.056148138141587
20
0.05623764924872262
30
0
10
-50.056462433411689
20
0.10091743534740161
30
0
10
-50.056838545459705
20
0.14558416585911346
30
0
10
-50.057276453406985
20
0.19023766318901028
30
0
10
-50.057776117368242
20
0.23487775409805561
30
0
0
SPLINE
5
166
100
AcDbEntity
8
0
100
AcDbSpline
70
4
71
5
72
129
73
123
74
0
42
0.000000001
43
0.0000000001
44
0.0000000001
40
0.017239896226566982
40
0.017239896226566982
40
0.017239896226566982
40
0.017239896226566982
40
0.017239896226566982
40
0.017239896226566982
40
0.025000000000000001
40
0.033333333333333333
40
0.041666666666666664
40
0.049999999999999996
40
0.058333333333333327
40
0.066666666666666666
40
0.074999999999999997
40
0.083333333333333329
40
0.09166666666666666
40
0.099999999999999992
40
0.10833333333333332
40
0.11666666666666665
40
0.12499999999999999
40
0.13333333333333333
40
0.14166666666666666
40
0.14999999999999999
40
0.15833333333333333
40
0.16666666666666666
40
0.17499999999999999
40
0.18333333333333332
40
0.19166666666666665
40
0.19999999999999998
40
0.20833333333333331
40
0.21666666666666665
40
0.22499999999999998
40
0.23333333333333331
40
0.24166666666666664
40
0.24999999999999997
40
0.2583333333333333
40
0.26666666666666666
40
0.27500000000000002
40
0.28333333333333338
40
0.29166666666666674
40
0.3000000000000001
40
0.30833333333333346
40
0.31666666666666682
40
0.32500000000000018
40
0.33333333333333354
40
0.3416666666666669
40
0.35000000000000026
40
0.35833333333333361
40
0.36666666666666697
40
0.37500000000000033
40
0.38333333333333369
40
0.39166666666666705
40
0.40000000000000041
40
0.40833333333333377
40
0.41666666666666713
40
0.42500000000000049
40
0.43333333333333385
40
0.44166666666666721
40
0.45000000000000057
40
0.45833333333333393
40
0.46666666666666728
40
0.47500000000000064
40
0.483333333333334
40
0.49166666666666736
40
0.50000000000000067
40
0.50833333333333397
40
0.51666666666666727
40
0.52500000000000058
40
0.53333333333333388
40
0.54166666666666718
40
0.55000000000000049
40
0.55833333333333379
40
0.5666666666666671
40
0.5750000000000004
40
0.5833333333333337
40
0.59166666666666701
40
0.60000000000000031
40
0.60833333333333361
40
0.61666666666666692
40
0.62500000000000022
40
0.63333333333333353
40
0.64166666666666683
40
0.65000000000000013
40
0.65833333333333344
40
0.66666666666666674
40
0.67500000000000004
40
0.68333333333333335
40
0.69166666666666665
40
0.69999999999999996
40
0.70833333333333326
40
0.71666666666666656
40
0.72499999999999987
40
0.73333333333333317
40
0.74166666666666647
40
0.74999999999999978
40
0.75833333333333308
40
0.76666666666666639
40
0.77499999999999969
40
0.78333333333333299
40
0.7916666666666663
40
0.7999999999999996
40
0.8083333333333329
40
0.81666666666666621
40
0.82499999999999951
40
0.83333333333333282
40
0.84166666666666612
40
0.84999999999999942
40
0.85833333333333273
40
0.86666666666666603
40
0.87499999999999933
40
0.88333333333333264
40
0.89166666666666594
40
0.89999999999999925
40
0.90833333333333255
40
0.91666666666666585
40
0.92499999999999916
40
0.93333333333333246
40
0.94166666666666576
40
0.94999999999999907
40
0.95833333333333237
40
0.96666666666666567
40
0.97499999999999898
40
0.98333333333333228
40
0.99166666666666559
40
1
40
1
40
1
40
1
40
1
40
1
41
1
41
1
41
1
41
1
41
1
41
1
41
1
41
1
41
1
41
1
41
1
41
1
41
1
41
1
41
1
41
1
41
1
41
1
41
1
41
1
41
1
41
1
41
1
41
1
41
1
41
1
41
1
41
1
41
1
41
1
41
1
41
1
41
1
41
1
41
1
41
1
41
1
41
1
41
1
41
1
41
1
41
1
41
1
41
1
41
1
41
1
41
1
41
1
41
1
41
1
41
1
41
1
41
1
41
1
41
1
41
1
41
1
41
1
41
1
41
1
41
1
41
1
41
1
41
1
41
1
41
1
41
1
41
1
41
1
41
1
41
1
41
1
41
1
41
1
41
1
41
1
41
1
41
1
41
1
41
1
41
1
41
1
41
1
41
1
41
1
41
1
41
1
41
1
41
1
41
1
41
1
41
1
41
1
41
1
41
1
41
1
41
1
41
1
41
1
41
1
41
1
41
1
41
1
41
1
41
1
41
1
41
1
41
1
41
1
41
1
41
1
41
1
41
1
41
1
41
1
41
1
41
1
41
1
41
1
41
1
41
1
41
1
41
1
10
-50.890706557632079
20
8.6401203745782258
30
0
10
-51.005862616822249
20
9.391032525718062
30
0
10
-51.244986889619014
20
10.937163460711215
30
0
10
-51.579868632854073
20
13.252190872250996
30
0
10
-51.848633841040943
20
16.313994222478591
30
0
10
-51.718356895507817
20
20.162653589109091
30
0
10
-51.152712901142543
20
24.166381548658077
30
0
10
-50.293234672544891
20
28.342909236590398
30
0
10
-49.289905382427825
20
32.716890505963235
30
0
10
-48.189689782938324
20
37.233317891946271
30
0
10
-46.962160125704948
20
41.788050637095736
30
0
10
-45.544537183103195
20
46.269921655654414
30
0
10
-43.87744790335006
20
50.595913489176979
30
0
10
-41.951465399356856
20
54.756539964037472
30
0
10
-39.792716945595643
20
58.797574791176608
30
0
10
-37.434295840626149
20
62.786853827413694
30
0
10
-34.894700931733851
20
66.788063638031232
30
0
10
-32.147833575014182
20
70.826912208226346
30
0
10
-29.13625562495476
20
74.89397834598077
30
0
10
-25.796796173496585
20
78.957235617311909
30
0
10
-22.080094193764946
20
82.970889391128338
30
0
10
-17.977163007403767
20
86.886784465455776
30
0
10
-13.527856795200911
20
90.661201161128702
30
0
10
-8.7974958132569387
20
94.254297578037111
30
0
10
-3.8598622799189322
20
97.631146370464393
30
0
10
1.2211755580333492
20
100.76206420328228
30
0
10
6.4122409439830177
20
103.62342112916423
30
0
10
11.721197003990866
20
106.19768766373134
30
0
10
17.179570991681345
20
108.4717691703309
30
0
10
22.83015861982307
20
110.43563645921354
30
0
10
28.712801870590106
20
112.08086156193079
30
0
10
34.850431616190384
20
113.39914886934159
30
0
10
41.236471309905305
20
114.38100149381164
30
0
10
47.841983513052391
20
115.0161195618189
30
0
10
54.621266472087896
20
115.29367761976992
30
0
10
61.518140596655456
20
115.20263219819856
30
0
10
68.471694497809821
20
114.732053204406
30
0
10
75.422842506149735
20
113.87135710570904
30
0
10
82.318600253181245
20
112.61087822484808
30
0
10
89.111622292145668
20
110.94319944174147
30
0
10
95.760705502327411
20
108.86429472657964
30
0
10
102.2309384095186
20
106.37481548246413
30
0
10
108.49394015015628
20
103.48116417886618
30
0
10
114.52822020933309
20
100.19703313827418
30
0
10
120.31898543715393
20
96.543546814346044
30
0
10
125.85642538333406
20
92.545776489127832
30
0
10
131.13430138758821
20
88.230006046155978
30
0
10
136.14839807687298
20
83.620575091095318
30
0
10
140.89507870252521
20
78.737191767612472
30
0
10
145.36969060187607
20
73.591338902048989
30
0
10
149.56539567990546
20
68.185481003588706
30
0
10
153.47271233227309
20
62.517269209974337
30
0
10
157.07893133219676
20
56.582586067340884
30
0
10
160.36751150380439
20
50.379150593069383
30
0
10
163.31764262303724
20
43.909664203054945
30
0
10
165.90334583030469
20
37.185691245548249
30
0
10
168.09410334982235
20
30.229394308755918
30
0
10
169.85823986868564
20
23.071502914329471
30
0
10
171.16569073790333
20
15.750122375656678
30
0
10
171.99101495676547
20
8.3092095187494408
30
0
10
172.31631060074233
20
0.7971937892479769
30
0
10
172.13416426453367
20
-6.7344612436605704
30
0
10
171.45062382315496
20
-14.232669727483032
30
0
10
170.2820703348186
20
-21.644470622760352
30
0
10
168.65201684387173
20
-28.918790755916177
30
0
10
166.58799369742491
20
-36.008167091505221
30
0
10
164.11827534835808
20
-42.870568992945579
30
0
10
161.26896723542598
20
-49.470990799162841
30
0
10
158.06021162664982
20
-55.783618915487338
30
0
10
154.5059291427867
20
-61.791703080757358
30
0
10
150.61624436552012
20
-67.485695221978531
30
0
10
146.39910235917748
20
-72.861897004327275
30
0
10
141.86227843495627
20
-77.920896860161889
30
0
10
137.0150773700492
20
-82.666109982755032
30
0
10
131.87052089857127
20
-87.10225081349536
30
0
10
126.44579576054475
20
-91.233936437565006
30
0
10
120.7613950684599
20
-95.06433686575896
30
0
10
114.84064741205744
20
-98.593863389211052
30
0
10
108.70906789126552
20
-101.81872910007294
30
0
10
102.39383387587696
20
-104.72982083378977
30
0
10
95.923089639267758
20
-107.31078523640838
30
0
10
89.325891889298674
20
-109.53953564653276
30
0
10
82.632550534178492
20
-111.39186980102426
30
0
10
75.874820077679914
20
-112.84438799265351
30
0
10
69.086221000682968
20
-113.87782795249839
30
0
10
62.3021494740224
20
-114.47992764092382
30
0
10
55.5604734677284
20
-114.64923668752128
30
0
10
48.900059790483084
20
-114.39503544851092
30
0
10
42.358007553219778
20
-113.73488128172254
30
0
10
35.96730843343942
20
-112.69287281610148
30
0
10
29.754249379121426
20
-111.29762804429831
30
0
10
23.736108344213832
20
-109.58037189237052
30
0
10
17.918225492945513
20
-107.57301871448175
30
0
10
12.298482531715699
20
-105.30588681687534
30
0
10
6.8723064795542914
20
-102.80549234089264
30
0
10
1.6378246118633302
20
-100.0920732205947
30
0
10
-3.3998163342052665
20
-97.177770769745351
30
0
10
-8.221827341955759
20
-94.063152191192628
30
0
10
-12.799717165454279
20
-90.74120125674979
30
0
10
-17.104618759019353
20
-87.205067337797303
30
0
10
-21.115452440907188
20
-83.455070189932087
30
0
10
-24.826441834769795
20
-79.505077306501221
30
0
10
-28.257823252530333
20
-75.391567273753537
30
0
10
-31.446038273917342
20
-71.165688981329453
30
0
10
-34.426742168774119
20
-66.879408031692137
30
0
10
-37.221101754039559
20
-62.574315617522373
30
0
10
-39.818671012662243
20
-58.267742353360639
30
0
10
-42.167676578393284
20
-53.944620967186808
30
0
10
-44.207105792072468
20
-49.581633859752372
30
0
10
-45.895298132979235
20
-45.168673529880351
30
0
10
-47.237573473984831
20
-40.729530368318478
30
0
10
-48.320339252400224
20
-36.347653927693621
30
0
10
-49.258138020437208
20
-32.123842659216677
30
0
10
-50.132859488887938
20
-28.12781607144515
30
0
10
-50.933228558734058
20
-24.349987908867242
30
0
10
-51.501711655245607
20
-20.65888710246557
30
0
10
-51.668717019728938
20
-16.886131762477913
30
0
10
-51.358728647471132
20
-12.895671593427007
30
0
10
-50.744914227578029
20
-8.6772284043773773
30
0
10
-50.278660430249559
20
-5.1938750632238717
30
0
10
-50.087111451845587
20
-2.5783684390623058
30
0
10
-50.051036651303448
20
-0.84858071181499994
30
0
10
-50.05589566101294
20
0.011544989562941588
30
0
0
LINE
5
167
100
AcDbEntity
8
0
100
AcDbLine
10
-50.890706557632079
20
8.6401203745782258
30
0
11
4.6801011434812168
21
3.7545510100124964
31
0
0
ARC
5
168
100
AcDbEntity
8
0
100
AcDbCircle
10
-2.2204460492503131e-15
20
5.5511151231257827e-16
30
0
40
6.0000000000000036
210
0
220
0
230
1
100
AcDbArc
50
-48.786489267389697
51
38.737881138387792
0
CIRCLE
5
169
100
AcDbEntity
8
0
100
AcDbCircle
10
-10.330629435422722
20
-14.740356015645537
30
0
40
3.2000000000000006
210
0
220
-0
230
1
0
CIRCLE
5
170
100
AcDbEntity
8
0
100
AcDbCircle
10
10.330629435422727
20
14.740356015645538
30
0
40
3.2000000000000006
210
0
220
-0
230
1
0
ENDSEC
0
SECTION
2
OBJECTS
0
DICTIONARY
5
C
100
AcDbDictionary
3
ACAD_GROUP
350
D
3
ACAD_MLINESTYLE
350
17
0
DICTIONARY
5
D
100
AcDbDictionary
0
DICTIONARY
5
1A
330
C
100
AcDbDictionary
0
DICTIONARY
5
17
100
AcDbDictionary
0
ENDSEC
0
EOF
