0
SECTION
2
HEADER
9
$INSUNITS
70
4
9
$ACADVER
1
AC1014
9
$HANDSEED
5
FFFF
0
ENDSEC
0
SECTION
2
TABLES
0
TABLE
2
VPORT
5
8
100
AcDbSymbolTable
0
ENDTAB
0
TABLE
2
LTYPE
5
5
100
AcDbSymbolTable
0
LTYPE
5
14
100
AcDbSymbolTableRecord
100
AcDbLinetypeTableRecord
2
BYBLOCK
70
0
0
LTYPE
5
15
100
AcDbSymbolTableRecord
100
AcDbLinetypeTableRecord
2
BYLAYER
70
0
0
ENDTAB
0
TABLE
2
LAYER
5
2
100
AcDbSymbolTable
70
2
0
LAYER
5
50
100
AcDbSymbolTableRecord
100
AcDbLayerTableRecord
2
0
70
0
6
CONTINUOUS
0
ENDTAB
0
TABLE
2
STYLE
5
3
100
AcDbSymbolTable
70
1
0
STYLE
5
11
100
AcDbSymbolTableRecord
100
AcDbTextStyleTableRecord
2
STANDARD
70
0
0
ENDTAB
0
TABLE
2
VIEW
5
6
100
AcDbSymbolTable
70
0
0
ENDTAB
0
TABLE
2
UCS
5
7
100
AcDbSymbolTable
70
0
0
ENDTAB
0
TABLE
2
APPID
5
9
100
AcDbSymbolTable
70
2
0
APPID
5
12
100
AcDbSymbolTableRecord
100
AcDbRegAppTableRecord
2
ACAD
70
0
0
ENDTAB
0
TABLE
2
DIMSTYLE
5
A
100
AcDbSymbolTable
70
1
0
ENDTAB
0
TABLE
2
BLOCK_RECORD
5
1
100
AcDbSymbolTable
70
1
0
BLOCK_RECORD
5
1F
100
AcDbSymbolTableRecord
100
AcDbBlockTableRecord
2
*MODEL_SPACE
0
BLOCK_RECORD
5
1B
100
AcDbSymbolTableRecord
100
AcDbBlockTableRecord
2
*PAPER_SPACE
0
ENDTAB
0
ENDSEC
0
SECTION
2
BLOCKS
0
BLOCK
5
20
100
AcDbEntity
100
AcDbBlockBegin
2
*MODEL_SPACE
0
ENDBLK
5
21
100
AcDbEntity
100
AcDbBlockEnd
0
BLOCK
5
1C
100
AcDbEntity
100
AcDbBlockBegin
2
*PAPER_SPACE
0
ENDBLK
5
1D
100
AcDbEntity
100
AcDbBlockEnd
0
ENDSEC
0
SECTION
2
ENTITIES
0
LINE
5
100
100
AcDbEntity
8
0
100
AcDbLine
10
105.92835488843009
20
87.928049237398582
30
0
11
98.502749257482961
21
80.111673313983275
31
0
0
LINE
5
101
100
AcDbEntity
8
0
100
AcDbLine
10
98.502749257482961
20
80.111673313983275
30
0
11
97.010628581885342
21
81.529197214999684
31
0
0
LINE
5
102
100
AcDbEntity
8
0
100
AcDbLine
10
97.010628581885342
20
81.529197214999684
30
0
11
102.35282719817134
21
87.152527447945857
31
0
0
SPLINE
5
103
100
AcDbEntity
8
0
100
AcDbSpline
70
0
71
3
72
9
73
5
74
0
42
0.000000001
43
0.0000000001
44
0.0000000001
40
0
40
0
40
0
40
0
40
0.15333287375923751
40
0.31011671084778569
40
0.31011671084778569
40
0.31011671084778569
40
0.31011671084778569
10
102.35282719817134
20
87.152527447945886
30
0
10
101.83905791348722
20
87.186009181977965
30
0
10
100.79995627275862
20
87.253726201668215
30
0
10
99.837415925396016
20
87.651545043323452
30
0
10
99.350790201166248
20
87.852667918289868
30
0
0
LINE
5
104
100
AcDbEntity
8
0
100
AcDbLine
10
99.350790201166248
20
87.852667918289868
30
0
11
100.6371553070708
21
89.206727606109766
31
0
0
SPLINE
5
105
100
AcDbEntity
8
0
100
AcDbSpline
70
0
71
3
72
9
73
5
74
0
42
0.000000001
43
0.0000000001
44
0.0000000001
40
0
40
0
40
0
40
0
40
0.092310084654538632
40
0.20231293332005096
40
0.20231293332005096
40
0.20231293332005096
40
0.20231293332005096
10
100.63715530707083
20
89.206727606109766
30
0
10
100.9249815817881
20
89.094470047635497
30
0
10
101.55580082697199
20
88.848438901339065
30
0
10
102.22887174699501
20
88.769057526470974
30
0
10
102.59483806136465
20
88.725895790722419
30
0
0
SPLINE
5
106
100
AcDbEntity
8
0
100
AcDbSpline
70
0
71
3
72
9
73
5
74
0
42
0.000000001
43
0.0000000001
44
0.0000000001
40
0
40
0
40
0
40
0
40
0.11270810935552886
40
0.21742062626120065
40
0.21742062626120065
40
0.21742062626120065
40
0.21742062626120065
10
102.59483806136465
20
88.725895790722419
30
0
10
102.97511123805036
20
88.708274831769117
30
0
10
103.70868074514354
20
88.674282957068584
30
0
10
104.38968566460662
20
88.946910239879955
30
0
10
104.71766622637935
20
89.078210979148551
30
0
0
LINE
5
107
100
AcDbEntity
8
0
100
AcDbLine
10
104.71766622637935
20
89.078210979148537
30
0
11
105.92835488843009
21
87.928049237398582
31
0
0
SPLINE
5
108
100
AcDbEntity
8
0
100
AcDbSpline
70
0
71
3
72
9
73
5
74
0
42
0.000000001
43
0.0000000001
44
0.0000000001
40
0
40
0
40
0
40
0
40
0.14480022262489772
40
0.30924058114529662
40
0.30924058114529662
40
0.30924058114529662
40
0.30924058114529662
10
105.14760142650019
20
74.834519532758478
30
0
10
105.16171310348264
20
75.326832352884551
30
0
10
105.19185051012388
20
76.378233378665087
30
0
10
105.77925189430239
20
77.254893349504044
30
0
10
106.09160577053672
20
77.721062050168555
30
0
0
LINE
5
109
100
AcDbEntity
8
0
100
AcDbLine
10
106.09160577053672
20
77.721062050168555
30
0
11
107.76214464527186
21
76.416907229613429
31
0
0
SPLINE
5
110
100
AcDbEntity
8
0
100
AcDbSpline
70
0
71
3
72
9
73
5
74
0
42
0.000000001
43
0.0000000001
44
0.0000000001
40
0
40
0
40
0
40
0
40
0.096511564593617177
40
0.17669446126250393
40
0.17669446126250393
40
0.17669446126250393
40
0.17669446126250393
10
107.76214464527186
20
76.416907229613429
30
0
10
107.59142638019938
20
76.136564622482837
30
0
10
107.27887345453014
20
75.623310214636021
30
0
10
107.25754099200557
20
75.025121560471021
30
0
10
107.24786044726139
20
74.753667103422941
30
0
0
SPLINE
5
111
100
AcDbEntity
8
0
100
AcDbSpline
70
0
71
3
72
9
73
5
74
0
42
0.000000001
43
0.0000000001
44
0.0000000001
40
0
40
0
40
0
40
0
40
0.077926006803855905
40
0.16751011178298997
40
0.16751011178298997
40
0.16751011178298997
40
0.16751011178298997
10
107.24786044726139
20
74.753667103422941
30
0
10
107.30827896039682
20
74.496163920723006
30
0
10
107.43815488121169
20
73.942633864613313
30
0
10
107.83278527844135
20
73.530782060617781
30
0
10
108.04383290151966
20
73.310524460331649
30
0
0
SPLINE
5
112
100
AcDbEntity
8
0
100
AcDbSpline
70
0
71
3
72
9
73
5
74
0
42
0.000000001
43
0.0000000001
44
0.0000000001
40
0
40
0
40
0
40
0
40
0.092493186084335932
40
0.16639671729636074
40
0.16639671729636074
40
0.16639671729636074
40
0.16639671729636074
10
108.04383290151966
20
73.310524460331649
30
0
10
108.27789858584342
20
73.10009979198702
30
0
10
108.69898648595843
20
72.721542456760233
30
0
10
109.24904099711586
20
72.599071464979488
30
0
10
109.49334251576444
20
72.544677130098989
30
0
0
SPLINE
5
113
100
AcDbEntity
8
0
100
AcDbSpline
70
0
71
3
72
9
73
5
74
0
42
0.000000001
43
0.0000000001
44
0.0000000001
40
0
40
0
40
0
40
0
40
0.062420571042646242
40
0.11955666607750227
40
0.11955666607750227
40
0.11955666607750227
40
0.11955666607750227
10
109.49334251576444
20
72.544677130098989
30
0
10
109.70833223830593
20
72.546246178434771
30
0
10
110.12011082409342
20
72.549251440719402
30
0
10
110.43949377349935
20
72.807093572478394
30
0
10
110.59212678969557
20
72.930316250288939
30
0
0
SPLINE
5
114
100
AcDbEntity
8
0
100
AcDbSpline
70
0
71
3
72
9
73
5
74
0
42
0.000000001
43
0.0000000001
44
0.0000000001
40
0
40
0
40
0
40
0
40
0.035687486032259422
40
0.069675382867680186
40
0.069675382867680186
40
0.069675382867680186
40
0.069675382867680186
10
110.59212678969557
20
72.930316250288939
30
0
10
110.66945301523606
20
73.023857796957415
30
0
10
110.82042286403338
20
73.206486045757813
30
0
10
110.85819137751801
20
73.440137813968732
30
0
10
110.87661499124084
20
73.55411396833658
30
0
0
SPLINE
5
115
100
AcDbEntity
8
0
100
AcDbSpline
70
0
71
3
72
9
73
5
74
0
42
0.000000001
43
0.0000000001
44
0.0000000001
40
0
40
0
40
0
40
0
40
0.039564554147590893
40
0.091557641375277499
40
0.091557641375277499
40
0.091557641375277499
40
0.091557641375277499
10
110.87661499124084
20
73.55411396833658
30
0
10
110.86694709676607
20
73.686778502089254
30
0
10
110.84457430287904
20
73.993781880902375
30
0
10
110.7086269008837
20
74.271078689654331
30
0
10
110.6314260793668
20
74.428547983847949
30
0
0
SPLINE
5
116
100
AcDbEntity
8
0
100
AcDbSpline
70
0
71
3
72
9
73
5
74
0
42
0.000000001
43
0.0000000001
44
0.0000000001
40
0
40
0
40
0
40
0
40
0.0650684290391325
40
0.17982531706304272
40
0.17982531706304272
40
0.17982531706304272
40
0.17982531706304272
10
110.6314260793668
20
74.428547983847949
30
0
10
110.52370297955332
20
74.616830977864893
30
0
10
110.22599576785275
20
75.137176245095986
30
0
10
109.90234175419729
20
75.641875577212318
30
0
10
109.69579949412983
20
75.963953278435625
30
0
0
SPLINE
5
117
100
AcDbEntity
8
0
100
AcDbSpline
70
0
71
3
72
9
73
5
74
0
42
0.000000001
43
0.0000000001
44
0.0000000001
40
0
40
0
40
0
40
0
40
0.15593760972028706
40
0.26838956407757908
40
0.26838956407757908
40
0.26838956407757908
40
0.26838956407757908
10
109.69579949412983
20
75.963953278435625
30
0
10
109.41600662699572
20
76.407982346773636
30
0
10
108.93444553485867
20
77.172215993183755
30
0
10
108.73660294757983
20
78.050714631324723
30
0
10
108.65370931618597
20
78.418794847478793
30
0
0
SPLINE
5
118
100
AcDbEntity
8
0
100
AcDbSpline
70
0
71
3
72
9
73
5
74
0
42
0.000000001
43
0.0000000001
44
0.0000000001
40
0
40
0
40
0
40
0
40
0.12315717930166074
40
0.24346095596176495
40
0.24346095596176495
40
0.24346095596176495
40
0.24346095596176495
10
108.65370931618597
20
78.418794847478793
30
0
10
108.6574871057008
20
78.841470383521468
30
0
10
108.66495515792414
20
79.677028575501041
30
0
10
109.17364038090673
20
80.339111348829576
30
0
10
109.4250020549552
20
80.666272875729732
30
0
0
SPLINE
5
119
100
AcDbEntity
8
0
100
AcDbSpline
70
0
71
3
72
9
73
5
74
0
42
0.000000001
43
0.0000000001
44
0.0000000001
40
0
40
0
40
0
40
0
40
0.080223289195625533
40
0.16209221990744094
40
0.16209221990744094
40
0.16209221990744094
40
0.16209221990744094
10
109.4250020549552
20
80.666272875729732
30
0
10
109.62571118829742
20
80.848282979565766
30
0
10
110.03124665443623
20
81.216036808562038
30
0
10
110.5546620143062
20
81.377064458845666
30
0
10
110.81902668187115
20
81.458395700723187
30
0
0
SPLINE
5
120
100
AcDbEntity
8
0
100
AcDbSpline
70
0
71
3
72
9
73
5
74
0
42
0.000000001
43
0.0000000001
44
0.0000000001
40
0
40
0
40
0
40
0
40
0.084723090342054594
40
0.17458185427502421
40
0.17458185427502421
40
0.17458185427502421
40
0.17458185427502421
10
110.81902668187115
20
81.458395700723187
30
0
10
111.10211417346986
20
81.500564502009468
30
0
10
111.68544911800309
20
81.587458257789478
30
0
10
112.24953984600296
20
81.413379845627361
30
0
10
112.53988213715694
20
81.323780207627991
30
0
0
SPLINE
5
121
100
AcDbEntity
8
0
100
AcDbSpline
70
0
71
3
72
9
73
5
74
0
42
0.000000001
43
0.0000000001
44
0.0000000001
40
0
40
0
40
0
40
0
40
0.10056895973844411
40
0.21566400192985197
40
0.21566400192985197
40
0.21566400192985197
40
0.21566400192985197
10
112.53988213715694
20
81.323780207627991
30
0
10
112.84619314873977
20
81.182873699705993
30
0
10
113.50305843565275
20
80.880708285293338
30
0
10
114.04166100448376
20
80.397246624498294
30
0
10
114.32910111887136
20
80.139233976354831
30
0
0
SPLINE
5
122
100
AcDbEntity
8
0
100
AcDbSpline
70
0
71
3
72
9
73
5
74
0
42
0.000000001
43
0.0000000001
44
0.0000000001
40
0
40
0
40
0
40
0
40
0.17853461619471667
40
0.32202427367866093
40
0.32202427367866093
40
0.32202427367866093
40
0.32202427367866093
10
114.32910111887136
20
80.139233976354831
30
0
10
114.75757016423847
20
79.707485564666939
30
0
10
115.53040310873396
20
78.928737601672054
30
0
10
115.80338985231045
20
77.871701791342417
30
0
10
115.92502905014476
20
77.400700942121304
30
0
0
SPLINE
5
123
100
AcDbEntity
8
0
100
AcDbSpline
70
0
71
3
72
9
73
5
74
0
42
0.000000001
43
0.0000000001
44
0.0000000001
40
0
40
0
40
0
40
0
40
0.1295107517485343
40
0.26583387997738828
40
0.26583387997738828
40
0.26583387997738828
40
0.26583387997738828
10
115.92502905014476
20
77.400700942121304
30
0
10
115.91809700963039
20
76.957402892515432
30
0
10
115.90386829733262
20
76.047488936167241
30
0
10
115.35501370593016
20
75.319732452549331
30
0
10
115.07355381507983
20
74.946529306117981
30
0
0
LINE
5
124
100
AcDbEntity
8
0
100
AcDbLine
10
115.07355381507983
20
74.946529306117981
30
0
11
113.43620317205452
21
76.370691248886956
31
0
0
SPLINE
5
125
100
AcDbEntity
8
0
100
AcDbSpline
70
0
71
3
72
9
73
5
74
0
42
0.000000001
43
0.0000000001
44
0.0000000001
40
0
40
0
40
0
40
0
40
0.074425672391398329
40
0.13543703555166761
40
0.13543703555166761
40
0.13543703555166761
40
0.13543703555166761
10
113.43620317205452
20
76.370691248886956
30
0
10
113.57076792899831
20
76.585996813455509
30
0
10
113.8156438056226
20
76.977801770884597
30
0
10
113.82083777697443
20
77.43758342238192
30
0
10
113.82317754520029
20
77.644704799482867
30
0
0
SPLINE
5
126
100
AcDbEntity
8
0
100
AcDbSpline
70
0
71
3
72
9
73
5
74
0
42
0.000000001
43
0.0000000001
44
0.0000000001
40
0
40
0
40
0
40
0
40
0.063352507631828217
40
0.14397226729838911
40
0.14397226729838911
40
0.14397226729838911
40
0.14397226729838911
10
113.82317754520029
20
77.644704799482867
30
0
10
113.76050588427051
20
77.849561573313963
30
0
10
113.6180808807987
20
78.315110535815947
30
0
10
113.27138816711071
20
78.660180490077607
30
0
10
113.07725158942006
20
78.853408375577743
30
0
0
SPLINE
5
127
100
AcDbEntity
8
0
100
AcDbSpline
70
0
71
3
72
9
73
5
74
0
42
0.000000001
43
0.0000000001
44
0.0000000001
40
0
40
0
40
0
40
0
40
0.084785741185804855
40
0.15484242953933128
40
0.15484242953933128
40
0.15484242953933128
40
0.15484242953933128
10
113.07725158942006
20
78.853408375577743
30
0
10
112.86276233337148
20
79.044692087480712
30
0
10
112.47104508171873
20
79.394029538190139
30
0
10
111.96583726235167
20
79.529628918231651
30
0
10
111.7372617558806
20
79.590979308668963
30
0
0
SPLINE
5
128
100
AcDbEntity
8
0
100
AcDbSpline
70
0
71
3
72
9
73
5
74
0
42
0.000000001
43
0.0000000001
44
0.0000000001
40
0
40
0
40
0
40
0
40
0.038912389339800665
40
0.07742291283091253
40
0.07742291283091253
40
0.07742291283091253
40
0.07742291283091253
10
111.7372617558806
20
79.590979308668963
30
0
10
111.60271546887573
20
79.595126485365427
30
0
10
111.3350124152407
20
79.603378008988429
30
0
10
111.13040625863364
20
79.430734363369993
30
0
10
111.02863418739099
20
79.344860596456812
30
0
0
SPLINE
5
129
100
AcDbEntity
8
0
100
AcDbSpline
70
0
71
3
72
9
73
5
74
0
42
0.000000001
43
0.0000000001
44
0.0000000001
40
0
40
0
40
0
40
0
40
0.036246096384398019
40
0.07465156819379147
40
0.07465156819379147
40
0.07465156819379147
40
0.07465156819379147
10
111.02863418739099
20
79.344860596456812
30
0
10
110.95431769052708
20
79.244976846846427
30
0
10
110.80125726231643
20
79.039258734020862
30
0
10
110.80921516664989
20
78.782433344742316
30
0
10
110.81330921420891
20
78.650306177336148
30
0
0
SPLINE
5
130
100
AcDbEntity
8
0
100
AcDbSpline
70
0
71
3
72
9
73
5
74
0
42
0.000000001
43
0.0000000001
44
0.0000000001
40
0
40
0
40
0
40
0
40
0.078611764833976985
40
0.21261895044918488
40
0.21261895044918488
40
0.21261895044918488
40
0.21261895044918488
10
110.81330921420891
20
78.650306177336148
30
0
10
110.89434311358781
20
78.400063034482557
30
0
10
111.11351314078581
20
77.723237695387269
30
0
10
111.51207223919508
20
77.131042250905182
30
0
10
111.76327178169271
20
76.757799674542454
30
0
0
SPLINE
5
131
100
AcDbEntity
8
0
100
AcDbSpline
70
0
71
3
72
9
73
5
74
0
42
0.000000001
43
0.0000000001
44
0.0000000001
40
0
40
0
40
0
40
0
40
0.14275282125182043
40
0.2468515412983445
40
0.2468515412983445
40
0.2468515412983445
40
0.2468515412983445
10
111.76327178169271
20
76.757799674542454
30
0
10
112.02289056743936
20
76.357564993529394
30
0
10
112.47182948752219
20
75.665469754901238
30
0
10
112.79242845186101
20
74.90608696410078
30
0
10
112.92762688594969
20
74.585850857281642
30
0
0
SPLINE
5
132
100
AcDbEntity
8
0
100
AcDbSpline
70
0
71
3
72
9
73
5
74
0
42
0.000000001
43
0.0000000001
44
0.0000000001
40
0
40
0
40
0
40
0
40
0.082443224596089298
40
0.16269377900427087
40
0.16269377900427087
40
0.16269377900427087
40
0.16269377900427087
10
112.92762688594969
20
74.585850857281642
30
0
10
113.00119272523007
20
74.317795192313469
30
0
10
113.14636783763966
20
73.788813103963108
30
0
10
113.0725993818773
20
73.245453371348219
30
0
10
113.03621225319301
20
72.977435011627904
30
0
0
SPLINE
5
133
100
AcDbEntity
8
0
100
AcDbSpline
70
0
71
3
72
9
73
5
74
0
42
0.000000001
43
0.0000000001
44
0.0000000001
40
0
40
0
40
0
40
0
40
0.083770801981926657
40
0.17803980333827424
40
0.17803980333827424
40
0.17803980333827424
40
0.17803980333827424
10
113.03621225319301
20
72.977435011627904
30
0
10
112.95228733314434
20
72.707820364826418
30
0
10
112.77391997951835
20
72.134802826997301
30
0
10
112.37837620323391
20
71.682121040407679
30
0
10
112.16894260420771
20
71.442433851622539
30
0
0
SPLINE
5
134
100
AcDbEntity
8
0
100
AcDbSpline
70
0
71
3
72
9
73
5
74
0
42
0.000000001
43
0.0000000001
44
0.0000000001
40
0
40
0
40
0
40
0
40
0.090270067562256737
40
0.18219484872037711
40
0.18219484872037711
40
0.18219484872037711
40
0.18219484872037711
10
112.16894260420771
20
71.442433851622539
30
0
10
111.94356681665182
20
71.237325248032235
30
0
10
111.48868394542033
20
70.823348256416352
30
0
10
110.90248372717144
20
70.636604573430347
30
0
10
110.60672165071409
20
70.542384718633599
30
0
0
SPLINE
5
135
100
AcDbEntity
8
0
100
AcDbSpline
70
0
71
3
72
9
73
5
74
0
42
0.000000001
43
0.0000000001
44
0.0000000001
40
0
40
0
40
0
40
0
40
0.093601869738798665
40
0.19036860585493146
40
0.19036860585493146
40
0.19036860585493146
40
0.19036860585493146
10
110.60672165071409
20
70.542384718633599
30
0
10
110.29435084107212
20
70.491064326839819
30
0
10
109.6590473401136
20
70.386688298188091
30
0
10
109.04345854859503
20
70.576522888262446
30
0
10
108.73054708991512
20
70.673018177498491
30
0
0
SPLINE
5
136
100
AcDbEntity
8
0
100
AcDbSpline
70
0
71
3
72
9
73
5
74
0
42
0.000000001
43
0.0000000001
44
0.0000000001
40
0
40
0
40
0
40
0
40
0.10931032260980349
40
0.23804053200527253
40
0.23804053200527253
40
0.23804053200527253
40
0.23804053200527253
10
108.73054708991512
20
70.673018177498491
30
0
10
108.39958718944843
20
70.830069608432865
30
0
10
107.67886961311554
20
71.172073961537336
30
0
10
107.08689509706988
20
71.708210683435325
30
0
10
106.76676052685457
20
71.998148669597285
30
0
0
SPLINE
5
137
100
AcDbEntity
8
0
100
AcDbSpline
70
0
71
3
72
9
73
5
74
0
42
0.000000001
43
0.0000000001
44
0.0000000001
40
0
40
0
40
0
40
0
40
0.18152404705016684
40
0.33187529686656969
40
0.33187529686656969
40
0.33187529686656969
40
0.33187529686656969
10
106.76676052685457
20
71.998148669597285
30
0
10
106.33403195659797
20
72.439850805748932
30
0
10
105.54288651305869
20
73.247402366790368
30
0
10
105.27084558882734
20
74.339679397660632
30
0
10
105.14760142650019
20
74.834519532758478
30
0
0
ARC
5
138
100
AcDbEntity
8
0
100
AcDbCircle
10
116.3578242009545
20
88.394876958550384
30
0
40
1.7499999998323978
210
0
220
-0
230
1
100
AcDbArc
50
55.263938639166433
51
235.26393863916627
0
ARC
5
139
100
AcDbEntity
8
0
100
AcDbCircle
10
69.776930940298044
20
21.213905820692418
30
0
40
83.499999999745796
210
0
220
-0
230
1
100
AcDbArc
50
37.673289027235285
51
55.263938638740242
0
LINE
5
140
100
AcDbEntity
8
0
100
AcDbLine
10
135.86789381888491
20
72.245607984531688
30
0
11
137.33886429031691
21
73.381408156318429
31
0
0
ARC
5
141
100
AcDbEntity
8
0
100
AcDbCircle
10
137.79723287263866
20
72.787776753202323
30
0
40
0.75000000001681177
210
0
220
-0
230
1
100
AcDbArc
50
7.6732890268222329
51
127.67328902724844
0
LINE
5
142
100
AcDbEntity
8
0
100
AcDbLine
10
138.54051703938302
20
72.887919888226037
30
0
11
139.50414480474797
21
65.735664664125196
31
0
0
ARC
5
143
100
AcDbEntity
8
0
100
AcDbCircle
10
138.76086064665824
20
65.635521530267539
30
0
40
0.74999999128399653
210
0
220
0
230
1
100
AcDbArc
50
-112.32671097318027
51
7.6732890268212799
0
LINE
5
144
100
AcDbEntity
8
0
100
AcDbLine
10
138.47594506554867
20
64.941747000202469
30
0
11
131.80009646444492
21
67.683348487654783
31
0
0
ARC
5
145
100
AcDbEntity
8
0
100
AcDbCircle
10
132.08501204885823
20
68.377123025764561
30
0
40
0.74999999998067746
210
0
220
0
230
1
100
AcDbArc
50
127.6732890272494
51
247.67328902682095
0
LINE
5
146
100
AcDbEntity
8
0
100
AcDbLine
10
131.62664346655856
20
68.970754428852047
30
0
11
133.09761393799067
21
70.10655460063893
31
0
0
ARC
5
147
100
AcDbEntity
8
0
100
AcDbCircle
10
69.776930940298044
20
21.213905820692418
30
0
40
80.00000000008427
210
0
220
-0
230
1
100
AcDbArc
50
37.673289027253283
51
55.263938638721605
0
ARC
5
148
100
AcDbEntity
8
0
100
AcDbCircle
10
-2.2204460492503131e-15
20
5.5511151231257827e-16
30
0
40
35.000000000000007
210
0
220
-0
230
1
100
AcDbArc
50
56.38779996124299
51
93.612200038756953
0
ARC
5
149
100
AcDbEntity
8
0
100
AcDbCircle
10
-2.835136295057588
20
44.910600109422354
30
0
40
10
210
0
220
0
230
1
100
AcDbArc
50
209.99999999999994
51
273.61220003875712
0
LINE
5
150
100
AcDbEntity
8
0
100
AcDbLine
10
-11.495390332901978
20
39.910600109422361
30
0
11
-12.702989941116883
21
42.002223986050836
31
0
0
SPLINE
5
151
100
AcDbEntity
8
0
100
AcDbSpline
70
0
71
3
72
14
73
10
74
0
42
0.000000001
43
0.0000000001
44
0.0000000001
40
0
40
0
40
0
40
0
40
1.1328689728220878
40
1.1328689728220878
40
2.2657379456441795
40
2.2657379456441795
40
3.0505639456546314
40
3.0505639456546314
40
3.835389945665086
40
3.835389945665086
40
3.835389945665086
40
3.835389945665086
10
-7.8825035211096095
20
77.218000707606066
30
0
10
-10.580004750507307
20
74.57538846853322
30
0
10
-12.735555464650961
20
71.431159069191523
30
0
10
-15.720096890180884
20
64.493424439350548
30
0
10
-16.520553758838311
20
60.766247733270049
30
0
10
-16.62819359204261
20
54.374837491742838
30
0
10
-16.318098711542358
20
51.765148080705082
30
0
10
-15.006513201390032
20
46.70003394178066
30
0
10
-14.011033274467639
20
44.267821497916088
30
0
10
-12.702989941116885
20
42.002223986050822
30
0
0
SPLINE
5
152
100
AcDbEntity
8
0
100
AcDbSpline
70
0
71
3
72
17
73
13
74
0
42
0.000000001
43
0.0000000001
44
0.0000000001
40
-0.079655284335842319
40
-0.079655284335842319
40
-0.079655284335842319
40
-0.079655284335842319
40
-0.070573029473550222
40
-0.070573029473550222
40
-0.070573029473550222
40
-0.050711030795393477
40
-0.050711030795393477
40
-0.050711030795393477
40
-0.028048637253176537
40
-0.028048637253176537
40
-0.028048637253176537
40
0
40
0
40
0
40
0
10
-7.8825035211095269
20
77.218000707606066
30
0
10
-6.6228056414123762
20
78.452066144960881
30
0
10
-5.3781601057853052
20
79.594301432132326
30
0
10
-4.1441255158918899
20
80.6509465016712
30
0
10
-1.445413162528465
20
82.961725409847048
30
0
10
1.2436135113470521
20
84.916499170180913
30
0
10
4.2923512601571812
20
86.861175176099124
30
0
10
7.7709384753769335
20
89.080036111111269
30
0
10
11.73256224740082
20
91.303168068288798
30
0
10
16.063153236506391
20
93.417353537774972
30
0
10
21.423009666455876
20
96.03402424420706
30
0
10
27.305656851097059
20
98.422072198438286
30
0
10
33.499509763441694
20
100.14237185727686
30
0
0
SPLINE
5
153
100
AcDbEntity
8
0
100
AcDbSpline
70
0
71
3
72
8
73
4
74
0
42
0.000000001
43
0.0000000001
44
0.0000000001
40
-1
40
-1
40
-1
40
-1
40
-0.98106303294150543
40
-0.98106303294150543
40
-0.98106303294150543
40
-0.98106303294150543
10
33.49950976344229
20
100.14237185727701
30
0
10
37.681274014855283
20
101.30382785516041
30
0
10
42.040773133823038
20
102.16510743892088
30
0
10
46.496665202877253
20
102.71737077745877
30
0
0
SPLINE
5
154
100
AcDbEntity
8
0
100
AcDbSpline
70
0
71
3
72
22
73
18
74
0
42
0.000000001
43
0.0000000001
44
0.0000000001
40
0
40
0
40
0
40
0
40
1.1328689728221017
40
1.1328689728221017
40
2.2657379456441937
40
2.2657379456441937
40
3.3986069184662844
40
3.3986069184662844
40
4.5314758912883741
40
4.5314758912883741
40
5.6643448641104648
40
5.6643448641104648
40
6.7972138369325563
40
6.7972138369325563
40
7.384667070676679
40
7.384667070676679
40
7.9721203044208124
40
7.9721203044208124
40
7.9721203044208124
40
7.9721203044208124
10
64.563633773457326
20
48.822836722758268
30
0
10
67.833944805534401
20
50.710951677461779
30
0
10
70.704199045600546
20
53.219779689564731
30
0
10
75.32147793269344
20
59.19643301677101
30
0
10
77.02435887694817
20
62.607118268538464
30
0
10
79.026903642593012
20
69.889251457130086
30
0
10
79.307422044552325
20
73.691078231602077
30
0
10
78.395371807361542
20
81.188265282732601
30
0
10
77.211522865584769
20
84.811948364899678
30
0
10
73.521447949820612
20
91.40156113279788
30
0
10
71.050501103274158
20
94.304490528851488
30
0
10
65.134953010211575
20
98.999800963046724
30
0
10
61.746907627687946
20
100.74729227429556
30
0
10
56.238181788899382
20
102.34020386904042
30
0
10
54.306803757407422
20
102.69222466316182
30
0
10
50.402690190262227
20
103.00163198694011
30
0
10
48.439973825512027
20
102.95822448107465
30
0
10
46.496665202892054
20
102.7173707774606
30
0
0
LINE
5
155
100
AcDbEntity
8
0
100
AcDbLine
10
64.563633773457326
20
48.822836722758268
30
0
11
29.910600109422351
21
28.815898408590755
31
0
0
ARC
5
156
100
AcDbEntity
8
0
100
AcDbCircle
10
24.910600109422354
20
37.476152446435172
30
0
40
10.000000000000014
210
0
220
0
230
1
100
AcDbArc
50
236.38779996124308
51
299.99999999999983
0
ARC
5
157
100
AcDbEntity
8
0
100
AcDbCircle
10
-2.2204460492503131e-15
20
5.5511151231257827e-16
30
0
40
35.000000000000007
210
-0
220
0
230
1
100
AcDbArc
50
-3.6122000387568414
51
3.6122000387570607
0
ARC
5
158
100
AcDbEntity
8
0
100
AcDbCircle
10
44.910600109422347
20
2.8351362950576031
30
0
40
9.9999999999999876
210
0
220
0
230
1
100
AcDbArc
50
120.00000000000004
51
183.61220003875692
0
LINE
5
159
100
AcDbEntity
8
0
100
AcDbLine
10
39.910600109422347
20
11.495390332901977
30
0
11
113.68396428548027
21
54.088461998973258
31
0
0
SPLINE
5
160
100
AcDbEntity
8
0
100
AcDbSpline
70
0
71
3
72
16
73
12
74
0
42
0.000000001
43
0.0000000001
44
0.0000000001
40
0
40
0
40
0
40
0
40
1.1328689728220909
40
1.1328689728220909
40
2.2657379456441786
40
2.2657379456441786
40
3.3986069184662666
40
3.3986069184662666
40
4.1670972599514569
40
4.1670972599514569
40
4.9355876014366453
40
4.9355876014366453
40
4.9355876014366453
40
4.9355876014366453
10
154.92941681803765
20
40.184468744888747
30
0
10
153.46961182686636
20
43.667123151580739
30
0
10
151.34352351872042
20
46.831349107939587
30
0
10
145.99812253975171
20
52.166734538144162
30
0
10
142.8299148157565
20
54.286884819267399
30
0
10
135.85914272411247
20
57.193426709754377
30
0
10
132.12322273702409
20
57.952030194457336
30
0
10
125.78545857862308
20
57.987672651490684
30
0
10
123.23321092725183
20
57.662608368775885
30
0
10
118.28080415529797
20
56.350529167729881
30
0
10
115.90240481311078
20
55.369279234781899
30
0
10
113.68396428548027
20
54.088461998973258
30
0
0
SPLINE
5
161
100
AcDbEntity
8
0
100
AcDbSpline
70
0
71
3
72
17
73
13
74
0
42
0.000000001
43
0.0000000001
44
0.0000000001
40
-0.80149225965798421
40
-0.80149225965798421
40
-0.80149225965798421
40
-0.80149225965798421
40
-0.77174733914932636
40
-0.77174733914932636
40
-0.77174733914932636
40
-0.73995026206766235
40
-0.73995026206766235
40
-0.73995026206766235
40
-0.70921379851369737
40
-0.70921379851369737
40
-0.70921379851369737
40
-0.6937892422418197
40
-0.6937892422418197
40
-0.6937892422418197
40
-0.6937892422418197
10
154.92941681803762
20
40.184468744888839
30
0
10
157.90886324436508
20
33.076408223855672
30
0
10
160.15717371096395
20
25.57340479828083
30
0
10
161.57460101807129
20
18.005846348606941
30
0
10
163.08981923250994
20
9.9161881740544366
30
0
10
163.63542351113367
20
1.8132288341153424
30
0
10
163.13989610596477
20
-6.150712161389686
30
0
10
162.66089736058174
20
-13.849010389418444
30
0
10
161.21051895182731
20
-21.482390090339685
30
0
10
158.79730387332694
20
-29.116298087934986
30
0
10
157.58627412329989
20
-32.947241204618166
30
0
10
156.128952534593
20
-36.783237633594183
30
0
10
154.45981441475479
20
-40.558259148081135
30
0
0
SPLINE
5
162
100
AcDbEntity
8
0
100
AcDbSpline
70
0
71
3
72
16
73
12
74
0
42
0.000000001
43
0.0000000001
44
0.0000000001
40
0
40
0
40
0
40
0
40
1.132868972822092
40
1.132868972822092
40
2.2657379456441826
40
2.2657379456441826
40
3.3986069184662719
40
3.3986069184662719
40
4.1388606733785904
40
4.1388606733785904
40
4.8791144282909089
40
4.8791144282909089
40
4.8791144282909089
40
4.8791144282909089
10
113.43677471338958
20
-53.945747032985878
30
0
10
116.70708574546664
20
-55.83386198768936
30
0
10
120.31492165770686
20
-57.065161068855105
30
0
10
127.7994947122267
20
-58.075515217831949
30
0
10
131.60467525669762
20
-57.84491074929327
30
0
10
138.91245997458216
20
-55.938098794261457
30
0
10
142.34519774304238
20
-54.280121469351243
30
0
10
147.33586090461469
20
-50.52810858461492
30
0
10
149.11087130256331
20
-48.799642015238582
30
0
10
152.1801880109735
20
-44.935218770130575
30
0
10
153.46198223344598
20
-42.815015438958426
30
0
10
154.45981441475433
20
-40.558259148082129
30
0
0
LINE
5
163
100
AcDbEntity
8
0
100
AcDbLine
10
113.43677471338958
20
-53.945747032985878
30
0
11
39.910600109422354
21
-11.495390332901989
31
0
0
ARC
5
164
100
AcDbEntity
8
0
100
AcDbCircle
10
44.910600109422361
20
-2.8351362950575965
30
0
40
10.000000000000007
210
0
220
0
230
1
100
AcDbArc
50
176.38779996124296
51
239.99999999999997
0
ARC
5
165
100
AcDbEntity
8
0
100
AcDbCircle
10
-2.2204460492503131e-15
20
5.5511151231257827e-16
30
0
40
35.000000000000007
210
0
220
0
230
1
100
AcDbArc
50
266.38779996124305
51
303.61220003875701
0
ARC
5
166
100
AcDbEntity
8
0
100
AcDbCircle
10
24.91060010942234
20
-37.476152446435165
30
0
40
10.000000000000007
210
0
220
-0
230
1
100
AcDbArc
50
60.000000000000007
51
123.61220003875694
0
LINE
5
167
100
AcDbEntity
8
0
100
AcDbLine
10
29.910600109422344
20
-28.815898408590769
30
0
11
62.699176635073599
21
-47.746391892020156
31
0
0
SPLINE
5
168
100
AcDbEntity
8
0
100
AcDbSpline
70
0
71
3
72
22
73
18
74
0
42
0.000000001
43
0.0000000001
44
0.0000000001
40
0
40
0
40
0
40
0
40
1.1328689728220871
40
1.1328689728220871
40
2.2657379456441769
40
2.2657379456441769
40
3.3986069184662684
40
3.3986069184662684
40
4.5314758912883573
40
4.5314758912883573
40
5.664344864110447
40
5.664344864110447
40
6.7972138369325368
40
6.7972138369325368
40
7.4696269993854445
40
7.4696269993854445
40
8.1420401618383504
40
8.1420401618383504
40
8.1420401618383504
40
8.1420401618383504
10
42.957900714436271
20
-101.38355884050817
30
0
10
46.67194396121215
20
-102.0660506644725
30
0
10
50.483784759820608
20
-102.01658226047638
30
0
10
57.873947283755093
20
-100.45929385281612
30
0
10
61.381615027402546
20
-98.966362375116944
30
0
10
67.627251279468098
20
-94.719990144414169
30
0
10
70.305508101181658
20
-92.007147024387749
30
0
10
74.471397044874863
20
-85.707542384125489
30
0
10
75.919200997967891
20
-82.181008517800365
30
0
10
77.381542780296982
20
-74.771473726300059
30
0
10
77.382099825056144
20
-70.959311992240089
30
0
10
75.921923513005339
20
-63.549350153436556
30
0
10
74.475150237596168
20
-60.022393322613176
30
0
10
71.157343342405753
20
-55.002059386726394
30
0
10
69.708929848185775
20
-53.281693254947896
30
0
10
66.444902899175091
20
-50.209037199763422
30
0
10
64.640266236817766
20
-48.867080496108322
30
0
10
62.699176635073599
20
-47.746391892020142
30
0
0
SPLINE
5
169
100
AcDbEntity
8
0
100
AcDbSpline
70
0
71
3
72
20
73
16
74
0
42
0.000000001
43
0.0000000001
44
0.0000000001
40
-0.50930325292618728
40
-0.50930325292618728
40
-0.50930325292618728
40
-0.50930325292618728
40
-0.50579403564394521
40
-0.50579403564394521
40
-0.50579403564394521
40
-0.47359063683897978
40
-0.47359063683897978
40
-0.47359063683897978
40
-0.45162381635858267
40
-0.45162381635858267
40
-0.45162381635858267
40
-0.4261916949642876
40
-0.4261916949642876
40
-0.4261916949642876
40
-0.42097854817543384
40
-0.42097854817543384
40
-0.42097854817543384
40
-0.42097854817543384
10
42.957900714436235
20
-101.38355884050813
30
0
10
42.167961666608377
20
-101.23839980337505
30
0
10
41.376727129956848
20
-101.08388588418423
30
0
10
40.583747983779944
20
-100.92037015824552
30
0
10
33.306733870809396
20
-99.419818408448066
30
0
10
25.901441898818724
20
-97.186265966455139
30
0
10
19.27228939912553
20
-94.501571292465201
30
0
10
14.750362885099227
20
-92.670267512842969
30
0
10
10.623867616188409
20
-90.629583032155722
30
0
10
6.8944927623566912
20
-88.37322812641014
30
0
10
2.5768030861416507
20
-85.760929640940049
30
0
10
-1.2895373301954227
20
-82.821013789416398
30
0
10
-5.042512617139943
20
-79.482761848596652
30
0
10
-5.8118079017311501
20
-78.798477705883613
30
0
10
-6.5771654153549388
20
-78.097431777904148
30
0
10
-7.3359068260228097
20
-77.382928563534136
30
0
0
SPLINE
5
170
100
AcDbEntity
8
0
100
AcDbSpline
70
0
71
3
72
14
73
10
74
0
42
0.000000001
43
0.0000000001
44
0.0000000001
40
0
40
0
40
0
40
0
40
1.1328689728220895
40
1.1328689728220895
40
2.2657379456441795
40
2.2657379456441795
40
3.0793226858995419
40
3.0793226858995419
40
3.8929074261549035
40
3.8929074261549035
40
3.8929074261549035
40
3.8929074261549035
10
-12.569259629322016
20
-41.770596291509847
30
0
10
-14.457374584025475
20
-45.0409073235869
30
0
10
-15.688673665191208
20
-48.648743235827126
30
0
10
-16.699027814168012
20
-56.133316290346968
30
0
10
-16.468423345629301
20
-59.938496834817869
30
0
10
-14.830316336322458
20
-66.216480008398364
30
0
10
-13.780897903181495
20
-68.731601400602884
30
0
10
-11.014044503170403
20
-73.396705331756408
30
0
10
-9.3102368682894685
20
-75.523711257620803
30
0
10
-7.3359068260228106
20
-77.382928563534136
30
0
0
LINE
5
171
100
AcDbEntity
8
0
100
AcDbLine
10
-12.569259629322016
20
-41.770596291509847
30
0
11
-11.495390332901966
21
-39.910600109422354
31
0
0
ARC
5
172
100
AcDbEntity
8
0
100
AcDbCircle
10
-2.8351362950575778
20
-44.910600109422361
30
0
40
10.000000000000007
210
0
220
-0
230
1
100
AcDbArc
50
86.387799961243033
51
149.99999999999997
0
LINE
5
173
100
AcDbEntity
8
0
100
AcDbLine
10
3.9532011979922728
20
-4.5135573872714279
30
0
11
-50.188573030886239
21
0.24637691022154407
31
0
0
SPLINE
5
174
100
AcDbEntity
8
0
100
AcDbSpline
70
4
71
5
72
102
73
96
74
0
42
0.000000001
43
0.0000000001
44
0.0000000001
40
0.248166845204222
40
0.248166845204222
40
0.248166845204222
40
0.248166845204222
40
0.248166845204222
40
0.248166845204222
40
0.24999999999999997
40
0.2583333333333333
40
0.26666666666666666
40
0.27500000000000002
40
0.28333333333333338
40
0.29166666666666674
40
0.3000000000000001
40
0.30833333333333346
40
0.31666666666666682
40
0.32500000000000018
40
0.33333333333333354
40
0.3416666666666669
40
0.35000000000000026
40
0.35833333333333361
40
0.36666666666666697
40
0.37500000000000033
40
0.38333333333333369
40
0.39166666666666705
40
0.40000000000000041
40
0.40833333333333377
40
0.41666666666666713
40
0.42500000000000049
40
0.43333333333333385
40
0.44166666666666721
40
0.45000000000000057
40
0.45833333333333393
40
0.46666666666666728
40
0.47500000000000064
40
0.483333333333334
40
0.49166666666666736
40
0.50000000000000067
40
0.50833333333333397
40
0.51666666666666727
40
0.52500000000000058
40
0.53333333333333388
40
0.54166666666666718
40
0.55000000000000049
40
0.55833333333333379
40
0.5666666666666671
40
0.5750000000000004
40
0.5833333333333337
40
0.59166666666666701
40
0.60000000000000031
40
0.60833333333333361
40
0.61666666666666692
40
0.62500000000000022
40
0.63333333333333353
40
0.64166666666666683
40
0.65000000000000013
40
0.65833333333333344
40
0.66666666666666674
40
0.67500000000000004
40
0.68333333333333335
40
0.69166666666666665
40
0.69999999999999996
40
0.70833333333333326
40
0.71666666666666656
40
0.72499999999999987
40
0.73333333333333317
40
0.74166666666666647
40
0.74999999999999978
40
0.75833333333333308
40
0.76666666666666639
40
0.77499999999999969
40
0.78333333333333299
40
0.7916666666666663
40
0.7999999999999996
40
0.8083333333333329
40
0.81666666666666621
40
0.82499999999999951
40
0.83333333333333282
40
0.84166666666666612
40
0.84999999999999942
40
0.85833333333333273
40
0.86666666666666603
40
0.87499999999999933
40
0.88333333333333264
40
0.89166666666666594
40
0.89999999999999925
40
0.90833333333333255
40
0.91666666666666585
40
0.92499999999999916
40
0.93333333333333246
40
0.94166666666666576
40
0.94999999999999907
40
0.95833333333333237
40
0.96666666666666567
40
0.97499999999999898
40
0.98333333333333228
40
0.99166666666666559
40
1
40
1
40
1
40
1
40
1
40
1
41
1
41
1
41
1
41
1
41
1
41
1
41
1
41
1
41
1
41
1
41
1
41
1
41
1
41
1
41
1
41
1
41
1
41
1
41
1
41
1
41
1
41
1
41
1
41
1
41
1
41
1
41
1
41
1
41
1
41
1
41
1
41
1
41
1
41
1
41
1
41
1
41
1
41
1
41
1
41
1
41
1
41
1
41
1
41
1
41
1
41
1
41
1
41
1
41
1
41
1
41
1
41
1
41
1
41
1
41
1
41
1
41
1
41
1
41
1
41
1
41
1
41
1
41
1
41
1
41
1
41
1
41
1
41
1
41
1
41
1
41
1
41
1
41
1
41
1
41
1
41
1
41
1
41
1
41
1
41
1
41
1
41
1
41
1
41
1
41
1
41
1
41
1
41
1
41
1
41
1
41
1
41
1
41
1
41
1
41
1
41
1
10
-50.188573030886246
20
0.24637691022154254
30
0
10
-50.189747133919703
20
0.048735578329051343
30
0
10
-50.199454996000497
20
-1.0443479079542839
30
0
10
-50.249286890674
20
-3.0020072662914292
30
0
10
-50.403193061536371
20
-5.7468784450722517
30
0
10
-50.709341578735149
20
-9.1806913246095885
30
0
10
-51.067346186050948
20
-13.128895206057905
30
0
10
-51.254921566746461
20
-17.101893023868982
30
0
10
-51.168127604525083
20
-21.178213380599338
30
0
10
-50.769430503084465
20
-25.368551231307528
30
0
10
-50.065666959037387
20
-29.650247436655299
30
0
10
-49.094322125815744
20
-33.992018258233379
30
0
10
-47.906540588473419
20
-38.378704985605211
30
0
10
-46.55026035158501
20
-42.802478601011771
30
0
10
-45.054439677669237
20
-47.258623459914418
30
0
10
-43.409538566054842
20
-51.738859423006424
30
0
10
-41.559956127493479
20
-56.227758656426616
30
0
10
-39.433784387782381
20
-60.706145852186928
30
0
10
-36.965421575955375
20
-65.153291831733213
30
0
10
-34.122307852241441
20
-69.54971716312906
30
0
10
-30.926265956396229
20
-73.879347213570398
30
0
10
-27.429757779697237
20
-78.127061505304013
30
0
10
-23.694097023120388
20
-82.276358625336755
30
0
10
-19.769198887162229
20
-86.307354196330124
30
0
10
-15.667229290759323
20
-90.193733276651983
30
0
10
-11.359604405831856
20
-93.903572830769747
30
0
10
-6.7996106497007966
20
-97.404286214549302
30
0
10
-1.9391275595900828
20
-100.66676810514338
30
0
10
3.2541390292200401
20
-103.66924170704836
30
0
10
8.7749429795576646
20
-106.40278736965486
30
0
10
14.582250483992238
20
-108.86904912953571
30
0
10
20.616491399310934
20
-111.07293000661997
30
0
10
26.812488935177686
20
-113.01657895204914
30
0
10
33.11336955509568
20
-114.69332335205955
30
0
10
39.485967059525748
20
-116.08047749810721
30
0
10
45.929609649699913
20
-117.13621206895887
30
0
10
52.461346163225798
20
-117.8105804759513
30
0
10
59.105401048875876
20
-118.05393777998603
30
0
10
65.88042701336974
20
-117.82687471484863
30
0
10
72.788943620524577
20
-117.10838173320346
30
0
10
79.802682368726693
20
-115.90762741807282
30
0
10
86.865215200631582
20
-114.26013789744211
30
0
10
93.904131943403087
20
-112.21528035147826
30
0
10
100.84007342853774
20
-109.82667660831876
30
0
10
107.59749433956314
20
-107.14087136041898
30
0
10
114.1136825030194
20
-104.18798961070586
30
0
10
120.35102326196321
20
-100.96844520697884
30
0
10
126.29749587469786
20
-97.454216111204175
30
0
10
131.95718463672381
20
-93.602564441154797
30
0
10
137.3437310838633
20
-89.366027881327113
30
0
10
142.4723242434431
20
-84.70440172763
30
0
10
147.3529257753984
20
-79.594792025775163
30
0
10
151.98142180299098
20
-74.045245650167814
30
0
10
156.33985037143216
20
-68.092277339180384
30
0
10
160.40082199369613
20
-61.790873345078829
30
0
10
164.13057889982031
20
-55.207008852590711
30
0
10
167.49269007746659
20
-48.408847244583136
30
0
10
170.45130168967603
20
-41.459157237705647
30
0
10
172.97499511616434
20
-34.405616504370798
30
0
10
175.038892839037
20
-27.277723079810208
30
0
10
176.62433231982192
20
-20.093109859733072
30
0
10
177.71911400033781
20
-12.861548512746294
30
0
10
178.31755004300703
20
-5.5899617857492796
30
0
10
178.42053472251106
20
1.7131792594450055
30
0
10
178.03576968621118
20
9.0327587107881477
30
0
10
177.17744004698466
20
16.343533959533822
30
0
10
175.86333190928542
20
23.613545824261195
30
0
10
174.11230408805693
20
30.806580328128838
30
0
10
171.9416348624062
20
37.884989516693445
30
0
10
169.36439489866495
20
44.812375067226711
30
0
10
166.3868716036763
20
51.556291617659085
30
0
10
163.00579158917304
20
58.091052479514083
30
0
10
159.21331345814619
20
64.395848879294917
30
0
10
155.00233211876491
20
70.452693075381177
30
0
10
150.3715348018595
20
76.244479489026915
30
0
10
145.33086703154316
20
81.752880870444756
30
0
10
139.90611975886864
20
86.956586543335703
30
0
10
134.14572297384635
20
91.828694392447716
30
0
10
128.11536687673262
20
96.338777393156732
30
0
10
121.88819469272843
20
100.45666270041052
30
0
10
115.53666480773089
20
104.15554737726355
30
0
10
109.12325189106083
20
107.41561597935086
30
0
10
102.69272340565246
20
110.22692697010656
30
0
10
96.261064726495505
20
112.59389949821157
30
0
10
89.816240037070628
20
114.53410988828119
30
0
10
83.331457519537707
20
116.07101731458812
30
0
10
76.774925652026297
20
117.2284660670698
30
0
10
70.121393244366487
20
118.02413373916075
30
0
10
63.36209975945291
20
118.46419768153721
30
0
10
56.517564313518648
20
118.53547743390794
30
0
10
49.633762304200673
20
118.21296822729656
30
0
10
42.773884071034836
20
117.47151133864554
30
0
10
37.364046133951504
20
116.53114983964386
30
0
10
33.385123170410047
20
115.63325427407997
30
0
10
30.777078128498488
20
114.95404740219072
30
0
10
29.485317642470875
20
114.5952698924785
30
0
0
SPLINE
5
175
100
AcDbEntity
8
0
100
AcDbSpline
70
4
71
5
72
39
73
33
74
0
42
0.000000001
43
0.0000000001
44
0.0000000001
40
0
40
0
40
0
40
0
40
0
40
0
40
0.0083333333333333332
40
0.016666666666666666
40
0.025000000000000001
40
0.033333333333333333
40
0.041666666666666664
40
0.049999999999999996
40
0.058333333333333327
40
0.066666666666666666
40
0.074999999999999997
40
0.083333333333333329
40
0.09166666666666666
40
0.099999999999999992
40
0.10833333333333332
40
0.11666666666666665
40
0.12499999999999999
40
0.13333333333333333
40
0.14166666666666666
40
0.14999999999999999
40
0.15833333333333333
40
0.16666666666666666
40
0.17499999999999999
40
0.18333333333333332
40
0.19166666666666665
40
0.19999999999999998
40
0.20833333333333331
40
0.21666666666666665
40
0.22499999999999998
40
0.23305189416985242
40
0.23305189416985242
40
0.23305189416985242
40
0.23305189416985242
40
0.23305189416985242
40
0.23305189416985242
41
1
41
1
41
1
41
1
41
1
41
1
41
1
41
1
41
1
41
1
41
1
41
1
41
1
41
1
41
1
41
1
41
1
41
1
41
1
41
1
41
1
41
1
41
1
41
1
41
1
41
1
41
1
41
1
41
1
41
1
41
1
41
1
41
1
10
29.485317642470875
20
114.5952698924785
30
0
10
28.19355715644345
20
114.23649238276633
30
0
10
25.634560254245038
20
113.48058921580713
30
0
10
21.876353919340715
20
112.23756032216103
30
0
10
17.050621164811005
20
110.39379946992852
30
0
10
11.372009042767658
20
107.87616273333234
30
0
10
6.0698648602146097
20
105.2372429040342
30
0
10
1.1391990807801435
20
102.53717769616564
30
0
10
-3.457209990299726
20
99.782813323919413
30
0
10
-7.7973515824443949
20
96.896433389419656
30
0
10
-11.97889946921439
20
93.750921896771985
30
0
10
-16.08990825899162
20
90.222815063883886
30
0
10
-20.184292956443493
20
86.235790654194091
30
0
10
-24.25072974234061
20
81.81614242459014
30
0
10
-28.198290180449277
20
77.118845935556308
30
0
10
-31.899880544862746
20
72.353252930568573
30
0
10
-35.228060181683531
20
67.721673465893417
30
0
10
-38.090872591976435
20
63.358726775671563
30
0
10
-40.474719700391404
20
59.256554189811077
30
0
10
-42.46152074680186
20
55.240773873341446
30
0
10
-44.17082183919338
20
51.09736199694774
30
0
10
-45.719420151952981
20
46.661170811835476
30
0
10
-47.166361570694299
20
41.942082709047767
30
0
10
-48.489210612752657
20
37.161411453829921
30
0
10
-49.624417942759457
20
32.589393061944463
30
0
10
-50.493864564718045
20
28.435953327932904
30
0
10
-51.039052179937087
20
24.691282690114924
30
0
10
-51.245084409317023
20
21.080341475273894
30
0
10
-51.146169312857822
20
17.299393178474563
30
0
10
-50.898192842750738
20
13.953518018519087
30
0
10
-50.685218857464527
20
11.297467328354694
30
0
10
-50.552638851613651
20
9.4963841052970324
30
0
10
-50.49174606282692
20
8.6050453189559306
30
0
0
LINE
5
176
100
AcDbEntity
8
0
100
AcDbLine
10
-50.49174606282692
20
8.6050453189559288
30
0
11
4.6801011434812168
21
3.7545510100124964
31
0
0
ARC
5
177
100
AcDbEntity
8
0
100
AcDbCircle
10
-2.2204460492503131e-15
20
5.5511151231257827e-16
30
0
40
6.0000000000000036
210
0
220
0
230
1
100
AcDbArc
50
-48.786489267389697
51
38.737881138387792
0
CIRCLE
5
178
100
AcDbEntity
8
0
100
AcDbCircle
10
-10.330629435422722
20
-14.740356015645537
30
0
40
3.2000000000000006
210
0
220
-0
230
1
0
CIRCLE
5
179
100
AcDbEntity
8
0
100
AcDbCircle
10
10.330629435422727
20
14.740356015645538
30
0
40
3.2000000000000006
210
0
220
-0
230
1
0
ENDSEC
0
SECTION
2
OBJECTS
0
DICTIONARY
5
C
100
AcDbDictionary
3
ACAD_GROUP
350
D
3
ACAD_MLINESTYLE
350
17
0
DICTIONARY
5
D
100
AcDbDictionary
0
DICTIONARY
5
1A
330
C
100
AcDbDictionary
0
DICTIONARY
5
17
100
AcDbDictionary
0
ENDSEC
0
EOF
