0
SECTION
2
HEADER
9
$INSUNITS
70
4
9
$ACADVER
1
AC1014
9
$HANDSEED
5
FFFF
0
ENDSEC
0
SECTION
2
TABLES
0
TABLE
2
VPORT
5
8
100
AcDbSymbolTable
0
ENDTAB
0
TABLE
2
LTYPE
5
5
100
AcDbSymbolTable
0
LTYPE
5
14
100
AcDbSymbolTableRecord
100
AcDbLinetypeTableRecord
2
BYBLOCK
70
0
0
LTYPE
5
15
100
AcDbSymbolTableRecord
100
AcDbLinetypeTableRecord
2
BYLAYER
70
0
0
ENDTAB
0
TABLE
2
LAYER
5
2
100
AcDbSymbolTable
70
2
0
LAYER
5
50
100
AcDbSymbolTableRecord
100
AcDbLayerTableRecord
2
0
70
0
6
CONTINUOUS
0
ENDTAB
0
TABLE
2
STYLE
5
3
100
AcDbSymbolTable
70
1
0
STYLE
5
11
100
AcDbSymbolTableRecord
100
AcDbTextStyleTableRecord
2
STANDARD
70
0
0
ENDTAB
0
TABLE
2
VIEW
5
6
100
AcDbSymbolTable
70
0
0
ENDTAB
0
TABLE
2
UCS
5
7
100
AcDbSymbolTable
70
0
0
ENDTAB
0
TABLE
2
APPID
5
9
100
AcDbSymbolTable
70
2
0
APPID
5
12
100
AcDbSymbolTableRecord
100
AcDbRegAppTableRecord
2
ACAD
70
0
0
ENDTAB
0
TABLE
2
DIMSTYLE
5
A
100
AcDbSymbolTable
70
1
0
ENDTAB
0
TABLE
2
BLOCK_RECORD
5
1
100
AcDbSymbolTable
70
1
0
BLOCK_RECORD
5
1F
100
AcDbSymbolTableRecord
100
AcDbBlockTableRecord
2
*MODEL_SPACE
0
BLOCK_RECORD
5
1B
100
AcDbSymbolTableRecord
100
AcDbBlockTableRecord
2
*PAPER_SPACE
0
ENDTAB
0
ENDSEC
0
SECTION
2
BLOCKS
0
BLOCK
5
20
100
AcDbEntity
100
AcDbBlockBegin
2
*MODEL_SPACE
0
ENDBLK
5
21
100
AcDbEntity
100
AcDbBlockEnd
0
BLOCK
5
1C
100
AcDbEntity
100
AcDbBlockBegin
2
*PAPER_SPACE
0
ENDBLK
5
1D
100
AcDbEntity
100
AcDbBlockEnd
0
ENDSEC
0
SECTION
2
ENTITIES
0
SPLINE
5
100
100
AcDbEntity
8
0
100
AcDbSpline
70
0
71
3
72
9
73
5
74
0
42
0.000000001
43
0.0000000001
44
0.0000000001
40
0
40
0
40
0
40
0
40
0.13493944444112346
40
0.26026390219143508
40
0.26026390219143508
40
0.26026390219143508
40
0.26026390219143508
10
-87.956388800765808
20
-20.947988062956021
30
0
10
-87.748094008924227
20
-21.35769399307457
30
0
10
-87.346346280116137
20
-22.14791263200005
30
0
10
-87.414092982224901
20
-23.030204149331212
30
0
10
-87.446714942606889
20
-23.455052563022853
30
0
0
SPLINE
5
101
100
AcDbEntity
8
0
100
AcDbSpline
70
0
71
3
72
9
73
5
74
0
42
0.000000001
43
0.0000000001
44
0.0000000001
40
0
40
0
40
0
40
0
40
0.12292750563017101
40
0.25055953706145256
40
0.25055953706145256
40
0.25055953706145256
40
0.25055953706145256
10
-87.446714942606889
20
-23.455052563022853
30
0
10
-87.563248168829233
20
-23.857213671320334
30
0
10
-87.800774433312256
20
-24.676926888493163
30
0
10
-88.4410329230125
20
-25.242468223297635
30
0
10
-88.767172940031784
20
-25.53054821524681
30
0
0
LINE
5
102
100
AcDbEntity
8
0
100
AcDbLine
10
-88.767172940031799
20
-25.53054821524681
30
0
11
-89.990057673331663
21
-23.93939062513742
31
0
0
SPLINE
5
103
100
AcDbEntity
8
0
100
AcDbSpline
70
0
71
3
72
9
73
5
74
0
42
0.000000001
43
0.0000000001
44
0.0000000001
40
0
40
0
40
0
40
0
40
0.069460716261794023
40
0.12913652741409895
40
0.12913652741409895
40
0.12913652741409895
40
0.12913652741409895
10
-89.990057673331663
20
-23.93939062513742
30
0
10
-89.809660881929489
20
-23.787041153381278
30
0
10
-89.474279727630375
20
-23.503803622950251
30
0
10
-89.320299263731911
20
-23.094218814170546
30
0
10
-89.249142719036527
20
-22.904943895686696
30
0
0
SPLINE
5
104
100
AcDbEntity
8
0
100
AcDbSpline
70
0
71
3
72
9
73
5
74
0
42
0.000000001
43
0.0000000001
44
0.0000000001
40
0
40
0
40
0
40
0
40
0.055153665076786686
40
0.11100083304553668
40
0.11100083304553668
40
0.11100083304553668
40
0.11100083304553668
10
-89.249142719036527
20
-22.904943895686696
30
0
10
-89.22297688152797
20
-22.718512891992539
30
0
10
-89.170316196934493
20
-22.34330669877297
30
0
10
-89.334707364495074
20
-22.001797025252863
30
0
10
-89.417416483836249
20
-21.829975358903688
30
0
0
SPLINE
5
105
100
AcDbEntity
8
0
100
AcDbSpline
70
0
71
3
72
9
73
5
74
0
42
0.000000001
43
0.0000000001
44
0.0000000001
40
0
40
0
40
0
40
0
40
0.05991670082611477
40
0.12056145598184528
40
0.12056145598184528
40
0.12056145598184528
40
0.12056145598184528
10
-89.417416483836249
20
-21.829975358903688
30
0
10
-89.539314773315539
20
-21.664557754229754
30
0
10
-89.784592551609308
20
-21.331712537628206
30
0
10
-90.180741689294322
20
-21.212755002311891
30
0
10
-90.38001240367322
20
-21.152917050418935
30
0
0
SPLINE
5
106
100
AcDbEntity
8
0
100
AcDbSpline
70
0
71
3
72
9
73
5
74
0
42
0.000000001
43
0.0000000001
44
0.0000000001
40
0
40
0
40
0
40
0
40
0.065500143178845213
40
0.13991044119831239
40
0.13991044119831239
40
0.13991044119831239
40
0.13991044119831239
10
-90.38001240367322
20
-21.152917050418935
30
0
10
-90.602117542754556
20
-21.13685920040141
30
0
10
-91.076541360675606
20
-21.102559109262472
30
0
10
-91.499125018569316
20
-21.32420102649111
30
0
10
-91.723872904807905
20
-21.44207958489843
30
0
0
SPLINE
5
107
100
AcDbEntity
8
0
100
AcDbSpline
70
0
71
3
72
9
73
5
74
0
42
0.000000001
43
0.0000000001
44
0.0000000001
40
0
40
0
40
0
40
0
40
0.070358499738826352
40
0.13231880389098843
40
0.13231880389098843
40
0.13231880389098843
40
0.13231880389098843
10
-91.723872904807905
20
-21.44207958489843
30
0
10
-91.923831347260801
20
-21.575020951796986
30
0
10
-92.299880609702257
20
-21.825035416587269
30
0
10
-92.483863948077669
20
-22.235818983591813
30
0
10
-92.570016960872891
20
-22.428174673061918
30
0
0
SPLINE
5
108
100
AcDbEntity
8
0
100
AcDbSpline
70
0
71
3
72
9
73
5
74
0
42
0.000000001
43
0.0000000001
44
0.0000000001
40
0
40
0
40
0
40
0
40
0.057497741250578993
40
0.11412826955704103
40
0.11412826955704103
40
0.11412826955704103
40
0.11412826955704103
10
-92.570016960872891
20
-22.428174673061918
30
0
10
-92.60959828059832
20
-22.621296571065344
30
0
10
-92.68816393254906
20
-23.004627595090241
30
0
10
-92.523724590904465
20
-23.359484349201949
30
0
10
-92.442129672942045
20
-23.535564522295431
30
0
0
SPLINE
5
109
100
AcDbEntity
8
0
100
AcDbSpline
70
0
71
3
72
9
73
5
74
0
42
0.000000001
43
0.0000000001
44
0.0000000001
40
0
40
0
40
0
40
0
40
0.043566020637227823
40
0.095938666110361254
40
0.095938666110361254
40
0.095938666110361254
40
0.095938666110361254
10
-92.442129672942045
20
-23.535564522295431
30
0
10
-92.360806200481633
20
-23.656313188421599
30
0
10
-92.181720175244592
20
-23.92221918105777
30
0
10
-91.953195602626693
20
-24.147341375496438
30
0
10
-91.828444687184017
20
-24.270234942349944
30
0
0
LINE
5
110
100
AcDbEntity
8
0
100
AcDbLine
10
-91.828444687184017
20
-24.270234942349944
30
0
11
-93.38739362699971
21
-24.929313632123336
31
0
0
SPLINE
5
111
100
AcDbEntity
8
0
100
AcDbSpline
70
0
71
3
72
9
73
5
74
0
42
0.000000001
43
0.0000000001
44
0.0000000001
40
0
40
0
40
0
40
0
40
0.074038091180412893
40
0.13485178393839653
40
0.13485178393839653
40
0.13485178393839653
40
0.13485178393839653
10
-93.38739362699971
20
-24.929313632123336
30
0
10
-93.518150919843194
20
-24.713008495686047
30
0
10
-93.756310141964804
20
-24.319033812404047
30
0
10
-94.164518692701961
20
-24.111128423119396
30
0
10
-94.348607242817465
20
-24.017369971451732
30
0
0
SPLINE
5
112
100
AcDbEntity
8
0
100
AcDbSpline
70
0
71
3
72
9
73
5
74
0
42
0.000000001
43
0.0000000001
44
0.0000000001
40
0
40
0
40
0
40
0
40
0.055593018620265125
40
0.11403845144092478
40
0.11403845144092478
40
0.11403845144092478
40
0.11403845144092478
10
-94.348607242817465
20
-24.017369971451732
30
0
10
-94.535432355920221
20
-23.979049275348121
30
0
10
-94.918668364996137
20
-23.900441692053459
30
0
10
-95.271075135388216
20
-24.071869902570555
30
0
10
-95.451685850144926
20
-24.159727952506746
30
0
0
SPLINE
5
113
100
AcDbEntity
8
0
100
AcDbSpline
70
0
71
3
72
9
73
5
74
0
42
0.000000001
43
0.0000000001
44
0.0000000001
40
0
40
0
40
0
40
0
40
0.04936789666759301
40
0.094167036116843281
40
0.094167036116843281
40
0.094167036116843281
40
0.094167036116843281
10
-95.451685850144926
20
-24.159727952506746
30
0
10
-95.591348554826126
20
-24.254756171589836
30
0
10
-95.857748864412855
20
-24.436018213170605
30
0
10
-95.975290270102079
20
-24.735060610236019
30
0
10
-96.031209560351343
20
-24.877327401247133
30
0
0
SPLINE
5
114
100
AcDbEntity
8
0
100
AcDbSpline
70
0
71
3
72
9
73
5
74
0
42
0.000000001
43
0.0000000001
44
0.0000000001
40
0
40
0
40
0
40
0
40
0.044645078637844969
40
0.09347110550927093
40
0.09347110550927093
40
0.09347110550927093
40
0.09347110550927093
10
-96.031209560351343
20
-24.877327401247133
30
0
10
-96.050940162961226
20
-25.02840372870736
30
0
10
-96.092249111104678
20
-25.344704467217362
30
0
10
-95.947550007123965
20
-25.629914980574945
30
0
10
-95.871964270753992
20
-25.778898948543848
30
0
0
SPLINE
5
115
100
AcDbEntity
8
0
100
AcDbSpline
70
0
71
3
72
9
73
5
74
0
42
0.000000001
43
0.0000000001
44
0.0000000001
40
0
40
0
40
0
40
0
40
0.04973900896176818
40
0.099253720691467734
40
0.099253720691467734
40
0.099253720691467734
40
0.099253720691467734
10
-95.871964270753992
20
-25.778898948543848
30
0
10
-95.772739862839984
20
-25.916820415981267
30
0
10
-95.57473849782599
20
-26.192041396297007
30
0
10
-95.256602089078527
20
-26.30913386777906
30
0
10
-95.097893352921233
20
-26.367547798569369
30
0
0
SPLINE
5
116
100
AcDbEntity
8
0
100
AcDbSpline
70
0
71
3
72
9
73
5
74
0
42
0.000000001
43
0.0000000001
44
0.0000000001
40
0
40
0
40
0
40
0
40
0.05413608482447152
40
0.1179083312866346
40
0.1179083312866346
40
0.1179083312866346
40
0.1179083312866346
10
-95.097893352921233
20
-26.367547798569369
30
0
10
-94.916015755873829
20
-26.39128928710263
30
0
10
-94.519886555991505
20
-26.442998222174204
30
0
10
-94.147692008849461
20
-26.294083944770147
30
0
10
-93.946385772613155
20
-26.213541731198656
30
0
0
LINE
5
117
100
AcDbEntity
8
0
100
AcDbLine
10
-93.946385772613155
20
-26.21354173119866
30
0
11
-93.257302385807449
21
-28.0100729660079
31
0
0
SPLINE
5
118
100
AcDbEntity
8
0
100
AcDbSpline
70
0
71
3
72
9
73
5
74
0
42
0.000000001
43
0.0000000001
44
0.0000000001
40
0
40
0
40
0
40
0
40
0.09106114972133901
40
0.16750686059009162
40
0.16750686059009162
40
0.16750686059009162
40
0.16750686059009162
10
-93.257302385807463
20
-28.0100729660079
30
0
10
-93.548156944150406
20
-28.103782258101369
30
0
10
-94.083183507129633
20
-28.276160372969589
30
0
10
-94.644512245110576
20
-28.285188050537165
30
0
10
-94.90068786833487
20
-28.289308044349454
30
0
0
SPLINE
5
119
100
AcDbEntity
8
0
100
AcDbSpline
70
0
71
3
72
9
73
5
74
0
42
0.000000001
43
0.0000000001
44
0.0000000001
40
0
40
0
40
0
40
0
40
0.070626748704781916
40
0.14546851921706239
40
0.14546851921706239
40
0.14546851921706239
40
0.14546851921706239
10
-94.90068786833487
20
-28.289308044349454
30
0
10
-95.136207147741501
20
-28.255058498232756
30
0
10
-95.621301555322987
20
-28.184515384627474
30
0
10
-96.040158413319062
20
-27.929125016959414
30
0
10
-96.255655133931583
20
-27.797729802441978
30
0
0
SPLINE
5
120
100
AcDbEntity
8
0
100
AcDbSpline
70
0
71
3
72
9
73
5
74
0
42
0.000000001
43
0.0000000001
44
0.0000000001
40
0
40
0
40
0
40
0
40
0.079732813293394836
40
0.1644634716662246
40
0.1644634716662246
40
0.1644634716662246
40
0.1644634716662246
10
-96.255655133931583
20
-27.797729802441978
30
0
10
-96.466351196431674
20
-27.632584739787688
30
0
10
-96.90095025889876
20
-27.291942923566836
30
0
10
-97.202396181100823
20
-26.82893664459186
30
0
10
-97.357699429860048
20
-26.590398405973605
30
0
0
SPLINE
5
121
100
AcDbEntity
8
0
100
AcDbSpline
70
0
71
3
72
9
73
5
74
0
42
0.000000001
43
0.0000000001
44
0.0000000001
40
0
40
0
40
0
40
0
40
0.13871855688801366
40
0.26761492297526357
40
0.26761492297526357
40
0.26761492297526357
40
0.26761492297526357
10
-97.357699429860048
20
-26.590398405973605
30
0
10
-97.570017343628038
20
-26.16496703332465
30
0
10
-97.979619659381342
20
-25.344227641444853
30
0
10
-97.834458260428065
20
-24.440642468862478
30
0
10
-97.764541468743971
20
-24.005431891285856
30
0
0
SPLINE
5
122
100
AcDbEntity
8
0
100
AcDbSpline
70
0
71
3
72
9
73
5
74
0
42
0.000000001
43
0.0000000001
44
0.0000000001
40
0
40
0
40
0
40
0
40
0.10146769353482835
40
0.19781406080600739
40
0.19781406080600739
40
0.19781406080600739
40
0.19781406080600739
10
-97.764541468743971
20
-24.005431891285856
30
0
10
-97.646253381404335
20
-23.679752251545398
30
0
10
-97.415647500000375
20
-23.044830831588385
30
0
10
-96.874574847292536
20
-22.642030810491704
30
0
10
-96.611042597331291
20
-22.445844964999758
30
0
0
SPLINE
5
123
100
AcDbEntity
8
0
100
AcDbSpline
70
0
71
3
72
9
73
5
74
0
42
0.000000001
43
0.0000000001
44
0.0000000001
40
0
40
0
40
0
40
0
40
0.13281862861854291
40
0.28493211232704174
40
0.28493211232704174
40
0.28493211232704174
40
0.28493211232704174
10
-96.611042597331291
20
-22.445844964999758
30
0
10
-96.178252057607395
20
-22.282793859724084
30
0
10
-95.249798542002651
20
-21.933004855525837
30
0
10
-94.358431716697751
20
-22.385098835701402
30
0
10
-93.882567792649482
20
-22.626453134893953
30
0
0
SPLINE
5
124
100
AcDbEntity
8
0
100
AcDbSpline
70
0
71
3
72
9
73
5
74
0
42
0.000000001
43
0.0000000001
44
0.0000000001
40
0
40
0
40
0
40
0
40
0.089006445837799888
40
0.17483922169132393
40
0.17483922169132393
40
0.17483922169132393
40
0.17483922169132393
10
-93.882567792649482
20
-22.626453134893953
30
0
10
-93.958069653868733
20
-22.333605662667473
30
0
10
-94.106381234311769
20
-21.758352672432871
30
0
10
-93.949047789884489
20
-21.185995074634725
30
0
10
-93.87180902080766
20
-20.905010974358859
30
0
0
SPLINE
5
125
100
AcDbEntity
8
0
100
AcDbSpline
70
0
71
3
72
9
73
5
74
0
42
0.000000001
43
0.0000000001
44
0.0000000001
40
0
40
0
40
0
40
0
40
0.086569827669932653
40
0.17789325571538053
40
0.17789325571538053
40
0.17789325571538053
40
0.17789325571538053
10
-93.87180902080766
20
-20.905010974358859
30
0
10
-93.742683934811055
20
-20.641172079013323
30
0
10
-93.477343428069574
20
-20.099006738725038
30
0
10
-92.978784395085
20
-19.757494190145689
30
0
10
-92.722843719919553
20
-19.582175027362453
30
0
0
SPLINE
5
126
100
AcDbEntity
8
0
100
AcDbSpline
70
0
71
3
72
9
73
5
74
0
42
0.000000001
43
0.0000000001
44
0.0000000001
40
0
40
0
40
0
40
0
40
0.13344180852826532
40
0.2680124941926183
40
0.2680124941926183
40
0.2680124941926183
40
0.2680124941926183
10
-92.722843719919553
20
-19.582175027362453
30
0
10
-92.309465010800409
20
-19.388287102538126
30
0
10
-91.479210534343167
20
-18.998871019984122
30
0
10
-90.576473308343296
20
-19.161561619465321
30
0
10
-90.123203516412502
20
-19.243249548191489
30
0
0
SPLINE
5
127
100
AcDbEntity
8
0
100
AcDbSpline
70
0
71
3
72
9
73
5
74
0
42
0.000000001
43
0.0000000001
44
0.0000000001
40
0
40
0
40
0
40
0
40
0.13789592494991332
40
0.28124973319027768
40
0.28124973319027768
40
0.28124973319027768
40
0.28124973319027768
10
-90.123203516412502
20
-19.243249548191489
30
0
10
-89.684687402937101
20
-19.413728701032305
30
0
10
-88.790298827209497
20
-19.761434525322613
30
0
10
-88.237931855300246
20
-20.547386203330198
30
0
10
-87.956388800765808
20
-20.947988062956021
30
0
0
SPLINE
5
128
100
AcDbEntity
8
0
100
AcDbSpline
70
0
71
3
72
9
73
5
74
0
42
0.000000001
43
0.0000000001
44
0.0000000001
40
0
40
0
40
0
40
0
40
0.18152404705016684
40
0.33187529686656969
40
0.33187529686656969
40
0.33187529686656969
40
0.33187529686656969
10
-99.867712200737117
20
-0.81396637272906247
30
0
10
-99.571998129753624
20
-1.3570206801602946
30
0
10
-99.031352431896636
20
-2.3498715581687568
30
0
10
-99.067820721494414
20
-3.4749250859962943
30
0
10
-99.084342146775128
20
-3.9846141337087948
30
0
0
SPLINE
5
129
100
AcDbEntity
8
0
100
AcDbSpline
70
0
71
3
72
9
73
5
74
0
42
0.000000001
43
0.0000000001
44
0.0000000001
40
0
40
0
40
0
40
0
40
0.14480022262489772
40
0.30924058114529662
40
0.30924058114529662
40
0.30924058114529662
40
0.30924058114529662
10
-99.084342146775128
20
-3.9846141337087948
30
0
10
-99.23231243330082
20
-4.4543756121137834
30
0
10
-99.548323117317381
20
-5.4576151786574822
30
0
10
-100.35272985769436
20
-6.1406253444985825
30
0
10
-100.78047751065088
20
-6.5038197096366313
30
0
0
LINE
5
130
100
AcDbEntity
8
0
100
AcDbLine
10
-100.78047751065091
20
-6.5038197096366304
30
0
11
-102.03154964618859
21
-4.793165320328356
31
0
0
SPLINE
5
131
100
AcDbEntity
8
0
100
AcDbSpline
70
0
71
3
72
9
73
5
74
0
42
0.000000001
43
0.0000000001
44
0.0000000001
40
0
40
0
40
0
40
0
40
0.096511564593617177
40
0.17669446126250393
40
0.17669446126250393
40
0.17669446126250393
40
0.17669446126250393
10
-102.03154964618859
20
-4.7931653203283586
30
0
10
-101.79078595076211
20
-4.5700744277156691
30
0
10
-101.34999306097652
20
-4.1616371046989853
30
0
10
-101.16617360882201
20
-3.5919923479086435
30
0
10
-101.08275743362036
20
-3.3334909418921033
30
0
0
SPLINE
5
132
100
AcDbEntity
8
0
100
AcDbSpline
70
0
71
3
72
9
73
5
74
0
42
0.000000001
43
0.0000000001
44
0.0000000001
40
0
40
0
40
0
40
0
40
0.077926006803855905
40
0.16751011178298997
40
0.16751011178298997
40
0.16751011178298997
40
0.16751011178298997
10
-101.08275743362036
20
-3.3334909418921033
30
0
10
-101.07058631576433
20
-3.0692748376890711
30
0
10
-101.04442322341291
20
-2.5013146538531572
30
0
10
-101.31163489635645
20
-1.9973771768634574
30
0
10
-101.45453921601708
20
-1.7278723251202388
30
0
0
SPLINE
5
133
100
AcDbEntity
8
0
100
AcDbSpline
70
0
71
3
72
9
73
5
74
0
42
0.000000001
43
0.0000000001
44
0.0000000001
40
0
40
0
40
0
40
0
40
0.092493186084335932
40
0.16639671729636074
40
0.16639671729636074
40
0.16639671729636074
40
0.16639671729636074
10
-101.45453921601708
20
-1.7278723251202388
30
0
10
-101.62227157843695
20
-1.461543317644618
30
0
10
-101.92402477424081
20
-0.98241318448720083
30
0
10
-102.41975419978792
20
-0.71443660767661843
30
0
10
-102.63992774448825
20
-0.59541734076921315
30
0
0
SPLINE
5
134
100
AcDbEntity
8
0
100
AcDbSpline
70
0
71
3
72
9
73
5
74
0
42
0.000000001
43
0.0000000001
44
0.0000000001
40
0
40
0
40
0
40
0
40
0.062420571042646242
40
0.11955666607750227
40
0.11955666607750227
40
0.11955666607750227
40
0.11955666607750227
10
-102.63992774448825
20
-0.59541734076921315
30
0
10
-102.84718004574309
20
-0.53823756868395023
30
0
10
-103.24413883290302
20
-0.42871881864054995
30
0
10
-103.62177830459774
20
-0.58958044457844583
30
0
10
-103.80225209540816
20
-0.66645616760246273
30
0
0
SPLINE
5
135
100
AcDbEntity
8
0
100
AcDbSpline
70
0
71
3
72
9
73
5
74
0
42
0.000000001
43
0.0000000001
44
0.0000000001
40
0
40
0
40
0
40
0
40
0.035687486032259422
40
0.069675382867680186
40
0.069675382867680186
40
0.069675382867680186
40
0.069675382867680186
10
-103.80225209540816
20
-0.66645616760246273
30
0
10
-103.90217686281011
20
-0.73533582330091551
30
0
10
-104.09726755707759
20
-0.86981479383543725
30
0
10
-104.19738525055175
20
-1.0842817070233179
30
0
10
-104.24622301357721
20
-1.1888994216311266
30
0
0
SPLINE
5
136
100
AcDbEntity
8
0
100
AcDbSpline
70
0
71
3
72
9
73
5
74
0
42
0.000000001
43
0.0000000001
44
0.0000000001
40
0
40
0
40
0
40
0
40
0.039564554147590893
40
0.091557641375277499
40
0.091557641375277499
40
0.091557641375277499
40
0.091557641375277499
10
-104.24622301357721
20
-1.1888994216311266
30
0
10
-104.2731379108408
20
-1.3191642864438569
30
0
10
-104.33542256346497
20
-1.620614512113816
30
0
10
-104.28033692080697
20
-1.9244907833596203
30
0
10
-104.24905528684734
20
-2.097053829326998
30
0
0
SPLINE
5
137
100
AcDbEntity
8
0
100
AcDbSpline
70
0
71
3
72
9
73
5
74
0
42
0.000000001
43
0.0000000001
44
0.0000000001
40
0
40
0
40
0
40
0
40
0.0650684290391325
40
0.17982531706304272
40
0.17982531706304272
40
0.17982531706304272
40
0.17982531706304272
10
-104.24905528684734
20
-2.097053829326998
30
0
10
-104.19682238765293
20
-2.3075923681059107
30
0
10
-104.05246977614134
20
-2.8894438135609368
30
0
10
-103.87888475115382
20
-3.4633267070976226
30
0
10
-103.76811015277991
20
-3.8295544220157529
30
0
0
SPLINE
5
138
100
AcDbEntity
8
0
100
AcDbSpline
70
0
71
3
72
9
73
5
74
0
42
0.000000001
43
0.0000000001
44
0.0000000001
40
0
40
0
40
0
40
0
40
0.15593760972028706
40
0.26838956407757908
40
0.26838956407757908
40
0.26838956407757908
40
0.26838956407757908
10
-103.76811015277991
20
-3.8295544220157529
30
0
10
-103.62015819415595
20
-4.3330979454251839
30
0
10
-103.36551300784883
20
-5.1997639600214285
30
0
10
-103.41500288121011
20
-6.0989037150047354
30
0
10
-103.43573853462308
20
-6.4756323073988131
30
0
0
SPLINE
5
139
100
AcDbEntity
8
0
100
AcDbSpline
70
0
71
3
72
9
73
5
74
0
42
0.000000001
43
0.0000000001
44
0.0000000001
40
0
40
0
40
0
40
0
40
0.12315717930166074
40
0.24346095596176495
40
0.24346095596176495
40
0.24346095596176495
40
0.24346095596176495
10
-103.43573853462308
20
-6.4756323073988131
30
0
10
-103.5547574191795
20
-6.8812224768821562
30
0
10
-103.79003766492652
20
-7.6830057829876131
30
0
10
-104.46014143394788
20
-8.1810772573390835
30
0
10
-104.79126645499683
20
-8.4271942545160794
30
0
0
SPLINE
5
140
100
AcDbEntity
8
0
100
AcDbSpline
70
0
71
3
72
9
73
5
74
0
42
0.000000001
43
0.0000000001
44
0.0000000001
40
0
40
0
40
0
40
0
40
0.080223289195625533
40
0.16209221990744094
40
0.16209221990744094
40
0.16209221990744094
40
0.16209221990744094
10
-104.79126645499683
20
-8.4271942545160794
30
0
10
-105.03403848891375
20
-8.5475004208302785
30
0
10
-105.52456260358925
20
-8.7905806256180608
30
0
10
-106.07205590087057
20
-8.802606952393738
30
0
10
-106.34858176278982
20
-8.8086811644322882
30
0
0
SPLINE
5
141
100
AcDbEntity
8
0
100
AcDbSpline
70
0
71
3
72
9
73
5
74
0
42
0.000000001
43
0.0000000001
44
0.0000000001
40
0
40
0
40
0
40
0
40
0.084723090342054594
40
0.17458185427502421
40
0.17458185427502421
40
0.17458185427502421
40
0.17458185427502421
10
-106.34858176278982
20
-8.8086811644322882
30
0
10
-106.63242851219644
20
-8.7719693331943205
30
0
10
-107.21732799640179
20
-8.6963203035675729
30
0
10
-107.71247240159201
20
-8.37486476853182
30
0
10
-107.96732743451331
20
-8.2094088730283801
30
0
0
SPLINE
5
142
100
AcDbEntity
8
0
100
AcDbSpline
70
0
71
3
72
9
73
5
74
0
42
0.000000001
43
0.0000000001
44
0.0000000001
40
0
40
0
40
0
40
0
40
0.10056895973844411
40
0.21566400192985197
40
0.21566400192985197
40
0.21566400192985197
40
0.21566400192985197
10
-107.96732743451331
20
-8.2094088730283801
30
0
10
-108.22353859634545
20
-7.9902356074500025
30
0
10
-108.77296781032483
20
-7.5202319035874998
30
0
10
-109.15913479522831
20
-6.9081020445048136
30
0
10
-109.36522345639884
20
-6.5814220639457099
30
0
0
SPLINE
5
143
100
AcDbEntity
8
0
100
AcDbSpline
70
0
71
3
72
9
73
5
74
0
42
0.000000001
43
0.0000000001
44
0.0000000001
40
0
40
0
40
0
40
0
40
0.17853461619471667
40
0.32202427367866093
40
0.32202427367866093
40
0.32202427367866093
40
0.32202427367866093
10
-109.36522345639884
20
-6.5814220639457099
30
0
10
-109.65955701726351
20
-6.0491062096058767
30
0
10
-110.19044874670455
20
-5.0889639693219779
30
0
10
-110.16451071874235
20
-3.9975549327123483
30
0
10
-110.15295308457524
20
-3.5112378391311649
30
0
0
SPLINE
5
144
100
AcDbEntity
8
0
100
AcDbSpline
70
0
71
3
72
9
73
5
74
0
42
0.000000001
43
0.0000000001
44
0.0000000001
40
0
40
0
40
0
40
0
40
0.1295107517485343
40
0.26583387997738828
40
0.26583387997738828
40
0.26583387997738828
40
0.26583387997738828
10
-110.15295308457524
20
-3.5112378391311649
30
0
10
-110.02527009257138
20
-3.0866695083256257
30
0
10
-109.76318787381157
20
-2.2152001888307815
30
0
10
-109.03651243541709
20
-1.6649151089079783
30
0
10
-108.66386366326871
20
-1.3827216446320145
30
0
0
LINE
5
145
100
AcDbEntity
8
0
100
AcDbLine
10
-108.66386366326871
20
-1.3827216446320143
30
0
11
-107.47747948924525
21
-3.1997651111108905
31
0
0
SPLINE
5
146
100
AcDbEntity
8
0
100
AcDbSpline
70
0
71
3
72
9
73
5
74
0
42
0.000000001
43
0.0000000001
44
0.0000000001
40
0
40
0
40
0
40
0
40
0.074425672391398329
40
0.13543703555166761
40
0.13543703555166761
40
0.13543703555166761
40
0.13543703555166761
10
-107.47747948924527
20
-3.1997651111108905
30
0
10
-107.66570864648997
20
-3.3701586095445624
30
0
10
-108.00824097763973
20
-3.6802342805277055
30
0
10
-108.13875171154621
20
-4.1211346011526784
30
0
10
-108.19754388571221
20
-4.3197503599040354
30
0
0
SPLINE
5
147
100
AcDbEntity
8
0
100
AcDbSpline
70
0
71
3
72
9
73
5
74
0
42
0.000000001
43
0.0000000001
44
0.0000000001
40
0
40
0
40
0
40
0
40
0.063352507631828217
40
0.14397226729838911
40
0.14397226729838911
40
0.14397226729838911
40
0.14397226729838911
10
-108.19754388571221
20
-4.3197503599040354
30
0
10
-108.19317569248639
20
-4.5339347518566742
30
0
10
-108.18324871869756
20
-5.0206812703773718
30
0
10
-107.94392343536514
20
-5.4472870835308518
30
0
10
-107.80990910617211
20
-5.6861723825829946
30
0
0
SPLINE
5
148
100
AcDbEntity
8
0
100
AcDbSpline
70
0
71
3
72
9
73
5
74
0
42
0.000000001
43
0.0000000001
44
0.0000000001
40
0
40
0
40
0
40
0
40
0.084785741185804855
40
0.15484242953933128
40
0.15484242953933128
40
0.15484242953933128
40
0.15484242953933128
10
-107.80990910617211
20
-5.6861723825829946
30
0
10
-107.65578440247468
20
-5.9287433518060872
30
0
10
-107.37430967289438
20
-6.3717456501277159
30
0
10
-106.92530743863091
20
-6.6401094447120546
30
0
10
-106.72216150705768
20
-6.7615275778329176
30
0
0
SPLINE
5
149
100
AcDbEntity
8
0
100
AcDbSpline
70
0
71
3
72
9
73
5
74
0
42
0.000000001
43
0.0000000001
44
0.0000000001
40
0
40
0
40
0
40
0
40
0.038912389339800665
40
0.07742291283091253
40
0.07742291283091253
40
0.07742291283091253
40
0.07742291283091253
10
-106.72216150705768
20
-6.7615275778329176
30
0
10
-106.59385768544574
20
-6.8022465142276234
30
0
10
-106.33857509383233
20
-6.8832638641396304
30
0
10
-106.09461096729368
20
-6.7730322323084735
30
0
10
-105.97326205542083
20
-6.7182024966155218
30
0
0
SPLINE
5
150
100
AcDbEntity
8
0
100
AcDbSpline
70
0
71
3
72
9
73
5
74
0
42
0.000000001
43
0.0000000001
44
0.0000000001
40
0
40
0
40
0
40
0
40
0.036246096384398019
40
0.07465156819379147
40
0.07465156819379147
40
0.07465156819379147
40
0.07465156819379147
10
-105.97326205542083
20
-6.7182024966155218
30
0
10
-105.87450136723574
20
-6.6423999134698164
30
0
10
-105.67109628408618
20
-6.4862787785217924
30
0
10
-105.60864214699515
20
-6.2370357453600311
30
0
10
-105.57651180252333
20
-6.1088094198402176
30
0
0
SPLINE
5
151
100
AcDbEntity
8
0
100
AcDbSpline
70
0
71
3
72
9
73
5
74
0
42
0.000000001
43
0.0000000001
44
0.0000000001
40
0
40
0
40
0
40
0
40
0.078611764833976985
40
0.21261895044918488
40
0.21261895044918488
40
0.21261895044918488
40
0.21261895044918488
10
-105.57651180252333
20
-6.1088094198402176
30
0
10
-105.58615494693566
20
-5.8459498886079686
30
0
10
-105.61223647873069
20
-5.1350013713701514
30
0
10
-105.83399630984607
20
-4.4564975934191153
30
0
10
-105.97376471142782
20
-4.0288575287851058
30
0
0
SPLINE
5
152
100
AcDbEntity
8
0
100
AcDbSpline
70
0
71
3
72
9
73
5
74
0
42
0.000000001
43
0.0000000001
44
0.0000000001
40
0
40
0
40
0
40
0
40
0.14275282125182043
40
0.2468515412983445
40
0.2468515412983445
40
0.2468515412983445
40
0.2468515412983445
10
-105.97376471142782
20
-4.0288575287851058
30
0
10
-106.11426410441663
20
-3.5729522377783374
30
0
10
-106.35721896447913
20
-2.7845900689314851
30
0
10
-106.45833991071926
20
-1.9665311021506549
30
0
10
-106.50098319752286
20
-1.621550913181351
30
0
0
SPLINE
5
153
100
AcDbEntity
8
0
100
AcDbSpline
70
0
71
3
72
9
73
5
74
0
42
0.000000001
43
0.0000000001
44
0.0000000001
40
0
40
0
40
0
40
0
40
0.082443224596089298
40
0.16269377900427087
40
0.16269377900427087
40
0.16269377900427087
40
0.16269377900427087
10
-106.50098319752286
20
-1.621550913181351
30
0
10
-106.49857936154304
20
-1.3435940931478374
30
0
10
-106.49383562230214
20
-0.79507302701031346
30
0
10
-106.27453934155525
20
-0.29248897897112158
30
0
10
-106.16636896025794
20
-0.044583688807602329
30
0
0
SPLINE
5
154
100
AcDbEntity
8
0
100
AcDbSpline
70
0
71
3
72
9
73
5
74
0
42
0.000000001
43
0.0000000001
44
0.0000000001
40
0
40
0
40
0
40
0
40
0.083770801981926657
40
0.17803980333827424
40
0.17803980333827424
40
0.17803980333827424
40
0.17803980333827424
10
-106.16636896025794
20
-0.044583688807602329
30
0
10
-106.01203060591158
20
0.19188009774904646
30
0
10
-105.68401213640578
20
0.69444143247583856
30
0
10
-105.17991604737483
20
1.0219514504768368
30
0
10
-104.9130058733038
20
1.1953623493447241
30
0
0
SPLINE
5
155
100
AcDbEntity
8
0
100
AcDbSpline
70
0
71
3
72
9
73
5
74
0
42
0.000000001
43
0.0000000001
44
0.0000000001
40
0
40
0
40
0
40
0
40
0.090270067562256737
40
0.18219484872037711
40
0.18219484872037711
40
0.18219484872037711
40
0.18219484872037711
10
-104.9130058733038
20
1.1953623493447241
30
0
10
-104.64019850381052
20
1.3311560312057136
30
0
10
-104.08958301456931
20
1.6052325882747009
30
0
10
-103.47466943463925
20
1.624858801047715
30
0
10
-103.16442028839155
20
1.6347610311425465
30
0
0
SPLINE
5
156
100
AcDbEntity
8
0
100
AcDbSpline
70
0
71
3
72
9
73
5
74
0
42
0.000000001
43
0.0000000001
44
0.0000000001
40
0
40
0
40
0
40
0
40
0.093601869738798665
40
0.19036860585493146
40
0.19036860585493146
40
0.19036860585493146
40
0.19036860585493146
10
-103.16442028839155
20
1.6347610311425465
30
0
10
-102.84990420350846
20
1.5988592529125256
30
0
10
-102.21023761602228
20
1.5258417855431849
30
0
10
-101.66985236813879
20
1.1751702644555984
30
0
10
-101.39516780842288
20
0.99691955766425533
30
0
0
SPLINE
5
157
100
AcDbEntity
8
0
100
AcDbSpline
70
0
71
3
72
9
73
5
74
0
42
0.000000001
43
0.0000000001
44
0.0000000001
40
0
40
0
40
0
40
0
40
0.10931032260980349
40
0.23804053200527253
40
0.23804053200527253
40
0.23804053200527253
40
0.23804053200527253
10
-101.39516780842288
20
0.99691955766425533
30
0
10
-101.11965131395429
20
0.75548578009533518
30
0
10
-100.51967053122766
20
0.229725508929568
30
0
10
-100.09653833905077
20
-0.44764850899448483
30
0
10
-99.867712200737117
20
-0.81396637272906247
30
0
0
LWPOLYLINE
5
158
100
AcDbEntity
8
0
100
AcDbPolyline
90
12
70
1
43
0.0
10
-93.725758451393659
20
-11.562259770078303
10
-98.137531558849815
20
-11.399379890891987
10
-96.15480493929951
20
-7.4593107801440963
10
-97.486862690731741
20
-5.2093064953414725
10
-100.3696142237111
20
-11.1802412047701
10
-106.55846964509087
20
-10.962939146366043
10
-105.2786494525383
20
-13.12470796901955
10
-101.23555519328194
20
-13.182416745206034
10
-103.10705950482526
20
-16.792782181218794
10
-101.81604554965563
20
-18.973458602904252
10
-99.091959318573274
20
-13.496499417877953
10
-92.401163208372822
20
-13.799658988859626
0
LINE
5
159
100
AcDbEntity
8
0
100
AcDbLine
10
-120.2645036140116
20
-7.8204339114788173
30
0
11
-119.7359013327696
21
-0.56505110777605783
31
0
0
ARC
5
160
100
AcDbEntity
8
0
100
AcDbCircle
10
-119.03775179697101
20
-0.6159158860042796
30
0
40
0.69999999999999729
210
0
220
-0
230
1
100
AcDbArc
50
55.832988752398101
51
175.83298875239831
0
LINE
5
161
100
AcDbEntity
8
0
100
AcDbLine
10
-118.64462683896821
20
-0.036733041476495684
30
0
11
-112.62558215740184
21
-4.1222074473818839
31
0
0
ARC
5
162
100
AcDbEntity
8
0
100
AcDbCircle
10
-113.01870711540461
20
-4.7013902919096457
30
0
40
0.69999999999996632
210
0
220
0
230
1
100
AcDbArc
50
-64.167011247602005
51
55.832988752399004
0
LINE
5
163
100
AcDbEntity
8
0
100
AcDbLine
10
-112.71368253760883
20
-5.3314379146656234
30
0
11
-114.41238696212302
21
-6.1538306690748081
31
0
0
ARC
5
164
100
AcDbEntity
8
0
100
AcDbCircle
10
19.022698857273745
20
58.44601741410748
30
0
40
148.25000000000003
210
0
220
0
230
1
100
AcDbArc
50
205.83298875239882
51
215.42015894630003
0
ARC
5
165
100
AcDbEntity
8
0
100
AcDbCircle
10
-103.21589077742091
20
-28.489172262574797
30
0
40
1.7499999999999851
210
0
220
0
230
1
100
AcDbArc
50
-144.57984104362242
51
35.420159810150992
0
ARC
5
166
100
AcDbEntity
8
0
100
AcDbCircle
10
19.022698857273745
20
58.44601741410748
30
0
40
151.75000000000003
210
0
220
0
230
1
100
AcDbArc
50
205.83298875239882
51
215.42015895637832
0
LINE
5
167
100
AcDbEntity
8
0
100
AcDbLine
10
-117.56262507590304
20
-7.6789535580538448
30
0
11
-119.2613295004172
21
-8.5013463124630455
31
0
0
ARC
5
168
100
AcDbEntity
8
0
100
AcDbCircle
10
-119.56635407821301
20
-7.8712986897070403
30
0
40
0.70000000000000062
210
0
220
0
230
1
100
AcDbArc
50
175.83298875239822
51
295.83298875239905
0
ARC
5
169
100
AcDbEntity
8
0
100
AcDbCircle
10
0
20
0
30
0
40
34.999999999999993
210
0
220
-0
230
1
100
AcDbArc
50
58.963622378422684
51
79.736234010275496
0
ARC
5
170
100
AcDbEntity
8
0
100
AcDbCircle
10
8.0180985496344963
20
44.279906228992289
30
0
40
10.000000000000011
210
0
220
0
230
1
100
AcDbArc
50
196.12403397151863
51
259.73623401027578
0
LINE
5
171
100
AcDbEntity
8
0
100
AcDbLine
10
-1.58852888955475
20
41.502729741151356
30
0
11
-22.401900017941138
21
113.49898315154647
31
0
0
SPLINE
5
172
100
AcDbEntity
8
0
100
AcDbSpline
70
0
71
3
72
18
73
14
74
0
42
0.000000001
43
0.0000000001
44
0.0000000001
40
0
40
0
40
0
40
0
40
1.1719334201607829
40
1.1719334201607829
40
2.3438668403215654
40
2.3438668403215654
40
3.5158002604823495
40
3.5158002604823495
40
4.6877336806431318
40
4.6877336806431318
40
5.5892311060825239
40
5.5892311060825239
40
6.4907285315219179
40
6.4907285315219179
40
6.4907285315219179
40
6.4907285315219179
10
15.43638549106724
20
150.4428946179122
30
0
10
11.710629191118507
20
151.61722440641597
30
0
10
7.7911204311850373
20
152.05260390820175
30
0
10
0.0058327816818387612
20
151.39644992505987
30
0
10
-3.785514514649039
20
150.31118962984266
30
0
10
-10.73880890910571
20
146.74847452768847
30
0
10
-13.834278722982251
20
144.30508121895787
30
0
10
-18.914394156365052
20
138.36928565150393
30
0
10
-20.850471103451341
20
134.93363283366398
30
0
10
-23.014463640034762
20
128.36970977006919
30
0
10
-23.521221498279058
20
125.39057572834686
30
0
10
-23.632523787486321
20
119.38162361565794
30
0
10
-23.236439169201009
20
116.38576645274129
30
0
10
-22.401900017941205
20
113.49898315154645
30
0
0
SPLINE
5
173
100
AcDbEntity
8
0
100
AcDbSpline
70
0
71
3
72
26
73
22
74
0
42
0.000000001
43
0.0000000001
44
0.0000000001
40
-0.24868357210121583
40
-0.24868357210121583
40
-0.24868357210121583
40
-0.24868357210121583
40
-0.23342868777419934
40
-0.23342868777419934
40
-0.23342868777419934
40
-0.21349307954047445
40
-0.21349307954047445
40
-0.21349307954047445
40
-0.18812188855790909
40
-0.18812188855790909
40
-0.18812188855790909
40
-0.16389542354465883
40
-0.16389542354465883
40
-0.16389542354465883
40
-0.14509921441379761
40
-0.14509921441379761
40
-0.14509921441379761
40
-0.12590253117849265
40
-0.12590253117849265
40
-0.12590253117849265
40
-0.1162119340960783
40
-0.1162119340960783
40
-0.1162119340960783
40
-0.1162119340960783
10
15.436385491067238
20
150.4428946179122
30
0
10
18.708867329361546
20
149.41143346058971
30
0
10
21.815555848359026
20
148.14672292262156
30
0
10
24.835570810516401
20
146.60161681565015
30
0
10
28.782230375737225
20
144.58241893988739
30
0
10
32.617154064638598
20
142.05562917757985
30
0
10
36.412360797270367
20
138.9778885397624
30
0
10
41.242357138642447
20
135.06098043235031
30
0
10
45.987501191933653
20
130.25289617178001
30
0
10
50.232100981966319
20
125.15958234921867
30
0
10
54.285188138148314
20
120.29607439610049
30
0
10
57.853191939805946
20
115.22945888891493
30
0
10
60.554671793498429
20
110.43953514738233
30
0
10
62.650626785901991
20
106.72325180528175
30
0
10
64.227888618003718
20
103.17836147857534
30
0
10
65.349296793077471
20
99.56106534377183
30
0
10
66.494597814389621
20
95.866698698632547
30
0
10
67.187777235805939
20
92.032820732185684
30
0
10
67.430511373470267
20
87.710293615002087
30
0
10
67.553044974583528
20
85.52825684557726
30
0
10
67.554598225329215
20
83.219291368293327
30
0
10
67.44031922318041
20
80.826894430528853
30
0
0
SPLINE
5
174
100
AcDbEntity
8
0
100
AcDbSpline
70
0
71
3
72
10
73
6
74
0
42
0.000000001
43
0.0000000001
44
0.0000000001
40
0
40
0
40
0
40
0
40
1.0799572300446079
40
1.0799572300446079
40
2.1599144600892144
40
2.1599144600892144
40
2.1599144600892144
40
2.1599144600892144
10
59.099744209055004
20
61.465304109951219
30
0
10
61.594803654989938
20
64.060232221218783
30
0
10
63.602545072268477
20
67.083193264413708
30
0
10
66.450981252337172
20
73.695477702764705
30
0
10
67.268558605230936
20
77.231136953790596
30
0
10
67.440319223180381
20
80.826894430528625
30
0
0
LINE
5
175
100
AcDbEntity
8
0
100
AcDbLine
10
59.099744209055004
20
61.465304109951219
30
0
11
30.409617862738941
21
31.626810484811575
31
0
0
ARC
5
176
100
AcDbEntity
8
0
100
AcDbCircle
10
23.201198753881247
20
38.557805647921668
30
0
40
10.000000000000016
210
0
220
0
230
1
100
AcDbArc
50
238.96362237842294
51
316.12403397151849
0
ARC
5
177
100
AcDbEntity
8
0
100
AcDbCircle
10
0
20
0
30
0
40
35.000000000000007
210
0
220
0
230
1
100
AcDbArc
50
132.51183393276153
51
159.73623401027552
0
ARC
5
178
100
AcDbEntity
8
0
100
AcDbCircle
10
-42.214866755467277
20
15.585410640023046
30
0
40
9.9999999999999893
210
0
220
0
230
1
100
AcDbArc
50
276.12403397151849
51
339.73623401027584
0
LINE
5
179
100
AcDbEntity
8
0
100
AcDbLine
10
-41.148055167098683
20
5.6424778214366569
30
0
11
-85.847915766416662
21
0.84647545916850975
31
0
0
SPLINE
5
180
100
AcDbEntity
8
0
100
AcDbSpline
70
0
71
3
72
16
73
12
74
0
42
0.000000001
43
0.0000000001
44
0.0000000001
40
0
40
0
40
0
40
0
40
1.1719334201607832
40
1.1719334201607832
40
2.3438668403215654
40
2.3438668403215654
40
3.5158002604823464
40
3.5158002604823464
40
4.1202516698860148
40
4.1202516698860148
40
4.7247030792896831
40
4.7247030792896831
40
4.7247030792896831
40
4.7247030792896831
10
-118.87742623401135
20
27.477424210018249
30
0
10
-118.46101879602971
20
23.593236353545734
30
0
10
-117.28992418025098
20
19.827517082189409
30
0
10
-113.57019540172007
20
12.956937801716094
30
0
10
-111.05712387349953
20
9.9177642752754629
30
0
10
-105.00747306054235
20
4.9737813792303731
30
0
10
-101.52873173489203
20
3.1162391807909624
30
0
10
-95.86451707866317
20
1.3904750272078703
30
0
10
-93.882886696508606
20
0.99890566741470455
30
0
10
-89.871163429681516
20
0.61895093244730426
30
0
10
-87.851255685016852
20
0.63153020311599295
30
0
10
-85.847915766416662
20
0.84647545916851641
30
0
0
SPLINE
5
181
100
AcDbEntity
8
0
100
AcDbSpline
70
0
71
3
72
20
73
16
74
0
42
0.000000001
43
0.0000000001
44
0.0000000001
40
-0.53558927938036616
40
-0.53558927938036616
40
-0.53558927938036616
40
-0.53558927938036616
40
-0.52600835182852657
40
-0.52600835182852657
40
-0.52600835182852657
40
-0.49980154586630349
40
-0.49980154586630349
40
-0.49980154586630349
40
-0.46735005911279009
40
-0.46735005911279009
40
-0.46735005911279009
40
-0.4354444945542168
40
-0.4354444945542168
40
-0.4354444945542168
40
-0.40956642601429977
40
-0.40956642601429977
40
-0.40956642601429977
40
-0.40956642601429977
10
-118.87742623401576
20
27.477424210059482
30
0
10
-119.0985585461093
20
29.540114169379713
30
0
10
-119.25838258428884
20
31.660384547846956
30
0
10
-119.35575053842874
20
33.85556220704099
30
0
10
-119.62208206711175
20
39.860053385565692
30
0
10
-119.40801522506922
20
46.411260229465761
30
0
10
-118.64649393785186
20
53.184585831974275
30
0
10
-117.70351378222834
20
61.571891266443657
30
0
10
-115.91296601207199
20
70.220634069839377
30
0
10
-113.29908287488283
20
78.351426062541762
30
0
10
-110.72917235535554
20
86.345436038291496
30
0
10
-107.37569540523887
20
93.842743061157407
30
0
10
-103.36289743659688
20
100.66143873720948
30
0
10
-100.10818427586536
20
106.19196848959078
30
0
10
-96.417622309916823
20
111.29907319729737
30
0
10
-92.330425842625459
20
116.06914399684587
30
0
0
SPLINE
5
182
100
AcDbEntity
8
0
100
AcDbSpline
70
0
71
3
72
18
73
14
74
0
42
0.000000001
43
0.0000000001
44
0.0000000001
40
0
40
0
40
0
40
0
40
1.1719334201607854
40
1.1719334201607854
40
2.3438668403215712
40
2.3438668403215712
40
3.5158002604823539
40
3.5158002604823539
40
4.687733680643138
40
4.687733680643138
40
5.5804418546209913
40
5.5804418546209913
40
6.4731500285988437
40
6.4731500285988437
40
6.4731500285988437
40
6.4731500285988437
10
-40.72945792104499
20
104.88088507261588
30
0
10
-41.814346567640172
20
108.63366098962238
30
0
10
-43.621863673382961
20
112.13865544642509
30
0
10
-48.478675367340429
20
118.258510183634
30
0
10
-51.481536188593964
20
120.81486131717395
30
0
10
-58.298123716983945
20
124.63263243431786
30
0
10
-62.046680132021727
20
125.85755244519591
30
0
10
-69.802328263212146
20
126.80156722276175
30
0
10
-73.735271756075775
20
126.5116366936482
30
0
10
-80.371197754105324
20
124.68726871898437
30
0
10
-83.107169234289856
20
123.47592292075373
30
0
10
-88.132626643807583
20
120.28785220529554
30
0
10
-90.39426199284064
20
118.32879525582256
30
0
10
-92.330425842625601
20
116.06914399684572
30
0
0
LINE
5
183
100
AcDbEntity
8
0
100
AcDbLine
10
-40.72945792104499
20
104.88088507261588
30
0
11
-20.80178376793323
21
35.948376765469519
31
0
0
ARC
5
184
100
AcDbEntity
8
0
100
AcDbCircle
10
-30.408411207122494
20
33.171200277628621
30
0
40
10.00000000000002
210
0
220
0
230
1
100
AcDbArc
50
-47.488166067238218
51
16.124033971518422
0
ARC
5
185
100
AcDbEntity
8
0
100
AcDbCircle
10
0
20
0
30
0
40
35.000000000000014
210
0
220
0
230
1
100
AcDbArc
50
212.5118339327615
51
263.28444556461437
0
ARC
5
186
100
AcDbEntity
8
0
100
AcDbCircle
10
-5.2623159705905262
20
-44.691252283032611
30
0
40
10
210
0
220
-0
230
1
100
AcDbArc
50
6.1240339715184655
51
83.284445564614543
0
LINE
5
187
100
AcDbEntity
8
0
100
AcDbLine
10
4.6806168479958732
20
-43.624440694664017
30
0
11
4.6964774222717285
21
-43.772264946114284
31
0
0
SPLINE
5
188
100
AcDbEntity
8
0
100
AcDbSpline
70
0
71
3
72
14
73
10
74
0
42
0.000000001
43
0.0000000001
44
0.0000000001
40
0
40
0
40
0
40
0
40
0.58596671008039125
40
0.58596671008039125
40
1.1719334201607823
40
1.1719334201607823
40
1.6116893292695735
40
1.6116893292695735
40
2.0514452383783639
40
2.0514452383783639
40
2.0514452383783639
40
2.0514452383783639
10
-5.5914261532946421
20
-59.641173157861267
30
0
10
-3.7334310816641771
20
-59.038734838619661
30
0
10
-2.0108690555881736
20
-58.079148404907961
30
0
10
0.96947320301251771
20
-55.553703794473222
30
0
10
2.198759739132953
20
-54.011990244699589
30
0
10
3.772806672263076
20
-50.97678797389338
30
0
10
4.2532666079702262
20
-49.583590378260098
30
0
10
4.7947477590478229
20
-46.702323540648393
30
0
10
4.8528563222353212
20
-45.229752766395983
30
0
10
4.6964774222717098
20
-43.772264946114284
30
0
0
SPLINE
5
189
100
AcDbEntity
8
0
100
AcDbSpline
70
0
71
3
72
29
73
25
74
0
42
0.000000001
43
0.0000000001
44
0.0000000001
40
-0.81142948260755265
40
-0.81142948260755265
40
-0.81142948260755265
40
-0.81142948260755265
40
-0.8112935560244362
40
-0.8112935560244362
40
-0.8112935560244362
40
-0.79305882270797157
40
-0.79305882270797157
40
-0.79305882270797157
40
-0.77555939141193586
40
-0.77555939141193586
40
-0.77555939141193586
40
-0.74899001135592957
40
-0.74899001135592957
40
-0.74899001135592957
40
-0.73058251063821866
40
-0.73058251063821866
40
-0.73058251063821866
40
-0.70783099994997578
40
-0.70783099994997578
40
-0.70783099994997578
40
-0.68562818894821553
40
-0.68562818894821553
40
-0.68562818894821553
40
-0.66986478036692954
40
-0.66986478036692954
40
-0.66986478036692954
40
-0.66986478036692954
10
-5.5914261532946465
20
-59.641173157861267
30
0
10
-5.6113784485499076
20
-59.647642511522172
30
0
10
-5.6313206682101091
20
-59.654098516687895
30
0
10
-5.6512527057731958
20
-59.660541129451722
30
0
10
-8.3251622610899148
20
-60.524826267179314
30
0
10
-10.821616232155886
20
-61.159600129808538
30
0
10
-13.463957997773084
20
-61.631927988788348
30
0
10
-15.999749302508699
20
-62.085209579145229
30
0
10
-18.73296891655988
20
-62.396385862843587
30
0
10
-21.785512419042604
20
-62.555345833686324
30
0
10
-26.420188088378744
20
-62.796694698547377
30
0
10
-31.720912559729022
20
-62.661505134664957
30
0
10
-36.694580295503386
20
-62.050190622198855
30
0
10
-40.140381146819294
20
-61.626666539090891
30
0
10
-43.390916429975505
20
-60.984603417233643
30
0
10
-46.505496118771397
20
-60.123097203547573
30
0
10
-50.355089508212046
20
-59.058283021043827
30
0
10
-54.088707839787759
20
-57.642250515034483
30
0
10
-58.04100111639017
20
-55.881893165208716
30
0
10
-61.897976674908932
20
-54.1639904698972
30
0
10
-65.937883364844609
20
-52.145467438064031
30
0
10
-69.858636426153495
20
-49.947684734286582
30
0
10
-72.642267401836719
20
-48.387317142553243
30
0
10
-75.348963687261715
20
-46.735166206005673
30
0
10
-77.933036050757806
20
-44.961504812521078
30
0
0
SPLINE
5
190
100
AcDbEntity
8
0
100
AcDbSpline
70
0
71
3
72
20
73
16
74
0
42
0.000000001
43
0.0000000001
44
0.0000000001
40
0
40
0
40
0
40
0
40
0.58596671008039092
40
0.58596671008039092
40
1.1719334201607809
40
1.1719334201607809
40
1.7579001302411716
40
1.7579001302411716
40
2.3438668403215623
40
2.3438668403215623
40
2.9298335504019528
40
2.9298335504019528
40
3.2948479451556345
40
3.2948479451556345
40
3.659862339909318
40
3.659862339909318
40
3.659862339909318
40
3.659862339909318
10
-71.044710216833167
20
-17.680026945701886
30
0
10
-72.986786094252111
20
-17.888398971274381
30
0
10
-74.86959497767063
20
-18.474109450916764
30
0
10
-78.304723423888348
20
-20.334271545133504
30
0
10
-79.824201286452052
20
-21.590938996220469
30
0
10
-82.29593058524992
20
-24.615978621124434
30
0
10
-83.224550942191016
20
-26.355429767353375
30
0
10
-84.362764560443537
20
-30.092377749062443
30
0
10
-84.561475879190112
20
-32.054147325043417
30
0
10
-84.195737807359862
20
-35.943433393409805
30
0
10
-83.634785072092356
20
-37.833766191156933
30
0
10
-82.162040488751487
20
-40.640815189369675
30
0
10
-81.467759840066961
20
-41.645472800614236
30
0
10
-79.851838122030529
20
-43.464916438456498
30
0
10
-78.936183100594178
20
-44.272962487074921
30
0
10
-77.933036050757664
20
-44.96150481252117
30
0
0
LINE
5
191
100
AcDbEntity
8
0
100
AcDbLine
10
-71.044710216833167
20
-17.680026945701886
30
0
11
-39.014431990361459
21
-14.243387815736131
31
0
0
ARC
5
192
100
AcDbEntity
8
0
100
AcDbCircle
10
-37.947620401992864
20
-24.18632063432252
30
0
40
9.9999999999999929
210
0
220
-0
230
1
100
AcDbArc
50
32.511833932761675
51
96.1240339715185
0
LINE
5
193
100
AcDbEntity
8
0
100
AcDbLine
10
-4.7512991620681477
20
3.6640355173674988
30
0
11
48.741121444547133
21
9.4034219976170963
31
0
0
ARC
5
194
100
AcDbEntity
8
0
100
AcDbCircle
10
-37.016604269111667
20
-15.891955440415783
30
0
40
89.410534274836309
210
0
220
-0
230
1
100
AcDbArc
50
16.43412212565261
51
16.52633148282451
0
SPLINE
5
195
100
AcDbEntity
8
0
100
AcDbSpline
70
4
71
5
72
131
73
125
74
0
42
0.000000001
43
0.0000000001
44
0.0000000001
40
0
40
0
40
0
40
0
40
0
40
0
40
0.0083333333333333332
40
0.016666666666666666
40
0.025000000000000001
40
0.033333333333333333
40
0.041666666666666664
40
0.049999999999999996
40
0.058333333333333327
40
0.066666666666666666
40
0.074999999999999997
40
0.083333333333333329
40
0.09166666666666666
40
0.099999999999999992
40
0.10833333333333332
40
0.11666666666666665
40
0.12499999999999999
40
0.13333333333333333
40
0.14166666666666666
40
0.14999999999999999
40
0.15833333333333333
40
0.16666666666666666
40
0.17499999999999999
40
0.18333333333333332
40
0.19166666666666665
40
0.19999999999999998
40
0.20833333333333331
40
0.21666666666666665
40
0.22499999999999998
40
0.23333333333333331
40
0.24166666666666664
40
0.24999999999999997
40
0.2583333333333333
40
0.26666666666666666
40
0.27500000000000002
40
0.28333333333333338
40
0.29166666666666674
40
0.3000000000000001
40
0.30833333333333346
40
0.31666666666666682
40
0.32500000000000018
40
0.33333333333333354
40
0.3416666666666669
40
0.35000000000000026
40
0.35833333333333361
40
0.36666666666666697
40
0.37500000000000033
40
0.38333333333333369
40
0.39166666666666705
40
0.40000000000000041
40
0.40833333333333377
40
0.41666666666666713
40
0.42500000000000049
40
0.43333333333333385
40
0.44166666666666721
40
0.45000000000000057
40
0.45833333333333393
40
0.46666666666666728
40
0.47500000000000064
40
0.483333333333334
40
0.49166666666666736
40
0.50000000000000067
40
0.50833333333333397
40
0.51666666666666727
40
0.52500000000000058
40
0.53333333333333388
40
0.54166666666666718
40
0.55000000000000049
40
0.55833333333333379
40
0.5666666666666671
40
0.5750000000000004
40
0.5833333333333337
40
0.59166666666666701
40
0.60000000000000031
40
0.60833333333333361
40
0.61666666666666692
40
0.62500000000000022
40
0.63333333333333353
40
0.64166666666666683
40
0.65000000000000013
40
0.65833333333333344
40
0.66666666666666674
40
0.67500000000000004
40
0.68333333333333335
40
0.69166666666666665
40
0.69999999999999996
40
0.70833333333333326
40
0.71666666666666656
40
0.72499999999999987
40
0.73333333333333317
40
0.74166666666666647
40
0.74999999999999978
40
0.75833333333333308
40
0.76666666666666639
40
0.77499999999999969
40
0.78333333333333299
40
0.7916666666666663
40
0.7999999999999996
40
0.8083333333333329
40
0.81666666666666621
40
0.82499999999999951
40
0.83333333333333282
40
0.84166666666666612
40
0.84999999999999942
40
0.85833333333333273
40
0.86666666666666603
40
0.87499999999999933
40
0.88333333333333264
40
0.89166666666666594
40
0.89999999999999925
40
0.90833333333333255
40
0.91666666666666585
40
0.92499999999999916
40
0.93333333333333246
40
0.94166666666666576
40
0.94999999999999907
40
0.95833333333333237
40
0.96666666666666567
40
0.97499999999999898
40
0.98333333333333228
40
0.99166666666666559
40
1
40
1
40
1
40
1
40
1
40
1
41
1
41
1
41
1
41
1
41
1
41
1
41
1
41
1
41
1
41
1
41
1
41
1
41
1
41
1
41
1
41
1
41
1
41
1
41
1
41
1
41
1
41
1
41
1
41
1
41
1
41
1
41
1
41
1
41
1
41
1
41
1
41
1
41
1
41
1
41
1
41
1
41
1
41
1
41
1
41
1
41
1
41
1
41
1
41
1
41
1
41
1
41
1
41
1
41
1
41
1
41
1
41
1
41
1
41
1
41
1
41
1
41
1
41
1
41
1
41
1
41
1
41
1
41
1
41
1
41
1
41
1
41
1
41
1
41
1
41
1
41
1
41
1
41
1
41
1
41
1
41
1
41
1
41
1
41
1
41
1
41
1
41
1
41
1
41
1
41
1
41
1
41
1
41
1
41
1
41
1
41
1
41
1
41
1
41
1
41
1
41
1
41
1
41
1
41
1
41
1
41
1
41
1
41
1
41
1
41
1
41
1
41
1
41
1
41
1
41
1
41
1
41
1
41
1
41
1
41
1
41
1
41
1
41
1
41
1
41
1
41
1
41
1
41
1
41
1
41
1
10
48.700301114812845
20
9.5414039663753378
30
0
10
49.466578485237449
20
10.341500663690848
30
0
10
50.976492940341977
20
11.923533769698873
30
0
10
53.173441603664678
20
14.242092711029583
30
0
10
55.966863838567136
20
17.224596284925454
30
0
10
59.23482885785716
20
20.788412190331265
30
0
10
62.287260197617584
20
24.241237538066432
30
0
10
65.140212588552856
20
27.686996733514896
30
0
10
67.822058351156358
20
31.305867078401249
30
0
10
70.365163678741013
20
35.321744021665275
30
0
10
72.791452134468642
20
39.942860594404202
30
0
10
75.101405088208566
20
45.316347336664649
30
0
10
77.258182318983756
20
51.464590055182803
30
0
10
79.186735257575251
20
58.275798020852903
30
0
10
80.790236337940158
20
65.556731618324477
30
0
10
81.961869636373251
20
73.068802099780171
30
0
10
82.598884744743259
20
80.572269848781076
30
0
10
82.614796086665962
20
87.863811060142041
30
0
10
81.954537207453555
20
94.824615397472456
30
0
10
80.601050353205721
20
101.43791033433169
30
0
10
78.566054775057395
20
107.74967838733136
30
0
10
75.884324896931275
20
113.84235574512314
30
0
10
72.606464369104515
20
119.80211292789427
30
0
10
68.792587080778205
20
125.69174364389612
30
0
10
64.504980908574709
20
131.51402825317408
30
0
10
59.80386921156186
20
137.20912951389349
30
0
10
54.745544011657174
20
142.67969373670661
30
0
10
49.379893931925963
20
147.80783585798261
30
0
10
43.748038123462806
20
152.47595961612387
30
0
10
37.880234104188254
20
156.58474213457902
30
0
10
31.792884215501292
20
160.07521382811458
30
0
10
25.488433903552252
20
162.93986353449316
30
0
10
18.963089347985729
20
165.20538012849894
30
0
10
12.212953096454392
20
166.92085945448883
30
0
10
5.2410209921447795
20
168.14351692717258
30
0
10
-1.9367252896574199
20
168.92625865242863
30
0
10
-9.2835317115946978
20
169.30255588245245
30
0
10
-16.738991154316476
20
169.27858611604131
30
0
10
-24.228702957532494
20
168.84365647966032
30
0
10
-31.671581589964589
20
167.9772032504215
30
0
10
-38.988044491682729
20
166.65709055093413
30
0
10
-46.107935126059971
20
164.86747208974606
30
0
10
-52.978301947120059
20
162.60656222060422
30
0
10
-59.571954266081057
20
159.89521249651739
30
0
10
-65.882262273821794
20
156.77068995237778
30
0
10
-71.916913304121152
20
153.27931439930975
30
0
10
-77.692090708126059
20
149.46957415887294
30
0
10
-83.226396018846046
20
145.3849080868286
30
0
10
-88.535079567345832
20
141.05694461159177
30
0
10
-93.623613171414036
20
136.49769654732094
30
0
10
-98.488774639196549
20
131.703822539344
30
0
10
-103.12053608233255
20
126.66218470423198
30
0
10
-107.5036617878626
20
121.3549343902573
30
0
10
-111.61942761242501
20
115.76480446618586
30
0
10
-115.44728266529319
20
109.8802882719516
30
0
10
-118.96654497488964
20
103.70093553143553
30
0
10
-122.1574144258619
20
97.237780603698113
30
0
10
-125.00199204105022
20
90.513748602134868
30
0
10
-127.4852743945752
20
83.563994670322558
30
0
10
-129.59621275904445
20
76.436459126855254
30
0
10
-131.32862322758857
20
69.191911191975578
30
0
10
-132.6824826487059
20
61.905320375709081
30
0
10
-133.66291395101018
20
54.659212977771062
30
0
10
-134.27844963670296
20
47.534453553452764
30
0
10
-134.5395744177608
20
40.602130279360942
30
0
10
-134.4570725493393
20
33.914433379964571
30
0
10
-134.04064606009052
20
27.497219512367916
30
0
10
-133.29694563990981
20
21.338650067265476
30
0
10
-132.23020109344156
20
15.395457991690138
30
0
10
-130.84415027980691
20
9.6082015353168799
30
0
10
-129.14366766362261
20
3.9141538690854083
30
0
10
-127.13628937862444
20
-1.7398019554728286
30
0
10
-124.83433843675942
20
-7.3819213398197538
30
0
10
-122.25482354474025
20
-13.009733193544225
30
0
10
-119.41596726118819
20
-18.59861504508342
30
0
10
-116.33452050629802
20
-24.106897543456007
30
0
10
-113.02280702335833
20
-29.482349803714918
30
0
10
-109.48576956792805
20
-34.668098034162576
30
0
10
-105.7183372389288
20
-39.608706154117648
30
0
10
-101.71294513692054
20
-44.254755383047424
30
0
10
-97.466397178130222
20
-48.567360245114813
30
0
10
-92.987481193512863
20
-52.523041948733997
30
0
10
-88.303115956048714
20
-56.117697576669556
30
0
10
-83.46812150565799
20
-59.372932968687415
30
0
10
-78.552207040976697
20
-62.327360723360165
30
0
10
-73.621224576703057
20
-65.024047306858833
30
0
10
-68.719675395082007
20
-67.498921594946239
30
0
10
-63.854234415614641
20
-69.769557098016548
30
0
10
-58.97269957323536
20
-71.821723698067089
30
0
10
-53.991293940396112
20
-73.619795555020872
30
0
10
-48.830519117819733
20
-75.121139750954697
30
0
10
-43.445483352845898
20
-76.288326884219046
30
0
10
-37.864370196449499
20
-77.104037694885264
30
0
10
-32.205687003636143
20
-77.579368186355453
30
0
10
-26.625326187834766
20
-77.74039245531138
30
0
10
-21.272074349907136
20
-77.617543138284773
30
0
10
-16.245558266858239
20
-77.235234982421787
30
0
10
-11.539164621771874
20
-76.598116101968174
30
0
10
-7.04475209683355
20
-75.691754566258439
30
0
10
-2.626573738683895
20
-74.499824729543533
30
0
10
1.8296317691793673
20
-73.015053470346047
30
0
10
6.3433306479619267
20
-71.256804699986802
30
0
10
10.827289769581892
20
-69.270929761654855
30
0
10
15.156542261160995
20
-67.105382478338782
30
0
10
19.213684946549407
20
-64.793665735278097
30
0
10
22.952524916652806
20
-62.330849564669393
30
0
10
26.425801043202256
20
-59.666455502742096
30
0
10
29.719622083987307
20
-56.744428918867513
30
0
10
32.910320322490861
20
-53.530478153102251
30
0
10
36.000140607555743
20
-50.053392214557405
30
0
10
38.906320674822851
20
-46.407998102846761
30
0
10
41.524446374864759
20
-42.703105632421
30
0
10
43.767774245677877
20
-39.027904374858167
30
0
10
45.630119155098484
20
-35.399272165572675
30
0
10
47.185542841688253
20
-31.761807560081913
30
0
10
48.524065356764801
20
-28.041539502182367
30
0
10
49.705157884095044
20
-24.184865248861893
30
0
10
50.701620879338158
20
-20.205105034880798
30
0
10
51.443004436772284
20
-16.154462137246842
30
0
10
51.854875078511647
20
-12.098017318319068
30
0
10
51.9098272511171
20
-8.0817764409526713
30
0
10
51.69136219265684
20
-4.9138592632562244
30
0
10
51.398813102488283
20
-2.5641964409780158
30
0
10
51.150055983324165
20
-1.0089797096092927
30
0
10
51.012241617633521
20
-0.23418001862160143
30
0
0
ARC
5
196
100
AcDbEntity
8
0
100
AcDbCircle
10
-37.016604269111667
20
-15.891955440415783
30
0
40
89.410534274836294
210
0
220
-0
230
1
100
AcDbArc
50
10.085773345611498
51
11.065916781408557
0
LINE
5
197
100
AcDbEntity
8
0
100
AcDbLine
10
50.731521267431944
20
1.269341251112579
30
0
11
-3.8658455437224859
21
-4.5885987220589461
31
0
0
ARC
5
198
100
AcDbEntity
8
0
100
AcDbCircle
10
0
20
0
30
0
40
6
210
0
220
0
230
1
100
AcDbArc
50
142.36184876862552
51
229.88621917440813
0
CIRCLE
5
199
100
AcDbEntity
8
0
100
AcDbCircle
10
-7.2856448508858263
20
-16.459628765763856
30
0
40
3.2000000000000006
210
0
220
0
230
1
0
CIRCLE
5
200
100
AcDbEntity
8
0
100
AcDbCircle
10
7.2856448508858236
20
16.459628765763853
30
0
40
3.2000000000000006
210
0
220
0
230
1
0
ENDSEC
0
SECTION
2
OBJECTS
0
DICTIONARY
5
C
100
AcDbDictionary
3
ACAD_GROUP
350
D
3
ACAD_MLINESTYLE
350
17
0
DICTIONARY
5
D
100
AcDbDictionary
0
DICTIONARY
5
1A
330
C
100
AcDbDictionary
0
DICTIONARY
5
17
100
AcDbDictionary
0
ENDSEC
0
EOF
