0
SECTION
2
HEADER
9
$INSUNITS
70
4
9
$ACADVER
1
AC1014
9
$HANDSEED
5
FFFF
0
ENDSEC
0
SECTION
2
TABLES
0
TABLE
2
VPORT
5
8
100
AcDbSymbolTable
0
ENDTAB
0
TABLE
2
LTYPE
5
5
100
AcDbSymbolTable
0
LTYPE
5
14
100
AcDbSymbolTableRecord
100
AcDbLinetypeTableRecord
2
BYBLOCK
70
0
0
LTYPE
5
15
100
AcDbSymbolTableRecord
100
AcDbLinetypeTableRecord
2
BYLAYER
70
0
0
ENDTAB
0
TABLE
2
LAYER
5
2
100
AcDbSymbolTable
70
2
0
LAYER
5
50
100
AcDbSymbolTableRecord
100
AcDbLayerTableRecord
2
0
70
0
6
CONTINUOUS
0
ENDTAB
0
TABLE
2
STYLE
5
3
100
AcDbSymbolTable
70
1
0
STYLE
5
11
100
AcDbSymbolTableRecord
100
AcDbTextStyleTableRecord
2
STANDARD
70
0
0
ENDTAB
0
TABLE
2
VIEW
5
6
100
AcDbSymbolTable
70
0
0
ENDTAB
0
TABLE
2
UCS
5
7
100
AcDbSymbolTable
70
0
0
ENDTAB
0
TABLE
2
APPID
5
9
100
AcDbSymbolTable
70
2
0
APPID
5
12
100
AcDbSymbolTableRecord
100
AcDbRegAppTableRecord
2
ACAD
70
0
0
ENDTAB
0
TABLE
2
DIMSTYLE
5
A
100
AcDbSymbolTable
70
1
0
ENDTAB
0
TABLE
2
BLOCK_RECORD
5
1
100
AcDbSymbolTable
70
1
0
BLOCK_RECORD
5
1F
100
AcDbSymbolTableRecord
100
AcDbBlockTableRecord
2
*MODEL_SPACE
0
BLOCK_RECORD
5
1B
100
AcDbSymbolTableRecord
100
AcDbBlockTableRecord
2
*PAPER_SPACE
0
ENDTAB
0
ENDSEC
0
SECTION
2
BLOCKS
0
BLOCK
5
20
100
AcDbEntity
100
AcDbBlockBegin
2
*MODEL_SPACE
0
ENDBLK
5
21
100
AcDbEntity
100
AcDbBlockEnd
0
BLOCK
5
1C
100
AcDbEntity
100
AcDbBlockBegin
2
*PAPER_SPACE
0
ENDBLK
5
1D
100
AcDbEntity
100
AcDbBlockEnd
0
ENDSEC
0
SECTION
2
ENTITIES
0
CIRCLE
5
100
100
AcDbEntity
8
0
100
AcDbCircle
10
-7.2856448508858263
20
-16.459628765763856
30
0
40
3.2000000000000006
210
0
220
0
230
1
0
CIRCLE
5
101
100
AcDbEntity
8
0
100
AcDbCircle
10
7.2856448508858236
20
16.459628765763853
30
0
40
3.2000000000000006
210
0
220
0
230
1
0
LINE
5
102
100
AcDbEntity
8
0
100
AcDbLine
10
-4.7512991620681486
20
3.6640355173674992
30
0
11
48.473360713799195
21
9.3746930244175442
31
0
0
SPLINE
5
103
100
AcDbEntity
8
0
100
AcDbSpline
70
4
71
5
72
131
73
125
74
0
42
0.000000001
43
0.0000000001
44
0.0000000001
40
7.1873821543784377e-06
40
7.1873821543784377e-06
40
7.1873821543784377e-06
40
7.1873821543784377e-06
40
7.1873821543784377e-06
40
7.1873821543784377e-06
40
0.0083333333333333332
40
0.016666666666666666
40
0.025000000000000001
40
0.033333333333333333
40
0.041666666666666664
40
0.049999999999999996
40
0.058333333333333327
40
0.066666666666666666
40
0.074999999999999997
40
0.083333333333333329
40
0.09166666666666666
40
0.099999999999999992
40
0.10833333333333332
40
0.11666666666666665
40
0.12499999999999999
40
0.13333333333333333
40
0.14166666666666666
40
0.14999999999999999
40
0.15833333333333333
40
0.16666666666666666
40
0.17499999999999999
40
0.18333333333333332
40
0.19166666666666665
40
0.19999999999999998
40
0.20833333333333331
40
0.21666666666666665
40
0.22499999999999998
40
0.23333333333333331
40
0.24166666666666664
40
0.24999999999999997
40
0.2583333333333333
40
0.26666666666666666
40
0.27500000000000002
40
0.28333333333333338
40
0.29166666666666674
40
0.3000000000000001
40
0.30833333333333346
40
0.31666666666666682
40
0.32500000000000018
40
0.33333333333333354
40
0.3416666666666669
40
0.35000000000000026
40
0.35833333333333361
40
0.36666666666666697
40
0.37500000000000033
40
0.38333333333333369
40
0.39166666666666705
40
0.40000000000000041
40
0.40833333333333377
40
0.41666666666666713
40
0.42500000000000049
40
0.43333333333333385
40
0.44166666666666721
40
0.45000000000000057
40
0.45833333333333393
40
0.46666666666666728
40
0.47500000000000064
40
0.483333333333334
40
0.49166666666666736
40
0.50000000000000067
40
0.50833333333333397
40
0.51666666666666727
40
0.52500000000000058
40
0.53333333333333388
40
0.54166666666666718
40
0.55000000000000049
40
0.55833333333333379
40
0.5666666666666671
40
0.5750000000000004
40
0.5833333333333337
40
0.59166666666666701
40
0.60000000000000031
40
0.60833333333333361
40
0.61666666666666692
40
0.62500000000000022
40
0.63333333333333353
40
0.64166666666666683
40
0.65000000000000013
40
0.65833333333333344
40
0.66666666666666674
40
0.67500000000000004
40
0.68333333333333335
40
0.69166666666666665
40
0.69999999999999996
40
0.70833333333333326
40
0.71666666666666656
40
0.72499999999999987
40
0.73333333333333317
40
0.74166666666666647
40
0.74999999999999978
40
0.75833333333333308
40
0.76666666666666639
40
0.77499999999999969
40
0.78333333333333299
40
0.7916666666666663
40
0.7999999999999996
40
0.8083333333333329
40
0.81666666666666621
40
0.82499999999999951
40
0.83333333333333282
40
0.84166666666666612
40
0.84999999999999942
40
0.85833333333333273
40
0.86666666666666603
40
0.87499999999999933
40
0.88333333333333264
40
0.89166666666666594
40
0.89999999999999925
40
0.90833333333333255
40
0.91666666666666585
40
0.92499999999999916
40
0.93333333333333246
40
0.94166666666666576
40
0.94999999999999907
40
0.95833333333333237
40
0.96666666666666567
40
0.97499999999999898
40
0.98333333333333228
40
0.99166666666666559
40
1
40
1
40
1
40
1
40
1
40
1
41
1
41
1
41
1
41
1
41
1
41
1
41
1
41
1
41
1
41
1
41
1
41
1
41
1
41
1
41
1
41
1
41
1
41
1
41
1
41
1
41
1
41
1
41
1
41
1
41
1
41
1
41
1
41
1
41
1
41
1
41
1
41
1
41
1
41
1
41
1
41
1
41
1
41
1
41
1
41
1
41
1
41
1
41
1
41
1
41
1
41
1
41
1
41
1
41
1
41
1
41
1
41
1
41
1
41
1
41
1
41
1
41
1
41
1
41
1
41
1
41
1
41
1
41
1
41
1
41
1
41
1
41
1
41
1
41
1
41
1
41
1
41
1
41
1
41
1
41
1
41
1
41
1
41
1
41
1
41
1
41
1
41
1
41
1
41
1
41
1
41
1
41
1
41
1
41
1
41
1
41
1
41
1
41
1
41
1
41
1
41
1
41
1
41
1
41
1
41
1
41
1
41
1
41
1
41
1
41
1
41
1
41
1
41
1
41
1
41
1
41
1
41
1
41
1
41
1
41
1
41
1
41
1
41
1
41
1
41
1
41
1
41
1
41
1
41
1
41
1
10
48.473360713799195
20
9.3746930244175459
30
0
10
49.278376121193197
20
10.146118114263567
30
0
10
50.869768675252743
20
11.677428407289558
30
0
10
53.199166098794997
20
13.938077603566917
30
0
10
56.18916108180531
20
16.879249502842139
30
0
10
59.735706059413957
20
20.451450579331567
30
0
10
63.099301507737422
20
23.974239512338393
30
0
10
66.294163260162108
20
27.553603470885797
30
0
10
69.346387493833475
20
31.373121095391284
30
0
10
72.283450829324721
20
35.656071587673473
30
0
10
75.119776152252086
20
40.609100862600158
30
0
10
77.845378717277839
20
46.377136367864665
30
0
10
80.409582512080647
20
52.982297609732036
30
0
10
82.719863940458183
20
60.31006540091078
30
0
10
84.661729849449273
20
68.160525591598585
30
0
10
86.113368932765454
20
76.283568241885533
30
0
10
86.962649013184972
20
84.421046992801294
30
0
10
87.122565877244185
20
92.344790837063542
30
0
10
86.548674139219699
20
99.899174446441648
30
0
10
85.251830328676419
20
107.03360029582485
30
0
10
83.280071941213038
20
113.77000801335049
30
0
10
80.704028019264626
20
120.17762892760555
30
0
10
77.600449133726755
20
126.34418639380289
30
0
10
74.037768323469095
20
132.35044119306124
30
0
10
70.057811451901031
20
138.23887916784423
30
0
10
65.669445779245748
20
144.00017975318656
30
0
10
60.862732801713584
20
149.58997927371945
30
0
10
55.618260484096105
20
154.93864944413392
30
0
10
49.918788204767367
20
159.96414406305524
30
0
10
43.759025216218888
20
164.58289307516097
30
0
10
37.158352922094139
20
168.72307623973887
30
0
10
30.164833471023002
20
172.33149516614432
30
0
10
22.845272189876781
20
175.37043121089886
30
0
10
15.278502230995699
20
177.81680461292433
30
0
10
7.5473703237164305
20
179.66041678361358
30
0
10
-0.26869759660930426
20
180.90258920549599
30
0
10
-8.1014307819651492
20
181.55464354964238
30
0
10
-15.901184084216979
20
181.6364408375438
30
0
10
-23.63309649164939
20
181.17390604978078
30
0
10
-31.273366490066575
20
180.19656194146717
30
0
10
-38.805538014668151
20
178.73510070377623
30
0
10
-46.216678864922507
20
176.81885129341001
30
0
10
-53.493858503651168
20
174.47350169411015
30
0
10
-60.61985147430201
20
171.71816952096219
30
0
10
-67.57325307713775
20
168.56616648452894
30
0
10
-74.33008996812859
20
165.02701334548786
30
0
10
-80.864922432459707
20
161.10802892581606
30
0
10
-87.152187173630878
20
156.81612062667006
30
0
10
-93.167369714091393
20
152.15943134089127
30
0
10
-98.88841721665159
20
147.14919005594976
30
0
10
-104.29635877870962
20
141.80089808693194
30
0
10
-109.3752764647987
20
136.1350059335889
30
0
10
-114.11244695915478
20
130.17767270760447
30
0
10
-118.49844326093225
20
123.96163075278984
30
0
10
-122.52719017585085
20
117.52669388846658
30
0
10
-126.19619996090003
20
110.92118683593596
30
0
10
-129.50619174958973
20
104.20037231980197
30
0
10
-132.45950485235895
20
97.419057107420898
30
0
10
-135.05881533932381
20
90.625661579956784
30
0
10
-137.30565087681418
20
83.855296543100252
30
0
10
-139.19917770404939
20
77.124188710358624
30
0
10
-140.73441778344738
20
70.421257101742043
30
0
10
-141.90227190691309
20
63.708714500617177
30
0
10
-142.69273411603396
20
56.938621163896784
30
0
10
-143.09732369662038
20
50.065526050748083
30
0
10
-143.11196922088672
20
43.061358995324014
30
0
10
-142.73938385285135
20
35.927791763356282
30
0
10
-141.99248131087018
20
28.713761146798731
30
0
10
-140.89206088304135
20
21.504558336345355
30
0
10
-139.46263796107985
20
14.4017146848112
30
0
10
-137.72891942668983
20
7.5060889077242656
30
0
10
-135.71194841049785
20
0.8993025775932697
30
0
10
-133.42553558381937
20
-5.373381159568873
30
0
10
-130.87217217757529
20
-11.322807221172287
30
0
10
-128.04643638178337
20
-16.998114447074698
30
0
10
-124.93889641391488
20
-22.466636790051638
30
0
10
-121.53992101253888
20
-27.793804788809453
30
0
10
-117.84332784564704
20
-33.024941949733609
30
0
10
-113.85061366156391
20
-38.161438640614385
30
0
10
-109.57211641839793
20
-43.165404038137389
30
0
10
-105.02671225196011
20
-47.976762081321304
30
0
10
-100.24213872518887
20
-52.526799981526658
30
0
10
-95.254720701705921
20
-56.752208500930649
30
0
10
-90.110178191889091
20
-60.61126999439594
30
0
10
-84.861237471271608
20
-64.091202365564698
30
0
10
-79.559423073086663
20
-67.197626272286627
30
0
10
-74.247686687158293
20
-69.947707825135623
30
0
10
-68.953571627120297
20
-72.362268731169991
30
0
10
-63.680062372986114
20
-74.457307858717655
30
0
10
-58.404148111942106
20
-76.239133566176676
30
0
10
-53.09334505530019
20
-77.708783378342176
30
0
10
-47.719372613060962
20
-78.864698351192217
30
0
10
-42.271461349379834
20
-79.705847356841232
30
0
10
-36.773649726718574
20
-80.235282078877134
30
0
10
-31.275336550342526
20
-80.459441913470101
30
0
10
-25.832157049295311
20
-80.385867013868733
30
0
10
-20.491485200835029
20
-80.021638038713888
30
0
10
-15.272771247139707
20
-79.371069805715194
30
0
10
-10.160374020497212
20
-78.435134609407569
30
0
10
-5.1286621475392042
20
-77.215312847844842
30
0
10
-0.16106613500157449
20
-75.716605175752221
30
0
10
4.7281996669098394
20
-73.950939278964995
30
0
10
9.4742657791209428
20
-71.940251980025224
30
0
10
13.993364677619935
20
-69.709148550007413
30
0
10
18.215345374502306
20
-67.277332994516854
30
0
10
22.113519294070652
20
-64.652778233640788
30
0
10
25.741819998910596
20
-61.822882833964208
30
0
10
29.191173188408502
20
-58.767785059602261
30
0
10
32.537513551410548
20
-55.475928538331786
30
0
10
35.790582491888344
20
-51.959505876215239
30
0
10
38.848612352062823
20
-48.268045458509491
30
0
10
41.572035226127902
20
-44.466282811022033
30
0
10
43.844412774179744
20
-40.615619505198346
30
0
10
45.649344734823281
20
-36.751386997738685
30
0
10
47.106173623007862
20
-32.87062479130568
30
0
10
48.367064519690175
20
-28.954321598242487
30
0
10
49.545459584389697
20
-24.982457513314053
30
0
10
50.613183542856007
20
-20.955218048087044
30
0
10
51.451466143701154
20
-16.886609471965308
30
0
10
51.927172337466331
20
-12.793399985233286
30
0
10
51.97628363456657
20
-8.6834308633406785
30
0
10
51.699770921575691
20
-5.3780301147777401
30
0
10
51.340779571133766
20
-2.8854502037178085
30
0
10
51.039203690177033
20
-1.2169986841175504
30
0
10
50.872845485942833
20
-0.38109118203871306
30
0
0
ARC
5
104
100
AcDbEntity
8
0
100
AcDbCircle
10
-58.292162633295263
20
-22.10657476815852
30
0
40
111.30586523056222
210
0
220
-0
230
1
100
AcDbArc
50
11.255661288650041
51
12.112187521580783
0
LINE
5
105
100
AcDbEntity
8
0
100
AcDbLine
10
50.535881122457852
20
1.24835034454442
30
0
11
-3.8658455437224859
21
-4.5885987220589461
31
0
0
ARC
5
106
100
AcDbEntity
8
0
100
AcDbCircle
10
1.1102230246251565e-15
20
5.5511151231257827e-16
30
0
40
6.0000000000000009
210
0
220
0
230
1
100
AcDbArc
50
142.36184876862555
51
229.88621917440813
0
ARC
5
107
100
AcDbEntity
8
0
100
AcDbCircle
10
1.1102230246251565e-15
20
5.5511151231257827e-16
30
0
40
35.000000000000007
210
0
220
0
230
1
100
AcDbArc
50
212.5118339327615
51
263.28444556461437
0
ARC
5
108
100
AcDbEntity
8
0
100
AcDbCircle
10
-5.2623159705905209
20
-44.691252283032611
30
0
40
9.9999999999999893
210
0
220
-0
230
1
100
AcDbArc
50
6.1240339715184655
51
83.284445564614529
0
LINE
5
109
100
AcDbEntity
8
0
100
AcDbLine
10
4.6806168479958679
20
-43.624440694664017
30
0
11
4.9034248628094375
21
-45.701063358766945
31
0
0
SPLINE
5
110
100
AcDbEntity
8
0
100
AcDbSpline
70
0
71
3
72
14
73
10
74
0
42
0.000000001
43
0.0000000001
44
0.0000000001
40
0
40
0
40
0
40
0
40
0.58596671008039081
40
0.58596671008039081
40
1.1719334201607827
40
1.1719334201607827
40
1.611640036073533
40
1.611640036073533
40
2.0513466519862842
40
2.0513466519862842
40
2.0513466519862842
40
2.0513466519862842
10
-5.3835459002423178
20
-61.569669080683973
30
0
10
-3.5255902172719655
20
-60.967109295424521
30
0
10
-1.8030909282933025
20
-60.007410250457511
30
0
10
1.1770862218044291
20
-57.481770804136964
30
0
10
2.4062719650465167
20
-55.939976892470106
30
0
10
3.9800448325259485
20
-52.904817591879521
30
0
10
4.460382034986841
20
-51.51175427355021
30
0
10
5.0017083184425211
20
-48.630792707133388
30
0
10
5.0597862339221304
20
-47.158387806069761
30
0
10
4.9034248628094375
20
-45.701063358766945
30
0
0
SPLINE
5
111
100
AcDbEntity
8
0
100
AcDbSpline
70
0
71
3
72
23
73
19
74
0
42
0.000000001
43
0.0000000001
44
0.0000000001
40
-0.81568576598161713
40
-0.81568576598161713
40
-0.81568576598161713
40
-0.81568576598161713
40
-0.81120941568695881
40
-0.81120941568695881
40
-0.81120941568695881
40
-0.78423933221366726
40
-0.78423933221366726
40
-0.78423933221366726
40
-0.75245994211015432
40
-0.75245994211015432
40
-0.75245994211015432
40
-0.7261882159652393
40
-0.7261882159652393
40
-0.7261882159652393
40
-0.70019808077461088
40
-0.70019808077461088
40
-0.70019808077461088
40
-0.66704036650917142
40
-0.66704036650917142
40
-0.66704036650917142
40
-0.66704036650917142
10
-5.3835459002423036
20
-61.569669080683973
30
0
10
-6.1306105843172487
20
-61.811952112371493
30
0
10
-6.880423131287456
20
-62.043162548200399
30
0
10
-7.6304878084951877
20
-62.262325372269913
30
0
10
-12.149639711955437
20
-63.582784958833201
30
0
10
-16.694606935506165
20
-64.482452041467639
30
0
10
-21.473650023416958
20
-64.970939952394588
30
0
10
-27.104892313142017
20
-65.54653505196373
30
0
10
-33.129337082889485
20
-65.543245609082092
30
0
10
-39.026584413100011
20
-64.904139757315164
30
0
10
-43.901783917038763
20
-64.375796895462145
30
0
10
-48.630074041316114
20
-63.424045077510428
30
0
10
-53.352610838288555
20
-62.015464814985812
30
0
10
-58.024529581617415
20
-60.621982283692304
30
0
10
-62.763601502315311
20
-58.76899596367263
30
0
10
-67.570386644803492
20
-56.433423448491965
30
0
10
-73.702790617348171
20
-53.4537449844685
30
0
10
-79.842283057277854
20
-49.700957767901876
30
0
10
-85.659634916694699
20
-45.092330454106609
30
0
0
SPLINE
5
112
100
AcDbEntity
8
0
100
AcDbSpline
70
0
71
3
72
20
73
16
74
0
42
0.000000001
43
0.0000000001
44
0.0000000001
40
0
40
0
40
0
40
0
40
0.58596671008039181
40
0.58596671008039181
40
1.1719334201607809
40
1.1719334201607809
40
1.7579001302411728
40
1.7579001302411728
40
2.3438668403215628
40
2.3438668403215628
40
2.9298335504019537
40
2.9298335504019537
40
3.2433454807151936
40
3.2433454807151936
40
3.5568574110284348
40
3.5568574110284348
40
3.5568574110284348
40
3.5568574110284348
10
-77.945303368434395
20
-18.420415408015948
30
0
10
-79.887379245853538
20
-18.628787433586631
30
0
10
-81.770188129272611
20
-19.214497913227255
30
0
10
-85.205316575492063
20
-21.074660007440787
30
0
10
-86.724794438056932
20
-22.331327458526342
30
0
10
-89.196523736857628
20
-25.356367083428001
30
0
10
-90.125144093800373
20
-27.095818229656075
30
0
10
-91.263357712056376
20
-30.832766211364081
30
0
10
-91.462069030804756
20
-32.794535787344877
30
0
10
-91.096330958978129
20
-36.683821855711599
30
0
10
-90.535378223712414
20
-38.574154653459267
30
0
10
-89.142393348687676
20
-41.22918176556206
30
0
10
-88.561488497952809
20
-42.101320084428082
30
0
10
-87.227856502986626
20
-43.710623712209582
30
0
10
-86.47877302331645
20
-44.44339218405247
30
0
10
-85.659634916681071
20
-45.092330454117395
30
0
0
LINE
5
113
100
AcDbEntity
8
0
100
AcDbLine
10
-77.945303368434395
20
-18.420415408015948
30
0
11
-39.014431990361466
21
-14.243387815736121
31
0
0
ARC
5
114
100
AcDbEntity
8
0
100
AcDbCircle
10
-37.947620401992864
20
-24.186320634322527
30
0
40
9.9999999999999964
210
0
220
-0
230
1
100
AcDbArc
50
32.511833932761625
51
96.124033971518529
0
ARC
5
115
100
AcDbEntity
8
0
100
AcDbCircle
10
1.1102230246251565e-15
20
5.5511151231257827e-16
30
0
40
34.999999999999993
210
0
220
-0
230
1
100
AcDbArc
50
58.963622378422706
51
79.73623401027551
0
ARC
5
116
100
AcDbEntity
8
0
100
AcDbCircle
10
8.0180985496344892
20
44.279906228992289
30
0
40
10.000000000000002
210
0
220
0
230
1
100
AcDbArc
50
196.12403397151863
51
259.73623401027572
0
LINE
5
117
100
AcDbEntity
8
0
100
AcDbLine
10
-1.5885288895547489
20
41.502729741151356
30
0
11
-26.042189324988371
21
126.0912340570173
31
0
0
SPLINE
5
118
100
AcDbEntity
8
0
100
AcDbSpline
70
0
71
3
72
18
73
14
74
0
42
0.000000001
43
0.0000000001
44
0.0000000001
40
0
40
0
40
0
40
0
40
1.1719334201607818
40
1.1719334201607818
40
2.3438668403215632
40
2.3438668403215632
40
3.5158002604823446
40
3.5158002604823446
40
4.6877336806431273
40
4.6877336806431273
40
5.534180445037622
40
5.534180445037622
40
6.3806272094321148
40
6.3806272094321148
40
6.3806272094321148
40
6.3806272094321148
10
10.745737660939056
20
163.34525069165008
30
0
10
6.9796010709395784
20
164.38280822944836
30
0
10
3.0468127404625993
20
164.67483592922096
30
0
10
-4.7093376767008586
20
163.7349569256067
30
0
10
-8.4585467379706749
20
162.51203597776799
30
0
10
-15.277169094316921
20
158.69790029630161
30
0
10
-18.281392643230362
20
156.14315077865331
30
0
10
-23.141467012163737
20
150.02588676902147
30
0
10
-24.950852872271476
20
146.52185665513653
30
0
10
-26.82276509594346
20
140.05957843128365
30
0
10
-27.221553672375713
20
137.2522512698614
30
0
10
-27.223058209860188
20
131.60927304113554
30
0
10
-26.825766675750174
20
128.80173362789901
30
0
10
-26.042189324988371
20
126.0912340570173
30
0
0
SPLINE
5
119
100
AcDbEntity
8
0
100
AcDbSpline
70
0
71
3
72
23
73
19
74
0
42
0.000000001
43
0.0000000001
44
0.0000000001
40
-0.25889350984105719
40
-0.25889350984105719
40
-0.25889350984105719
40
-0.25889350984105719
40
-0.23036843728182288
40
-0.23036843728182288
40
-0.23036843728182288
40
-0.19856430023777893
40
-0.19856430023777893
40
-0.19856430023777893
40
-0.16813543466188891
40
-0.16813543466188891
40
-0.16813543466188891
40
-0.14813360505835035
40
-0.14813360505835035
40
-0.14813360505835035
40
-0.12620199715561689
40
-0.12620199715561689
40
-0.12620199715561689
40
-0.11600522592841582
40
-0.11600522592841582
40
-0.11600522592841582
40
-0.11600522592841582
10
10.745737660939056
20
163.34525069165008
30
0
10
18.179999762700014
20
161.29713732737844
30
0
10
25.273104538950637
20
158.25779424252394
30
0
10
31.641573626280643
20
154.3737990478165
30
0
10
38.742122211866359
20
150.04332398261306
30
0
10
44.984480119970925
20
144.63981126936397
30
0
10
50.462212593398554
20
138.55185235548103
30
0
10
55.70307748037186
20
132.72714838173249
30
0
10
60.275238080064085
20
126.32124010481384
30
0
10
63.817009696143202
20
120.0227588498509
30
0
10
66.145125155550744
20
115.88257332408259
30
0
10
67.995511574025073
20
111.81818279920756
30
0
10
69.336395624266459
20
107.63129339579672
30
0
10
70.806648286938895
20
103.04045253034552
30
0
10
71.691460868448843
20
98.222587926405268
30
0
10
71.914421929827469
20
92.753636402234093
30
0
10
72.018084321820567
20
90.210929648039567
30
0
10
71.971904364439624
20
87.525974498969546
30
0
10
71.781569086066071
20
84.755172983212233
30
0
0
SPLINE
5
120
100
AcDbEntity
8
0
100
AcDbSpline
70
0
71
3
72
10
73
6
74
0
42
0.000000001
43
0.0000000001
44
0.0000000001
40
0
40
0
40
0
40
0
40
1.0484323413451035
40
1.0484323413451035
40
2.0968646826902075
40
2.0968646826902075
40
2.0968646826902075
40
2.0968646826902075
10
63.477358270776278
20
66.018139036407774
30
0
10
65.899584766346635
20
68.537318944306605
30
0
10
67.863087723218342
20
71.460488858570898
30
0
10
70.695158311900684
20
77.850572629347084
30
0
10
71.542066187241346
20
81.268614943302509
30
0
10
71.781569086066071
20
84.755172983212191
30
0
0
LINE
5
121
100
AcDbEntity
8
0
100
AcDbLine
10
63.477358270776278
20
66.018139036407774
30
0
11
30.409617862738941
21
31.626810484811578
31
0
0
ARC
5
122
100
AcDbEntity
8
0
100
AcDbCircle
10
23.201198753881247
20
38.557805647921654
30
0
40
10.000000000000009
210
0
220
0
230
1
100
AcDbArc
50
238.96362237842283
51
316.12403397151854
0
ARC
5
123
100
AcDbEntity
8
0
100
AcDbCircle
10
1.1102230246251565e-15
20
5.5511151231257827e-16
30
0
40
35.000000000000007
210
0
220
0
230
1
100
AcDbArc
50
132.51183393276156
51
159.73623401027555
0
ARC
5
124
100
AcDbEntity
8
0
100
AcDbCircle
10
-42.214866755467277
20
15.585410640023053
30
0
40
9.9999999999999964
210
0
220
0
230
1
100
AcDbArc
50
276.12403397151849
51
339.73623401027578
0
LINE
5
125
100
AcDbEntity
8
0
100
AcDbLine
10
-41.148055167098676
20
5.6424778214366578
30
0
11
-93.382211909936814
21
0.03809481507089818
31
0
0
SPLINE
5
126
100
AcDbEntity
8
0
100
AcDbSpline
70
0
71
3
72
14
73
10
74
0
42
0.000000001
43
0.0000000001
44
0.0000000001
40
0
40
0
40
0
40
0
40
1.1719334201607829
40
1.1719334201607829
40
2.3438668403215641
40
2.3438668403215641
40
3.4402827019511957
40
3.4402827019511957
40
4.5366985635808268
40
4.5366985635808268
40
4.5366985635808268
40
4.5366985635808268
10
-126.1506383138489
20
24.794037029275209
30
0
10
-125.49007722883231
20
20.943846188325029
30
0
10
-124.08380358107098
20
17.259487538928571
30
0
10
-119.93814101369776
20
10.637197624361239
30
0
10
-117.23838688779057
20
7.7625790602004932
30
0
10
-111.09352881278291
20
3.3566825117349604
30
0
10
-107.75907767314649
20
1.7876417663534128
30
0
10
-100.69078549321318
20
-0.074385431952005421
30
0
10
-97.016074994408811
20
-0.35179490054829454
30
0
10
-93.382211909936814
20
0.038094815070919275
30
0
0
SPLINE
5
127
100
AcDbEntity
8
0
100
AcDbSpline
70
0
71
3
72
23
73
19
74
0
42
0.000000001
43
0.0000000001
44
0.0000000001
40
-0.54915185801150235
40
-0.54915185801150235
40
-0.54915185801150235
40
-0.54915185801150235
40
-0.53063432054945436
40
-0.53063432054945436
40
-0.53063432054945436
40
-0.5075163728265748
40
-0.5075163728265748
40
-0.5075163728265748
40
-0.48032374355015395
40
-0.48032374355015395
40
-0.48032374355015395
40
-0.45000046475547456
40
-0.45000046475547456
40
-0.45000046475547456
40
-0.41506471803039025
40
-0.41506471803039025
40
-0.41506471803039025
40
-0.40380876720166514
40
-0.40380876720166514
40
-0.40380876720166514
40
-0.40380876720166514
10
-126.1506383138489
20
24.794037029275209
30
0
10
-126.97100188911692
20
29.575663430513611
30
0
10
-127.54678750147947
20
34.427768843548606
30
0
10
-127.83502104681192
20
39.140970149334265
30
0
10
-128.19486198390371
20
45.02509710832517
30
0
10
-128.1138795618069
20
50.679146336775069
30
0
10
-127.60056379700465
20
56.190566326562973
30
0
10
-126.99677294751694
20
62.673408245122779
30
0
10
-125.79725618115036
20
69.035313972849849
30
0
10
-124.00009894041362
20
75.596895065432037
30
0
10
-121.99603749071811
20
82.913901846265674
30
0
10
-119.25049006335081
20
90.460923537518653
30
0
10
-115.81161364034014
20
97.869120380154513
30
0
10
-111.8496504058681
20
106.40417657695694
30
0
10
-106.97267088970806
20
114.67446899740337
30
0
10
-101.23974087535373
20
122.14814968085868
30
0
10
-99.392647728786997
20
124.5560954146238
30
0
10
-97.455845715102527
20
126.88369879983448
30
0
10
-95.432742046585176
20
129.12625669020261
30
0
0
SPLINE
5
128
100
AcDbEntity
8
0
100
AcDbSpline
70
0
71
3
72
18
73
14
74
0
42
0.000000001
43
0.0000000001
44
0.0000000001
40
0
40
0
40
0
40
0
40
1.1719334201607821
40
1.1719334201607821
40
2.3438668403215632
40
2.3438668403215632
40
3.5158002604823446
40
3.5158002604823446
40
4.6877336806431265
40
4.6877336806431265
40
5.5419241209219257
40
5.5419241209219257
40
6.3961145612007266
40
6.3961145612007266
40
6.3961145612007266
40
6.3961145612007266
10
-44.337765893520171
20
117.36250823527425
30
0
10
-45.422654540115339
20
121.11528415228072
30
0
10
-47.230171645858135
20
124.62027860908341
30
0
10
-52.086983339815589
20
130.74013334629231
30
0
10
-55.089844161069117
20
133.29648447983226
30
0
10
-61.906431689459076
20
137.11425559697616
30
0
10
-65.654988104496852
20
138.3391756078542
30
0
10
-73.410636235687249
20
139.28319038542006
30
0
10
-77.343579728550878
20
138.99325985630651
30
0
10
-83.85570659787723
20
137.20292709628558
30
0
10
-86.47976064490615
20
136.06111835607618
30
0
10
-91.326952306957679
20
133.07226647268757
30
0
10
-93.525498236286651
20
131.24038693582429
30
0
10
-95.432742046585162
20
129.12625669020261
30
0
0
LINE
5
129
100
AcDbEntity
8
0
100
AcDbLine
10
-44.337765893520171
20
117.36250823527425
30
0
11
-20.801783767933234
21
35.948376765469519
31
0
0
ARC
5
130
100
AcDbEntity
8
0
100
AcDbCircle
10
-30.408411207122498
20
33.171200277628621
30
0
40
10.00000000000002
210
0
220
0
230
1
100
AcDbArc
50
-47.488166067238325
51
16.124033971518422
0
SPLINE
5
131
100
AcDbEntity
8
0
100
AcDbSpline
70
0
71
3
72
9
73
5
74
0
42
0.000000001
43
0.0000000001
44
0.0000000001
40
0
40
0
40
0
40
0
40
0.13493944444112346
40
0.26026390219143508
40
0.26026390219143508
40
0.26026390219143508
40
0.26026390219143508
10
-94.207186926762432
20
-22.668593483682166
30
0
10
-93.998892134920823
20
-23.078299413800714
30
0
10
-93.597144406112733
20
-23.868518052726195
30
0
10
-93.664891108221511
20
-24.750809570057356
30
0
10
-93.697513068603499
20
-25.175657983748998
30
0
0
SPLINE
5
132
100
AcDbEntity
8
0
100
AcDbSpline
70
0
71
3
72
9
73
5
74
0
42
0.000000001
43
0.0000000001
44
0.0000000001
40
0
40
0
40
0
40
0
40
0.12292750563017101
40
0.25055953706145256
40
0.25055953706145256
40
0.25055953706145256
40
0.25055953706145256
10
-93.697513068603499
20
-25.175657983748998
30
0
10
-93.814046294825857
20
-25.577819092046479
30
0
10
-94.05157255930888
20
-26.397532309219308
30
0
10
-94.691831049009124
20
-26.963073644023776
30
0
10
-95.017971066028394
20
-27.251153635972951
30
0
0
LINE
5
133
100
AcDbEntity
8
0
100
AcDbLine
10
-95.017971066028423
20
-27.251153635972951
30
0
11
-96.240855799328273
21
-25.659996045863561
31
0
0
SPLINE
5
134
100
AcDbEntity
8
0
100
AcDbSpline
70
0
71
3
72
9
73
5
74
0
42
0.000000001
43
0.0000000001
44
0.0000000001
40
0
40
0
40
0
40
0
40
0.069460716261794023
40
0.12913652741409895
40
0.12913652741409895
40
0.12913652741409895
40
0.12913652741409895
10
-96.240855799328259
20
-25.659996045863565
30
0
10
-96.060459007926084
20
-25.507646574107422
30
0
10
-95.725077853626999
20
-25.224409043676388
30
0
10
-95.571097389728536
20
-24.81482423489669
30
0
10
-95.499940845033123
20
-24.62554931641284
30
0
0
SPLINE
5
135
100
AcDbEntity
8
0
100
AcDbSpline
70
0
71
3
72
9
73
5
74
0
42
0.000000001
43
0.0000000001
44
0.0000000001
40
0
40
0
40
0
40
0
40
0.055153665076786686
40
0.11100083304553668
40
0.11100083304553668
40
0.11100083304553668
40
0.11100083304553668
10
-95.499940845033123
20
-24.62554931641284
30
0
10
-95.473775007524594
20
-24.439118312718676
30
0
10
-95.421114322931118
20
-24.063912119499111
30
0
10
-95.58550549049167
20
-23.722402445979004
30
0
10
-95.668214609832859
20
-23.550580779629829
30
0
0
SPLINE
5
136
100
AcDbEntity
8
0
100
AcDbSpline
70
0
71
3
72
9
73
5
74
0
42
0.000000001
43
0.0000000001
44
0.0000000001
40
0
40
0
40
0
40
0
40
0.05991670082611477
40
0.12056145598184528
40
0.12056145598184528
40
0.12056145598184528
40
0.12056145598184528
10
-95.668214609832859
20
-23.550580779629829
30
0
10
-95.790112899312163
20
-23.385163174955895
30
0
10
-96.035390677605932
20
-23.052317958354351
30
0
10
-96.431539815290932
20
-22.933360423038032
30
0
10
-96.630810529669816
20
-22.873522471145073
30
0
0
SPLINE
5
137
100
AcDbEntity
8
0
100
AcDbSpline
70
0
71
3
72
9
73
5
74
0
42
0.000000001
43
0.0000000001
44
0.0000000001
40
0
40
0
40
0
40
0
40
0.065500143178845213
40
0.13991044119831239
40
0.13991044119831239
40
0.13991044119831239
40
0.13991044119831239
10
-96.630810529669816
20
-22.873522471145073
30
0
10
-96.852915668751166
20
-22.857464621127548
30
0
10
-97.327339486672201
20
-22.823164529988613
30
0
10
-97.74992314456594
20
-23.044806447217248
30
0
10
-97.974671030804515
20
-23.162685005624574
30
0
0
SPLINE
5
138
100
AcDbEntity
8
0
100
AcDbSpline
70
0
71
3
72
9
73
5
74
0
42
0.000000001
43
0.0000000001
44
0.0000000001
40
0
40
0
40
0
40
0
40
0.070358499738826352
40
0.13231880389098843
40
0.13231880389098843
40
0.13231880389098843
40
0.13231880389098843
10
-97.974671030804515
20
-23.162685005624574
30
0
10
-98.174629473257426
20
-23.295626372523124
30
0
10
-98.550678735698867
20
-23.545640837313407
30
0
10
-98.734662074074294
20
-23.956424404317946
30
0
10
-98.820815086869516
20
-24.148780093788055
30
0
0
SPLINE
5
139
100
AcDbEntity
8
0
100
AcDbSpline
70
0
71
3
72
9
73
5
74
0
42
0.000000001
43
0.0000000001
44
0.0000000001
40
0
40
0
40
0
40
0
40
0.057497741250578993
40
0.11412826955704103
40
0.11412826955704103
40
0.11412826955704103
40
0.11412826955704103
10
-98.820815086869516
20
-24.148780093788055
30
0
10
-98.86039640659493
20
-24.341901991791488
30
0
10
-98.93896205854567
20
-24.725233015816379
30
0
10
-98.77452271690106
20
-25.080089769928094
30
0
10
-98.692927798938655
20
-25.256169943021568
30
0
0
SPLINE
5
140
100
AcDbEntity
8
0
100
AcDbSpline
70
0
71
3
72
9
73
5
74
0
42
0.000000001
43
0.0000000001
44
0.0000000001
40
0
40
0
40
0
40
0
40
0.043566020637227823
40
0.095938666110361254
40
0.095938666110361254
40
0.095938666110361254
40
0.095938666110361254
10
-98.692927798938655
20
-25.256169943021568
30
0
10
-98.611604326478229
20
-25.376918609147737
30
0
10
-98.432518301241203
20
-25.642824601783907
30
0
10
-98.203993728623317
20
-25.867946796222579
30
0
10
-98.079242813180642
20
-25.990840363076085
30
0
0
LINE
5
141
100
AcDbEntity
8
0
100
AcDbLine
10
-98.079242813180642
20
-25.990840363076085
30
0
11
-99.638191752996335
21
-26.649919052849469
31
0
0
SPLINE
5
142
100
AcDbEntity
8
0
100
AcDbSpline
70
0
71
3
72
9
73
5
74
0
42
0.000000001
43
0.0000000001
44
0.0000000001
40
0
40
0
40
0
40
0
40
0.074038091180412893
40
0.13485178393839653
40
0.13485178393839653
40
0.13485178393839653
40
0.13485178393839653
10
-99.638191752996335
20
-26.649919052849469
30
0
10
-99.76894904583979
20
-26.433613916412185
30
0
10
-100.00710826796143
20
-26.039639233130188
30
0
10
-100.41531681869856
20
-25.831733843845534
30
0
10
-100.59940536881408
20
-25.737975392177873
30
0
0
SPLINE
5
143
100
AcDbEntity
8
0
100
AcDbSpline
70
0
71
3
72
9
73
5
74
0
42
0.000000001
43
0.0000000001
44
0.0000000001
40
0
40
0
40
0
40
0
40
0.055593018620265125
40
0.11403845144092478
40
0.11403845144092478
40
0.11403845144092478
40
0.11403845144092478
10
-100.59940536881408
20
-25.737975392177873
30
0
10
-100.78623048191685
20
-25.699654696074255
30
0
10
-101.16946649099276
20
-25.621047112779593
30
0
10
-101.52187326138481
20
-25.792475323296689
30
0
10
-101.70248397614154
20
-25.880333373232883
30
0
0
SPLINE
5
144
100
AcDbEntity
8
0
100
AcDbSpline
70
0
71
3
72
9
73
5
74
0
42
0.000000001
43
0.0000000001
44
0.0000000001
40
0
40
0
40
0
40
0
40
0.04936789666759301
40
0.094167036116843281
40
0.094167036116843281
40
0.094167036116843281
40
0.094167036116843281
10
-101.70248397614154
20
-25.880333373232883
30
0
10
-101.84214668082275
20
-25.97536159231597
30
0
10
-102.10854699040948
20
-26.156623633896743
30
0
10
-102.22608839609867
20
-26.455666030962153
30
0
10
-102.28200768634795
20
-26.597932821973274
30
0
0
SPLINE
5
145
100
AcDbEntity
8
0
100
AcDbSpline
70
0
71
3
72
9
73
5
74
0
42
0.000000001
43
0.0000000001
44
0.0000000001
40
0
40
0
40
0
40
0
40
0.044645078637844969
40
0.09347110550927093
40
0.09347110550927093
40
0.09347110550927093
40
0.09347110550927093
10
-102.28200768634795
20
-26.597932821973274
30
0
10
-102.30173828895785
20
-26.749009149433498
30
0
10
-102.3430472371013
20
-27.065309887943499
30
0
10
-102.19834813312059
20
-27.350520401301086
30
0
10
-102.1227623967506
20
-27.499504369269982
30
0
0
SPLINE
5
146
100
AcDbEntity
8
0
100
AcDbSpline
70
0
71
3
72
9
73
5
74
0
42
0.000000001
43
0.0000000001
44
0.0000000001
40
0
40
0
40
0
40
0
40
0.04973900896176818
40
0.099253720691467734
40
0.099253720691467734
40
0.099253720691467734
40
0.099253720691467734
10
-102.1227623967506
20
-27.499504369269982
30
0
10
-102.02353798883661
20
-27.637425836707404
30
0
10
-101.8255366238226
20
-27.912646817023141
30
0
10
-101.50740021507514
20
-28.029739288505198
30
0
10
-101.34869147891784
20
-28.088153219295506
30
0
0
SPLINE
5
147
100
AcDbEntity
8
0
100
AcDbSpline
70
0
71
3
72
9
73
5
74
0
42
0.000000001
43
0.0000000001
44
0.0000000001
40
0
40
0
40
0
40
0
40
0.05413608482447152
40
0.1179083312866346
40
0.1179083312866346
40
0.1179083312866346
40
0.1179083312866346
10
-101.34869147891784
20
-28.088153219295506
30
0
10
-101.16681388187045
20
-28.111894707828768
30
0
10
-100.77068468198812
20
-28.163603642900341
30
0
10
-100.39849013484607
20
-28.014689365496288
30
0
10
-100.19718389860977
20
-27.934147151924797
30
0
0
LINE
5
148
100
AcDbEntity
8
0
100
AcDbLine
10
-100.19718389860977
20
-27.934147151924801
30
0
11
-99.508100511804088
21
-29.730678386734041
31
0
0
SPLINE
5
149
100
AcDbEntity
8
0
100
AcDbSpline
70
0
71
3
72
9
73
5
74
0
42
0.000000001
43
0.0000000001
44
0.0000000001
40
0
40
0
40
0
40
0
40
0.09106114972133901
40
0.16750686059009162
40
0.16750686059009162
40
0.16750686059009162
40
0.16750686059009162
10
-99.508100511804059
20
-29.730678386734041
30
0
10
-99.798955070147031
20
-29.82438767882751
30
0
10
-100.33398163312626
20
-29.996765793695729
30
0
10
-100.89531037110719
20
-30.005793471263303
30
0
10
-101.15148599433148
20
-30.009913465075595
30
0
0
SPLINE
5
150
100
AcDbEntity
8
0
100
AcDbSpline
70
0
71
3
72
9
73
5
74
0
42
0.000000001
43
0.0000000001
44
0.0000000001
40
0
40
0
40
0
40
0
40
0.070626748704781916
40
0.14546851921706239
40
0.14546851921706239
40
0.14546851921706239
40
0.14546851921706239
10
-101.15148599433148
20
-30.009913465075595
30
0
10
-101.38700527373813
20
-29.97566391895889
30
0
10
-101.8720996813196
20
-29.905120805353612
30
0
10
-102.29095653931567
20
-29.649730437685552
30
0
10
-102.50645325992821
20
-29.518335223168112
30
0
0
SPLINE
5
151
100
AcDbEntity
8
0
100
AcDbSpline
70
0
71
3
72
9
73
5
74
0
42
0.000000001
43
0.0000000001
44
0.0000000001
40
0
40
0
40
0
40
0
40
0.079732813293394836
40
0.1644634716662246
40
0.1644634716662246
40
0.1644634716662246
40
0.1644634716662246
10
-102.50645325992821
20
-29.518335223168112
30
0
10
-102.7171493224283
20
-29.353190160513822
30
0
10
-103.15174838489537
20
-29.01254834429297
30
0
10
-103.45319430709743
20
-28.549542065317993
30
0
10
-103.60849755585667
20
-28.311003826699739
30
0
0
SPLINE
5
152
100
AcDbEntity
8
0
100
AcDbSpline
70
0
71
3
72
9
73
5
74
0
42
0.000000001
43
0.0000000001
44
0.0000000001
40
0
40
0
40
0
40
0
40
0.13871855688801366
40
0.26761492297526357
40
0.26761492297526357
40
0.26761492297526357
40
0.26761492297526357
10
-103.60849755585667
20
-28.311003826699739
30
0
10
-103.82081546962465
20
-27.885572454050784
30
0
10
-104.23041778537795
20
-27.064833062170987
30
0
10
-104.08525638642467
20
-26.161247889588616
30
0
10
-104.01533959474057
20
-25.726037312011989
30
0
0
SPLINE
5
153
100
AcDbEntity
8
0
100
AcDbSpline
70
0
71
3
72
9
73
5
74
0
42
0.000000001
43
0.0000000001
44
0.0000000001
40
0
40
0
40
0
40
0
40
0.10146769353482835
40
0.19781406080600739
40
0.19781406080600739
40
0.19781406080600739
40
0.19781406080600739
10
-104.01533959474057
20
-25.726037312011989
30
0
10
-103.89705150740096
20
-25.400357672271539
30
0
10
-103.666445625997
20
-24.765436252314519
30
0
10
-103.12537297328916
20
-24.362636231217838
30
0
10
-102.8618407233279
20
-24.166450385725895
30
0
0
SPLINE
5
154
100
AcDbEntity
8
0
100
AcDbSpline
70
0
71
3
72
9
73
5
74
0
42
0.000000001
43
0.0000000001
44
0.0000000001
40
0
40
0
40
0
40
0
40
0.13281862861854291
40
0.28493211232704174
40
0.28493211232704174
40
0.28493211232704174
40
0.28493211232704174
10
-102.8618407233279
20
-24.166450385725895
30
0
10
-102.42905018360402
20
-24.003399280450218
30
0
10
-101.50059666799926
20
-23.653610276251975
30
0
10
-100.60922984269438
20
-24.105704256427543
30
0
10
-100.13336591864608
20
-24.347058555620087
30
0
0
SPLINE
5
155
100
AcDbEntity
8
0
100
AcDbSpline
70
0
71
3
72
9
73
5
74
0
42
0.000000001
43
0.0000000001
44
0.0000000001
40
0
40
0
40
0
40
0
40
0.089006445837799888
40
0.17483922169132393
40
0.17483922169132393
40
0.17483922169132393
40
0.17483922169132393
10
-100.13336591864608
20
-24.347058555620087
30
0
10
-100.20886777986534
20
-24.054211083393614
30
0
10
-100.35717936030838
20
-23.478958093159012
30
0
10
-100.19984591588111
20
-22.906600495360863
30
0
10
-100.12260714680428
20
-22.625616395084993
30
0
0
SPLINE
5
156
100
AcDbEntity
8
0
100
AcDbSpline
70
0
71
3
72
9
73
5
74
0
42
0.000000001
43
0.0000000001
44
0.0000000001
40
0
40
0
40
0
40
0
40
0.086569827669932653
40
0.17789325571538053
40
0.17789325571538053
40
0.17789325571538053
40
0.17789325571538053
10
-100.12260714680428
20
-22.625616395084993
30
0
10
-99.993482060807679
20
-22.361777499739457
30
0
10
-99.72814155406617
20
-21.819612159451175
30
0
10
-99.229582521081596
20
-21.47809961087183
30
0
10
-98.973641845916148
20
-21.302780448088594
30
0
0
SPLINE
5
157
100
AcDbEntity
8
0
100
AcDbSpline
70
0
71
3
72
9
73
5
74
0
42
0.000000001
43
0.0000000001
44
0.0000000001
40
0
40
0
40
0
40
0
40
0.13344180852826532
40
0.2680124941926183
40
0.2680124941926183
40
0.2680124941926183
40
0.2680124941926183
10
-98.973641845916148
20
-21.302780448088594
30
0
10
-98.560263136797033
20
-21.108892523264267
30
0
10
-97.730008660339763
20
-20.719476440710267
30
0
10
-96.827271434339906
20
-20.882167040191462
30
0
10
-96.374001642409127
20
-20.96385496891763
30
0
0
SPLINE
5
158
100
AcDbEntity
8
0
100
AcDbSpline
70
0
71
3
72
9
73
5
74
0
42
0.000000001
43
0.0000000001
44
0.0000000001
40
0
40
0
40
0
40
0
40
0.13789592494991332
40
0.28124973319027768
40
0.28124973319027768
40
0.28124973319027768
40
0.28124973319027768
10
-96.374001642409127
20
-20.96385496891763
30
0
10
-95.935485528933725
20
-21.134334121758446
30
0
10
-95.041096953206107
20
-21.482039946048754
30
0
10
-94.488729981296871
20
-22.267991624056343
30
0
10
-94.207186926762432
20
-22.668593483682166
30
0
0
LINE
5
159
100
AcDbEntity
8
0
100
AcDbLine
10
-124.91033255637937
20
-1.7661641221505107
30
0
11
-118.89128787481297
21
-5.8516385280558936
31
0
0
ARC
5
160
100
AcDbEntity
8
0
100
AcDbCircle
10
-119.28441283281578
20
-6.4308213725836572
30
0
40
0.69999999999997076
210
0
220
0
230
1
100
AcDbArc
50
-64.167011247601138
51
55.832988752397164
0
LINE
5
161
100
AcDbEntity
8
0
100
AcDbLine
10
-118.97938825501998
20
-7.0608689953396393
30
0
11
-120.67809267953419
21
-7.8832617497488222
31
0
0
ARC
5
162
100
AcDbEntity
8
0
100
AcDbCircle
10
12.756993139862596
20
56.716586333433469
30
0
40
148.25000000000003
210
0
220
0
230
1
100
AcDbArc
50
205.83298875239882
51
215.4201589563782
0
ARC
5
163
100
AcDbEntity
8
0
100
AcDbCircle
10
-109.48159649483208
20
-30.218603343248816
30
0
40
1.7499999999999849
210
0
220
0
230
1
100
AcDbArc
50
-144.57984104362512
51
35.420158956384533
0
ARC
5
164
100
AcDbEntity
8
0
100
AcDbCircle
10
12.756993139862596
20
56.716586333433469
30
0
40
151.75000000000003
210
0
220
0
230
1
100
AcDbArc
50
205.83298875239885
51
215.42015895637826
0
LINE
5
165
100
AcDbEntity
8
0
100
AcDbLine
10
-123.82833079331417
20
-9.4083846387279202
30
0
11
-125.52703521782834
21
-10.230777393137078
31
0
0
ARC
5
166
100
AcDbEntity
8
0
100
AcDbCircle
10
-125.83205979562415
20
-9.6007297703810579
30
0
40
0.7000000000000185
210
0
220
0
230
1
100
AcDbArc
50
175.83298875239797
51
295.83298875239853
0
LINE
5
167
100
AcDbEntity
8
0
100
AcDbLine
10
-126.53020933142275
20
-9.5498649921528305
30
0
11
-126.00160705018072
21
-2.2944821884500732
31
0
0
ARC
5
168
100
AcDbEntity
8
0
100
AcDbCircle
10
-125.30345751438216
20
-2.3453469666782873
30
0
40
0.69999999999998164
210
0
220
-0
230
1
100
AcDbArc
50
55.832988752398727
51
175.83298875239873
0
LWPOLYLINE
5
169
100
AcDbEntity
8
0
100
AcDbPolyline
90
13
70
1
43
0.0
10
-100.21908810076029
20
-12.873200545112088
10
-107.49221119505225
20
-17.179067898481261
10
-101.30115182041111
20
-11.045465972023116
10
-102.36455926903348
20
-9.2492440639874012
10
-110.72347733718198
20
-11.721074311256956
10
-103.45035424289001
20
-7.4152069578877819
10
-104.47644914945545
20
-5.6820103799585864
10
-113.71596254307073
20
-11.152029045503827
10
-112.05928567574325
20
-13.950353702233148
10
-104.77543280899448
20
-11.876665678341997
10
-110.0854522009319
20
-17.284393664867853
10
-108.43250658781011
20
-20.076415788586527
10
-99.192993194194827
20
-14.606397123041281
0
ENDSEC
0
SECTION
2
OBJECTS
0
DICTIONARY
5
C
100
AcDbDictionary
3
ACAD_GROUP
350
D
3
ACAD_MLINESTYLE
350
17
0
DICTIONARY
5
D
100
AcDbDictionary
0
DICTIONARY
5
1A
330
C
100
AcDbDictionary
0
DICTIONARY
5
17
100
AcDbDictionary
0
ENDSEC
0
EOF
