0
SECTION
2
HEADER
9
$INSUNITS
70
4
9
$ACADVER
1
AC1014
9
$HANDSEED
5
FFFF
0
ENDSEC
0
SECTION
2
TABLES
0
TABLE
2
VPORT
5
8
100
AcDbSymbolTable
0
ENDTAB
0
TABLE
2
LTYPE
5
5
100
AcDbSymbolTable
0
LTYPE
5
14
100
AcDbSymbolTableRecord
100
AcDbLinetypeTableRecord
2
BYBLOCK
70
0
0
LTYPE
5
15
100
AcDbSymbolTableRecord
100
AcDbLinetypeTableRecord
2
BYLAYER
70
0
0
ENDTAB
0
TABLE
2
LAYER
5
2
100
AcDbSymbolTable
70
2
0
LAYER
5
50
100
AcDbSymbolTableRecord
100
AcDbLayerTableRecord
2
0
70
0
6
CONTINUOUS
0
ENDTAB
0
TABLE
2
STYLE
5
3
100
AcDbSymbolTable
70
1
0
STYLE
5
11
100
AcDbSymbolTableRecord
100
AcDbTextStyleTableRecord
2
STANDARD
70
0
0
ENDTAB
0
TABLE
2
VIEW
5
6
100
AcDbSymbolTable
70
0
0
ENDTAB
0
TABLE
2
UCS
5
7
100
AcDbSymbolTable
70
0
0
ENDTAB
0
TABLE
2
APPID
5
9
100
AcDbSymbolTable
70
2
0
APPID
5
12
100
AcDbSymbolTableRecord
100
AcDbRegAppTableRecord
2
ACAD
70
0
0
ENDTAB
0
TABLE
2
DIMSTYLE
5
A
100
AcDbSymbolTable
70
1
0
ENDTAB
0
TABLE
2
BLOCK_RECORD
5
1
100
AcDbSymbolTable
70
1
0
BLOCK_RECORD
5
1F
100
AcDbSymbolTableRecord
100
AcDbBlockTableRecord
2
*MODEL_SPACE
0
BLOCK_RECORD
5
1B
100
AcDbSymbolTableRecord
100
AcDbBlockTableRecord
2
*PAPER_SPACE
0
ENDTAB
0
ENDSEC
0
SECTION
2
BLOCKS
0
BLOCK
5
20
100
AcDbEntity
100
AcDbBlockBegin
2
*MODEL_SPACE
0
ENDBLK
5
21
100
AcDbEntity
100
AcDbBlockEnd
0
BLOCK
5
1C
100
AcDbEntity
100
AcDbBlockBegin
2
*PAPER_SPACE
0
ENDBLK
5
1D
100
AcDbEntity
100
AcDbBlockEnd
0
ENDSEC
0
SECTION
2
ENTITIES
0
SPLINE
5
100
100
AcDbEntity
8
0
100
AcDbSpline
70
0
71
3
72
9
73
5
74
0
42
0.000000001
43
0.0000000001
44
0.0000000001
40
0
40
0
40
0
40
0
40
0.13493944444112346
40
0.26026390219143508
40
0.26026390219143508
40
0.26026390219143508
40
0.26026390219143508
10
-100.47289264417358
20
-24.398024564356184
30
0
10
-100.26459785233199
20
-24.807730494474729
30
0
10
-99.862850123523899
20
-25.59794913340021
30
0
10
-99.930596825632676
20
-26.480240650731375
30
0
10
-99.96321878601465
20
-26.905089064423009
30
0
0
SPLINE
5
101
100
AcDbEntity
8
0
100
AcDbSpline
70
0
71
3
72
9
73
5
74
0
42
0.000000001
43
0.0000000001
44
0.0000000001
40
0
40
0
40
0
40
0
40
0.12292750563017101
40
0.25055953706145256
40
0.25055953706145256
40
0.25055953706145256
40
0.25055953706145256
10
-99.96321878601465
20
-26.905089064423009
30
0
10
-100.07975201223701
20
-27.307250172720497
30
0
10
-100.31727827672002
20
-28.126963389893326
30
0
10
-100.95753676642026
20
-28.692504724697798
30
0
10
-101.28367678343955
20
-28.980584716646973
30
0
0
LINE
5
102
100
AcDbEntity
8
0
100
AcDbLine
10
-101.28367678343956
20
-28.980584716646973
30
0
11
-102.50656151673942
21
-27.389427126537591
31
0
0
SPLINE
5
103
100
AcDbEntity
8
0
100
AcDbSpline
70
0
71
3
72
9
73
5
74
0
42
0.000000001
43
0.0000000001
44
0.0000000001
40
0
40
0
40
0
40
0
40
0.069460716261794023
40
0.12913652741409895
40
0.12913652741409895
40
0.12913652741409895
40
0.12913652741409895
10
-102.50656151673942
20
-27.389427126537591
30
0
10
-102.32616472533724
20
-27.237077654781441
30
0
10
-101.99078357103815
20
-26.953840124350414
30
0
10
-101.83680310713969
20
-26.544255315570709
30
0
10
-101.76564656244429
20
-26.354980397086862
30
0
0
SPLINE
5
104
100
AcDbEntity
8
0
100
AcDbSpline
70
0
71
3
72
9
73
5
74
0
42
0.000000001
43
0.0000000001
44
0.0000000001
40
0
40
0
40
0
40
0
40
0.055153665076786686
40
0.11100083304553668
40
0.11100083304553668
40
0.11100083304553668
40
0.11100083304553668
10
-101.76564656244429
20
-26.354980397086862
30
0
10
-101.73948072493575
20
-26.168549393392695
30
0
10
-101.68682004034225
20
-25.793343200173133
30
0
10
-101.85121120790284
20
-25.451833526653019
30
0
10
-101.93392032724402
20
-25.280011860303844
30
0
0
SPLINE
5
105
100
AcDbEntity
8
0
100
AcDbSpline
70
0
71
3
72
9
73
5
74
0
42
0.000000001
43
0.0000000001
44
0.0000000001
40
0
40
0
40
0
40
0
40
0.05991670082611477
40
0.12056145598184528
40
0.12056145598184528
40
0.12056145598184528
40
0.12056145598184528
10
-101.93392032724402
20
-25.280011860303844
30
0
10
-102.05581861672331
20
-25.114594255629914
30
0
10
-102.30109639501708
20
-24.781749039028369
30
0
10
-102.69724553270208
20
-24.662791503712054
30
0
10
-102.89651624708098
20
-24.602953551819091
30
0
0
SPLINE
5
106
100
AcDbEntity
8
0
100
AcDbSpline
70
0
71
3
72
9
73
5
74
0
42
0.000000001
43
0.0000000001
44
0.0000000001
40
0
40
0
40
0
40
0
40
0.065500143178845213
40
0.13991044119831239
40
0.13991044119831239
40
0.13991044119831239
40
0.13991044119831239
10
-102.89651624708098
20
-24.602953551819091
30
0
10
-103.11862138616233
20
-24.58689570180157
30
0
10
-103.59304520408337
20
-24.552595610662635
30
0
10
-104.01562886197709
20
-24.774237527891273
30
0
10
-104.24037674821568
20
-24.892116086298593
30
0
0
SPLINE
5
107
100
AcDbEntity
8
0
100
AcDbSpline
70
0
71
3
72
9
73
5
74
0
42
0.000000001
43
0.0000000001
44
0.0000000001
40
0
40
0
40
0
40
0
40
0.070358499738826352
40
0.13231880389098843
40
0.13231880389098843
40
0.13231880389098843
40
0.13231880389098843
10
-104.24037674821568
20
-24.892116086298593
30
0
10
-104.44033519066858
20
-25.025057453197149
30
0
10
-104.81638445311003
20
-25.275071917987432
30
0
10
-105.00036779148544
20
-25.685855484991972
30
0
10
-105.08652080428067
20
-25.878211174462081
30
0
0
SPLINE
5
108
100
AcDbEntity
8
0
100
AcDbSpline
70
0
71
3
72
9
73
5
74
0
42
0.000000001
43
0.0000000001
44
0.0000000001
40
0
40
0
40
0
40
0
40
0.057497741250578993
40
0.11412826955704103
40
0.11412826955704103
40
0.11412826955704103
40
0.11412826955704103
10
-105.08652080428067
20
-25.878211174462081
30
0
10
-105.1261021240061
20
-26.07133307246551
30
0
10
-105.20466777595681
20
-26.454664096490404
30
0
10
-105.04022843431223
20
-26.809520850602119
30
0
10
-104.95863351634981
20
-26.985601023695594
30
0
0
SPLINE
5
109
100
AcDbEntity
8
0
100
AcDbSpline
70
0
71
3
72
9
73
5
74
0
42
0.000000001
43
0.0000000001
44
0.0000000001
40
0
40
0
40
0
40
0
40
0.043566020637227823
40
0.095938666110361254
40
0.095938666110361254
40
0.095938666110361254
40
0.095938666110361254
10
-104.95863351634981
20
-26.985601023695594
30
0
10
-104.87731004388939
20
-27.106349689821766
30
0
10
-104.69822401865237
20
-27.372255682457936
30
0
10
-104.46969944603447
20
-27.597377876896605
30
0
10
-104.34494853059179
20
-27.720271443750111
30
0
0
LINE
5
110
100
AcDbEntity
8
0
100
AcDbLine
10
-104.34494853059179
20
-27.720271443750111
30
0
11
-105.90389747040749
21
-28.379350133523502
31
0
0
SPLINE
5
111
100
AcDbEntity
8
0
100
AcDbSpline
70
0
71
3
72
9
73
5
74
0
42
0.000000001
43
0.0000000001
44
0.0000000001
40
0
40
0
40
0
40
0
40
0.074038091180412893
40
0.13485178393839653
40
0.13485178393839653
40
0.13485178393839653
40
0.13485178393839653
10
-105.90389747040747
20
-28.379350133523502
30
0
10
-106.03465476325096
20
-28.163044997086214
30
0
10
-106.27281398537257
20
-27.769070313804214
30
0
10
-106.68102253610971
20
-27.561164924519559
30
0
10
-106.86511108622524
20
-27.467406472851899
30
0
0
SPLINE
5
112
100
AcDbEntity
8
0
100
AcDbSpline
70
0
71
3
72
9
73
5
74
0
42
0.000000001
43
0.0000000001
44
0.0000000001
40
0
40
0
40
0
40
0
40
0.055593018620265125
40
0.11403845144092478
40
0.11403845144092478
40
0.11403845144092478
40
0.11403845144092478
10
-106.86511108622524
20
-27.467406472851899
30
0
10
-107.051936199328
20
-27.429085776748288
30
0
10
-107.4351722084039
20
-27.350478193453625
30
0
10
-107.78757897879598
20
-27.521906403970718
30
0
10
-107.96818969355269
20
-27.609764453906912
30
0
0
SPLINE
5
113
100
AcDbEntity
8
0
100
AcDbSpline
70
0
71
3
72
9
73
5
74
0
42
0.000000001
43
0.0000000001
44
0.0000000001
40
0
40
0
40
0
40
0
40
0.04936789666759301
40
0.094167036116843281
40
0.094167036116843281
40
0.094167036116843281
40
0.094167036116843281
10
-107.96818969355269
20
-27.609764453906912
30
0
10
-108.1078523982339
20
-27.704792672990006
30
0
10
-108.37425270782062
20
-27.886054714570779
30
0
10
-108.49179411350983
20
-28.185097111636182
30
0
10
-108.5477134037591
20
-28.327363902647306
30
0
0
SPLINE
5
114
100
AcDbEntity
8
0
100
AcDbSpline
70
0
71
3
72
9
73
5
74
0
42
0.000000001
43
0.0000000001
44
0.0000000001
40
0
40
0
40
0
40
0
40
0.044645078637844969
40
0.09347110550927093
40
0.09347110550927093
40
0.09347110550927093
40
0.09347110550927093
10
-108.5477134037591
20
-28.327363902647306
30
0
10
-108.567444006369
20
-28.478440230107527
30
0
10
-108.60875295451244
20
-28.794740968617532
30
0
10
-108.46405385053173
20
-29.079951481975115
30
0
10
-108.38846811416175
20
-29.228935449944014
30
0
0
SPLINE
5
115
100
AcDbEntity
8
0
100
AcDbSpline
70
0
71
3
72
9
73
5
74
0
42
0.000000001
43
0.0000000001
44
0.0000000001
40
0
40
0
40
0
40
0
40
0.04973900896176818
40
0.099253720691467734
40
0.099253720691467734
40
0.099253720691467734
40
0.099253720691467734
10
-108.38846811416175
20
-29.228935449944014
30
0
10
-108.28924370624775
20
-29.366856917381433
30
0
10
-108.09124234123375
20
-29.64207789769717
30
0
10
-107.77310593248629
20
-29.75917036917923
30
0
10
-107.61439719632898
20
-29.817584299969539
30
0
0
SPLINE
5
116
100
AcDbEntity
8
0
100
AcDbSpline
70
0
71
3
72
9
73
5
74
0
42
0.000000001
43
0.0000000001
44
0.0000000001
40
0
40
0
40
0
40
0
40
0.05413608482447152
40
0.1179083312866346
40
0.1179083312866346
40
0.1179083312866346
40
0.1179083312866346
10
-107.61439719632898
20
-29.817584299969539
30
0
10
-107.4325195992816
20
-29.8413257885028
30
0
10
-107.03639039939927
20
-29.893034723574374
30
0
10
-106.66419585225722
20
-29.744120446170321
30
0
10
-106.46288961602093
20
-29.66357823259883
30
0
0
LINE
5
117
100
AcDbEntity
8
0
100
AcDbLine
10
-106.46288961602093
20
-29.663578232598834
30
0
11
-105.77380622921523
21
-31.460109467408071
31
0
0
SPLINE
5
118
100
AcDbEntity
8
0
100
AcDbSpline
70
0
71
3
72
9
73
5
74
0
42
0.000000001
43
0.0000000001
44
0.0000000001
40
0
40
0
40
0
40
0
40
0.09106114972133901
40
0.16750686059009162
40
0.16750686059009162
40
0.16750686059009162
40
0.16750686059009162
10
-105.77380622921523
20
-31.460109467408067
30
0
10
-106.06466078755817
20
-31.553818759501535
30
0
10
-106.59968735053739
20
-31.726196874369759
30
0
10
-107.16101608851832
20
-31.735224551937335
30
0
10
-107.41719171174262
20
-31.739344545749624
30
0
0
SPLINE
5
119
100
AcDbEntity
8
0
100
AcDbSpline
70
0
71
3
72
9
73
5
74
0
42
0.000000001
43
0.0000000001
44
0.0000000001
40
0
40
0
40
0
40
0
40
0.070626748704781916
40
0.14546851921706239
40
0.14546851921706239
40
0.14546851921706239
40
0.14546851921706239
10
-107.41719171174262
20
-31.739344545749624
30
0
10
-107.65271099114926
20
-31.705094999632919
30
0
10
-108.13780539873073
20
-31.634551886027644
30
0
10
-108.55666225672681
20
-31.379161518359581
30
0
10
-108.77215897733934
20
-31.247766303842145
30
0
0
SPLINE
5
120
100
AcDbEntity
8
0
100
AcDbSpline
70
0
71
3
72
9
73
5
74
0
42
0.000000001
43
0.0000000001
44
0.0000000001
40
0
40
0
40
0
40
0
40
0.079732813293394836
40
0.1644634716662246
40
0.1644634716662246
40
0.1644634716662246
40
0.1644634716662246
10
-108.77215897733934
20
-31.247766303842145
30
0
10
-108.98285503983945
20
-31.082621241187859
30
0
10
-109.41745410230652
20
-30.741979424966999
30
0
10
-109.7189000245086
20
-30.27897314599203
30
0
10
-109.87420327326781
20
-30.040434907373776
30
0
0
SPLINE
5
121
100
AcDbEntity
8
0
100
AcDbSpline
70
0
71
3
72
9
73
5
74
0
42
0.000000001
43
0.0000000001
44
0.0000000001
40
0
40
0
40
0
40
0
40
0.13871855688801366
40
0.26761492297526357
40
0.26761492297526357
40
0.26761492297526357
40
0.26761492297526357
10
-109.87420327326781
20
-30.040434907373776
30
0
10
-110.0865211870358
20
-29.615003534724821
30
0
10
-110.49612350278912
20
-28.794264142845023
30
0
10
-110.35096210383584
20
-27.890678970262648
30
0
10
-110.28104531215172
20
-27.455468392686026
30
0
0
SPLINE
5
122
100
AcDbEntity
8
0
100
AcDbSpline
70
0
71
3
72
9
73
5
74
0
42
0.000000001
43
0.0000000001
44
0.0000000001
40
0
40
0
40
0
40
0
40
0.10146769353482835
40
0.19781406080600739
40
0.19781406080600739
40
0.19781406080600739
40
0.19781406080600739
10
-110.28104531215172
20
-27.455468392686026
30
0
10
-110.16275722481211
20
-27.129788752945572
30
0
10
-109.93215134340815
20
-26.494867332988548
30
0
10
-109.39107869070031
20
-26.092067311891867
30
0
10
-109.12754644073907
20
-25.895881466399931
30
0
0
SPLINE
5
123
100
AcDbEntity
8
0
100
AcDbSpline
70
0
71
3
72
9
73
5
74
0
42
0.000000001
43
0.0000000001
44
0.0000000001
40
0
40
0
40
0
40
0
40
0.13281862861854291
40
0.28493211232704174
40
0.28493211232704174
40
0.28493211232704174
40
0.28493211232704174
10
-109.12754644073907
20
-25.895881466399931
30
0
10
-108.69475590101517
20
-25.732830361124254
30
0
10
-107.76630238541043
20
-25.383041356926004
30
0
10
-106.87493556010551
20
-25.835135337101569
30
0
10
-106.39907163605724
20
-26.07648963629412
30
0
0
SPLINE
5
124
100
AcDbEntity
8
0
100
AcDbSpline
70
0
71
3
72
9
73
5
74
0
42
0.000000001
43
0.0000000001
44
0.0000000001
40
0
40
0
40
0
40
0
40
0.089006445837799888
40
0.17483922169132393
40
0.17483922169132393
40
0.17483922169132393
40
0.17483922169132393
10
-106.39907163605724
20
-26.07648963629412
30
0
10
-106.47457349727651
20
-25.783642164067643
30
0
10
-106.62288507771954
20
-25.208389173833044
30
0
10
-106.46555163329226
20
-24.636031576034895
30
0
10
-106.38831286421544
20
-24.355047475759022
30
0
0
SPLINE
5
125
100
AcDbEntity
8
0
100
AcDbSpline
70
0
71
3
72
9
73
5
74
0
42
0.000000001
43
0.0000000001
44
0.0000000001
40
0
40
0
40
0
40
0
40
0.086569827669932653
40
0.17789325571538053
40
0.17789325571538053
40
0.17789325571538053
40
0.17789325571538053
10
-106.38831286421544
20
-24.355047475759022
30
0
10
-106.25918777821883
20
-24.091208580413486
30
0
10
-105.99384727147735
20
-23.549043240125201
30
0
10
-105.49528823849275
20
-23.207530691545855
30
0
10
-105.2393475633273
20
-23.03221152876262
30
0
0
SPLINE
5
126
100
AcDbEntity
8
0
100
AcDbSpline
70
0
71
3
72
9
73
5
74
0
42
0.000000001
43
0.0000000001
44
0.0000000001
40
0
40
0
40
0
40
0
40
0.13344180852826532
40
0.2680124941926183
40
0.2680124941926183
40
0.2680124941926183
40
0.2680124941926183
10
-105.2393475633273
20
-23.03221152876262
30
0
10
-104.82596885420818
20
-22.838323603938292
30
0
10
-103.99571437775093
20
-22.448907521384285
30
0
10
-103.09297715175106
20
-22.611598120865484
30
0
10
-102.63970735982028
20
-22.693286049591652
30
0
0
SPLINE
5
127
100
AcDbEntity
8
0
100
AcDbSpline
70
0
71
3
72
9
73
5
74
0
42
0.000000001
43
0.0000000001
44
0.0000000001
40
0
40
0
40
0
40
0
40
0.13789592494991332
40
0.28124973319027768
40
0.28124973319027768
40
0.28124973319027768
40
0.28124973319027768
10
-102.63970735982028
20
-22.693286049591652
30
0
10
-102.20119124634488
20
-22.863765202432464
30
0
10
-101.30680267061727
20
-23.211471026722776
30
0
10
-100.75443569870802
20
-23.997422704730361
30
0
10
-100.47289264417358
20
-24.398024564356184
30
0
0
LWPOLYLINE
5
128
100
AcDbEntity
8
0
100
AcDbPolyline
90
6
70
1
43
0.0
10
-114.45102154732504
20
-1.1467236480449132
10
-116.00774720095599
20
-2.0683434368509706
10
-113.26154410556627
20
-6.7070077326905597
10
-120.86870144942279
20
-11.210631558961452
10
-119.76425020453777
20
-13.076181330114331
10
-110.60036720705034
20
-7.6509377150373803
0
LWPOLYLINE
5
129
100
AcDbEntity
8
0
100
AcDbPolyline
90
12
70
1
43
0.0
10
-106.24226229480145
20
-15.012296271478469
10
-110.65403540225758
20
-14.849416392292156
10
-108.67130878270729
20
-10.909347281544266
10
-110.00336653413953
20
-8.6593429967416409
10
-112.88611806711887
20
-14.630277706170274
10
-119.07497348849864
20
-14.412975647766222
10
-117.79515329594608
20
-16.574744470419727
10
-113.75205903668972
20
-16.632453246606204
10
-115.62356334823303
20
-20.242818682618967
10
-114.3325493930634
20
-22.423495104304429
10
-111.60846316198105
20
-16.946535919278123
10
-104.9176670517806
20
-17.249695490259789
0
LWPOLYLINE
5
130
100
AcDbEntity
8
0
100
AcDbPolyline
90
10
70
1
43
0.0
10
-132.2673127675919
20
-4.0239132691240869
10
-132.7959150488339
20
-11.279296072826845
42
0.57735026918961696
10
-131.79274093523952
20
-11.960208473811074
10
-130.09403651072535
20
-11.137815719401951
42
0.041856339288307634
10
-117.1734190913147
20
-32.962278303484034
42
0.99999999999999989
10
-114.32118533317194
20
-30.933790544361383
42
-0.041856339288307599
10
-126.94379839694533
20
-9.6126928304228372
10
-125.24509397243114
20
-8.7903000760136525
42
0.57735026918961263
10
-125.15699359222413
20
-7.5810696087299139
10
-131.17603827379051
20
-3.4955952028245245
42
0.57735026918963162
0
SPLINE
5
131
100
AcDbEntity
8
0
100
AcDbSpline
70
0
71
3
72
26
73
22
74
0
42
0.000000001
43
0.0000000001
44
0.0000000001
40
-0.82010841502070919
40
-0.82010841502070919
40
-0.82010841502070919
40
-0.82010841502070919
40
-0.80688464506857305
40
-0.80688464506857305
40
-0.80688464506857305
40
-0.78159512734104097
40
-0.78159512734104097
40
-0.78159512734104097
40
-0.75039443124690397
40
-0.75039443124690397
40
-0.75039443124690397
40
-0.72357769549426976
40
-0.72357769549426976
40
-0.72357769549426976
40
-0.70011554074684124
40
-0.70011554074684124
40
-0.70011554074684124
40
-0.67084493124443922
40
-0.67084493124443922
40
-0.67084493124443922
40
-0.66549344081869088
40
-0.66549344081869088
40
-0.66549344081869088
40
-0.66549344081869088
10
-4.4378368868705209
20
-64.758617955120584
30
0
10
-6.7222021826963427
20
-65.604604344340288
30
0
10
-9.0225248999096781
20
-66.321342688365661
30
0
10
-11.346339850220346
20
-66.904567224148565
30
0
10
-15.790470351136417
20
-68.019942589131446
30
0
10
-20.400881648315288
20
-68.67730540238702
30
0
10
-25.276425024349027
20
-68.974997806382049
30
0
10
-31.291579160871041
20
-69.342272909318098
30
0
10
-37.611508586638344
20
-69.167928099121582
30
0
10
-43.767493859184697
20
-68.421716095182219
30
0
10
-49.058511401001809
20
-67.780353156845536
30
0
10
-54.209465627496641
20
-66.715312365896878
30
0
10
-59.423640014345708
20
-65.056564411756042
30
0
10
-63.985558641310369
20
-63.60531391109771
30
0
10
-68.649956364974813
20
-61.671463454648375
30
0
10
-73.431861755121545
20
-59.232483501068522
30
0
10
-79.397609013171532
20
-56.189692650273066
30
0
10
-85.492873808304353
20
-52.394743010859408
30
0
10
-91.042266999331773
20
-48.328799963747215
30
0
10
-92.056852108263627
20
-47.585431251644607
30
0
10
-93.051523897940314
20
-46.834540825067172
30
0
10
-94.026273479160793
20
-46.075051737837299
30
0
0
SPLINE
5
132
100
AcDbEntity
8
0
100
AcDbSpline
70
0
71
3
72
20
73
16
74
0
42
0.000000001
43
0.0000000001
44
0.0000000001
40
0
40
0
40
0
40
0
40
0.58596671008039192
40
0.58596671008039192
40
1.1719334201607823
40
1.1719334201607823
40
1.7579001302411728
40
1.7579001302411728
40
2.3438668403215637
40
2.3438668403215637
40
2.9298335504019541
40
2.9298335504019541
40
3.2494175105536725
40
3.2494175105536725
40
3.5690014707053872
40
3.5690014707053872
40
3.5690014707053872
40
3.5690014707053872
10
-86.407170486012717
20
-19.328318344198838
30
0
10
-88.34924636343186
20
-19.536690369769502
30
0
10
-90.232055246850933
20
-20.122400849410106
30
0
10
-93.667183693070399
20
-21.982562943623599
30
0
10
-95.186661555635297
20
-23.239230394709132
30
0
10
-97.658390854436021
20
-26.26427001961077
30
0
10
-98.587011211378766
20
-28.003721165838833
30
0
10
-99.725224829634811
20
-31.740669147546825
30
0
10
-99.92393614838322
20
-33.702438723527621
30
0
10
-99.558198076556636
20
-37.59172479189435
30
0
10
-98.99724534129092
20
-39.482057589642011
30
0
10
-97.594856968122002
20
-42.155007755303501
30
0
10
-97.000844896974471
20
-43.042934849138007
30
0
10
-95.634772211439909
20
-44.677905857886373
30
0
10
-94.866589970389356
20
-45.420307978821484
30
0
10
-94.026273479160068
20
-46.075051737837853
30
0
0
LINE
5
133
100
AcDbEntity
8
0
100
AcDbLine
10
-86.407170486012717
20
-19.328318344198838
30
0
11
-39.014431990361459
21
-14.243387815736138
31
0
0
ARC
5
134
100
AcDbEntity
8
0
100
AcDbCircle
10
-37.947620401992857
20
-24.18632063432252
30
0
40
10
210
0
220
-0
230
1
100
AcDbArc
50
32.51183393276154
51
96.124033971518543
0
ARC
5
135
100
AcDbEntity
8
0
100
AcDbCircle
10
0
20
0
30
0
40
34.999999999999993
210
0
220
0
230
1
100
AcDbArc
50
212.51183393276153
51
263.28444556461443
0
ARC
5
136
100
AcDbEntity
8
0
100
AcDbCircle
10
-5.2623159705905307
20
-44.691252283032618
30
0
40
10
210
0
220
-0
230
1
100
AcDbArc
50
6.1240339715184655
51
83.284445564614401
0
LINE
5
137
100
AcDbEntity
8
0
100
AcDbLine
10
4.6806168479958687
20
-43.624440694664024
30
0
11
5.2672522101061778
21
-49.092019091885717
31
0
0
SPLINE
5
138
100
AcDbEntity
8
0
100
AcDbSpline
70
0
71
3
72
14
73
10
74
0
42
0.000000001
43
0.0000000001
44
0.0000000001
40
0
40
0
40
0
40
0
40
0.58596671008039147
40
0.58596671008039147
40
1.1719334201607838
40
1.1719334201607838
40
1.5806873507941002
40
1.5806873507941002
40
1.9894412814274181
40
1.9894412814274181
40
1.9894412814274181
40
1.9894412814274181
10
-4.43783688687029
20
-64.758617955120499
30
0
10
-2.6061854915434237
20
-64.080288550855215
30
0
10
-0.92453849833906165
20
-63.050682098034862
30
0
10
1.9494369504095901
20
-60.404822015043884
30
0
10
3.1142886342261984
20
-58.813864249371832
30
0
10
4.5184346387831296
20
-55.810120635383697
30
0
10
4.9245738613716625
20
-54.502930974619808
30
0
10
5.3727009972666462
20
-51.815004285929859
30
0
10
5.4126066867697729
20
-50.446756715759122
30
0
10
5.2672522101061592
20
-49.092019091885717
30
0
0
LINE
5
139
100
AcDbEntity
8
0
100
AcDbLine
10
-48.260740170472744
20
130.93260451730967
30
0
11
-20.801783767933234
21
35.948376765469519
31
0
0
ARC
5
140
100
AcDbEntity
8
0
100
AcDbCircle
10
-30.408411207122473
20
33.171200277628607
30
0
40
9.9999999999999964
210
-0
220
0
230
1
100
AcDbArc
50
-47.488166067238424
51
16.124033971518514
0
ARC
5
141
100
AcDbEntity
8
0
100
AcDbCircle
10
0
20
0
30
0
40
35
210
0
220
0
230
1
100
AcDbArc
50
132.51183393276156
51
159.73623401027555
0
ARC
5
142
100
AcDbEntity
8
0
100
AcDbCircle
10
-42.214866755467277
20
15.585410640023056
30
0
40
10
210
-0
220
0
230
1
100
AcDbArc
50
276.12403397151849
51
339.73623401027578
0
LINE
5
143
100
AcDbEntity
8
0
100
AcDbLine
10
-41.148055167098676
20
5.6424778214366578
30
0
11
-102.27620876046996
21
-0.91617281201454848
31
0
0
SPLINE
5
144
100
AcDbEntity
8
0
100
AcDbSpline
70
0
71
3
72
14
73
10
74
0
42
0.000000001
43
0.0000000001
44
0.0000000001
40
0
40
0
40
0
40
0
40
1.1719334201607823
40
1.1719334201607823
40
2.3438668403215654
40
2.3438668403215654
40
3.375780132609238
40
3.375780132609238
40
4.4076934248969097
40
4.4076934248969097
40
4.4076934248969097
40
4.4076934248969097
10
-134.80133258848454
20
22.583122395959734
30
0
10
-133.97713743414062
20
18.764613157221273
30
0
10
-132.41498226934826
20
15.143594589071846
30
0
10
-127.99060997884878
20
8.7041713485820296
30
0
10
-125.17069226370805
20
5.9473310721775574
30
0
10
-119.02340731682145
20
1.9252804173081397
30
0
10
-115.84247839818292
20
0.55101287259723908
30
0
10
-109.15414468796114
20
-1.0591543632440079
30
0
10
-105.69629027374417
20
-1.2831251648159792
30
0
10
-102.27620876046996
20
-0.91617281201461509
30
0
0
SPLINE
5
145
100
AcDbEntity
8
0
100
AcDbSpline
70
0
71
3
72
26
73
22
74
0
42
0.000000001
43
0.0000000001
44
0.0000000001
40
-0.55644596398450308
40
-0.55644596398450308
40
-0.55644596398450308
40
-0.55644596398450308
40
-0.54348765622298245
40
-0.54348765622298245
40
-0.54348765622298245
40
-0.51796451747564665
40
-0.51796451747564665
40
-0.51796451747564665
40
-0.4857580355897218
40
-0.4857580355897218
40
-0.4857580355897218
40
-0.45785471416838353
40
-0.45785471416838353
40
-0.45785471416838353
40
-0.43180908204517149
40
-0.43180908204517149
40
-0.43180908204517149
40
-0.40159724244895628
40
-0.40159724244895628
40
-0.40159724244895628
40
-0.40063908002601389
40
-0.40063908002601389
40
-0.40063908002601389
40
-0.40063908002601389
10
-134.80133258848471
20
22.583122395960334
30
0
10
-135.51385115151436
20
25.884232213655256
30
0
10
-136.08427827912843
20
29.20805924220959
30
0
10
-136.51339092988633
20
32.577536156139082
30
0
10
-137.35858629992171
20
39.214176399824382
30
0
10
-137.66009970349447
20
46.084794170419165
30
0
10
-137.41863041882047
20
53.121292939996529
30
0
10
-137.11393136829042
20
62.000329033720746
30
0
10
-135.9439315544852
20
71.059523291871784
30
0
10
-133.9392869079218
20
79.687910083409363
30
0
10
-132.20248609537887
20
87.163444072023069
30
0
10
-129.84785938351226
20
94.310309622495637
30
0
10
-126.78506375542169
20
101.32236645044264
30
0
10
-123.92617656442134
20
107.86758914311109
30
0
10
-120.42602176267222
20
114.35180963699793
30
0
10
-116.2746652445
20
120.8089063087981
30
0
10
-111.45926600057278
20
128.29886731196473
30
0
10
-105.77809591193308
20
135.72510542625184
30
0
10
-99.617360009696284
20
142.41740592454755
30
0
10
-99.42197350830844
20
142.62965089030291
30
0
10
-99.22614945926405
20
142.84109776500662
30
0
10
-99.02989393029489
20
143.05173477796782
30
0
0
SPLINE
5
146
100
AcDbEntity
8
0
100
AcDbSpline
70
0
71
3
72
18
73
14
74
0
42
0.000000001
43
0.0000000001
44
0.0000000001
40
0
40
0
40
0
40
0
40
1.1719334201607829
40
1.1719334201607829
40
2.3438668403215672
40
2.3438668403215672
40
3.5158002604823508
40
3.5158002604823508
40
4.6877336806431344
40
4.6877336806431344
40
5.5176990046950234
40
5.5176990046950234
40
6.3476643287469141
40
6.3476643287469141
40
6.3476643287469141
40
6.3476643287469141
10
-48.260740170472744
20
130.93260451730967
30
0
10
-49.345628817067904
20
134.68538043431613
30
0
10
-51.153145922810708
20
138.19037489111884
30
0
10
-56.009957616768162
20
144.31022962832773
30
0
10
-59.012818438021696
20
146.86658076186771
30
0
10
-65.82940596641167
20
150.68435187901161
30
0
10
-69.577962381449453
20
151.90927188988968
30
0
10
-77.333610512639865
20
152.85328666745551
30
0
10
-81.266554005503494
20
152.56335613834199
30
0
10
-87.700819381081118
20
150.79442928545396
30
0
10
-90.254173096690607
20
149.69556470095577
30
0
10
-94.987080931223858
20
146.82941694715126
30
0
10
-97.143967438622184
20
145.07586079855375
30
0
10
-99.029893930294932
20
143.05173477796779
30
0
0
LINE
5
147
100
AcDbEntity
8
0
100
AcDbLine
10
-1.5885288895547511
20
41.502729741151363
30
0
11
-30.114321591179877
21
140.17728790907773
31
0
0
SPLINE
5
148
100
AcDbEntity
8
0
100
AcDbSpline
70
0
71
3
72
18
73
14
74
0
42
0.000000001
43
0.0000000001
44
0.0000000001
40
0
40
0
40
0
40
0
40
1.1719334201607823
40
1.1719334201607823
40
2.3438668403215659
40
2.3438668403215659
40
3.5158002604823482
40
3.5158002604823482
40
4.6877336806431309
40
4.6877336806431309
40
5.3409307152863077
40
5.3409307152863077
40
5.9941277499294836
40
5.9941277499294836
40
5.9941277499294836
40
5.9941277499294836
10
2.9065844083765446
20
178.21321772041705
30
0
10
-0.96136886867255134
20
178.76025328172926
30
0
10
-4.8991906135820047
20
178.54656159941885
30
0
10
-12.471274682765443
20
176.62177987560742
30
0
10
-16.033143756233351
20
174.92909179647316
30
0
10
-22.30756212167379
20
170.27367387640157
30
0
10
-24.960124554250491
20
167.35545236817896
30
0
10
-28.997346348257338
20
160.66650013175985
30
0
10
-30.343407668880911
20
156.95971943270419
30
0
10
-31.274317556396099
20
150.94759484301758
30
0
10
-31.372248091755658
20
148.76602176596023
30
0
10
-31.094178423192048
20
144.42026212438012
30
0
10
-30.719002740026244
20
142.26896142781106
30
0
10
-30.114321591180101
20
140.17728790907768
30
0
0
SPLINE
5
149
100
AcDbEntity
8
0
100
AcDbSpline
70
0
71
3
72
26
73
22
74
0
42
0.000000001
43
0.0000000001
44
0.0000000001
40
-0.27209776548363301
40
-0.27209776548363301
40
-0.27209776548363301
40
-0.27209776548363301
40
-0.2643742600458277
40
-0.2643742600458277
40
-0.2643742600458277
40
-0.2339089856108505
40
-0.2339089856108505
40
-0.2339089856108505
40
-0.2106640156367984
40
-0.2106640156367984
40
-0.2106640156367984
40
-0.18232070792603419
40
-0.18232070792603419
40
-0.18232070792603419
40
-0.1605517967288147
40
-0.1605517967288147
40
-0.1605517967288147
40
-0.1334728224297442
40
-0.1334728224297442
40
-0.1334728224297442
40
-0.1193871806631492
40
-0.1193871806631492
40
-0.1193871806631492
40
-0.1193871806631492
10
2.9065844083765233
20
178.21321772041705
30
0
10
5.067712913283775
20
177.90757438398782
30
0
10
7.1870353882972013
20
177.53187332370783
30
0
10
9.2588932475591879
20
177.08432089081333
30
0
10
17.431311689024895
20
175.31895569466388
30
0
10
24.922430659799883
20
172.4422202843418
30
0
10
32.104229717064499
20
168.27701668758243
30
0
10
37.583934283721106
20
165.09897104912511
30
0
10
42.901903227294049
20
161.14472941530499
30
0
10
47.921158370028827
20
156.5718473912342
30
0
10
54.041290731919254
20
150.99599151884792
30
0
10
59.678705830964027
20
144.53705594471293
30
0
10
64.259059714124177
20
137.90955897441
30
0
10
67.776973641173882
20
132.81934880985773
30
0
10
70.65421935800164
20
127.66446855480721
30
0
10
72.796501090602675
20
122.51229232530051
30
0
10
75.461346909160696
20
116.10335223458462
30
0
10
77.038703148176893
20
109.63458090409141
30
0
10
77.586865132841254
20
102.47281814349819
30
0
10
77.872001979635073
20
98.747491491575502
30
0
10
77.86812510179054
20
94.822684728661827
30
0
10
77.5883699727992
20
90.780256448623931
30
0
0
SPLINE
5
150
100
AcDbEntity
8
0
100
AcDbSpline
70
0
71
3
72
10
73
6
74
0
42
0.000000001
43
0.0000000001
44
0.0000000001
40
0
40
0
40
0
40
0
40
1.0476629481096529
40
1.0476629481096529
40
2.0953258962193058
40
2.0953258962193058
40
2.0953258962193058
40
2.0953258962193058
10
69.285209685036065
20
72.058458807338098
30
0
10
71.705658627008603
20
74.575790012270048
30
0
10
73.668070679683794
20
77.496532676427776
30
0
10
76.499688205242208
20
83.881206520331688
30
0
10
77.34726922091356
20
87.296379311947021
30
0
10
77.588369972799228
20
90.780256448623945
30
0
0
LINE
5
151
100
AcDbEntity
8
0
100
AcDbLine
10
69.285209685036065
20
72.058458807338098
30
0
11
30.409617862738951
21
31.626810484811578
31
0
0
ARC
5
152
100
AcDbEntity
8
0
100
AcDbCircle
10
23.201198753881247
20
38.557805647921654
30
0
40
10
210
0
220
0
230
1
100
AcDbArc
50
238.9636223784228
51
316.12403397151854
0
ARC
5
153
100
AcDbEntity
8
0
100
AcDbCircle
10
0
20
0
30
0
40
34.999999999999993
210
0
220
-0
230
1
100
AcDbArc
50
58.96362237842272
51
79.736234010275524
0
ARC
5
154
100
AcDbEntity
8
0
100
AcDbCircle
10
8.018098549634491
20
44.279906228992289
30
0
40
10.000000000000004
210
0
220
0
230
1
100
AcDbArc
50
196.1240339715186
51
259.73623401027572
0
LINE
5
155
100
AcDbEntity
8
0
100
AcDbLine
10
-4.7512991620681486
20
3.6640355173674992
30
0
11
49.367031970373802
21
9.4705780987812904
31
0
0
SPLINE
5
156
100
AcDbEntity
8
0
100
AcDbSpline
70
4
71
5
72
131
73
125
74
0
42
0.000000001
43
0.0000000001
44
0.0000000001
40
0
40
0
40
0
40
0
40
0
40
0
40
0.0083333333333333332
40
0.016666666666666666
40
0.025000000000000001
40
0.033333333333333333
40
0.041666666666666664
40
0.049999999999999996
40
0.058333333333333327
40
0.066666666666666666
40
0.074999999999999997
40
0.083333333333333329
40
0.09166666666666666
40
0.099999999999999992
40
0.10833333333333332
40
0.11666666666666665
40
0.12499999999999999
40
0.13333333333333333
40
0.14166666666666666
40
0.14999999999999999
40
0.15833333333333333
40
0.16666666666666666
40
0.17499999999999999
40
0.18333333333333332
40
0.19166666666666665
40
0.19999999999999998
40
0.20833333333333331
40
0.21666666666666665
40
0.22499999999999998
40
0.23333333333333331
40
0.24166666666666664
40
0.24999999999999997
40
0.2583333333333333
40
0.26666666666666666
40
0.27500000000000002
40
0.28333333333333338
40
0.29166666666666674
40
0.3000000000000001
40
0.30833333333333346
40
0.31666666666666682
40
0.32500000000000018
40
0.33333333333333354
40
0.3416666666666669
40
0.35000000000000026
40
0.35833333333333361
40
0.36666666666666697
40
0.37500000000000033
40
0.38333333333333369
40
0.39166666666666705
40
0.40000000000000041
40
0.40833333333333377
40
0.41666666666666713
40
0.42500000000000049
40
0.43333333333333385
40
0.44166666666666721
40
0.45000000000000057
40
0.45833333333333393
40
0.46666666666666728
40
0.47500000000000064
40
0.483333333333334
40
0.49166666666666736
40
0.50000000000000067
40
0.50833333333333397
40
0.51666666666666727
40
0.52500000000000058
40
0.53333333333333388
40
0.54166666666666718
40
0.55000000000000049
40
0.55833333333333379
40
0.5666666666666671
40
0.5750000000000004
40
0.5833333333333337
40
0.59166666666666701
40
0.60000000000000031
40
0.60833333333333361
40
0.61666666666666692
40
0.62500000000000022
40
0.63333333333333353
40
0.64166666666666683
40
0.65000000000000013
40
0.65833333333333344
40
0.66666666666666674
40
0.67500000000000004
40
0.68333333333333335
40
0.69166666666666665
40
0.69999999999999996
40
0.70833333333333326
40
0.71666666666666656
40
0.72499999999999987
40
0.73333333333333317
40
0.74166666666666647
40
0.74999999999999978
40
0.75833333333333308
40
0.76666666666666639
40
0.77499999999999969
40
0.78333333333333299
40
0.7916666666666663
40
0.7999999999999996
40
0.8083333333333329
40
0.81666666666666621
40
0.82499999999999951
40
0.83333333333333282
40
0.84166666666666612
40
0.84999999999999942
40
0.85833333333333273
40
0.86666666666666603
40
0.87499999999999933
40
0.88333333333333264
40
0.89166666666666594
40
0.89999999999999925
40
0.90833333333333255
40
0.91666666666666585
40
0.92499999999999916
40
0.93333333333333246
40
0.94166666666666576
40
0.94999999999999907
40
0.95833333333333237
40
0.96666666666666567
40
0.97499999999999898
40
0.98333333333333228
40
0.99166666666666559
40
1
40
1
40
1
40
1
40
1
40
1
41
1
41
1
41
1
41
1
41
1
41
1
41
1
41
1
41
1
41
1
41
1
41
1
41
1
41
1
41
1
41
1
41
1
41
1
41
1
41
1
41
1
41
1
41
1
41
1
41
1
41
1
41
1
41
1
41
1
41
1
41
1
41
1
41
1
41
1
41
1
41
1
41
1
41
1
41
1
41
1
41
1
41
1
41
1
41
1
41
1
41
1
41
1
41
1
41
1
41
1
41
1
41
1
41
1
41
1
41
1
41
1
41
1
41
1
41
1
41
1
41
1
41
1
41
1
41
1
41
1
41
1
41
1
41
1
41
1
41
1
41
1
41
1
41
1
41
1
41
1
41
1
41
1
41
1
41
1
41
1
41
1
41
1
41
1
41
1
41
1
41
1
41
1
41
1
41
1
41
1
41
1
41
1
41
1
41
1
41
1
41
1
41
1
41
1
41
1
41
1
41
1
41
1
41
1
41
1
41
1
41
1
41
1
41
1
41
1
41
1
41
1
41
1
41
1
41
1
41
1
41
1
41
1
41
1
41
1
41
1
41
1
41
1
41
1
41
1
41
1
10
49.367031970373773
20
9.4705780987813597
30
0
10
50.236976043501038
20
10.243012787346711
30
0
10
51.960667973356948
20
11.782806189550916
30
0
10
54.497616217841134
20
14.077260981378588
30
0
10
57.783032271687816
20
17.106124004291402
30
0
10
61.728431206746244
20
20.856260803171619
30
0
10
65.514525692623295
20
24.615913712703787
30
0
10
69.1452440418756
20
28.473913586929676
30
0
10
72.62791625350954
20
32.583572568403014
30
0
10
75.967965602461547
20
37.134013134552177
30
0
10
79.16103989333152
20
42.303950832991355
30
0
10
82.186659868085897
20
48.224328269047007
30
0
10
84.999677611686309
20
54.930246588777656
30
0
10
87.527695274512837
20
62.340131926192882
30
0
10
89.682340960587069
20
70.297200812071992
30
0
10
91.367755102226624
20
78.598440530283725
30
0
10
92.490316678120593
20
87.029086366337509
30
0
10
92.967528491910741
20
95.393445875611576
30
0
10
92.73801384185569
20
103.55039603781221
30
0
10
91.768786800258283
20
111.4374989060052
30
0
10
90.050712589135827
20
119.04574074426442
30
0
10
87.595606845319537
20
126.40128428294008
30
0
10
84.432717615638552
20
133.54417349065238
30
0
10
80.60545849071849
20
140.50912098019026
30
0
10
76.168092701792887
20
147.30354917020463
30
0
10
71.182291317810481
20
153.89241088113442
30
0
10
65.712901965330261
20
160.21226623649306
30
0
10
59.823809945030533
20
166.18133215216932
30
0
10
53.57381646585803
20
171.7110146309625
30
0
10
47.012387245328171
20
176.716973905972
30
0
10
40.175737849985609
20
181.12999317518972
30
0
10
33.082004653454689
20
184.90800469717431
30
0
10
25.737401937067787
20
188.03298106117131
30
0
10
18.143646498305316
20
190.50614782085336
30
0
10
10.304788090330941
20
192.34382519622838
30
0
10
2.2346032831000362
20
193.57297172094655
30
0
10
-6.0369801785355683
20
194.22695850863857
30
0
10
-14.455138839857959
20
194.34099996799074
30
0
10
-22.945487802353743
20
193.94941780412393
30
0
10
-31.423561235539314
20
193.0833783181389
30
0
10
-39.802762051527722
20
191.76854832659149
30
0
10
-48.003248536081529
20
190.0226108325416
30
0
10
-55.959728478363509
20
187.8532376374431
30
0
10
-63.631408297204871
20
185.25489132810719
30
0
10
-71.005386221441455
20
182.20938763165231
30
0
10
-78.086916205537875
20
178.69412044998168
30
0
10
-84.892547539260278
20
174.68854799338254
30
0
10
-91.441950571042909
20
170.1816021433836
30
0
10
-97.750698876774493
20
165.17818502868141
30
0
10
-103.82169789315353
20
159.70731916769245
30
0
10
-109.64013120297595
20
153.82568247220294
30
0
10
-115.17969498164831
20
147.60609938980605
30
0
10
-120.40696740465583
20
141.12851404606513
30
0
10
-125.28648723688829
20
134.47004426768214
30
0
10
-129.78557403181674
20
127.69530973490393
30
0
10
-133.8791531052066
20
120.84691642022547
30
0
10
-137.55487379952729
20
113.93510632887111
30
0
10
-140.81052982591342
20
106.94740191084205
30
0
10
-143.65107859302765
20
99.859271866736179
30
0
10
-146.08580638615049
20
92.644443231051113
30
0
10
-148.12544575658171
20
85.285302220762119
30
0
10
-149.7792888317563
20
77.783398210806652
30
0
10
-151.05237533383936
20
70.169520535833655
30
0
10
-151.9463270534394
20
62.493261291587686
30
0
10
-152.46010311922498
20
54.813141301635582
30
0
10
-152.59077508816003
20
47.18633945580094
30
0
10
-152.33431305487872
20
39.659025420842781
30
0
10
-151.68631858206078
20
32.255393770985876
30
0
10
-150.64292785041749
20
24.970341055605569
30
0
10
-149.20284906724359
20
17.783423877890275
30
0
10
-147.36917196369313
20
10.669946862857692
30
0
10
-145.15145940951192
20
3.6138439717195832
30
0
10
-142.56728268645654
20
-3.3817761715410111
30
0
10
-139.64508456049009
20
-10.279186098681967
30
0
10
-136.42216733657384
20
-17.008117999460197
30
0
10
-132.93780528014315
20
-23.485208575075326
30
0
10
-129.22774972061785
20
-29.628582421321568
30
0
10
-125.31801869201553
20
-35.374731100628537
30
0
10
-121.21932938347976
20
-40.693691419483073
30
0
10
-116.92033280454977
20
-45.606920105687394
30
0
10
-112.39749425493937
20
-50.169488595269762
30
0
10
-107.62615739550661
20
-54.449714675824893
30
0
10
-102.59137478341154
20
-58.50942155835159
30
0
10
-97.29839733979432
20
-62.384621078321601
30
0
10
-91.784509158770433
20
-66.064152972341432
30
0
10
-86.108029066990468
20
-69.503942283398374
30
0
10
-80.335740109929915
20
-72.643763889446006
30
0
10
-74.530665824967627
20
-75.423360370011224
30
0
10
-68.740221195852754
20
-77.798212060056485
30
0
10
-62.982795404971569
20
-79.757120360580728
30
0
10
-57.255901507536471
20
-81.314770231031716
30
0
10
-51.546907654262348
20
-82.50155293793425
30
0
10
-45.842148395938274
20
-83.354678775205741
30
0
10
-40.138328821069379
20
-83.908051483641529
30
0
10
-34.447701873554266
20
-84.184958634124882
30
0
10
-28.789194780777599
20
-84.196949658777314
30
0
10
-23.182220843591836
20
-83.941411299510946
30
0
10
-17.639629594946932
20
-83.399838992208984
30
0
10
-12.16044505725832
20
-82.535271534931042
30
0
10
-6.740964831556532
20
-81.30833204781824
30
0
10
-1.388063813687068
20
-79.695677266230433
30
0
10
3.8704887335900939
20
-77.704756352890342
30
0
10
8.9690309644774686
20
-75.39713498903042
30
0
10
13.819295462384652
20
-72.870281794908593
30
0
10
18.343674411662647
20
-70.216611334700616
30
0
10
22.498303948602569
20
-67.494815686686351
30
0
10
26.31101964154827
20
-64.68404296904724
30
0
10
29.869725917529017
20
-61.694295129659139
30
0
10
33.263546072233872
20
-58.429810248844078
30
0
10
36.540709922780351
20
-54.834176018182447
30
0
10
39.650359606913739
20
-50.952034713598806
30
0
10
42.486128092266753
20
-46.889728594911773
30
0
10
44.942287127970417
20
-42.763406208215848
30
0
10
46.968641112312604
20
-38.648829317708568
30
0
10
48.617066558815829
20
-34.537995546631272
30
0
10
49.979463703855345
20
-30.386238353641847
30
0
10
51.141285795953976
20
-26.146999009909209
30
0
10
52.115856466567323
20
-21.820830218042499
30
0
10
52.852950144159166
20
-17.450834145212458
30
0
10
53.280345328782126
20
-13.094306682080267
30
0
10
53.339353157909137
20
-8.7990289085153996
30
0
10
53.075842523853566
20
-5.4285990003960869
30
0
10
52.702566682629559
20
-2.9408209808359538
30
0
10
52.376277168501559
20
-1.299976635801886
30
0
10
52.193769677859656
20
-0.48397501277603561
30
0
0
ARC
5
157
100
AcDbEntity
8
0
100
AcDbCircle
10
-36.998624331471831
20
-20.43280790188777
30
0
40
91.396056166300426
210
0
220
-0
230
1
100
AcDbArc
50
12.607323682334588
51
13.807168303929389
0
LINE
5
158
100
AcDbEntity
8
0
100
AcDbLine
10
51.756490629238989
20
1.3793137524709786
30
0
11
-3.8658455437224859
21
-4.5885987220589461
31
0
0
ARC
5
159
100
AcDbEntity
8
0
100
AcDbCircle
10
0
20
0
30
0
40
6.0000000000000009
210
0
220
0
230
1
100
AcDbArc
50
142.36184876862552
51
229.88621917440813
0
CIRCLE
5
160
100
AcDbEntity
8
0
100
AcDbCircle
10
7.2856448508858236
20
16.459628765763853
30
0
40
3.2000000000000006
210
0
220
0
230
1
0
CIRCLE
5
161
100
AcDbEntity
8
0
100
AcDbCircle
10
-7.2856448508858263
20
-16.459628765763856
30
0
40
3.2000000000000006
210
0
220
0
230
1
0
ENDSEC
0
SECTION
2
OBJECTS
0
DICTIONARY
5
C
100
AcDbDictionary
3
ACAD_GROUP
350
D
3
ACAD_MLINESTYLE
350
17
0
DICTIONARY
5
D
100
AcDbDictionary
0
DICTIONARY
5
1A
330
C
100
AcDbDictionary
0
DICTIONARY
5
17
100
AcDbDictionary
0
ENDSEC
0
EOF
