0
SECTION
2
HEADER
9
$INSUNITS
70
4
9
$ACADVER
1
AC1014
9
$HANDSEED
5
FFFF
0
ENDSEC
0
SECTION
2
TABLES
0
TABLE
2
VPORT
5
8
100
AcDbSymbolTable
0
ENDTAB
0
TABLE
2
LTYPE
5
5
100
AcDbSymbolTable
0
LTYPE
5
14
100
AcDbSymbolTableRecord
100
AcDbLinetypeTableRecord
2
BYBLOCK
70
0
0
LTYPE
5
15
100
AcDbSymbolTableRecord
100
AcDbLinetypeTableRecord
2
BYLAYER
70
0
0
ENDTAB
0
TABLE
2
LAYER
5
2
100
AcDbSymbolTable
70
2
0
LAYER
5
50
100
AcDbSymbolTableRecord
100
AcDbLayerTableRecord
2
0
70
0
6
CONTINUOUS
0
ENDTAB
0
TABLE
2
STYLE
5
3
100
AcDbSymbolTable
70
1
0
STYLE
5
11
100
AcDbSymbolTableRecord
100
AcDbTextStyleTableRecord
2
STANDARD
70
0
0
ENDTAB
0
TABLE
2
VIEW
5
6
100
AcDbSymbolTable
70
0
0
ENDTAB
0
TABLE
2
UCS
5
7
100
AcDbSymbolTable
70
0
0
ENDTAB
0
TABLE
2
APPID
5
9
100
AcDbSymbolTable
70
2
0
APPID
5
12
100
AcDbSymbolTableRecord
100
AcDbRegAppTableRecord
2
ACAD
70
0
0
ENDTAB
0
TABLE
2
DIMSTYLE
5
A
100
AcDbSymbolTable
70
1
0
ENDTAB
0
TABLE
2
BLOCK_RECORD
5
1
100
AcDbSymbolTable
70
1
0
BLOCK_RECORD
5
1F
100
AcDbSymbolTableRecord
100
AcDbBlockTableRecord
2
*MODEL_SPACE
0
BLOCK_RECORD
5
1B
100
AcDbSymbolTableRecord
100
AcDbBlockTableRecord
2
*PAPER_SPACE
0
ENDTAB
0
ENDSEC
0
SECTION
2
BLOCKS
0
BLOCK
5
20
100
AcDbEntity
100
AcDbBlockBegin
2
*MODEL_SPACE
0
ENDBLK
5
21
100
AcDbEntity
100
AcDbBlockEnd
0
BLOCK
5
1C
100
AcDbEntity
100
AcDbBlockBegin
2
*PAPER_SPACE
0
ENDBLK
5
1D
100
AcDbEntity
100
AcDbBlockEnd
0
ENDSEC
0
SECTION
2
ENTITIES
0
LINE
5
100
100
AcDbEntity
8
0
100
AcDbLine
10
-49.501334394922793
20
9.4849878695673233
30
0
11
4.7512991620681522
21
3.6640355173674988
31
0
0
ARC
5
101
100
AcDbEntity
8
0
100
AcDbCircle
10
-3.3306690738754696e-15
20
0
30
0
40
6.0000000000000036
210
0
220
0
230
1
100
AcDbArc
50
-49.886219174408076
51
37.638151231374444
0
LINE
5
102
100
AcDbEntity
8
0
100
AcDbLine
10
3.8658455437224895
20
-4.5885987220589461
30
0
11
-50.871656860213783
21
1.2843768826561686
31
0
0
ARC
5
103
100
AcDbEntity
8
0
100
AcDbCircle
10
41.134548806571701
20
-18.065581613447542
30
0
40
94.018949020927508
210
0
220
0
230
1
100
AcDbArc
50
168.12313091101439
51
169.48297917522129
0
SPLINE
5
104
100
AcDbEntity
8
0
100
AcDbSpline
70
4
71
5
72
131
73
125
74
0
42
0.000000001
43
0.0000000001
44
0.0000000001
40
0.0010631005291919691
40
0.0010631005291919691
40
0.0010631005291919691
40
0.0010631005291919691
40
0.0010631005291919691
40
0.0010631005291919691
40
0.0083333333333333332
40
0.016666666666666666
40
0.025000000000000001
40
0.033333333333333333
40
0.041666666666666664
40
0.049999999999999996
40
0.058333333333333327
40
0.066666666666666666
40
0.074999999999999997
40
0.083333333333333329
40
0.09166666666666666
40
0.099999999999999992
40
0.10833333333333332
40
0.11666666666666665
40
0.12499999999999999
40
0.13333333333333333
40
0.14166666666666666
40
0.14999999999999999
40
0.15833333333333333
40
0.16666666666666666
40
0.17499999999999999
40
0.18333333333333332
40
0.19166666666666665
40
0.19999999999999998
40
0.20833333333333331
40
0.21666666666666665
40
0.22499999999999998
40
0.23333333333333331
40
0.24166666666666664
40
0.24999999999999997
40
0.2583333333333333
40
0.26666666666666666
40
0.27500000000000002
40
0.28333333333333338
40
0.29166666666666674
40
0.3000000000000001
40
0.30833333333333346
40
0.31666666666666682
40
0.32500000000000018
40
0.33333333333333354
40
0.3416666666666669
40
0.35000000000000026
40
0.35833333333333361
40
0.36666666666666697
40
0.37500000000000033
40
0.38333333333333369
40
0.39166666666666705
40
0.40000000000000041
40
0.40833333333333377
40
0.41666666666666713
40
0.42500000000000049
40
0.43333333333333385
40
0.44166666666666721
40
0.45000000000000057
40
0.45833333333333393
40
0.46666666666666728
40
0.47500000000000064
40
0.483333333333334
40
0.49166666666666736
40
0.50000000000000067
40
0.50833333333333397
40
0.51666666666666727
40
0.52500000000000058
40
0.53333333333333388
40
0.54166666666666718
40
0.55000000000000049
40
0.55833333333333379
40
0.5666666666666671
40
0.5750000000000004
40
0.5833333333333337
40
0.59166666666666701
40
0.60000000000000031
40
0.60833333333333361
40
0.61666666666666692
40
0.62500000000000022
40
0.63333333333333353
40
0.64166666666666683
40
0.65000000000000013
40
0.65833333333333344
40
0.66666666666666674
40
0.67500000000000004
40
0.68333333333333335
40
0.69166666666666665
40
0.69999999999999996
40
0.70833333333333326
40
0.71666666666666656
40
0.72499999999999987
40
0.73333333333333317
40
0.74166666666666647
40
0.74999999999999978
40
0.75833333333333308
40
0.76666666666666639
40
0.77499999999999969
40
0.78333333333333299
40
0.7916666666666663
40
0.7999999999999996
40
0.8083333333333329
40
0.81666666666666621
40
0.82499999999999951
40
0.83333333333333282
40
0.84166666666666612
40
0.84999999999999942
40
0.85833333333333273
40
0.86666666666666603
40
0.87499999999999933
40
0.88333333333333264
40
0.89166666666666594
40
0.89999999999999925
40
0.90833333333333255
40
0.91666666666666585
40
0.92499999999999916
40
0.93333333333333246
40
0.94166666666666576
40
0.94999999999999907
40
0.95833333333333237
40
0.96666666666666567
40
0.97499999999999898
40
0.98333333333333228
40
0.99166666666666559
40
1
40
1
40
1
40
1
40
1
40
1
41
1
41
1
41
1
41
1
41
1
41
1
41
1
41
1
41
1
41
1
41
1
41
1
41
1
41
1
41
1
41
1
41
1
41
1
41
1
41
1
41
1
41
1
41
1
41
1
41
1
41
1
41
1
41
1
41
1
41
1
41
1
41
1
41
1
41
1
41
1
41
1
41
1
41
1
41
1
41
1
41
1
41
1
41
1
41
1
41
1
41
1
41
1
41
1
41
1
41
1
41
1
41
1
41
1
41
1
41
1
41
1
41
1
41
1
41
1
41
1
41
1
41
1
41
1
41
1
41
1
41
1
41
1
41
1
41
1
41
1
41
1
41
1
41
1
41
1
41
1
41
1
41
1
41
1
41
1
41
1
41
1
41
1
41
1
41
1
41
1
41
1
41
1
41
1
41
1
41
1
41
1
41
1
41
1
41
1
41
1
41
1
41
1
41
1
41
1
41
1
41
1
41
1
41
1
41
1
41
1
41
1
41
1
41
1
41
1
41
1
41
1
41
1
41
1
41
1
41
1
41
1
41
1
41
1
41
1
41
1
41
1
41
1
41
1
41
1
41
1
10
-49.501334394922793
20
9.4849878695673233
30
0
10
-50.284164107005445
20
10.242456908151429
30
0
10
-51.931757627917399
20
11.84622093376931
30
0
10
-54.352152470142563
20
14.234285846855293
30
0
10
-57.393800978368915
20
17.304863706568337
30
0
10
-60.85158206177838
20
20.9328500405611
30
0
10
-64.030067562170487
20
24.464752785296557
30
0
10
-66.880758019924926
20
27.919396369424319
30
0
10
-69.477391420979686
20
31.494820521986373
30
0
10
-71.913711900874503
20
35.448326855440342
30
0
10
-74.271684340118114
20
40.025012764584353
30
0
10
-76.59851542017735
20
45.405917841327025
30
0
10
-78.87299400439629
20
51.633583533446398
30
0
10
-81.004187500032984
20
58.604439542996822
30
0
10
-82.860915718914526
20
66.124323238182967
30
0
10
-84.292511319387728
20
73.946237162560536
30
0
10
-85.153955381338662
20
81.81681721257165
30
0
10
-85.327223980034447
20
89.515619712742165
30
0
10
-84.748945235184223
20
96.905899652447744
30
0
10
-83.418856596210574
20
103.95081380926131
30
0
10
-81.378778058875383
20
110.67665515469017
30
0
10
-78.69879212583777
20
117.14903555328041
30
0
10
-75.459967726353497
20
123.44282527157824
30
0
10
-71.739878530098181
20
129.61718545436062
30
0
10
-67.593693779375712
20
135.68245161050845
30
0
10
-63.049793146928941
20
141.59380886202328
30
0
10
-58.12022366859145
20
147.27236915642837
30
0
10
-52.807085186127807
20
152.61871908629388
30
0
10
-47.110788687910208
20
157.52994923785539
30
0
10
-41.037009913487736
20
161.91421690776806
30
0
10
-34.605418585923175
20
165.70872531619412
30
0
10
-27.853634663602421
20
168.88845809129026
30
0
10
-20.83111389288101
20
171.45538783445119
30
0
10
-13.595118925526922
20
173.43171976812692
30
0
10
-6.2058108072893194
20
174.85145940657503
30
0
10
1.278159740631817
20
175.75288491331992
30
0
10
8.8045663338296993
20
176.17020139859659
30
0
10
16.331446635072801
20
176.12682706436075
30
0
10
23.824766963594939
20
175.63787719188144
30
0
10
31.256775820952978
20
174.71162259711309
30
0
10
38.604102236428545
20
173.35133968692648
30
0
10
45.845949540425522
20
171.55699141113269
30
0
10
52.962286388087001
20
169.32697997312235
30
0
10
59.93194020723103
20
166.65986565584763
30
0
10
66.732814896416883
20
163.55625771678521
30
0
10
73.342251474109702
20
160.02075035419239
30
0
10
79.737337462393967
20
156.06376942398947
30
0
10
85.895235770410267
20
151.70362939833279
30
0
10
91.793510425174816
20
146.96810713465425
30
0
10
97.410440956497979
20
141.89724827124797
30
0
10
102.72542286183666
20
136.53944994150226
30
0
10
107.71940555318558
20
130.94497910897985
30
0
10
112.3753116566963
20
125.16051288122397
30
0
10
116.67848120478494
20
119.22285068608139
30
0
10
120.61706947681971
20
113.15391001741334
30
0
10
124.18255826232675
20
106.95285053089981
30
0
10
127.36984490922322
20
100.59895119999149
30
0
10
130.17696431788158
20
94.064228390156345
30
0
10
132.60490265778549
20
87.323040633530155
30
0
10
134.65740231443232
20
80.363560230647948
30
0
10
136.34070954288455
20
73.196986029291295
30
0
10
137.66350512980682
20
65.871392790160769
30
0
10
138.63606826280767
20
58.467647767629046
30
0
10
139.26882733077241
20
51.08171037291325
30
0
10
139.57113913147055
20
43.81125132993045
30
0
10
139.54986567726456
20
36.739711637872404
30
0
10
139.20828800333837
20
29.923273269488803
30
0
10
138.54425333054857
20
23.372067864535978
30
0
10
137.55112227970204
20
17.051798797606914
30
0
10
136.22135922771673
20
10.904675597888831
30
0
10
134.5494718631914
20
4.8653489504703433
30
0
10
132.53506008265023
20
-1.1217430668721078
30
0
10
130.18619388229499
20
-7.0841459545305039
30
0
10
127.52153221315425
20
-13.007973694581672
30
0
10
124.56527704080509
20
-18.852542152229717
30
0
10
121.34315480177659
20
-24.561247077002434
30
0
10
117.87775302394117
20
-30.074264301807805
30
0
10
114.1847015802104
20
-35.339611707149686
30
0
10
110.26701683297729
20
-40.327138517783794
30
0
10
106.12022478367798
20
-45.025945647393193
30
0
10
101.74021635488708
20
-49.437267319408953
30
0
10
97.130776612933403
20
-53.568659978653429
30
0
10
92.309927259127647
20
-57.428141851494956
30
0
10
87.320063324369443
20
-61.017132802614469
30
0
10
82.222713693106073
20
-64.329089957053554
30
0
10
77.081538749161993
20
-67.352862049185944
30
0
10
71.947607918926963
20
-70.074711900259317
30
0
10
66.846137622036679
20
-72.480824104176264
30
0
10
61.75665206715766
20
-74.559756203478173
30
0
10
56.621743123977183
20
-76.304258858008637
30
0
10
51.37773871168757
20
-77.712504808382732
30
0
10
45.978985393573339
20
-78.789487816264767
30
0
10
40.424768975755157
20
-79.548377103754476
30
0
10
34.785164403504737
20
-80.011850551451687
30
0
10
29.168661503547963
20
-80.204864692662724
30
0
10
23.687453387921046
20
-80.146779590986753
30
0
10
18.427077964597899
20
-79.844891525115216
30
0
10
13.405977725551777
20
-79.284585794078808
30
0
10
8.5680499066854878
20
-78.430668704668349
30
0
10
3.832629911612349
20
-77.248665034713568
30
0
10
-0.87120899393519247
20
-75.720103996787188
30
0
10
-5.5584433953755452
20
-73.863415848125896
30
0
10
-10.164092575197738
20
-71.742693132948972
30
0
10
-14.592393444785356
20
-69.434378843066654
30
0
10
-18.753859133029593
20
-67.001150406388234
30
0
10
-22.608877109452806
20
-64.461581442959798
30
0
10
-26.203322921174021
20
-61.765647904310931
30
0
10
-29.617107063305102
20
-58.839018153190459
30
0
10
-32.921691785426404
20
-55.619939650521104
30
0
10
-36.126788057063109
20
-52.105331120849321
30
0
10
-39.154910469535658
20
-48.372968298108539
30
0
10
-41.899026149979633
20
-44.532878675055244
30
0
10
-44.261245319753407
20
-40.694275373692633
30
0
10
-46.208283032554974
20
-36.919802389046907
30
0
10
-47.788802558485493
20
-33.207026775550979
30
0
10
-49.08180532615912
20
-29.518027657535598
30
0
10
-50.161004663129361
20
-25.798293762077918
30
0
10
-51.049665289164224
20
-22.001036621661036
30
0
10
-51.731100111184567
20
-18.089336883718847
30
0
10
-52.162620394549236
20
-14.036858220053777
30
0
10
-52.288381513499886
20
-9.8298996305498072
30
0
10
-52.099543646949186
20
-6.3378894698135664
30
0
10
-51.775411887049799
20
-3.6483851367740696
30
0
10
-51.475707025445949
20
-1.8243232817870307
30
0
10
-51.304950276559424
20
-0.90452732591719043
30
0
0
CIRCLE
5
105
100
AcDbEntity
8
0
100
AcDbCircle
10
7.2856448508858263
20
-16.459628765763856
30
0
40
3.2000000000000006
210
0
220
-0
230
1
0
CIRCLE
5
106
100
AcDbEntity
8
0
100
AcDbCircle
10
-7.2856448508858236
20
16.459628765763853
30
0
40
3.2000000000000006
210
0
220
-0
230
1
0
ENDSEC
0
SECTION
2
OBJECTS
0
DICTIONARY
5
C
100
AcDbDictionary
3
ACAD_GROUP
350
D
3
ACAD_MLINESTYLE
350
17
0
DICTIONARY
5
D
100
AcDbDictionary
0
DICTIONARY
5
1A
330
C
100
AcDbDictionary
0
DICTIONARY
5
17
100
AcDbDictionary
0
ENDSEC
0
EOF
