0
SECTION
2
HEADER
9
$INSUNITS
70
4
9
$ACADVER
1
AC1014
9
$HANDSEED
5
FFFF
0
ENDSEC
0
SECTION
2
TABLES
0
TABLE
2
VPORT
5
8
100
AcDbSymbolTable
0
ENDTAB
0
TABLE
2
LTYPE
5
5
100
AcDbSymbolTable
0
LTYPE
5
14
100
AcDbSymbolTableRecord
100
AcDbLinetypeTableRecord
2
BYBLOCK
70
0
0
LTYPE
5
15
100
AcDbSymbolTableRecord
100
AcDbLinetypeTableRecord
2
BYLAYER
70
0
0
ENDTAB
0
TABLE
2
LAYER
5
2
100
AcDbSymbolTable
70
2
0
LAYER
5
50
100
AcDbSymbolTableRecord
100
AcDbLayerTableRecord
2
0
70
0
6
CONTINUOUS
0
ENDTAB
0
TABLE
2
STYLE
5
3
100
AcDbSymbolTable
70
1
0
STYLE
5
11
100
AcDbSymbolTableRecord
100
AcDbTextStyleTableRecord
2
STANDARD
70
0
0
ENDTAB
0
TABLE
2
VIEW
5
6
100
AcDbSymbolTable
70
0
0
ENDTAB
0
TABLE
2
UCS
5
7
100
AcDbSymbolTable
70
0
0
ENDTAB
0
TABLE
2
APPID
5
9
100
AcDbSymbolTable
70
2
0
APPID
5
12
100
AcDbSymbolTableRecord
100
AcDbRegAppTableRecord
2
ACAD
70
0
0
ENDTAB
0
TABLE
2
DIMSTYLE
5
A
100
AcDbSymbolTable
70
1
0
ENDTAB
0
TABLE
2
BLOCK_RECORD
5
1
100
AcDbSymbolTable
70
1
0
BLOCK_RECORD
5
1F
100
AcDbSymbolTableRecord
100
AcDbBlockTableRecord
2
*MODEL_SPACE
0
BLOCK_RECORD
5
1B
100
AcDbSymbolTableRecord
100
AcDbBlockTableRecord
2
*PAPER_SPACE
0
ENDTAB
0
ENDSEC
0
SECTION
2
BLOCKS
0
BLOCK
5
20
100
AcDbEntity
100
AcDbBlockBegin
2
*MODEL_SPACE
0
ENDBLK
5
21
100
AcDbEntity
100
AcDbBlockEnd
0
BLOCK
5
1C
100
AcDbEntity
100
AcDbBlockBegin
2
*PAPER_SPACE
0
ENDBLK
5
1D
100
AcDbEntity
100
AcDbBlockEnd
0
ENDSEC
0
SECTION
2
ENTITIES
0
LWPOLYLINE
5
100
100
AcDbEntity
8
0
100
AcDbPolyline
90
6
70
1
43
0.0
10
-106.22127544364341
20
-8.8912682002579935
10
-107.77800109727436
20
-9.8128879890640484
10
-105.03179800188468
20
-14.451552284903643
10
-112.63895534574117
20
-18.95517611117452
10
-111.5345041008562
20
-20.820725882327402
10
-102.37062110336873
20
-15.395482267250467
0
LWPOLYLINE
5
101
100
AcDbEntity
8
0
100
AcDbPolyline
90
10
70
1
43
0.0
10
-129.13445990888633
20
-3.1591977287870785
10
-129.66306219012833
20
-10.41458053248984
42
0.5773502691896395
10
-128.65988807653392
20
-11.095492933474066
10
-126.96118365201976
20
-10.273100179064949
42
0.041856339288307468
10
-114.04056623260912
20
-32.097562763147025
42
0.99999999999999989
10
-111.18833247446634
20
-30.069075004024381
42
-0.041856339288307599
10
-123.81094553823974
20
-8.7479772900858297
10
-122.11224111372556
20
-7.925584535676645
42
0.57735026918962751
10
-122.02414073351855
20
-6.7163540683929055
10
-128.04318541508493
20
-2.6308796624875175
42
0.57735026918962495
0
SPLINE
5
102
100
AcDbEntity
8
0
100
AcDbSpline
70
0
71
3
72
9
73
5
74
0
42
0.000000001
43
0.0000000001
44
0.0000000001
40
0
40
0
40
0
40
0
40
0.13493944444112346
40
0.26026390219143508
40
0.26026390219143508
40
0.26026390219143508
40
0.26026390219143508
10
-97.340039785468008
20
-23.533309024019175
30
0
10
-97.131744993626398
20
-23.943014954137716
30
0
10
-96.729997264818337
20
-24.733233593063201
30
0
10
-96.797743966927086
20
-25.615525110394366
30
0
10
-96.830365927309074
20
-26.040373524086
30
0
0
SPLINE
5
103
100
AcDbEntity
8
0
100
AcDbSpline
70
0
71
3
72
9
73
5
74
0
42
0.000000001
43
0.0000000001
44
0.0000000001
40
0
40
0
40
0
40
0
40
0.12292750563017101
40
0.25055953706145256
40
0.25055953706145256
40
0.25055953706145256
40
0.25055953706145256
10
-96.830365927309074
20
-26.040373524086
30
0
10
-96.946899153531433
20
-26.442534632383484
30
0
10
-97.184425418014456
20
-27.262247849556314
30
0
10
-97.8246839077147
20
-27.827789184360782
30
0
10
-98.15082392473397
20
-28.115869176309964
30
0
0
LINE
5
104
100
AcDbEntity
8
0
100
AcDbLine
10
-98.150823924733984
20
-28.115869176309964
30
0
11
-99.373708658033848
21
-26.524711586200574
31
0
0
SPLINE
5
105
100
AcDbEntity
8
0
100
AcDbSpline
70
0
71
3
72
9
73
5
74
0
42
0.000000001
43
0.0000000001
44
0.0000000001
40
0
40
0
40
0
40
0
40
0.069460716261794023
40
0.12913652741409895
40
0.12913652741409895
40
0.12913652741409895
40
0.12913652741409895
10
-99.373708658033848
20
-26.524711586200574
30
0
10
-99.19331186663166
20
-26.372362114444428
30
0
10
-98.857930712332575
20
-26.089124584013401
30
0
10
-98.703950248434111
20
-25.679539775233696
30
0
10
-98.632793703738713
20
-25.490264856749846
30
0
0
SPLINE
5
106
100
AcDbEntity
8
0
100
AcDbSpline
70
0
71
3
72
9
73
5
74
0
42
0.000000001
43
0.0000000001
44
0.0000000001
40
0
40
0
40
0
40
0
40
0.055153665076786686
40
0.11100083304553668
40
0.11100083304553668
40
0.11100083304553668
40
0.11100083304553668
10
-98.632793703738713
20
-25.490264856749846
30
0
10
-98.60662786623017
20
-25.303833853055686
30
0
10
-98.553967181636679
20
-24.928627659836124
30
0
10
-98.718358349197246
20
-24.587117986316009
30
0
10
-98.801067468538434
20
-24.415296319966835
30
0
0
SPLINE
5
107
100
AcDbEntity
8
0
100
AcDbSpline
70
0
71
3
72
9
73
5
74
0
42
0.000000001
43
0.0000000001
44
0.0000000001
40
0
40
0
40
0
40
0
40
0.05991670082611477
40
0.12056145598184528
40
0.12056145598184528
40
0.12056145598184528
40
0.12056145598184528
10
-98.801067468538434
20
-24.415296319966835
30
0
10
-98.922965758017739
20
-24.249878715292901
30
0
10
-99.168243536311508
20
-23.917033498691357
30
0
10
-99.564392673996522
20
-23.798075963375037
30
0
10
-99.763663388375392
20
-23.738238011482082
30
0
0
SPLINE
5
108
100
AcDbEntity
8
0
100
AcDbSpline
70
0
71
3
72
9
73
5
74
0
42
0.000000001
43
0.0000000001
44
0.0000000001
40
0
40
0
40
0
40
0
40
0.065500143178845213
40
0.13991044119831239
40
0.13991044119831239
40
0.13991044119831239
40
0.13991044119831239
10
-99.763663388375392
20
-23.738238011482082
30
0
10
-99.985768527456742
20
-23.722180161464557
30
0
10
-100.46019234537779
20
-23.687880070325619
30
0
10
-100.88277600327152
20
-23.909521987554257
30
0
10
-101.10752388951011
20
-24.027400545961576
30
0
0
SPLINE
5
109
100
AcDbEntity
8
0
100
AcDbSpline
70
0
71
3
72
9
73
5
74
0
42
0.000000001
43
0.0000000001
44
0.0000000001
40
0
40
0
40
0
40
0
40
0.070358499738826352
40
0.13231880389098843
40
0.13231880389098843
40
0.13231880389098843
40
0.13231880389098843
10
-101.10752388951011
20
-24.027400545961576
30
0
10
-101.307482331963
20
-24.160341912860133
30
0
10
-101.68353159440444
20
-24.410356377650409
30
0
10
-101.86751493277984
20
-24.821139944654959
30
0
10
-101.95366794557509
20
-25.013495634125064
30
0
0
SPLINE
5
110
100
AcDbEntity
8
0
100
AcDbSpline
70
0
71
3
72
9
73
5
74
0
42
0.000000001
43
0.0000000001
44
0.0000000001
40
0
40
0
40
0
40
0
40
0.057497741250578993
40
0.11412826955704103
40
0.11412826955704103
40
0.11412826955704103
40
0.11412826955704103
10
-101.95366794557509
20
-25.013495634125064
30
0
10
-101.99324926530052
20
-25.20661753212849
30
0
10
-102.07181491725123
20
-25.589948556153384
30
0
10
-101.90737557560665
20
-25.944805310265096
30
0
10
-101.82578065764424
20
-26.120885483358578
30
0
0
SPLINE
5
111
100
AcDbEntity
8
0
100
AcDbSpline
70
0
71
3
72
9
73
5
74
0
42
0.000000001
43
0.0000000001
44
0.0000000001
40
0
40
0
40
0
40
0
40
0.043566020637227823
40
0.095938666110361254
40
0.095938666110361254
40
0.095938666110361254
40
0.095938666110361254
10
-101.82578065764424
20
-26.120885483358578
30
0
10
-101.74445718518382
20
-26.241634149484746
30
0
10
-101.56537115994679
20
-26.507540142120916
30
0
10
-101.33684658732889
20
-26.732662336559585
30
0
10
-101.21209567188622
20
-26.855555903413091
30
0
0
LINE
5
112
100
AcDbEntity
8
0
100
AcDbLine
10
-101.21209567188622
20
-26.855555903413091
30
0
11
-102.77104461170191
21
-27.514634593186479
31
0
0
SPLINE
5
113
100
AcDbEntity
8
0
100
AcDbSpline
70
0
71
3
72
9
73
5
74
0
42
0.000000001
43
0.0000000001
44
0.0000000001
40
0
40
0
40
0
40
0
40
0.074038091180412893
40
0.13485178393839653
40
0.13485178393839653
40
0.13485178393839653
40
0.13485178393839653
10
-102.7710446117019
20
-27.514634593186482
30
0
10
-102.90180190454537
20
-27.298329456749187
30
0
10
-103.139961126667
20
-26.904354773467194
30
0
10
-103.54816967740413
20
-26.696449384182543
30
0
10
-103.73225822751965
20
-26.602690932514879
30
0
0
SPLINE
5
114
100
AcDbEntity
8
0
100
AcDbSpline
70
0
71
3
72
9
73
5
74
0
42
0.000000001
43
0.0000000001
44
0.0000000001
40
0
40
0
40
0
40
0
40
0.055593018620265125
40
0.11403845144092478
40
0.11403845144092478
40
0.11403845144092478
40
0.11403845144092478
10
-103.73225822751965
20
-26.602690932514879
30
0
10
-103.91908334062242
20
-26.564370236411268
30
0
10
-104.30231934969834
20
-26.485762653116602
30
0
10
-104.65472612009039
20
-26.657190863633694
30
0
10
-104.83533683484711
20
-26.745048913569889
30
0
0
SPLINE
5
115
100
AcDbEntity
8
0
100
AcDbSpline
70
0
71
3
72
9
73
5
74
0
42
0.000000001
43
0.0000000001
44
0.0000000001
40
0
40
0
40
0
40
0
40
0.04936789666759301
40
0.094167036116843281
40
0.094167036116843281
40
0.094167036116843281
40
0.094167036116843281
10
-104.83533683484711
20
-26.745048913569889
30
0
10
-104.97499953952833
20
-26.840077132652979
30
0
10
-105.24139984911506
20
-27.021339174233752
30
0
10
-105.35894125480425
20
-27.320381571299158
30
0
10
-105.41486054505354
20
-27.462648362310276
30
0
0
SPLINE
5
116
100
AcDbEntity
8
0
100
AcDbSpline
70
0
71
3
72
9
73
5
74
0
42
0.000000001
43
0.0000000001
44
0.0000000001
40
0
40
0
40
0
40
0
40
0.044645078637844969
40
0.09347110550927093
40
0.09347110550927093
40
0.09347110550927093
40
0.09347110550927093
10
-105.41486054505354
20
-27.462648362310276
30
0
10
-105.43459114766343
20
-27.613724689770503
30
0
10
-105.47590009580688
20
-27.930025428280505
30
0
10
-105.33120099182617
20
-28.215235941638088
30
0
10
-105.25561525545618
20
-28.364219909606987
30
0
0
SPLINE
5
117
100
AcDbEntity
8
0
100
AcDbSpline
70
0
71
3
72
9
73
5
74
0
42
0.000000001
43
0.0000000001
44
0.0000000001
40
0
40
0
40
0
40
0
40
0.04973900896176818
40
0.099253720691467734
40
0.099253720691467734
40
0.099253720691467734
40
0.099253720691467734
10
-105.25561525545618
20
-28.364219909606987
30
0
10
-105.15639084754218
20
-28.50214137704441
30
0
10
-104.95838948252818
20
-28.777362357360154
30
0
10
-104.64025307378071
20
-28.894454828842203
30
0
10
-104.48154433762342
20
-28.952868759632512
30
0
0
SPLINE
5
118
100
AcDbEntity
8
0
100
AcDbSpline
70
0
71
3
72
9
73
5
74
0
42
0.000000001
43
0.0000000001
44
0.0000000001
40
0
40
0
40
0
40
0
40
0.05413608482447152
40
0.1179083312866346
40
0.1179083312866346
40
0.1179083312866346
40
0.1179083312866346
10
-104.48154433762342
20
-28.952868759632512
30
0
10
-104.29966674057603
20
-28.976610248165777
30
0
10
-103.90353754069369
20
-29.028319183237347
30
0
10
-103.53134299355165
20
-28.879404905833294
30
0
10
-103.33003675731534
20
-28.798862692261803
30
0
0
LINE
5
119
100
AcDbEntity
8
0
100
AcDbLine
10
-103.33003675731534
20
-28.798862692261807
30
0
11
-102.64095337050966
21
-30.595393927071047
31
0
0
SPLINE
5
120
100
AcDbEntity
8
0
100
AcDbSpline
70
0
71
3
72
9
73
5
74
0
42
0.000000001
43
0.0000000001
44
0.0000000001
40
0
40
0
40
0
40
0
40
0.09106114972133901
40
0.16750686059009162
40
0.16750686059009162
40
0.16750686059009162
40
0.16750686059009162
10
-102.64095337050964
20
-30.595393927071047
30
0
10
-102.93180792885259
20
-30.689103219164515
30
0
10
-103.46683449183183
20
-30.861481334032735
30
0
10
-104.02816322981278
20
-30.870509011600312
30
0
10
-104.28433885303706
20
-30.874629005412601
30
0
0
SPLINE
5
121
100
AcDbEntity
8
0
100
AcDbSpline
70
0
71
3
72
9
73
5
74
0
42
0.000000001
43
0.0000000001
44
0.0000000001
40
0
40
0
40
0
40
0
40
0.070626748704781916
40
0.14546851921706239
40
0.14546851921706239
40
0.14546851921706239
40
0.14546851921706239
10
-104.28433885303706
20
-30.874629005412601
30
0
10
-104.5198581324437
20
-30.840379459295896
30
0
10
-105.00495254002517
20
-30.769836345690614
30
0
10
-105.42380939802126
20
-30.514445978022557
30
0
10
-105.63930611863378
20
-30.383050763505118
30
0
0
SPLINE
5
122
100
AcDbEntity
8
0
100
AcDbSpline
70
0
71
3
72
9
73
5
74
0
42
0.000000001
43
0.0000000001
44
0.0000000001
40
0
40
0
40
0
40
0
40
0.079732813293394836
40
0.1644634716662246
40
0.1644634716662246
40
0.1644634716662246
40
0.1644634716662246
10
-105.63930611863378
20
-30.383050763505118
30
0
10
-105.85000218113387
20
-30.217905700850828
30
0
10
-106.28460124360095
20
-29.877263884629972
30
0
10
-106.58604716580301
20
-29.414257605655003
30
0
10
-106.74135041456225
20
-29.175719367036752
30
0
0
SPLINE
5
123
100
AcDbEntity
8
0
100
AcDbSpline
70
0
71
3
72
9
73
5
74
0
42
0.000000001
43
0.0000000001
44
0.0000000001
40
0
40
0
40
0
40
0
40
0.13871855688801366
40
0.26761492297526357
40
0.26761492297526357
40
0.26761492297526357
40
0.26761492297526357
10
-106.74135041456225
20
-29.175719367036752
30
0
10
-106.95366832833022
20
-28.75028799438779
30
0
10
-107.36327064408354
20
-27.929548602507992
30
0
10
-107.21810924513025
20
-27.025963429925621
30
0
10
-107.14819245344614
20
-26.590752852348999
30
0
0
SPLINE
5
124
100
AcDbEntity
8
0
100
AcDbSpline
70
0
71
3
72
9
73
5
74
0
42
0.000000001
43
0.0000000001
44
0.0000000001
40
0
40
0
40
0
40
0
40
0.10146769353482835
40
0.19781406080600739
40
0.19781406080600739
40
0.19781406080600739
40
0.19781406080600739
10
-107.14819245344614
20
-26.590752852348999
30
0
10
-107.02990436610654
20
-26.265073212608545
30
0
10
-106.79929848470258
20
-25.630151792651525
30
0
10
-106.25822583199474
20
-25.22735177155484
30
0
10
-105.99469358203349
20
-25.031165926062904
30
0
0
SPLINE
5
125
100
AcDbEntity
8
0
100
AcDbSpline
70
0
71
3
72
9
73
5
74
0
42
0.000000001
43
0.0000000001
44
0.0000000001
40
0
40
0
40
0
40
0
40
0.13281862861854291
40
0.28493211232704174
40
0.28493211232704174
40
0.28493211232704174
40
0.28493211232704174
10
-105.99469358203349
20
-25.031165926062904
30
0
10
-105.56190304230959
20
-24.86811482078723
30
0
10
-104.63344952670484
20
-24.51832581658898
30
0
10
-103.74208270139995
20
-24.970419796764549
30
0
10
-103.26621877735165
20
-25.2117740959571
30
0
0
SPLINE
5
126
100
AcDbEntity
8
0
100
AcDbSpline
70
0
71
3
72
9
73
5
74
0
42
0.000000001
43
0.0000000001
44
0.0000000001
40
0
40
0
40
0
40
0
40
0.089006445837799888
40
0.17483922169132393
40
0.17483922169132393
40
0.17483922169132393
40
0.17483922169132393
10
-103.26621877735165
20
-25.2117740959571
30
0
10
-103.34172063857093
20
-24.91892662373062
30
0
10
-103.49003221901397
20
-24.343673633496017
30
0
10
-103.33269877458669
20
-23.771316035697868
30
0
10
-103.25546000550986
20
-23.490331935421999
30
0
0
SPLINE
5
127
100
AcDbEntity
8
0
100
AcDbSpline
70
0
71
3
72
9
73
5
74
0
42
0.000000001
43
0.0000000001
44
0.0000000001
40
0
40
0
40
0
40
0
40
0.086569827669932653
40
0.17789325571538053
40
0.17789325571538053
40
0.17789325571538053
40
0.17789325571538053
10
-103.25546000550986
20
-23.490331935421999
30
0
10
-103.12633491951325
20
-23.22649304007647
30
0
10
-102.86099441277175
20
-22.684327699788184
30
0
10
-102.36243537978717
20
-22.342815151208836
30
0
10
-102.10649470462172
20
-22.1674959884256
30
0
0
SPLINE
5
128
100
AcDbEntity
8
0
100
AcDbSpline
70
0
71
3
72
9
73
5
74
0
42
0.000000001
43
0.0000000001
44
0.0000000001
40
0
40
0
40
0
40
0
40
0.13344180852826532
40
0.2680124941926183
40
0.2680124941926183
40
0.2680124941926183
40
0.2680124941926183
10
-102.10649470462172
20
-22.1674959884256
30
0
10
-101.69311599550258
20
-21.973608063601272
30
0
10
-100.86286151904534
20
-21.584191981047269
30
0
10
-99.960124293045482
20
-21.746882580528467
30
0
10
-99.506854501114702
20
-21.828570509254636
30
0
0
SPLINE
5
129
100
AcDbEntity
8
0
100
AcDbSpline
70
0
71
3
72
9
73
5
74
0
42
0.000000001
43
0.0000000001
44
0.0000000001
40
0
40
0
40
0
40
0
40
0.13789592494991332
40
0.28124973319027768
40
0.28124973319027768
40
0.28124973319027768
40
0.28124973319027768
10
-99.506854501114702
20
-21.828570509254636
30
0
10
-99.068338387639301
20
-21.999049662095452
30
0
10
-98.173949811911683
20
-22.346755486385767
30
0
10
-97.621582840002446
20
-23.132707164393345
30
0
10
-97.340039785468008
20
-23.533309024019175
30
0
0
ARC
5
130
100
AcDbEntity
8
0
100
AcDbCircle
10
0
20
0
30
0
40
34.999999999999993
210
0
220
-0
230
1
100
AcDbArc
50
58.96362237842272
51
79.736234010275524
0
ARC
5
131
100
AcDbEntity
8
0
100
AcDbCircle
10
8.0180985496344928
20
44.279906228992289
30
0
40
10.000000000000007
210
0
220
0
230
1
100
AcDbArc
50
196.1240339715186
51
259.73623401027567
0
LINE
5
132
100
AcDbEntity
8
0
100
AcDbLine
10
-1.5885288895547511
20
41.502729741151363
30
0
11
-28.083601280791758
21
133.15275290364855
31
0
0
SPLINE
5
133
100
AcDbEntity
8
0
100
AcDbSpline
70
0
71
3
72
18
73
14
74
0
42
0.000000001
43
0.0000000001
44
0.0000000001
40
0
40
0
40
0
40
0
40
1.1719334201607836
40
1.1719334201607836
40
2.3438668403215654
40
2.3438668403215654
40
3.5158002604823526
40
3.5158002604823526
40
4.6877336806431344
40
4.6877336806431344
40
5.3668520348258166
40
5.3668520348258166
40
6.0459703890084979
40
6.0459703890084979
40
6.0459703890084979
40
6.0459703890084979
10
5.4484029752783725
20
171.1119030417494
30
0
10
1.5904475499023056
20
171.72549117281648
30
0
10
-2.3504711250275827
20
171.57966858417103
30
0
10
-9.9545899838298553
20
169.78561779996573
30
0
10
-13.545090646847115
20
168.15454170773614
30
0
10
-19.89877740822239
20
163.6079048876872
30
0
10
-22.601218798114818
20
160.73581248597608
30
0
10
-26.753072951566509
20
154.11740263741228
30
0
10
-28.162791726483416
20
150.43436079602395
30
0
10
-29.211825351836712
20
144.35401885383106
30
0
10
-29.342970821630221
20
142.08683643536557
30
0
10
-29.092796424416818
20
137.56629798988112
30
0
10
-28.712278456024173
20
135.32743190889801
30
0
10
-28.083601280791719
20
133.15275290364855
30
0
0
SPLINE
5
134
100
AcDbEntity
8
0
100
AcDbSpline
70
0
71
3
72
29
73
25
74
0
42
0.000000001
43
0.0000000001
44
0.0000000001
40
-0.26745574200033229
40
-0.26745574200033229
40
-0.26745574200033229
40
-0.26745574200033229
40
-0.25880944441192716
40
-0.25880944441192716
40
-0.25880944441192716
40
-0.23490007165102159
40
-0.23490007165102159
40
-0.23490007165102159
40
-0.21563175549707023
40
-0.21563175549707023
40
-0.21563175549707023
40
-0.19032955406149185
40
-0.19032955406149185
40
-0.19032955406149185
40
-0.16881377243655504
40
-0.16881377243655504
40
-0.16881377243655504
40
-0.15049525500032904
40
-0.15049525500032904
40
-0.15049525500032904
40
-0.13000656266317473
40
-0.13000656266317473
40
-0.13000656266317473
40
-0.11688178518335754
40
-0.11688178518335754
40
-0.11688178518335754
40
-0.11688178518335754
10
5.4484029752783645
20
171.1119030417494
30
0
10
7.6303947745921752
20
170.76486837635687
30
0
10
9.7502444340860741
20
170.34731560063321
30
0
10
11.805589874861912
20
169.85441063930676
30
0
10
17.489181006612661
20
168.49139388727434
30
0
10
22.731521051938934
20
166.55211451643285
30
0
10
28.016897965639057
20
163.71958849666652
30
0
10
32.276328540601263
20
161.43688508119286
30
0
10
36.58598346677438
20
158.54124088871305
30
0
10
40.891905925227846
20
155.05124797191849
30
0
10
46.546230700640479
20
150.46836158558682
30
0
10
52.15577336625185
20
144.88147294735697
30
0
10
57.035910001433322
20
139.05566028886884
30
0
10
61.185744726674812
20
134.10166791524207
30
0
10
64.778993046340219
20
129.01717023354573
30
0
10
67.52479430571708
20
124.16999451809514
30
0
10
69.862567068199922
20
120.04311340321053
30
0
10
71.595309182945428
20
116.09613781139494
30
0
10
72.816643704998455
20
112.10347067769985
30
0
10
74.182668403787901
20
107.63779659726508
30
0
10
74.939387480226003
20
103.03609871310721
30
0
10
75.132799638851708
20
97.846337041582103
30
0
10
75.256696835514191
20
94.521846342459639
30
0
10
75.138344446682339
20
90.955471898085392
30
0
10
74.796160822411153
20
87.24795322604885
30
0
0
SPLINE
5
135
100
AcDbEntity
8
0
100
AcDbSpline
70
0
71
3
72
10
73
6
74
0
42
0.000000001
43
0.0000000001
44
0.0000000001
40
0
40
0
40
0
40
0
40
1.0130027650541764
40
1.0130027650541764
40
2.0260055301083519
40
2.0260055301083519
40
2.0260055301083519
40
2.0260055301083519
10
66.548381741527109
20
69.212085035408762
30
0
10
68.888754163129647
20
71.646134531722836
30
0
10
70.80146896274897
20
74.457941417154018
30
0
10
73.610032536844443
20
80.599580509406351
30
0
10
74.485831106061028
20
83.885567839235733
30
0
10
74.796160822411224
20
87.24795322604885
30
0
0
LINE
5
136
100
AcDbEntity
8
0
100
AcDbLine
10
66.548381741527109
20
69.212085035408762
30
0
11
30.409617862738948
21
31.626810484811582
31
0
0
ARC
5
137
100
AcDbEntity
8
0
100
AcDbCircle
10
23.201198753881247
20
38.557805647921654
30
0
40
10.000000000000002
210
0
220
0
230
1
100
AcDbArc
50
238.96362237842283
51
316.12403397151854
0
ARC
5
138
100
AcDbEntity
8
0
100
AcDbCircle
10
0
20
0
30
0
40
35.000000000000007
210
0
220
0
230
1
100
AcDbArc
50
132.51183393276156
51
159.73623401027555
0
ARC
5
139
100
AcDbEntity
8
0
100
AcDbCircle
10
-42.214866755467284
20
15.58541064002306
30
0
40
10.000000000000004
210
0
220
0
230
1
100
AcDbArc
50
276.12403397151854
51
339.73623401027572
0
LINE
5
140
100
AcDbEntity
8
0
100
AcDbLine
10
-41.148055167098676
20
5.6424778214366578
30
0
11
-98.177820758229828
21
-0.4764426142757705
31
0
0
SPLINE
5
141
100
AcDbEntity
8
0
100
AcDbSpline
70
0
71
3
72
14
73
10
74
0
42
0.000000001
43
0.0000000001
44
0.0000000001
40
0
40
0
40
0
40
0
40
1.1719334201607832
40
1.1719334201607832
40
2.3438668403215663
40
2.3438668403215663
40
3.4261131162910354
40
3.4261131162910354
40
4.5083593922605045
40
4.5083593922605045
40
4.5083593922605045
40
4.5083593922605045
10
-130.89741737427423
20
24.002675139040246
30
0
10
-130.2008096406762
20
20.158842660345787
30
0
10
-128.7600758994783
20
16.487822295822543
30
0
10
-124.55254556617861
20
9.904667252117207
30
0
10
-121.82597525734435
20
7.0554711232496583
30
0
10
-115.67874538736646
20
2.734505508746703
30
0
10
-112.37728388743923
20
1.2092333826505091
30
0
10
-105.39180490771371
20
-0.59602287968242018
30
0
10
-101.76472142993974
20
-0.86129357050011213
30
0
10
-98.177820758229828
20
-0.47644261427577828
30
0
0
SPLINE
5
142
100
AcDbEntity
8
0
100
AcDbSpline
70
0
71
3
72
20
73
16
74
0
42
0.000000001
43
0.0000000001
44
0.0000000001
40
-0.55106837787017637
40
-0.55106837787017637
40
-0.55106837787017637
40
-0.55106837787017637
40
-0.53434481631887998
40
-0.53434481631887998
40
-0.53434481631887998
40
-0.50330113740680527
40
-0.50330113740680527
40
-0.50330113740680527
40
-0.47001274036169238
40
-0.47001274036169238
40
-0.47001274036169238
40
-0.43214029969883894
40
-0.43214029969883894
40
-0.43214029969883894
40
-0.40217111503710268
40
-0.40217111503710268
40
-0.40217111503710268
40
-0.40217111503710268
10
-130.89741737426553
20
24.002675138992551
30
0
10
-131.62826444552269
20
28.03543787468638
30
0
10
-132.15217215861114
20
32.145023505887117
30
0
10
-132.47940545553053
20
36.393214856814652
30
0
10
-133.08684337285132
20
44.279064282532474
30
0
10
-133.00872205499707
20
52.64476740158068
30
0
10
-132.09268327433207
20
61.124279571958638
30
0
10
-131.11040721337088
20
70.216931531021942
30
0
10
-129.13667434758145
20
79.368513290988844
30
0
10
-126.11630570097699
20
88.175161247411665
30
0
10
-122.6800113010559
20
98.194545831062811
30
0
10
-117.90701106794239
20
107.80043834483321
30
0
10
-112.17568477330964
20
116.64762761465114
30
0
10
-107.6403769591242
20
123.64857723194282
30
0
10
-102.53675707609402
20
130.17454430728773
30
0
10
-96.887872940444041
20
136.16884112445473
30
0
0
SPLINE
5
143
100
AcDbEntity
8
0
100
AcDbSpline
70
0
71
3
72
18
73
14
74
0
42
0.000000001
43
0.0000000001
44
0.0000000001
40
0
40
0
40
0
40
0
40
1.1719334201607832
40
1.1719334201607832
40
2.3438668403215654
40
2.3438668403215654
40
3.5158002604823486
40
3.5158002604823486
40
4.68773368064313
40
4.68773368064313
40
5.509150745912172
40
5.509150745912172
40
6.3305678111812149
40
6.3305678111812149
40
6.3305678111812149
40
6.3305678111812149
10
-46.235070716060747
20
123.92554110283771
30
0
10
-47.319959362655915
20
127.6783170198442
30
0
10
-49.127476468398719
20
131.18331147664691
30
0
10
-53.984288162356165
20
137.3031662138558
30
0
10
-56.987148983609693
20
139.85951734739575
30
0
10
-63.803736511999666
20
143.67728846453966
30
0
10
-67.552292927037442
20
144.90220847541772
30
0
10
-75.307941058227854
20
145.84622325298358
30
0
10
-79.240884551091483
20
145.55629272387
30
0
10
-85.647675127722863
20
143.79491932219932
30
0
10
-88.176023996815331
20
142.71106259033647
30
0
10
-92.868211101239751
20
139.8877308382759
30
0
10
-95.010037823322463
20
138.16150034624479
30
0
10
-96.887872940444055
20
136.16884112445473
30
0
0
LINE
5
144
100
AcDbEntity
8
0
100
AcDbLine
10
-46.235070716060747
20
123.92554110283771
30
0
11
-20.801783767933234
21
35.948376765469519
31
0
0
ARC
5
145
100
AcDbEntity
8
0
100
AcDbCircle
10
-30.408411207122505
20
33.171200277628621
30
0
40
10.000000000000025
210
0
220
0
230
1
100
AcDbArc
50
-47.488166067238275
51
16.124033971518422
0
ARC
5
146
100
AcDbEntity
8
0
100
AcDbCircle
10
0
20
0
30
0
40
35
210
0
220
0
230
1
100
AcDbArc
50
212.5118339327615
51
263.28444556461443
0
ARC
5
147
100
AcDbEntity
8
0
100
AcDbCircle
10
-5.2623159705905227
20
-44.691252283032611
30
0
40
9.9999999999999911
210
0
220
-0
230
1
100
AcDbArc
50
6.1240339715184655
51
83.284445564614458
0
LINE
5
148
100
AcDbEntity
8
0
100
AcDbLine
10
4.6806168479958679
20
-43.624440694664017
30
0
11
5.1247140878939312
21
-47.763530548363981
31
0
0
SPLINE
5
149
100
AcDbEntity
8
0
100
AcDbSpline
70
0
71
3
72
14
73
10
74
0
42
0.000000001
43
0.0000000001
44
0.0000000001
40
0
40
0
40
0
40
0
40
0.58596671008039103
40
0.58596671008039103
40
1.1719334201607823
40
1.1719334201607823
40
1.5798314599209964
40
1.5798314599209964
40
1.9877294996812112
40
1.9877294996812112
40
1.9877294996812112
40
1.9877294996812112
10
-4.5643995661083636
20
-63.424202783852131
30
0
10
-2.7335199055731807
20
-62.743793140084264
30
0
10
-1.0530435859877718
20
-61.712277072950421
30
0
10
1.8179244252837683
20
-59.063153984637893
30
0
10
2.9809680979836797
20
-57.470874024067101
30
0
10
4.3804958356561219
20
-54.468123190785846
30
0
10
4.7846653503946595
20
-53.163350996969115
30
0
10
5.2303305915933844
20
-50.480799003661751
30
0
10
5.2697642064569452
20
-49.115431483753611
30
0
10
5.1247140878939312
20
-47.763530548363981
30
0
0
SPLINE
5
150
100
AcDbEntity
8
0
100
AcDbSpline
70
0
71
3
72
29
73
25
74
0
42
0.000000001
43
0.0000000001
44
0.0000000001
40
-0.81915429813757556
40
-0.81915429813757556
40
-0.81915429813757556
40
-0.81915429813757556
40
-0.80949302152143598
40
-0.80949302152143598
40
-0.80949302152143598
40
-0.78696513261503909
40
-0.78696513261503909
40
-0.78696513261503909
40
-0.7681229282195573
40
-0.7681229282195573
40
-0.7681229282195573
40
-0.74130212696311937
40
-0.74130212696311937
40
-0.74130212696311937
40
-0.71878860732996985
40
-0.71878860732996985
40
-0.71878860732996985
40
-0.69552164792981341
40
-0.69552164792981341
40
-0.69552164792981341
40
-0.66717340170118244
40
-0.66717340170118244
40
-0.66717340170118244
40
-0.66529470451349204
40
-0.66529470451349204
40
-0.66529470451349204
40
-0.66529470451349204
10
-4.5643995661083636
20
-63.424202783852131
30
0
10
-6.1752226293290944
20
-64.02283281412879
30
0
10
-7.7631415073041516
20
-64.567195668077474
30
0
10
-9.2991445308340914
20
-65.042484813929605
30
0
10
-12.880752515866478
20
-66.150750470901457
30
0
10
-16.210879804376589
20
-66.904007637760515
30
0
10
-19.99850709612188
20
-67.363090136398398
30
0
10
-23.166458070201159
20
-67.747064254420053
30
0
10
-26.70898995850607
20
-67.916561946236044
30
0
10
-30.545864782910506
20
-67.849074062188507
30
0
10
-36.007436844821598
20
-67.753008915708605
30
0
10
-41.949217991103026
20
-67.180325705397138
30
0
10
-47.487678800472054
20
-66.184468807278137
30
0
10
-52.13669151925609
20
-65.348541363752275
30
0
10
-56.508205613373441
20
-64.220476066279545
30
0
10
-60.741683413361223
20
-62.729681766087751
30
0
10
-65.116839217465042
20
-61.188996390289191
30
0
10
-69.414407634546947
20
-59.233393055611891
30
0
10
-73.774965807055708
20
-56.816898140788048
30
0
10
-79.087829195974365
20
-53.872663284934887
30
0
10
-84.448424166072144
20
-50.271127282653254
30
0
10
-89.465753805785255
20
-46.319228533428216
30
0
10
-89.798262667456044
20
-46.057327990928066
30
0
10
-90.129058654328361
20
-45.794075999501189
30
0
10
-90.458142646845857
20
-45.52942245966883
30
0
0
SPLINE
5
151
100
AcDbEntity
8
0
100
AcDbSpline
70
0
71
3
72
20
73
16
74
0
42
0.000000001
43
0.0000000001
44
0.0000000001
40
0
40
0
40
0
40
0
40
0.58596671008039181
40
0.58596671008039181
40
1.1719334201607823
40
1.1719334201607823
40
1.7579001302411745
40
1.7579001302411745
40
2.3438668403215654
40
2.3438668403215654
40
2.9298335504019573
40
2.9298335504019573
40
3.2378371174666816
40
3.2378371174666816
40
3.5458406845314059
40
3.5458406845314059
40
3.5458406845314059
40
3.5458406845314059
10
-82.657939115266416
20
-18.926050366856103
30
0
10
-84.600014992685558
20
-19.134422392426767
30
0
10
-86.482823876104632
20
-19.720132872067371
30
0
10
-89.917952322324112
20
-21.580294966280867
30
0
10
-91.437430184888996
20
-22.836962417366404
30
0
10
-93.90915948368972
20
-25.862002042268045
30
0
10
-94.837779840632493
20
-27.601453188496109
30
0
10
-95.975993458888524
20
-31.338401170204104
30
0
10
-96.174704777636947
20
-33.300170746184904
30
0
10
-95.808966705810349
20
-37.189456814551633
30
0
10
-95.248013970544662
20
-39.079789612299301
30
0
10
-93.863559666838427
20
-41.718557468082558
30
0
10
-93.294485118621523
20
-42.576334821572381
30
0
10
-91.990084073926667
20
-44.162151125955582
30
0
10
-91.258197166223297
20
-44.886008421229072
30
0
10
-90.458142646722706
20
-45.529422459767886
30
0
0
LINE
5
152
100
AcDbEntity
8
0
100
AcDbLine
10
-82.657939115266416
20
-18.926050366856103
30
0
11
-39.014431990361459
21
-14.243387815736121
31
0
0
ARC
5
153
100
AcDbEntity
8
0
100
AcDbCircle
10
-37.947620401992864
20
-24.186320634322524
30
0
40
10.000000000000004
210
0
220
-0
230
1
100
AcDbArc
50
32.511833932761569
51
96.124033971518486
0
LINE
5
154
100
AcDbEntity
8
0
100
AcDbLine
10
-4.7512991620681486
20
3.6640355173674992
30
0
11
49.482307265847041
21
9.4829463832009004
31
0
0
SPLINE
5
155
100
AcDbEntity
8
0
100
AcDbSpline
70
4
71
5
72
131
73
125
74
0
42
0.000000001
43
0.0000000001
44
0.0000000001
40
0.00051759567154525813
40
0.00051759567154525813
40
0.00051759567154525813
40
0.00051759567154525813
40
0.00051759567154525813
40
0.00051759567154525813
40
0.0083333333333333332
40
0.016666666666666666
40
0.025000000000000001
40
0.033333333333333333
40
0.041666666666666664
40
0.049999999999999996
40
0.058333333333333327
40
0.066666666666666666
40
0.074999999999999997
40
0.083333333333333329
40
0.09166666666666666
40
0.099999999999999992
40
0.10833333333333332
40
0.11666666666666665
40
0.12499999999999999
40
0.13333333333333333
40
0.14166666666666666
40
0.14999999999999999
40
0.15833333333333333
40
0.16666666666666666
40
0.17499999999999999
40
0.18333333333333332
40
0.19166666666666665
40
0.19999999999999998
40
0.20833333333333331
40
0.21666666666666665
40
0.22499999999999998
40
0.23333333333333331
40
0.24166666666666664
40
0.24999999999999997
40
0.2583333333333333
40
0.26666666666666666
40
0.27500000000000002
40
0.28333333333333338
40
0.29166666666666674
40
0.3000000000000001
40
0.30833333333333346
40
0.31666666666666682
40
0.32500000000000018
40
0.33333333333333354
40
0.3416666666666669
40
0.35000000000000026
40
0.35833333333333361
40
0.36666666666666697
40
0.37500000000000033
40
0.38333333333333369
40
0.39166666666666705
40
0.40000000000000041
40
0.40833333333333377
40
0.41666666666666713
40
0.42500000000000049
40
0.43333333333333385
40
0.44166666666666721
40
0.45000000000000057
40
0.45833333333333393
40
0.46666666666666728
40
0.47500000000000064
40
0.483333333333334
40
0.49166666666666736
40
0.50000000000000067
40
0.50833333333333397
40
0.51666666666666727
40
0.52500000000000058
40
0.53333333333333388
40
0.54166666666666718
40
0.55000000000000049
40
0.55833333333333379
40
0.5666666666666671
40
0.5750000000000004
40
0.5833333333333337
40
0.59166666666666701
40
0.60000000000000031
40
0.60833333333333361
40
0.61666666666666692
40
0.62500000000000022
40
0.63333333333333353
40
0.64166666666666683
40
0.65000000000000013
40
0.65833333333333344
40
0.66666666666666674
40
0.67500000000000004
40
0.68333333333333335
40
0.69166666666666665
40
0.69999999999999996
40
0.70833333333333326
40
0.71666666666666656
40
0.72499999999999987
40
0.73333333333333317
40
0.74166666666666647
40
0.74999999999999978
40
0.75833333333333308
40
0.76666666666666639
40
0.77499999999999969
40
0.78333333333333299
40
0.7916666666666663
40
0.7999999999999996
40
0.8083333333333329
40
0.81666666666666621
40
0.82499999999999951
40
0.83333333333333282
40
0.84166666666666612
40
0.84999999999999942
40
0.85833333333333273
40
0.86666666666666603
40
0.87499999999999933
40
0.88333333333333264
40
0.89166666666666594
40
0.89999999999999925
40
0.90833333333333255
40
0.91666666666666585
40
0.92499999999999916
40
0.93333333333333246
40
0.94166666666666576
40
0.94999999999999907
40
0.95833333333333237
40
0.96666666666666567
40
0.97499999999999898
40
0.98333333333333228
40
0.99166666666666559
40
1
40
1
40
1
40
1
40
1
40
1
41
1
41
1
41
1
41
1
41
1
41
1
41
1
41
1
41
1
41
1
41
1
41
1
41
1
41
1
41
1
41
1
41
1
41
1
41
1
41
1
41
1
41
1
41
1
41
1
41
1
41
1
41
1
41
1
41
1
41
1
41
1
41
1
41
1
41
1
41
1
41
1
41
1
41
1
41
1
41
1
41
1
41
1
41
1
41
1
41
1
41
1
41
1
41
1
41
1
41
1
41
1
41
1
41
1
41
1
41
1
41
1
41
1
41
1
41
1
41
1
41
1
41
1
41
1
41
1
41
1
41
1
41
1
41
1
41
1
41
1
41
1
41
1
41
1
41
1
41
1
41
1
41
1
41
1
41
1
41
1
41
1
41
1
41
1
41
1
41
1
41
1
41
1
41
1
41
1
41
1
41
1
41
1
41
1
41
1
41
1
41
1
41
1
41
1
41
1
41
1
41
1
41
1
41
1
41
1
41
1
41
1
41
1
41
1
41
1
41
1
41
1
41
1
41
1
41
1
41
1
41
1
41
1
41
1
41
1
41
1
41
1
41
1
41
1
41
1
41
1
10
49.482307265847041
20
9.4829463832009004
30
0
10
50.272678405347321
20
10.194987709493162
30
0
10
51.888977550657806
20
11.659714471902035
30
0
10
54.286748512741745
20
13.859881640135949
30
0
10
57.393838543203174
20
16.767742176105042
30
0
10
61.111422105890071
20
20.360260897673538
30
0
10
64.695693106482878
20
23.992730151750091
30
0
10
68.106789606731326
20
27.717918072936474
30
0
10
71.357045567504116
20
31.704675322412484
30
0
10
74.458550741416161
20
36.158824734091041
30
0
10
77.414900346822449
20
41.271039856684823
30
0
10
80.214521717837485
20
47.174934301156341
30
0
10
82.821670316696355
20
53.891330859172442
30
0
10
85.174084730065005
20
61.310867282596519
30
0
10
87.192358595363132
20
69.243713602928395
30
0
10
88.786685478186698
20
77.454118999829021
30
0
10
89.864705504831306
20
85.701637983852237
30
0
10
90.338755712811462
20
93.778062210926066
30
0
10
90.133672803574541
20
101.54962633214404
30
0
10
89.193490331790386
20
108.98676829567427
30
0
10
87.482682963783347
20
116.12772493908051
30
0
10
84.987980964379318
20
123.05055412854715
30
0
10
81.720165297037184
20
129.84114008238865
30
0
10
77.715449479047052
20
136.56470426431551
30
0
10
73.038093805285314
20
143.2315072537794
30
0
10
67.779199936177903
20
149.77866390659364
30
0
10
62.044543288702357
20
156.09734591742807
30
0
10
55.944276676864916
20
162.052020304161
30
0
10
49.582115413829904
20
167.5024643162393
30
0
10
43.044246212107609
20
172.32539855092523
30
0
10
36.389511872222428
20
176.43439519996494
30
0
10
29.636027780872979
20
179.80544048250468
30
0
10
22.769139292446088
20
182.46782955205526
30
0
10
15.756132018867209
20
184.4840645256335
30
0
10
8.5585780187769949
20
185.93356936279466
30
0
10
1.1458972911040552
20
186.89452730150848
30
0
10
-6.4921424125031901
20
187.42721209594831
30
0
10
-14.331007078886035
20
187.55483224415764
30
0
10
-22.318277198692364
20
187.2713653066055
30
0
10
-30.382800759093421
20
186.55227258945075
30
0
10
-38.442905703022227
20
185.36400019432665
30
0
10
-46.415275145688852
20
183.67438863120424
30
0
10
-54.222900166229181
20
181.46175355334867
30
0
10
-61.805028098835535
20
178.72689959344402
30
0
10
-69.11883766254418
20
175.49291056530512
30
0
10
-76.135902039903669
20
171.79717587999272
30
0
10
-82.840226221158218
20
167.68584798951258
30
0
10
-89.225640384322418
20
163.20710661078778
30
0
10
-95.293474722826318
20
158.40538621203021
30
0
10
-101.05011774933138
20
153.31409501420472
30
0
10
-106.5046218167634
20
147.95276500351903
30
0
10
-111.66622867761686
20
142.33161682203942
30
0
10
-116.54197655901896
20
136.45441730584517
30
0
10
-121.13414947916475
20
130.3220728052479
30
0
10
-125.43807830704981
20
123.93578443598497
30
0
10
-129.43909548441735
20
117.30068648571344
30
0
10
-133.1121569843026
20
110.42829938635117
30
0
10
-136.4271107282257
20
103.33665194402315
30
0
10
-139.35274420113751
20
96.050857316491275
30
0
10
-141.86140760486921
20
88.603574256404528
30
0
10
-143.93318856179391
20
81.035377257677254
30
0
10
-145.56077045839939
20
73.39551358228718
30
0
10
-146.75253819950512
20
65.741462124358151
30
0
10
-147.52691221150036
20
58.132181701182468
30
0
10
-147.90786579136375
20
50.622273941792173
30
0
10
-147.91987468290441
20
43.255585833350921
30
0
10
-147.5833669430165
20
36.059512880337465
30
0
10
-146.90934112009526
20
29.037877468377108
30
0
10
-145.89622490234234
20
22.167834140243659
30
0
10
-144.53590470282353
20
15.413541798430675
30
0
10
-142.81829333632871
20
8.7370764019545319
30
0
10
-140.73670304091968
20
2.1110172896007171
30
0
10
-138.29233301088567
20
-4.4710555119314961
30
0
10
-135.50052858490926
20
-10.979636818551562
30
0
10
-132.38831170626651
20
-17.356488475557704
30
0
10
-128.98854462619184
20
-23.53038160453994
30
0
10
-125.33507132318066
20
-29.430364353165412
30
0
10
-121.45770820393174
20
-34.999392443372848
30
0
10
-117.37669163827482
20
-40.209394273185794
30
0
10
-113.09918113231022
20
-45.070958531147802
30
0
10
-108.62580158959898
20
-49.616685840011527
30
0
10
-103.95590615259202
20
-53.887970923041365
30
0
10
-99.093159291317804
20
-57.920769702773896
30
0
10
-94.0513966319498
20
-61.731065978839553
30
0
10
-88.859198725234805
20
-65.302556706416524
30
0
10
-83.550619239070016
20
-68.599983013520728
30
0
10
-78.156644463894608
20
-71.580725841565013
30
0
10
-72.697039325097549
20
-74.206563843477326
30
0
10
-67.170471458230466
20
-76.456521072944838
30
0
10
-61.549945211567447
20
-78.335809528202859
30
0
10
-55.803654290769693
20
-79.864684972204088
30
0
10
-49.914023223156072
20
-81.069466519410497
30
0
10
-43.894457111179548
20
-81.97361236490832
30
0
10
-37.814289759286488
20
-82.586626020922225
30
0
10
-31.793733068397895
20
-82.901806766640348
30
0
10
-25.961792479503917
20
-82.905331611417793
30
0
10
-20.421886801025309
20
-82.582657740226622
30
0
10
-15.218005239940718
20
-81.925569315037734
30
0
10
-10.291057113532752
20
-80.940095014093856
30
0
10
-5.519159711428828
20
-79.644883916348903
30
0
10
-0.77972112256288084
20
-78.067475686990321
30
0
10
4.0008921341701074
20
-76.241023034061399
30
0
10
8.7800994882286272
20
-74.201566243991223
30
0
10
13.438520978794305
20
-71.978129650710144
30
0
10
17.846902590123289
20
-69.57950428846317
30
0
10
21.917626416993592
20
-66.984954943392239
30
0
10
25.677754104176369
20
-64.126294020909512
30
0
10
29.230013632925811
20
-60.92176739967887
30
0
10
32.68035531702148
20
-57.326628496343616
30
0
10
36.079228154105337
20
-53.375501151796165
30
0
10
39.350419812276833
20
-49.235085122452126
30
0
10
42.34835934499764
20
-45.123286709303244
30
0
10
44.925546348380216
20
-41.216224965104558
30
0
10
46.994135928005662
20
-37.563905871974349
30
0
10
48.595750206952147
20
-33.991182338697016
30
0
10
49.839394905150947
20
-30.237846483789241
30
0
10
50.839637072768824
20
-26.094031625579071
30
0
10
51.640811628903933
20
-21.57182872734024
30
0
10
52.225238779678534
20
-16.867440713012307
30
0
10
52.553842929065539
20
-12.243031312812429
30
0
10
52.597988678458677
20
-7.9303548013346346
30
0
10
52.415593296962733
20
-4.8161279599792746
30
0
10
52.167825742206624
20
-2.6850387373031208
30
0
10
51.955562453514887
20
-1.3548783397606123
30
0
10
51.837657740113023
20
-0.71244411344430381
30
0
0
ARC
5
156
100
AcDbEntity
8
0
100
AcDbCircle
10
-15.31381443334414
20
-13.036624172347285
30
0
40
68.273022704336555
210
0
220
-0
230
1
100
AcDbArc
50
10.399652185483088
51
12.15952545669824
0
LINE
5
157
100
AcDbEntity
8
0
100
AcDbLine
10
51.427498446139055
20
1.3440150453573851
30
0
11
-3.8658455437224859
21
-4.5885987220589461
31
0
0
ARC
5
158
100
AcDbEntity
8
0
100
AcDbCircle
10
0
20
0
30
0
40
6.0000000000000009
210
0
220
0
230
1
100
AcDbArc
50
142.36184876862552
51
229.88621917440813
0
CIRCLE
5
159
100
AcDbEntity
8
0
100
AcDbCircle
10
7.2856448508858236
20
16.459628765763853
30
0
40
3.2000000000000006
210
0
220
0
230
1
0
CIRCLE
5
160
100
AcDbEntity
8
0
100
AcDbCircle
10
-7.2856448508858263
20
-16.459628765763856
30
0
40
3.2000000000000006
210
0
220
0
230
1
0
ENDSEC
0
SECTION
2
OBJECTS
0
DICTIONARY
5
C
100
AcDbDictionary
3
ACAD_GROUP
350
D
3
ACAD_MLINESTYLE
350
17
0
DICTIONARY
5
D
100
AcDbDictionary
0
DICTIONARY
5
1A
330
C
100
AcDbDictionary
0
DICTIONARY
5
17
100
AcDbDictionary
0
ENDSEC
0
EOF
