0
SECTION
2
HEADER
9
$INSUNITS
70
4
9
$ACADVER
1
AC1014
9
$HANDSEED
5
FFFF
0
ENDSEC
0
SECTION
2
TABLES
0
TABLE
2
VPORT
5
8
100
AcDbSymbolTable
0
ENDTAB
0
TABLE
2
LTYPE
5
5
100
AcDbSymbolTable
0
LTYPE
5
14
100
AcDbSymbolTableRecord
100
AcDbLinetypeTableRecord
2
BYBLOCK
70
0
0
LTYPE
5
15
100
AcDbSymbolTableRecord
100
AcDbLinetypeTableRecord
2
BYLAYER
70
0
0
ENDTAB
0
TABLE
2
LAYER
5
2
100
AcDbSymbolTable
70
2
0
LAYER
5
50
100
AcDbSymbolTableRecord
100
AcDbLayerTableRecord
2
0
70
0
6
CONTINUOUS
0
ENDTAB
0
TABLE
2
STYLE
5
3
100
AcDbSymbolTable
70
1
0
STYLE
5
11
100
AcDbSymbolTableRecord
100
AcDbTextStyleTableRecord
2
STANDARD
70
0
0
ENDTAB
0
TABLE
2
VIEW
5
6
100
AcDbSymbolTable
70
0
0
ENDTAB
0
TABLE
2
UCS
5
7
100
AcDbSymbolTable
70
0
0
ENDTAB
0
TABLE
2
APPID
5
9
100
AcDbSymbolTable
70
2
0
APPID
5
12
100
AcDbSymbolTableRecord
100
AcDbRegAppTableRecord
2
ACAD
70
0
0
ENDTAB
0
TABLE
2
DIMSTYLE
5
A
100
AcDbSymbolTable
70
1
0
ENDTAB
0
TABLE
2
BLOCK_RECORD
5
1
100
AcDbSymbolTable
70
1
0
BLOCK_RECORD
5
1F
100
AcDbSymbolTableRecord
100
AcDbBlockTableRecord
2
*MODEL_SPACE
0
BLOCK_RECORD
5
1B
100
AcDbSymbolTableRecord
100
AcDbBlockTableRecord
2
*PAPER_SPACE
0
ENDTAB
0
ENDSEC
0
SECTION
2
BLOCKS
0
BLOCK
5
20
100
AcDbEntity
100
AcDbBlockBegin
2
*MODEL_SPACE
0
ENDBLK
5
21
100
AcDbEntity
100
AcDbBlockEnd
0
BLOCK
5
1C
100
AcDbEntity
100
AcDbBlockBegin
2
*PAPER_SPACE
0
ENDBLK
5
1D
100
AcDbEntity
100
AcDbBlockEnd
0
ENDSEC
0
SECTION
2
ENTITIES
0
LINE
5
100
100
AcDbEntity
8
0
100
AcDbLine
10
-48.473360713799195
20
9.3746930244175459
30
0
11
4.7512991620681522
21
3.6640355173674988
31
0
0
ARC
5
101
100
AcDbEntity
8
0
100
AcDbCircle
10
-3.3306690738754696e-15
20
0
30
0
40
6.0000000000000036
210
0
220
0
230
1
100
AcDbArc
50
-49.886219174408076
51
37.638151231374444
0
LINE
5
102
100
AcDbEntity
8
0
100
AcDbLine
10
3.8658455437224895
20
-4.5885987220589461
30
0
11
-50.535881122457852
21
1.248350344544451
31
0
0
ARC
5
103
100
AcDbEntity
8
0
100
AcDbCircle
10
58.292162633251159
20
-22.106574768149983
30
0
40
111.30586523051731
210
0
220
0
230
1
100
AcDbArc
50
167.88781247841874
51
168.74433871135
0
SPLINE
5
104
100
AcDbEntity
8
0
100
AcDbSpline
70
4
71
5
72
131
73
125
74
0
42
0.000000001
43
0.0000000001
44
0.0000000001
40
7.1873821543784377e-06
40
7.1873821543784377e-06
40
7.1873821543784377e-06
40
7.1873821543784377e-06
40
7.1873821543784377e-06
40
7.1873821543784377e-06
40
0.0083333333333333332
40
0.016666666666666666
40
0.025000000000000001
40
0.033333333333333333
40
0.041666666666666664
40
0.049999999999999996
40
0.058333333333333327
40
0.066666666666666666
40
0.074999999999999997
40
0.083333333333333329
40
0.09166666666666666
40
0.099999999999999992
40
0.10833333333333332
40
0.11666666666666665
40
0.12499999999999999
40
0.13333333333333333
40
0.14166666666666666
40
0.14999999999999999
40
0.15833333333333333
40
0.16666666666666666
40
0.17499999999999999
40
0.18333333333333332
40
0.19166666666666665
40
0.19999999999999998
40
0.20833333333333331
40
0.21666666666666665
40
0.22499999999999998
40
0.23333333333333331
40
0.24166666666666664
40
0.24999999999999997
40
0.2583333333333333
40
0.26666666666666666
40
0.27500000000000002
40
0.28333333333333338
40
0.29166666666666674
40
0.3000000000000001
40
0.30833333333333346
40
0.31666666666666682
40
0.32500000000000018
40
0.33333333333333354
40
0.3416666666666669
40
0.35000000000000026
40
0.35833333333333361
40
0.36666666666666697
40
0.37500000000000033
40
0.38333333333333369
40
0.39166666666666705
40
0.40000000000000041
40
0.40833333333333377
40
0.41666666666666713
40
0.42500000000000049
40
0.43333333333333385
40
0.44166666666666721
40
0.45000000000000057
40
0.45833333333333393
40
0.46666666666666728
40
0.47500000000000064
40
0.483333333333334
40
0.49166666666666736
40
0.50000000000000067
40
0.50833333333333397
40
0.51666666666666727
40
0.52500000000000058
40
0.53333333333333388
40
0.54166666666666718
40
0.55000000000000049
40
0.55833333333333379
40
0.5666666666666671
40
0.5750000000000004
40
0.5833333333333337
40
0.59166666666666701
40
0.60000000000000031
40
0.60833333333333361
40
0.61666666666666692
40
0.62500000000000022
40
0.63333333333333353
40
0.64166666666666683
40
0.65000000000000013
40
0.65833333333333344
40
0.66666666666666674
40
0.67500000000000004
40
0.68333333333333335
40
0.69166666666666665
40
0.69999999999999996
40
0.70833333333333326
40
0.71666666666666656
40
0.72499999999999987
40
0.73333333333333317
40
0.74166666666666647
40
0.74999999999999978
40
0.75833333333333308
40
0.76666666666666639
40
0.77499999999999969
40
0.78333333333333299
40
0.7916666666666663
40
0.7999999999999996
40
0.8083333333333329
40
0.81666666666666621
40
0.82499999999999951
40
0.83333333333333282
40
0.84166666666666612
40
0.84999999999999942
40
0.85833333333333273
40
0.86666666666666603
40
0.87499999999999933
40
0.88333333333333264
40
0.89166666666666594
40
0.89999999999999925
40
0.90833333333333255
40
0.91666666666666585
40
0.92499999999999916
40
0.93333333333333246
40
0.94166666666666576
40
0.94999999999999907
40
0.95833333333333237
40
0.96666666666666567
40
0.97499999999999898
40
0.98333333333333228
40
0.99166666666666559
40
1
40
1
40
1
40
1
40
1
40
1
41
1
41
1
41
1
41
1
41
1
41
1
41
1
41
1
41
1
41
1
41
1
41
1
41
1
41
1
41
1
41
1
41
1
41
1
41
1
41
1
41
1
41
1
41
1
41
1
41
1
41
1
41
1
41
1
41
1
41
1
41
1
41
1
41
1
41
1
41
1
41
1
41
1
41
1
41
1
41
1
41
1
41
1
41
1
41
1
41
1
41
1
41
1
41
1
41
1
41
1
41
1
41
1
41
1
41
1
41
1
41
1
41
1
41
1
41
1
41
1
41
1
41
1
41
1
41
1
41
1
41
1
41
1
41
1
41
1
41
1
41
1
41
1
41
1
41
1
41
1
41
1
41
1
41
1
41
1
41
1
41
1
41
1
41
1
41
1
41
1
41
1
41
1
41
1
41
1
41
1
41
1
41
1
41
1
41
1
41
1
41
1
41
1
41
1
41
1
41
1
41
1
41
1
41
1
41
1
41
1
41
1
41
1
41
1
41
1
41
1
41
1
41
1
41
1
41
1
41
1
41
1
41
1
41
1
41
1
41
1
41
1
41
1
41
1
41
1
41
1
10
-48.473360713799195
20
9.3746930244175459
30
0
10
-49.278376121193197
20
10.146118114263567
30
0
10
-50.869768675252743
20
11.677428407289558
30
0
10
-53.199166098794997
20
13.938077603566917
30
0
10
-56.18916108180531
20
16.879249502842139
30
0
10
-59.735706059413957
20
20.451450579331567
30
0
10
-63.099301507737422
20
23.974239512338393
30
0
10
-66.294163260162108
20
27.553603470885797
30
0
10
-69.346387493833475
20
31.373121095391284
30
0
10
-72.283450829324721
20
35.656071587673473
30
0
10
-75.119776152252086
20
40.609100862600158
30
0
10
-77.845378717277839
20
46.377136367864665
30
0
10
-80.409582512080647
20
52.982297609732036
30
0
10
-82.719863940458183
20
60.31006540091078
30
0
10
-84.661729849449273
20
68.160525591598585
30
0
10
-86.113368932765454
20
76.283568241885533
30
0
10
-86.962649013184972
20
84.421046992801294
30
0
10
-87.122565877244185
20
92.344790837063542
30
0
10
-86.548674139219699
20
99.899174446441648
30
0
10
-85.251830328676419
20
107.03360029582485
30
0
10
-83.280071941213038
20
113.77000801335049
30
0
10
-80.704028019264626
20
120.17762892760555
30
0
10
-77.600449133726755
20
126.34418639380289
30
0
10
-74.037768323469095
20
132.35044119306124
30
0
10
-70.057811451901031
20
138.23887916784423
30
0
10
-65.669445779245748
20
144.00017975318656
30
0
10
-60.862732801713584
20
149.58997927371945
30
0
10
-55.618260484096105
20
154.93864944413392
30
0
10
-49.918788204767367
20
159.96414406305524
30
0
10
-43.759025216218888
20
164.58289307516097
30
0
10
-37.158352922094139
20
168.72307623973887
30
0
10
-30.164833471023002
20
172.33149516614432
30
0
10
-22.845272189876781
20
175.37043121089886
30
0
10
-15.278502230995699
20
177.81680461292433
30
0
10
-7.5473703237164305
20
179.66041678361358
30
0
10
0.26869759660930426
20
180.90258920549599
30
0
10
8.1014307819651492
20
181.55464354964238
30
0
10
15.901184084216979
20
181.6364408375438
30
0
10
23.63309649164939
20
181.17390604978078
30
0
10
31.273366490066575
20
180.19656194146717
30
0
10
38.805538014668151
20
178.73510070377623
30
0
10
46.216678864922507
20
176.81885129341001
30
0
10
53.493858503651168
20
174.47350169411015
30
0
10
60.61985147430201
20
171.71816952096219
30
0
10
67.57325307713775
20
168.56616648452894
30
0
10
74.33008996812859
20
165.02701334548786
30
0
10
80.864922432459707
20
161.10802892581606
30
0
10
87.152187173630878
20
156.81612062667006
30
0
10
93.167369714091393
20
152.15943134089127
30
0
10
98.88841721665159
20
147.14919005594976
30
0
10
104.29635877870962
20
141.80089808693194
30
0
10
109.3752764647987
20
136.1350059335889
30
0
10
114.11244695915478
20
130.17767270760447
30
0
10
118.49844326093225
20
123.96163075278984
30
0
10
122.52719017585085
20
117.52669388846658
30
0
10
126.19619996090003
20
110.92118683593596
30
0
10
129.50619174958973
20
104.20037231980197
30
0
10
132.45950485235895
20
97.419057107420898
30
0
10
135.05881533932381
20
90.625661579956784
30
0
10
137.30565087681418
20
83.855296543100252
30
0
10
139.19917770404939
20
77.124188710358624
30
0
10
140.73441778344738
20
70.421257101742043
30
0
10
141.90227190691309
20
63.708714500617177
30
0
10
142.69273411603396
20
56.938621163896784
30
0
10
143.09732369662038
20
50.065526050748083
30
0
10
143.11196922088672
20
43.061358995324014
30
0
10
142.73938385285135
20
35.927791763356282
30
0
10
141.99248131087018
20
28.713761146798731
30
0
10
140.89206088304135
20
21.504558336345355
30
0
10
139.46263796107985
20
14.4017146848112
30
0
10
137.72891942668983
20
7.5060889077242656
30
0
10
135.71194841049785
20
0.8993025775932697
30
0
10
133.42553558381937
20
-5.373381159568873
30
0
10
130.87217217757529
20
-11.322807221172287
30
0
10
128.04643638178337
20
-16.998114447074698
30
0
10
124.93889641391488
20
-22.466636790051638
30
0
10
121.53992101253888
20
-27.793804788809453
30
0
10
117.84332784564704
20
-33.024941949733609
30
0
10
113.85061366156391
20
-38.161438640614385
30
0
10
109.57211641839793
20
-43.165404038137389
30
0
10
105.02671225196011
20
-47.976762081321304
30
0
10
100.24213872518887
20
-52.526799981526658
30
0
10
95.254720701705921
20
-56.752208500930649
30
0
10
90.110178191889091
20
-60.61126999439594
30
0
10
84.861237471271608
20
-64.091202365564698
30
0
10
79.559423073086663
20
-67.197626272286627
30
0
10
74.247686687158293
20
-69.947707825135623
30
0
10
68.953571627120297
20
-72.362268731169991
30
0
10
63.680062372986114
20
-74.457307858717655
30
0
10
58.404148111942106
20
-76.239133566176676
30
0
10
53.09334505530019
20
-77.708783378342176
30
0
10
47.719372613060962
20
-78.864698351192217
30
0
10
42.271461349379834
20
-79.705847356841232
30
0
10
36.773649726718574
20
-80.235282078877134
30
0
10
31.275336550342526
20
-80.459441913470101
30
0
10
25.832157049295311
20
-80.385867013868733
30
0
10
20.491485200835029
20
-80.021638038713888
30
0
10
15.272771247139707
20
-79.371069805715194
30
0
10
10.160374020497212
20
-78.435134609407569
30
0
10
5.1286621475392042
20
-77.215312847844842
30
0
10
0.16106613500157449
20
-75.716605175752221
30
0
10
-4.7281996669098394
20
-73.950939278964995
30
0
10
-9.4742657791209428
20
-71.940251980025224
30
0
10
-13.993364677619935
20
-69.709148550007413
30
0
10
-18.215345374502306
20
-67.277332994516854
30
0
10
-22.113519294070652
20
-64.652778233640788
30
0
10
-25.741819998910596
20
-61.822882833964208
30
0
10
-29.191173188408502
20
-58.767785059602261
30
0
10
-32.537513551410548
20
-55.475928538331786
30
0
10
-35.790582491888344
20
-51.959505876215239
30
0
10
-38.848612352062823
20
-48.268045458509491
30
0
10
-41.572035226127902
20
-44.466282811022033
30
0
10
-43.844412774179744
20
-40.615619505198346
30
0
10
-45.649344734823281
20
-36.751386997738685
30
0
10
-47.106173623007862
20
-32.87062479130568
30
0
10
-48.367064519690175
20
-28.954321598242487
30
0
10
-49.545459584389697
20
-24.982457513314053
30
0
10
-50.613183542856007
20
-20.955218048087044
30
0
10
-51.451466143701154
20
-16.886609471965308
30
0
10
-51.927172337466331
20
-12.793399985233286
30
0
10
-51.97628363456657
20
-8.6834308633406785
30
0
10
-51.699770921575691
20
-5.3780301147777401
30
0
10
-51.340779571133766
20
-2.8854502037178085
30
0
10
-51.039203690177033
20
-1.2169986841175504
30
0
10
-50.872845485942833
20
-0.38109118203871306
30
0
0
CIRCLE
5
105
100
AcDbEntity
8
0
100
AcDbCircle
10
7.2856448508858263
20
-16.459628765763856
30
0
40
3.2000000000000006
210
0
220
-0
230
1
0
CIRCLE
5
106
100
AcDbEntity
8
0
100
AcDbCircle
10
-7.2856448508858236
20
16.459628765763853
30
0
40
3.2000000000000006
210
0
220
-0
230
1
0
ENDSEC
0
SECTION
2
OBJECTS
0
DICTIONARY
5
C
100
AcDbDictionary
3
ACAD_GROUP
350
D
3
ACAD_MLINESTYLE
350
17
0
DICTIONARY
5
D
100
AcDbDictionary
0
DICTIONARY
5
1A
330
C
100
AcDbDictionary
0
DICTIONARY
5
17
100
AcDbDictionary
0
ENDSEC
0
EOF
