  0
SECTION
  2
HEADER
  9
$ACADVER
  1
AC1027
  9
$ACADMAINTVER
 70
     8
  9
$DWGCODEPAGE
  3
ANSI_1252
  9
$REQUIREDVERSIONS
160
                 0
  9
$INSBASE
 10
0.0
 20
0.0
 30
0.0
  9
$EXTMIN
 10
1.000000E+20
 20
1.000000E+20
 30
1.000000E+20
  9
$EXTMAX
 10
-1.000000E+20
 20
-1.000000E+20
 30
-1.000000E+20
  9
$LIMMIN
 10
0.0
 20
0.0
  9
$LIMMAX
 10
12.0
 20
9.0
  9
$ORTHOMODE
 70
     0
  9
$REGENMODE
 70
     1
  9
$FILLMODE
 70
     1
  9
$QTEXTMODE
 70
     0
  9
$MIRRTEXT
 70
     1
  9
$LTSCALE
 40
1.0
  9
$ATTMODE
 70
     1
  9
$TEXTSIZE
 40
0.2
  9
$TRACEWID
 40
0.05
  9
$TEXTSTYLE
  7
STANDARD
  9
$CLAYER
  8
0
  9
$CELTYPE
  6
BYBLOCK
  9
$CECOLOR
 62
   256
  9
$CELTSCALE
 40
1.0
  9
$DISPSILH
 70
     0
  9
$DIMSCALE
 40
1.0
  9
$DIMASZ
 40
0.18
  9
$DIMEXO
 40
0.0625
  9
$DIMDLI
 40
0.38
  9
$DIMRND
 40
0.0
  9
$DIMDLE
 40
0.0
  9
$DIMEXE
 40
0.18
  9
$DIMTP
 40
0.0
  9
$DIMTM
 40
0.0
  9
$DIMTXT
 40
0.18
  9
$DIMCEN
 40
0.09
  9
$DIMTSZ
 40
0.0
  9
$DIMTOL
 70
     0
  9
$DIMLIM
 70
     0
  9
$DIMTIH
 70
     1
  9
$DIMTOH
 70
     1
  9
$DIMSE1
 70
     0
  9
$DIMSE2
 70
     0
  9
$DIMTAD
 70
     0
  9
$DIMZIN
 70
     0
  9
$DIMBLK
  1

  9
$DIMASO
 70
     1
  9
$DIMSHO
 70
     1
  9
$DIMPOST
  1

  9
$DIMAPOST
  1

  9
$DIMALT
 70
     0
  9
$DIMALTD
 70
     2
  9
$DIMALTF
 40
25.4
  9
$DIMLFAC
 40
1.0
  9
$DIMTOFL
 70
     0
  9
$DIMTVP
 40
0.0
  9
$DIMTIX
 70
     0
  9
$DIMSOXD
 70
     0
  9
$DIMSAH
 70
     0
  9
$DIMBLK1
  1

  9
$DIMBLK2
  1

  9
$DIMSTYLE
  2
Standard
  9
$DIMCLRD
 70
     0
  9
$DIMCLRE
 70
     0
  9
$DIMCLRT
 70
     0
  9
$DIMTFAC
 40
1.0
  9
$DIMGAP
 40
0.09
  9
$DIMJUST
 70
     0
  9
$DIMSD1
 70
     0
  9
$DIMSD2
 70
     0
  9
$DIMTOLJ
 70
     1
  9
$DIMTZIN
 70
     0
  9
$DIMALTZ
 70
     0
  9
$DIMALTTZ
 70
     0
  9
$DIMUPT
 70
     0
  9
$DIMDEC
 70
     4
  9
$DIMTDEC
 70
     4
  9
$DIMALTU
 70
     2
  9
$DIMALTTD
 70
     2
  9
$DIMTXSTY
  7
STANDARD
  9
$DIMAUNIT
 70
     0
  9
$DIMADEC
 70
     0
  9
$DIMALTRND
 40
0.0
  9
$DIMAZIN
 70
     0
  9
$DIMDSEP
 70
    46
  9
$DIMATFIT
 70
     3
  9
$DIMFRAC
 70
     0
  9
$DIMLDRBLK
  1

  9
$DIMLUNIT
 70
     2
  9
$DIMLWD
 70
    -2
  9
$DIMLWE
 70
    -2
  9
$DIMTMOVE
 70
     2
  9
$DIMFXL
 40
1.0
  9
$DIMFXLON
 70
     0
  9
$DIMJOGANG
 40
0.785398
  9
$DIMTFILL
 70
     0
  9
$DIMTFILLCLR
 70
     0
  9
$DIMARCSYM
 70
     0
  9
$DIMLTYPE
  6

  9
$DIMLTEX1
  6

  9
$DIMLTEX2
  6

  9
$DIMTXTDIRECTION
 70
     0
  9
$LUNITS
 70
     2
  9
$LUPREC
 70
     4
  9
$SKETCHINC
 40
0.1
  9
$FILLETRAD
 40
0.5
  9
$AUNITS
 70
     0
  9
$AUPREC
 70
     0
  9
$MENU
  1
.
  9
$ELEVATION
 40
0.0
  9
$PELEVATION
 40
0.0
  9
$THICKNESS
 40
0.0
  9
$LIMCHECK
 70
     0
  9
$CHAMFERA
 40
0.0
  9
$CHAMFERB
 40
0.0
  9
$CHAMFERC
 40
0.0
  9
$CHAMFERD
 40
0.0
  9
$SKPOLY
 70
     0
  9
$TDCREATE
 40
2447892.791666667
  9
$TDUCREATE
 40
0.0
  9
$TDUPDATE
 40
2458998.015725521
  9
$TDUUPDATE
 40
2458998.224058854
  9
$TDINDWG
 40
0.0
  9
$TDUSRTIMER
 40
0.0
  9
$USRTIMER
 70
     1
  9
$ANGBASE
 50
0.0
  9
$ANGDIR
 70
     0
  9
$PDMODE
 70
     0
  9
$PDSIZE
 40
0.0
  9
$PLINEWID
 40
0.0
  9
$SPLFRAME
 70
     0
  9
$SPLINETYPE
 70
     6
  9
$SPLINESEGS
 70
     8
  9
$HANDSEED
  5
10060
  9
$SURFTAB1
 70
     6
  9
$SURFTAB2
 70
     6
  9
$SURFTYPE
 70
     6
  9
$SURFU
 70
     6
  9
$SURFV
 70
     6
  9
$UCSBASE
  2

  9
$UCSNAME
  2

  9
$UCSORG
 10
0.0
 20
0.0
 30
0.0
  9
$UCSXDIR
 10
1.0
 20
0.0
 30
0.0
  9
$UCSYDIR
 10
0.0
 20
1.0
 30
0.0
  9
$UCSORTHOREF
  2

  9
$UCSORTHOVIEW
 70
     0
  9
$UCSORGTOP
 10
0.0
 20
0.0
 30
0.0
  9
$UCSORGBOTTOM
 10
0.0
 20
0.0
 30
0.0
  9
$UCSORGLEFT
 10
0.0
 20
0.0
 30
0.0
  9
$UCSORGRIGHT
 10
0.0
 20
0.0
 30
0.0
  9
$UCSORGFRONT
 10
0.0
 20
0.0
 30
0.0
  9
$UCSORGBACK
 10
0.0
 20
0.0
 30
0.0
  9
$PUCSBASE
  2

  9
$PUCSNAME
  2

  9
$PUCSORG
 10
0.0
 20
0.0
 30
0.0
  9
$PUCSXDIR
 10
1.0
 20
0.0
 30
0.0
  9
$PUCSYDIR
 10
0.0
 20
1.0
 30
0.0
  9
$PUCSORTHOREF
  2

  9
$PUCSORTHOVIEW
 70
     0
  9
$PUCSORGTOP
 10
0.0
 20
0.0
 30
0.0
  9
$PUCSORGBOTTOM
 10
0.0
 20
0.0
 30
0.0
  9
$PUCSORGLEFT
 10
0.0
 20
0.0
 30
0.0
  9
$PUCSORGRIGHT
 10
0.0
 20
0.0
 30
0.0
  9
$PUCSORGFRONT
 10
0.0
 20
0.0
 30
0.0
  9
$PUCSORGBACK
 10
0.0
 20
0.0
 30
0.0
  9
$USERI1
 70
     0
  9
$USERI2
 70
     0
  9
$USERI3
 70
     0
  9
$USERI4
 70
     0
  9
$USERI5
 70
     0
  9
$USERR1
 40
0.0
  9
$USERR2
 40
0.0
  9
$USERR3
 40
0.0
  9
$USERR4
 40
0.0
  9
$USERR5
 40
0.0
  9
$WORLDVIEW
 70
     1
  9
$SHADEDGE
 70
     3
  9
$SHADEDIF
 70
    70
  9
$TILEMODE
 70
     1
  9
$MAXACTVP
 70
    64
  9
$PINSBASE
 10
0.0
 20
0.0
 30
0.0
  9
$PLIMCHECK
 70
     0
  9
$PEXTMIN
 10
1.000000E+20
 20
1.000000E+20
 30
1.000000E+20
  9
$PEXTMAX
 10
-1.000000E+20
 20
-1.000000E+20
 30
-1.000000E+20
  9
$PLIMMIN
 10
0.0
 20
0.0
  9
$PLIMMAX
 10
12.0
 20
9.0
  9
$UNITMODE
 70
     0
  9
$VISRETAIN
 70
     1
  9
$PLINEGEN
 70
     0
  9
$PSLTSCALE
 70
     0
  9
$TREEDEPTH
 70
  3020
  9
$CMLSTYLE
  2

  9
$CMLJUST
 70
     0
  9
$CMLSCALE
 40
1.0
  9
$PROXYGRAPHICS
 70
     1
  9
$MEASUREMENT
 70
     0
  9
$CELWEIGHT
370
    -1
  9
$ENDCAPS
280
     0
  9
$JOINSTYLE
280
     0
  9
$LWDISPLAY
290
     0
  9
$INSUNITS
 70
     4
  9
$HYPERLINKBASE
  1

  9
$STYLESHEET
  1

  9
$XEDIT
290
     1
  9
$CEPSNTYPE
380
     0
  9
$PSTYLEMODE
290
     1
  9
$FINGERPRINTGUID
  2
{74C49326-1A50-416D-863B-426F8253C894}
  9
$VERSIONGUID
  2
{FAEB1C32-E019-11D5-929B-00C0DF256EC4}
  9
$EXTNAMES
290
     1
  9
$PSVPSCALE
 40
0.0
  9
$OLESTARTUP
290
     0
  9
$SORTENTS
280
   127
  9
$INDEXCTL
280
     0
  9
$HIDETEXT
280
     1
  9
$XCLIPFRAME
280
     2
  9
$HALOGAP
280
     0
  9
$OBSCOLOR
 70
   257
  9
$OBSLTYPE
280
     0
  9
$INTERSECTIONDISPLAY
280
     0
  9
$INTERSECTIONCOLOR
 70
   257
  9
$DIMASSOC
280
     2
  9
$PROJECTNAME
  1

  9
$CAMERADISPLAY
290
     0
  9
$LENSLENGTH
 40
50.0
  9
$CAMERAHEIGHT
 40
0.0
  9
$STEPSPERSEC
 40
2.0
  9
$STEPSIZE
 40
6.0
  9
$3DDWFPREC
 40
2.0
  9
$PSOLWIDTH
 40
0.25
  9
$PSOLHEIGHT
 40
4.0
  9
$LOFTANG1
 40
1.570796
  9
$LOFTANG2
 40
1.570796
  9
$LOFTMAG1
 40
0.0
  9
$LOFTMAG2
 40
0.0
  9
$LOFTPARAM
 70
     7
  9
$LOFTNORMALS
280
     1
  9
$LATITUDE
 40
37.795
  9
$LONGITUDE
 40
-122.394
  9
$NORTHDIRECTION
 40
0.0
  9
$TIMEZONE
 70
 -8000
  9
$LIGHTGLYPHDISPLAY
280
     1
  9
$TILEMODELIGHTSYNCH
280
     1
  9
$SOLIDHIST
280
     1
  9
$SHOWHIST
280
     1
  9
$DWFFRAME
280
     2
  9
$DGNFRAME
280
     2
  9
$REALWORLDSCALE
290
     1
  9
$INTERFERECOLOR
 62
   256
  9
$CSHADOW
280
     0
  9
$SHADOWPLANELOCATION
 40
0.0
  0
ENDSEC
  0
SECTION
  2
CLASSES
  0
CLASS
  1
SCALE
  2
AcDbScale
  3
ObjectDBX Classes
 90
     1153
 91
        5
280
     0
281
     0
  0
CLASS
  1
MATERIAL
  2
AcDbMaterial
  3
ObjectDBX Classes
 90
     1153
 91
        5
280
     0
281
     0
  0
CLASS
  1
VISUALSTYLE
  2
AcDbVisualStyle
  3
ObjectDBX Classes
 90
     4095
 91
        5
280
     0
281
     0
  0
CLASS
  1
SUN
  2
AcDbSun
  3
SCENEOE
 90
     1153
 91
        5
280
     0
281
     0
  0
CLASS
  1
TABLESTYLE
  2
AcDbTableStyle
  3
ObjectDBX Classes
 90
     4095
 91
        5
280
     0
281
     0
  0
CLASS
  1
CSACDOCUMENTOPTIONS
  2
CDocDataContainer
  3
"DERU003_CSAPP"
 90
     4095
 91
        4
280
     0
281
     0
  0
CLASS
  1
DICTIONARYVAR
  2
AcDbDictionaryVar
  3
ObjectDBX Classes
 90
        0
 91
        4
280
     0
281
     0
  0
CLASS
  1
CELLSTYLEMAP
  2
AcDbCellStyleMap
  3
ObjectDBX Classes
 90
     1152
 91
        4
280
     0
281
     0
  0
ENDSEC
  0
SECTION
  2
TABLES
  0
TABLE
  2
VPORT
  5
8
330
0
100
AcDbSymbolTable
 70
     1
  0
VPORT
  5
10001
330
8
100
AcDbSymbolTableRecord
100
AcDbViewportTableRecord
  2
*Active
 70
     0
 10
0.0
 20
0.0
 11
1.0
 21
1.0
 12
39.839803
 22
10.081275
 13
0.0
 23
0.0
 14
0.5
 24
0.5
 15
0.5
 25
0.5
 16
0.0
 26
0.0
 36
1.0
 17
0.0
 27
0.0
 37
0.0
 40
58.847602
 41
1.527566
 42
50.0
 43
0.0
 44
0.0
 50
0.0
 51
0.0
 71
    16
 72
   100
 73
     1
 74
     3
 75
     0
 76
     0
 77
     0
 78
     0
281
     0
 65
     1
110
0.0
120
0.0
130
0.0
111
1.0
121
0.0
131
0.0
112
0.0
122
1.0
132
0.0
 79
     0
146
0.0
 60
     3
 61
     5
292
     1
282
     1
141
0.0
142
0.0
 63
   250
361
1004A
  0
ENDTAB
  0
TABLE
  2
LTYPE
  5
5
330
0
100
AcDbSymbolTable
 70
     1
  0
LTYPE
  5
14
330
5
100
AcDbSymbolTableRecord
100
AcDbLinetypeTableRecord
  2
BYBLOCK
 70
     0
  3

 72
    65
 73
     0
 40
0.0
  0
LTYPE
  5
15
330
5
100
AcDbSymbolTableRecord
100
AcDbLinetypeTableRecord
  2
BYLAYER
 70
     0
  3

 72
    65
 73
     0
 40
0.0
  0
LTYPE
  5
FFFF
330
5
100
AcDbSymbolTableRecord
100
AcDbLinetypeTableRecord
  2
Continuous
 70
     0
  3
Solid line
 72
    65
 73
     0
 40
0.0
  0
ENDTAB
  0
TABLE
  2
LAYER
  5
2
330
0
100
AcDbSymbolTable
 70
     1
  0
LAYER
  5
50
330
2
100
AcDbSymbolTableRecord
100
AcDbLayerTableRecord
  2
0
 70
     0
 62
     7
  6
Continuous
370
    -3
390
0
347
1002B
348
0
  0
ENDTAB
  0
TABLE
  2
STYLE
  5
3
330
0
100
AcDbSymbolTable
 70
     1
  0
STYLE
  5
11
330
3
100
AcDbSymbolTableRecord
100
AcDbTextStyleTableRecord
  2
STANDARD
 70
     0
 40
0.2
 41
1.0
 50
0.0
 71
     0
 42
0.2
  3

  4

  0
ENDTAB
  0
TABLE
  2
VIEW
  5
6
330
0
100
AcDbSymbolTable
 70
     0
  0
ENDTAB
  0
TABLE
  2
UCS
  5
7
330
0
100
AcDbSymbolTable
 70
     0
  0
ENDTAB
  0
TABLE
  2
APPID
  5
9
330
0
100
AcDbSymbolTable
 70
     6
  0
APPID
  5
12
330
9
100
AcDbSymbolTableRecord
100
AcDbRegAppTableRecord
  2
ACAD
 70
     0
  0
APPID
  5
10045
330
9
100
AcDbSymbolTableRecord
100
AcDbRegAppTableRecord
  2
MCS_DIM1
 70
     0
  0
APPID
  5
10046
330
9
100
AcDbSymbolTableRecord
100
AcDbRegAppTableRecord
  2
McsXdata5
 70
     0
  0
APPID
  5
10049
330
9
100
AcDbSymbolTableRecord
100
AcDbRegAppTableRecord
  2
MCS_DOCUMENT_ID
 70
     0
  0
APPID
  5
10054
330
9
100
AcDbSymbolTableRecord
100
AcDbRegAppTableRecord
  2
MCS_PARAMS_DATA
 70
     0
  0
APPID
  5
10056
330
9
100
AcDbSymbolTableRecord
100
AcDbRegAppTableRecord
  2
MC_VERSION_DATA
 70
     0
  0
ENDTAB
  0
TABLE
  2
DIMSTYLE
  5
A
330
0
100
AcDbSymbolTable
 70
     1
100
AcDbDimStyleTable
  0
DIMSTYLE
105
10000
330
A
100
AcDbSymbolTableRecord
100
AcDbDimStyleTableRecord
  2
Standard
 70
     0
178
     0
340
11
  0
ENDTAB
  0
TABLE
  2
BLOCK_RECORD
  5
1
330
0
100
AcDbSymbolTable
 70
     0
  0
BLOCK_RECORD
  5
1F
330
1
100
AcDbSymbolTableRecord
100
AcDbBlockTableRecord
  2
*MODEL_SPACE
340
10026
 70
     0
280
     1
281
     0
  0
BLOCK_RECORD
  5
1B
330
1
100
AcDbSymbolTableRecord
100
AcDbBlockTableRecord
  2
*PAPER_SPACE
340
10027
 70
     0
280
     1
281
     0
  0
ENDTAB
  0
ENDSEC
  0
SECTION
  2
BLOCKS
  0
BLOCK
  5
20
330
1F
100
AcDbEntity
  8
0
100
AcDbBlockBegin
  2
*MODEL_SPACE
 70
     0
 10
0.0
 20
0.0
 30
0.0
  3
*MODEL_SPACE
  1
*MODEL_SPACE
  0
ENDBLK
  5
21
330
1F
100
AcDbEntity
  8
0
100
AcDbBlockEnd
  0
BLOCK
  5
1C
330
1B
100
AcDbEntity
 67
     1
  8
0
100
AcDbBlockBegin
  2
*PAPER_SPACE
 70
     0
 10
0.0
 20
0.0
 30
0.0
  3
*PAPER_SPACE
  1
*PAPER_SPACE
  0
ENDBLK
  5
1D
330
1B
100
AcDbEntity
 67
     1
  8
0
100
AcDbBlockEnd
  0
ENDSEC
  0
SECTION
  2
ENTITIES
  0
SPLINE
  5
100
330
1F
100
AcDbEntity
  8
0
100
AcDbSpline
 70
     0
 71
     3
 72
     9
 73
     5
 74
     0
 42
0.000000001
 43
0.0000000001
 40
0.0
 40
0.0
 40
0.0
 40
0.0
 40
0.1349394444411235
 40
0.2602639021914351
 40
0.2602639021914351
 40
0.2602639021914351
 40
0.2602639021914351
 10
-87.95638880076581
 20
-20.94798806295602
 30
0.0
 10
-87.74809400892423
 20
-21.35769399307457
 30
0.0
 10
-87.34634628011614
 20
-22.14791263200005
 30
0.0
 10
-87.4140929822249
 20
-23.03020414933121
 30
0.0
 10
-87.44671494260689
 20
-23.45505256302285
 30
0.0
  0
SPLINE
  5
101
330
1F
100
AcDbEntity
  8
0
100
AcDbSpline
 70
     0
 71
     3
 72
     9
 73
     5
 74
     0
 42
0.000000001
 43
0.0000000001
 40
0.0
 40
0.0
 40
0.0
 40
0.0
 40
0.122927505630171
 40
0.2505595370614526
 40
0.2505595370614526
 40
0.2505595370614526
 40
0.2505595370614526
 10
-87.44671494260689
 20
-23.45505256302285
 30
0.0
 10
-87.56324816882923
 20
-23.85721367132033
 30
0.0
 10
-87.80077443331226
 20
-24.67692688849316
 30
0.0
 10
-88.4410329230125
 20
-25.24246822329764
 30
0.0
 10
-88.76717294003178
 20
-25.53054821524681
 30
0.0
  0
LINE
  5
102
330
1F
100
AcDbEntity
  8
0
100
AcDbLine
 10
-88.767173
 20
-25.530548
 30
0.0
 11
-89.990058
 21
-23.939391
 31
0.0
  0
SPLINE
  5
103
330
1F
100
AcDbEntity
  8
0
100
AcDbSpline
 70
     0
 71
     3
 72
     9
 73
     5
 74
     0
 42
0.000000001
 43
0.0000000001
 40
0.0
 40
0.0
 40
0.0
 40
0.0
 40
0.069460716261794
 40
0.129136527414099
 40
0.129136527414099
 40
0.129136527414099
 40
0.129136527414099
 10
-89.99005767333166
 20
-23.93939062513742
 30
0.0
 10
-89.80966088192949
 20
-23.78704115338128
 30
0.0
 10
-89.47427972763037
 20
-23.50380362295025
 30
0.0
 10
-89.32029926373191
 20
-23.09421881417055
 30
0.0
 10
-89.24914271903653
 20
-22.9049438956867
 30
0.0
  0
SPLINE
  5
104
330
1F
100
AcDbEntity
  8
0
100
AcDbSpline
 70
     0
 71
     3
 72
     9
 73
     5
 74
     0
 42
0.000000001
 43
0.0000000001
 40
0.0
 40
0.0
 40
0.0
 40
0.0
 40
0.0551536650767867
 40
0.1110008330455367
 40
0.1110008330455367
 40
0.1110008330455367
 40
0.1110008330455367
 10
-89.24914271903653
 20
-22.9049438956867
 30
0.0
 10
-89.22297688152797
 20
-22.71851289199254
 30
0.0
 10
-89.1703161969345
 20
-22.34330669877297
 30
0.0
 10
-89.33470736449507
 20
-22.00179702525286
 30
0.0
 10
-89.41741648383625
 20
-21.82997535890369
 30
0.0
  0
SPLINE
  5
105
330
1F
100
AcDbEntity
  8
0
100
AcDbSpline
 70
     0
 71
     3
 72
     9
 73
     5
 74
     0
 42
0.000000001
 43
0.0000000001
 40
0.0
 40
0.0
 40
0.0
 40
0.0
 40
0.0599167008261148
 40
0.1205614559818453
 40
0.1205614559818453
 40
0.1205614559818453
 40
0.1205614559818453
 10
-89.41741648383625
 20
-21.82997535890369
 30
0.0
 10
-89.53931477331554
 20
-21.66455775422975
 30
0.0
 10
-89.78459255160931
 20
-21.33171253762821
 30
0.0
 10
-90.18074168929432
 20
-21.21275500231189
 30
0.0
 10
-90.38001240367322
 20
-21.15291705041894
 30
0.0
  0
SPLINE
  5
106
330
1F
100
AcDbEntity
  8
0
100
AcDbSpline
 70
     0
 71
     3
 72
     9
 73
     5
 74
     0
 42
0.000000001
 43
0.0000000001
 40
0.0
 40
0.0
 40
0.0
 40
0.0
 40
0.0655001431788452
 40
0.1399104411983124
 40
0.1399104411983124
 40
0.1399104411983124
 40
0.1399104411983124
 10
-90.38001240367322
 20
-21.15291705041894
 30
0.0
 10
-90.60211754275456
 20
-21.13685920040141
 30
0.0
 10
-91.0765413606756
 20
-21.10255910926247
 30
0.0
 10
-91.49912501856932
 20
-21.32420102649111
 30
0.0
 10
-91.7238729048079
 20
-21.44207958489843
 30
0.0
  0
SPLINE
  5
107
330
1F
100
AcDbEntity
  8
0
100
AcDbSpline
 70
     0
 71
     3
 72
     9
 73
     5
 74
     0
 42
0.000000001
 43
0.0000000001
 40
0.0
 40
0.0
 40
0.0
 40
0.0
 40
0.0703584997388264
 40
0.1323188038909884
 40
0.1323188038909884
 40
0.1323188038909884
 40
0.1323188038909884
 10
-91.7238729048079
 20
-21.44207958489843
 30
0.0
 10
-91.9238313472608
 20
-21.57502095179699
 30
0.0
 10
-92.29988060970226
 20
-21.82503541658727
 30
0.0
 10
-92.48386394807767
 20
-22.23581898359181
 30
0.0
 10
-92.57001696087289
 20
-22.42817467306192
 30
0.0
  0
SPLINE
  5
108
330
1F
100
AcDbEntity
  8
0
100
AcDbSpline
 70
     0
 71
     3
 72
     9
 73
     5
 74
     0
 42
0.000000001
 43
0.0000000001
 40
0.0
 40
0.0
 40
0.0
 40
0.0
 40
0.057497741250579
 40
0.114128269557041
 40
0.114128269557041
 40
0.114128269557041
 40
0.114128269557041
 10
-92.57001696087289
 20
-22.42817467306192
 30
0.0
 10
-92.60959828059832
 20
-22.62129657106534
 30
0.0
 10
-92.68816393254906
 20
-23.00462759509024
 30
0.0
 10
-92.52372459090446
 20
-23.35948434920195
 30
0.0
 10
-92.44212967294204
 20
-23.53556452229543
 30
0.0
  0
SPLINE
  5
109
330
1F
100
AcDbEntity
  8
0
100
AcDbSpline
 70
     0
 71
     3
 72
     9
 73
     5
 74
     0
 42
0.000000001
 43
0.0000000001
 40
0.0
 40
0.0
 40
0.0
 40
0.0
 40
0.0435660206372278
 40
0.0959386661103613
 40
0.0959386661103613
 40
0.0959386661103613
 40
0.0959386661103613
 10
-92.44212967294204
 20
-23.53556452229543
 30
0.0
 10
-92.36080620048163
 20
-23.6563131884216
 30
0.0
 10
-92.18172017524459
 20
-23.92221918105777
 30
0.0
 10
-91.95319560262669
 20
-24.14734137549644
 30
0.0
 10
-91.82844468718402
 20
-24.27023494234994
 30
0.0
  0
LINE
  5
110
330
1F
100
AcDbEntity
  8
0
100
AcDbLine
 10
-91.828445
 20
-24.270235
 30
0.0
 11
-93.387394
 21
-24.929314
 31
0.0
  0
SPLINE
  5
111
330
1F
100
AcDbEntity
  8
0
100
AcDbSpline
 70
     0
 71
     3
 72
     9
 73
     5
 74
     0
 42
0.000000001
 43
0.0000000001
 40
0.0
 40
0.0
 40
0.0
 40
0.0
 40
0.0740380911804129
 40
0.1348517839383965
 40
0.1348517839383965
 40
0.1348517839383965
 40
0.1348517839383965
 10
-93.38739362699971
 20
-24.92931363212334
 30
0.0
 10
-93.5181509198432
 20
-24.71300849568605
 30
0.0
 10
-93.7563101419648
 20
-24.31903381240405
 30
0.0
 10
-94.16451869270196
 20
-24.1111284231194
 30
0.0
 10
-94.34860724281747
 20
-24.01736997145173
 30
0.0
  0
SPLINE
  5
112
330
1F
100
AcDbEntity
  8
0
100
AcDbSpline
 70
     0
 71
     3
 72
     9
 73
     5
 74
     0
 42
0.000000001
 43
0.0000000001
 40
0.0
 40
0.0
 40
0.0
 40
0.0
 40
0.0555930186202651
 40
0.1140384514409248
 40
0.1140384514409248
 40
0.1140384514409248
 40
0.1140384514409248
 10
-94.34860724281747
 20
-24.01736997145173
 30
0.0
 10
-94.53543235592022
 20
-23.97904927534812
 30
0.0
 10
-94.91866836499614
 20
-23.90044169205346
 30
0.0
 10
-95.27107513538822
 20
-24.07186990257055
 30
0.0
 10
-95.45168585014493
 20
-24.15972795250675
 30
0.0
  0
SPLINE
  5
113
330
1F
100
AcDbEntity
  8
0
100
AcDbSpline
 70
     0
 71
     3
 72
     9
 73
     5
 74
     0
 42
0.000000001
 43
0.0000000001
 40
0.0
 40
0.0
 40
0.0
 40
0.0
 40
0.049367896667593
 40
0.0941670361168433
 40
0.0941670361168433
 40
0.0941670361168433
 40
0.0941670361168433
 10
-95.45168585014493
 20
-24.15972795250675
 30
0.0
 10
-95.59134855482613
 20
-24.25475617158984
 30
0.0
 10
-95.85774886441286
 20
-24.43601821317061
 30
0.0
 10
-95.97529027010208
 20
-24.73506061023602
 30
0.0
 10
-96.03120956035134
 20
-24.87732740124713
 30
0.0
  0
SPLINE
  5
114
330
1F
100
AcDbEntity
  8
0
100
AcDbSpline
 70
     0
 71
     3
 72
     9
 73
     5
 74
     0
 42
0.000000001
 43
0.0000000001
 40
0.0
 40
0.0
 40
0.0
 40
0.0
 40
0.044645078637845
 40
0.0934711055092709
 40
0.0934711055092709
 40
0.0934711055092709
 40
0.0934711055092709
 10
-96.03120956035134
 20
-24.87732740124713
 30
0.0
 10
-96.05094016296123
 20
-25.02840372870736
 30
0.0
 10
-96.09224911110468
 20
-25.34470446721736
 30
0.0
 10
-95.94755000712397
 20
-25.62991498057495
 30
0.0
 10
-95.87196427075399
 20
-25.77889894854385
 30
0.0
  0
SPLINE
  5
115
330
1F
100
AcDbEntity
  8
0
100
AcDbSpline
 70
     0
 71
     3
 72
     9
 73
     5
 74
     0
 42
0.000000001
 43
0.0000000001
 40
0.0
 40
0.0
 40
0.0
 40
0.0
 40
0.0497390089617682
 40
0.0992537206914677
 40
0.0992537206914677
 40
0.0992537206914677
 40
0.0992537206914677
 10
-95.87196427075399
 20
-25.77889894854385
 30
0.0
 10
-95.77273986283998
 20
-25.91682041598127
 30
0.0
 10
-95.57473849782599
 20
-26.19204139629701
 30
0.0
 10
-95.25660208907853
 20
-26.30913386777906
 30
0.0
 10
-95.09789335292123
 20
-26.36754779856937
 30
0.0
  0
SPLINE
  5
116
330
1F
100
AcDbEntity
  8
0
100
AcDbSpline
 70
     0
 71
     3
 72
     9
 73
     5
 74
     0
 42
0.000000001
 43
0.0000000001
 40
0.0
 40
0.0
 40
0.0
 40
0.0
 40
0.0541360848244715
 40
0.1179083312866346
 40
0.1179083312866346
 40
0.1179083312866346
 40
0.1179083312866346
 10
-95.09789335292123
 20
-26.36754779856937
 30
0.0
 10
-94.91601575587383
 20
-26.39128928710263
 30
0.0
 10
-94.5198865559915
 20
-26.4429982221742
 30
0.0
 10
-94.14769200884946
 20
-26.29408394477015
 30
0.0
 10
-93.94638577261316
 20
-26.21354173119866
 30
0.0
  0
LINE
  5
117
330
1F
100
AcDbEntity
  8
0
100
AcDbLine
 10
-93.946386
 20
-26.213542
 30
0.0
 11
-93.257302
 21
-28.010073
 31
0.0
  0
SPLINE
  5
118
330
1F
100
AcDbEntity
  8
0
100
AcDbSpline
 70
     0
 71
     3
 72
     9
 73
     5
 74
     0
 42
0.000000001
 43
0.0000000001
 40
0.0
 40
0.0
 40
0.0
 40
0.0
 40
0.091061149721339
 40
0.1675068605900916
 40
0.1675068605900916
 40
0.1675068605900916
 40
0.1675068605900916
 10
-93.25730238580746
 20
-28.0100729660079
 30
0.0
 10
-93.5481569441504
 20
-28.10378225810137
 30
0.0
 10
-94.08318350712963
 20
-28.27616037296959
 30
0.0
 10
-94.64451224511058
 20
-28.28518805053717
 30
0.0
 10
-94.90068786833487
 20
-28.28930804434945
 30
0.0
  0
SPLINE
  5
119
330
1F
100
AcDbEntity
  8
0
100
AcDbSpline
 70
     0
 71
     3
 72
     9
 73
     5
 74
     0
 42
0.000000001
 43
0.0000000001
 40
0.0
 40
0.0
 40
0.0
 40
0.0
 40
0.0706267487047819
 40
0.1454685192170624
 40
0.1454685192170624
 40
0.1454685192170624
 40
0.1454685192170624
 10
-94.90068786833487
 20
-28.28930804434945
 30
0.0
 10
-95.1362071477415
 20
-28.25505849823276
 30
0.0
 10
-95.62130155532299
 20
-28.18451538462747
 30
0.0
 10
-96.04015841331906
 20
-27.92912501695941
 30
0.0
 10
-96.25565513393158
 20
-27.79772980244198
 30
0.0
  0
SPLINE
  5
120
330
1F
100
AcDbEntity
  8
0
100
AcDbSpline
 70
     0
 71
     3
 72
     9
 73
     5
 74
     0
 42
0.000000001
 43
0.0000000001
 40
0.0
 40
0.0
 40
0.0
 40
0.0
 40
0.0797328132933948
 40
0.1644634716662246
 40
0.1644634716662246
 40
0.1644634716662246
 40
0.1644634716662246
 10
-96.25565513393158
 20
-27.79772980244198
 30
0.0
 10
-96.46635119643167
 20
-27.63258473978769
 30
0.0
 10
-96.90095025889876
 20
-27.29194292356684
 30
0.0
 10
-97.20239618110082
 20
-26.82893664459186
 30
0.0
 10
-97.35769942986005
 20
-26.59039840597361
 30
0.0
  0
SPLINE
  5
121
330
1F
100
AcDbEntity
  8
0
100
AcDbSpline
 70
     0
 71
     3
 72
     9
 73
     5
 74
     0
 42
0.000000001
 43
0.0000000001
 40
0.0
 40
0.0
 40
0.0
 40
0.0
 40
0.1387185568880137
 40
0.2676149229752636
 40
0.2676149229752636
 40
0.2676149229752636
 40
0.2676149229752636
 10
-97.35769942986005
 20
-26.59039840597361
 30
0.0
 10
-97.57001734362804
 20
-26.16496703332465
 30
0.0
 10
-97.97961965938134
 20
-25.34422764144485
 30
0.0
 10
-97.83445826042806
 20
-24.44064246886248
 30
0.0
 10
-97.76454146874397
 20
-24.00543189128586
 30
0.0
  0
SPLINE
  5
122
330
1F
100
AcDbEntity
  8
0
100
AcDbSpline
 70
     0
 71
     3
 72
     9
 73
     5
 74
     0
 42
0.000000001
 43
0.0000000001
 40
0.0
 40
0.0
 40
0.0
 40
0.0
 40
0.1014676935348283
 40
0.1978140608060074
 40
0.1978140608060074
 40
0.1978140608060074
 40
0.1978140608060074
 10
-97.76454146874397
 20
-24.00543189128586
 30
0.0
 10
-97.64625338140434
 20
-23.6797522515454
 30
0.0
 10
-97.41564750000038
 20
-23.04483083158838
 30
0.0
 10
-96.87457484729254
 20
-22.6420308104917
 30
0.0
 10
-96.61104259733129
 20
-22.44584496499976
 30
0.0
  0
SPLINE
  5
123
330
1F
100
AcDbEntity
  8
0
100
AcDbSpline
 70
     0
 71
     3
 72
     9
 73
     5
 74
     0
 42
0.000000001
 43
0.0000000001
 40
0.0
 40
0.0
 40
0.0
 40
0.0
 40
0.1328186286185429
 40
0.2849321123270417
 40
0.2849321123270417
 40
0.2849321123270417
 40
0.2849321123270417
 10
-96.61104259733129
 20
-22.44584496499976
 30
0.0
 10
-96.1782520576074
 20
-22.28279385972408
 30
0.0
 10
-95.24979854200265
 20
-21.93300485552584
 30
0.0
 10
-94.35843171669775
 20
-22.3850988357014
 30
0.0
 10
-93.88256779264948
 20
-22.62645313489395
 30
0.0
  0
SPLINE
  5
124
330
1F
100
AcDbEntity
  8
0
100
AcDbSpline
 70
     0
 71
     3
 72
     9
 73
     5
 74
     0
 42
0.000000001
 43
0.0000000001
 40
0.0
 40
0.0
 40
0.0
 40
0.0
 40
0.0890064458377999
 40
0.1748392216913239
 40
0.1748392216913239
 40
0.1748392216913239
 40
0.1748392216913239
 10
-93.88256779264948
 20
-22.62645313489395
 30
0.0
 10
-93.95806965386873
 20
-22.33360566266747
 30
0.0
 10
-94.10638123431177
 20
-21.75835267243287
 30
0.0
 10
-93.94904778988449
 20
-21.18599507463473
 30
0.0
 10
-93.87180902080766
 20
-20.90501097435886
 30
0.0
  0
SPLINE
  5
125
330
1F
100
AcDbEntity
  8
0
100
AcDbSpline
 70
     0
 71
     3
 72
     9
 73
     5
 74
     0
 42
0.000000001
 43
0.0000000001
 40
0.0
 40
0.0
 40
0.0
 40
0.0
 40
0.0865698276699327
 40
0.1778932557153805
 40
0.1778932557153805
 40
0.1778932557153805
 40
0.1778932557153805
 10
-93.87180902080766
 20
-20.90501097435886
 30
0.0
 10
-93.74268393481105
 20
-20.64117207901332
 30
0.0
 10
-93.47734342806957
 20
-20.09900673872504
 30
0.0
 10
-92.978784395085
 20
-19.75749419014569
 30
0.0
 10
-92.72284371991955
 20
-19.58217502736245
 30
0.0
  0
SPLINE
  5
126
330
1F
100
AcDbEntity
  8
0
100
AcDbSpline
 70
     0
 71
     3
 72
     9
 73
     5
 74
     0
 42
0.000000001
 43
0.0000000001
 40
0.0
 40
0.0
 40
0.0
 40
0.0
 40
0.1334418085282653
 40
0.2680124941926183
 40
0.2680124941926183
 40
0.2680124941926183
 40
0.2680124941926183
 10
-92.72284371991955
 20
-19.58217502736245
 30
0.0
 10
-92.30946501080041
 20
-19.38828710253813
 30
0.0
 10
-91.47921053434317
 20
-18.99887101998412
 30
0.0
 10
-90.5764733083433
 20
-19.16156161946532
 30
0.0
 10
-90.1232035164125
 20
-19.24324954819149
 30
0.0
  0
SPLINE
  5
127
330
1F
100
AcDbEntity
  8
0
100
AcDbSpline
 70
     0
 71
     3
 72
     9
 73
     5
 74
     0
 42
0.000000001
 43
0.0000000001
 40
0.0
 40
0.0
 40
0.0
 40
0.0
 40
0.1378959249499133
 40
0.2812497331902777
 40
0.2812497331902777
 40
0.2812497331902777
 40
0.2812497331902777
 10
-90.1232035164125
 20
-19.24324954819149
 30
0.0
 10
-89.6846874029371
 20
-19.4137287010323
 30
0.0
 10
-88.7902988272095
 20
-19.76143452532261
 30
0.0
 10
-88.23793185530025
 20
-20.5473862033302
 30
0.0
 10
-87.95638880076581
 20
-20.94798806295602
 30
0.0
  0
SPLINE
  5
128
330
1F
100
AcDbEntity
  8
0
100
AcDbSpline
 70
     0
 71
     3
 72
     9
 73
     5
 74
     0
 42
0.000000001
 43
0.0000000001
 40
0.0
 40
0.0
 40
0.0
 40
0.0
 40
0.1815240470501668
 40
0.3318752968665697
 40
0.3318752968665697
 40
0.3318752968665697
 40
0.3318752968665697
 10
-99.86771220073712
 20
-0.8139663727290625
 30
0.0
 10
-99.57199812975362
 20
-1.357020680160295
 30
0.0
 10
-99.03135243189664
 20
-2.349871558168757
 30
0.0
 10
-99.06782072149441
 20
-3.474925085996294
 30
0.0
 10
-99.08434214677513
 20
-3.984614133708795
 30
0.0
  0
SPLINE
  5
129
330
1F
100
AcDbEntity
  8
0
100
AcDbSpline
 70
     0
 71
     3
 72
     9
 73
     5
 74
     0
 42
0.000000001
 43
0.0000000001
 40
0.0
 40
0.0
 40
0.0
 40
0.0
 40
0.1448002226248977
 40
0.3092405811452966
 40
0.3092405811452966
 40
0.3092405811452966
 40
0.3092405811452966
 10
-99.08434214677513
 20
-3.984614133708795
 30
0.0
 10
-99.23231243330082
 20
-4.454375612113783
 30
0.0
 10
-99.54832311731738
 20
-5.457615178657482
 30
0.0
 10
-100.3527298576944
 20
-6.140625344498583
 30
0.0
 10
-100.7804775106509
 20
-6.503819709636631
 30
0.0
  0
LINE
  5
130
330
1F
100
AcDbEntity
  8
0
100
AcDbLine
 10
-100.780478
 20
-6.50382
 30
0.0
 11
-102.03155
 21
-4.793165
 31
0.0
  0
SPLINE
  5
131
330
1F
100
AcDbEntity
  8
0
100
AcDbSpline
 70
     0
 71
     3
 72
     9
 73
     5
 74
     0
 42
0.000000001
 43
0.0000000001
 40
0.0
 40
0.0
 40
0.0
 40
0.0
 40
0.0965115645936172
 40
0.1766944612625039
 40
0.1766944612625039
 40
0.1766944612625039
 40
0.1766944612625039
 10
-102.0315496461886
 20
-4.793165320328359
 30
0.0
 10
-101.7907859507621
 20
-4.570074427715669
 30
0.0
 10
-101.3499930609765
 20
-4.161637104698985
 30
0.0
 10
-101.166173608822
 20
-3.591992347908644
 30
0.0
 10
-101.0827574336204
 20
-3.333490941892103
 30
0.0
  0
SPLINE
  5
132
330
1F
100
AcDbEntity
  8
0
100
AcDbSpline
 70
     0
 71
     3
 72
     9
 73
     5
 74
     0
 42
0.000000001
 43
0.0000000001
 40
0.0
 40
0.0
 40
0.0
 40
0.0
 40
0.0779260068038559
 40
0.16751011178299
 40
0.16751011178299
 40
0.16751011178299
 40
0.16751011178299
 10
-101.0827574336204
 20
-3.333490941892103
 30
0.0
 10
-101.0705863157643
 20
-3.069274837689071
 30
0.0
 10
-101.0444232234129
 20
-2.501314653853157
 30
0.0
 10
-101.3116348963565
 20
-1.997377176863457
 30
0.0
 10
-101.4545392160171
 20
-1.727872325120239
 30
0.0
  0
SPLINE
  5
133
330
1F
100
AcDbEntity
  8
0
100
AcDbSpline
 70
     0
 71
     3
 72
     9
 73
     5
 74
     0
 42
0.000000001
 43
0.0000000001
 40
0.0
 40
0.0
 40
0.0
 40
0.0
 40
0.0924931860843359
 40
0.1663967172963607
 40
0.1663967172963607
 40
0.1663967172963607
 40
0.1663967172963607
 10
-101.4545392160171
 20
-1.727872325120239
 30
0.0
 10
-101.622271578437
 20
-1.461543317644618
 30
0.0
 10
-101.9240247742408
 20
-0.9824131844872008
 30
0.0
 10
-102.4197541997879
 20
-0.7144366076766184
 30
0.0
 10
-102.6399277444882
 20
-0.5954173407692132
 30
0.0
  0
SPLINE
  5
134
330
1F
100
AcDbEntity
  8
0
100
AcDbSpline
 70
     0
 71
     3
 72
     9
 73
     5
 74
     0
 42
0.000000001
 43
0.0000000001
 40
0.0
 40
0.0
 40
0.0
 40
0.0
 40
0.0624205710426462
 40
0.1195566660775023
 40
0.1195566660775023
 40
0.1195566660775023
 40
0.1195566660775023
 10
-102.6399277444882
 20
-0.5954173407692132
 30
0.0
 10
-102.8471800457431
 20
-0.5382375686839502
 30
0.0
 10
-103.244138832903
 20
-0.4287188186405499
 30
0.0
 10
-103.6217783045977
 20
-0.5895804445784458
 30
0.0
 10
-103.8022520954082
 20
-0.6664561676024627
 30
0.0
  0
SPLINE
  5
135
330
1F
100
AcDbEntity
  8
0
100
AcDbSpline
 70
     0
 71
     3
 72
     9
 73
     5
 74
     0
 42
0.000000001
 43
0.0000000001
 40
0.0
 40
0.0
 40
0.0
 40
0.0
 40
0.0356874860322594
 40
0.0696753828676802
 40
0.0696753828676802
 40
0.0696753828676802
 40
0.0696753828676802
 10
-103.8022520954082
 20
-0.6664561676024627
 30
0.0
 10
-103.9021768628101
 20
-0.7353358233009155
 30
0.0
 10
-104.0972675570776
 20
-0.8698147938354372
 30
0.0
 10
-104.1973852505517
 20
-1.084281707023318
 30
0.0
 10
-104.2462230135772
 20
-1.188899421631127
 30
0.0
  0
SPLINE
  5
136
330
1F
100
AcDbEntity
  8
0
100
AcDbSpline
 70
     0
 71
     3
 72
     9
 73
     5
 74
     0
 42
0.000000001
 43
0.0000000001
 40
0.0
 40
0.0
 40
0.0
 40
0.0
 40
0.0395645541475909
 40
0.0915576413752775
 40
0.0915576413752775
 40
0.0915576413752775
 40
0.0915576413752775
 10
-104.2462230135772
 20
-1.188899421631127
 30
0.0
 10
-104.2731379108408
 20
-1.319164286443857
 30
0.0
 10
-104.335422563465
 20
-1.620614512113816
 30
0.0
 10
-104.280336920807
 20
-1.92449078335962
 30
0.0
 10
-104.2490552868473
 20
-2.097053829326998
 30
0.0
  0
SPLINE
  5
137
330
1F
100
AcDbEntity
  8
0
100
AcDbSpline
 70
     0
 71
     3
 72
     9
 73
     5
 74
     0
 42
0.000000001
 43
0.0000000001
 40
0.0
 40
0.0
 40
0.0
 40
0.0
 40
0.0650684290391325
 40
0.1798253170630427
 40
0.1798253170630427
 40
0.1798253170630427
 40
0.1798253170630427
 10
-104.2490552868473
 20
-2.097053829326998
 30
0.0
 10
-104.1968223876529
 20
-2.307592368105911
 30
0.0
 10
-104.0524697761413
 20
-2.889443813560937
 30
0.0
 10
-103.8788847511538
 20
-3.463326707097623
 30
0.0
 10
-103.7681101527799
 20
-3.829554422015753
 30
0.0
  0
SPLINE
  5
138
330
1F
100
AcDbEntity
  8
0
100
AcDbSpline
 70
     0
 71
     3
 72
     9
 73
     5
 74
     0
 42
0.000000001
 43
0.0000000001
 40
0.0
 40
0.0
 40
0.0
 40
0.0
 40
0.1559376097202871
 40
0.2683895640775791
 40
0.2683895640775791
 40
0.2683895640775791
 40
0.2683895640775791
 10
-103.7681101527799
 20
-3.829554422015753
 30
0.0
 10
-103.6201581941559
 20
-4.333097945425184
 30
0.0
 10
-103.3655130078488
 20
-5.199763960021428
 30
0.0
 10
-103.4150028812101
 20
-6.098903715004735
 30
0.0
 10
-103.4357385346231
 20
-6.475632307398813
 30
0.0
  0
SPLINE
  5
139
330
1F
100
AcDbEntity
  8
0
100
AcDbSpline
 70
     0
 71
     3
 72
     9
 73
     5
 74
     0
 42
0.000000001
 43
0.0000000001
 40
0.0
 40
0.0
 40
0.0
 40
0.0
 40
0.1231571793016607
 40
0.243460955961765
 40
0.243460955961765
 40
0.243460955961765
 40
0.243460955961765
 10
-103.4357385346231
 20
-6.475632307398813
 30
0.0
 10
-103.5547574191795
 20
-6.881222476882156
 30
0.0
 10
-103.7900376649265
 20
-7.683005782987613
 30
0.0
 10
-104.4601414339479
 20
-8.181077257339084
 30
0.0
 10
-104.7912664549968
 20
-8.42719425451608
 30
0.0
  0
SPLINE
  5
140
330
1F
100
AcDbEntity
  8
0
100
AcDbSpline
 70
     0
 71
     3
 72
     9
 73
     5
 74
     0
 42
0.000000001
 43
0.0000000001
 40
0.0
 40
0.0
 40
0.0
 40
0.0
 40
0.0802232891956255
 40
0.1620922199074409
 40
0.1620922199074409
 40
0.1620922199074409
 40
0.1620922199074409
 10
-104.7912664549968
 20
-8.42719425451608
 30
0.0
 10
-105.0340384889138
 20
-8.547500420830279
 30
0.0
 10
-105.5245626035892
 20
-8.79058062561806
 30
0.0
 10
-106.0720559008706
 20
-8.802606952393738
 30
0.0
 10
-106.3485817627898
 20
-8.808681164432288
 30
0.0
  0
SPLINE
  5
141
330
1F
100
AcDbEntity
  8
0
100
AcDbSpline
 70
     0
 71
     3
 72
     9
 73
     5
 74
     0
 42
0.000000001
 43
0.0000000001
 40
0.0
 40
0.0
 40
0.0
 40
0.0
 40
0.0847230903420546
 40
0.1745818542750242
 40
0.1745818542750242
 40
0.1745818542750242
 40
0.1745818542750242
 10
-106.3485817627898
 20
-8.808681164432288
 30
0.0
 10
-106.6324285121964
 20
-8.77196933319432
 30
0.0
 10
-107.2173279964018
 20
-8.696320303567573
 30
0.0
 10
-107.712472401592
 20
-8.37486476853182
 30
0.0
 10
-107.9673274345133
 20
-8.20940887302838
 30
0.0
  0
SPLINE
  5
142
330
1F
100
AcDbEntity
  8
0
100
AcDbSpline
 70
     0
 71
     3
 72
     9
 73
     5
 74
     0
 42
0.000000001
 43
0.0000000001
 40
0.0
 40
0.0
 40
0.0
 40
0.0
 40
0.1005689597384441
 40
0.215664001929852
 40
0.215664001929852
 40
0.215664001929852
 40
0.215664001929852
 10
-107.9673274345133
 20
-8.20940887302838
 30
0.0
 10
-108.2235385963454
 20
-7.990235607450002
 30
0.0
 10
-108.7729678103248
 20
-7.5202319035875
 30
0.0
 10
-109.1591347952283
 20
-6.908102044504814
 30
0.0
 10
-109.3652234563988
 20
-6.58142206394571
 30
0.0
  0
SPLINE
  5
143
330
1F
100
AcDbEntity
  8
0
100
AcDbSpline
 70
     0
 71
     3
 72
     9
 73
     5
 74
     0
 42
0.000000001
 43
0.0000000001
 40
0.0
 40
0.0
 40
0.0
 40
0.0
 40
0.1785346161947167
 40
0.3220242736786609
 40
0.3220242736786609
 40
0.3220242736786609
 40
0.3220242736786609
 10
-109.3652234563988
 20
-6.58142206394571
 30
0.0
 10
-109.6595570172635
 20
-6.049106209605877
 30
0.0
 10
-110.1904487467045
 20
-5.088963969321978
 30
0.0
 10
-110.1645107187423
 20
-3.997554932712348
 30
0.0
 10
-110.1529530845752
 20
-3.511237839131165
 30
0.0
  0
SPLINE
  5
144
330
1F
100
AcDbEntity
  8
0
100
AcDbSpline
 70
     0
 71
     3
 72
     9
 73
     5
 74
     0
 42
0.000000001
 43
0.0000000001
 40
0.0
 40
0.0
 40
0.0
 40
0.0
 40
0.1295107517485343
 40
0.2658338799773883
 40
0.2658338799773883
 40
0.2658338799773883
 40
0.2658338799773883
 10
-110.1529530845752
 20
-3.511237839131165
 30
0.0
 10
-110.0252700925714
 20
-3.086669508325626
 30
0.0
 10
-109.7631878738116
 20
-2.215200188830782
 30
0.0
 10
-109.0365124354171
 20
-1.664915108907978
 30
0.0
 10
-108.6638636632687
 20
-1.382721644632015
 30
0.0
  0
LINE
  5
145
330
1F
100
AcDbEntity
  8
0
100
AcDbLine
 10
-108.663864
 20
-1.382722
 30
0.0
 11
-107.477479
 21
-3.199765
 31
0.0
  0
SPLINE
  5
146
330
1F
100
AcDbEntity
  8
0
100
AcDbSpline
 70
     0
 71
     3
 72
     9
 73
     5
 74
     0
 42
0.000000001
 43
0.0000000001
 40
0.0
 40
0.0
 40
0.0
 40
0.0
 40
0.0744256723913983
 40
0.1354370355516676
 40
0.1354370355516676
 40
0.1354370355516676
 40
0.1354370355516676
 10
-107.4774794892453
 20
-3.19976511111089
 30
0.0
 10
-107.66570864649
 20
-3.370158609544562
 30
0.0
 10
-108.0082409776397
 20
-3.680234280527706
 30
0.0
 10
-108.1387517115462
 20
-4.121134601152678
 30
0.0
 10
-108.1975438857122
 20
-4.319750359904035
 30
0.0
  0
SPLINE
  5
147
330
1F
100
AcDbEntity
  8
0
100
AcDbSpline
 70
     0
 71
     3
 72
     9
 73
     5
 74
     0
 42
0.000000001
 43
0.0000000001
 40
0.0
 40
0.0
 40
0.0
 40
0.0
 40
0.0633525076318282
 40
0.1439722672983891
 40
0.1439722672983891
 40
0.1439722672983891
 40
0.1439722672983891
 10
-108.1975438857122
 20
-4.319750359904035
 30
0.0
 10
-108.1931756924864
 20
-4.533934751856674
 30
0.0
 10
-108.1832487186976
 20
-5.020681270377372
 30
0.0
 10
-107.9439234353651
 20
-5.447287083530852
 30
0.0
 10
-107.8099091061721
 20
-5.686172382582995
 30
0.0
  0
SPLINE
  5
148
330
1F
100
AcDbEntity
  8
0
100
AcDbSpline
 70
     0
 71
     3
 72
     9
 73
     5
 74
     0
 42
0.000000001
 43
0.0000000001
 40
0.0
 40
0.0
 40
0.0
 40
0.0
 40
0.0847857411858049
 40
0.1548424295393313
 40
0.1548424295393313
 40
0.1548424295393313
 40
0.1548424295393313
 10
-107.8099091061721
 20
-5.686172382582995
 30
0.0
 10
-107.6557844024747
 20
-5.928743351806087
 30
0.0
 10
-107.3743096728944
 20
-6.371745650127716
 30
0.0
 10
-106.9253074386309
 20
-6.640109444712055
 30
0.0
 10
-106.7221615070577
 20
-6.761527577832918
 30
0.0
  0
SPLINE
  5
149
330
1F
100
AcDbEntity
  8
0
100
AcDbSpline
 70
     0
 71
     3
 72
     9
 73
     5
 74
     0
 42
0.000000001
 43
0.0000000001
 40
0.0
 40
0.0
 40
0.0
 40
0.0
 40
0.0389123893398007
 40
0.0774229128309125
 40
0.0774229128309125
 40
0.0774229128309125
 40
0.0774229128309125
 10
-106.7221615070577
 20
-6.761527577832918
 30
0.0
 10
-106.5938576854457
 20
-6.802246514227623
 30
0.0
 10
-106.3385750938323
 20
-6.88326386413963
 30
0.0
 10
-106.0946109672937
 20
-6.773032232308474
 30
0.0
 10
-105.9732620554208
 20
-6.718202496615522
 30
0.0
  0
SPLINE
  5
150
330
1F
100
AcDbEntity
  8
0
100
AcDbSpline
 70
     0
 71
     3
 72
     9
 73
     5
 74
     0
 42
0.000000001
 43
0.0000000001
 40
0.0
 40
0.0
 40
0.0
 40
0.0
 40
0.036246096384398
 40
0.0746515681937915
 40
0.0746515681937915
 40
0.0746515681937915
 40
0.0746515681937915
 10
-105.9732620554208
 20
-6.718202496615522
 30
0.0
 10
-105.8745013672357
 20
-6.642399913469816
 30
0.0
 10
-105.6710962840862
 20
-6.486278778521792
 30
0.0
 10
-105.6086421469952
 20
-6.237035745360031
 30
0.0
 10
-105.5765118025233
 20
-6.108809419840218
 30
0.0
  0
SPLINE
  5
151
330
1F
100
AcDbEntity
  8
0
100
AcDbSpline
 70
     0
 71
     3
 72
     9
 73
     5
 74
     0
 42
0.000000001
 43
0.0000000001
 40
0.0
 40
0.0
 40
0.0
 40
0.0
 40
0.078611764833977
 40
0.2126189504491849
 40
0.2126189504491849
 40
0.2126189504491849
 40
0.2126189504491849
 10
-105.5765118025233
 20
-6.108809419840218
 30
0.0
 10
-105.5861549469357
 20
-5.845949888607969
 30
0.0
 10
-105.6122364787307
 20
-5.135001371370151
 30
0.0
 10
-105.8339963098461
 20
-4.456497593419115
 30
0.0
 10
-105.9737647114278
 20
-4.028857528785106
 30
0.0
  0
SPLINE
  5
152
330
1F
100
AcDbEntity
  8
0
100
AcDbSpline
 70
     0
 71
     3
 72
     9
 73
     5
 74
     0
 42
0.000000001
 43
0.0000000001
 40
0.0
 40
0.0
 40
0.0
 40
0.0
 40
0.1427528212518204
 40
0.2468515412983445
 40
0.2468515412983445
 40
0.2468515412983445
 40
0.2468515412983445
 10
-105.9737647114278
 20
-4.028857528785106
 30
0.0
 10
-106.1142641044166
 20
-3.572952237778337
 30
0.0
 10
-106.3572189644791
 20
-2.784590068931485
 30
0.0
 10
-106.4583399107193
 20
-1.966531102150655
 30
0.0
 10
-106.5009831975229
 20
-1.621550913181351
 30
0.0
  0
SPLINE
  5
153
330
1F
100
AcDbEntity
  8
0
100
AcDbSpline
 70
     0
 71
     3
 72
     9
 73
     5
 74
     0
 42
0.000000001
 43
0.0000000001
 40
0.0
 40
0.0
 40
0.0
 40
0.0
 40
0.0824432245960893
 40
0.1626937790042709
 40
0.1626937790042709
 40
0.1626937790042709
 40
0.1626937790042709
 10
-106.5009831975229
 20
-1.621550913181351
 30
0.0
 10
-106.498579361543
 20
-1.343594093147837
 30
0.0
 10
-106.4938356223021
 20
-0.7950730270103135
 30
0.0
 10
-106.2745393415553
 20
-0.2924889789711216
 30
0.0
 10
-106.1663689602579
 20
-0.0445836888076023
 30
0.0
  0
SPLINE
  5
154
330
1F
100
AcDbEntity
  8
0
100
AcDbSpline
 70
     0
 71
     3
 72
     9
 73
     5
 74
     0
 42
0.000000001
 43
0.0000000001
 40
0.0
 40
0.0
 40
0.0
 40
0.0
 40
0.0837708019819267
 40
0.1780398033382742
 40
0.1780398033382742
 40
0.1780398033382742
 40
0.1780398033382742
 10
-106.1663689602579
 20
-0.0445836888076023
 30
0.0
 10
-106.0120306059116
 20
0.1918800977490465
 30
0.0
 10
-105.6840121364058
 20
0.6944414324758386
 30
0.0
 10
-105.1799160473748
 20
1.021951450476837
 30
0.0
 10
-104.9130058733038
 20
1.195362349344724
 30
0.0
  0
SPLINE
  5
155
330
1F
100
AcDbEntity
  8
0
100
AcDbSpline
 70
     0
 71
     3
 72
     9
 73
     5
 74
     0
 42
0.000000001
 43
0.0000000001
 40
0.0
 40
0.0
 40
0.0
 40
0.0
 40
0.0902700675622567
 40
0.1821948487203771
 40
0.1821948487203771
 40
0.1821948487203771
 40
0.1821948487203771
 10
-104.9130058733038
 20
1.195362349344724
 30
0.0
 10
-104.6401985038105
 20
1.331156031205714
 30
0.0
 10
-104.0895830145693
 20
1.605232588274701
 30
0.0
 10
-103.4746694346393
 20
1.624858801047715
 30
0.0
 10
-103.1644202883916
 20
1.634761031142546
 30
0.0
  0
SPLINE
  5
156
330
1F
100
AcDbEntity
  8
0
100
AcDbSpline
 70
     0
 71
     3
 72
     9
 73
     5
 74
     0
 42
0.000000001
 43
0.0000000001
 40
0.0
 40
0.0
 40
0.0
 40
0.0
 40
0.0936018697387987
 40
0.1903686058549315
 40
0.1903686058549315
 40
0.1903686058549315
 40
0.1903686058549315
 10
-103.1644202883916
 20
1.634761031142546
 30
0.0
 10
-102.8499042035085
 20
1.598859252912526
 30
0.0
 10
-102.2102376160223
 20
1.525841785543185
 30
0.0
 10
-101.6698523681388
 20
1.175170264455598
 30
0.0
 10
-101.3951678084229
 20
0.9969195576642553
 30
0.0
  0
SPLINE
  5
157
330
1F
100
AcDbEntity
  8
0
100
AcDbSpline
 70
     0
 71
     3
 72
     9
 73
     5
 74
     0
 42
0.000000001
 43
0.0000000001
 40
0.0
 40
0.0
 40
0.0
 40
0.0
 40
0.1093103226098035
 40
0.2380405320052725
 40
0.2380405320052725
 40
0.2380405320052725
 40
0.2380405320052725
 10
-101.3951678084229
 20
0.9969195576642553
 30
0.0
 10
-101.1196513139543
 20
0.7554857800953352
 30
0.0
 10
-100.5196705312277
 20
0.229725508929568
 30
0.0
 10
-100.0965383390508
 20
-0.4476485089944848
 30
0.0
 10
-99.86771220073712
 20
-0.8139663727290625
 30
0.0
  0
LWPOLYLINE
  5
158
330
1F
100
AcDbEntity
  8
0
100
AcDbPolyline
 90
       12
 70
     1
 43
0.0
 10
-93.725758
 20
-11.56226
 10
-98.137532
 20
-11.39938
 10
-96.154805
 20
-7.459311
 10
-97.486863
 20
-5.209306
 10
-100.369614
 20
-11.180241
 10
-106.55847
 20
-10.962939
 10
-105.278649
 20
-13.124708
 10
-101.235555
 20
-13.182417
 10
-103.10706
 20
-16.792782
 10
-101.816046
 20
-18.973459
 10
-99.091959
 20
-13.496499
 10
-92.401163
 20
-13.799659
  0
LINE
  5
159
330
1F
100
AcDbEntity
  8
0
100
AcDbLine
 10
-120.264504
 20
-7.820434
 30
0.0
 11
-119.735901
 21
-0.565051
 31
0.0
  0
ARC
  5
160
330
1F
100
AcDbEntity
  8
0
100
AcDbCircle
 10
-119.037752
 20
-0.615916
 30
0.0
 40
0.6999999999999973
100
AcDbArc
 50
55.832989
 51
175.832989
  0
LINE
  5
161
330
1F
100
AcDbEntity
  8
0
100
AcDbLine
 10
-118.644627
 20
-0.036733
 30
0.0
 11
-112.625582
 21
-4.122207
 31
0.0
  0
ARC
  5
162
330
1F
100
AcDbEntity
  8
0
100
AcDbCircle
 10
-113.018707
 20
-4.70139
 30
0.0
 40
0.6999999999999663
100
AcDbArc
 50
-64.167011
 51
55.832989
  0
LINE
  5
163
330
1F
100
AcDbEntity
  8
0
100
AcDbLine
 10
-112.713683
 20
-5.331438
 30
0.0
 11
-114.412387
 21
-6.153831
 31
0.0
  0
ARC
  5
164
330
1F
100
AcDbEntity
  8
0
100
AcDbCircle
 10
19.022699
 20
58.446017
 30
0.0
 40
148.25
100
AcDbArc
 50
205.832989
 51
215.420159
  0
ARC
  5
165
330
1F
100
AcDbEntity
  8
0
100
AcDbCircle
 10
-103.215891
 20
-28.489172
 30
0.0
 40
1.749999999999985
100
AcDbArc
 50
-144.579841
 51
35.42016
  0
ARC
  5
166
330
1F
100
AcDbEntity
  8
0
100
AcDbCircle
 10
19.022699
 20
58.446017
 30
0.0
 40
151.75
100
AcDbArc
 50
205.832989
 51
215.420159
  0
LINE
  5
167
330
1F
100
AcDbEntity
  8
0
100
AcDbLine
 10
-117.562625
 20
-7.678954
 30
0.0
 11
-119.26133
 21
-8.501346
 31
0.0
  0
ARC
  5
168
330
1F
100
AcDbEntity
  8
0
100
AcDbCircle
 10
-119.566354
 20
-7.871299
 30
0.0
 40
0.7000000000000006
100
AcDbArc
 50
175.832989
 51
295.832989
  0
ARC
  5
169
330
1F
100
AcDbEntity
  8
0
100
AcDbCircle
 10
0.0
 20
0.0
 30
0.0
 40
34.99999999999999
100
AcDbArc
 50
58.963622
 51
79.736234
  0
ARC
  5
170
330
1F
100
AcDbEntity
  8
0
100
AcDbCircle
 10
8.018099
 20
44.279906
 30
0.0
 40
10.00000000000001
100
AcDbArc
 50
196.124034
 51
259.736234
  0
LINE
  5
171
330
1F
100
AcDbEntity
  8
0
100
AcDbLine
 10
-1.588529
 20
41.50273
 30
0.0
 11
-22.4019
 21
113.498983
 31
0.0
  0
SPLINE
  5
172
330
1F
100
AcDbEntity
  8
0
100
AcDbSpline
 70
     0
 71
     3
 72
    18
 73
    14
 74
     0
 42
0.000000001
 43
0.0000000001
 40
0.0
 40
0.0
 40
0.0
 40
0.0
 40
1.171933420160783
 40
1.171933420160783
 40
2.343866840321565
 40
2.343866840321565
 40
3.51580026048235
 40
3.51580026048235
 40
4.687733680643132
 40
4.687733680643132
 40
5.589231106082524
 40
5.589231106082524
 40
6.490728531521918
 40
6.490728531521918
 40
6.490728531521918
 40
6.490728531521918
 10
15.43638549106724
 20
150.4428946179122
 30
0.0
 10
11.71062919111851
 20
151.617224406416
 30
0.0
 10
7.791120431185037
 20
152.0526039082017
 30
0.0
 10
0.0058327816818388
 20
151.3964499250599
 30
0.0
 10
-3.785514514649039
 20
150.3111896298427
 30
0.0
 10
-10.73880890910571
 20
146.7484745276885
 30
0.0
 10
-13.83427872298225
 20
144.3050812189579
 30
0.0
 10
-18.91439415636505
 20
138.3692856515039
 30
0.0
 10
-20.85047110345134
 20
134.933632833664
 30
0.0
 10
-23.01446364003476
 20
128.3697097700692
 30
0.0
 10
-23.52122149827906
 20
125.3905757283469
 30
0.0
 10
-23.63252378748632
 20
119.3816236156579
 30
0.0
 10
-23.23643916920101
 20
116.3857664527413
 30
0.0
 10
-22.40190001794121
 20
113.4989831515465
 30
0.0
  0
SPLINE
  5
173
330
1F
100
AcDbEntity
  8
0
100
AcDbSpline
 70
     0
 71
     3
 72
    26
 73
    22
 74
     0
 42
0.000000001
 43
0.0000000001
 40
-0.2486835721012158
 40
-0.2486835721012158
 40
-0.2486835721012158
 40
-0.2486835721012158
 40
-0.2334286877741993
 40
-0.2334286877741993
 40
-0.2334286877741993
 40
-0.2134930795404744
 40
-0.2134930795404744
 40
-0.2134930795404744
 40
-0.1881218885579091
 40
-0.1881218885579091
 40
-0.1881218885579091
 40
-0.1638954235446588
 40
-0.1638954235446588
 40
-0.1638954235446588
 40
-0.1450992144137976
 40
-0.1450992144137976
 40
-0.1450992144137976
 40
-0.1259025311784926
 40
-0.1259025311784926
 40
-0.1259025311784926
 40
-0.1162119340960783
 40
-0.1162119340960783
 40
-0.1162119340960783
 40
-0.1162119340960783
 10
15.43638549106724
 20
150.4428946179122
 30
0.0
 10
18.70886732936155
 20
149.4114334605897
 30
0.0
 10
21.81555584835903
 20
148.1467229226216
 30
0.0
 10
24.8355708105164
 20
146.6016168156501
 30
0.0
 10
28.78223037573722
 20
144.5824189398874
 30
0.0
 10
32.6171540646386
 20
142.0556291775798
 30
0.0
 10
36.41236079727037
 20
138.9778885397624
 30
0.0
 10
41.24235713864245
 20
135.0609804323503
 30
0.0
 10
45.98750119193365
 20
130.25289617178
 30
0.0
 10
50.23210098196632
 20
125.1595823492187
 30
0.0
 10
54.28518813814831
 20
120.2960743961005
 30
0.0
 10
57.85319193980595
 20
115.2294588889149
 30
0.0
 10
60.55467179349843
 20
110.4395351473823
 30
0.0
 10
62.65062678590199
 20
106.7232518052817
 30
0.0
 10
64.22788861800372
 20
103.1783614785753
 30
0.0
 10
65.34929679307747
 20
99.56106534377183
 30
0.0
 10
66.49459781438962
 20
95.86669869863255
 30
0.0
 10
67.18777723580594
 20
92.03282073218568
 30
0.0
 10
67.43051137347027
 20
87.71029361500209
 30
0.0
 10
67.55304497458353
 20
85.52825684557726
 30
0.0
 10
67.55459822532922
 20
83.21929136829333
 30
0.0
 10
67.44031922318041
 20
80.82689443052885
 30
0.0
  0
SPLINE
  5
174
330
1F
100
AcDbEntity
  8
0
100
AcDbSpline
 70
     0
 71
     3
 72
    10
 73
     6
 74
     0
 42
0.000000001
 43
0.0000000001
 40
0.0
 40
0.0
 40
0.0
 40
0.0
 40
1.079957230044608
 40
1.079957230044608
 40
2.159914460089214
 40
2.159914460089214
 40
2.159914460089214
 40
2.159914460089214
 10
59.099744209055
 20
61.46530410995122
 30
0.0
 10
61.59480365498994
 20
64.06023222121878
 30
0.0
 10
63.60254507226848
 20
67.08319326441371
 30
0.0
 10
66.45098125233717
 20
73.6954777027647
 30
0.0
 10
67.26855860523094
 20
77.2311369537906
 30
0.0
 10
67.44031922318038
 20
80.82689443052863
 30
0.0
  0
LINE
  5
175
330
1F
100
AcDbEntity
  8
0
100
AcDbLine
 10
59.099744
 20
61.465304
 30
0.0
 11
30.409618
 21
31.62681
 31
0.0
  0
ARC
  5
176
330
1F
100
AcDbEntity
  8
0
100
AcDbCircle
 10
23.201199
 20
38.557806
 30
0.0
 40
10.00000000000002
100
AcDbArc
 50
238.963622
 51
316.124034
  0
ARC
  5
177
330
1F
100
AcDbEntity
  8
0
100
AcDbCircle
 10
0.0
 20
0.0
 30
0.0
 40
35.00000000000001
100
AcDbArc
 50
132.511834
 51
159.736234
  0
ARC
  5
178
330
1F
100
AcDbEntity
  8
0
100
AcDbCircle
 10
-42.214867
 20
15.585411
 30
0.0
 40
9.99999999999999
100
AcDbArc
 50
276.124034
 51
339.736234
  0
LINE
  5
179
330
1F
100
AcDbEntity
  8
0
100
AcDbLine
 10
-41.148055
 20
5.642478
 30
0.0
 11
-85.847916
 21
0.846475
 31
0.0
  0
SPLINE
  5
180
330
1F
100
AcDbEntity
  8
0
100
AcDbSpline
 70
     0
 71
     3
 72
    16
 73
    12
 74
     0
 42
0.000000001
 43
0.0000000001
 40
0.0
 40
0.0
 40
0.0
 40
0.0
 40
1.171933420160783
 40
1.171933420160783
 40
2.343866840321565
 40
2.343866840321565
 40
3.515800260482346
 40
3.515800260482346
 40
4.120251669886015
 40
4.120251669886015
 40
4.724703079289683
 40
4.724703079289683
 40
4.724703079289683
 40
4.724703079289683
 10
-118.8774262340114
 20
27.47742421001825
 30
0.0
 10
-118.4610187960297
 20
23.59323635354573
 30
0.0
 10
-117.289924180251
 20
19.82751708218941
 30
0.0
 10
-113.5701954017201
 20
12.95693780171609
 30
0.0
 10
-111.0571238734995
 20
9.917764275275463
 30
0.0
 10
-105.0074730605424
 20
4.973781379230373
 30
0.0
 10
-101.528731734892
 20
3.116239180790962
 30
0.0
 10
-95.86451707866317
 20
1.39047502720787
 30
0.0
 10
-93.8828866965086
 20
0.9989056674147045
 30
0.0
 10
-89.87116342968152
 20
0.6189509324473043
 30
0.0
 10
-87.85125568501685
 20
0.631530203115993
 30
0.0
 10
-85.84791576641666
 20
0.8464754591685164
 30
0.0
  0
SPLINE
  5
181
330
1F
100
AcDbEntity
  8
0
100
AcDbSpline
 70
     0
 71
     3
 72
    20
 73
    16
 74
     0
 42
0.000000001
 43
0.0000000001
 40
-0.5355892793803662
 40
-0.5355892793803662
 40
-0.5355892793803662
 40
-0.5355892793803662
 40
-0.5260083518285266
 40
-0.5260083518285266
 40
-0.5260083518285266
 40
-0.4998015458663035
 40
-0.4998015458663035
 40
-0.4998015458663035
 40
-0.4673500591127901
 40
-0.4673500591127901
 40
-0.4673500591127901
 40
-0.4354444945542168
 40
-0.4354444945542168
 40
-0.4354444945542168
 40
-0.4095664260142998
 40
-0.4095664260142998
 40
-0.4095664260142998
 40
-0.4095664260142998
 10
-118.8774262340158
 20
27.47742421005948
 30
0.0
 10
-119.0985585461093
 20
29.54011416937971
 30
0.0
 10
-119.2583825842888
 20
31.66038454784696
 30
0.0
 10
-119.3557505384287
 20
33.85556220704099
 30
0.0
 10
-119.6220820671117
 20
39.86005338556569
 30
0.0
 10
-119.4080152250692
 20
46.41126022946576
 30
0.0
 10
-118.6464939378519
 20
53.18458583197427
 30
0.0
 10
-117.7035137822283
 20
61.57189126644366
 30
0.0
 10
-115.912966012072
 20
70.22063406983938
 30
0.0
 10
-113.2990828748828
 20
78.35142606254176
 30
0.0
 10
-110.7291723553555
 20
86.3454360382915
 30
0.0
 10
-107.3756954052389
 20
93.8427430611574
 30
0.0
 10
-103.3628974365969
 20
100.6614387372095
 30
0.0
 10
-100.1081842758654
 20
106.1919684895908
 30
0.0
 10
-96.41762230991682
 20
111.2990731972974
 30
0.0
 10
-92.33042584262546
 20
116.0691439968459
 30
0.0
  0
SPLINE
  5
182
330
1F
100
AcDbEntity
  8
0
100
AcDbSpline
 70
     0
 71
     3
 72
    18
 73
    14
 74
     0
 42
0.000000001
 43
0.0000000001
 40
0.0
 40
0.0
 40
0.0
 40
0.0
 40
1.171933420160785
 40
1.171933420160785
 40
2.343866840321571
 40
2.343866840321571
 40
3.515800260482354
 40
3.515800260482354
 40
4.687733680643138
 40
4.687733680643138
 40
5.580441854620991
 40
5.580441854620991
 40
6.473150028598844
 40
6.473150028598844
 40
6.473150028598844
 40
6.473150028598844
 10
-40.72945792104499
 20
104.8808850726159
 30
0.0
 10
-41.81434656764017
 20
108.6336609896224
 30
0.0
 10
-43.62186367338296
 20
112.1386554464251
 30
0.0
 10
-48.47867536734043
 20
118.258510183634
 30
0.0
 10
-51.48153618859396
 20
120.8148613171739
 30
0.0
 10
-58.29812371698394
 20
124.6326324343179
 30
0.0
 10
-62.04668013202173
 20
125.8575524451959
 30
0.0
 10
-69.80232826321215
 20
126.8015672227617
 30
0.0
 10
-73.73527175607578
 20
126.5116366936482
 30
0.0
 10
-80.37119775410532
 20
124.6872687189844
 30
0.0
 10
-83.10716923428986
 20
123.4759229207537
 30
0.0
 10
-88.13262664380758
 20
120.2878522052955
 30
0.0
 10
-90.39426199284064
 20
118.3287952558226
 30
0.0
 10
-92.3304258426256
 20
116.0691439968457
 30
0.0
  0
LINE
  5
183
330
1F
100
AcDbEntity
  8
0
100
AcDbLine
 10
-40.729458
 20
104.880885
 30
0.0
 11
-20.801784
 21
35.948377
 31
0.0
  0
ARC
  5
184
330
1F
100
AcDbEntity
  8
0
100
AcDbCircle
 10
-30.408411
 20
33.1712
 30
0.0
 40
10.00000000000002
100
AcDbArc
 50
-47.488166
 51
16.124034
  0
ARC
  5
185
330
1F
100
AcDbEntity
  8
0
100
AcDbCircle
 10
0.0
 20
0.0
 30
0.0
 40
35.00000000000001
100
AcDbArc
 50
212.511834
 51
263.284446
  0
ARC
  5
186
330
1F
100
AcDbEntity
  8
0
100
AcDbCircle
 10
-5.262316
 20
-44.691252
 30
0.0
 40
10.0
100
AcDbArc
 50
6.124034
 51
83.284446
  0
LINE
  5
187
330
1F
100
AcDbEntity
  8
0
100
AcDbLine
 10
4.680617
 20
-43.624441
 30
0.0
 11
4.696477
 21
-43.772265
 31
0.0
  0
SPLINE
  5
188
330
1F
100
AcDbEntity
  8
0
100
AcDbSpline
 70
     0
 71
     3
 72
    14
 73
    10
 74
     0
 42
0.000000001
 43
0.0000000001
 40
0.0
 40
0.0
 40
0.0
 40
0.0
 40
0.5859667100803913
 40
0.5859667100803913
 40
1.171933420160782
 40
1.171933420160782
 40
1.611689329269574
 40
1.611689329269574
 40
2.051445238378364
 40
2.051445238378364
 40
2.051445238378364
 40
2.051445238378364
 10
-5.591426153294642
 20
-59.64117315786127
 30
0.0
 10
-3.733431081664177
 20
-59.03873483861966
 30
0.0
 10
-2.010869055588174
 20
-58.07914840490796
 30
0.0
 10
0.9694732030125177
 20
-55.55370379447322
 30
0.0
 10
2.198759739132953
 20
-54.01199024469959
 30
0.0
 10
3.772806672263076
 20
-50.97678797389338
 30
0.0
 10
4.253266607970226
 20
-49.5835903782601
 30
0.0
 10
4.794747759047823
 20
-46.70232354064839
 30
0.0
 10
4.852856322235321
 20
-45.22975276639598
 30
0.0
 10
4.69647742227171
 20
-43.77226494611428
 30
0.0
  0
SPLINE
  5
189
330
1F
100
AcDbEntity
  8
0
100
AcDbSpline
 70
     0
 71
     3
 72
    29
 73
    25
 74
     0
 42
0.000000001
 43
0.0000000001
 40
-0.8114294826075527
 40
-0.8114294826075527
 40
-0.8114294826075527
 40
-0.8114294826075527
 40
-0.8112935560244362
 40
-0.8112935560244362
 40
-0.8112935560244362
 40
-0.7930588227079716
 40
-0.7930588227079716
 40
-0.7930588227079716
 40
-0.7755593914119359
 40
-0.7755593914119359
 40
-0.7755593914119359
 40
-0.7489900113559296
 40
-0.7489900113559296
 40
-0.7489900113559296
 40
-0.7305825106382187
 40
-0.7305825106382187
 40
-0.7305825106382187
 40
-0.7078309999499758
 40
-0.7078309999499758
 40
-0.7078309999499758
 40
-0.6856281889482155
 40
-0.6856281889482155
 40
-0.6856281889482155
 40
-0.6698647803669295
 40
-0.6698647803669295
 40
-0.6698647803669295
 40
-0.6698647803669295
 10
-5.591426153294647
 20
-59.64117315786127
 30
0.0
 10
-5.611378448549908
 20
-59.64764251152217
 30
0.0
 10
-5.631320668210109
 20
-59.6540985166879
 30
0.0
 10
-5.651252705773196
 20
-59.66054112945172
 30
0.0
 10
-8.325162261089915
 20
-60.52482626717931
 30
0.0
 10
-10.82161623215589
 20
-61.15960012980854
 30
0.0
 10
-13.46395799777308
 20
-61.63192798878835
 30
0.0
 10
-15.9997493025087
 20
-62.08520957914523
 30
0.0
 10
-18.73296891655988
 20
-62.39638586284359
 30
0.0
 10
-21.7855124190426
 20
-62.55534583368632
 30
0.0
 10
-26.42018808837874
 20
-62.79669469854738
 30
0.0
 10
-31.72091255972902
 20
-62.66150513466496
 30
0.0
 10
-36.69458029550339
 20
-62.05019062219885
 30
0.0
 10
-40.14038114681929
 20
-61.62666653909089
 30
0.0
 10
-43.3909164299755
 20
-60.98460341723364
 30
0.0
 10
-46.5054961187714
 20
-60.12309720354757
 30
0.0
 10
-50.35508950821205
 20
-59.05828302104383
 30
0.0
 10
-54.08870783978776
 20
-57.64225051503448
 30
0.0
 10
-58.04100111639017
 20
-55.88189316520872
 30
0.0
 10
-61.89797667490893
 20
-54.1639904698972
 30
0.0
 10
-65.93788336484461
 20
-52.14546743806403
 30
0.0
 10
-69.8586364261535
 20
-49.94768473428658
 30
0.0
 10
-72.64226740183672
 20
-48.38731714255324
 30
0.0
 10
-75.34896368726172
 20
-46.73516620600567
 30
0.0
 10
-77.9330360507578
 20
-44.96150481252108
 30
0.0
  0
SPLINE
  5
190
330
1F
100
AcDbEntity
  8
0
100
AcDbSpline
 70
     0
 71
     3
 72
    20
 73
    16
 74
     0
 42
0.000000001
 43
0.0000000001
 40
0.0
 40
0.0
 40
0.0
 40
0.0
 40
0.5859667100803909
 40
0.5859667100803909
 40
1.171933420160781
 40
1.171933420160781
 40
1.757900130241172
 40
1.757900130241172
 40
2.343866840321562
 40
2.343866840321562
 40
2.929833550401953
 40
2.929833550401953
 40
3.294847945155635
 40
3.294847945155635
 40
3.659862339909318
 40
3.659862339909318
 40
3.659862339909318
 40
3.659862339909318
 10
-71.04471021683317
 20
-17.68002694570189
 30
0.0
 10
-72.98678609425211
 20
-17.88839897127438
 30
0.0
 10
-74.86959497767063
 20
-18.47410945091676
 30
0.0
 10
-78.30472342388835
 20
-20.3342715451335
 30
0.0
 10
-79.82420128645205
 20
-21.59093899622047
 30
0.0
 10
-82.29593058524992
 20
-24.61597862112443
 30
0.0
 10
-83.22455094219102
 20
-26.35542976735337
 30
0.0
 10
-84.36276456044354
 20
-30.09237774906244
 30
0.0
 10
-84.56147587919011
 20
-32.05414732504342
 30
0.0
 10
-84.19573780735986
 20
-35.9434333934098
 30
0.0
 10
-83.63478507209236
 20
-37.83376619115693
 30
0.0
 10
-82.16204048875149
 20
-40.64081518936968
 30
0.0
 10
-81.46775984006696
 20
-41.64547280061424
 30
0.0
 10
-79.85183812203053
 20
-43.4649164384565
 30
0.0
 10
-78.93618310059418
 20
-44.27296248707492
 30
0.0
 10
-77.93303605075766
 20
-44.96150481252117
 30
0.0
  0
LINE
  5
191
330
1F
100
AcDbEntity
  8
0
100
AcDbLine
 10
-71.04471
 20
-17.680027
 30
0.0
 11
-39.014432
 21
-14.243388
 31
0.0
  0
ARC
  5
192
330
1F
100
AcDbEntity
  8
0
100
AcDbCircle
 10
-37.94762
 20
-24.186321
 30
0.0
 40
9.999999999999993
100
AcDbArc
 50
32.511834
 51
96.124034
  0
ARC
  5
196
330
1F
100
AcDbEntity
  8
0
100
AcDbCircle
 10
-37.016604
 20
-15.891955
 30
0.0
 40
89.4105342748363
100
AcDbArc
 50
10.085773
 51
11.065917
  0
LINE
  5
197
330
1F
100
AcDbEntity
  8
0
100
AcDbLine
 10
50.731521
 20
1.269341
 30
0.0
 11
-3.865846
 21
-4.588599
 31
0.0
  0
ARC
  5
198
330
1F
100
AcDbEntity
  8
0
100
AcDbCircle
 10
0.0
 20
0.0
 30
0.0
 40
6.0
100
AcDbArc
 50
142.361849
 51
229.886219
  0
CIRCLE
  5
199
330
1F
100
AcDbEntity
  8
0
100
AcDbCircle
 10
-7.285645
 20
-16.459629
 30
0.0
 40
3.200000000000001
  0
CIRCLE
  5
200
330
1F
100
AcDbEntity
  8
0
100
AcDbCircle
 10
7.285645
 20
16.459629
 30
0.0
 40
3.200000000000001
  0
SPLINE
  5
1004F
330
1F
100
AcDbEntity
  8
0
100
AcDbSpline
210
0.0
220
0.0
230
1.0
 70
     8
 71
     3
 72
   127
 73
   123
 74
     0
 42
0.000000001
 43
0.0000000001
 40
0.1433283159781673
 40
0.1433283159781673
 40
0.1433283159781673
 40
0.1433283159781673
 40
5.395534436223468
 40
10.50723052155215
 40
15.35388738803704
 40
19.98483428683256
 40
24.4974033724493
 40
29.05107868101069
 40
33.85106208243925
 40
39.10252875058476
 40
44.9529197051335
 40
51.43636662611686
 40
58.4625866176051
 40
65.85440340862729
 40
73.394457464999
 40
80.87286869393812
 40
88.1348536905113
 40
95.12281322693742
 40
101.8836622263252
 40
108.532097406488
 40
115.2033182101264
 40
122.0113203507906
 40
129.0201058414611
 40
136.2299793464309
 40
143.5871310576404
 40
151.0079270119445
 40
158.4024443584447
 40
165.6959218344221
 40
172.8474916047396
 40
179.8629664257655
 40
186.7912659332777
 40
193.7035640311394
 40
200.6710122722853
 40
207.7476170449137
 40
214.9596643995816
 40
222.3011835366144
 40
229.7381512355943
 40
237.2206081015223
 40
244.6946902622335
 40
252.1127921530321
 40
259.441475735658
 40
266.6661826086369
 40
273.7904386447393
 40
280.8285066976964
 40
287.7977872521967
 40
294.7142729791468
 40
301.5910927779422
 40
308.4395756114013
 40
315.2717842695916
 40
322.1024402480344
 40
328.9493926506351
 40
335.8329371982214
 40
342.7740184254287
 40
349.7912682756599
 40
356.8976544179897
 40
364.0984493539865
 40
371.3898673322738
 40
378.7577469145137
 40
386.1762943184328
 40
393.6069243532214
 40
400.9982466757801
 40
408.2907010458816
 40
415.4245955613345
 40
422.348960464513
 40
429.0307679214036
 40
435.4642725748618
 40
441.6780679103069
 40
447.7305906911234
 40
453.6963738932199
 40
459.6509777094355
 40
465.6562922207369
 40
471.7478354805327
 40
477.9312024840809
 40
484.1886264546482
 40
490.4873981673378
 40
496.788412355696
 40
503.0548302212097
 40
509.2592981013028
 40
515.3866932625289
 40
521.4333727865848
 40
527.4032507811744
 40
533.3003660763302
 40
539.1200973939706
 40
544.8470388062367
 40
550.4618836939738
 40
555.9534007919739
 40
561.3327590477721
 40
566.6437640058311
 40
571.9546478570884
 40
577.3372717878995
 40
582.8394192969397
 40
588.4513381106979
 40
594.0920297280105
 40
599.6381060017525
 40
604.9682080232714
 40
610.010763006838
 40
614.7867305391792
 40
619.4052781947407
 40
624.0088400097517
 40
628.7088906684893
 40
633.529079007833
 40
638.4000980459896
 40
643.2113315187481
 40
647.8716654347755
 40
652.3660756322021
 40
656.768777615569
 40
661.1912405553418
 40
665.7152505175457
 40
670.3360320943557
 40
674.9609716381786
 40
679.4675182329071
 40
683.7688759756329
 40
687.8676610994746
 40
691.8491542679204
 40
695.8200213120998
 40
699.8486532723023
 40
703.9346405207548
 40
708.0335831068991
 40
712.0988502955636
 40
716.1114007980834
 40
720.0794271299559
 40
724.0206498045184
 40
724.0206498045184
 40
724.0206498045184
 40
724.0206498045184
 10
48.54617534537952
 20
9.382505557619695
 30
0.0
 10
50.01015293841565
 20
10.90952933433493
 30
0.0
 10
52.39115008902297
 20
13.41264248727289
 30
0.0
 10
55.8574750450204
 20
17.11291182076248
 30
0.0
 10
59.14376364409903
 20
20.69780568558275
 30
0.0
 10
62.23107073109841
 20
24.19348675215702
 30
0.0
 10
65.13867256044372
 20
27.71547905445274
 30
0.0
 10
67.88165453245341
 20
31.43977977090956
 30
0.0
 10
70.47009259514735
 20
35.569168499067
 30
0.0
 10
72.91166987202757
 20
40.28042899217682
 30
0.0
 10
75.2035864932898
 20
45.68108551207605
 30
0.0
 10
77.32017432919929
 20
51.78202808348917
 30
0.0
 10
79.20297262624452
 20
58.4941292804935
 30
0.0
 10
80.76634837435448
 20
65.64895724094117
 30
0.0
 10
81.91183630148825
 20
73.03595341212049
 30
0.0
 10
82.54076855125716
 20
80.44302769571892
 30
0.0
 10
82.56420743280805
 20
87.69527702904169
 30
0.0
 10
81.91448917092862
 20
94.68099631915285
 30
0.0
 10
80.56015266267256
 20
101.3579374980654
 30
0.0
 10
78.50920448530988
 20
107.7432586677451
 30
0.0
 10
75.80428694692922
 20
113.894436471031
 30
0.0
 10
72.50924802726013
 20
119.8845488962208
 30
0.0
 10
68.69469389681467
 20
125.7703637501218
 30
0.0
 10
64.42431549447794
 20
131.5620314870083
 30
0.0
 10
59.75263898851789
 20
137.2142728966641
 30
0.0
 10
54.72907437477663
 20
142.6410365484623
 30
0.0
 10
49.39588171671333
 20
147.7347224813864
 30
0.0
 10
43.78586593357342
 20
152.3849477338871
 30
0.0
 10
37.9207749681218
 20
156.4958144158293
 30
0.0
 10
31.81452943695797
 20
160.0032838334504
 30
0.0
 10
25.4777394401111
 20
162.8875660101248
 30
0.0
 10
18.91754255494002
 20
165.1681600678711
 30
0.0
 10
12.14024966014125
 20
166.8916882462993
 30
0.0
 10
5.155707286053706
 20
168.1166047526141
 30
0.0
 10
-2.016379437882656
 20
168.8975894140502
 30
0.0
 10
-9.340834781969015
 20
169.2701370902047
 30
0.0
 10
-16.76472513511725
 20
169.2433668271078
 30
0.0
 10
-24.22040349517651
 20
168.8077422362904
 30
0.0
 10
-31.63283416946118
 20
167.9432200794571
 30
0.0
 10
-38.92724304600213
 20
166.6272221661876
 30
0.0
 10
-46.03644610418735
 20
164.8426125690194
 30
0.0
 10
-52.90771568596685
 20
162.5865308956859
 30
0.0
 10
-59.50894947774788
 20
159.8786601246838
 30
0.0
 10
-65.82901244776261
 20
156.756459147164
 30
0.0
 10
-71.87294270143164
 20
153.2667466099902
 30
0.0
 10
-77.6558512228063
 20
149.4581092060744
 30
0.0
 10
-83.19647925930674
 20
145.3735151653163
 30
0.0
 10
-88.51057395137859
 20
141.0431474638332
 30
0.0
 10
-93.60446271231565
 20
136.4788562854793
 30
0.0
 10
-98.47504400322124
 20
131.6774658119498
 30
0.0
 10
-103.1119404224311
 20
126.6263442855155
 30
0.0
 10
-107.4992357431831
 20
121.3086639525597
 30
0.0
 10
-111.6173073531439
 20
115.7087896196574
 30
0.0
 10
-115.444918846796
 20
109.817407383566
 30
0.0
 10
-118.9614263746979
 20
103.6352670815965
 30
0.0
 10
-122.1474665278838
 20
97.1744508032088
 30
0.0
 10
-124.9857400346847
 20
90.45886697027228
 30
0.0
 10
-127.4620028735859
 20
83.52461270508748
 30
0.0
 10
-129.566031571312
 20
76.42033682380963
 30
0.0
 10
-131.2926986507185
 20
69.20729472988081
 30
0.0
 10
-132.6431645724967
 20
61.95748009156875
 30
0.0
 10
-133.6233809946563
 20
54.74841134003087
 30
0.0
 10
-134.242063413797
 20
47.65569373409993
 30
0.0
 10
-134.5091256672921
 20
40.74473418971447
 30
0.0
 10
-134.433979091964
 20
34.06236701901275
 30
0.0
 10
-134.0237526346237
 20
27.62927272565776
 30
0.0
 10
-133.2824287920567
 20
21.43686861468782
 30
0.0
 10
-132.212960646362
 20
15.45087632808611
 30
0.0
 10
-130.8197188777503
 20
9.620837593998097
 30
0.0
 10
-129.1102036796793
 20
3.8924034153423
 30
0.0
 10
-127.0960887317695
 20
-1.780166538579914
 30
0.0
 10
-124.7926345583429
 20
-7.423555750715693
 30
0.0
 10
-122.2168068424543
 20
-13.04025991175071
 30
0.0
 10
-119.3858087497408
 20
-18.61027951064581
 30
0.0
 10
-116.3146724920765
 20
-24.09667039947946
 30
0.0
 10
-113.0135231470547
 20
-29.45166797474617
 30
0.0
 10
-109.4847945306881
 20
-34.62212559196554
 30
0.0
 10
-105.7229144914556
 20
-39.55383000612677
 30
0.0
 10
-101.7202831971353
 20
-44.19698780548688
 30
0.0
 10
-97.4748856826053
 20
-48.51109054013154
 30
0.0
 10
-92.99806726065779
 20
-52.46981916178794
 30
0.0
 10
-88.32159824738017
 20
-56.06685968365868
 30
0.0
 10
-83.50039969930496
 20
-59.32290370000096
 30
0.0
 10
-78.5998644921991
 20
-62.27786491910167
 30
0.0
 10
-73.67900039100255
 20
-64.97664661899414
 30
0.0
 10
-68.77448550443839
 20
-67.45721604145014
 30
0.0
 10
-63.88507754669735
 20
-69.73751332036014
 30
0.0
 10
-58.96467282823329
 20
-71.80092456399747
 30
0.0
 10
-53.9416025605391
 20
-73.60681617445661
 30
0.0
 10
-48.75183410387097
 20
-75.10844838892548
 30
0.0
 10
-43.37219244574661
 20
-76.26862172208192
 30
0.0
 10
-37.84213116832082
 20
-77.07660924401299
 30
0.0
 10
-32.2595252618093
 20
-77.54966967068478
 30
0.0
 10
-26.75388427905745
 20
-77.7156869185124
 30
0.0
 10
-21.44650345910825
 20
-77.60278787081143
 30
0.0
 10
-16.40826430526793
 20
-77.22857086669401
 30
0.0
 10
-11.63534480739896
 20
-76.58978286531865
 30
0.0
 10
-7.05730182906816
 20
-75.67046328912558
 30
0.0
 10
-2.573841447209844
 20
-74.46094957759139
 30
0.0
 10
1.894307492193903
 20
-72.97042922871987
 30
0.0
 10
6.365291258994178
 20
-71.22714837694929
 30
0.0
 10
10.78662370731124
 20
-69.26841951653779
 30
0.0
 10
15.0645566892615
 20
-67.12963118002406
 30
0.0
 10
19.11325752563531
 20
-64.82637131317085
 30
0.0
 10
22.89251818295177
 20
-62.3419216973646
 30
0.0
 10
26.41966795926009
 20
-59.63877883227693
 30
0.0
 10
29.75057158247957
 20
-56.68311467048694
 30
0.0
 10
32.93723840880565
 20
-53.47048768545677
 30
0.0
 10
35.98617189563632
 20
-50.03667450020768
 30
0.0
 10
38.84543495454993
 20
-46.4507197576005
 30
0.0
 10
41.43416016227228
 20
-42.79386411713438
 30
0.0
 10
43.68479292818648
 20
-39.12306929782275
 30
0.0
 10
45.5801081225636
 20
-35.45257154996107
 30
0.0
 10
47.16666606323129
 20
-31.75895578733458
 30
0.0
 10
48.52159446646066
 20
-28.00015791842921
 30
0.0
 10
49.69780074429591
 20
-24.14551697819242
 30
0.0
 10
50.68142257648321
 20
-20.19267064378139
 30
0.0
 10
51.41238365474052
 20
-16.17168275601328
 30
0.0
 10
51.8231428265935
 20
-12.12878608112672
 30
0.0
 10
51.88324442608884
 20
-8.108961738741606
 30
0.0
 10
51.61453635968656
 20
-4.140232564746563
 30
0.0
 10
51.24230690030627
 20
-1.52761926951924
 30
0.0
 10
51.01224161763352
 20
-0.2341800186216014
 30
0.0
  0
LINE
  5
10050
330
1F
100
AcDbEntity
  8
0
100
AcDbLine
 10
-4.751299
 20
3.664036
 30
0.0
 11
48.546175
 21
9.382506
 31
0.0
  0
ENDSEC
  0
SECTION
  2
OBJECTS
  0
DICTIONARY
  5
C
330
0
100
AcDbDictionary
281
     1
  3
ACAD_DETAILVIEWSTYLE
350
1005E
  3
ACAD_GROUP
350
D
  3
ACAD_IMAGE_DICT
350
10052
  3
ACAD_LAYOUT
350
10025
  3
ACAD_MATERIAL
350
10028
  3
ACAD_MLEADERSTYLE
350
1005C
  3
ACAD_MLINESTYLE
350
17
  3
ACAD_PLOTSETTINGS
350
10051
  3
ACAD_SCALELIST
350
10003
  3
ACAD_SECTIONVIEWSTYLE
350
1005F
  3
ACAD_TABLESTYLE
350
1004B
  3
ACAD_VISUALSTYLE
350
1002C
  3
ACDB_RECOMPOSE_DATA
350
1005B
  3
AcDbVariableDictionary
350
10057
  3
HOST_DOC_SETTINGS
350
1004D
  3
MCS_STREAM_DICT
350
10047
  0
SUN
  5
1004A
330
10001
100
AcDbSun
 90
        1
290
     0
 63
     7
421
 16777215
 40
1.0
291
     1
 91
  2455826
 92
 54000000
292
     0
 70
     2
 71
   256
280
     1
  0
DICTIONARY
  5
1005E
102
{ACAD_REACTORS
330
C
102
}
330
C
100
AcDbDictionary
281
     1
  0
DICTIONARY
  5
D
330
C
100
AcDbDictionary
281
     1
  0
DICTIONARY
  5
10052
102
{ACAD_REACTORS
330
C
102
}
330
C
100
AcDbDictionary
281
     1
  0
DICTIONARY
  5
10025
102
{ACAD_REACTORS
330
C
102
}
330
C
100
AcDbDictionary
281
     1
  3
Layout1
350
10027
  3
Model
350
10026
  0
DICTIONARY
  5
10028
102
{ACAD_REACTORS
330
C
102
}
330
C
100
AcDbDictionary
281
     1
  3
ByBlock
350
1002A
  3
ByLayer
350
10029
  3
Global
350
1002B
  0
DICTIONARY
  5
1005C
102
{ACAD_REACTORS
330
C
102
}
330
C
100
AcDbDictionary
281
     1
  0
DICTIONARY
  5
17
330
C
100
AcDbDictionary
281
     1
  3
Standard
350
10002
  0
DICTIONARY
  5
10051
102
{ACAD_REACTORS
330
C
102
}
330
C
100
AcDbDictionary
281
     1
  0
DICTIONARY
  5
10003
102
{ACAD_REACTORS
330
C
102
}
330
C
100
AcDbDictionary
281
     1
  3
A0
350
10004
  3
A1
350
10005
  3
A2
350
10006
  3
A3
350
10007
  3
A4
350
10008
  3
A5
350
10009
  3
A6
350
1000A
  3
A7
350
1000B
  3
A8
350
1000C
  3
A9
350
1000D
  3
B0
350
1000E
  3
B1
350
1000F
  3
B2
350
10010
  3
B3
350
10011
  3
B4
350
10012
  3
B5
350
10013
  3
B6
350
10014
  3
B7
350
10015
  3
B8
350
10016
  3
B9
350
10017
  3
C0
350
10018
  3
C1
350
10019
  3
C2
350
1001A
  3
C3
350
1001B
  3
C4
350
1001C
  3
C5
350
1001D
  3
C6
350
1001E
  3
C7
350
1001F
  3
C8
350
10020
  3
C9
350
10021
  3
D0
350
10022
  3
D1
350
10023
  3
D2
350
10024
  0
DICTIONARY
  5
1005F
102
{ACAD_REACTORS
330
C
102
}
330
C
100
AcDbDictionary
281
     1
  0
DICTIONARY
  5
1004B
102
{ACAD_REACTORS
330
C
102
}
330
C
100
AcDbDictionary
281
     1
  3
Standard
350
1004C
  0
DICTIONARY
  5
1002C
102
{ACAD_REACTORS
330
C
102
}
330
C
100
AcDbDictionary
281
     1
  3
2dWireframe
350
10031
  3
Basic
350
10034
  3
Brighten
350
10038
  3
ColorChange
350
1003C
  3
Conceptual
350
10036
  3
Dim
350
10037
  3
EdgeColorOff
350
1003F
  3
Facepattern
350
1003B
  3
Flat
350
1002D
  3
FlatWithEdges
350
1002E
  3
Gouraud
350
1002F
  3
GouraudWithEdges
350
10030
  3
Hidden
350
10033
  3
JitterOff
350
1003D
  3
Linepattern
350
1003A
  3
OverhangOff
350
1003E
  3
Realistic
350
10035
  3
Shaded
350
10044
  3
Shaded with edges
350
10043
  3
Shades of Gray
350
10040
  3
Sketchy
350
10041
  3
Thicken
350
10039
  3
Wireframe
350
10032
  3
X-Ray
350
10042
  0
XRECORD
  5
1005B
102
{ACAD_REACTORS
330
C
102
}
330
C
100
AcDbXrecord
280
     1
 90
        1
330
1004C
  0
DICTIONARY
  5
10057
102
{ACAD_REACTORS
330
C
102
}
330
C
100
AcDbDictionary
281
     1
  3
CANNOSCALE
350
10058
  3
MSLTSCALE
350
1005D
  0
DICTIONARY
  5
1004D
102
{ACAD_REACTORS
330
C
102
}
330
C
100
AcDbDictionary
281
     1
  3
NCDocParameters
350
1004E
  0
DICTIONARY
  5
10047
102
{ACAD_REACTORS
330
C
102
}
330
C
100
AcDbDictionary
281
     1
  3
MC_VERSION_DATA
350
10055
  3
MCS_DOCUMENT_ID
350
10048
  3
MCS_PARAMS_DATA
350
10053
  0
LAYOUT
  5
10027
102
{ACAD_REACTORS
330
10025
102
}
330
10025
100
AcDbPlotSettings
  1

  2
none_device
  4

  6

 40
0.0
 41
0.0
 42
0.0
 43
0.0
 44
0.0
 45
0.0
 46
0.0
 47
0.0
 48
0.0
 49
0.0
140
0.0
141
0.0
142
1.0
143
1.0
 70
   688
 72
     0
 73
     0
 74
     5
  7

 75
    16
 76
     0
 77
     2
 78
   300
147
1.0
148
0.0
149
0.0
100
AcDbLayout
  1
Layout1
 70
     0
 71
     1
 10
0.0
 20
0.0
 11
12.0
 21
9.0
 12
0.0
 22
0.0
 32
0.0
 14
1.000000E+20
 24
1.000000E+20
 34
1.000000E+20
 15
-1.000000E+20
 25
-1.000000E+20
 35
-1.000000E+20
146
0.0
 13
0.0
 23
0.0
 33
0.0
 16
1.0
 26
0.0
 36
0.0
 17
0.0
 27
1.0
 37
0.0
 76
     0
330
1B
  0
LAYOUT
  5
10026
102
{ACAD_REACTORS
330
10025
102
}
330
10025
100
AcDbPlotSettings
  1

  2
none_device
  4
Letter_(8.50_x_11.00_Inches)
  6

 40
6.35
 41
6.35
 42
6.350005
 43
6.350005
 44
215.9
 45
279.4
 46
0.0
 47
0.0
 48
0.0
 49
0.0
140
0.0
141
0.0
142
1.0
143
2.219595
 70
  1712
 72
     0
 73
     0
 74
     0
  7

 75
     0
 76
     0
 77
     2
 78
   300
147
0.450533
148
-39.408815
149
0.0
100
AcDbLayout
  1
Model
 70
     1
 71
     0
 10
0.0
 20
0.0
 11
12.0
 21
9.0
 12
0.0
 22
0.0
 32
0.0
 14
1.000000E+20
 24
1.000000E+20
 34
1.000000E+20
 15
-1.000000E+20
 25
-1.000000E+20
 35
-1.000000E+20
146
0.0
 13
0.0
 23
0.0
 33
0.0
 16
1.0
 26
0.0
 36
0.0
 17
0.0
 27
1.0
 37
0.0
 76
     0
330
1F
331
10001
  0
MATERIAL
  5
1002A
102
{ACAD_REACTORS
330
10028
102
}
330
10028
100
AcDbMaterial
  1
ByBlock
 72
     1
 94
      127
  0
MATERIAL
  5
10029
102
{ACAD_REACTORS
330
10028
102
}
330
10028
100
AcDbMaterial
  1
ByLayer
 72
     1
 94
      127
  0
MATERIAL
  5
1002B
102
{ACAD_REACTORS
330
10028
102
}
330
10028
100
AcDbMaterial
  1
Global
 72
     1
 94
      127
  0
MLINESTYLE
  5
10002
102
{ACAD_REACTORS
330
17
102
}
330
17
100
AcDbMlineStyle
  2
Standard
 70
     0
  3

 62
   256
 51
90.0
 52
90.0
 71
     2
 49
0.5
 62
   256
  6
BYLAYER
 49
-0.5
 62
   256
  6
BYLAYER
  0
SCALE
  5
10004
102
{ACAD_REACTORS
330
10003
102
}
330
10003
100
AcDbScale
 70
     0
300
1:1
140
1.0
141
1.0
290
     1
  0
SCALE
  5
10005
102
{ACAD_REACTORS
330
10003
102
}
330
10003
100
AcDbScale
 70
     0
300
1:2
140
1.0
141
2.0
290
     0
  0
SCALE
  5
10006
102
{ACAD_REACTORS
330
10003
102
}
330
10003
100
AcDbScale
 70
     0
300
1:4
140
1.0
141
4.0
290
     0
  0
SCALE
  5
10007
102
{ACAD_REACTORS
330
10003
102
}
330
10003
100
AcDbScale
 70
     0
300
1:5
140
1.0
141
5.0
290
     0
  0
SCALE
  5
10008
102
{ACAD_REACTORS
330
10003
102
}
330
10003
100
AcDbScale
 70
     0
300
1:8
140
1.0
141
8.0
290
     0
  0
SCALE
  5
10009
102
{ACAD_REACTORS
330
10003
102
}
330
10003
100
AcDbScale
 70
     0
300
1:10
140
1.0
141
10.0
290
     0
  0
SCALE
  5
1000A
102
{ACAD_REACTORS
330
10003
102
}
330
10003
100
AcDbScale
 70
     0
300
1:16
140
1.0
141
16.0
290
     0
  0
SCALE
  5
1000B
102
{ACAD_REACTORS
330
10003
102
}
330
10003
100
AcDbScale
 70
     0
300
1:20
140
1.0
141
20.0
290
     0
  0
SCALE
  5
1000C
102
{ACAD_REACTORS
330
10003
102
}
330
10003
100
AcDbScale
 70
     0
300
1:30
140
1.0
141
30.0
290
     0
  0
SCALE
  5
1000D
102
{ACAD_REACTORS
330
10003
102
}
330
10003
100
AcDbScale
 70
     0
300
1:40
140
1.0
141
40.0
290
     0
  0
SCALE
  5
1000E
102
{ACAD_REACTORS
330
10003
102
}
330
10003
100
AcDbScale
 70
     0
300
1:50
140
1.0
141
50.0
290
     0
  0
SCALE
  5
1000F
102
{ACAD_REACTORS
330
10003
102
}
330
10003
100
AcDbScale
 70
     0
300
1:100
140
1.0
141
100.0
290
     0
  0
SCALE
  5
10010
102
{ACAD_REACTORS
330
10003
102
}
330
10003
100
AcDbScale
 70
     0
300
2:1
140
2.0
141
1.0
290
     0
  0
SCALE
  5
10011
102
{ACAD_REACTORS
330
10003
102
}
330
10003
100
AcDbScale
 70
     0
300
4:1
140
4.0
141
1.0
290
     0
  0
SCALE
  5
10012
102
{ACAD_REACTORS
330
10003
102
}
330
10003
100
AcDbScale
 70
     0
300
8:1
140
8.0
141
1.0
290
     0
  0
SCALE
  5
10013
102
{ACAD_REACTORS
330
10003
102
}
330
10003
100
AcDbScale
 70
     0
300
10:1
140
10.0
141
1.0
290
     0
  0
SCALE
  5
10014
102
{ACAD_REACTORS
330
10003
102
}
330
10003
100
AcDbScale
 70
     0
300
100:1
140
100.0
141
1.0
290
     0
  0
SCALE
  5
10015
102
{ACAD_REACTORS
330
10003
102
}
330
10003
100
AcDbScale
 70
     0
300
1/128" = 1'-0"
140
0.007812
141
12.0
290
     0
  0
SCALE
  5
10016
102
{ACAD_REACTORS
330
10003
102
}
330
10003
100
AcDbScale
 70
     0
300
1/64" = 1'-0"
140
0.015625
141
12.0
290
     0
  0
SCALE
  5
10017
102
{ACAD_REACTORS
330
10003
102
}
330
10003
100
AcDbScale
 70
     0
300
1/32" = 1'-0"
140
0.03125
141
12.0
290
     0
  0
SCALE
  5
10018
102
{ACAD_REACTORS
330
10003
102
}
330
10003
100
AcDbScale
 70
     0
300
1/16" = 1'-0"
140
0.0625
141
12.0
290
     0
  0
SCALE
  5
10019
102
{ACAD_REACTORS
330
10003
102
}
330
10003
100
AcDbScale
 70
     0
300
3/32" = 1'-0"
140
0.09375
141
12.0
290
     0
  0
SCALE
  5
1001A
102
{ACAD_REACTORS
330
10003
102
}
330
10003
100
AcDbScale
 70
     0
300
1/8" = 1'-0"
140
0.125
141
12.0
290
     0
  0
SCALE
  5
1001B
102
{ACAD_REACTORS
330
10003
102
}
330
10003
100
AcDbScale
 70
     0
300
3/16" = 1'-0"
140
0.1875
141
12.0
290
     0
  0
SCALE
  5
1001C
102
{ACAD_REACTORS
330
10003
102
}
330
10003
100
AcDbScale
 70
     0
300
1/4" = 1'-0"
140
0.25
141
12.0
290
     0
  0
SCALE
  5
1001D
102
{ACAD_REACTORS
330
10003
102
}
330
10003
100
AcDbScale
 70
     0
300
3/8" = 1'-0"
140
0.375
141
12.0
290
     0
  0
SCALE
  5
1001E
102
{ACAD_REACTORS
330
10003
102
}
330
10003
100
AcDbScale
 70
     0
300
1/2" = 1'-0"
140
0.5
141
12.0
290
     0
  0
SCALE
  5
1001F
102
{ACAD_REACTORS
330
10003
102
}
330
10003
100
AcDbScale
 70
     0
300
3/4" = 1'-0"
140
0.75
141
12.0
290
     0
  0
SCALE
  5
10020
102
{ACAD_REACTORS
330
10003
102
}
330
10003
100
AcDbScale
 70
     0
300
1" = 1'-0"
140
1.0
141
12.0
290
     0
  0
SCALE
  5
10021
102
{ACAD_REACTORS
330
10003
102
}
330
10003
100
AcDbScale
 70
     0
300
1-1/2" = 1'-0"
140
1.5
141
12.0
290
     0
  0
SCALE
  5
10022
102
{ACAD_REACTORS
330
10003
102
}
330
10003
100
AcDbScale
 70
     0
300
3" = 1'-0"
140
3.0
141
12.0
290
     0
  0
SCALE
  5
10023
102
{ACAD_REACTORS
330
10003
102
}
330
10003
100
AcDbScale
 70
     0
300
6" = 1'-0"
140
6.0
141
12.0
290
     0
  0
SCALE
  5
10024
102
{ACAD_REACTORS
330
10003
102
}
330
10003
100
AcDbScale
 70
     0
300
1'-0" = 1'-0"
140
12.0
141
12.0
290
     0
  0
TABLESTYLE
  5
1004C
102
{ACAD_REACTORS
330
1004B
102
}
102
{ACAD_XDICTIONARY
360
10059
102
}
330
1004B
100
AcDbTableStyle
  3
Standard
 70
     0
 71
     8
 40
1.5
 41
1.5
280
     0
281
     0
  7
STANDARD
140
4.5
170
     2
 62
     0
 63
   257
283
     0
 90
        4
 91
        0
  1

274
    -2
284
     1
 64
     0
275
    -2
285
     1
 65
     0
276
    -2
286
     1
 66
     0
277
    -2
287
     1
 67
     0
278
    -2
288
     1
 68
     0
279
    -2
289
     1
 69
     0
  7
STANDARD
140
6.0
170
     5
 62
     0
 63
   257
283
     0
 90
        4
 91
        0
  1

274
    -2
284
     1
 64
     0
275
    -2
285
     1
 65
     0
276
    -2
286
     1
 66
     0
277
    -2
287
     1
 67
     0
278
    -2
288
     1
 68
     0
279
    -2
289
     1
 69
     0
  7
STANDARD
140
4.5
170
     5
 62
     0
 63
   257
283
     0
 90
        4
 91
        0
  1

274
    -2
284
     1
 64
     0
275
    -2
285
     1
 65
     0
276
    -2
286
     1
 66
     0
277
    -2
287
     1
 67
     0
278
    -2
288
     1
 68
     0
279
    -2
289
     1
 69
     0
  0
VISUALSTYLE
  5
10031
102
{ACAD_REACTORS
330
1002C
102
}
330
1002C
100
AcDbVisualStyle
  2
2dWireframe
 70
     4
177
     3
291
     0
 70
    58
 90
        0
176
     1
 90
        2
176
     1
 90
        0
176
     1
 90
        0
176
     1
 40
0.6
176
     1
 40
30.0
176
     1
 62
     7
420
 16777215
176
     1
 90
        1
176
     1
 90
        4
176
     1
 62
     7
176
     1
 62
   257
176
     1
 90
        1
176
     1
 90
        1
176
     1
 40
1.0
176
     1
 90
        0
176
     1
 62
   257
176
     1
 40
1.0
176
     1
 90
        1
176
     1
 90
        6
176
     1
 90
        2
176
     1
 62
     7
176
     1
 90
        5
176
     1
 90
        0
176
     1
 90
        0
176
     1
290
     0
176
     1
 90
        1
176
     1
 40
0.0
176
     1
 90
        0
176
     1
290
     1
176
     1
290
     1
176
     1
290
     0
176
     1
290
     0
176
     1
290
     0
176
     1
290
     0
176
     1
290
     0
176
     1
290
     0
176
     1
290
     0
176
     1
 90
       50
176
     1
 40
0.0
176
     1
 40
1.0
176
     1
 90
        0
176
     1
 62
    18
420
        0
176
     1
 90
       50
176
     1
 90
        3
176
     1
 62
     5
420
      255
176
     1
290
     0
176
     1
 90
       50
176
     1
 90
       50
176
     1
 90
       50
176
     1
290
     0
176
     1
 90
       50
176
     1
 62
   256
176
     0
 40
1.0
176
     0
 90
        2
176
     1
  1
strokes_ogs.tif
176
     1
290
     0
176
     1
 40
1.0
176
     1
 40
1.0
176
     1
  0
VISUALSTYLE
  5
10034
102
{ACAD_REACTORS
330
1002C
102
}
330
1002C
100
AcDbVisualStyle
  2
Basic
 70
     7
177
     3
291
     1
 70
    58
 90
        1
176
     1
 90
        0
176
     1
 90
        1
176
     1
 90
        0
176
     1
 40
0.6
176
     1
 40
30.0
176
     1
 62
     7
420
 16777215
176
     1
 90
        0
176
     1
 90
        4
176
     1
 62
     7
176
     1
 62
   257
176
     1
 90
        1
176
     1
 90
        1
176
     1
 40
1.0
176
     1
 90
        8
176
     1
 62
     7
176
     1
 40
1.0
176
     1
 90
        1
176
     1
 90
        6
176
     1
 90
        2
176
     1
 62
     7
176
     1
 90
        5
176
     1
 90
        0
176
     1
 90
        0
176
     1
290
     0
176
     1
 90
        1
176
     1
 40
0.0
176
     1
 90
        0
176
     1
290
     0
176
     1
290
     1
176
     1
290
     1
176
     1
290
     0
176
     1
290
     0
176
     1
290
     0
176
     1
290
     0
176
     1
290
     0
176
     1
290
     0
176
     1
 90
       50
176
     1
 40
0.0
176
     1
 40
1.0
176
     1
 90
        0
176
     1
 62
    18
420
        0
176
     1
 90
       50
176
     1
 90
        3
176
     1
 62
     5
420
      255
176
     1
290
     0
176
     1
 90
       50
176
     1
 90
       50
176
     1
 90
       50
176
     1
290
     0
176
     1
 90
       50
176
     1
 62
   256
176
     0
 40
1.0
176
     0
 90
        2
176
     1
  1
strokes_ogs.tif
176
     1
290
     0
176
     1
 40
1.0
176
     1
 40
1.0
176
     1
  0
VISUALSTYLE
  5
10038
102
{ACAD_REACTORS
330
1002C
102
}
330
1002C
100
AcDbVisualStyle
  2
Brighten
 70
    12
177
     3
291
     1
 70
    58
 90
        2
176
     1
 90
        2
176
     1
 90
        0
176
     1
 90
        0
176
     1
 40
0.6
176
     1
 40
30.0
176
     1
 62
     7
420
 16777215
176
     1
 90
        1
176
     1
 90
        4
176
     1
 62
     7
176
     1
 62
   257
176
     1
 90
        1
176
     1
 90
        1
176
     1
 40
1.0
176
     1
 90
        8
176
     1
 62
     7
176
     1
 40
1.0
176
     1
 90
        1
176
     1
 90
        6
176
     1
 90
        2
176
     1
 62
     7
176
     1
 90
        5
176
     1
 90
        0
176
     1
 90
        0
176
     1
290
     0
176
     1
 90
        1
176
     1
 40
50.0
176
     1
 90
        0
176
     1
290
     0
176
     1
290
     1
176
     1
290
     1
176
     1
290
     0
176
     1
290
     0
176
     1
290
     0
176
     1
290
     0
176
     1
290
     0
176
     1
290
     0
176
     1
 90
       50
176
     1
 40
0.0
176
     1
 40
1.0
176
     1
 90
        0
176
     1
 62
    18
420
        0
176
     1
 90
       50
176
     1
 90
        3
176
     1
 62
     5
420
      255
176
     1
290
     0
176
     1
 90
       50
176
     1
 90
       50
176
     1
 90
       50
176
     1
290
     0
176
     1
 90
       50
176
     1
 62
   256
176
     0
 40
1.0
176
     0
 90
        2
176
     1
  1
strokes_ogs.tif
176
     1
290
     0
176
     1
 40
1.0
176
     1
 40
1.0
176
     1
  0
VISUALSTYLE
  5
1003C
102
{ACAD_REACTORS
330
1002C
102
}
330
1002C
100
AcDbVisualStyle
  2
ColorChange
 70
    16
177
     3
291
     1
 70
    58
 90
        2
176
     1
 90
        2
176
     1
 90
        3
176
     1
 90
        0
176
     1
 40
0.6
176
     1
 40
30.0
176
     1
 62
     8
420
  8421504
176
     1
 90
        1
176
     1
 90
        4
176
     1
 62
     7
176
     1
 62
   257
176
     1
 90
        1
176
     1
 90
        1
176
     1
 40
1.0
176
     1
 90
        8
176
     1
 62
     8
420
  8421504
176
     1
 40
1.0
176
     1
 90
        1
176
     1
 90
        6
176
     1
 90
        2
176
     1
 62
     7
176
     1
 90
        5
176
     1
 90
        0
176
     1
 90
        0
176
     1
290
     0
176
     1
 90
        1
176
     1
 40
0.0
176
     1
 90
        0
176
     1
290
     0
176
     1
290
     1
176
     1
290
     1
176
     1
290
     0
176
     1
290
     0
176
     1
290
     0
176
     1
290
     0
176
     1
290
     0
176
     1
290
     0
176
     1
 90
       50
176
     1
 40
0.0
176
     1
 40
1.0
176
     1
 90
        0
176
     1
 62
    18
420
        0
176
     1
 90
       50
176
     1
 90
        3
176
     1
 62
     5
420
      255
176
     1
290
     0
176
     1
 90
       50
176
     1
 90
       50
176
     1
 90
       50
176
     1
290
     0
176
     1
 90
       50
176
     1
 62
   256
176
     0
 40
1.0
176
     0
 90
        2
176
     1
  1
strokes_ogs.tif
176
     1
290
     0
176
     1
 40
1.0
176
     1
 40
1.0
176
     1
  0
VISUALSTYLE
  5
10036
102
{ACAD_REACTORS
330
1002C
102
}
330
1002C
100
AcDbVisualStyle
  2
Conceptual
 70
     9
177
     3
291
     0
 70
    58
 90
        3
176
     1
 90
        2
176
     1
 90
        0
176
     1
 90
        0
176
     1
 40
0.6
176
     1
 40
30.0
176
     1
 62
     7
420
 16777215
176
     1
 90
        2
176
     1
 90
        2
176
     1
 62
     7
176
     1
 62
   257
176
     1
 90
        1
176
     1
 90
        1
176
     1
 40
179.0
176
     1
 90
        8
176
     1
 62
     7
176
     1
 40
1.0
176
     1
 90
        1
176
     1
 90
        6
176
     1
 90
        2
176
     1
 62
     7
176
     1
 90
        3
176
     1
 90
        0
176
     1
 90
        0
176
     1
290
     0
176
     1
 90
        1
176
     1
 40
0.0
176
     1
 90
        0
176
     1
290
     0
176
     1
290
     1
176
     1
290
     1
176
     1
290
     0
176
     1
290
     0
176
     1
290
     0
176
     1
290
     0
176
     1
290
     0
176
     1
290
     0
176
     1
 90
       50
176
     1
 40
0.0
176
     1
 40
1.0
176
     1
 90
        0
176
     1
 62
    18
420
        0
176
     1
 90
       50
176
     1
 90
        3
176
     1
 62
     5
420
      255
176
     1
290
     0
176
     1
 90
       50
176
     1
 90
       50
176
     1
 90
       50
176
     1
290
     0
176
     1
 90
       50
176
     1
 62
   256
176
     0
 40
1.0
176
     0
 90
        2
176
     1
  1
strokes_ogs.tif
176
     1
290
     0
176
     1
 40
1.0
176
     1
 40
1.0
176
     1
  0
VISUALSTYLE
  5
10037
102
{ACAD_REACTORS
330
1002C
102
}
330
1002C
100
AcDbVisualStyle
  2
Dim
 70
    11
177
     3
291
     1
 70
    58
 90
        2
176
     1
 90
        2
176
     1
 90
        0
176
     1
 90
        0
176
     1
 40
0.6
176
     1
 40
30.0
176
     1
 62
     7
420
 16777215
176
     1
 90
        1
176
     1
 90
        4
176
     1
 62
     7
176
     1
 62
   257
176
     1
 90
        1
176
     1
 90
        1
176
     1
 40
1.0
176
     1
 90
        8
176
     1
 62
     7
176
     1
 40
1.0
176
     1
 90
        1
176
     1
 90
        6
176
     1
 90
        2
176
     1
 62
     7
176
     1
 90
        5
176
     1
 90
        0
176
     1
 90
        0
176
     1
290
     0
176
     1
 90
        1
176
     1
 40
-50.0
176
     1
 90
        0
176
     1
290
     0
176
     1
290
     1
176
     1
290
     1
176
     1
290
     0
176
     1
290
     0
176
     1
290
     0
176
     1
290
     0
176
     1
290
     0
176
     1
290
     0
176
     1
 90
       50
176
     1
 40
0.0
176
     1
 40
1.0
176
     1
 90
        0
176
     1
 62
    18
420
        0
176
     1
 90
       50
176
     1
 90
        3
176
     1
 62
     5
420
      255
176
     1
290
     0
176
     1
 90
       50
176
     1
 90
       50
176
     1
 90
       50
176
     1
290
     0
176
     1
 90
       50
176
     1
 62
   256
176
     0
 40
1.0
176
     0
 90
        2
176
     1
  1
strokes_ogs.tif
176
     1
290
     0
176
     1
 40
1.0
176
     1
 40
1.0
176
     1
  0
VISUALSTYLE
  5
1003F
102
{ACAD_REACTORS
330
1002C
102
}
330
1002C
100
AcDbVisualStyle
  2
EdgeColorOff
 70
    22
177
     3
291
     1
 70
    58
 90
        2
176
     0
 90
        2
176
     0
 90
        0
176
     0
 90
        0
176
     0
 40
0.6
176
     0
 40
30.0
176
     0
 62
     7
420
 16777215
176
     0
 90
        1
176
     0
 90
        4
176
     0
 62
     7
176
     0
 62
   257
176
     0
 90
        1
176
     0
 90
        1
176
     0
 40
1.0
176
     0
 90
        8
176
     2
 62
     7
176
     0
 40
1.0
176
     0
 90
        1
176
     0
 90
        6
176
     0
 90
        2
176
     0
 62
     7
176
     0
 90
        5
176
     0
 90
        0
176
     0
 90
        0
176
     0
290
     0
176
     0
 90
        1
176
     0
 40
0.0
176
     0
 90
        0
176
     0
290
     0
176
     0
290
     1
176
     0
290
     1
176
     0
290
     0
176
     0
290
     0
176
     0
290
     0
176
     0
290
     0
176
     0
290
     0
176
     0
290
     0
176
     0
 90
       50
176
     0
 40
0.0
176
     0
 40
1.0
176
     0
 90
        0
176
     0
 62
    18
420
        0
176
     0
 90
       50
176
     0
 90
        3
176
     0
 62
     5
420
      255
176
     0
290
     0
176
     0
 90
       50
176
     0
 90
       50
176
     0
 90
       50
176
     0
290
     0
176
     0
 90
       50
176
     0
 62
   256
176
     0
 40
1.0
176
     0
 90
        2
176
     0
  1
strokes_ogs.tif
176
     0
290
     0
176
     0
 40
1.0
176
     0
 40
1.0
176
     0
  0
VISUALSTYLE
  5
1003B
102
{ACAD_REACTORS
330
1002C
102
}
330
1002C
100
AcDbVisualStyle
  2
Facepattern
 70
    15
177
     3
291
     1
 70
    58
 90
        2
176
     1
 90
        2
176
     1
 90
        0
176
     1
 90
        0
176
     1
 40
0.6
176
     1
 40
30.0
176
     1
 62
     7
420
 16777215
176
     1
 90
        1
176
     1
 90
        4
176
     1
 62
     7
176
     1
 62
   257
176
     1
 90
        1
176
     1
 90
        1
176
     1
 40
1.0
176
     1
 90
        8
176
     1
 62
     7
176
     1
 40
1.0
176
     1
 90
        1
176
     1
 90
        6
176
     1
 90
        2
176
     1
 62
     7
176
     1
 90
        5
176
     1
 90
        0
176
     1
 90
        0
176
     1
290
     0
176
     1
 90
        1
176
     1
 40
0.0
176
     1
 90
        0
176
     1
290
     0
176
     1
290
     1
176
     1
290
     1
176
     1
290
     0
176
     1
290
     0
176
     1
290
     0
176
     1
290
     0
176
     1
290
     0
176
     1
290
     0
176
     1
 90
       50
176
     1
 40
0.0
176
     1
 40
1.0
176
     1
 90
        0
176
     1
 62
    18
420
        0
176
     1
 90
       50
176
     1
 90
        3
176
     1
 62
     5
420
      255
176
     1
290
     0
176
     1
 90
       50
176
     1
 90
       50
176
     1
 90
       50
176
     1
290
     0
176
     1
 90
       50
176
     1
 62
   256
176
     0
 40
1.0
176
     0
 90
        2
176
     1
  1
strokes_ogs.tif
176
     1
290
     0
176
     1
 40
1.0
176
     1
 40
1.0
176
     1
  0
VISUALSTYLE
  5
1002D
102
{ACAD_REACTORS
330
1002C
102
}
330
1002C
100
AcDbVisualStyle
  2
Flat
 70
     0
177
     3
291
     1
 70
    58
 90
        2
176
     1
 90
        1
176
     1
 90
        1
176
     1
 90
        2
176
     1
 40
0.6
176
     1
 40
30.0
176
     1
 62
     7
420
 16777215
176
     1
 90
        0
176
     1
 90
        0
176
     1
 62
     7
176
     1
 62
   257
176
     1
 90
        1
176
     1
 90
        1
176
     1
 40
1.0
176
     1
 90
        8
176
     1
 62
     7
176
     1
 40
1.0
176
     1
 90
        1
176
     1
 90
        6
176
     1
 90
        2
176
     1
 62
     7
176
     1
 90
        5
176
     1
 90
        0
176
     1
 90
        0
176
     1
290
     0
176
     1
 90
       13
176
     1
 40
0.0
176
     1
 90
        0
176
     1
290
     0
176
     1
290
     1
176
     1
290
     1
176
     1
290
     0
176
     1
290
     0
176
     1
290
     0
176
     1
290
     0
176
     1
290
     0
176
     1
290
     0
176
     1
 90
       50
176
     1
 40
0.0
176
     1
 40
1.0
176
     1
 90
        0
176
     1
 62
    18
420
        0
176
     1
 90
       50
176
     1
 90
        3
176
     1
 62
     5
420
      255
176
     1
290
     0
176
     1
 90
       50
176
     1
 90
       50
176
     1
 90
       50
176
     1
290
     0
176
     1
 90
       50
176
     1
 62
   256
176
     0
 40
1.0
176
     0
 90
        2
176
     1
  1
strokes_ogs.tif
176
     1
290
     0
176
     1
 40
1.0
176
     1
 40
1.0
176
     1
  0
VISUALSTYLE
  5
1002E
102
{ACAD_REACTORS
330
1002C
102
}
330
1002C
100
AcDbVisualStyle
  2
FlatWithEdges
 70
     1
177
     3
291
     1
 70
    58
 90
        2
176
     1
 90
        1
176
     1
 90
        1
176
     1
 90
        2
176
     1
 40
0.6
176
     1
 40
30.0
176
     1
 62
     7
420
 16777215
176
     1
 90
        1
176
     1
 90
        0
176
     1
 62
     7
176
     1
 62
   257
176
     1
 90
        1
176
     1
 90
        1
176
     1
 40
1.0
176
     1
 90
        0
176
     1
 62
   257
176
     1
 40
1.0
176
     1
 90
        1
176
     1
 90
        6
176
     1
 90
        2
176
     1
 62
     7
176
     1
 90
        5
176
     1
 90
        0
176
     1
 90
        0
176
     1
290
     0
176
     1
 90
       13
176
     1
 40
0.0
176
     1
 90
        0
176
     1
290
     0
176
     1
290
     1
176
     1
290
     1
176
     1
290
     0
176
     1
290
     0
176
     1
290
     0
176
     1
290
     0
176
     1
290
     0
176
     1
290
     0
176
     1
 90
       50
176
     1
 40
0.0
176
     1
 40
1.0
176
     1
 90
        0
176
     1
 62
    18
420
        0
176
     1
 90
       50
176
     1
 90
        3
176
     1
 62
     5
420
      255
176
     1
290
     0
176
     1
 90
       50
176
     1
 90
       50
176
     1
 90
       50
176
     1
290
     0
176
     1
 90
       50
176
     1
 62
   256
176
     0
 40
1.0
176
     0
 90
        2
176
     1
  1
strokes_ogs.tif
176
     1
290
     0
176
     1
 40
1.0
176
     1
 40
1.0
176
     1
  0
VISUALSTYLE
  5
1002F
102
{ACAD_REACTORS
330
1002C
102
}
330
1002C
100
AcDbVisualStyle
  2
Gouraud
 70
     2
177
     3
291
     1
 70
    58
 90
        2
176
     1
 90
        2
176
     1
 90
        1
176
     1
 90
        2
176
     1
 40
0.6
176
     1
 40
30.0
176
     1
 62
     7
420
 16777215
176
     1
 90
        0
176
     1
 90
        0
176
     1
 62
     7
176
     1
 62
   257
176
     1
 90
        1
176
     1
 90
        1
176
     1
 40
1.0
176
     1
 90
        0
176
     1
 62
     7
176
     1
 40
1.0
176
     1
 90
        1
176
     1
 90
        6
176
     1
 90
        2
176
     1
 62
     7
176
     1
 90
        5
176
     1
 90
        0
176
     1
 90
        0
176
     1
290
     0
176
     1
 90
       13
176
     1
 40
0.0
176
     1
 90
        0
176
     1
290
     0
176
     1
290
     1
176
     1
290
     1
176
     1
290
     0
176
     1
290
     0
176
     1
290
     0
176
     1
290
     0
176
     1
290
     0
176
     1
290
     0
176
     1
 90
       50
176
     1
 40
0.0
176
     1
 40
1.0
176
     1
 90
        0
176
     1
 62
    18
420
        0
176
     1
 90
       50
176
     1
 90
        3
176
     1
 62
     5
420
      255
176
     1
290
     0
176
     1
 90
       50
176
     1
 90
       50
176
     1
 90
       50
176
     1
290
     0
176
     1
 90
       50
176
     1
 62
   256
176
     0
 40
1.0
176
     0
 90
        2
176
     1
  1
strokes_ogs.tif
176
     1
290
     0
176
     1
 40
1.0
176
     1
 40
1.0
176
     1
  0
VISUALSTYLE
  5
10030
102
{ACAD_REACTORS
330
1002C
102
}
330
1002C
100
AcDbVisualStyle
  2
GouraudWithEdges
 70
     3
177
     3
291
     1
 70
    58
 90
        2
176
     1
 90
        2
176
     1
 90
        1
176
     1
 90
        2
176
     1
 40
0.6
176
     1
 40
30.0
176
     1
 62
     7
420
 16777215
176
     1
 90
        1
176
     1
 90
        0
176
     1
 62
     7
176
     1
 62
   257
176
     1
 90
        1
176
     1
 90
        1
176
     1
 40
1.0
176
     1
 90
        0
176
     1
 62
   257
176
     1
 40
1.0
176
     1
 90
        1
176
     1
 90
        6
176
     1
 90
        2
176
     1
 62
     7
176
     1
 90
        5
176
     1
 90
        0
176
     1
 90
        0
176
     1
290
     0
176
     1
 90
       13
176
     1
 40
0.0
176
     1
 90
        0
176
     1
290
     0
176
     1
290
     1
176
     1
290
     1
176
     1
290
     0
176
     1
290
     0
176
     1
290
     0
176
     1
290
     0
176
     1
290
     0
176
     1
290
     0
176
     1
 90
       50
176
     1
 40
0.0
176
     1
 40
1.0
176
     1
 90
        0
176
     1
 62
    18
420
        0
176
     1
 90
       50
176
     1
 90
        3
176
     1
 62
     5
420
      255
176
     1
290
     0
176
     1
 90
       50
176
     1
 90
       50
176
     1
 90
       50
176
     1
290
     0
176
     1
 90
       50
176
     1
 62
   256
176
     0
 40
1.0
176
     0
 90
        2
176
     1
  1
strokes_ogs.tif
176
     1
290
     0
176
     1
 40
1.0
176
     1
 40
1.0
176
     1
  0
VISUALSTYLE
  5
10033
102
{ACAD_REACTORS
330
1002C
102
}
330
1002C
100
AcDbVisualStyle
  2
Hidden
 70
     6
177
     3
291
     0
 70
    58
 90
        1
176
     1
 90
        2
176
     1
 90
        2
176
     1
 90
        0
176
     1
 40
0.6
176
     1
 40
30.0
176
     1
 62
     7
420
 16777215
176
     1
 90
        2
176
     1
 90
        2
176
     1
 62
     7
176
     1
 62
   257
176
     1
 90
        2
176
     1
 90
        1
176
     1
 40
40.0
176
     1
 90
        0
176
     1
 62
   257
176
     1
 40
1.0
176
     1
 90
        1
176
     1
 90
        6
176
     1
 90
        2
176
     1
 62
     7
176
     1
 90
        3
176
     1
 90
        0
176
     1
 90
        0
176
     1
290
     0
176
     1
 90
        1
176
     1
 40
0.0
176
     1
 90
        0
176
     1
290
     0
176
     1
290
     1
176
     1
290
     1
176
     1
290
     0
176
     1
290
     0
176
     1
290
     0
176
     1
290
     0
176
     1
290
     0
176
     1
290
     0
176
     1
 90
       50
176
     1
 40
0.0
176
     1
 40
1.0
176
     1
 90
        0
176
     1
 62
    18
420
        0
176
     1
 90
       50
176
     1
 90
        3
176
     1
 62
     5
420
      255
176
     1
290
     0
176
     1
 90
       50
176
     1
 90
       50
176
     1
 90
       50
176
     1
290
     0
176
     1
 90
       50
176
     1
 62
   256
176
     0
 40
1.0
176
     0
 90
        2
176
     1
  1
strokes_ogs.tif
176
     1
290
     0
176
     1
 40
1.0
176
     1
 40
1.0
176
     1
  0
VISUALSTYLE
  5
1003D
102
{ACAD_REACTORS
330
1002C
102
}
330
1002C
100
AcDbVisualStyle
  2
JitterOff
 70
    20
177
     3
291
     1
 70
    58
 90
        2
176
     0
 90
        2
176
     0
 90
        0
176
     0
 90
        0
176
     0
 40
0.6
176
     0
 40
30.0
176
     0
 62
     7
420
 16777215
176
     0
 90
        1
176
     0
 90
        4
176
     0
 62
     7
176
     0
 62
   257
176
     0
 90
        1
176
     0
 90
        1
176
     0
 40
1.0
176
     0
 90
       10
176
     2
 62
     7
176
     0
 40
1.0
176
     0
 90
        1
176
     0
 90
        6
176
     0
 90
        2
176
     0
 62
     7
176
     0
 90
        5
176
     0
 90
        0
176
     0
 90
        0
176
     0
290
     0
176
     0
 90
        1
176
     0
 40
0.0
176
     0
 90
        0
176
     0
290
     0
176
     0
290
     1
176
     0
290
     1
176
     0
290
     0
176
     0
290
     0
176
     0
290
     0
176
     0
290
     0
176
     0
290
     0
176
     0
290
     0
176
     0
 90
       50
176
     0
 40
0.0
176
     0
 40
1.0
176
     0
 90
        0
176
     0
 62
    18
420
        0
176
     0
 90
       50
176
     0
 90
        3
176
     0
 62
     5
420
      255
176
     0
290
     0
176
     0
 90
       50
176
     0
 90
       50
176
     0
 90
       50
176
     0
290
     0
176
     0
 90
       50
176
     0
 62
   256
176
     0
 40
1.0
176
     0
 90
        2
176
     0
  1
strokes_ogs.tif
176
     0
290
     0
176
     0
 40
1.0
176
     0
 40
1.0
176
     0
  0
VISUALSTYLE
  5
1003A
102
{ACAD_REACTORS
330
1002C
102
}
330
1002C
100
AcDbVisualStyle
  2
Linepattern
 70
    14
177
     3
291
     1
 70
    58
 90
        2
176
     1
 90
        2
176
     1
 90
        0
176
     1
 90
        0
176
     1
 40
0.6
176
     1
 40
30.0
176
     1
 62
     7
420
 16777215
176
     1
 90
        1
176
     1
 90
        4
176
     1
 62
     7
176
     1
 62
   257
176
     1
 90
        7
176
     1
 90
        7
176
     1
 40
1.0
176
     1
 90
        8
176
     1
 62
     7
176
     1
 40
1.0
176
     1
 90
        1
176
     1
 90
        6
176
     1
 90
        2
176
     1
 62
     7
176
     1
 90
        5
176
     1
 90
        0
176
     1
 90
        0
176
     1
290
     0
176
     1
 90
        1
176
     1
 40
0.0
176
     1
 90
        0
176
     1
290
     0
176
     1
290
     1
176
     1
290
     1
176
     1
290
     0
176
     1
290
     0
176
     1
290
     0
176
     1
290
     0
176
     1
290
     0
176
     1
290
     0
176
     1
 90
       50
176
     1
 40
0.0
176
     1
 40
1.0
176
     1
 90
        0
176
     1
 62
    18
420
        0
176
     1
 90
       50
176
     1
 90
        3
176
     1
 62
     5
420
      255
176
     1
290
     0
176
     1
 90
       50
176
     1
 90
       50
176
     1
 90
       50
176
     1
290
     0
176
     1
 90
       50
176
     1
 62
   256
176
     0
 40
1.0
176
     0
 90
        2
176
     1
  1
strokes_ogs.tif
176
     1
290
     0
176
     1
 40
1.0
176
     1
 40
1.0
176
     1
  0
VISUALSTYLE
  5
1003E
102
{ACAD_REACTORS
330
1002C
102
}
330
1002C
100
AcDbVisualStyle
  2
OverhangOff
 70
    21
177
     3
291
     1
 70
    58
 90
        2
176
     0
 90
        2
176
     0
 90
        0
176
     0
 90
        0
176
     0
 40
0.6
176
     0
 40
30.0
176
     0
 62
     7
420
 16777215
176
     0
 90
        1
176
     0
 90
        4
176
     0
 62
     7
176
     0
 62
   257
176
     0
 90
        1
176
     0
 90
        1
176
     0
 40
1.0
176
     0
 90
        9
176
     2
 62
     7
176
     0
 40
1.0
176
     0
 90
        1
176
     0
 90
        6
176
     0
 90
        2
176
     0
 62
     7
176
     0
 90
        5
176
     0
 90
        0
176
     0
 90
        0
176
     0
290
     0
176
     0
 90
        1
176
     0
 40
0.0
176
     0
 90
        0
176
     0
290
     0
176
     0
290
     1
176
     0
290
     1
176
     0
290
     0
176
     0
290
     0
176
     0
290
     0
176
     0
290
     0
176
     0
290
     0
176
     0
290
     0
176
     0
 90
       50
176
     0
 40
0.0
176
     0
 40
1.0
176
     0
 90
        0
176
     0
 62
    18
420
        0
176
     0
 90
       50
176
     0
 90
        3
176
     0
 62
     5
420
      255
176
     0
290
     0
176
     0
 90
       50
176
     0
 90
       50
176
     0
 90
       50
176
     0
290
     0
176
     0
 90
       50
176
     0
 62
   256
176
     0
 40
1.0
176
     0
 90
        2
176
     0
  1
strokes_ogs.tif
176
     0
290
     0
176
     0
 40
1.0
176
     0
 40
1.0
176
     0
  0
VISUALSTYLE
  5
10035
102
{ACAD_REACTORS
330
1002C
102
}
330
1002C
100
AcDbVisualStyle
  2
Realistic
 70
     8
177
     3
291
     0
 70
    58
 90
        2
176
     1
 90
        3
176
     1
 90
        0
176
     1
 90
        2
176
     1
 40
0.6
176
     1
 40
30.0
176
     1
 62
     7
420
 16777215
176
     1
 90
        0
176
     1
 90
        0
176
     1
 62
     7
176
     1
 62
   257
176
     1
 90
        1
176
     1
 90
        1
176
     1
 40
1.0
176
     1
 90
        8
176
     1
 62
   257
176
     1
 40
1.0
176
     1
 90
        1
176
     1
 90
        6
176
     1
 90
        2
176
     1
 62
     7
176
     1
 90
        3
176
     1
 90
        0
176
     1
 90
        0
176
     1
290
     0
176
     1
 90
       13
176
     1
 40
0.0
176
     1
 90
        0
176
     1
290
     0
176
     1
290
     1
176
     1
290
     1
176
     1
290
     0
176
     1
290
     0
176
     1
290
     0
176
     1
290
     0
176
     1
290
     0
176
     1
290
     0
176
     1
 90
       50
176
     1
 40
0.0
176
     1
 40
1.0
176
     1
 90
        0
176
     1
 62
    18
420
        0
176
     1
 90
       50
176
     1
 90
        3
176
     1
 62
     5
420
      255
176
     1
290
     0
176
     1
 90
       50
176
     1
 90
       50
176
     1
 90
       50
176
     1
290
     0
176
     1
 90
       50
176
     1
 62
   256
176
     0
 40
1.0
176
     0
 90
        2
176
     1
  1
strokes_ogs.tif
176
     1
290
     0
176
     1
 40
1.0
176
     1
 40
1.0
176
     1
  0
VISUALSTYLE
  5
10044
102
{ACAD_REACTORS
330
1002C
102
}
330
1002C
100
AcDbVisualStyle
  2
Shaded
 70
    27
177
     3
291
     0
 70
    58
 90
        2
176
     1
 90
        2
176
     1
 90
        1
176
     1
 90
        2
176
     1
 40
0.6
176
     1
 40
30.0
176
     1
 62
     7
420
 16777215
176
     1
 90
        0
176
     1
 90
        4
176
     1
 62
     7
176
     1
 62
   257
176
     1
 90
        1
176
     1
 90
        1
176
     1
 40
1.0
176
     1
 90
        8
176
     1
 62
   257
176
     1
 40
1.0
176
     1
 90
        1
176
     1
 90
        6
176
     1
 90
        2
176
     1
 62
     8
420
  7895160
176
     1
 90
        3
176
     1
 90
        0
176
     1
 90
        0
176
     1
290
     0
176
     1
 90
        5
176
     1
 40
0.0
176
     1
 90
        0
176
     1
290
     0
176
     1
290
     1
176
     1
290
     1
176
     1
290
     0
176
     1
290
     0
176
     1
290
     0
176
     1
290
     0
176
     1
290
     0
176
     1
290
     0
176
     1
 90
       50
176
     1
 40
0.0
176
     1
 40
1.0
176
     1
 90
        0
176
     1
 62
    18
420
        0
176
     1
 90
       50
176
     1
 90
        3
176
     1
 62
     5
420
      255
176
     1
290
     0
176
     1
 90
       50
176
     1
 90
       50
176
     1
 90
       50
176
     1
290
     0
176
     1
 90
       50
176
     1
 62
   256
176
     0
 40
1.0
176
     0
 90
        2
176
     1
  1
strokes_ogs.tif
176
     1
290
     0
176
     1
 40
1.0
176
     1
 40
1.0
176
     1
  0
VISUALSTYLE
  5
10043
102
{ACAD_REACTORS
330
1002C
102
}
330
1002C
100
AcDbVisualStyle
  2
Shaded with edges
 70
    26
177
     3
291
     0
 70
    58
 90
        2
176
     1
 90
        2
176
     1
 90
        1
176
     1
 90
        2
176
     1
 40
0.6
176
     1
 40
30.0
176
     1
 62
     7
420
 16777215
176
     1
 90
        1
176
     1
 90
       10
176
     1
 62
     7
176
     1
 62
   257
176
     1
 90
        2
176
     1
 90
        1
176
     1
 40
1.0
176
     1
 90
        8
176
     1
 62
   257
176
     1
 40
1.0
176
     1
 90
        1
176
     1
 90
        6
176
     1
 90
        2
176
     1
 62
     7
176
     1
 90
        3
176
     1
 90
        0
176
     1
 90
        0
176
     1
290
     0
176
     1
 90
        5
176
     1
 40
0.0
176
     1
 90
        0
176
     1
290
     0
176
     1
290
     1
176
     1
290
     1
176
     1
290
     0
176
     1
290
     0
176
     1
290
     0
176
     1
290
     0
176
     1
290
     0
176
     1
290
     0
176
     1
 90
       50
176
     1
 40
0.0
176
     1
 40
1.0
176
     1
 90
        0
176
     1
 62
    18
420
        0
176
     1
 90
       50
176
     1
 90
        3
176
     1
 62
     5
420
      255
176
     1
290
     0
176
     1
 90
       50
176
     1
 90
       50
176
     1
 90
       50
176
     1
290
     0
176
     1
 90
       50
176
     1
 62
   256
176
     0
 40
1.0
176
     0
 90
        2
176
     1
  1
strokes_ogs.tif
176
     1
290
     0
176
     1
 40
1.0
176
     1
 40
1.0
176
     1
  0
VISUALSTYLE
  5
10040
102
{ACAD_REACTORS
330
1002C
102
}
330
1002C
100
AcDbVisualStyle
  2
Shades of Gray
 70
    23
177
     3
291
     0
 70
    58
 90
        2
176
     1
 90
        2
176
     1
 90
        3
176
     1
 90
        0
176
     1
 40
0.6
176
     1
 40
30.0
176
     1
 62
     7
420
 16777215
176
     1
 90
        2
176
     1
 90
        2
176
     1
 62
     7
176
     1
 62
     7
176
     1
 90
        1
176
     1
 90
        1
176
     1
 40
40.0
176
     1
 90
        8
176
     1
 62
     7
176
     1
 40
1.0
176
     1
 90
        1
176
     1
 90
        6
176
     1
 90
        2
176
     1
 62
     7
176
     1
 90
        3
176
     1
 90
        0
176
     1
 90
        0
176
     1
290
     0
176
     1
 90
        1
176
     1
 40
0.0
176
     1
 90
        0
176
     1
290
     0
176
     1
290
     1
176
     1
290
     1
176
     1
290
     0
176
     1
290
     0
176
     1
290
     0
176
     1
290
     0
176
     1
290
     0
176
     1
290
     0
176
     1
 90
       50
176
     1
 40
0.0
176
     1
 40
1.0
176
     1
 90
        0
176
     1
 62
    18
420
        0
176
     1
 90
       50
176
     1
 90
        3
176
     1
 62
     5
420
      255
176
     1
290
     0
176
     1
 90
       50
176
     1
 90
       50
176
     1
 90
       50
176
     1
290
     0
176
     1
 90
       50
176
     1
 62
   256
176
     0
 40
1.0
176
     0
 90
        2
176
     1
  1
strokes_ogs.tif
176
     1
290
     0
176
     1
 40
1.0
176
     1
 40
1.0
176
     1
  0
VISUALSTYLE
  5
10041
102
{ACAD_REACTORS
330
1002C
102
}
330
1002C
100
AcDbVisualStyle
  2
Sketchy
 70
    24
177
     3
291
     0
 70
    58
 90
        1
176
     1
 90
        2
176
     1
 90
        2
176
     1
 90
        0
176
     1
 40
0.6
176
     1
 40
30.0
176
     1
 62
     7
420
 16777215
176
     1
 90
        2
176
     1
 90
        2
176
     1
 62
     7
176
     1
 62
     7
176
     1
 90
        1
176
     1
 90
        1
176
     1
 40
40.0
176
     1
 90
       11
176
     1
 62
     7
176
     1
 40
1.0
176
     1
 90
        1
176
     1
 90
        6
176
     1
 90
        2
176
     1
 62
     7
176
     1
 90
        6
176
     1
 90
        0
176
     1
 90
        0
176
     1
290
     0
176
     1
 90
        1
176
     1
 40
0.0
176
     1
 90
        0
176
     1
290
     0
176
     1
290
     1
176
     1
290
     1
176
     1
290
     0
176
     1
290
     0
176
     1
290
     0
176
     1
290
     0
176
     1
290
     0
176
     1
290
     0
176
     1
 90
       50
176
     1
 40
0.0
176
     1
 40
1.0
176
     1
 90
        0
176
     1
 62
    18
420
        0
176
     1
 90
       50
176
     1
 90
        3
176
     1
 62
     5
420
      255
176
     1
290
     0
176
     1
 90
       50
176
     1
 90
       50
176
     1
 90
       50
176
     1
290
     0
176
     1
 90
       50
176
     1
 62
   256
176
     0
 40
1.0
176
     0
 90
        2
176
     1
  1
strokes_ogs.tif
176
     1
290
     0
176
     1
 40
1.0
176
     1
 40
1.0
176
     1
  0
VISUALSTYLE
  5
10039
102
{ACAD_REACTORS
330
1002C
102
}
330
1002C
100
AcDbVisualStyle
  2
Thicken
 70
    13
177
     3
291
     1
 70
    58
 90
        2
176
     1
 90
        2
176
     1
 90
        0
176
     1
 90
        0
176
     1
 40
0.6
176
     1
 40
30.0
176
     1
 62
     7
420
 16777215
176
     1
 90
        1
176
     1
 90
        4
176
     1
 62
     7
176
     1
 62
   257
176
     1
 90
        1
176
     1
 90
        1
176
     1
 40
1.0
176
     1
 90
       12
176
     1
 62
     7
176
     1
 40
1.0
176
     1
 90
        1
176
     1
 90
        6
176
     1
 90
        2
176
     1
 62
     7
176
     1
 90
        5
176
     1
 90
        0
176
     1
 90
        0
176
     1
290
     0
176
     1
 90
        1
176
     1
 40
0.0
176
     1
 90
        0
176
     1
290
     0
176
     1
290
     1
176
     1
290
     1
176
     1
290
     0
176
     1
290
     0
176
     1
290
     0
176
     1
290
     0
176
     1
290
     0
176
     1
290
     0
176
     1
 90
       50
176
     1
 40
0.0
176
     1
 40
1.0
176
     1
 90
        0
176
     1
 62
    18
420
        0
176
     1
 90
       50
176
     1
 90
        3
176
     1
 62
     5
420
      255
176
     1
290
     0
176
     1
 90
       50
176
     1
 90
       50
176
     1
 90
       50
176
     1
290
     0
176
     1
 90
       50
176
     1
 62
   256
176
     0
 40
1.0
176
     0
 90
        2
176
     1
  1
strokes_ogs.tif
176
     1
290
     0
176
     1
 40
1.0
176
     1
 40
1.0
176
     1
  0
VISUALSTYLE
  5
10032
102
{ACAD_REACTORS
330
1002C
102
}
330
1002C
100
AcDbVisualStyle
  2
Wireframe
 70
     5
177
     3
291
     0
 70
    58
 90
        0
176
     1
 90
        2
176
     1
 90
        0
176
     1
 90
        0
176
     1
 40
0.6
176
     1
 40
30.0
176
     1
 62
     7
420
 16777215
176
     1
 90
        1
176
     1
 90
        4
176
     1
 62
     7
176
     1
 62
   257
176
     1
 90
        1
176
     1
 90
        1
176
     1
 40
1.0
176
     1
 90
        0
176
     1
 62
   257
176
     1
 40
1.0
176
     1
 90
        1
176
     1
 90
        6
176
     1
 90
        2
176
     1
 62
     7
176
     1
 90
        3
176
     1
 90
        0
176
     1
 90
        0
176
     1
290
     0
176
     1
 90
        1
176
     1
 40
0.0
176
     1
 90
        0
176
     1
290
     0
176
     1
290
     1
176
     1
290
     1
176
     1
290
     0
176
     1
290
     0
176
     1
290
     0
176
     1
290
     0
176
     1
290
     0
176
     1
290
     0
176
     1
 90
       50
176
     1
 40
0.0
176
     1
 40
1.0
176
     1
 90
        0
176
     1
 62
    18
420
        0
176
     1
 90
       50
176
     1
 90
        3
176
     1
 62
     5
420
      255
176
     1
290
     0
176
     1
 90
       50
176
     1
 90
       50
176
     1
 90
       50
176
     1
290
     0
176
     1
 90
       50
176
     1
 62
   256
176
     0
 40
1.0
176
     0
 90
        2
176
     1
  1
strokes_ogs.tif
176
     1
290
     0
176
     1
 40
1.0
176
     1
 40
1.0
176
     1
  0
VISUALSTYLE
  5
10042
102
{ACAD_REACTORS
330
1002C
102
}
330
1002C
100
AcDbVisualStyle
  2
X-Ray
 70
    25
177
     3
291
     0
 70
    58
 90
        2
176
     1
 90
        2
176
     1
 90
        1
176
     1
 90
        1
176
     1
 40
0.5
176
     1
 40
30.0
176
     1
 62
     7
420
 16777215
176
     1
 90
        1
176
     1
 90
        0
176
     1
 62
     7
176
     1
 62
   257
176
     1
 90
        1
176
     1
 90
        1
176
     1
 40
1.0
176
     1
 90
        8
176
     1
 62
     7
176
     1
 40
1.0
176
     1
 90
        1
176
     1
 90
        6
176
     1
 90
        2
176
     1
 62
     7
176
     1
 90
        3
176
     1
 90
        0
176
     1
 90
        0
176
     1
290
     0
176
     1
 90
       13
176
     1
 40
0.0
176
     1
 90
        0
176
     1
290
     0
176
     1
290
     1
176
     1
290
     1
176
     1
290
     0
176
     1
290
     0
176
     1
290
     0
176
     1
290
     0
176
     1
290
     0
176
     1
290
     0
176
     1
 90
       50
176
     1
 40
0.0
176
     1
 40
1.0
176
     1
 90
        0
176
     1
 62
    18
420
        0
176
     1
 90
       50
176
     1
 90
        3
176
     1
 62
     5
420
      255
176
     1
290
     0
176
     1
 90
       50
176
     1
 90
       50
176
     1
 90
       50
176
     1
290
     0
176
     1
 90
       50
176
     1
 62
   256
176
     0
 40
1.0
176
     0
 90
        2
176
     1
  1
strokes_ogs.tif
176
     1
290
     0
176
     1
 40
1.0
176
     1
 40
1.0
176
     1
  0
DICTIONARYVAR
  5
10058
102
{ACAD_REACTORS
330
10057
102
}
330
10057
100
DictionaryVariables
280
     0
  1
1:1
  0
DICTIONARYVAR
  5
1005D
102
{ACAD_REACTORS
330
10057
102
}
330
10057
100
DictionaryVariables
280
     0
  1
0
  0
CSACDOCUMENTOPTIONS
  5
1004E
102
{ACAD_REACTORS
330
1004D
102
}
330
1004D
  0
XRECORD
  5
10055
102
{ACAD_REACTORS
330
10047
102
}
330
10047
100
AcDbXrecord
280
     1
300
MC_VERSION_DATA
 90
       95
310
0600000002000000570000001C000000E404000000000000000000007801936764E5D8CF7A8393818115C460606066E0646662626666706006F214793899F8DE3171E725E6E53B3BBA2878E6951050AF75FEFFFFFF520032DE0F3057000000
  0
XRECORD
  5
10048
102
{ACAD_REACTORS
330
10047
102
}
330
10047
100
AcDbXrecord
280
     1
300
MCS_DOCUMENT_ID
 90
       60
310
0600000002000000150000001C000000E404000000000000000000007801E38DAAEA643D5FB4D667B1DBD4E4B8BBDDC6FF81000067480B8015000000
  0
XRECORD
  5
10053
102
{ACAD_REACTORS
330
10047
102
}
330
10047
100
AcDbXrecord
280
     1
300
MCS_PARAMS_DATA
 90
     3313
310
0600000002000000F64B00001C000000E404000000000000000000007801C55C5B6C5CC519DE9D595FD6B9DF494B53970A1A6F4A58DF92A6426A1A1210527090E23EF0543976A2BA75E25CAC160A6DA92AF5A55255A96AD556551F4A49A0CF15A03EC0438190865E482021147221409310B6900B3826B1FB7F7366CEFC73E6
310
1CAFBDDE3D9B07D8FF3F73CEF7DFE6FB67E6ECBA757EA3143929F767A4FCCE8636299AA49C90529036BB402C105929F279912F89C6DEAF6FD8BC69AB14A46C51EAC2B9898909BA39945F872C1FCD848A834A91A13B1AD51D6D5266E8A9FAF627E9AABE92BD45CA6F03BD81A3CFC24D59D990C96408C7E066656E0232E13A03
310
14B0AB01724443F05CC3F08780DFC8F19B03FC710A073DC8486413411B49060E3311A05C24C45064703B01D7CCE196A818E5C59C9268B967CBD6DED68ED59DC52EEB78BEF08E09F8223D745649346F1DE9DB35D0B777C089FC5FC3C8EB60BF1A286CF47FE3467F17CC59C5CD990B0CD948C1A77FB9F5CA0E4F479188EA541E
310
3C25A2E22BC99C8892456878B2821857F6B05492C2AD881B41409C21325211340605C9C6DC6006EC49AC088A0CCBB25B1159B72248E415019155047D5453031360047082A7405D92B72AB0F03379693EAB50870260AC609E2C6F6510BB3D081DFE4EF5EFECD71494A7B3590EC7F12C5B25CB32539229914732934ECE22AF1D
310
D259AC8B7B7649E437DE7BDFA69EADF76EE95186E95A7ED74C032DBFA66A9BF1CEF341B19B78E45DDED9EF56FE29189043E4814BF734E1FF34659991678231F23A51010DA578E8294D435524988818E84710A7B2643B4F7C134F5CC6936D1E4176D01398C4D0A83AE0A6BDC86B0BB5C3E1E8299D70A5A945AC12322FE697C4
310
9C8DC3BBBE34D2BA77FBEEA1BEFEED79D15C120DF70F0FEE1A093EF60C8FF47F4BCAB3B0ED666EDB17F5733E2B445B5E2C298985C507BB8BEBBA3A3A3774178B1D777FA5B36B9D327BBE1ED84C030BC74C9EDAB5B64D88BC405AEF1E1CD9D73A34B88F70838775AD5DDBD1B9B6BBABBB73A0ABA37F5D7BE0E757F57D1DB80F
310
037BFBB60D6D6F1DDED1DA3B3CB47D6FDF2EF8A0AD5933506CEF2FF6F7ADD9D6B56D5DFF9A60D6A95222FF670B51F8295953F8455019945B7EE9315C7A8AFEC352DE9D4B4A5050256AA6D1B42D5F0C265BEED4473538E9811F770DEFDCDD3732B86D706870E4A1D69DC303E45F6349C807B6EFCB8B8692103DC352AE816545
310
9E9E798813B5E9A692C86DD9B1A355A5424F8E0BF018466AF90D150136590E2905AA568F782650907D5A7180140B84AD0159F8156902B8F63BDA8BE1A72E29AF48322EA98B5F578631B6F5489B26184C63434803DB221A328E6B58DEAED6DB808FEB6DC068BD0DF8A4DE065CABB7018B3045EB390B3EAD7704C6EA6DC07518
310
10B79C17773A0DB6C361F03BDD064B22C8C7303844629E5064B47323116EB9039777E096BB70247238880C6E39831B9F221C81B3E543C57019D4736C30574EE2DD4AD73B12B9771099772B997713E97A974DF4CECD5D9582B938116EC00926492C777A7F676A8F441E4C882C98032C983211AE26DE8974E196022EC7174366
310
F9AE62C95769E105B5C4B012E2E82ED8CD3516C5E34D519CF0D1F6765A8551C6CC0505130A3E8ABEC46EF81CED54DC1DA04AB7BC4DB0CA082453194AB29B82400C2B438BA6322032B88FE093B3E13470C11297490C8EEF78E88158D51A8AD42283A38F61044E78707A57F8BBDFE2DF2167F36975041D1DA7FCF59430C35792
310
05112533A905D5D3CAAB4759DBB4CA160F3E9309466F934A1794E7E1154C402D3088858048DCDF7EA3E7FECD5B7A7B376D5480CBF43A7E5E49CCBE6BEB37D945B2402FC65F52AB73B67E7F3A58AE93F37A04F6B7011D680556EBCCA2819BC8A21C320F385BBDB4EE56E6E32CE2CB18E358AD7676B4C7C096B1674BAF7B1278
310
1E906198B0DF8681EA696AF34D20563061CAB731C0DB01185B8B0DCA46538BD880EB0E2C6FC3120B40E62289BC162112587895C11513E18290E892090EBF46A9321968C513E0BB89A0AE8F2431B88A7DFC9E07A7BD0A8E668E3AF3CDEA083A3A8ECFB770A00AB53712018F2859D8DB3D93C2E4D422CB77A40BB73A5DB807A7
310
0857A5727AC8838BE45965D0D3D5B29CBEEF99145F4E558AC0C3E9C23D922EDC0FD285FBA107E7958EEDE721E98018A3E3AAC64E7F5C166D7ABA81B65C437BB31D766C74A6ED6E1FBC2766B7AFDAD87156F9771BF44A2A724C461AB43EE729AAFB710D63E2111810BBA3ABC9AE6037E09AB9BF3AB40BE8309F8736AB64CAB2
310
BE7E3364E5AC569CA6976081AF5A311628A8EF68C5B3A4609E3E86AC3AA156E3E83562F4B5A292099A878C61EB3B549CF92354989982613F016CE7AD5A4D09AA1F5126387AAD451EE384D9C035A925859E39C1AA865EE9A9B8DA21CEE289167F7CF1D4C4BC7A125EC5AED5D8BB0B5A9D9144D134CFA71BF85A8D44BE568348
310
F6AA55A2F3CAEACF6982FD29118CC249D3CBF852A586F278BA70FBD3853B90085793EDE51E143F0AD06C6B4CB2242BDDBDD1419166C2865E85F9CE1648F3CBF54B2E655D5432557AB8C599EEE6E763403914E55050D879E2BFFA30F366F009F0CB378371CA9B99D05949929DD07465EA8797A3808B6B06B9536E64AF9C844C
310
903AF2F3709D3783A318A078E4F37AEBBCEC2DD1B228B722F785DC2DB9D64C476675A63353CC74E937B1FA39BFA7DB58A6AFC19E49583A4A9B6110A6BA038D3C80418F79D091B18A763C1D8524AA5361F194EC4CC4B23EDBA3192533E95398E41423EB6DCA1C239B4DBF91D13F6D762A6897D7013D496371DC8BECCAA7D45E
310
0C251095ABC98AA38E1B6540CD3DACF829EF15C38D27C2B92DA64A071D13897001094F16523EC1C9E5A99FF465029665AB5B13C49AF8984D174EA40B273D389D33BB29A272F6749622C2719C22AC925104534E7A8CF33714555C6B3CF3BE4BE0AF28994CA9B8353E0F28878DD26D8D2F007FBAAD11BD305CEB4EAB35BE08B8
310
B8D678FEB81BD9134AB6ADF10A644BBEF9C2334A81E4EAA6772450D87DD2AF49C178F020A0EBD3055FF292CC5B8AB3FC4114C86BA708ACDB15F49C43C04EBBE7FCBD0CA8A1CB2AF59CC3897035E1E39713E16AD873FE91085A131FFF19C04DBEDBF8D75406FD3B3A2842E56C8ABE82A171BC3BF89ECB0E0F287926BC7B0450
310
75E4DDA3C09F2EEF56BE2579157071BCBBE7881BD93E255BDE7D04B225A07C61BD5230DE1DBA8C1158736B225E412358525F03747D78F79897E472BCCBAF5BAF2BA0DDE3804E9B765F2F035A65DA3D910857134A7A2311AE52DA8D6E0E9C1341735A873DD47F12A16BE2E99BE9C275792B70532835F1AEDB838B7404B509F7
310
74C449519D9AA19EB28205FF5B08785CE3F9307262735AC933693C270155C7C6730AF8E9359ED3808B6B3CA387DDC6734EC9B6F1C897238DE72006D89713F9C2E58B91C6F3388D608DE70CA0A7DA7866D30F8008DC16BEAA2D26A2AAB848F4108A0CF46D0F54D7A73989E2C56D75B6B8431D2F6EAB64C5CD94644C04869974
310
1626C5B6A280378D1BEE62BCE2C3917700E714386FAA719B1D7E7D464DF7DD444F8317374E8CAA75BEF65E19D0F8F0523EC21D7470DCC60B8CAEF29753FC38EF4760CFDBF99B4673F680D0869F6742513F06849341B61DF57EE3400A02734628D75C0DBC8B68A868B98655ECA330208EA3C6F1B52E3DF1E8849E2433679564
310
431A886148B568E62C4406F75F64308EFD2F9D7039EA6D259B5B2BF91AD8396F72B01004EFC5CD6C88F911E8CCDF849C077E5C64E9488747967101058B73015D99FA9B900B808B63FFB117DCC85E50324556799F2F34BC086EC70CD18A4318C0D9FF2AB6807CDB718046B0A4BE0FE8B4D9FFA207EA504E3D7E65FA014C7226
310
B329B0E8D703AAFEBAA304E869379E693123CD68457958A4FF2F11AE86ECFF6119D078F6E7138AD87FF2370F86D6E1E34789702D76FED2134932CCA824CB8C811832A3160D33426421BD940847AF6F0C11D33DEECB1CFE9B7175D1F926045DE5BD8DBFBDBE9C081764D0049324E6DDB40A8607F34A225C4D16463974B5B836
310
F3B3A32E193EACE499B49986C93A780A6DA631A981D7A6CD34012EAECDFCF23937B23F51B26D337F80CCDBCC36A5C0ECD07DE7E7A7236D663D8D6033A419D0536D33E07F56B8C4CA7C0D48229F9610695A461A0883CE7B494E8DD95B004DF38E8247AB09FE45AC1A52EDAC32A0861DD8DA85D8A76276989D08579353913989
310
700119397510D9BB4CAB9DF096393711B4263ECE4B176E7EBA700B3C389DB3F0B5335AA6A7234288EA142D784A9083AFB414616018456CF64C3293C4CD2F49D3E5A5F0410CEE3E0F2E6A6FEA11580893E29AEE529C2FC11C4DF48D4AA628982DB44A422820F8563073C8F989CF2240392BED74F7768B819FDEDE6E09E0E29A
310
EE0AFA030B3CB273954C91D5916E83CC9BEE074FAB1E6B73B11CFB6CBEB73B4C23589D2D05F4CC9AAE2E4C768646F0614DBB4BD40606BDCC4B726A4DF72640A7DD749797013521AB4ED3C5971C1BF2225712D922FD192CAA82F186C253F467B664EED8B163100EA1787299890C1D4314EEF90B040C236113FD72905624B8F0
310
99FF03A92412CEF64B0000
  0
DICTIONARY
  5
10059
330
1004C
100
AcDbDictionary
280
     1
281
     1
  3
ACAD_ROUNDTRIP_2008_TABLESTYLE_CELLSTYLEMAP
360
1005A
  0
CELLSTYLEMAP
  5
1005A
102
{ACAD_REACTORS
330
10059
102
}
330
10059
100
AcDbCellStyleMap
 90
        3
300
CELLSTYLE
  1
TABLEFORMAT_BEGIN
 90
        5
170
     1
 91
        0
 92
        0
 62
   257
 93
        1
300
CONTENTFORMAT
  1
CONTENTFORMAT_BEGIN
 90
        0
 91
        0
 92
        4
 93
        0
300

 40
0.0
140
1.0
 94
        5
 62
     0
340
11
144
6.0
309
CONTENTFORMAT_END
171
     1
301
MARGIN
  1
CELLMARGIN_BEGIN
 40
1.5
 40
1.5
 40
1.5
 40
1.5
 40
4.5
 40
4.5
309
CELLMARGIN_END
 94
        6
 95
        1
302
GRIDFORMAT
  1
GRIDFORMAT_BEGIN
 90
        0
 91
        1
 62
     0
 92
       -2
340
14
 93
        0
 40
1.125
309
GRIDFORMAT_END
 95
        2
302
GRIDFORMAT
  1
GRIDFORMAT_BEGIN
 90
        0
 91
        1
 62
     0
 92
       -2
340
14
 93
        0
 40
1.125
309
GRIDFORMAT_END
 95
        4
302
GRIDFORMAT
  1
GRIDFORMAT_BEGIN
 90
        0
 91
        1
 62
     0
 92
       -2
340
14
 93
        0
 40
1.125
309
GRIDFORMAT_END
 95
        8
302
GRIDFORMAT
  1
GRIDFORMAT_BEGIN
 90
        0
 91
        1
 62
     0
 92
       -2
340
14
 93
        0
 40
1.125
309
GRIDFORMAT_END
 95
       16
302
GRIDFORMAT
  1
GRIDFORMAT_BEGIN
 90
        0
 91
        1
 62
     0
 92
       -2
340
14
 93
        0
 40
1.125
309
GRIDFORMAT_END
 95
       32
302
GRIDFORMAT
  1
GRIDFORMAT_BEGIN
 90
        0
 91
        1
 62
     0
 92
       -2
340
14
 93
        0
 40
1.125
309
GRIDFORMAT_END
309
TABLEFORMAT_END
  1
CELLSTYLE_BEGIN
 90
        1
 91
        1
300
_TITLE
309
CELLSTYLE_END
300
CELLSTYLE
  1
TABLEFORMAT_BEGIN
 90
        5
170
     1
 91
        0
 92
        0
 62
   257
 93
        1
300
CONTENTFORMAT
  1
CONTENTFORMAT_BEGIN
 90
        0
 91
        0
 92
        4
 93
        0
300

 40
0.0
140
1.0
 94
        5
 62
     0
340
11
144
4.5
309
CONTENTFORMAT_END
171
     1
301
MARGIN
  1
CELLMARGIN_BEGIN
 40
1.5
 40
1.5
 40
1.5
 40
1.5
 40
4.5
 40
4.5
309
CELLMARGIN_END
 94
        6
 95
        1
302
GRIDFORMAT
  1
GRIDFORMAT_BEGIN
 90
        0
 91
        1
 62
     0
 92
       -2
340
14
 93
        0
 40
1.125
309
GRIDFORMAT_END
 95
        2
302
GRIDFORMAT
  1
GRIDFORMAT_BEGIN
 90
        0
 91
        1
 62
     0
 92
       -2
340
14
 93
        0
 40
1.125
309
GRIDFORMAT_END
 95
        4
302
GRIDFORMAT
  1
GRIDFORMAT_BEGIN
 90
        0
 91
        1
 62
     0
 92
       -2
340
14
 93
        0
 40
1.125
309
GRIDFORMAT_END
 95
        8
302
GRIDFORMAT
  1
GRIDFORMAT_BEGIN
 90
        0
 91
        1
 62
     0
 92
       -2
340
14
 93
        0
 40
1.125
309
GRIDFORMAT_END
 95
       16
302
GRIDFORMAT
  1
GRIDFORMAT_BEGIN
 90
        0
 91
        1
 62
     0
 92
       -2
340
14
 93
        0
 40
1.125
309
GRIDFORMAT_END
 95
       32
302
GRIDFORMAT
  1
GRIDFORMAT_BEGIN
 90
        0
 91
        1
 62
     0
 92
       -2
340
14
 93
        0
 40
1.125
309
GRIDFORMAT_END
309
TABLEFORMAT_END
  1
CELLSTYLE_BEGIN
 90
        2
 91
        1
300
_HEADER
309
CELLSTYLE_END
300
CELLSTYLE
  1
TABLEFORMAT_BEGIN
 90
        5
170
     1
 91
        0
 92
        0
 62
   257
 93
        1
300
CONTENTFORMAT
  1
CONTENTFORMAT_BEGIN
 90
        0
 91
        0
 92
        4
 93
        0
300

 40
0.0
140
1.0
 94
        2
 62
     0
340
11
144
4.5
309
CONTENTFORMAT_END
171
     1
301
MARGIN
  1
CELLMARGIN_BEGIN
 40
1.5
 40
1.5
 40
1.5
 40
1.5
 40
4.5
 40
4.5
309
CELLMARGIN_END
 94
        6
 95
        1
302
GRIDFORMAT
  1
GRIDFORMAT_BEGIN
 90
        0
 91
        1
 62
     0
 92
       -2
340
14
 93
        0
 40
1.125
309
GRIDFORMAT_END
 95
        2
302
GRIDFORMAT
  1
GRIDFORMAT_BEGIN
 90
        0
 91
        1
 62
     0
 92
       -2
340
14
 93
        0
 40
1.125
309
GRIDFORMAT_END
 95
        4
302
GRIDFORMAT
  1
GRIDFORMAT_BEGIN
 90
        0
 91
        1
 62
     0
 92
       -2
340
14
 93
        0
 40
1.125
309
GRIDFORMAT_END
 95
        8
302
GRIDFORMAT
  1
GRIDFORMAT_BEGIN
 90
        0
 91
        1
 62
     0
 92
       -2
340
14
 93
        0
 40
1.125
309
GRIDFORMAT_END
 95
       16
302
GRIDFORMAT
  1
GRIDFORMAT_BEGIN
 90
        0
 91
        1
 62
     0
 92
       -2
340
14
 93
        0
 40
1.125
309
GRIDFORMAT_END
 95
       32
302
GRIDFORMAT
  1
GRIDFORMAT_BEGIN
 90
        0
 91
        1
 62
     0
 92
       -2
340
14
 93
        0
 40
1.125
309
GRIDFORMAT_END
309
TABLEFORMAT_END
  1
CELLSTYLE_BEGIN
 90
        3
 91
        2
300
_DATA
309
CELLSTYLE_END
  0
ENDSEC
  0
EOF
