0
SECTION
2
HEADER
9
$INSUNITS
70
4
9
$ACADVER
1
AC1014
9
$HANDSEED
5
FFFF
0
ENDSEC
0
SECTION
2
TABLES
0
TABLE
2
VPORT
5
8
100
AcDbSymbolTable
0
ENDTAB
0
TABLE
2
LTYPE
5
5
100
AcDbSymbolTable
0
LTYPE
5
14
100
AcDbSymbolTableRecord
100
AcDbLinetypeTableRecord
2
BYBLOCK
70
0
0
LTYPE
5
15
100
AcDbSymbolTableRecord
100
AcDbLinetypeTableRecord
2
BYLAYER
70
0
0
ENDTAB
0
TABLE
2
LAYER
5
2
100
AcDbSymbolTable
70
2
0
LAYER
5
50
100
AcDbSymbolTableRecord
100
AcDbLayerTableRecord
2
0
70
0
6
CONTINUOUS
0
ENDTAB
0
TABLE
2
STYLE
5
3
100
AcDbSymbolTable
70
1
0
STYLE
5
11
100
AcDbSymbolTableRecord
100
AcDbTextStyleTableRecord
2
STANDARD
70
0
0
ENDTAB
0
TABLE
2
VIEW
5
6
100
AcDbSymbolTable
70
0
0
ENDTAB
0
TABLE
2
UCS
5
7
100
AcDbSymbolTable
70
0
0
ENDTAB
0
TABLE
2
APPID
5
9
100
AcDbSymbolTable
70
2
0
APPID
5
12
100
AcDbSymbolTableRecord
100
AcDbRegAppTableRecord
2
ACAD
70
0
0
ENDTAB
0
TABLE
2
DIMSTYLE
5
A
100
AcDbSymbolTable
70
1
0
ENDTAB
0
TABLE
2
BLOCK_RECORD
5
1
100
AcDbSymbolTable
70
1
0
BLOCK_RECORD
5
1F
100
AcDbSymbolTableRecord
100
AcDbBlockTableRecord
2
*MODEL_SPACE
0
BLOCK_RECORD
5
1B
100
AcDbSymbolTableRecord
100
AcDbBlockTableRecord
2
*PAPER_SPACE
0
ENDTAB
0
ENDSEC
0
SECTION
2
BLOCKS
0
BLOCK
5
20
100
AcDbEntity
100
AcDbBlockBegin
2
*MODEL_SPACE
0
ENDBLK
5
21
100
AcDbEntity
100
AcDbBlockEnd
0
BLOCK
5
1C
100
AcDbEntity
100
AcDbBlockBegin
2
*PAPER_SPACE
0
ENDBLK
5
1D
100
AcDbEntity
100
AcDbBlockEnd
0
ENDSEC
0
SECTION
2
ENTITIES
0
SPLINE
5
100
100
AcDbEntity
8
0
100
AcDbSpline
70
0
71
3
72
9
73
5
74
0
42
0.000000001
43
0.0000000001
44
0.0000000001
40
0
40
0
40
0
40
0
40
0.13493944444112346
40
0.26026390219143508
40
0.26026390219143508
40
0.26026390219143508
40
0.26026390219143508
10
-91.089241659471313
20
-21.812703603292988
30
0
10
-90.880946867629717
20
-22.222409533411536
30
0
10
-90.479199138821656
20
-23.012628172337017
30
0
10
-90.546945840930391
20
-23.894919689668175
30
0
10
-90.579567801312379
20
-24.319768103359817
30
0
0
SPLINE
5
101
100
AcDbEntity
8
0
100
AcDbSpline
70
0
71
3
72
9
73
5
74
0
42
0.000000001
43
0.0000000001
44
0.0000000001
40
0
40
0
40
0
40
0
40
0.12292750563017101
40
0.25055953706145256
40
0.25055953706145256
40
0.25055953706145256
40
0.25055953706145256
10
-90.579567801312379
20
-24.319768103359817
30
0
10
-90.696101027534738
20
-24.721929211657301
30
0
10
-90.933627292017746
20
-25.54164242883013
30
0
10
-91.573885781717991
20
-26.107183763634598
30
0
10
-91.900025798737275
20
-26.395263755583777
30
0
0
LINE
5
102
100
AcDbEntity
8
0
100
AcDbLine
10
-91.900025798737289
20
-26.395263755583777
30
0
11
-93.122910532037153
21
-24.804106165474394
31
0
0
SPLINE
5
103
100
AcDbEntity
8
0
100
AcDbSpline
70
0
71
3
72
9
73
5
74
0
42
0.000000001
43
0.0000000001
44
0.0000000001
40
0
40
0
40
0
40
0
40
0.069460716261794023
40
0.12913652741409895
40
0.12913652741409895
40
0.12913652741409895
40
0.12913652741409895
10
-93.122910532037153
20
-24.804106165474387
30
0
10
-92.942513740634979
20
-24.651756693718248
30
0
10
-92.607132586335879
20
-24.368519163287218
30
0
10
-92.453152122437416
20
-23.958934354507512
30
0
10
-92.381995577742018
20
-23.769659436023662
30
0
0
SPLINE
5
104
100
AcDbEntity
8
0
100
AcDbSpline
70
0
71
3
72
9
73
5
74
0
42
0.000000001
43
0.0000000001
44
0.0000000001
40
0
40
0
40
0
40
0
40
0.055153665076786686
40
0.11100083304553668
40
0.11100083304553668
40
0.11100083304553668
40
0.11100083304553668
10
-92.381995577742018
20
-23.769659436023662
30
0
10
-92.355829740233474
20
-23.583228432329499
30
0
10
-92.303169055639984
20
-23.208022239109937
30
0
10
-92.467560223200564
20
-22.866512565589829
30
0
10
-92.550269342541753
20
-22.694690899240655
30
0
0
SPLINE
5
105
100
AcDbEntity
8
0
100
AcDbSpline
70
0
71
3
72
9
73
5
74
0
42
0.000000001
43
0.0000000001
44
0.0000000001
40
0
40
0
40
0
40
0
40
0.05991670082611477
40
0.12056145598184528
40
0.12056145598184528
40
0.12056145598184528
40
0.12056145598184528
10
-92.550269342541753
20
-22.694690899240655
30
0
10
-92.672167632021058
20
-22.529273294566721
30
0
10
-92.917445410314826
20
-22.196428077965173
30
0
10
-93.313594547999827
20
-22.077470542648857
30
0
10
-93.51286526237871
20
-22.017632590755902
30
0
0
SPLINE
5
106
100
AcDbEntity
8
0
100
AcDbSpline
70
0
71
3
72
9
73
5
74
0
42
0.000000001
43
0.0000000001
44
0.0000000001
40
0
40
0
40
0
40
0
40
0.065500143178845213
40
0.13991044119831239
40
0.13991044119831239
40
0.13991044119831239
40
0.13991044119831239
10
-93.51286526237871
20
-22.017632590755902
30
0
10
-93.73497040146006
20
-22.001574740738377
30
0
10
-94.209394219381096
20
-21.967274649599446
30
0
10
-94.631977877274821
20
-22.188916566828077
30
0
10
-94.85672576351341
20
-22.3067951252354
30
0
0
SPLINE
5
107
100
AcDbEntity
8
0
100
AcDbSpline
70
0
71
3
72
9
73
5
74
0
42
0.000000001
43
0.0000000001
44
0.0000000001
40
0
40
0
40
0
40
0
40
0.070358499738826352
40
0.13231880389098843
40
0.13231880389098843
40
0.13231880389098843
40
0.13231880389098843
10
-94.85672576351341
20
-22.3067951252354
30
0
10
-95.05668420596632
20
-22.439736492133953
30
0
10
-95.432733468407761
20
-22.689750956924239
30
0
10
-95.61671680678316
20
-23.100534523928779
30
0
10
-95.70286981957841
20
-23.292890213398888
30
0
0
SPLINE
5
108
100
AcDbEntity
8
0
100
AcDbSpline
70
0
71
3
72
9
73
5
74
0
42
0.000000001
43
0.0000000001
44
0.0000000001
40
0
40
0
40
0
40
0
40
0.057497741250578993
40
0.11412826955704103
40
0.11412826955704103
40
0.11412826955704103
40
0.11412826955704103
10
-95.70286981957841
20
-23.292890213398888
30
0
10
-95.742451139303824
20
-23.486012111402317
30
0
10
-95.82101679125455
20
-23.869343135427208
30
0
10
-95.656577449609955
20
-24.224199889538927
30
0
10
-95.574982531647535
20
-24.400280062632401
30
0
0
SPLINE
5
109
100
AcDbEntity
8
0
100
AcDbSpline
70
0
71
3
72
9
73
5
74
0
42
0.000000001
43
0.0000000001
44
0.0000000001
40
0
40
0
40
0
40
0
40
0.043566020637227823
40
0.095938666110361254
40
0.095938666110361254
40
0.095938666110361254
40
0.095938666110361254
10
-95.574982531647535
20
-24.400280062632401
30
0
10
-95.493659059187124
20
-24.521028728758569
30
0
10
-95.314573033950097
20
-24.78693472139474
30
0
10
-95.086048461332211
20
-25.012056915833409
30
0
10
-94.961297545889522
20
-25.134950482686914
30
0
0
LINE
5
110
100
AcDbEntity
8
0
100
AcDbLine
10
-94.961297545889522
20
-25.134950482686914
30
0
11
-96.520246485705229
21
-25.794029172460306
31
0
0
SPLINE
5
111
100
AcDbEntity
8
0
100
AcDbSpline
70
0
71
3
72
9
73
5
74
0
42
0.000000001
43
0.0000000001
44
0.0000000001
40
0
40
0
40
0
40
0
40
0.074038091180412893
40
0.13485178393839653
40
0.13485178393839653
40
0.13485178393839653
40
0.13485178393839653
10
-96.520246485705201
20
-25.794029172460306
30
0
10
-96.651003778548684
20
-25.577724036023017
30
0
10
-96.889163000670322
20
-25.183749352741025
30
0
10
-97.297371551407451
20
-24.975843963456366
30
0
10
-97.48146010152297
20
-24.882085511788709
30
0
0
SPLINE
5
112
100
AcDbEntity
8
0
100
AcDbSpline
70
0
71
3
72
9
73
5
74
0
42
0.000000001
43
0.0000000001
44
0.0000000001
40
0
40
0
40
0
40
0
40
0.055593018620265125
40
0.11403845144092478
40
0.11403845144092478
40
0.11403845144092478
40
0.11403845144092478
10
-97.48146010152297
20
-24.882085511788709
30
0
10
-97.668285214625726
20
-24.843764815685091
30
0
10
-98.051521223701627
20
-24.765157232390429
30
0
10
-98.403927994093706
20
-24.936585442907525
30
0
10
-98.584538708850417
20
-25.024443492843716
30
0
0
SPLINE
5
113
100
AcDbEntity
8
0
100
AcDbSpline
70
0
71
3
72
9
73
5
74
0
42
0.000000001
43
0.0000000001
44
0.0000000001
40
0
40
0
40
0
40
0
40
0.04936789666759301
40
0.094167036116843281
40
0.094167036116843281
40
0.094167036116843281
40
0.094167036116843281
10
-98.584538708850417
20
-25.024443492843716
30
0
10
-98.724201413531631
20
-25.119471711926806
30
0
10
-98.990601723118345
20
-25.300733753507583
30
0
10
-99.108143128807569
20
-25.599776150572993
30
0
10
-99.164062419056833
20
-25.74204294158411
30
0
0
SPLINE
5
114
100
AcDbEntity
8
0
100
AcDbSpline
70
0
71
3
72
9
73
5
74
0
42
0.000000001
43
0.0000000001
44
0.0000000001
40
0
40
0
40
0
40
0
40
0.044645078637844969
40
0.09347110550927093
40
0.09347110550927093
40
0.09347110550927093
40
0.09347110550927093
10
-99.164062419056833
20
-25.74204294158411
30
0
10
-99.18379302166673
20
-25.89311926904433
30
0
10
-99.225101969810169
20
-26.209420007554336
30
0
10
-99.080402865829456
20
-26.494630520911922
30
0
10
-99.004817129459482
20
-26.643614488880818
30
0
0
SPLINE
5
115
100
AcDbEntity
8
0
100
AcDbSpline
70
0
71
3
72
9
73
5
74
0
42
0.000000001
43
0.0000000001
44
0.0000000001
40
0
40
0
40
0
40
0
40
0.04973900896176818
40
0.099253720691467734
40
0.099253720691467734
40
0.099253720691467734
40
0.099253720691467734
10
-99.004817129459482
20
-26.643614488880818
30
0
10
-98.905592721545474
20
-26.781535956318237
30
0
10
-98.707591356531481
20
-27.056756936633981
30
0
10
-98.389454947784017
20
-27.173849408116034
30
0
10
-98.230746211626723
20
-27.232263338906343
30
0
0
SPLINE
5
116
100
AcDbEntity
8
0
100
AcDbSpline
70
0
71
3
72
9
73
5
74
0
42
0.000000001
43
0.0000000001
44
0.0000000001
40
0
40
0
40
0
40
0
40
0.05413608482447152
40
0.1179083312866346
40
0.1179083312866346
40
0.1179083312866346
40
0.1179083312866346
10
-98.230746211626723
20
-27.232263338906343
30
0
10
-98.048868614579334
20
-27.256004827439604
30
0
10
-97.652739414696995
20
-27.30771376251117
30
0
10
-97.280544867554951
20
-27.158799485107117
30
0
10
-97.079238631318646
20
-27.078257271535627
30
0
0
LINE
5
117
100
AcDbEntity
8
0
100
AcDbLine
10
-97.079238631318646
20
-27.078257271535634
30
0
11
-96.39015524451294
21
-28.874788506344871
31
0
0
SPLINE
5
118
100
AcDbEntity
8
0
100
AcDbSpline
70
0
71
3
72
9
73
5
74
0
42
0.000000001
43
0.0000000001
44
0.0000000001
40
0
40
0
40
0
40
0
40
0.09106114972133901
40
0.16750686059009162
40
0.16750686059009162
40
0.16750686059009162
40
0.16750686059009162
10
-96.390155244512954
20
-28.874788506344871
30
0
10
-96.681009802855897
20
-28.968497798438339
30
0
10
-97.216036365835123
20
-29.140875913306559
30
0
10
-97.777365103816066
20
-29.149903590874139
30
0
10
-98.033540727040361
20
-29.154023584686428
30
0
0
SPLINE
5
119
100
AcDbEntity
8
0
100
AcDbSpline
70
0
71
3
72
9
73
5
74
0
42
0.000000001
43
0.0000000001
44
0.0000000001
40
0
40
0
40
0
40
0
40
0.070626748704781916
40
0.14546851921706239
40
0.14546851921706239
40
0.14546851921706239
40
0.14546851921706239
10
-98.033540727040361
20
-29.154023584686428
30
0
10
-98.269060006446992
20
-29.119774038569727
30
0
10
-98.754154414028477
20
-29.049230924964448
30
0
10
-99.173011272024553
20
-28.793840557296384
30
0
10
-99.388507992637074
20
-28.662445342778948
30
0
0
SPLINE
5
120
100
AcDbEntity
8
0
100
AcDbSpline
70
0
71
3
72
9
73
5
74
0
42
0.000000001
43
0.0000000001
44
0.0000000001
40
0
40
0
40
0
40
0
40
0.079732813293394836
40
0.1644634716662246
40
0.1644634716662246
40
0.1644634716662246
40
0.1644634716662246
10
-99.388507992637074
20
-28.662445342778948
30
0
10
-99.599204055137193
20
-28.497300280124662
30
0
10
-100.03380311760425
20
-28.156658463903806
30
0
10
-100.33524903980633
20
-27.693652184928833
30
0
10
-100.49055228856554
20
-27.455113946310583
30
0
0
SPLINE
5
121
100
AcDbEntity
8
0
100
AcDbSpline
70
0
71
3
72
9
73
5
74
0
42
0.000000001
43
0.0000000001
44
0.0000000001
40
0
40
0
40
0
40
0
40
0.13871855688801366
40
0.26761492297526357
40
0.26761492297526357
40
0.26761492297526357
40
0.26761492297526357
10
-100.49055228856554
20
-27.455113946310583
30
0
10
-100.70287020233353
20
-27.029682573661624
30
0
10
-101.11247251808685
20
-26.208943181781827
30
0
10
-100.96731111913357
20
-25.305358009199455
30
0
10
-100.89739432744946
20
-24.870147431622833
30
0
0
SPLINE
5
122
100
AcDbEntity
8
0
100
AcDbSpline
70
0
71
3
72
9
73
5
74
0
42
0.000000001
43
0.0000000001
44
0.0000000001
40
0
40
0
40
0
40
0
40
0.10146769353482835
40
0.19781406080600739
40
0.19781406080600739
40
0.19781406080600739
40
0.19781406080600739
10
-100.89739432744946
20
-24.870147431622833
30
0
10
-100.77910624010984
20
-24.544467791882376
30
0
10
-100.54850035870588
20
-23.909546371925359
30
0
10
-100.00742770599805
20
-23.506746350828678
30
0
10
-99.743895456036796
20
-23.310560505336735
30
0
0
SPLINE
5
123
100
AcDbEntity
8
0
100
AcDbSpline
70
0
71
3
72
9
73
5
74
0
42
0.000000001
43
0.0000000001
44
0.0000000001
40
0
40
0
40
0
40
0
40
0.13281862861854291
40
0.28493211232704174
40
0.28493211232704174
40
0.28493211232704174
40
0.28493211232704174
10
-99.743895456036796
20
-23.310560505336735
30
0
10
-99.3111049163129
20
-23.147509400061061
30
0
10
-98.382651400708156
20
-22.797720395862811
30
0
10
-97.491284575403256
20
-23.249814376038373
30
0
10
-97.015420651354972
20
-23.491168675230924
30
0
0
SPLINE
5
124
100
AcDbEntity
8
0
100
AcDbSpline
70
0
71
3
72
9
73
5
74
0
42
0.000000001
43
0.0000000001
44
0.0000000001
40
0
40
0
40
0
40
0
40
0.089006445837799888
40
0.17483922169132393
40
0.17483922169132393
40
0.17483922169132393
40
0.17483922169132393
10
-97.015420651354972
20
-23.491168675230924
30
0
10
-97.090922512574238
20
-23.198321203004451
30
0
10
-97.239234093017274
20
-22.623068212769848
30
0
10
-97.081900648589993
20
-22.050710614971692
30
0
10
-97.004661879513179
20
-21.769726514695826
30
0
0
SPLINE
5
125
100
AcDbEntity
8
0
100
AcDbSpline
70
0
71
3
72
9
73
5
74
0
42
0.000000001
43
0.0000000001
44
0.0000000001
40
0
40
0
40
0
40
0
40
0.086569827669932653
40
0.17789325571538053
40
0.17789325571538053
40
0.17789325571538053
40
0.17789325571538053
10
-97.004661879513179
20
-21.769726514695826
30
0
10
-96.875536793516574
20
-21.505887619350293
30
0
10
-96.610196286775079
20
-20.963722279062011
30
0
10
-96.111637253790491
20
-20.622209730482659
30
0
10
-95.855696578625043
20
-20.446890567699427
30
0
0
SPLINE
5
126
100
AcDbEntity
8
0
100
AcDbSpline
70
0
71
3
72
9
73
5
74
0
42
0.000000001
43
0.0000000001
44
0.0000000001
40
0
40
0
40
0
40
0
40
0.13344180852826532
40
0.2680124941926183
40
0.2680124941926183
40
0.2680124941926183
40
0.2680124941926183
10
-95.855696578625043
20
-20.446890567699427
30
0
10
-95.442317869505914
20
-20.253002642875096
30
0
10
-94.612063393048658
20
-19.863586560321092
30
0
10
-93.709326167048786
20
-20.026277159802287
30
0
10
-93.256056375118007
20
-20.107965088528456
30
0
0
SPLINE
5
127
100
AcDbEntity
8
0
100
AcDbSpline
70
0
71
3
72
9
73
5
74
0
42
0.000000001
43
0.0000000001
44
0.0000000001
40
0
40
0
40
0
40
0
40
0.13789592494991332
40
0.28124973319027768
40
0.28124973319027768
40
0.28124973319027768
40
0.28124973319027768
10
-93.256056375118007
20
-20.107965088528456
30
0
10
-92.81754026164262
20
-20.278444241369272
30
0
10
-91.923151685915002
20
-20.626150065659576
30
0
10
-91.370784714005765
20
-21.412101743667165
30
0
10
-91.089241659471313
20
-21.812703603292988
30
0
0
SPLINE
5
128
100
AcDbEntity
8
0
100
AcDbSpline
70
0
71
3
72
9
73
5
74
0
42
0.000000001
43
0.0000000001
44
0.0000000001
40
0
40
0
40
0
40
0
40
0.18152404705016684
40
0.33187529686656969
40
0.33187529686656969
40
0.33187529686656969
40
0.33187529686656969
10
-97.90367181446662
20
-10.287942005616145
30
0
10
-97.607957743483126
20
-10.830996313047375
30
0
10
-97.067312045626153
20
-11.823847191055833
30
0
10
-97.103780335223917
20
-12.948900718883376
30
0
10
-97.120301760504631
20
-13.458589766595871
30
0
0
SPLINE
5
129
100
AcDbEntity
8
0
100
AcDbSpline
70
0
71
3
72
9
73
5
74
0
42
0.000000001
43
0.0000000001
44
0.0000000001
40
0
40
0
40
0
40
0
40
0.14480022262489772
40
0.30924058114529662
40
0.30924058114529662
40
0.30924058114529662
40
0.30924058114529662
10
-97.120301760504631
20
-13.458589766595871
30
0
10
-97.268272047030337
20
-13.928351245000867
30
0
10
-97.584282731046912
20
-14.931590811544563
30
0
10
-98.388689471423874
20
-15.614600977385663
30
0
10
-98.8164371243804
20
-15.977795342523716
30
0
0
LINE
5
130
100
AcDbEntity
8
0
100
AcDbLine
10
-98.816437124380414
20
-15.977795342523716
30
0
11
-100.0675092599181
21
-14.267140953215442
31
0
0
SPLINE
5
131
100
AcDbEntity
8
0
100
AcDbSpline
70
0
71
3
72
9
73
5
74
0
42
0.000000001
43
0.0000000001
44
0.0000000001
40
0
40
0
40
0
40
0
40
0.096511564593617177
40
0.17669446126250393
40
0.17669446126250393
40
0.17669446126250393
40
0.17669446126250393
10
-100.0675092599181
20
-14.267140953215442
30
0
10
-99.826745564491617
20
-14.044050060602755
30
0
10
-99.385952674706033
20
-13.635612737586067
30
0
10
-99.202133222551524
20
-13.06596798079573
30
0
10
-99.118717047349861
20
-12.807466574779188
30
0
0
SPLINE
5
132
100
AcDbEntity
8
0
100
AcDbSpline
70
0
71
3
72
9
73
5
74
0
42
0.000000001
43
0.0000000001
44
0.0000000001
40
0
40
0
40
0
40
0
40
0.077926006803855905
40
0.16751011178298997
40
0.16751011178298997
40
0.16751011178298997
40
0.16751011178298997
10
-99.118717047349861
20
-12.807466574779188
30
0
10
-99.106545929493834
20
-12.543250470576153
30
0
10
-99.080382837142409
20
-11.975290286740243
30
0
10
-99.347594510085955
20
-11.471352809750538
30
0
10
-99.490498829746599
20
-11.20184795800732
30
0
0
SPLINE
5
133
100
AcDbEntity
8
0
100
AcDbSpline
70
0
71
3
72
9
73
5
74
0
42
0.000000001
43
0.0000000001
44
0.0000000001
40
0
40
0
40
0
40
0
40
0.092493186084335932
40
0.16639671729636074
40
0.16639671729636074
40
0.16639671729636074
40
0.16639671729636074
10
-99.490498829746599
20
-11.20184795800732
30
0
10
-99.658231192166454
20
-10.935518950531705
30
0
10
-99.959984387970309
20
-10.456388817374286
30
0
10
-100.45571381351742
20
-10.188412240563704
30
0
10
-100.67588735821775
20
-10.069392973656296
30
0
0
SPLINE
5
134
100
AcDbEntity
8
0
100
AcDbSpline
70
0
71
3
72
9
73
5
74
0
42
0.000000001
43
0.0000000001
44
0.0000000001
40
0
40
0
40
0
40
0
40
0.062420571042646242
40
0.11955666607750227
40
0.11955666607750227
40
0.11955666607750227
40
0.11955666607750227
10
-100.67588735821775
20
-10.069392973656296
30
0
10
-100.88313965947259
20
-10.012213201571027
30
0
10
-101.28009844663252
20
-9.9026944515276369
30
0
10
-101.65773791832726
20
-10.063556077465536
30
0
10
-101.83821170913768
20
-10.140431800489548
30
0
0
SPLINE
5
135
100
AcDbEntity
8
0
100
AcDbSpline
70
0
71
3
72
9
73
5
74
0
42
0.000000001
43
0.0000000001
44
0.0000000001
40
0
40
0
40
0
40
0
40
0.035687486032259422
40
0.069675382867680186
40
0.069675382867680186
40
0.069675382867680186
40
0.069675382867680186
10
-101.83821170913768
20
-10.140431800489548
30
0
10
-101.93813647653963
20
-10.209311456187997
30
0
10
-102.13322717080712
20
-10.343790426722519
30
0
10
-102.23334486428126
20
-10.558257339910405
30
0
10
-102.28218262730672
20
-10.662875054518214
30
0
0
SPLINE
5
136
100
AcDbEntity
8
0
100
AcDbSpline
70
0
71
3
72
9
73
5
74
0
42
0.000000001
43
0.0000000001
44
0.0000000001
40
0
40
0
40
0
40
0
40
0.039564554147590893
40
0.091557641375277499
40
0.091557641375277499
40
0.091557641375277499
40
0.091557641375277499
10
-102.28218262730672
20
-10.662875054518214
30
0
10
-102.30909752457032
20
-10.793139919330944
30
0
10
-102.37138217719449
20
-11.094590145000902
30
0
10
-102.31629653453651
20
-11.398466416246706
30
0
10
-102.28501490057684
20
-11.571029462214089
30
0
0
SPLINE
5
137
100
AcDbEntity
8
0
100
AcDbSpline
70
0
71
3
72
9
73
5
74
0
42
0.000000001
43
0.0000000001
44
0.0000000001
40
0
40
0
40
0
40
0
40
0.0650684290391325
40
0.17982531706304272
40
0.17982531706304272
40
0.17982531706304272
40
0.17982531706304272
10
-102.28501490057684
20
-11.571029462214089
30
0
10
-102.23278200138245
20
-11.781568000992998
30
0
10
-102.08842938987084
20
-12.363419446448018
30
0
10
-101.91484436488332
20
-12.937302339984708
30
0
10
-101.80406976650941
20
-13.303530054902843
30
0
0
SPLINE
5
138
100
AcDbEntity
8
0
100
AcDbSpline
70
0
71
3
72
9
73
5
74
0
42
0.000000001
43
0.0000000001
44
0.0000000001
40
0
40
0
40
0
40
0
40
0.15593760972028706
40
0.26838956407757908
40
0.26838956407757908
40
0.26838956407757908
40
0.26838956407757908
10
-101.80406976650941
20
-13.303530054902843
30
0
10
-101.65611780788545
20
-13.80707357831227
30
0
10
-101.40147262157834
20
-14.673739592908513
30
0
10
-101.45096249493962
20
-15.572879347891817
30
0
10
-101.47169814835259
20
-15.949607940285901
30
0
0
SPLINE
5
139
100
AcDbEntity
8
0
100
AcDbSpline
70
0
71
3
72
9
73
5
74
0
42
0.000000001
43
0.0000000001
44
0.0000000001
40
0
40
0
40
0
40
0
40
0.12315717930166074
40
0.24346095596176495
40
0.24346095596176495
40
0.24346095596176495
40
0.24346095596176495
10
-101.47169814835259
20
-15.949607940285901
30
0
10
-101.590717032909
20
-16.35519810976924
30
0
10
-101.82599727865602
20
-17.156981415874704
30
0
10
-102.49610104767737
20
-17.655052890226173
30
0
10
-102.82722606872633
20
-17.901169887403164
30
0
0
SPLINE
5
140
100
AcDbEntity
8
0
100
AcDbSpline
70
0
71
3
72
9
73
5
74
0
42
0.000000001
43
0.0000000001
44
0.0000000001
40
0
40
0
40
0
40
0
40
0.080223289195625533
40
0.16209221990744094
40
0.16209221990744094
40
0.16209221990744094
40
0.16209221990744094
10
-102.82722606872633
20
-17.901169887403164
30
0
10
-103.06999810264327
20
-18.021476053717365
30
0
10
-103.56052221731875
20
-18.264556258505149
30
0
10
-104.10801551460008
20
-18.276582585280831
30
0
10
-104.38454137651932
20
-18.282656797319376
30
0
0
SPLINE
5
141
100
AcDbEntity
8
0
100
AcDbSpline
70
0
71
3
72
9
73
5
74
0
42
0.000000001
43
0.0000000001
44
0.0000000001
40
0
40
0
40
0
40
0
40
0.084723090342054594
40
0.17458185427502421
40
0.17458185427502421
40
0.17458185427502421
40
0.17458185427502421
10
-104.38454137651932
20
-18.282656797319376
30
0
10
-104.66838812592596
20
-18.24594496608141
30
0
10
-105.2532876101313
20
-18.170295936454664
30
0
10
-105.74843201532153
20
-17.848840401418908
30
0
10
-106.00328704824281
20
-17.68338450591547
30
0
0
SPLINE
5
142
100
AcDbEntity
8
0
100
AcDbSpline
70
0
71
3
72
9
73
5
74
0
42
0.000000001
43
0.0000000001
44
0.0000000001
40
0
40
0
40
0
40
0
40
0.10056895973844411
40
0.21566400192985197
40
0.21566400192985197
40
0.21566400192985197
40
0.21566400192985197
10
-106.00328704824281
20
-17.68338450591547
30
0
10
-106.25949821007495
20
-17.464211240337093
30
0
10
-106.80892742405433
20
-16.99420753647459
30
0
10
-107.19509440895784
20
-16.382077677391905
30
0
10
-107.40118307012835
20
-16.055397696832799
30
0
0
SPLINE
5
143
100
AcDbEntity
8
0
100
AcDbSpline
70
0
71
3
72
9
73
5
74
0
42
0.000000001
43
0.0000000001
44
0.0000000001
40
0
40
0
40
0
40
0
40
0.17853461619471667
40
0.32202427367866093
40
0.32202427367866093
40
0.32202427367866093
40
0.32202427367866093
10
-107.40118307012835
20
-16.055397696832799
30
0
10
-107.69551663099304
20
-15.523081842492964
30
0
10
-108.22640836043405
20
-14.56293960220907
30
0
10
-108.20047033247185
20
-13.471530565599439
30
0
10
-108.18891269830475
20
-12.985213472018257
30
0
0
SPLINE
5
144
100
AcDbEntity
8
0
100
AcDbSpline
70
0
71
3
72
9
73
5
74
0
42
0.000000001
43
0.0000000001
44
0.0000000001
40
0
40
0
40
0
40
0
40
0.1295107517485343
40
0.26583387997738828
40
0.26583387997738828
40
0.26583387997738828
40
0.26583387997738828
10
-108.18891269830475
20
-12.985213472018257
30
0
10
-108.06122970630088
20
-12.560645141212717
30
0
10
-107.79914748754108
20
-11.689175821717871
30
0
10
-107.0724720491466
20
-11.13889074179507
30
0
10
-106.69982327699825
20
-10.856697277519105
30
0
0
LINE
5
145
100
AcDbEntity
8
0
100
AcDbLine
10
-106.69982327699825
20
-10.856697277519107
30
0
11
-105.51343910297477
21
-12.673740743997982
31
0
0
SPLINE
5
146
100
AcDbEntity
8
0
100
AcDbSpline
70
0
71
3
72
9
73
5
74
0
42
0.000000001
43
0.0000000001
44
0.0000000001
40
0
40
0
40
0
40
0
40
0.074425672391398329
40
0.13543703555166761
40
0.13543703555166761
40
0.13543703555166761
40
0.13543703555166761
10
-105.51343910297477
20
-12.673740743997982
30
0
10
-105.70166826021949
20
-12.844134242431656
30
0
10
-106.04420059136925
20
-13.154209913414796
30
0
10
-106.17471132527571
20
-13.595110234039769
30
0
10
-106.23350349944172
20
-13.793725992791126
30
0
0
SPLINE
5
147
100
AcDbEntity
8
0
100
AcDbSpline
70
0
71
3
72
9
73
5
74
0
42
0.000000001
43
0.0000000001
44
0.0000000001
40
0
40
0
40
0
40
0
40
0.063352507631828217
40
0.14397226729838911
40
0.14397226729838911
40
0.14397226729838911
40
0.14397226729838911
10
-106.23350349944172
20
-13.793725992791126
30
0
10
-106.22913530621589
20
-14.007910384743765
30
0
10
-106.21920833242706
20
-14.494656903264458
30
0
10
-105.97988304909464
20
-14.921262716417939
30
0
10
-105.84586871990162
20
-15.160148015470083
30
0
0
SPLINE
5
148
100
AcDbEntity
8
0
100
AcDbSpline
70
0
71
3
72
9
73
5
74
0
42
0.000000001
43
0.0000000001
44
0.0000000001
40
0
40
0
40
0
40
0
40
0.084785741185804855
40
0.15484242953933128
40
0.15484242953933128
40
0.15484242953933128
40
0.15484242953933128
10
-105.84586871990162
20
-15.160148015470083
30
0
10
-105.69174401620418
20
-15.40271898469318
30
0
10
-105.41026928662389
20
-15.845721283014811
30
0
10
-104.96126705236044
20
-16.114085077599142
30
0
10
-104.75812112078719
20
-16.235503210720005
30
0
0
SPLINE
5
149
100
AcDbEntity
8
0
100
AcDbSpline
70
0
71
3
72
9
73
5
74
0
42
0.000000001
43
0.0000000001
44
0.0000000001
40
0
40
0
40
0
40
0
40
0.038912389339800665
40
0.07742291283091253
40
0.07742291283091253
40
0.07742291283091253
40
0.07742291283091253
10
-104.75812112078719
20
-16.235503210720005
30
0
10
-104.62981729917524
20
-16.276222147114716
30
0
10
-104.37453470756182
20
-16.357239497026722
30
0
10
-104.13057058102318
20
-16.247007865195563
30
0
10
-104.00922166915035
20
-16.192178129502611
30
0
0
SPLINE
5
150
100
AcDbEntity
8
0
100
AcDbSpline
70
0
71
3
72
9
73
5
74
0
42
0.000000001
43
0.0000000001
44
0.0000000001
40
0
40
0
40
0
40
0
40
0.036246096384398019
40
0.07465156819379147
40
0.07465156819379147
40
0.07465156819379147
40
0.07465156819379147
10
-104.00922166915035
20
-16.192178129502611
30
0
10
-103.91046098096525
20
-16.116375546356903
30
0
10
-103.70705589781568
20
-15.960254411408879
30
0
10
-103.64460176072467
20
-15.71101137824712
30
0
10
-103.61247141625283
20
-15.582785052727303
30
0
0
SPLINE
5
151
100
AcDbEntity
8
0
100
AcDbSpline
70
0
71
3
72
9
73
5
74
0
42
0.000000001
43
0.0000000001
44
0.0000000001
40
0
40
0
40
0
40
0
40
0.078611764833976985
40
0.21261895044918488
40
0.21261895044918488
40
0.21261895044918488
40
0.21261895044918488
10
-103.61247141625283
20
-15.582785052727303
30
0
10
-103.62211456066517
20
-15.319925521495058
30
0
10
-103.64819609246021
20
-14.608977004257245
30
0
10
-103.86995592357557
20
-13.930473226306205
30
0
10
-104.00972432515735
20
-13.502833161672195
30
0
0
SPLINE
5
152
100
AcDbEntity
8
0
100
AcDbSpline
70
0
71
3
72
9
73
5
74
0
42
0.000000001
43
0.0000000001
44
0.0000000001
40
0
40
0
40
0
40
0
40
0.14275282125182043
40
0.2468515412983445
40
0.2468515412983445
40
0.2468515412983445
40
0.2468515412983445
10
-104.00972432515735
20
-13.502833161672195
30
0
10
-104.15022371814614
20
-13.046927870665426
30
0
10
-104.39317857820866
20
-12.258565701818572
30
0
10
-104.49429952444879
20
-11.440506735037745
30
0
10
-104.53694281125236
20
-11.095526546068442
30
0
0
SPLINE
5
153
100
AcDbEntity
8
0
100
AcDbSpline
70
0
71
3
72
9
73
5
74
0
42
0.000000001
43
0.0000000001
44
0.0000000001
40
0
40
0
40
0
40
0
40
0.082443224596089298
40
0.16269377900427087
40
0.16269377900427087
40
0.16269377900427087
40
0.16269377900427087
10
-104.53694281125236
20
-11.095526546068442
30
0
10
-104.53453897527255
20
-10.817569726034929
30
0
10
-104.52979523603167
20
-10.26904865989739
30
0
10
-104.31049895528476
20
-9.7664646118582077
30
0
10
-104.20232857398746
20
-9.518559321694692
30
0
0
SPLINE
5
154
100
AcDbEntity
8
0
100
AcDbSpline
70
0
71
3
72
9
73
5
74
0
42
0.000000001
43
0.0000000001
44
0.0000000001
40
0
40
0
40
0
40
0
40
0.083770801981926657
40
0.17803980333827424
40
0.17803980333827424
40
0.17803980333827424
40
0.17803980333827424
10
-104.20232857398746
20
-9.518559321694692
30
0
10
-104.04799021964108
20
-9.2820955351380405
30
0
10
-103.71997175013531
20
-8.7795342004112484
30
0
10
-103.21587566110435
20
-8.4520241824102538
30
0
10
-102.94896548703332
20
-8.2786132835423665
30
0
0
SPLINE
5
155
100
AcDbEntity
8
0
100
AcDbSpline
70
0
71
3
72
9
73
5
74
0
42
0.000000001
43
0.0000000001
44
0.0000000001
40
0
40
0
40
0
40
0
40
0.090270067562256737
40
0.18219484872037711
40
0.18219484872037711
40
0.18219484872037711
40
0.18219484872037711
10
-102.94896548703332
20
-8.2786132835423665
30
0
10
-102.67615811754006
20
-8.1428196016813672
30
0
10
-102.12554262829883
20
-7.8687430446123807
30
0
10
-101.51062904836877
20
-7.8491168318393667
30
0
10
-101.20037990212106
20
-7.8392146017445397
30
0
0
SPLINE
5
156
100
AcDbEntity
8
0
100
AcDbSpline
70
0
71
3
72
9
73
5
74
0
42
0.000000001
43
0.0000000001
44
0.0000000001
40
0
40
0
40
0
40
0
40
0.093601869738798665
40
0.19036860585493146
40
0.19036860585493146
40
0.19036860585493146
40
0.19036860585493146
10
-101.20037990212106
20
-7.8392146017445397
30
0
10
-100.88586381723799
20
-7.8751163799745605
30
0
10
-100.2461972297518
20
-7.9481338473439012
30
0
10
-99.705811981868322
20
-8.2988053684314842
30
0
10
-99.4311274221524
20
-8.4770560752228299
30
0
0
SPLINE
5
157
100
AcDbEntity
8
0
100
AcDbSpline
70
0
71
3
72
9
73
5
74
0
42
0.000000001
43
0.0000000001
44
0.0000000001
40
0
40
0
40
0
40
0
40
0.10931032260980349
40
0.23804053200527253
40
0.23804053200527253
40
0.23804053200527253
40
0.23804053200527253
10
-99.4311274221524
20
-8.4770560752228299
30
0
10
-99.155610927683824
20
-8.7184898527917465
30
0
10
-98.555630144957163
20
-9.2442501239575225
30
0
10
-98.13249795278027
20
-9.9216241418815656
30
0
10
-97.90367181446662
20
-10.287942005616145
30
0
0
ARC
5
158
100
AcDbEntity
8
0
100
AcDbCircle
10
-106.34874363612647
20
-29.353887802911803
30
0
40
1.7500000000000024
210
0
220
0
230
1
100
AcDbArc
50
-144.57984104362251
51
35.42015981015124
0
ARC
5
159
100
AcDbEntity
8
0
100
AcDbCircle
10
15.889845998572074
20
57.581301873772603
30
0
40
151.75000000000449
210
0
220
0
230
1
100
AcDbArc
50
205.83298875239885
51
215.42015895637812
0
LINE
5
160
100
AcDbEntity
8
0
100
AcDbLine
10
-120.69547793460869
20
-8.5436690983907315
30
0
11
-122.39418235912279
21
-9.3660618528000477
31
0
0
ARC
5
161
100
AcDbEntity
8
0
100
AcDbCircle
10
-122.69920693691857
20
-8.7360142300440398
30
0
40
0.70000000000001783
210
0
220
0
230
1
100
AcDbArc
50
175.83298875239882
51
295.83298875239689
0
LINE
5
162
100
AcDbEntity
8
0
100
AcDbLine
10
-123.39735647271718
20
-8.685149451815823
30
0
11
-122.86875419147519
21
-1.4297666481130633
31
0
0
ARC
5
163
100
AcDbEntity
8
0
100
AcDbCircle
10
-122.17060465567661
20
-1.4806314263412867
30
0
40
0.70000000000000706
210
0
220
-0
230
1
100
AcDbArc
50
55.832988752397114
51
175.83298875239811
0
LINE
5
164
100
AcDbEntity
8
0
100
AcDbLine
10
-121.7774796976738
20
-0.90144858181350318
30
0
11
-115.75843501610741
21
-4.9869229877188914
31
0
0
ARC
5
165
100
AcDbEntity
8
0
100
AcDbCircle
10
-116.15155997411021
20
-5.5661058322466497
30
0
40
0.69999999999997742
210
0
220
0
230
1
100
AcDbArc
50
-64.167011247600072
51
55.832988752396922
0
LINE
5
166
100
AcDbEntity
8
0
100
AcDbLine
10
-115.84653539631441
20
-6.1961534550026309
30
0
11
-117.54523982082864
21
-7.0185462094118201
31
0
0
ARC
5
167
100
AcDbEntity
8
0
100
AcDbCircle
10
15.889845998572074
20
57.581301873772603
30
0
40
148.25000000000449
210
0
220
0
230
1
100
AcDbArc
50
205.83298875239888
51
215.42015894629986
0
ARC
5
168
100
AcDbEntity
8
0
100
AcDbCircle
10
0
20
0
30
0
40
34.999999999999993
210
0
220
-0
230
1
100
AcDbArc
50
58.963622378422691
51
79.73623401027551
0
ARC
5
169
100
AcDbEntity
8
0
100
AcDbCircle
10
8.018098549634491
20
44.279906228992289
30
0
40
10.000000000000004
210
0
220
0
230
1
100
AcDbArc
50
196.12403397151863
51
259.73623401027578
0
LINE
5
170
100
AcDbEntity
8
0
100
AcDbLine
10
-1.5885288895547489
20
41.502729741151356
30
0
11
-24.543999541695023
21
120.90879385405842
31
0
0
SPLINE
5
171
100
AcDbEntity
8
0
100
AcDbSpline
70
0
71
3
72
18
73
14
74
0
42
0.000000001
43
0.0000000001
44
0.0000000001
40
0
40
0
40
0
40
0
40
1.1719334201607832
40
1.1719334201607832
40
2.3438668403215663
40
2.3438668403215663
40
3.5158002604823499
40
3.5158002604823499
40
4.6877336806431362
40
4.6877336806431362
40
5.5012049506347278
40
5.5012049506347278
40
6.3146762206263221
40
6.3146762206263221
40
6.3146762206263221
40
6.3146762206263221
10
11.609257958534197
20
158.33021174002664
30
0
10
7.8213232439773055
20
159.28512590215317
30
0
10
3.8830872798786893
20
159.49104268352525
30
0
10
-3.8506441607336224
20
158.3817006084264
30
0
10
-7.5722009494657616
20
157.07704766683153
30
0
10
-14.305746119220082
20
153.11464797952357
30
0
10
-17.25335813835375
20
150.49478393449581
30
0
10
-21.978436561275004
20
144.27265602417896
30
0
10
-23.710728639972753
20
140.72987909303419
30
0
10
-25.41254654196954
20
134.33441611071535
30
0
10
-25.75134903647157
20
131.6315502899358
30
0
10
-25.693467937639362
20
126.20871738077318
30
0
10
-25.297050636546608
20
123.5136989951562
30
0
10
-24.543999541695026
20
120.90879385405842
30
0
0
SPLINE
5
172
100
AcDbEntity
8
0
100
AcDbSpline
70
0
71
3
72
26
73
22
74
0
42
0.000000001
43
0.0000000001
44
0.0000000001
40
-0.25636132024821467
40
-0.25636132024821467
40
-0.25636132024821467
40
-0.25636132024821467
40
-0.24921816459340121
40
-0.24921816459340121
40
-0.24921816459340121
40
-0.22021207709613128
40
-0.22021207709613128
40
-0.22021207709613128
40
-0.1966039870276175
40
-0.1966039870276175
40
-0.1966039870276175
40
-0.16914775060941387
40
-0.16914775060941387
40
-0.16914775060941387
40
-0.14955349351744521
40
-0.14955349351744521
40
-0.14955349351744521
40
-0.12530304342435933
40
-0.12530304342435933
40
-0.12530304342435933
40
-0.11723157462198794
40
-0.11723157462198794
40
-0.11723157462198794
40
-0.11723157462198794
10
11.609257958534197
20
158.33021174002664
30
0
10
13.362079558024201
20
157.88833660353023
30
0
10
15.085064730507527
20
157.39156294427909
30
0
10
16.771793608213677
20
156.83851347911633
30
0
10
23.621064123262268
20
154.59275516835925
30
0
10
29.868535790624925
20
151.42091694983091
30
0
10
35.633021618407057
20
147.21121197687592
30
0
10
40.32474367963853
20
143.78492795381538
30
0
10
44.740492162681875
20
139.63619521836765
30
0
10
48.827806689650913
20
135.00007190848527
30
0
10
53.581358274820936
20
129.60825506558683
30
0
10
57.890553700543677
20
123.59966542532307
30
0
10
61.326034884719135
20
117.70804307098061
30
0
10
63.777780292648529
20
113.50346232140498
30
0
10
65.753105945725011
20
109.39324951020006
30
0
10
67.188176539836945
20
105.2982458048558
30
0
10
68.964263668796349
20
100.23014434424176
30
0
10
69.958600538140772
20
95.101603556143004
30
0
10
70.13904067088329
20
89.250837159109068
30
0
10
70.19909798514081
20
87.303480377591569
30
0
10
70.163915003412797
20
85.274076247034742
30
0
10
70.038947615027851
20
83.18760245541533
30
0
0
SPLINE
5
173
100
AcDbEntity
8
0
100
AcDbSpline
70
0
71
3
72
10
73
6
74
0
42
0.000000001
43
0.0000000001
44
0.0000000001
40
0
40
0
40
0
40
0
40
1.0616772900412681
40
1.0616772900412681
40
2.1233545800825357
40
2.1233545800825357
40
2.1233545800825357
40
2.1233545800825357
10
61.717870078041138
20
64.188224570758351
30
0
10
64.170696798727747
20
66.739229525749607
30
0
10
66.152895650992676
20
69.704245688890737
30
0
10
68.992365159695623
20
76.187559171791492
30
0
10
69.827366230458196
20
79.655008717125057
30
0
10
70.038947615027851
20
83.18760245541533
30
0
0
LINE
5
174
100
AcDbEntity
8
0
100
AcDbLine
10
61.717870078041138
20
64.188224570758351
30
0
11
30.409617862738948
21
31.626810484811575
31
0
0
ARC
5
175
100
AcDbEntity
8
0
100
AcDbCircle
10
23.201198753881247
20
38.557805647921654
30
0
40
10.000000000000009
210
0
220
0
230
1
100
AcDbArc
50
238.96362237842285
51
316.12403397151854
0
ARC
5
176
100
AcDbEntity
8
0
100
AcDbCircle
10
0
20
0
30
0
40
35.000000000000007
210
0
220
0
230
1
100
AcDbArc
50
132.51183393276156
51
159.73623401027552
0
ARC
5
177
100
AcDbEntity
8
0
100
AcDbCircle
10
-42.214866755467277
20
15.585410640023053
30
0
40
9.9999999999999964
210
0
220
0
230
1
100
AcDbArc
50
276.12403397151849
51
339.73623401027578
0
LINE
5
178
100
AcDbEntity
8
0
100
AcDbLine
10
-41.148055167098676
20
5.6424778214366578
30
0
11
-90.748967619855733
21
0.32062468577590097
31
0
0
SPLINE
5
179
100
AcDbEntity
8
0
100
AcDbSpline
70
0
71
3
72
14
73
10
74
0
42
0.000000001
43
0.0000000001
44
0.0000000001
40
0
40
0
40
0
40
0
40
1.1719334201607825
40
1.1719334201607825
40
2.3438668403215654
40
2.3438668403215654
40
3.5158002604823499
40
3.5158002604823499
40
4.702737678411701
40
4.702737678411701
40
4.702737678411701
40
4.702737678411701
10
-123.75106183547973
20
26.705429239777878
30
0
10
-123.30260277411314
20
22.824811385743139
30
0
10
-122.10046026679963
20
19.068888380424688
30
0
10
-118.32413835432989
20
12.229251354346415
30
0
10
-115.78606264491134
20
9.2109279914460949
30
0
10
-109.69580306186663
20
4.3170563087972731
30
0
10
-106.20184538930229
20
2.4882960697010517
30
0
10
-98.661642343644075
20
0.25881667477929582
30
0
10
-94.682847288635074
20
-0.10145484492908328
30
0
10
-90.748967619855762
20
0.32062468577603198
30
0
0
SPLINE
5
180
100
AcDbEntity
8
0
100
AcDbSpline
70
0
71
3
72
23
73
19
74
0
42
0.000000001
43
0.0000000001
44
0.0000000001
40
-0.53967613165223283
40
-0.53967613165223283
40
-0.53967613165223283
40
-0.53967613165223283
40
-0.52659345914249223
40
-0.52659345914249223
40
-0.52659345914249223
40
-0.50024157106875744
40
-0.50024157106875744
40
-0.50024157106875744
40
-0.4748568356349549
40
-0.4748568356349549
40
-0.4748568356349549
40
-0.44546769457832208
40
-0.44546769457832208
40
-0.44546769457832208
40
-0.41911179083758193
40
-0.41911179083758193
40
-0.41911179083758193
40
-0.40415687875174339
40
-0.40415687875174339
40
-0.40415687875174339
40
-0.40415687875174339
10
-123.75106183547969
20
26.705429239777732
30
0
10
-124.09545910580455
20
29.685576841279584
30
0
10
-124.32464473812414
20
32.776249794147958
30
0
10
-124.43848566663675
20
36.008390872720483
30
0
10
-124.66779075733142
20
42.518759444405561
30
0
10
-124.42036230023069
20
49.579896882588478
30
0
10
-123.66010296679571
20
56.655492670655896
30
0
10
-122.92774625723753
20
63.471403796797944
30
0
10
-121.72090996402765
20
70.239257011772821
30
0
10
-120.03585537754402
20
76.581910188387795
30
0
10
-118.08498584575646
20
83.92510781071239
30
0
10
-115.50029988494944
20
90.726065184202326
30
0
10
-112.19530873449537
20
97.279709835568454
30
0
10
-109.23142392896422
20
103.15695637535596
30
0
10
-105.6669157231368
20
108.88914070771128
30
0
10
-101.53442051971005
20
114.46564955503067
30
0
10
-99.189553006521123
20
117.62988176569287
30
0
10
-96.666605642621136
20
120.73187068258063
30
0
10
-93.991407208515
20
123.72445792464234
30
0
0
SPLINE
5
181
100
AcDbEntity
8
0
100
AcDbSpline
70
0
71
3
72
18
73
14
74
0
42
0.000000001
43
0.0000000001
44
0.0000000001
40
0
40
0
40
0
40
0
40
1.1719334201607818
40
1.1719334201607818
40
2.3438668403215659
40
2.3438668403215659
40
3.5158002604823491
40
3.5158002604823491
40
4.6877336806431318
40
4.6877336806431318
40
5.5487670555399102
40
5.5487670555399102
40
6.4098004304366887
40
6.4098004304366887
40
6.4098004304366887
40
6.4098004304366887
10
-42.805449940417617
20
112.06202101559938
30
0
10
-43.890338587012785
20
115.81479693260587
30
0
10
-45.697855692755589
20
119.31979138940855
30
0
10
-50.554667386713035
20
125.43964612661745
30
0
10
-53.557528207966563
20
127.99599726015741
30
0
10
-60.374115736356529
20
131.81376837730133
30
0
10
-64.122672151394312
20
133.03868838817937
30
0
10
-71.878320282584724
20
133.98270316574522
30
0
10
-75.811263775448353
20
133.69277263663167
30
0
10
-82.345384393163386
20
131.89639329167068
30
0
10
-84.989365918359937
20
130.74234344915649
30
0
10
-89.868538520348068
20
127.71846695339573
30
0
10
-92.078576948141972
20
125.86422870218259
30
0
10
-93.991407208513564
20
123.72445792464397
30
0
0
LINE
5
182
100
AcDbEntity
8
0
100
AcDbLine
10
-42.805449940417617
20
112.06202101559938
30
0
11
-20.801783767933234
21
35.948376765469519
31
0
0
ARC
5
183
100
AcDbEntity
8
0
100
AcDbCircle
10
-30.408411207122505
20
33.171200277628621
30
0
40
10.000000000000027
210
0
220
0
230
1
100
AcDbArc
50
-47.488166067238218
51
16.124033971518422
0
ARC
5
184
100
AcDbEntity
8
0
100
AcDbCircle
10
0
20
0
30
0
40
35.000000000000007
210
0
220
0
230
1
100
AcDbArc
50
212.5118339327615
51
263.28444556461437
0
ARC
5
185
100
AcDbEntity
8
0
100
AcDbCircle
10
-5.2623159705905191
20
-44.691252283032611
30
0
40
9.9999999999999893
210
0
220
-0
230
1
100
AcDbArc
50
6.1240339715184655
51
83.284445564614572
0
LINE
5
186
100
AcDbEntity
8
0
100
AcDbLine
10
4.6806168479958696
20
-43.624440694664017
30
0
11
4.9034248628094375
21
-45.701063358766952
31
0
0
SPLINE
5
187
100
AcDbEntity
8
0
100
AcDbSpline
70
0
71
3
72
14
73
10
74
0
42
0.000000001
43
0.0000000001
44
0.0000000001
40
0
40
0
40
0
40
0
40
0.5859667100803907
40
0.5859667100803907
40
1.1719334201607827
40
1.1719334201607827
40
1.6116400360735321
40
1.6116400360735321
40
2.0513466519862833
40
2.0513466519862833
40
2.0513466519862833
40
2.0513466519862833
10
-5.3835459002423178
20
-61.569669080683973
30
0
10
-3.5255902172719669
20
-60.967109295424521
30
0
10
-1.8030909282933028
20
-60.007410250457511
30
0
10
1.1770862218044298
20
-57.481770804136964
30
0
10
2.4062719650465167
20
-55.939976892470106
30
0
10
3.9800448325259472
20
-52.904817591879521
30
0
10
4.4603820349868384
20
-51.511754273550217
30
0
10
5.0017083184425202
20
-48.630792707133395
30
0
10
5.0597862339221287
20
-47.158387806069769
30
0
10
4.9034248628094375
20
-45.701063358766952
30
0
0
SPLINE
5
188
100
AcDbEntity
8
0
100
AcDbSpline
70
0
71
3
72
11
73
7
74
0
42
0.000000001
43
0.0000000001
44
0.0000000001
40
-0.81568576598161713
40
-0.81568576598161713
40
-0.81568576598161713
40
-0.81568576598161713
40
-0.81120941568695881
40
-0.81120941568695881
40
-0.81120941568695881
40
-0.78474680232795446
40
-0.78474680232795446
40
-0.78474680232795446
40
-0.78474680232795446
10
-5.3835459002423036
20
-61.569669080683973
30
0
10
-6.1306105843172487
20
-61.811952112371493
30
0
10
-6.880423131287456
20
-62.043162548200399
30
0
10
-7.6304878084951877
20
-62.262325372269913
30
0
10
-12.064607178214812
20
-63.557939141134185
30
0
10
-16.523579523680329
20
-64.448446722759826
30
0
10
-21.204129286618404
20
-64.942928941462426
30
0
0
SPLINE
5
189
100
AcDbEntity
8
0
100
AcDbSpline
70
0
71
3
72
20
73
16
74
0
42
0.000000001
43
0.0000000001
44
0.0000000001
40
-0.78057125366785285
40
-0.78057125366785285
40
-0.78057125366785285
40
-0.78057125366785285
40
-0.76612382620190977
40
-0.76612382620190977
40
-0.76612382620190977
40
-0.74254073361114847
40
-0.74254073361114847
40
-0.74254073361114847
40
-0.70847722730022222
40
-0.70847722730022222
40
-0.70847722730022222
40
-0.68582593878299525
40
-0.68582593878299525
40
-0.68582593878299525
40
-0.66567593380157652
40
-0.66567593380157652
40
-0.66567593380157652
40
-0.66567593380157652
10
-21.204129286618397
20
-64.94292894146254
30
0
10
-23.778775646249436
20
-65.114507572070892
30
0
10
-26.520433521056134
20
-65.181885299206726
30
0
10
-29.333461413536895
20
-65.138748029392218
30
0
10
-33.925275243725757
20
-65.06833340155994
30
0
10
-38.633279071607966
20
-64.697646841049391
30
0
10
-42.974441004027277
20
-63.996591919171031
30
0
10
-49.244831382753432
20
-62.983985592676568
30
0
10
-54.787802441025605
20
-61.309541039793473
30
0
10
-60.736170633279663
20
-58.700766257447171
30
0
10
-64.691670777615172
20
-56.966003261177541
30
0
10
-68.827962576740106
20
-54.813315148790302
30
0
10
-72.954301398198481
20
-52.333886088544617
30
0
10
-76.624986522542443
20
-50.128249624330735
30
0
10
-80.254033231513944
20
-47.679211700351374
30
0
10
-83.696067731083446
20
-45.031355134476755
30
0
0
SPLINE
5
190
100
AcDbEntity
8
0
100
AcDbSpline
70
0
71
3
72
20
73
16
74
0
42
0.000000001
43
0.0000000001
44
0.0000000001
40
0
40
0
40
0
40
0
40
0.58596671008039125
40
0.58596671008039125
40
1.1719334201607814
40
1.1719334201607814
40
1.757900130241173
40
1.757900130241173
40
2.3438668403215646
40
2.3438668403215646
40
2.9298335504019555
40
2.9298335504019555
40
3.2540696443582866
40
3.2540696443582866
40
3.5783057383146191
40
3.5783057383146191
40
3.5783057383146191
40
3.5783057383146191
10
-76.150324844713111
20
-18.227825965386842
30
0
10
-78.092400722132055
20
-18.436197990959339
30
0
10
-79.97520960555056
20
-19.021908470601719
30
0
10
-83.410338051768278
20
-20.882070564818459
30
0
10
-84.929815914331982
20
-22.138738015905439
30
0
10
-87.401545213129864
20
-25.163777640809407
30
0
10
-88.33016557007096
20
-26.903228787038348
30
0
10
-89.468379188323468
20
-30.640176768747423
30
0
10
-89.667090507070043
20
-32.601946344728404
30
0
10
-89.301352435239764
20
-36.491232413094792
30
0
10
-88.740399699972286
20
-38.381565210841927
30
0
10
-87.330806762139247
20
-41.068247266094232
30
0
10
-86.726705461947262
20
-41.968241375385887
30
0
10
-85.335623868915775
20
-43.622718327422547
30
0
10
-84.552708853900725
20
-44.372366149347855
30
0
10
-83.696067731083446
20
-45.031355134476748
30
0
0
LINE
5
191
100
AcDbEntity
8
0
100
AcDbLine
10
-76.150324844713111
20
-18.227825965386842
30
0
11
-39.014431990361459
21
-14.243387815736133
31
0
0
ARC
5
192
100
AcDbEntity
8
0
100
AcDbCircle
10
-37.947620401992864
20
-24.18632063432252
30
0
40
9.9999999999999893
210
0
220
-0
230
1
100
AcDbArc
50
32.511833932761611
51
96.1240339715185
0
LINE
5
193
100
AcDbEntity
8
0
100
AcDbLine
10
-4.7512991620681486
20
3.6640355173674992
30
0
11
49.501334394922793
21
9.4849878695673233
31
0
0
SPLINE
5
194
100
AcDbEntity
8
0
100
AcDbSpline
70
4
71
5
72
131
73
125
74
0
42
0.000000001
43
0.0000000001
44
0.0000000001
40
0.0010631005291919691
40
0.0010631005291919691
40
0.0010631005291919691
40
0.0010631005291919691
40
0.0010631005291919691
40
0.0010631005291919691
40
0.0083333333333333332
40
0.016666666666666666
40
0.025000000000000001
40
0.033333333333333333
40
0.041666666666666664
40
0.049999999999999996
40
0.058333333333333327
40
0.066666666666666666
40
0.074999999999999997
40
0.083333333333333329
40
0.09166666666666666
40
0.099999999999999992
40
0.10833333333333332
40
0.11666666666666665
40
0.12499999999999999
40
0.13333333333333333
40
0.14166666666666666
40
0.14999999999999999
40
0.15833333333333333
40
0.16666666666666666
40
0.17499999999999999
40
0.18333333333333332
40
0.19166666666666665
40
0.19999999999999998
40
0.20833333333333331
40
0.21666666666666665
40
0.22499999999999998
40
0.23333333333333331
40
0.24166666666666664
40
0.24999999999999997
40
0.2583333333333333
40
0.26666666666666666
40
0.27500000000000002
40
0.28333333333333338
40
0.29166666666666674
40
0.3000000000000001
40
0.30833333333333346
40
0.31666666666666682
40
0.32500000000000018
40
0.33333333333333354
40
0.3416666666666669
40
0.35000000000000026
40
0.35833333333333361
40
0.36666666666666697
40
0.37500000000000033
40
0.38333333333333369
40
0.39166666666666705
40
0.40000000000000041
40
0.40833333333333377
40
0.41666666666666713
40
0.42500000000000049
40
0.43333333333333385
40
0.44166666666666721
40
0.45000000000000057
40
0.45833333333333393
40
0.46666666666666728
40
0.47500000000000064
40
0.483333333333334
40
0.49166666666666736
40
0.50000000000000067
40
0.50833333333333397
40
0.51666666666666727
40
0.52500000000000058
40
0.53333333333333388
40
0.54166666666666718
40
0.55000000000000049
40
0.55833333333333379
40
0.5666666666666671
40
0.5750000000000004
40
0.5833333333333337
40
0.59166666666666701
40
0.60000000000000031
40
0.60833333333333361
40
0.61666666666666692
40
0.62500000000000022
40
0.63333333333333353
40
0.64166666666666683
40
0.65000000000000013
40
0.65833333333333344
40
0.66666666666666674
40
0.67500000000000004
40
0.68333333333333335
40
0.69166666666666665
40
0.69999999999999996
40
0.70833333333333326
40
0.71666666666666656
40
0.72499999999999987
40
0.73333333333333317
40
0.74166666666666647
40
0.74999999999999978
40
0.75833333333333308
40
0.76666666666666639
40
0.77499999999999969
40
0.78333333333333299
40
0.7916666666666663
40
0.7999999999999996
40
0.8083333333333329
40
0.81666666666666621
40
0.82499999999999951
40
0.83333333333333282
40
0.84166666666666612
40
0.84999999999999942
40
0.85833333333333273
40
0.86666666666666603
40
0.87499999999999933
40
0.88333333333333264
40
0.89166666666666594
40
0.89999999999999925
40
0.90833333333333255
40
0.91666666666666585
40
0.92499999999999916
40
0.93333333333333246
40
0.94166666666666576
40
0.94999999999999907
40
0.95833333333333237
40
0.96666666666666567
40
0.97499999999999898
40
0.98333333333333228
40
0.99166666666666559
40
1
40
1
40
1
40
1
40
1
40
1
41
1
41
1
41
1
41
1
41
1
41
1
41
1
41
1
41
1
41
1
41
1
41
1
41
1
41
1
41
1
41
1
41
1
41
1
41
1
41
1
41
1
41
1
41
1
41
1
41
1
41
1
41
1
41
1
41
1
41
1
41
1
41
1
41
1
41
1
41
1
41
1
41
1
41
1
41
1
41
1
41
1
41
1
41
1
41
1
41
1
41
1
41
1
41
1
41
1
41
1
41
1
41
1
41
1
41
1
41
1
41
1
41
1
41
1
41
1
41
1
41
1
41
1
41
1
41
1
41
1
41
1
41
1
41
1
41
1
41
1
41
1
41
1
41
1
41
1
41
1
41
1
41
1
41
1
41
1
41
1
41
1
41
1
41
1
41
1
41
1
41
1
41
1
41
1
41
1
41
1
41
1
41
1
41
1
41
1
41
1
41
1
41
1
41
1
41
1
41
1
41
1
41
1
41
1
41
1
41
1
41
1
41
1
41
1
41
1
41
1
41
1
41
1
41
1
41
1
41
1
41
1
41
1
41
1
41
1
41
1
41
1
41
1
41
1
41
1
41
1
10
49.501334394922793
20
9.4849878695673233
30
0
10
50.284164107005445
20
10.242456908151429
30
0
10
51.931757627917399
20
11.84622093376931
30
0
10
54.352152470142563
20
14.234285846855293
30
0
10
57.393800978368915
20
17.304863706568337
30
0
10
60.85158206177838
20
20.9328500405611
30
0
10
64.030067562170487
20
24.464752785296557
30
0
10
66.880758019924926
20
27.919396369424319
30
0
10
69.477391420979686
20
31.494820521986373
30
0
10
71.913711900874503
20
35.448326855440342
30
0
10
74.271684340118114
20
40.025012764584353
30
0
10
76.59851542017735
20
45.405917841327025
30
0
10
78.87299400439629
20
51.633583533446398
30
0
10
81.004187500032984
20
58.604439542996822
30
0
10
82.860915718914526
20
66.124323238182967
30
0
10
84.292511319387728
20
73.946237162560536
30
0
10
85.153955381338662
20
81.81681721257165
30
0
10
85.327223980034447
20
89.515619712742165
30
0
10
84.748945235184223
20
96.905899652447744
30
0
10
83.418856596210574
20
103.95081380926131
30
0
10
81.378778058875383
20
110.67665515469017
30
0
10
78.69879212583777
20
117.14903555328041
30
0
10
75.459967726353497
20
123.44282527157824
30
0
10
71.739878530098181
20
129.61718545436062
30
0
10
67.593693779375712
20
135.68245161050845
30
0
10
63.049793146928941
20
141.59380886202328
30
0
10
58.12022366859145
20
147.27236915642837
30
0
10
52.807085186127807
20
152.61871908629388
30
0
10
47.110788687910208
20
157.52994923785539
30
0
10
41.037009913487736
20
161.91421690776806
30
0
10
34.605418585923175
20
165.70872531619412
30
0
10
27.853634663602421
20
168.88845809129026
30
0
10
20.83111389288101
20
171.45538783445119
30
0
10
13.595118925526922
20
173.43171976812692
30
0
10
6.2058108072893194
20
174.85145940657503
30
0
10
-1.278159740631817
20
175.75288491331992
30
0
10
-8.8045663338296993
20
176.17020139859659
30
0
10
-16.331446635072801
20
176.12682706436075
30
0
10
-23.824766963594939
20
175.63787719188144
30
0
10
-31.256775820952978
20
174.71162259711309
30
0
10
-38.604102236428545
20
173.35133968692648
30
0
10
-45.845949540425522
20
171.55699141113269
30
0
10
-52.962286388087001
20
169.32697997312235
30
0
10
-59.93194020723103
20
166.65986565584763
30
0
10
-66.732814896416883
20
163.55625771678521
30
0
10
-73.342251474109702
20
160.02075035419239
30
0
10
-79.737337462393967
20
156.06376942398947
30
0
10
-85.895235770410267
20
151.70362939833279
30
0
10
-91.793510425174816
20
146.96810713465425
30
0
10
-97.410440956497979
20
141.89724827124797
30
0
10
-102.72542286183666
20
136.53944994150226
30
0
10
-107.71940555318558
20
130.94497910897985
30
0
10
-112.3753116566963
20
125.16051288122397
30
0
10
-116.67848120478494
20
119.22285068608139
30
0
10
-120.61706947681971
20
113.15391001741334
30
0
10
-124.18255826232675
20
106.95285053089981
30
0
10
-127.36984490922322
20
100.59895119999149
30
0
10
-130.17696431788158
20
94.064228390156345
30
0
10
-132.60490265778549
20
87.323040633530155
30
0
10
-134.65740231443232
20
80.363560230647948
30
0
10
-136.34070954288455
20
73.196986029291295
30
0
10
-137.66350512980682
20
65.871392790160769
30
0
10
-138.63606826280767
20
58.467647767629046
30
0
10
-139.26882733077241
20
51.08171037291325
30
0
10
-139.57113913147055
20
43.81125132993045
30
0
10
-139.54986567726456
20
36.739711637872404
30
0
10
-139.20828800333837
20
29.923273269488803
30
0
10
-138.54425333054857
20
23.372067864535978
30
0
10
-137.55112227970204
20
17.051798797606914
30
0
10
-136.22135922771673
20
10.904675597888831
30
0
10
-134.5494718631914
20
4.8653489504703433
30
0
10
-132.53506008265023
20
-1.1217430668721078
30
0
10
-130.18619388229499
20
-7.0841459545305039
30
0
10
-127.52153221315425
20
-13.007973694581672
30
0
10
-124.56527704080509
20
-18.852542152229717
30
0
10
-121.34315480177659
20
-24.561247077002434
30
0
10
-117.87775302394117
20
-30.074264301807805
30
0
10
-114.1847015802104
20
-35.339611707149686
30
0
10
-110.26701683297729
20
-40.327138517783794
30
0
10
-106.12022478367798
20
-45.025945647393193
30
0
10
-101.74021635488708
20
-49.437267319408953
30
0
10
-97.130776612933403
20
-53.568659978653429
30
0
10
-92.309927259127647
20
-57.428141851494956
30
0
10
-87.320063324369443
20
-61.017132802614469
30
0
10
-82.222713693106073
20
-64.329089957053554
30
0
10
-77.081538749161993
20
-67.352862049185944
30
0
10
-71.947607918926963
20
-70.074711900259317
30
0
10
-66.846137622036679
20
-72.480824104176264
30
0
10
-61.75665206715766
20
-74.559756203478173
30
0
10
-56.621743123977183
20
-76.304258858008637
30
0
10
-51.37773871168757
20
-77.712504808382732
30
0
10
-45.978985393573339
20
-78.789487816264767
30
0
10
-40.424768975755157
20
-79.548377103754476
30
0
10
-34.785164403504737
20
-80.011850551451687
30
0
10
-29.168661503547963
20
-80.204864692662724
30
0
10
-23.687453387921046
20
-80.146779590986753
30
0
10
-18.427077964597899
20
-79.844891525115216
30
0
10
-13.405977725551777
20
-79.284585794078808
30
0
10
-8.5680499066854878
20
-78.430668704668349
30
0
10
-3.832629911612349
20
-77.248665034713568
30
0
10
0.87120899393519247
20
-75.720103996787188
30
0
10
5.5584433953755452
20
-73.863415848125896
30
0
10
10.164092575197738
20
-71.742693132948972
30
0
10
14.592393444785356
20
-69.434378843066654
30
0
10
18.753859133029593
20
-67.001150406388234
30
0
10
22.608877109452806
20
-64.461581442959798
30
0
10
26.203322921174021
20
-61.765647904310931
30
0
10
29.617107063305102
20
-58.839018153190459
30
0
10
32.921691785426404
20
-55.619939650521104
30
0
10
36.126788057063109
20
-52.105331120849321
30
0
10
39.154910469535658
20
-48.372968298108539
30
0
10
41.899026149979633
20
-44.532878675055244
30
0
10
44.261245319753407
20
-40.694275373692633
30
0
10
46.208283032554974
20
-36.919802389046907
30
0
10
47.788802558485493
20
-33.207026775550979
30
0
10
49.08180532615912
20
-29.518027657535598
30
0
10
50.161004663129361
20
-25.798293762077918
30
0
10
51.049665289164224
20
-22.001036621661036
30
0
10
51.731100111184567
20
-18.089336883718847
30
0
10
52.162620394549236
20
-14.036858220053777
30
0
10
52.288381513499886
20
-9.8298996305498072
30
0
10
52.099543646949186
20
-6.3378894698135664
30
0
10
51.775411887049799
20
-3.6483851367740696
30
0
10
51.475707025445949
20
-1.8243232817870307
30
0
10
51.304950276559424
20
-0.90452732591719043
30
0
0
ARC
5
195
100
AcDbEntity
8
0
100
AcDbCircle
10
-41.134548806698454
20
-18.065581613472492
30
0
40
94.018949021056685
210
0
220
-0
230
1
100
AcDbArc
50
10.517020824779355
51
11.876869088984595
0
LINE
5
196
100
AcDbEntity
8
0
100
AcDbLine
10
50.871656860213783
20
1.2843768826561597
30
0
11
-3.8658455437224859
21
-4.5885987220589461
31
0
0
ARC
5
197
100
AcDbEntity
8
0
100
AcDbCircle
10
0
20
0
30
0
40
6.0000000000000009
210
0
220
0
230
1
100
AcDbArc
50
142.36184876862552
51
229.88621917440813
0
CIRCLE
5
198
100
AcDbEntity
8
0
100
AcDbCircle
10
7.2856448508858236
20
16.459628765763853
30
0
40
3.2000000000000006
210
0
220
0
230
1
0
CIRCLE
5
199
100
AcDbEntity
8
0
100
AcDbCircle
10
-7.2856448508858263
20
-16.459628765763856
30
0
40
3.2000000000000006
210
0
220
0
230
1
0
ENDSEC
0
SECTION
2
OBJECTS
0
DICTIONARY
5
C
100
AcDbDictionary
3
ACAD_GROUP
350
D
3
ACAD_MLINESTYLE
350
17
0
DICTIONARY
5
D
100
AcDbDictionary
0
DICTIONARY
5
1A
330
C
100
AcDbDictionary
0
DICTIONARY
5
17
100
AcDbDictionary
0
ENDSEC
0
EOF
