0
SECTION
2
HEADER
9
$INSUNITS
70
4
9
$ACADVER
1
AC1014
9
$HANDSEED
5
FFFF
0
ENDSEC
0
SECTION
2
TABLES
0
TABLE
2
VPORT
5
8
100
AcDbSymbolTable
0
ENDTAB
0
TABLE
2
LTYPE
5
5
100
AcDbSymbolTable
0
LTYPE
5
14
100
AcDbSymbolTableRecord
100
AcDbLinetypeTableRecord
2
BYBLOCK
70
0
0
LTYPE
5
15
100
AcDbSymbolTableRecord
100
AcDbLinetypeTableRecord
2
BYLAYER
70
0
0
ENDTAB
0
TABLE
2
LAYER
5
2
100
AcDbSymbolTable
70
2
0
LAYER
5
50
100
AcDbSymbolTableRecord
100
AcDbLayerTableRecord
2
0
70
0
6
CONTINUOUS
0
ENDTAB
0
TABLE
2
STYLE
5
3
100
AcDbSymbolTable
70
1
0
STYLE
5
11
100
AcDbSymbolTableRecord
100
AcDbTextStyleTableRecord
2
STANDARD
70
0
0
ENDTAB
0
TABLE
2
VIEW
5
6
100
AcDbSymbolTable
70
0
0
ENDTAB
0
TABLE
2
UCS
5
7
100
AcDbSymbolTable
70
0
0
ENDTAB
0
TABLE
2
APPID
5
9
100
AcDbSymbolTable
70
2
0
APPID
5
12
100
AcDbSymbolTableRecord
100
AcDbRegAppTableRecord
2
ACAD
70
0
0
ENDTAB
0
TABLE
2
DIMSTYLE
5
A
100
AcDbSymbolTable
70
1
0
ENDTAB
0
TABLE
2
BLOCK_RECORD
5
1
100
AcDbSymbolTable
70
1
0
BLOCK_RECORD
5
1F
100
AcDbSymbolTableRecord
100
AcDbBlockTableRecord
2
*MODEL_SPACE
0
BLOCK_RECORD
5
1B
100
AcDbSymbolTableRecord
100
AcDbBlockTableRecord
2
*PAPER_SPACE
0
ENDTAB
0
ENDSEC
0
SECTION
2
BLOCKS
0
BLOCK
5
20
100
AcDbEntity
100
AcDbBlockBegin
2
*MODEL_SPACE
0
ENDBLK
5
21
100
AcDbEntity
100
AcDbBlockEnd
0
BLOCK
5
1C
100
AcDbEntity
100
AcDbBlockBegin
2
*PAPER_SPACE
0
ENDBLK
5
1D
100
AcDbEntity
100
AcDbBlockEnd
0
ENDSEC
0
SECTION
2
ENTITIES
0
LINE
5
100
100
AcDbEntity
8
0
100
AcDbLine
10
-49.367031970373802
20
9.4705780987812904
30
0
11
4.7512991620681522
21
3.6640355173674988
31
0
0
ARC
5
101
100
AcDbEntity
8
0
100
AcDbCircle
10
-3.3306690738754696e-15
20
0
30
0
40
6.0000000000000036
210
0
220
0
230
1
100
AcDbArc
50
-49.886219174408076
51
37.638151231374444
0
LINE
5
102
100
AcDbEntity
8
0
100
AcDbLine
10
3.8658455437224895
20
-4.5885987220589461
30
0
11
-51.756490629238982
21
1.3793137524710308
31
0
0
ARC
5
103
100
AcDbEntity
8
0
100
AcDbCircle
10
36.998624331760368
20
-20.432807901955581
30
0
40
91.396056166596807
210
0
220
0
230
1
100
AcDbArc
50
166.19283169607246
51
167.3926763176627
0
SPLINE
5
104
100
AcDbEntity
8
0
100
AcDbSpline
70
4
71
5
72
131
73
125
74
0
42
0.000000001
43
0.0000000001
44
0.0000000001
40
0
40
0
40
0
40
0
40
0
40
0
40
0.0083333333333333332
40
0.016666666666666666
40
0.025000000000000001
40
0.033333333333333333
40
0.041666666666666664
40
0.049999999999999996
40
0.058333333333333327
40
0.066666666666666666
40
0.074999999999999997
40
0.083333333333333329
40
0.09166666666666666
40
0.099999999999999992
40
0.10833333333333332
40
0.11666666666666665
40
0.12499999999999999
40
0.13333333333333333
40
0.14166666666666666
40
0.14999999999999999
40
0.15833333333333333
40
0.16666666666666666
40
0.17499999999999999
40
0.18333333333333332
40
0.19166666666666665
40
0.19999999999999998
40
0.20833333333333331
40
0.21666666666666665
40
0.22499999999999998
40
0.23333333333333331
40
0.24166666666666664
40
0.24999999999999997
40
0.2583333333333333
40
0.26666666666666666
40
0.27500000000000002
40
0.28333333333333338
40
0.29166666666666674
40
0.3000000000000001
40
0.30833333333333346
40
0.31666666666666682
40
0.32500000000000018
40
0.33333333333333354
40
0.3416666666666669
40
0.35000000000000026
40
0.35833333333333361
40
0.36666666666666697
40
0.37500000000000033
40
0.38333333333333369
40
0.39166666666666705
40
0.40000000000000041
40
0.40833333333333377
40
0.41666666666666713
40
0.42500000000000049
40
0.43333333333333385
40
0.44166666666666721
40
0.45000000000000057
40
0.45833333333333393
40
0.46666666666666728
40
0.47500000000000064
40
0.483333333333334
40
0.49166666666666736
40
0.50000000000000067
40
0.50833333333333397
40
0.51666666666666727
40
0.52500000000000058
40
0.53333333333333388
40
0.54166666666666718
40
0.55000000000000049
40
0.55833333333333379
40
0.5666666666666671
40
0.5750000000000004
40
0.5833333333333337
40
0.59166666666666701
40
0.60000000000000031
40
0.60833333333333361
40
0.61666666666666692
40
0.62500000000000022
40
0.63333333333333353
40
0.64166666666666683
40
0.65000000000000013
40
0.65833333333333344
40
0.66666666666666674
40
0.67500000000000004
40
0.68333333333333335
40
0.69166666666666665
40
0.69999999999999996
40
0.70833333333333326
40
0.71666666666666656
40
0.72499999999999987
40
0.73333333333333317
40
0.74166666666666647
40
0.74999999999999978
40
0.75833333333333308
40
0.76666666666666639
40
0.77499999999999969
40
0.78333333333333299
40
0.7916666666666663
40
0.7999999999999996
40
0.8083333333333329
40
0.81666666666666621
40
0.82499999999999951
40
0.83333333333333282
40
0.84166666666666612
40
0.84999999999999942
40
0.85833333333333273
40
0.86666666666666603
40
0.87499999999999933
40
0.88333333333333264
40
0.89166666666666594
40
0.89999999999999925
40
0.90833333333333255
40
0.91666666666666585
40
0.92499999999999916
40
0.93333333333333246
40
0.94166666666666576
40
0.94999999999999907
40
0.95833333333333237
40
0.96666666666666567
40
0.97499999999999898
40
0.98333333333333228
40
0.99166666666666559
40
1
40
1
40
1
40
1
40
1
40
1
41
1
41
1
41
1
41
1
41
1
41
1
41
1
41
1
41
1
41
1
41
1
41
1
41
1
41
1
41
1
41
1
41
1
41
1
41
1
41
1
41
1
41
1
41
1
41
1
41
1
41
1
41
1
41
1
41
1
41
1
41
1
41
1
41
1
41
1
41
1
41
1
41
1
41
1
41
1
41
1
41
1
41
1
41
1
41
1
41
1
41
1
41
1
41
1
41
1
41
1
41
1
41
1
41
1
41
1
41
1
41
1
41
1
41
1
41
1
41
1
41
1
41
1
41
1
41
1
41
1
41
1
41
1
41
1
41
1
41
1
41
1
41
1
41
1
41
1
41
1
41
1
41
1
41
1
41
1
41
1
41
1
41
1
41
1
41
1
41
1
41
1
41
1
41
1
41
1
41
1
41
1
41
1
41
1
41
1
41
1
41
1
41
1
41
1
41
1
41
1
41
1
41
1
41
1
41
1
41
1
41
1
41
1
41
1
41
1
41
1
41
1
41
1
41
1
41
1
41
1
41
1
41
1
41
1
41
1
41
1
41
1
41
1
41
1
41
1
41
1
10
-49.367031970373773
20
9.4705780987813597
30
0
10
-50.236976043501038
20
10.243012787346711
30
0
10
-51.960667973356948
20
11.782806189550916
30
0
10
-54.497616217841134
20
14.077260981378588
30
0
10
-57.783032271687816
20
17.106124004291402
30
0
10
-61.728431206746244
20
20.856260803171619
30
0
10
-65.514525692623295
20
24.615913712703787
30
0
10
-69.1452440418756
20
28.473913586929676
30
0
10
-72.62791625350954
20
32.583572568403014
30
0
10
-75.967965602461547
20
37.134013134552177
30
0
10
-79.16103989333152
20
42.303950832991355
30
0
10
-82.186659868085897
20
48.224328269047007
30
0
10
-84.999677611686309
20
54.930246588777656
30
0
10
-87.527695274512837
20
62.340131926192882
30
0
10
-89.682340960587069
20
70.297200812071992
30
0
10
-91.367755102226624
20
78.598440530283725
30
0
10
-92.490316678120593
20
87.029086366337509
30
0
10
-92.967528491910741
20
95.393445875611576
30
0
10
-92.73801384185569
20
103.55039603781221
30
0
10
-91.768786800258283
20
111.4374989060052
30
0
10
-90.050712589135827
20
119.04574074426442
30
0
10
-87.595606845319537
20
126.40128428294008
30
0
10
-84.432717615638552
20
133.54417349065238
30
0
10
-80.60545849071849
20
140.50912098019026
30
0
10
-76.168092701792887
20
147.30354917020463
30
0
10
-71.182291317810481
20
153.89241088113442
30
0
10
-65.712901965330261
20
160.21226623649306
30
0
10
-59.823809945030533
20
166.18133215216932
30
0
10
-53.57381646585803
20
171.7110146309625
30
0
10
-47.012387245328171
20
176.716973905972
30
0
10
-40.175737849985609
20
181.12999317518972
30
0
10
-33.082004653454689
20
184.90800469717431
30
0
10
-25.737401937067787
20
188.03298106117131
30
0
10
-18.143646498305316
20
190.50614782085336
30
0
10
-10.304788090330941
20
192.34382519622838
30
0
10
-2.2346032831000362
20
193.57297172094655
30
0
10
6.0369801785355683
20
194.22695850863857
30
0
10
14.455138839857959
20
194.34099996799074
30
0
10
22.945487802353743
20
193.94941780412393
30
0
10
31.423561235539314
20
193.0833783181389
30
0
10
39.802762051527722
20
191.76854832659149
30
0
10
48.003248536081529
20
190.0226108325416
30
0
10
55.959728478363509
20
187.8532376374431
30
0
10
63.631408297204871
20
185.25489132810719
30
0
10
71.005386221441455
20
182.20938763165231
30
0
10
78.086916205537875
20
178.69412044998168
30
0
10
84.892547539260278
20
174.68854799338254
30
0
10
91.441950571042909
20
170.1816021433836
30
0
10
97.750698876774493
20
165.17818502868141
30
0
10
103.82169789315353
20
159.70731916769245
30
0
10
109.64013120297595
20
153.82568247220294
30
0
10
115.17969498164831
20
147.60609938980605
30
0
10
120.40696740465583
20
141.12851404606513
30
0
10
125.28648723688829
20
134.47004426768214
30
0
10
129.78557403181674
20
127.69530973490393
30
0
10
133.8791531052066
20
120.84691642022547
30
0
10
137.55487379952729
20
113.93510632887111
30
0
10
140.81052982591342
20
106.94740191084205
30
0
10
143.65107859302765
20
99.859271866736179
30
0
10
146.08580638615049
20
92.644443231051113
30
0
10
148.12544575658171
20
85.285302220762119
30
0
10
149.7792888317563
20
77.783398210806652
30
0
10
151.05237533383936
20
70.169520535833655
30
0
10
151.9463270534394
20
62.493261291587686
30
0
10
152.46010311922498
20
54.813141301635582
30
0
10
152.59077508816003
20
47.18633945580094
30
0
10
152.33431305487872
20
39.659025420842781
30
0
10
151.68631858206078
20
32.255393770985876
30
0
10
150.64292785041749
20
24.970341055605569
30
0
10
149.20284906724359
20
17.783423877890275
30
0
10
147.36917196369313
20
10.669946862857692
30
0
10
145.15145940951192
20
3.6138439717195832
30
0
10
142.56728268645654
20
-3.3817761715410111
30
0
10
139.64508456049009
20
-10.279186098681967
30
0
10
136.42216733657384
20
-17.008117999460197
30
0
10
132.93780528014315
20
-23.485208575075326
30
0
10
129.22774972061785
20
-29.628582421321568
30
0
10
125.31801869201553
20
-35.374731100628537
30
0
10
121.21932938347976
20
-40.693691419483073
30
0
10
116.92033280454977
20
-45.606920105687394
30
0
10
112.39749425493937
20
-50.169488595269762
30
0
10
107.62615739550661
20
-54.449714675824893
30
0
10
102.59137478341154
20
-58.50942155835159
30
0
10
97.29839733979432
20
-62.384621078321601
30
0
10
91.784509158770433
20
-66.064152972341432
30
0
10
86.108029066990468
20
-69.503942283398374
30
0
10
80.335740109929915
20
-72.643763889446006
30
0
10
74.530665824967627
20
-75.423360370011224
30
0
10
68.740221195852754
20
-77.798212060056485
30
0
10
62.982795404971569
20
-79.757120360580728
30
0
10
57.255901507536471
20
-81.314770231031716
30
0
10
51.546907654262348
20
-82.50155293793425
30
0
10
45.842148395938274
20
-83.354678775205741
30
0
10
40.138328821069379
20
-83.908051483641529
30
0
10
34.447701873554266
20
-84.184958634124882
30
0
10
28.789194780777599
20
-84.196949658777314
30
0
10
23.182220843591836
20
-83.941411299510946
30
0
10
17.639629594946932
20
-83.399838992208984
30
0
10
12.16044505725832
20
-82.535271534931042
30
0
10
6.740964831556532
20
-81.30833204781824
30
0
10
1.388063813687068
20
-79.695677266230433
30
0
10
-3.8704887335900939
20
-77.704756352890342
30
0
10
-8.9690309644774686
20
-75.39713498903042
30
0
10
-13.819295462384652
20
-72.870281794908593
30
0
10
-18.343674411662647
20
-70.216611334700616
30
0
10
-22.498303948602569
20
-67.494815686686351
30
0
10
-26.31101964154827
20
-64.68404296904724
30
0
10
-29.869725917529017
20
-61.694295129659139
30
0
10
-33.263546072233872
20
-58.429810248844078
30
0
10
-36.540709922780351
20
-54.834176018182447
30
0
10
-39.650359606913739
20
-50.952034713598806
30
0
10
-42.486128092266753
20
-46.889728594911773
30
0
10
-44.942287127970417
20
-42.763406208215848
30
0
10
-46.968641112312604
20
-38.648829317708568
30
0
10
-48.617066558815829
20
-34.537995546631272
30
0
10
-49.979463703855345
20
-30.386238353641847
30
0
10
-51.141285795953976
20
-26.146999009909209
30
0
10
-52.115856466567323
20
-21.820830218042499
30
0
10
-52.852950144159166
20
-17.450834145212458
30
0
10
-53.280345328782126
20
-13.094306682080267
30
0
10
-53.339353157909137
20
-8.7990289085153996
30
0
10
-53.075842523853566
20
-5.4285990003960869
30
0
10
-52.702566682629559
20
-2.9408209808359538
30
0
10
-52.376277168501559
20
-1.299976635801886
30
0
10
-52.193769677859656
20
-0.48397501277603561
30
0
0
CIRCLE
5
105
100
AcDbEntity
8
0
100
AcDbCircle
10
7.2856448508858263
20
-16.459628765763856
30
0
40
3.2000000000000006
210
0
220
-0
230
1
0
CIRCLE
5
106
100
AcDbEntity
8
0
100
AcDbCircle
10
-7.2856448508858236
20
16.459628765763853
30
0
40
3.2000000000000006
210
0
220
-0
230
1
0
ENDSEC
0
SECTION
2
OBJECTS
0
DICTIONARY
5
C
100
AcDbDictionary
3
ACAD_GROUP
350
D
3
ACAD_MLINESTYLE
350
17
0
DICTIONARY
5
D
100
AcDbDictionary
0
DICTIONARY
5
1A
330
C
100
AcDbDictionary
0
DICTIONARY
5
17
100
AcDbDictionary
0
ENDSEC
0
EOF
