0
SECTION
2
HEADER
9
$INSUNITS
70
4
9
$ACADVER
1
AC1014
9
$HANDSEED
5
FFFF
0
ENDSEC
0
SECTION
2
TABLES
0
TABLE
2
VPORT
5
8
100
AcDbSymbolTable
0
ENDTAB
0
TABLE
2
LTYPE
5
5
100
AcDbSymbolTable
0
LTYPE
5
14
100
AcDbSymbolTableRecord
100
AcDbLinetypeTableRecord
2
BYBLOCK
70
0
0
LTYPE
5
15
100
AcDbSymbolTableRecord
100
AcDbLinetypeTableRecord
2
BYLAYER
70
0
0
ENDTAB
0
TABLE
2
LAYER
5
2
100
AcDbSymbolTable
70
2
0
LAYER
5
50
100
AcDbSymbolTableRecord
100
AcDbLayerTableRecord
2
0
70
0
6
CONTINUOUS
0
ENDTAB
0
TABLE
2
STYLE
5
3
100
AcDbSymbolTable
70
1
0
STYLE
5
11
100
AcDbSymbolTableRecord
100
AcDbTextStyleTableRecord
2
STANDARD
70
0
0
ENDTAB
0
TABLE
2
VIEW
5
6
100
AcDbSymbolTable
70
0
0
ENDTAB
0
TABLE
2
UCS
5
7
100
AcDbSymbolTable
70
0
0
ENDTAB
0
TABLE
2
APPID
5
9
100
AcDbSymbolTable
70
2
0
APPID
5
12
100
AcDbSymbolTableRecord
100
AcDbRegAppTableRecord
2
ACAD
70
0
0
ENDTAB
0
TABLE
2
DIMSTYLE
5
A
100
AcDbSymbolTable
70
1
0
ENDTAB
0
TABLE
2
BLOCK_RECORD
5
1
100
AcDbSymbolTable
70
1
0
BLOCK_RECORD
5
1F
100
AcDbSymbolTableRecord
100
AcDbBlockTableRecord
2
*MODEL_SPACE
0
BLOCK_RECORD
5
1B
100
AcDbSymbolTableRecord
100
AcDbBlockTableRecord
2
*PAPER_SPACE
0
ENDTAB
0
ENDSEC
0
SECTION
2
BLOCKS
0
BLOCK
5
20
100
AcDbEntity
100
AcDbBlockBegin
2
*MODEL_SPACE
0
ENDBLK
5
21
100
AcDbEntity
100
AcDbBlockEnd
0
BLOCK
5
1C
100
AcDbEntity
100
AcDbBlockBegin
2
*PAPER_SPACE
0
ENDBLK
5
1D
100
AcDbEntity
100
AcDbBlockEnd
0
ENDSEC
0
SECTION
2
ENTITIES
0
LINE
5
100
100
AcDbEntity
8
0
100
AcDbLine
10
-49.482307265847041
20
9.4829463832009004
30
0
11
4.7512991620681522
21
3.6640355173674988
31
0
0
ARC
5
101
100
AcDbEntity
8
0
100
AcDbCircle
10
-3.3306690738754696e-15
20
0
30
0
40
6.0000000000000036
210
0
220
0
230
1
100
AcDbArc
50
-49.886219174408076
51
37.638151231374444
0
LINE
5
102
100
AcDbEntity
8
0
100
AcDbLine
10
3.8658455437224895
20
-4.5885987220589461
30
0
11
-51.427498446139055
21
1.3440150453574073
31
0
0
ARC
5
103
100
AcDbEntity
8
0
100
AcDbCircle
10
15.31381443338228
20
-13.036624172354552
30
0
40
68.273022704375379
210
0
220
0
230
1
100
AcDbArc
50
167.84047454330252
51
169.60034781451645
0
SPLINE
5
104
100
AcDbEntity
8
0
100
AcDbSpline
70
4
71
5
72
131
73
125
74
0
42
0.000000001
43
0.0000000001
44
0.0000000001
40
0.00051759567154525813
40
0.00051759567154525813
40
0.00051759567154525813
40
0.00051759567154525813
40
0.00051759567154525813
40
0.00051759567154525813
40
0.0083333333333333332
40
0.016666666666666666
40
0.025000000000000001
40
0.033333333333333333
40
0.041666666666666664
40
0.049999999999999996
40
0.058333333333333327
40
0.066666666666666666
40
0.074999999999999997
40
0.083333333333333329
40
0.09166666666666666
40
0.099999999999999992
40
0.10833333333333332
40
0.11666666666666665
40
0.12499999999999999
40
0.13333333333333333
40
0.14166666666666666
40
0.14999999999999999
40
0.15833333333333333
40
0.16666666666666666
40
0.17499999999999999
40
0.18333333333333332
40
0.19166666666666665
40
0.19999999999999998
40
0.20833333333333331
40
0.21666666666666665
40
0.22499999999999998
40
0.23333333333333331
40
0.24166666666666664
40
0.24999999999999997
40
0.2583333333333333
40
0.26666666666666666
40
0.27500000000000002
40
0.28333333333333338
40
0.29166666666666674
40
0.3000000000000001
40
0.30833333333333346
40
0.31666666666666682
40
0.32500000000000018
40
0.33333333333333354
40
0.3416666666666669
40
0.35000000000000026
40
0.35833333333333361
40
0.36666666666666697
40
0.37500000000000033
40
0.38333333333333369
40
0.39166666666666705
40
0.40000000000000041
40
0.40833333333333377
40
0.41666666666666713
40
0.42500000000000049
40
0.43333333333333385
40
0.44166666666666721
40
0.45000000000000057
40
0.45833333333333393
40
0.46666666666666728
40
0.47500000000000064
40
0.483333333333334
40
0.49166666666666736
40
0.50000000000000067
40
0.50833333333333397
40
0.51666666666666727
40
0.52500000000000058
40
0.53333333333333388
40
0.54166666666666718
40
0.55000000000000049
40
0.55833333333333379
40
0.5666666666666671
40
0.5750000000000004
40
0.5833333333333337
40
0.59166666666666701
40
0.60000000000000031
40
0.60833333333333361
40
0.61666666666666692
40
0.62500000000000022
40
0.63333333333333353
40
0.64166666666666683
40
0.65000000000000013
40
0.65833333333333344
40
0.66666666666666674
40
0.67500000000000004
40
0.68333333333333335
40
0.69166666666666665
40
0.69999999999999996
40
0.70833333333333326
40
0.71666666666666656
40
0.72499999999999987
40
0.73333333333333317
40
0.74166666666666647
40
0.74999999999999978
40
0.75833333333333308
40
0.76666666666666639
40
0.77499999999999969
40
0.78333333333333299
40
0.7916666666666663
40
0.7999999999999996
40
0.8083333333333329
40
0.81666666666666621
40
0.82499999999999951
40
0.83333333333333282
40
0.84166666666666612
40
0.84999999999999942
40
0.85833333333333273
40
0.86666666666666603
40
0.87499999999999933
40
0.88333333333333264
40
0.89166666666666594
40
0.89999999999999925
40
0.90833333333333255
40
0.91666666666666585
40
0.92499999999999916
40
0.93333333333333246
40
0.94166666666666576
40
0.94999999999999907
40
0.95833333333333237
40
0.96666666666666567
40
0.97499999999999898
40
0.98333333333333228
40
0.99166666666666559
40
1
40
1
40
1
40
1
40
1
40
1
41
1
41
1
41
1
41
1
41
1
41
1
41
1
41
1
41
1
41
1
41
1
41
1
41
1
41
1
41
1
41
1
41
1
41
1
41
1
41
1
41
1
41
1
41
1
41
1
41
1
41
1
41
1
41
1
41
1
41
1
41
1
41
1
41
1
41
1
41
1
41
1
41
1
41
1
41
1
41
1
41
1
41
1
41
1
41
1
41
1
41
1
41
1
41
1
41
1
41
1
41
1
41
1
41
1
41
1
41
1
41
1
41
1
41
1
41
1
41
1
41
1
41
1
41
1
41
1
41
1
41
1
41
1
41
1
41
1
41
1
41
1
41
1
41
1
41
1
41
1
41
1
41
1
41
1
41
1
41
1
41
1
41
1
41
1
41
1
41
1
41
1
41
1
41
1
41
1
41
1
41
1
41
1
41
1
41
1
41
1
41
1
41
1
41
1
41
1
41
1
41
1
41
1
41
1
41
1
41
1
41
1
41
1
41
1
41
1
41
1
41
1
41
1
41
1
41
1
41
1
41
1
41
1
41
1
41
1
41
1
41
1
41
1
41
1
41
1
41
1
10
-49.482307265847041
20
9.4829463832009004
30
0
10
-50.272678405347321
20
10.194987709493162
30
0
10
-51.888977550657806
20
11.659714471902035
30
0
10
-54.286748512741745
20
13.859881640135949
30
0
10
-57.393838543203174
20
16.767742176105042
30
0
10
-61.111422105890071
20
20.360260897673538
30
0
10
-64.695693106482878
20
23.992730151750091
30
0
10
-68.106789606731326
20
27.717918072936474
30
0
10
-71.357045567504116
20
31.704675322412484
30
0
10
-74.458550741416161
20
36.158824734091041
30
0
10
-77.414900346822449
20
41.271039856684823
30
0
10
-80.214521717837485
20
47.174934301156341
30
0
10
-82.821670316696355
20
53.891330859172442
30
0
10
-85.174084730065005
20
61.310867282596519
30
0
10
-87.192358595363132
20
69.243713602928395
30
0
10
-88.786685478186698
20
77.454118999829021
30
0
10
-89.864705504831306
20
85.701637983852237
30
0
10
-90.338755712811462
20
93.778062210926066
30
0
10
-90.133672803574541
20
101.54962633214404
30
0
10
-89.193490331790386
20
108.98676829567427
30
0
10
-87.482682963783347
20
116.12772493908051
30
0
10
-84.987980964379318
20
123.05055412854715
30
0
10
-81.720165297037184
20
129.84114008238865
30
0
10
-77.715449479047052
20
136.56470426431551
30
0
10
-73.038093805285314
20
143.2315072537794
30
0
10
-67.779199936177903
20
149.77866390659364
30
0
10
-62.044543288702357
20
156.09734591742807
30
0
10
-55.944276676864916
20
162.052020304161
30
0
10
-49.582115413829904
20
167.5024643162393
30
0
10
-43.044246212107609
20
172.32539855092523
30
0
10
-36.389511872222428
20
176.43439519996494
30
0
10
-29.636027780872979
20
179.80544048250468
30
0
10
-22.769139292446088
20
182.46782955205526
30
0
10
-15.756132018867209
20
184.4840645256335
30
0
10
-8.5585780187769949
20
185.93356936279466
30
0
10
-1.1458972911040552
20
186.89452730150848
30
0
10
6.4921424125031901
20
187.42721209594831
30
0
10
14.331007078886035
20
187.55483224415764
30
0
10
22.318277198692364
20
187.2713653066055
30
0
10
30.382800759093421
20
186.55227258945075
30
0
10
38.442905703022227
20
185.36400019432665
30
0
10
46.415275145688852
20
183.67438863120424
30
0
10
54.222900166229181
20
181.46175355334867
30
0
10
61.805028098835535
20
178.72689959344402
30
0
10
69.11883766254418
20
175.49291056530512
30
0
10
76.135902039903669
20
171.79717587999272
30
0
10
82.840226221158218
20
167.68584798951258
30
0
10
89.225640384322418
20
163.20710661078778
30
0
10
95.293474722826318
20
158.40538621203021
30
0
10
101.05011774933138
20
153.31409501420472
30
0
10
106.5046218167634
20
147.95276500351903
30
0
10
111.66622867761686
20
142.33161682203942
30
0
10
116.54197655901896
20
136.45441730584517
30
0
10
121.13414947916475
20
130.3220728052479
30
0
10
125.43807830704981
20
123.93578443598497
30
0
10
129.43909548441735
20
117.30068648571344
30
0
10
133.1121569843026
20
110.42829938635117
30
0
10
136.4271107282257
20
103.33665194402315
30
0
10
139.35274420113751
20
96.050857316491275
30
0
10
141.86140760486921
20
88.603574256404528
30
0
10
143.93318856179391
20
81.035377257677254
30
0
10
145.56077045839939
20
73.39551358228718
30
0
10
146.75253819950512
20
65.741462124358151
30
0
10
147.52691221150036
20
58.132181701182468
30
0
10
147.90786579136375
20
50.622273941792173
30
0
10
147.91987468290441
20
43.255585833350921
30
0
10
147.5833669430165
20
36.059512880337465
30
0
10
146.90934112009526
20
29.037877468377108
30
0
10
145.89622490234234
20
22.167834140243659
30
0
10
144.53590470282353
20
15.413541798430675
30
0
10
142.81829333632871
20
8.7370764019545319
30
0
10
140.73670304091968
20
2.1110172896007171
30
0
10
138.29233301088567
20
-4.4710555119314961
30
0
10
135.50052858490926
20
-10.979636818551562
30
0
10
132.38831170626651
20
-17.356488475557704
30
0
10
128.98854462619184
20
-23.53038160453994
30
0
10
125.33507132318066
20
-29.430364353165412
30
0
10
121.45770820393174
20
-34.999392443372848
30
0
10
117.37669163827482
20
-40.209394273185794
30
0
10
113.09918113231022
20
-45.070958531147802
30
0
10
108.62580158959898
20
-49.616685840011527
30
0
10
103.95590615259202
20
-53.887970923041365
30
0
10
99.093159291317804
20
-57.920769702773896
30
0
10
94.0513966319498
20
-61.731065978839553
30
0
10
88.859198725234805
20
-65.302556706416524
30
0
10
83.550619239070016
20
-68.599983013520728
30
0
10
78.156644463894608
20
-71.580725841565013
30
0
10
72.697039325097549
20
-74.206563843477326
30
0
10
67.170471458230466
20
-76.456521072944838
30
0
10
61.549945211567447
20
-78.335809528202859
30
0
10
55.803654290769693
20
-79.864684972204088
30
0
10
49.914023223156072
20
-81.069466519410497
30
0
10
43.894457111179548
20
-81.97361236490832
30
0
10
37.814289759286488
20
-82.586626020922225
30
0
10
31.793733068397895
20
-82.901806766640348
30
0
10
25.961792479503917
20
-82.905331611417793
30
0
10
20.421886801025309
20
-82.582657740226622
30
0
10
15.218005239940718
20
-81.925569315037734
30
0
10
10.291057113532752
20
-80.940095014093856
30
0
10
5.519159711428828
20
-79.644883916348903
30
0
10
0.77972112256288084
20
-78.067475686990321
30
0
10
-4.0008921341701074
20
-76.241023034061399
30
0
10
-8.7800994882286272
20
-74.201566243991223
30
0
10
-13.438520978794305
20
-71.978129650710144
30
0
10
-17.846902590123289
20
-69.57950428846317
30
0
10
-21.917626416993592
20
-66.984954943392239
30
0
10
-25.677754104176369
20
-64.126294020909512
30
0
10
-29.230013632925811
20
-60.92176739967887
30
0
10
-32.68035531702148
20
-57.326628496343616
30
0
10
-36.079228154105337
20
-53.375501151796165
30
0
10
-39.350419812276833
20
-49.235085122452126
30
0
10
-42.34835934499764
20
-45.123286709303244
30
0
10
-44.925546348380216
20
-41.216224965104558
30
0
10
-46.994135928005662
20
-37.563905871974349
30
0
10
-48.595750206952147
20
-33.991182338697016
30
0
10
-49.839394905150947
20
-30.237846483789241
30
0
10
-50.839637072768824
20
-26.094031625579071
30
0
10
-51.640811628903933
20
-21.57182872734024
30
0
10
-52.225238779678534
20
-16.867440713012307
30
0
10
-52.553842929065539
20
-12.243031312812429
30
0
10
-52.597988678458677
20
-7.9303548013346346
30
0
10
-52.415593296962733
20
-4.8161279599792746
30
0
10
-52.167825742206624
20
-2.6850387373031208
30
0
10
-51.955562453514887
20
-1.3548783397606123
30
0
10
-51.837657740113023
20
-0.71244411344430381
30
0
0
CIRCLE
5
105
100
AcDbEntity
8
0
100
AcDbCircle
10
7.2856448508858263
20
-16.459628765763856
30
0
40
3.2000000000000006
210
0
220
-0
230
1
0
CIRCLE
5
106
100
AcDbEntity
8
0
100
AcDbCircle
10
-7.2856448508858236
20
16.459628765763853
30
0
40
3.2000000000000006
210
0
220
-0
230
1
0
ENDSEC
0
SECTION
2
OBJECTS
0
DICTIONARY
5
C
100
AcDbDictionary
3
ACAD_GROUP
350
D
3
ACAD_MLINESTYLE
350
17
0
DICTIONARY
5
D
100
AcDbDictionary
0
DICTIONARY
5
1A
330
C
100
AcDbDictionary
0
DICTIONARY
5
17
100
AcDbDictionary
0
ENDSEC
0
EOF
