0
SECTION
2
HEADER
9
$INSUNITS
70
4
9
$ACADVER
1
AC1014
9
$HANDSEED
5
FFFF
0
ENDSEC
0
SECTION
2
TABLES
0
TABLE
2
VPORT
5
8
100
AcDbSymbolTable
0
ENDTAB
0
TABLE
2
LTYPE
5
5
100
AcDbSymbolTable
0
LTYPE
5
14
100
AcDbSymbolTableRecord
100
AcDbLinetypeTableRecord
2
BYBLOCK
70
0
0
LTYPE
5
15
100
AcDbSymbolTableRecord
100
AcDbLinetypeTableRecord
2
BYLAYER
70
0
0
ENDTAB
0
TABLE
2
LAYER
5
2
100
AcDbSymbolTable
70
2
0
LAYER
5
50
100
AcDbSymbolTableRecord
100
AcDbLayerTableRecord
2
0
70
0
6
CONTINUOUS
0
ENDTAB
0
TABLE
2
STYLE
5
3
100
AcDbSymbolTable
70
1
0
STYLE
5
11
100
AcDbSymbolTableRecord
100
AcDbTextStyleTableRecord
2
STANDARD
70
0
0
ENDTAB
0
TABLE
2
VIEW
5
6
100
AcDbSymbolTable
70
0
0
ENDTAB
0
TABLE
2
UCS
5
7
100
AcDbSymbolTable
70
0
0
ENDTAB
0
TABLE
2
APPID
5
9
100
AcDbSymbolTable
70
2
0
APPID
5
12
100
AcDbSymbolTableRecord
100
AcDbRegAppTableRecord
2
ACAD
70
0
0
ENDTAB
0
TABLE
2
DIMSTYLE
5
A
100
AcDbSymbolTable
70
1
0
ENDTAB
0
TABLE
2
BLOCK_RECORD
5
1
100
AcDbSymbolTable
70
1
0
BLOCK_RECORD
5
1F
100
AcDbSymbolTableRecord
100
AcDbBlockTableRecord
2
*MODEL_SPACE
0
BLOCK_RECORD
5
1B
100
AcDbSymbolTableRecord
100
AcDbBlockTableRecord
2
*PAPER_SPACE
0
ENDTAB
0
ENDSEC
0
SECTION
2
BLOCKS
0
BLOCK
5
20
100
AcDbEntity
100
AcDbBlockBegin
2
*MODEL_SPACE
0
ENDBLK
5
21
100
AcDbEntity
100
AcDbBlockEnd
0
BLOCK
5
1C
100
AcDbEntity
100
AcDbBlockBegin
2
*PAPER_SPACE
0
ENDBLK
5
1D
100
AcDbEntity
100
AcDbBlockEnd
0
ENDSEC
0
SECTION
2
ENTITIES
0
LINE
5
100
100
AcDbEntity
8
0
100
AcDbLine
10
-4.7512991620681477
20
3.6640355173674988
30
0
11
48.741121444547133
21
9.4034219976170963
31
0
0
ARC
5
101
100
AcDbEntity
8
0
100
AcDbCircle
10
-37.016604269111667
20
-15.891955440415783
30
0
40
89.410534274836309
210
0
220
-0
230
1
100
AcDbArc
50
16.43412212565261
51
16.52633148282451
0
SPLINE
5
102
100
AcDbEntity
8
0
100
AcDbSpline
70
4
71
5
72
131
73
125
74
0
42
0.000000001
43
0.0000000001
44
0.0000000001
40
0
40
0
40
0
40
0
40
0
40
0
40
0.0083333333333333332
40
0.016666666666666666
40
0.025000000000000001
40
0.033333333333333333
40
0.041666666666666664
40
0.049999999999999996
40
0.058333333333333327
40
0.066666666666666666
40
0.074999999999999997
40
0.083333333333333329
40
0.09166666666666666
40
0.099999999999999992
40
0.10833333333333332
40
0.11666666666666665
40
0.12499999999999999
40
0.13333333333333333
40
0.14166666666666666
40
0.14999999999999999
40
0.15833333333333333
40
0.16666666666666666
40
0.17499999999999999
40
0.18333333333333332
40
0.19166666666666665
40
0.19999999999999998
40
0.20833333333333331
40
0.21666666666666665
40
0.22499999999999998
40
0.23333333333333331
40
0.24166666666666664
40
0.24999999999999997
40
0.2583333333333333
40
0.26666666666666666
40
0.27500000000000002
40
0.28333333333333338
40
0.29166666666666674
40
0.3000000000000001
40
0.30833333333333346
40
0.31666666666666682
40
0.32500000000000018
40
0.33333333333333354
40
0.3416666666666669
40
0.35000000000000026
40
0.35833333333333361
40
0.36666666666666697
40
0.37500000000000033
40
0.38333333333333369
40
0.39166666666666705
40
0.40000000000000041
40
0.40833333333333377
40
0.41666666666666713
40
0.42500000000000049
40
0.43333333333333385
40
0.44166666666666721
40
0.45000000000000057
40
0.45833333333333393
40
0.46666666666666728
40
0.47500000000000064
40
0.483333333333334
40
0.49166666666666736
40
0.50000000000000067
40
0.50833333333333397
40
0.51666666666666727
40
0.52500000000000058
40
0.53333333333333388
40
0.54166666666666718
40
0.55000000000000049
40
0.55833333333333379
40
0.5666666666666671
40
0.5750000000000004
40
0.5833333333333337
40
0.59166666666666701
40
0.60000000000000031
40
0.60833333333333361
40
0.61666666666666692
40
0.62500000000000022
40
0.63333333333333353
40
0.64166666666666683
40
0.65000000000000013
40
0.65833333333333344
40
0.66666666666666674
40
0.67500000000000004
40
0.68333333333333335
40
0.69166666666666665
40
0.69999999999999996
40
0.70833333333333326
40
0.71666666666666656
40
0.72499999999999987
40
0.73333333333333317
40
0.74166666666666647
40
0.74999999999999978
40
0.75833333333333308
40
0.76666666666666639
40
0.77499999999999969
40
0.78333333333333299
40
0.7916666666666663
40
0.7999999999999996
40
0.8083333333333329
40
0.81666666666666621
40
0.82499999999999951
40
0.83333333333333282
40
0.84166666666666612
40
0.84999999999999942
40
0.85833333333333273
40
0.86666666666666603
40
0.87499999999999933
40
0.88333333333333264
40
0.89166666666666594
40
0.89999999999999925
40
0.90833333333333255
40
0.91666666666666585
40
0.92499999999999916
40
0.93333333333333246
40
0.94166666666666576
40
0.94999999999999907
40
0.95833333333333237
40
0.96666666666666567
40
0.97499999999999898
40
0.98333333333333228
40
0.99166666666666559
40
1
40
1
40
1
40
1
40
1
40
1
41
1
41
1
41
1
41
1
41
1
41
1
41
1
41
1
41
1
41
1
41
1
41
1
41
1
41
1
41
1
41
1
41
1
41
1
41
1
41
1
41
1
41
1
41
1
41
1
41
1
41
1
41
1
41
1
41
1
41
1
41
1
41
1
41
1
41
1
41
1
41
1
41
1
41
1
41
1
41
1
41
1
41
1
41
1
41
1
41
1
41
1
41
1
41
1
41
1
41
1
41
1
41
1
41
1
41
1
41
1
41
1
41
1
41
1
41
1
41
1
41
1
41
1
41
1
41
1
41
1
41
1
41
1
41
1
41
1
41
1
41
1
41
1
41
1
41
1
41
1
41
1
41
1
41
1
41
1
41
1
41
1
41
1
41
1
41
1
41
1
41
1
41
1
41
1
41
1
41
1
41
1
41
1
41
1
41
1
41
1
41
1
41
1
41
1
41
1
41
1
41
1
41
1
41
1
41
1
41
1
41
1
41
1
41
1
41
1
41
1
41
1
41
1
41
1
41
1
41
1
41
1
41
1
41
1
41
1
41
1
41
1
41
1
41
1
41
1
41
1
10
48.700301114812845
20
9.5414039663753378
30
0
10
49.466578485237449
20
10.341500663690848
30
0
10
50.976492940341977
20
11.923533769698873
30
0
10
53.173441603664678
20
14.242092711029583
30
0
10
55.966863838567136
20
17.224596284925454
30
0
10
59.23482885785716
20
20.788412190331265
30
0
10
62.287260197617584
20
24.241237538066432
30
0
10
65.140212588552856
20
27.686996733514896
30
0
10
67.822058351156358
20
31.305867078401249
30
0
10
70.365163678741013
20
35.321744021665275
30
0
10
72.791452134468642
20
39.942860594404202
30
0
10
75.101405088208566
20
45.316347336664649
30
0
10
77.258182318983756
20
51.464590055182803
30
0
10
79.186735257575251
20
58.275798020852903
30
0
10
80.790236337940158
20
65.556731618324477
30
0
10
81.961869636373251
20
73.068802099780171
30
0
10
82.598884744743259
20
80.572269848781076
30
0
10
82.614796086665962
20
87.863811060142041
30
0
10
81.954537207453555
20
94.824615397472456
30
0
10
80.601050353205721
20
101.43791033433169
30
0
10
78.566054775057395
20
107.74967838733136
30
0
10
75.884324896931275
20
113.84235574512314
30
0
10
72.606464369104515
20
119.80211292789427
30
0
10
68.792587080778205
20
125.69174364389612
30
0
10
64.504980908574709
20
131.51402825317408
30
0
10
59.80386921156186
20
137.20912951389349
30
0
10
54.745544011657174
20
142.67969373670661
30
0
10
49.379893931925963
20
147.80783585798261
30
0
10
43.748038123462806
20
152.47595961612387
30
0
10
37.880234104188254
20
156.58474213457902
30
0
10
31.792884215501292
20
160.07521382811458
30
0
10
25.488433903552252
20
162.93986353449316
30
0
10
18.963089347985729
20
165.20538012849894
30
0
10
12.212953096454392
20
166.92085945448883
30
0
10
5.2410209921447795
20
168.14351692717258
30
0
10
-1.9367252896574199
20
168.92625865242863
30
0
10
-9.2835317115946978
20
169.30255588245245
30
0
10
-16.738991154316476
20
169.27858611604131
30
0
10
-24.228702957532494
20
168.84365647966032
30
0
10
-31.671581589964589
20
167.9772032504215
30
0
10
-38.988044491682729
20
166.65709055093413
30
0
10
-46.107935126059971
20
164.86747208974606
30
0
10
-52.978301947120059
20
162.60656222060422
30
0
10
-59.571954266081057
20
159.89521249651739
30
0
10
-65.882262273821794
20
156.77068995237778
30
0
10
-71.916913304121152
20
153.27931439930975
30
0
10
-77.692090708126059
20
149.46957415887294
30
0
10
-83.226396018846046
20
145.3849080868286
30
0
10
-88.535079567345832
20
141.05694461159177
30
0
10
-93.623613171414036
20
136.49769654732094
30
0
10
-98.488774639196549
20
131.703822539344
30
0
10
-103.12053608233255
20
126.66218470423198
30
0
10
-107.5036617878626
20
121.3549343902573
30
0
10
-111.61942761242501
20
115.76480446618586
30
0
10
-115.44728266529319
20
109.8802882719516
30
0
10
-118.96654497488964
20
103.70093553143553
30
0
10
-122.1574144258619
20
97.237780603698113
30
0
10
-125.00199204105022
20
90.513748602134868
30
0
10
-127.4852743945752
20
83.563994670322558
30
0
10
-129.59621275904445
20
76.436459126855254
30
0
10
-131.32862322758857
20
69.191911191975578
30
0
10
-132.6824826487059
20
61.905320375709081
30
0
10
-133.66291395101018
20
54.659212977771062
30
0
10
-134.27844963670296
20
47.534453553452764
30
0
10
-134.5395744177608
20
40.602130279360942
30
0
10
-134.4570725493393
20
33.914433379964571
30
0
10
-134.04064606009052
20
27.497219512367916
30
0
10
-133.29694563990981
20
21.338650067265476
30
0
10
-132.23020109344156
20
15.395457991690138
30
0
10
-130.84415027980691
20
9.6082015353168799
30
0
10
-129.14366766362261
20
3.9141538690854083
30
0
10
-127.13628937862444
20
-1.7398019554728286
30
0
10
-124.83433843675942
20
-7.3819213398197538
30
0
10
-122.25482354474025
20
-13.009733193544225
30
0
10
-119.41596726118819
20
-18.59861504508342
30
0
10
-116.33452050629802
20
-24.106897543456007
30
0
10
-113.02280702335833
20
-29.482349803714918
30
0
10
-109.48576956792805
20
-34.668098034162576
30
0
10
-105.7183372389288
20
-39.608706154117648
30
0
10
-101.71294513692054
20
-44.254755383047424
30
0
10
-97.466397178130222
20
-48.567360245114813
30
0
10
-92.987481193512863
20
-52.523041948733997
30
0
10
-88.303115956048714
20
-56.117697576669556
30
0
10
-83.46812150565799
20
-59.372932968687415
30
0
10
-78.552207040976697
20
-62.327360723360165
30
0
10
-73.621224576703057
20
-65.024047306858833
30
0
10
-68.719675395082007
20
-67.498921594946239
30
0
10
-63.854234415614641
20
-69.769557098016548
30
0
10
-58.97269957323536
20
-71.821723698067089
30
0
10
-53.991293940396112
20
-73.619795555020872
30
0
10
-48.830519117819733
20
-75.121139750954697
30
0
10
-43.445483352845898
20
-76.288326884219046
30
0
10
-37.864370196449499
20
-77.104037694885264
30
0
10
-32.205687003636143
20
-77.579368186355453
30
0
10
-26.625326187834766
20
-77.74039245531138
30
0
10
-21.272074349907136
20
-77.617543138284773
30
0
10
-16.245558266858239
20
-77.235234982421787
30
0
10
-11.539164621771874
20
-76.598116101968174
30
0
10
-7.04475209683355
20
-75.691754566258439
30
0
10
-2.626573738683895
20
-74.499824729543533
30
0
10
1.8296317691793673
20
-73.015053470346047
30
0
10
6.3433306479619267
20
-71.256804699986802
30
0
10
10.827289769581892
20
-69.270929761654855
30
0
10
15.156542261160995
20
-67.105382478338782
30
0
10
19.213684946549407
20
-64.793665735278097
30
0
10
22.952524916652806
20
-62.330849564669393
30
0
10
26.425801043202256
20
-59.666455502742096
30
0
10
29.719622083987307
20
-56.744428918867513
30
0
10
32.910320322490861
20
-53.530478153102251
30
0
10
36.000140607555743
20
-50.053392214557405
30
0
10
38.906320674822851
20
-46.407998102846761
30
0
10
41.524446374864759
20
-42.703105632421
30
0
10
43.767774245677877
20
-39.027904374858167
30
0
10
45.630119155098484
20
-35.399272165572675
30
0
10
47.185542841688253
20
-31.761807560081913
30
0
10
48.524065356764801
20
-28.041539502182367
30
0
10
49.705157884095044
20
-24.184865248861893
30
0
10
50.701620879338158
20
-20.205105034880798
30
0
10
51.443004436772284
20
-16.154462137246842
30
0
10
51.854875078511647
20
-12.098017318319068
30
0
10
51.9098272511171
20
-8.0817764409526713
30
0
10
51.69136219265684
20
-4.9138592632562244
30
0
10
51.398813102488283
20
-2.5641964409780158
30
0
10
51.150055983324165
20
-1.0089797096092927
30
0
10
51.012241617633521
20
-0.23418001862160143
30
0
0
ARC
5
103
100
AcDbEntity
8
0
100
AcDbCircle
10
-37.016604269111667
20
-15.891955440415783
30
0
40
89.410534274836294
210
0
220
-0
230
1
100
AcDbArc
50
10.085773345611498
51
11.065916781408557
0
LINE
5
104
100
AcDbEntity
8
0
100
AcDbLine
10
50.731521267431944
20
1.269341251112579
30
0
11
-3.8658455437224859
21
-4.5885987220589461
31
0
0
ARC
5
105
100
AcDbEntity
8
0
100
AcDbCircle
10
4.9960036108132044e-15
20
1.1102230246251565e-15
30
0
40
6.0000000000000036
210
0
220
0
230
1
100
AcDbArc
50
142.36184876862558
51
229.88621917440813
0
CIRCLE
5
106
100
AcDbEntity
8
0
100
AcDbCircle
10
-7.2856448508858263
20
-16.459628765763856
30
0
40
3.2000000000000006
210
0
220
0
230
1
0
CIRCLE
5
107
100
AcDbEntity
8
0
100
AcDbCircle
10
7.2856448508858236
20
16.459628765763853
30
0
40
3.2000000000000006
210
0
220
0
230
1
0
ENDSEC
0
SECTION
2
OBJECTS
0
DICTIONARY
5
C
100
AcDbDictionary
3
ACAD_GROUP
350
D
3
ACAD_MLINESTYLE
350
17
0
DICTIONARY
5
D
100
AcDbDictionary
0
DICTIONARY
5
1A
330
C
100
AcDbDictionary
0
DICTIONARY
5
17
100
AcDbDictionary
0
ENDSEC
0
EOF
