0
SECTION
2
HEADER
9
$INSUNITS
70
4
9
$ACADVER
1
AC1014
9
$HANDSEED
5
FFFF
0
ENDSEC
0
SECTION
2
TABLES
0
TABLE
2
VPORT
5
8
100
AcDbSymbolTable
0
ENDTAB
0
TABLE
2
LTYPE
5
5
100
AcDbSymbolTable
0
LTYPE
5
14
100
AcDbSymbolTableRecord
100
AcDbLinetypeTableRecord
2
BYBLOCK
70
0
0
LTYPE
5
15
100
AcDbSymbolTableRecord
100
AcDbLinetypeTableRecord
2
BYLAYER
70
0
0
ENDTAB
0
TABLE
2
LAYER
5
2
100
AcDbSymbolTable
70
2
0
LAYER
5
50
100
AcDbSymbolTableRecord
100
AcDbLayerTableRecord
2
0
70
0
6
CONTINUOUS
0
ENDTAB
0
TABLE
2
STYLE
5
3
100
AcDbSymbolTable
70
1
0
STYLE
5
11
100
AcDbSymbolTableRecord
100
AcDbTextStyleTableRecord
2
STANDARD
70
0
0
ENDTAB
0
TABLE
2
VIEW
5
6
100
AcDbSymbolTable
70
0
0
ENDTAB
0
TABLE
2
UCS
5
7
100
AcDbSymbolTable
70
0
0
ENDTAB
0
TABLE
2
APPID
5
9
100
AcDbSymbolTable
70
2
0
APPID
5
12
100
AcDbSymbolTableRecord
100
AcDbRegAppTableRecord
2
ACAD
70
0
0
ENDTAB
0
TABLE
2
DIMSTYLE
5
A
100
AcDbSymbolTable
70
1
0
ENDTAB
0
TABLE
2
BLOCK_RECORD
5
1
100
AcDbSymbolTable
70
1
0
BLOCK_RECORD
5
1F
100
AcDbSymbolTableRecord
100
AcDbBlockTableRecord
2
*MODEL_SPACE
0
BLOCK_RECORD
5
1B
100
AcDbSymbolTableRecord
100
AcDbBlockTableRecord
2
*PAPER_SPACE
0
ENDTAB
0
ENDSEC
0
SECTION
2
BLOCKS
0
BLOCK
5
20
100
AcDbEntity
100
AcDbBlockBegin
2
*MODEL_SPACE
0
ENDBLK
5
21
100
AcDbEntity
100
AcDbBlockEnd
0
BLOCK
5
1C
100
AcDbEntity
100
AcDbBlockBegin
2
*PAPER_SPACE
0
ENDBLK
5
1D
100
AcDbEntity
100
AcDbBlockEnd
0
ENDSEC
0
SECTION
2
ENTITIES
0
LINE
5
100
100
AcDbEntity
8
0
100
AcDbLine
10
764.72177531051034
20
773.474300485909
30
0
11
773.19290216965112
21
782.57054122144905
31
0
0
SPLINE
5
101
100
AcDbEntity
8
0
100
AcDbSpline
70
0
71
3
72
40
73
36
74
0
42
0.000000001
43
0.0000000001
44
0.0000000001
40
17.814015226912733
40
17.814015226912733
40
17.814015226912733
40
17.814015226912733
40
58.274803797770836
40
78.505201220732062
40
98.73559864369328
40
139.19639348961573
40
159.42679091257696
40
179.65718833553817
40
193.14411995084566
40
206.63105156615313
40
233.6049147967681
40
260.57877802738307
40
287.552641257998
40
314.526504488613
40
341.50036771922794
40
368.47423094984293
40
395.44809418045787
40
422.42195741107287
40
462.88275225699533
40
503.34354710291774
40
543.80434194884015
40
584.26513679476261
40
624.72593164068508
40
665.18672648660754
40
705.64752133253
40
746.10831617845247
40
786.56911102437493
40
827.02990587029728
40
867.49070071621975
40
907.95149556214221
40
928.18189298510345
40
948.41229040806468
40
968.64268783102591
40
988.87308525398714
40
1150.7162646376767
40
1150.7162646376767
40
1150.7162646376767
40
1150.7162646376767
10
773.19286453105804
20
782.57057724391507
30
0
10
779.68172315977415
20
789.16811100206871
30
0
10
787.97206779144562
20
799.3867963516725
30
0
10
794.91255367063059
20
815.89869465227605
30
0
10
798.96907529571786
20
834.66904668097311
30
0
10
799.37704244005045
20
855.25967057181515
30
0
10
795.4971646407464
20
874.66824690891588
30
0
10
790.56262191354062
20
886.69160531757848
30
0
10
784.7017934601904
20
896.56578910121584
30
0
10
776.75768062755139
20
907.34634213102754
30
0
10
764.97360941867271
20
919.87249512364485
30
0
10
748.65125234567029
20
932.64009466788525
30
0
10
730.53960985513766
20
941.72745019870774
30
0
10
711.19636347602579
20
946.64007390939548
30
0
10
691.14515017234851
20
948.21775225769227
30
0
10
670.8220322132172
20
946.82997454429608
30
0
10
650.83695281232269
20
942.18078474659092
30
0
10
628.60767838540585
20
932.90689415512475
30
0
10
605.56809537514698
20
917.41528052452509
30
0
10
584.05227843683338
20
895.07180672243749
30
0
10
567.95753884083479
20
869.10952176720559
30
0
10
557.61200013733412
20
840.85500029085222
30
0
10
553.59228651522972
20
811.18031084029428
30
0
10
556.64695424219622
20
780.84600782148652
30
0
10
565.82809824610445
20
751.77638717055186
30
0
10
580.1396402729913
20
725.68135907119631
30
0
10
599.11152458877143
20
704.25170925000668
30
0
10
622.70269545604276
20
687.80770544974985
30
0
10
649.04888232660267
20
676.85184905933068
30
0
10
671.59935227797985
20
673.37915536787318
30
0
10
689.46453487418864
20
674.25494340653267
30
0
10
702.67147328119245
20
676.70764289704266
30
0
10
715.35292661089886
20
680.73824408919177
30
0
10
754.22904367671947
20
698.92526240626114
30
0
10
773.9733280881469
20
735.00617123788868
30
0
10
767.49396215651973
20
765.16527534560441
30
0
0
LINE
5
102
100
AcDbEntity
8
0
100
AcDbLine
10
767.49396215651973
20
765.16527534560441
30
0
11
710.0110785263081
21
765.35151352750086
31
0
0
ARC
5
103
100
AcDbEntity
8
0
100
AcDbCircle
10
714.3578025355539
20
769.48745240367487
30
0
40
6.0000000000001217
210
0
220
0
230
1
100
AcDbArc
50
136.05218346109285
51
223.57655386687858
0
LINE
5
104
100
AcDbEntity
8
0
100
AcDbLine
10
710.03796946673231
20
773.6514699657796
30
0
11
764.72177531051034
21
773.474300485909
31
0
0
CIRCLE
5
105
100
AcDbEntity
8
0
100
AcDbCircle
10
722.94908602090504
20
785.40439105235623
30
0
40
3.1999999999076332
210
0
220
0
230
1
0
CIRCLE
5
106
100
AcDbEntity
8
0
100
AcDbCircle
10
705.75670977408413
20
753.77493960375682
30
0
40
3.1999999999575253
210
0
220
0
230
1
0
LINE
5
107
100
AcDbEntity
8
0
100
AcDbLine
10
576.70524718038905
20
763.06901787055028
30
0
11
578.93772772058026
21
764.17492791506129
31
0
0
ARC
5
108
100
AcDbEntity
8
0
100
AcDbCircle
10
576.47565755212645
20
763.53248628723577
30
0
40
0.51721791410454487
210
0
220
0
230
1
100
AcDbArc
50
171.67858164294375
51
296.3525617474757
0
LINE
5
109
100
AcDbEntity
8
0
100
AcDbLine
10
577.02843504453836
20
770.88551837944408
30
0
11
575.96388503412629
21
763.60734121686949
31
0
0
ARC
5
110
100
AcDbEntity
8
0
100
AcDbCircle
10
577.66994795418054
20
770.79168683902071
30
0
40
0.64833877812106899
210
0
220
-0
230
1
100
AcDbArc
50
52.647523479150763
51
171.67858164295851
0
LINE
5
111
100
AcDbEntity
8
0
100
AcDbLine
10
583.39571390307287
20
767.23713323317202
30
0
11
578.06330592504003
21
771.30706308796584
31
0
0
ARC
5
112
100
AcDbEntity
8
0
100
AcDbCircle
10
583.07401823455643
20
766.81564868417524
30
0
40
0.53022384724311611
210
-0
220
0
230
1
100
AcDbArc
50
-63.647438252556
51
52.647523479166715
0
LINE
5
113
100
AcDbEntity
8
0
100
AcDbLine
10
580.95001548074174
20
765.17176045462679
30
0
11
583.30938111094702
21
766.34052591624834
31
0
0
ELLIPSE
5
114
100
AcDbEntity
8
0
100
AcDbEllipse
10
695.01522664402319
20
771.57785739157237
30
0
11
106.93367278402305
21
-71.283435826043842
31
0.0
40
0.758935641078896
41
3.9216600750948682
42
4.0652001360283165
0
ARC
5
115
100
AcDbEntity
8
0
100
AcDbCircle
10
586.39758476016061
20
749.32390486779423
30
0
40
1.0978851555080591
210
-0
220
0
230
1
100
AcDbArc
50
-55.504983693946436
51
26.473039326370284
0
LINE
5
116
100
AcDbEntity
8
0
100
AcDbLine
10
586.87291978460894
20
748.3184303102588
30
0
11
587.01935505647668
21
748.41905487287579
31
0
0
ARC
5
117
100
AcDbEntity
8
0
100
AcDbCircle
10
586.32327105030026
20
749.11830689864519
30
0
40
0.97052371829628947
210
0
220
0
230
1
100
AcDbArc
50
206.53762205710873
51
304.49556215357035
0
ELLIPSE
5
118
100
AcDbEntity
8
0
100
AcDbEllipse
10
683.43355725731635
20
769.87102261958
30
0
11
94.335904878221328
21
-76.348999575545861
31
0.0
40
0.75226764656341449
41
4.0181892928141796
42
4.1681943109644255
0
ARC
5
119
100
AcDbEntity
8
0
100
AcDbCircle
10
642.10393050492803
20
729.72133701665871
30
0
40
29.999999999999908
210
0
220
-0
230
1
100
AcDbArc
50
89.81436866398515
51
239.14203276672461
0
LINE
5
120
100
AcDbEntity
8
0
100
AcDbLine
10
663.09091888284331
20
759.65349894947076
30
0
11
642.20112667513627
21
759.72117956465365
31
0
0
ARC
5
121
100
AcDbEntity
8
0
100
AcDbCircle
10
662.99372271263496
20
729.65365640147525
30
0
40
30.000000000000554
210
0
220
-0
230
1
100
AcDbArc
50
37.794241108837923
51
89.814368663984922
0
ARC
5
122
100
AcDbEntity
8
0
100
AcDbCircle
10
714.35780253555345
20
769.48745240367487
30
0
40
34.999999999999481
210
0
220
0
230
1
100
AcDbArc
50
217.7942411088367
51
270.83079888431354
0
ARC
5
123
100
AcDbEntity
8
0
100
AcDbCircle
10
715.01028758816665
20
724.49218306059743
30
0
40
9.9999999999996909
210
0
220
-0
230
1
100
AcDbArc
50
8.2304931442841802
51
90.830798884314817
0
ARC
5
124
100
AcDbEntity
8
0
100
AcDbCircle
10
695.21628393223159
20
721.62906949860712
30
0
40
30.00000000000043
210
-0
220
0
230
1
100
AcDbArc
50
-72.48353393728668
51
8.2304931442847558
0
SPLINE
5
125
100
AcDbEntity
8
0
100
AcDbSpline
70
0
71
3
72
23
73
19
74
0
42
0.000000001
43
0.0000000001
44
0.0000000001
40
954.48383579935557
40
954.48383579935557
40
954.48383579935557
40
954.48383579935557
40
967.01664816087032
40
967.01664816087032
40
967.01664816087032
40
1032.8559932570381
40
1032.8559932570381
40
1032.8559932570381
40
1040.6670073390549
40
1040.6670073390549
40
1040.6670073390549
40
1077.4734326640184
40
1077.4734326640184
40
1077.4734326640184
40
1095.9150968393778
40
1095.9150968393778
40
1095.9150968393778
40
1114.3072857956181
40
1114.3072857956181
40
1114.3072857956181
40
1114.3072857956181
10
626.71636463054847
20
703.96773132450551
30
0
10
628.61979639592062
20
702.83019914776992
30
0
10
630.55541140899811
20
701.74770672036198
30
0
10
632.51522989825526
20
700.72444560384042
30
0
10
642.81085725770436
20
695.34888903833746
30
0
10
653.75463548734967
20
691.61632318350939
30
0
10
664.61704589978035
20
689.92262479129272
30
0
10
665.90573491350324
20
689.72168867971732
30
0
10
667.19381769807057
20
689.54938903403763
30
0
10
668.47991599656996
20
689.40648758192401
30
0
10
674.54016380655162
20
688.73311898076383
30
0
10
680.56457182050212
20
688.71477256148933
30
0
10
686.54213817661116
20
689.32903187412876
30
0
10
689.53716609230833
20
689.63680324448785
30
0
10
692.5228235094944
20
690.10228164248974
30
0
10
695.48692583462866
20
690.7240624750051
30
0
10
698.44307607850635
20
691.34417519651709
30
0
10
701.40178094599548
20
692.12870263108221
30
0
10
704.24568012057296
20
693.02015472586606
30
0
0
LINE
5
126
100
AcDbEntity
8
0
100
AcDbLine
10
675.37909981324083
20
823.41978812371678
30
0
11
646.46146357813814
21
879.65390893237668
31
0
0
ARC
5
127
100
AcDbEntity
8
0
100
AcDbCircle
10
648.69993151260769
20
809.70038657749456
30
0
40
29.999999999999908
210
0
220
0
230
1
100
AcDbArc
50
-90.185631336015504
51
27.213880554173087
0
LINE
5
128
100
AcDbEntity
8
0
100
AcDbLine
10
599.66578791319182
20
779.85909432402821
30
0
11
648.60273534239911
21
779.7005440294995
31
0
0
ARC
5
129
100
AcDbEntity
8
0
100
AcDbCircle
10
599.76298408340062
20
809.85893687202361
30
0
40
30.000000000000146
210
0
220
0
230
1
100
AcDbArc
50
179.41540906978202
51
269.814368663984
0
SPLINE
5
130
100
AcDbEntity
8
0
100
AcDbSpline
70
0
71
3
72
17
73
13
74
0
42
0.000000001
43
0.0000000001
44
0.0000000001
40
578.45672685966838
40
578.45672685966838
40
578.45672685966838
40
578.45672685966838
40
598.8014046808039
40
598.8014046808039
40
598.8014046808039
40
672.43773990491229
40
672.43773990491229
40
672.43773990491229
40
709.24449619144048
40
709.24449619144048
40
709.24449619144048
40
722.72608972255841
40
722.72608972255841
40
722.72608972255841
40
722.72608972255841
10
595.91445612721122
20
884.10654701557519
30
0
10
593.61425021567686
20
881.08510402832235
30
0
10
591.44926415076816
20
877.96864717511073
30
0
10
589.42517603349802
20
874.76686785082052
30
0
10
582.09911108241772
20
863.1782205539771
30
0
10
576.62366944703399
20
850.48053291861038
30
0
10
573.32590739389832
20
837.39564332873158
30
0
10
571.67753741715637
20
830.85522628183458
30
0
10
570.57378644905168
20
824.21545845364517
30
0
10
570.0731340381061
20
817.5284463226219
30
0
10
569.88975487118898
20
815.07912482343022
30
0
10
569.78715933960257
20
812.62347921466574
30
0
10
569.76320398993494
20
810.16503721849801
30
0
0
ARC
5
131
100
AcDbEntity
8
0
100
AcDbCircle
10
619.782295277505
20
865.934507386154
30
0
40
30.000000000000128
210
0
220
-0
230
1
100
AcDbArc
50
27.213880554173851
51
142.71577239566028
0
LINE
5
132
100
AcDbEntity
8
0
100
AcDbLine
10
664.14148314852082
20
889.00648760652439
30
0
11
699.82051993866935
21
819.62394026130551
31
0
0
ARC
5
133
100
AcDbEntity
8
0
100
AcDbCircle
10
690.8206514491543
20
902.72588915274707
30
0
40
30.000000000000163
210
0
220
-0
230
1
100
AcDbArc
50
89.748526759131337
51
207.21388055417356
0
SPLINE
5
134
100
AcDbEntity
8
0
100
AcDbSpline
70
0
71
3
72
56
73
52
74
0
42
0.000000001
43
0.0000000001
44
0.0000000001
40
83.275005565951886
40
83.275005565951886
40
83.275005565951886
40
83.275005565951886
40
101.69922161001173
40
101.69922161001173
40
101.69922161001173
40
120.1058767850605
40
120.1058767850605
40
120.1058767850605
40
156.92335001636448
40
156.92335001636448
40
156.92335001636448
40
175.31865628702394
40
175.31865628702394
40
175.31865628702394
40
205.626629571607
40
205.626629571607
40
205.626629571607
40
212.13748946961027
40
212.13748946961027
40
212.13748946961027
40
230.54722075198507
40
230.54722075198507
40
230.54722075198507
40
231.69760943057116
40
231.69760943057116
40
231.69760943057116
40
232.84800610890699
40
232.84800610890699
40
232.84800610890699
40
235.14884600813514
40
235.14884600813514
40
235.14884600813514
40
239.75086983284805
40
239.75086983284805
40
239.75086983284805
40
248.95755797251667
40
248.95755797251667
40
248.95755797251667
40
267.37537178449867
40
267.37537178449867
40
267.37537178449867
40
304.21089526196465
40
304.21089526196465
40
304.21089526196465
40
341.10019883805444
40
341.10019883805444
40
341.10019883805444
40
377.88282569591621
40
377.88282569591621
40
377.88282569591621
40
380.63707393014107
40
380.63707393014107
40
380.63707393014107
40
380.63707393014107
10
781.97721688263584
20
827.49268775659743
30
0
10
782.61144080800989
20
830.58770809933196
30
0
10
783.08036899558886
20
833.81001503450375
30
0
10
783.39198065923028
20
837.1039170856036
30
0
10
783.70329531313223
20
840.39467958480498
30
0
10
783.85760093571764
20
843.75691754237107
30
0
10
783.84659040380802
20
847.10209758820747
30
0
10
783.82456684982753
20
853.79321423162901
30
0
10
783.14249489969097
20
860.39917627863633
30
0
10
781.67541061659563
20
866.52464071708494
30
0
10
780.94240364072687
20
869.58513847822655
30
0
10
780.00997106246803
20
872.53284860473923
30
0
10
778.8611489862983
20
875.39788073553325
30
0
10
776.96835806012461
20
880.11828690882328
30
0
10
774.47218237388734
20
884.66431241412261
30
0
10
771.43354775628438
20
889.12195014006647
30
0
10
770.78077813389268
20
890.07955474256346
30
0
10
770.10441082048624
20
891.03099861665271
30
0
10
769.40450568515212
20
891.97825452367147
30
0
10
767.42549436153183
20
894.65666059860541
30
0
10
765.25380802997961
20
897.30728767439405
30
0
10
762.98467003966039
20
899.84549819507311
30
0
10
762.8428759735674
20
900.0041060857626
30
0
10
762.700701685377
20
900.16227507247686
30
0
10
762.55705847733577
20
900.32112113548919
30
0
10
762.41341427040607
20
900.47996830310944
30
0
10
762.26830113327151
20
900.63949254615852
30
0
10
762.12329817234809
20
900.79808336494057
30
0
10
761.83328638399576
20
901.11527141874603
30
0
10
761.54371523298335
20
901.42872569487167
30
0
10
761.25130429423155
20
901.74176474090586
30
0
10
760.66643869484994
20
902.36788963920856
30
0
10
760.07021261971386
20
902.99235273731608
30
0
10
759.46838723133442
20
903.60939189332407
30
0
10
758.26439114691834
20
904.84382424215778
30
0
10
757.03798062727401
20
906.04854381751136
30
0
10
755.78470201816549
20
907.22730953206224
30
0
10
753.27754073205153
20
909.58540911458215
30
0
10
750.66205882179645
20
911.84055464718881
30
0
10
747.97466229374641
20
913.93944100430485
30
0
10
742.5998844339631
20
918.1372018500457
30
0
10
736.94202291008583
20
921.7043560710465
30
0
10
731.03780942243338
20
924.47658528039688
30
0
10
725.12497574552651
20
927.25286196202956
30
0
10
718.94747270794937
20
929.23927590136486
30
0
10
712.4984055966072
20
930.57177008902386
30
0
10
706.06798793777216
20
931.90041096167749
30
0
10
699.3436930521093
20
932.59015900532347
30
0
10
692.49324993120297
20
932.70642057148393
30
0
10
691.98029524359129
20
932.71512612735796
30
0
10
691.46663794567144
20
932.72059345082175
30
0
10
690.95230993450787
20
932.72278682401179
30
0
0
ARC
5
135
100
AcDbEntity
8
0
100
AcDbCircle
10
752.5876837144823
20
833.513928505639
30
0
40
29.999999999999766
210
0
220
0
230
1
100
AcDbArc
50
269.81436866398383
51
348.42163454931455
0
LINE
5
136
100
AcDbEntity
8
0
100
AcDbLine
10
722.135052489038
20
803.61243420822734
30
0
11
752.49048754427338
21
803.51408595764406
31
0
0
ARC
5
137
100
AcDbEntity
8
0
100
AcDbCircle
10
714.35780253561325
20
769.48745240396011
30
0
40
34.999999999708805
210
0
220
-0
230
1
100
AcDbArc
50
77.16129781063357
51
79.234008109329523
0
ARC
5
138
100
AcDbEntity
8
0
100
AcDbCircle
10
726.49968823930305
20
833.34334180752865
30
0
40
30.000000000000831
210
0
220
0
230
1
100
AcDbArc
50
207.21388055417412
51
259.23400810932156
0
LWPOLYLINE
5
139
100
AcDbEntity
8
0
100
AcDbPolyline
90
31
70
1
43
0.0
10
604.65562654299958
20
745.29185999927063
42
-0.072872758697181517
10
602.85323981448312
20
744.91095881242416
42
-0.068321888640887021
10
601.62974039573464
20
745.01192661860387
42
-0.16382915835021722
10
599.26139433749711
20
746.48931701803565
42
-0.05466359914379134
10
598.49624447120516
20
747.62164020256455
42
-0.047043046521083431
10
597.92264885923873
20
748.97761895281621
42
-0.10809007411093156
10
597.71664417436352
20
751.11352988600561
42
-0.23785133936147382
10
599.84665781053343
20
754.26867967143608
42
-0.19020148515440422
10
603.57130374179758
20
754.74522131702781
42
-0.02868764190794439
10
604.71973353373323
20
754.43081321016302
10
605.81765429195548
20
754.02305832902357
10
607.69621847078918
20
753.21182076424293
10
609.58654070299212
20
752.28525768118038
10
610.69978683162026
20
751.80197773915802
10
611.6917053950051
20
751.50308460289625
10
612.33434303349168
20
751.43949398347763
10
609.04103115210262
20
758.5621822603008
10
610.75483530364988
20
759.3545925631679
10
615.19324878875454
20
749.75530867004511
42
-0.11578647091891313
10
613.60101148928243
20
749.37708752086428
42
-0.075684846100904105
10
611.38423988710247
20
749.6715191227496
10
610.43144379786372
20
749.98115310394337
10
609.33880955830296
20
750.41985392114486
10
608.10633722012949
20
750.98762171500493
42
0.028932137925669964
10
604.73221722543417
20
752.43091580174018
42
0.030451714165975835
10
603.55093476271975
20
752.76516744936032
42
0.072912089496424151
10
602.02008823268307
20
752.86787278774432
42
0.10623584871397153
10
600.79431956669202
20
752.48927187182392
42
0.40499579162179983
10
599.76941929051338
20
748.70806048286659
42
0.078733972382045908
10
600.40429481520914
20
747.73564970168775
42
0.34449948767733346
10
603.99647265884073
20
747.21156828229573
0
LWPOLYLINE
5
140
100
AcDbEntity
8
0
100
AcDbPolyline
90
13
70
1
43
0.0
10
595.30225676400289
20
754.65071239854933
10
593.96477819852726
20
757.54337584553457
10
604.5277356608417
20
767.30919773390247
10
590.08975453545133
20
765.92417505661956
10
588.89426832439108
20
768.50974117586338
10
603.41702447778994
20
775.22461673010253
10
604.2735605262983
20
773.37212310328778
10
592.11842981086386
20
767.75196469550849
10
606.22481332102871
20
769.15200490413258
10
607.02638471629155
20
767.41838738301669
10
596.6053116700507
20
757.50173442828782
10
608.96847686889362
20
763.21808157960322
10
609.82501291740186
20
761.36558795278859
0
LINE
5
141
100
AcDbEntity
8
0
100
AcDbLine
10
967.62787566158613
20
775.47894475783778
30
0
11
1021.8942311037702
21
775.30312777107497
31
0
0
SPLINE
5
142
100
AcDbEntity
8
0
100
AcDbSpline
70
0
71
3
72
61
73
57
74
0
42
0.000000001
43
0.0000000001
44
0.0000000001
40
0
40
0
40
0
40
0
40
21.163799341886541
40
31.74569901282981
40
42.327598683773083
40
74.073297696602893
40
84.655197367546165
40
126.98279605131924
40
148.14659539320579
40
169.31039473509233
40
183.41959429635003
40
197.52879385760772
40
225.74719298012312
40
239.85639254138079
40
253.96559210263848
40
282.18399122515387
40
310.40239034766927
40
338.62078947018466
40
359.78458881207121
40
380.94838815395769
40
423.27598683773078
40
444.43978617961733
40
465.60358552150387
40
486.76738486339042
40
507.93118420527696
40
550.25878288905005
40
571.42258223093654
40
592.58638157282314
40
613.75018091470974
40
634.91398025659623
40
656.07777959848272
40
677.24157894036932
40
698.40537828225592
40
719.56917762414241
40
761.8967763079155
40
777.76962581433042
40
804.22437499168859
40
825.38817433357508
40
846.55197367546168
40
867.71577301734828
40
888.87957235923477
40
910.04337170112126
40
920.6252713720645
40
931.20717104300775
40
952.37097038489424
40
973.53476972678084
40
994.69856906866744
40
1005.2804687396107
40
1015.8623684105539
40
1058.1899670943271
40
1079.3537664362136
40
1100.5175657781001
40
1121.6813651199866
40
1132.26326479093
40
1142.8451644618731
40
1185.1727631456463
40
1185.1727631456463
40
1185.1727631456463
40
1185.1727631456463
10
1021.8942311036687
20
775.30312777064125
30
0
10
1025.7204636222
20
778.39331679074121
30
0
10
1031.1273853082864
20
783.2184017455254
30
0
10
1037.5454384361947
20
790.15313074926189
30
0
10
1044.8571611074444
20
799.18884532623474
30
0
10
1050.6111939820078
20
809.27941514085262
30
0
10
1056.8888818696184
20
827.72045010836325
30
0
10
1059.2761109691091
20
846.12273521047132
30
0
10
1057.1973949127068
20
867.33333057483037
30
0
10
1053.4995345472444
20
880.824258119869
30
0
10
1048.859104137121
20
891.8750863774743
30
0
10
1042.4427356397164
20
903.7327128741897
30
0
10
1034.7471579299354
20
914.42540262027649
30
0
10
1025.4100033238351
20
923.90544863510161
30
0
10
1014.7656370182341
20
932.5252723415781
30
0
10
999.18577485336061
20
941.61486509178928
30
0
10
978.277346788979
20
949.67425302471622
30
0
10
958.32656064724256
20
953.90828102366061
30
0
10
940.22303961518196
20
954.61722241016616
30
0
10
919.03986042408121
20
952.04661612533346
30
0
10
898.70888432867423
20
945.10133795639558
30
0
10
879.59988264719186
20
935.53013183933308
30
0
10
866.19092470324949
20
927.11637727553148
30
0
10
853.88882445262107
20
917.35843333301591
30
0
10
839.31561275609977
20
902.25402178326988
30
0
10
827.43081707023657
20
884.00437777264051
30
0
10
818.16101051030512
20
864.3785118955077
30
0
10
812.7225738772886
20
849.45822559711485
30
0
10
809.0804398392097
20
834.53458955676285
30
0
10
807.35383625707402
20
819.45760683727394
30
0
10
807.30490259912449
20
803.8414359770527
30
0
10
808.86617314700686
20
787.85001223088079
30
0
10
812.13501656234155
20
771.89061692550627
30
0
10
819.00889724679132
20
751.28074214281833
30
0
10
828.44779729794982
20
733.82520331755541
30
0
10
839.63972260352602
20
717.73201432171948
30
0
10
849.22408123751393
20
707.00531916308012
30
0
10
862.45180554968726
20
696.72771855609449
30
0
10
876.25046532661077
20
688.26796650153256
30
0
10
890.53895875164312
20
681.04262378584099
30
0
10
904.1713884658036
20
675.79411201345647
30
0
10
914.46534258285124
20
673.88893121665194
30
0
10
923.24800295025284
20
673.19297978900136
30
0
10
932.46944254577875
20
672.82692013841699
30
0
10
944.68311722947169
20
672.93439805236574
30
0
10
958.96097899917038
20
674.71939056859287
30
0
10
969.73099912974919
20
678.13550356660232
30
0
10
977.75873928358806
20
681.78173852263035
30
0
10
989.41866981289422
20
687.97987548791298
30
0
10
1001.6932921782944
20
697.22780276589128
30
0
10
1012.7057216199287
20
710.56602862167381
30
0
10
1019.4095403912065
20
721.59346604056054
30
0
10
1022.8942930889581
20
731.09352863763252
30
0
10
1024.5051004897548
20
738.64736103382961
30
0
10
1026.1660938443745
20
750.0683535122829
30
0
10
1026.0676920597898
20
759.45069982320786
30
0
10
1024.1370994250315
20
766.99581756371367
30
0
0
LINE
5
143
100
AcDbEntity
8
0
100
AcDbLine
10
1024.1370994250315
20
766.99581756371367
30
0
11
967.60098472033769
21
767.17898831956177
31
0
0
ARC
5
144
100
AcDbEntity
8
0
100
AcDbCircle
10
971.94770872958361
20
771.31492719573566
30
0
40
5.9999999994049293
210
0
220
0
230
1
100
AcDbArc
50
136.05218345564921
51
223.57655386687705
0
CIRCLE
5
145
100
AcDbEntity
8
0
100
AcDbCircle
10
980.53899221493566
20
787.23186584442249
30
0
40
3.2000000001076274
210
0
220
0
230
1
0
CIRCLE
5
146
100
AcDbEntity
8
0
100
AcDbCircle
10
963.34661596811475
20
755.6024143958241
30
0
40
3.200000000135014
210
0
220
0
230
1
0
LINE
5
147
100
AcDbEntity
8
0
100
AcDbLine
10
834.29515337441876
20
764.89649266261142
30
0
11
836.52763391460962
21
766.0024027071222
31
0
0
ARC
5
148
100
AcDbEntity
8
0
100
AcDbCircle
10
834.06556374615604
20
765.3599610792968
30
0
40
0.517217914104665
210
0
220
0
230
1
100
AcDbArc
50
171.67858164297044
51
296.35256174749253
0
LINE
5
149
100
AcDbEntity
8
0
100
AcDbLine
10
834.61834123856806
20
772.71299317150522
30
0
11
833.55379122815577
21
765.43481600893028
31
0
0
ARC
5
150
100
AcDbEntity
8
0
100
AcDbCircle
10
835.25985414821037
20
772.61916163108162
30
0
40
0.64833877812105256
210
0
220
-0
230
1
100
AcDbArc
50
52.647523479178929
51
171.67858164294009
0
LINE
5
151
100
AcDbEntity
8
0
100
AcDbLine
10
840.98562009710247
20
769.06460802523293
30
0
11
835.65321211906962
21
773.13453788002698
31
0
0
ARC
5
152
100
AcDbEntity
8
0
100
AcDbCircle
10
840.66392442858603
20
768.64312347623627
30
0
40
0.53022384724317928
210
-0
220
0
230
1
100
AcDbArc
50
-63.647438252556
51
52.647523479159268
0
LINE
5
153
100
AcDbEntity
8
0
100
AcDbLine
10
838.53992167477122
20
766.99923524668759
30
0
11
840.89928730497661
21
768.16800070830936
31
0
0
ELLIPSE
5
154
100
AcDbEntity
8
0
100
AcDbEllipse
10
952.60513279345798
20
773.40533218229916
30
0
11
106.93367272734633
21
-71.283435842607716
31
0.0
40
0.75893564108845157
41
3.921660075465601
42
4.0652001364267383
0
ARC
5
155
100
AcDbEntity
8
0
100
AcDbCircle
10
843.98749095419021
20
751.15137965985525
30
0
40
1.0978851555081723
210
-0
220
0
230
1
100
AcDbArc
50
-55.504983693966338
51
26.473039326386139
0
LINE
5
156
100
AcDbEntity
8
0
100
AcDbLine
10
844.46282597863842
20
750.14590510231972
30
0
11
844.60926125050605
21
750.24652966493647
31
0
0
ARC
5
157
100
AcDbEntity
8
0
100
AcDbCircle
10
843.91317724432963
20
750.94578169070599
30
0
40
0.97052371829622575
210
0
220
0
230
1
100
AcDbArc
50
206.53762205711774
51
304.49556215357967
0
ELLIPSE
5
158
100
AcDbEntity
8
0
100
AcDbEllipse
10
941.02346340630538
20
771.69849740566167
30
0
11
94.335904822512745
21
-76.348999587158588
31
0.0
40
0.75226764650898914
41
4.0181892931754852
42
4.1681943113590876
0
ARC
5
159
100
AcDbEntity
8
0
100
AcDbCircle
10
891.85367323670675
20
731.57421307078027
30
0
40
29.999999999999908
210
0
220
-0
230
1
100
AcDbArc
50
89.814368663984922
51
237.66784244881626
0
LINE
5
160
100
AcDbEntity
8
0
100
AcDbLine
10
920.68082507687279
20
761.48097374153178
30
0
11
891.9508694069151
21
761.57405561877522
31
0
0
ARC
5
161
100
AcDbEntity
8
0
100
AcDbCircle
10
920.58362890666444
20
731.48113119353638
30
0
40
30.000000000000007
210
0
220
-0
230
1
100
AcDbArc
50
37.794241108837028
51
89.814368663984922
0
ARC
5
162
100
AcDbEntity
8
0
100
AcDbCircle
10
971.94770872958316
20
771.31492719573555
30
0
40
34.999999999999879
210
0
220
0
230
1
100
AcDbArc
50
217.79424110883662
51
272.10813839757913
0
ARC
5
163
100
AcDbEntity
8
0
100
AcDbCircle
10
973.60306319440554
20
726.34538415162854
30
0
40
10.000000000000256
210
0
220
-0
230
1
100
AcDbArc
50
16.452435471325209
51
92.108138397578685
0
ARC
5
164
100
AcDbEntity
8
0
100
AcDbCircle
10
954.42195955527791
20
720.68099864346937
30
0
40
30.000000000000142
210
-0
220
0
230
1
100
AcDbArc
50
-68.3987582610646
51
16.452435471324357
0
SPLINE
5
165
100
AcDbEntity
8
0
100
AcDbSpline
70
0
71
3
72
38
73
34
74
0
42
0.000000001
43
0.0000000001
44
0.0000000001
40
992.89062267146812
40
992.89062267146812
40
992.89062267146812
40
992.89062267146812
40
1005.8462502489297
40
1005.8462502489297
40
1005.8462502489297
40
1015.4553740791002
40
1015.4553740791002
40
1015.4553740791002
40
1025.0539225859827
40
1025.0539225859827
40
1025.0539225859827
40
1044.2579335093092
40
1044.2579335093092
40
1044.2579335093092
40
1053.8536769571522
40
1053.8536769571522
40
1053.8536769571522
40
1063.4598552164441
40
1063.4598552164441
40
1063.4598552164441
40
1082.6486444233988
40
1082.6486444233988
40
1082.6486444233988
40
1101.8706605968378
40
1101.8706605968378
40
1101.8706605968378
40
1140.2651911783182
40
1140.2651911783182
40
1140.2651911783182
40
1159.4593200421914
40
1159.4593200421914
40
1159.4593200421914
40
1178.6744575377056
40
1178.6744575377056
40
1178.6744575377056
40
1178.6744575377056
10
875.80901791033648
20
706.22558811058468
30
0
10
877.8810424112761
20
704.91347465896649
30
0
10
880.00248482854659
20
703.64063793648245
30
0
10
882.15216970470124
20
702.41261163059505
30
0
10
883.74658016820888
20
701.50179069433182
30
0
10
885.35656646187863
20
700.61562532716448
30
0
10
886.97354738762624
20
699.75768064956378
30
0
10
888.58874874466994
20
698.90068018316151
30
0
10
890.21155052645088
20
698.07157195135358
30
0
10
891.82956325777798
20
697.27871883970465
30
0
10
895.06675418765735
20
695.69244151810926
30
0
10
898.28722805753432
20
694.2499145660704
30
0
10
901.35399116986594
20
693.04092843127364
30
0
10
902.88637272071685
20
692.43682958818135
30
0
10
904.38257731742635
20
691.89020394841134
30
0
10
905.83255996012349
20
691.41147946345438
30
0
10
907.2841193743925
20
690.93223439353562
30
0
10
908.68691336063296
20
690.52182559568951
30
0
10
910.06155704849812
20
690.1727813463749
30
0
10
912.80747194296748
20
689.47554917524394
30
0
10
915.47239495047631
20
689.01715957037527
30
0
10
918.40585338357357
20
688.68847298183766
30
0
10
921.3443913411777
20
688.35921724544278
30
0
10
924.56218834428398
20
688.15679525386145
30
0
10
927.88819103741207
20
688.0328353356681
30
0
10
934.5316310888179
20
687.78523472879101
30
0
10
941.54158342939036
20
687.85343843907162
30
0
10
947.93078110806027
20
688.55176893210137
30
0
10
951.12485801755383
20
688.9008771324045
30
0
10
954.16493414501065
20
689.40880338989746
30
0
10
957.05992218529809
20
690.10918985940725
30
0
10
959.95807888917921
20
690.81034292590334
30
0
10
962.71907473501744
20
691.70392022794135
30
0
10
965.46630064877706
20
692.78794341801176
30
0
0
LINE
5
166
100
AcDbEntity
8
0
100
AcDbLine
10
932.96900600727031
20
825.24726291577758
30
0
11
901.31702668454886
21
886.79867101138495
31
0
0
ARC
5
167
100
AcDbEntity
8
0
100
AcDbCircle
10
906.28983770663706
20
811.52786136955547
30
0
40
30.00000000000005
210
0
220
0
230
1
100
AcDbArc
50
-90.185631336015987
51
27.2138805541728
0
LINE
5
168
100
AcDbEntity
8
0
100
AcDbLine
10
852.30256991164742
20
781.70261669039269
30
0
11
906.19264153642825
21
781.52801882156029
31
0
0
ARC
5
169
100
AcDbEntity
8
0
100
AcDbCircle
10
852.3997660818568
20
811.70245923838763
30
0
40
30.00000000000032
210
0
220
0
230
1
100
AcDbArc
50
179.67260160877427
51
269.81436866398298
0
SPLINE
5
170
100
AcDbEntity
8
0
100
AcDbSpline
70
0
71
3
72
20
73
16
74
0
42
0.000000001
43
0.0000000001
44
0.0000000001
40
613.58550554329202
40
613.58550554329202
40
613.58550554329202
40
613.58550554329202
40
641.00111464690485
40
641.00111464690485
40
641.00111464690485
40
679.39504663777484
40
679.39504663777484
40
679.39504663777484
40
717.81339824337454
40
717.81339824337454
40
717.81339824337454
40
756.23807122307812
40
756.23807122307812
40
756.23807122307812
40
767.36358789106362
40
767.36358789106362
40
767.36358789106362
40
767.36358789106362
10
850.71730732077253
20
891.18652869329617
30
0
10
847.65266309959861
20
887.13629740296267
30
0
10
844.78606981946598
20
882.8083798825736
30
0
10
842.12362106190471
20
878.29353554269699
30
0
10
838.39501973334575
20
871.97076423823864
30
0
10
835.07156618091233
20
865.29692656320367
30
0
10
832.25794589795169
20
858.56789213450384
30
0
10
829.44253607378653
20
851.83457785167775
30
0
10
827.15004607150104
20
845.07157255013965
30
0
10
825.52819327066027
20
838.3512858296076
30
0
10
823.90607360937736
20
831.62989334985718
30
0
10
822.95178428423833
20
824.94109837909878
30
0
10
822.57820410566876
20
817.98322636619378
30
0
10
822.47003734246152
20
815.96863743022084
30
0
10
822.41051952171802
20
813.93040564952514
30
0
10
822.39872607091024
20
811.87389245948555
30
0
0
ARC
5
171
100
AcDbEntity
8
0
100
AcDbCircle
10
874.63785838391618
20
873.07926946516261
30
0
40
29.999999999999616
210
0
220
-0
230
1
100
AcDbArc
50
27.21388055417367
51
142.87518878909682
0
LINE
5
172
100
AcDbEntity
8
0
100
AcDbLine
10
919.31712340575984
20
895.52881785806858
30
0
11
957.41042613269894
21
821.45141505336653
31
0
0
ARC
5
173
100
AcDbEntity
8
0
100
AcDbCircle
10
945.99629170639332
20
909.24821940429092
30
0
40
30.000000000000032
210
0
220
-0
230
1
100
AcDbArc
50
88.484934683256469
51
207.21388055417299
0
SPLINE
5
174
100
AcDbEntity
8
0
100
AcDbSpline
70
0
71
3
72
35
73
31
74
0
42
0.000000001
43
0.0000000001
44
0.0000000001
40
103.31616264346366
40
103.31616264346366
40
103.31616264346366
40
103.31616264346366
40
141.71934059064074
40
141.71934059064074
40
141.71934059064074
40
180.12530056038514
40
180.12530056038514
40
180.12530056038514
40
218.53307898492625
40
218.53307898492625
40
218.53307898492625
40
256.94756308448115
40
256.94756308448115
40
256.94756308448115
40
276.13939819032146
40
276.13939819032146
40
276.13939819032146
40
295.34051547192377
40
295.34051547192377
40
295.34051547192377
40
333.74694236129648
40
333.74694236129648
40
333.74694236129648
40
372.16341185910136
40
372.16341185910136
40
372.16341185910136
40
410.55848611704459
40
410.55848611704459
40
410.55848611704459
40
413.49451549621153
40
413.49451549621153
40
413.49451549621153
40
413.49451549621153
10
1040.8618394494858
20
828.06593388055012
30
0
10
1042.445579634245
20
834.3863569114651
30
0
10
1043.310951979357
20
841.30042863095309
30
0
10
1043.3790941712869
20
848.21170560785981
30
0
10
1043.4472412996079
20
855.12348325501182
30
0
10
1042.7182880590344
20
862.02421643781474
30
0
10
1041.1398911569838
20
868.63109423487288
30
0
10
1039.5614195206101
20
875.23828485599893
30
0
10
1037.135258953211
20
881.54895127539578
30
0
10
1034.0758469094833
20
887.5412401707955
30
0
10
1031.0159007181496
20
893.53457526942725
30
0
10
1027.3390371906257
20
899.17890841239694
30
0
10
1023.1837847154201
20
904.24360758559556
30
0
10
1021.1078250299897
20
906.77392586712722
30
0
10
1018.9107185840696
20
909.16043075621224
30
0
10
1016.5367798914491
20
911.41832349939409
30
0
10
1014.1616930378489
20
913.67730827766138
30
0
10
1011.609198842767
20
915.80826831503612
30
0
10
1008.8698024531192
20
917.82259044219256
30
0
10
1003.3904115605471
20
921.85167449879623
30
0
10
997.15047864169924
20
925.42280819380835
30
0
10
990.50551185770644
20
928.46982987765819
30
0
10
983.85880753120182
20
931.51764830434843
30
0
10
976.81341460540477
20
934.03991282875825
30
0
10
969.70478105817574
20
935.87961643466542
30
0
10
962.60010651399466
20
937.71829545657442
30
0
10
955.42743406655995
20
938.8722365457154
30
0
10
948.39930972974321
20
939.18256513231336
30
0
10
947.86187674043038
20
939.20629562027466
30
0
10
947.325286308351
20
939.22511265180049
30
0
10
946.78952142177195
20
939.23905562898949
30
0
0
ARC
5
175
100
AcDbEntity
8
0
100
AcDbCircle
10
1011.7561366283337
20
835.33628898100278
30
0
40
30.00000000000005
210
0
220
0
230
1
100
AcDbArc
50
269.81436866398496
51
345.97500436546176
0
LINE
5
176
100
AcDbEntity
8
0
100
AcDbLine
10
979.7249586830676
20
805.43990900028803
30
0
11
1011.6589404581254
21
805.33644643300761
31
0
0
ARC
5
177
100
AcDbEntity
8
0
100
AcDbCircle
10
971.94770872947106
20
771.3149271951944
30
0
40
35.000000000552681
210
0
220
-0
230
1
100
AcDbArc
50
77.161297810659988
51
79.234008109306359
0
ARC
5
178
100
AcDbEntity
8
0
100
AcDbCircle
10
984.08959443333231
20
835.17081659958876
30
0
40
30.000000000000057
210
0
220
0
230
1
100
AcDbArc
50
207.2138805541729
51
259.23400810932156
0
LWPOLYLINE
5
179
100
AcDbEntity
8
0
100
AcDbPolyline
90
31
70
1
43
0.0
10
856.34977951331791
20
751.78765085368263
42
-0.072872758697229409
10
854.54739278480122
20
751.40674966683616
42
-0.068321888640962322
10
853.32389336605286
20
751.50771747301576
42
-0.16382915835016079
10
850.95554730781532
20
752.98510787244766
42
-0.054663599143737668
10
850.19039744152337
20
754.11743105697633
42
-0.047043046521276818
10
849.61680182955683
20
755.47340980722811
42
-0.10809007411093483
10
849.41079714468185
20
757.60932074041762
42
-0.23785133936146174
10
851.54081078085153
20
760.76447052584808
42
-0.19020148515446483
10
855.26545671211591
20
761.24101217144005
42
-0.028687641907873943
10
856.41388650405122
20
760.92660406457514
10
857.51180726227346
20
760.51884918343546
10
859.39037144110728
20
759.70761161865471
10
861.28069367331011
20
758.7810485355925
10
862.39393980193825
20
758.29776859357003
10
863.38585836532297
20
757.99887545730837
10
864.02849600380989
20
757.93528483788964
10
860.73518412242061
20
765.05797311471269
10
862.4489882739681
20
765.85038341757979
10
866.88740175907287
20
756.25109952445712
42
-0.11578647091889074
10
865.29516445960053
20
755.87287837527606
42
-0.075684846100814107
10
863.07839285742034
20
756.16730997716161
10
862.12559676818159
20
756.47694395835538
10
861.03296252862094
20
756.91564477555676
10
859.80049019044759
20
757.48341256941671
42
0.02893213792566347
10
856.42637019575227
20
758.92670665615196
42
0.030451714166108257
10
855.24508773303796
20
759.26095830377221
42
0.072912089496419766
10
853.71424120300117
20
759.36366364215633
42
0.10623584871416147
10
852.48847253701013
20
758.98506272623604
42
0.40499579162183713
10
851.46357226083171
20
755.20385133727837
42
0.078733972382208695
10
852.09844778552724
20
754.23144055609987
42
0.34449948767723743
10
855.69062562915883
20
753.70735913670751
0
LWPOLYLINE
5
180
100
AcDbEntity
8
0
100
AcDbPolyline
90
6
70
1
43
0.0
10
846.85441697966792
20
761.45360144632662
10
845.96581828347269
20
763.37543932386154
10
858.77477028532428
20
769.2979045752337
10
855.46771684038595
20
776.4503127441053
10
857.18152099193333
20
777.2427230469724
10
861.37717313306678
20
768.16847700056599
0
LWPOLYLINE
5
181
100
AcDbEntity
8
0
100
AcDbPolyline
90
8
70
1
43
0.0
10
773.99342718716048
20
353.12805473156914
10
773.99342718716025
20
596.62805473156925
42
-0.41421356237309209
10
808.99342718716025
20
631.62805473156914
10
1254.2494007808009
20
631.62805473156948
42
-0.41421356237310752
10
1259.2494007808009
20
626.62805473156925
10
1259.2494007808009
20
353.12805473156919
42
-0.41421356237309503
10
1254.2494007808009
20
348.12805473156919
10
778.99342718716048
20
348.12805473156908
42
-0.4142135623730992
0
CIRCLE
5
182
100
AcDbEntity
8
0
100
AcDbCircle
10
1209.4934271871605
20
591.62805473156914
30
0
40
8.5
210
0
220
0
230
1
0
CIRCLE
5
183
100
AcDbEntity
8
0
100
AcDbCircle
10
1209.4934271871605
20
388.12805473156919
30
0
40
8.4999999999999716
210
0
220
0
230
1
0
CIRCLE
5
184
100
AcDbEntity
8
0
100
AcDbCircle
10
798.99342718716048
20
591.62805473156902
30
0
40
8.5
210
0
220
0
230
1
0
CIRCLE
5
185
100
AcDbEntity
8
0
100
AcDbCircle
10
798.99342718716059
20
388.12805473156919
30
0
40
8.5
210
0
220
0
230
1
0
CIRCLE
5
186
100
AcDbEntity
8
0
100
AcDbCircle
10
821.99342718716048
20
357.02805473156906
30
0
40
3.0000000000006111
210
0
220
0
230
1
0
CIRCLE
5
187
100
AcDbEntity
8
0
100
AcDbCircle
10
996.49342718716059
20
357.02805473156906
30
0
40
3.0000000000009095
210
0
220
0
230
1
0
CIRCLE
5
188
100
AcDbEntity
8
0
100
AcDbCircle
10
1121.4934271871607
20
357.02805473156923
30
0
40
3.000000000003638
210
0
220
0
230
1
0
CIRCLE
5
189
100
AcDbEntity
8
0
100
AcDbCircle
10
1221.4934271871607
20
357.02805473156934
30
0
40
3.0000000000024447
210
0
220
0
230
1
0
CIRCLE
5
190
100
AcDbEntity
8
0
100
AcDbCircle
10
1233.4934271871607
20
499.22805473156933
30
0
40
3.0000000000072764
210
0
220
0
230
1
0
CIRCLE
5
191
100
AcDbEntity
8
0
100
AcDbCircle
10
1133.4934271871605
20
499.22805473156922
30
0
40
3.0000000000000004
210
0
220
0
230
1
0
CIRCLE
5
192
100
AcDbEntity
8
0
100
AcDbCircle
10
1033.4934271871607
20
499.22805473156922
30
0
40
3.0000000000009095
210
0
220
0
230
1
0
CIRCLE
5
193
100
AcDbEntity
8
0
100
AcDbCircle
10
866.99342718716025
20
499.22805473156905
30
0
40
2.9999999999993747
210
0
220
0
230
1
0
CIRCLE
5
194
100
AcDbEntity
8
0
100
AcDbCircle
10
806.99342718716036
20
499.22805473156922
30
0
40
3.0000000000006253
210
0
220
0
230
1
0
LWPOLYLINE
5
195
100
AcDbEntity
8
0
100
AcDbPolyline
90
8
70
1
43
0.0
10
601.7494007808009
20
381.48856020392776
10
726.54939479828704
20
381.48856020392776
42
0.41421886856519907
10
731.54939479828704
20
386.4885602039277
10
731.54939479828704
20
439.8885602039278
42
0.41421886856520324
10
726.54939479828704
20
444.8885602039278
10
601.7494007808009
20
444.88856020392774
42
0.41421356237308671
10
596.7494007808009
20
439.88856020392791
10
596.7494007808009
20
386.48856020392776
42
0.41421356237310752
0
LWPOLYLINE
5
196
100
AcDbEntity
8
0
100
AcDbPolyline
90
6
70
1
43
0.0
10
592.74939183089202
20
374.28856020430209
10
592.74939183089202
20
376.2885602043022
42
0.41421886856515533
10
590.74939183089202
20
378.28856020430203
42
0.41421886856519696
10
588.74939183089214
20
376.28856020430237
10
588.7493918308918
20
374.28856020430209
42
0.41421886856522816
10
590.74939183089202
20
372.28856020430209
42
0.41421886856524898
0
LWPOLYLINE
5
197
100
AcDbEntity
8
0
100
AcDbPolyline
90
28
70
1
43
0.0
10
585.74940078080078
20
369.4885602034077
42
-0.41421886856519075
10
580.74940078080067
20
374.48856020340759
10
580.74940078080078
20
436.36494247156304
10
580.74940078076656
20
440.36494247156304
10
580.74940078064242
20
454.88856020340762
10
580.74940078057
20
459.56494247156309
10
580.74940078080078
20
461.67805473156909
10
580.74940078080078
20
465.87805473156897
42
0.99999999999999989
10
577.7494007808009
20
465.87805473156885
10
577.74940078080078
20
460.87805473156891
10
345.74940078080078
20
460.87805473156885
42
-0.41421356239498164
10
342.74940078080078
20
463.87805473179367
10
342.74940078080073
20
491.82805473158061
42
-0.41421356237312978
10
345.74940078080078
20
494.82805473158072
10
385.76940778206705
20
494.82805473158078
42
0.41421356237310897
10
391.76940778206711
20
500.82805473158078
10
391.76940778206705
20
572.76106768031514
42
0.41421356237308815
10
385.76940778206705
20
578.76106768031514
10
345.74940078080078
20
578.76106768031514
42
-0.41421356237962981
10
342.74940078080067
20
581.76106768038198
10
342.74940078080073
20
626.62805473156914
42
-0.41421356237311169
10
347.74940078080078
20
631.62805473156914
10
738.74940078080067
20
631.62805473156914
10
738.74940078080067
20
461.67805473156909
10
738.74940078080067
20
459.56494247156314
10
738.74940078080067
20
457.88856020340774
10
738.74940078080067
20
374.48856020317942
42
-0.41421356237356538
10
733.74940078079305
20
369.4885602031793
0
LWPOLYLINE
5
198
100
AcDbEntity
8
0
100
AcDbPolyline
90
6
70
1
43
0.0
10
726.74939183107256
20
376.28856020429845
42
-0.41421886856515533
10
728.74939183107222
20
378.28856020429828
42
-0.41421886856514495
10
730.74939183107199
20
376.28856020429851
10
730.74939183107199
20
374.28856020429851
42
-0.41421886856513451
10
728.74939183107199
20
372.28856020429902
42
-0.4142188685651137
10
726.74939183107256
20
374.28856020429839
0
LWPOLYLINE
5
199
100
AcDbEntity
8
0
100
AcDbPolyline
90
6
70
1
43
0.0
10
702.74939183106176
20
450.28856020429913
42
-0.4142188685652386
10
704.74939183106198
20
452.28856020429885
42
-0.4142188685652074
10
706.74939183106198
20
450.28856020429913
10
706.74939183106198
20
448.28856020429907
42
-0.4142188685652386
10
704.74939183106198
20
446.28856020429885
42
-0.4142188685652386
10
702.74939183106176
20
448.28856020429907
0
LWPOLYLINE
5
200
100
AcDbEntity
8
0
100
AcDbPolyline
90
6
70
1
43
0.0
10
588.7493918309882
20
440.28856020430862
42
-0.41421886856517615
10
590.7493918309882
20
442.288560204264
42
-0.41421886859024404
10
592.74939183087349
20
440.28856020430857
10
592.74939183091806
20
438.28856020430857
42
-0.41421886859024404
10
590.7493918309882
20
436.28856020426406
42
-0.4142188685402019
10
588.74939183087361
20
438.28856020430862
0
CIRCLE
5
201
100
AcDbEntity
8
0
100
AcDbCircle
10
531.88689615510782
20
584.42805473231408
30
0
40
2.5
210
0
220
-0
230
1
0
LWPOLYLINE
5
202
100
AcDbEntity
8
0
100
AcDbPolyline
90
8
70
1
43
0.0
10
719.54940078080062
20
486.82805473156913
42
-0.41421356237310542
10
709.54940078080074
20
476.82805473156913
10
611.94940078117327
20
476.82805473156913
42
-0.41421356237309087
10
601.94940078117338
20
486.82805473156918
10
601.94940078117327
20
575.42805473119654
42
-0.41421356237310958
10
611.94940078117327
20
585.42805473119665
10
709.54940078080062
20
585.42805473119665
42
-0.41421356237308671
10
719.54940078080074
20
575.42805473119654
0
CIRCLE
5
203
100
AcDbEntity
8
0
100
AcDbCircle
10
437.83384985851728
20
607.66314032862988
30
0
40
2.9999999999999671
210
0
220
-0
230
1
0
CIRCLE
5
204
100
AcDbEntity
8
0
100
AcDbCircle
10
492.76116022021495
20
558.26365983106166
30
0
40
2.999999999999952
210
0
220
-0
230
1
0
CIRCLE
5
205
100
AcDbEntity
8
0
100
AcDbCircle
10
510.32656524733954
20
623.20521919803116
30
0
40
2.9999999999999671
210
0
220
-0
230
1
0
CIRCLE
5
206
100
AcDbEntity
8
0
100
AcDbCircle
10
521.38643383236342
20
605.98081653566999
30
0
40
7.4999999999999956
210
0
220
-0
230
1
0
CIRCLE
5
207
100
AcDbEntity
8
0
100
AcDbCircle
10
444.11236772923803
20
585.27529292746817
30
0
40
7.4999999999999813
210
0
220
-0
230
1
0
CIRCLE
5
208
100
AcDbEntity
8
0
100
AcDbCircle
10
407.47684092858833
20
505.13909350912377
30
0
40
10
210
0
220
-0
230
1
0
CIRCLE
5
209
100
AcDbEntity
8
0
100
AcDbCircle
10
727.74940078080078
20
473.87805473156925
30
0
40
8.5000000000009095
210
0
220
0
230
1
0
CIRCLE
5
210
100
AcDbEntity
8
0
100
AcDbCircle
10
710.74940078080067
20
616.62805473156914
30
0
40
8.5000000000002274
210
0
220
0
230
1
0
CIRCLE
5
211
100
AcDbEntity
8
0
100
AcDbCircle
10
542.74940078080078
20
571.62805473156914
30
0
40
8.4999999999995453
210
0
220
0
230
1
0
CIRCLE
5
212
100
AcDbEntity
8
0
100
AcDbCircle
10
542.7494007808009
20
479.87805473156902
30
0
40
8.5000000000007958
210
0
220
0
230
1
0
CIRCLE
5
213
100
AcDbEntity
8
0
100
AcDbCircle
10
362.7494007808009
20
479.87805473156902
30
0
40
8.5000000000034106
210
0
220
0
230
1
0
CIRCLE
5
214
100
AcDbEntity
8
0
100
AcDbCircle
10
362.74940078080067
20
611.62805473156891
30
0
40
8.5000000000034106
210
0
220
0
230
1
0
CIRCLE
5
215
100
AcDbEntity
8
0
100
AcDbCircle
10
482.74940078080078
20
595.62805473156902
30
0
40
27.5
210
0
220
0
230
1
0
CIRCLE
5
216
100
AcDbEntity
8
0
100
AcDbCircle
10
576.33947990581771
20
584.42805473231408
30
0
40
2.5
210
0
220
-0
230
1
0
CIRCLE
5
217
100
AcDbEntity
8
0
100
AcDbCircle
10
442.23628852153968
20
400.12805473156902
30
0
40
2.5
210
0
220
-0
230
1
0
LINE
5
218
100
AcDbEntity
8
0
100
AcDbLine
10
432.23628852153968
20
403.74044216043421
30
0
11
432.23628852153968
21
406.62805473156902
31
0
0
ARC
5
219
100
AcDbEntity
8
0
100
AcDbCircle
10
434.23628852079491
20
403.74044216074151
30
0
40
1.9999999992552375
210
0
220
0
230
1
100
AcDbArc
50
180
51
251.65403042078239
0
ARC
5
220
100
AcDbEntity
8
0
100
AcDbCircle
10
429.43628852079456
20
389.26555010587612
30
0
40
13.250000000000037
210
0
220
-0
230
1
100
AcDbArc
50
20.587636124111548
51
71.654030420786398
0
ARC
5
221
100
AcDbEntity
8
0
100
AcDbCircle
10
443.71235394990106
20
394.62805473187609
30
0
40
2.0000000000000036
210
0
220
0
230
1
100
AcDbArc
50
200.58763612410999
51
270
0
LINE
5
222
100
AcDbEntity
8
0
100
AcDbLine
10
443.71235394990106
20
392.62805473187603
30
0
11
451.43628852079473
21
392.62805473156902
31
0
0
ARC
5
223
100
AcDbEntity
8
0
100
AcDbCircle
10
433.23628851834087
20
406.62805473476783
30
0
40
0.99999999680122187
210
0
220
-0
230
1
100
AcDbArc
50
89.999999816718628
51
180
0
LINE
5
224
100
AcDbEntity
8
0
100
AcDbLine
10
451.43628852079473
20
407.62805473156902
30
0
11
433.23628852153973
21
407.62805473156902
31
0
0
LINE
5
225
100
AcDbEntity
8
0
100
AcDbLine
10
453.54940078080074
20
407.62805473156908
30
0
11
451.43628852079473
21
407.62805473156902
31
0
0
LINE
5
226
100
AcDbEntity
8
0
100
AcDbLine
10
453.54940078080074
20
392.62805473156902
30
0
11
451.43628852079473
21
392.62805473156902
31
0
0
LINE
5
227
100
AcDbEntity
8
0
100
AcDbLine
10
461.24940078080073
20
348.12805473156908
30
0
11
541.7494007808009
21
348.12805473156908
31
0
0
SPLINE
5
228
100
AcDbEntity
8
0
100
AcDbSpline
70
0
71
3
72
10
73
6
74
0
42
0.000000001
43
0.0000000001
44
0.0000000001
40
-0.061628652893686062
40
-0.061628652893686062
40
-0.061628652893686062
40
-0.061628652893686062
40
-0.030814347027867502
40
-0.030814347027867502
40
0
40
0
40
0
40
0
10
460.63543169320042
20
348.17547098085913
30
0
10
460.73692785927665
20
348.15969856750763
30
0
10
460.83909317558579
20
348.14784622569647
30
0
10
461.04391270533188
20
348.13202607260399
30
0
10
461.14668629086498
20
348.12804905166735
30
0
10
461.24940078080073
20
348.12805473156908
30
0
0
LINE
5
229
100
AcDbEntity
8
0
100
AcDbLine
10
460.63543169320042
20
348.17547098085913
30
0
11
453.54940078080074
21
348.17547098085919
31
0
0
LINE
5
230
100
AcDbEntity
8
0
100
AcDbLine
10
453.54940078080074
20
363.17547098085919
30
0
11
454.54940078080074
21
363.17547098085919
31
0
0
ARC
5
231
100
AcDbEntity
8
0
100
AcDbCircle
10
454.54940078080074
20
364.17547098085913
30
0
40
0.99999999999994316
210
-0
220
0
230
1
100
AcDbArc
50
-90
51
90
0
LINE
5
232
100
AcDbEntity
8
0
100
AcDbLine
10
452.74940078080078
20
365.17547098085913
30
0
11
454.54940078080074
21
365.17547098085913
31
0
0
LINE
5
233
100
AcDbEntity
8
0
100
AcDbLine
10
452.74940078080078
20
390.62805473156902
30
0
11
452.74940078080078
21
365.17547098085913
31
0
0
LINE
5
234
100
AcDbEntity
8
0
100
AcDbLine
10
452.74940078080078
20
390.62805473156902
30
0
11
454.54940078080074
21
390.62805473156908
31
0
0
ARC
5
235
100
AcDbEntity
8
0
100
AcDbCircle
10
454.54940078080074
20
391.62805473156902
30
0
40
0.99999999999994316
210
-0
220
0
230
1
100
AcDbArc
50
-90
51
90
0
LINE
5
236
100
AcDbEntity
8
0
100
AcDbLine
10
453.54940078080074
20
392.62805473156902
30
0
11
454.54940078080074
21
392.62805473156902
31
0
0
LINE
5
237
100
AcDbEntity
8
0
100
AcDbLine
10
541.74940117195638
20
407.62805473156908
30
0
11
453.54940078080074
21
407.62805473156908
31
0
0
SPLINE
5
238
100
AcDbEntity
8
0
100
AcDbSpline
70
0
71
3
72
8
73
4
74
0
42
0.000000001
43
0.0000000001
44
0.0000000001
40
0
40
0
40
0
40
0
40
5.4731326744172382
40
5.4731326744172382
40
5.4731326744172382
40
5.4731326744172382
10
544.57782790556939
20
406.45648185633763
30
0
10
543.84030738070851
20
407.1999101949217
30
0
10
542.79659013898925
20
407.63223428519029
30
0
10
541.74940117195638
20
407.62805473156908
30
0
0
SPLINE
5
239
100
AcDbEntity
8
0
100
AcDbSpline
70
0
71
3
72
8
73
4
74
0
42
0.000000001
43
0.0000000001
44
0.0000000001
40
0
40
0
40
0
40
0
40
5.4731333996531468
40
5.4731333996531468
40
5.4731333996531468
40
5.4731333996531468
10
545.74940078080078
20
403.62805473156914
30
0
10
545.75357823794684
20
404.67524385297611
30
0
10
545.32125788703354
20
405.71896280542126
30
0
10
544.57782790556939
20
406.45648185633763
30
0
0
LINE
5
240
100
AcDbEntity
8
0
100
AcDbLine
10
545.74940078080078
20
352.12805473156914
30
0
11
545.74940078080078
21
403.62805473156914
31
0
0
SPLINE
5
241
100
AcDbEntity
8
0
100
AcDbSpline
70
0
71
3
72
8
73
4
74
0
42
0.000000001
43
0.0000000001
44
0.0000000001
40
0
40
0
40
0
40
0
40
5.4731333517536331
40
5.4731333517536331
40
5.4731333517536331
40
5.4731333517536331
10
544.57782790556939
20
349.29962760680064
30
0
10
545.3212563351259
20
350.03714822202625
30
0
10
545.75358043702749
20
351.0808656372991
30
0
10
545.74940078080078
20
352.12805473156914
30
0
0
SPLINE
5
242
100
AcDbEntity
8
0
100
AcDbSpline
70
0
71
3
72
8
73
4
74
0
42
0.000000001
43
0.0000000001
44
0.0000000001
40
0
40
0
40
0
40
0
40
5.4731333168787479
40
5.4731333168787479
40
5.4731333168787479
40
5.4731333168787479
10
541.7494007808009
20
348.12805473156908
30
0
10
542.79658988594815
20
348.12387727590988
30
0
10
543.84030886401911
20
348.55619763786615
30
0
10
544.57782790556939
20
349.29962760680064
30
0
0
CIRCLE
5
243
100
AcDbEntity
8
0
100
AcDbCircle
10
463.09940078042825
20
397.27805473194161
30
0
40
2
210
0
220
0
230
1
0
CIRCLE
5
244
100
AcDbEntity
8
0
100
AcDbCircle
10
539.89940078117331
20
358.47805473119655
30
0
40
2
210
0
220
0
230
1
0
CIRCLE
5
245
100
AcDbEntity
8
0
100
AcDbCircle
10
463.09940078042825
20
358.47805473119655
30
0
40
2
210
0
220
0
230
1
0
CIRCLE
5
246
100
AcDbEntity
8
0
100
AcDbCircle
10
539.89940078117331
20
397.27805473194161
30
0
40
2
210
0
220
0
230
1
0
LINE
5
247
100
AcDbEntity
8
0
100
AcDbLine
10
453.54940078080074
20
363.17547098085919
30
0
11
451.43628852079473
21
363.17547098085919
31
0
0
LINE
5
248
100
AcDbEntity
8
0
100
AcDbLine
10
453.54940078080074
20
348.17547098085919
30
0
11
451.43628852079473
21
348.17547098085919
31
0
0
LINE
5
249
100
AcDbEntity
8
0
100
AcDbLine
10
432.23628852153968
20
362.17547098085913
30
0
11
432.23628852153968
21
349.17547098085919
31
0
0
ARC
5
250
100
AcDbEntity
8
0
100
AcDbCircle
10
433.23628852152063
20
349.17547098084009
30
0
40
0.99999999998097167
210
0
220
0
230
1
100
AcDbArc
50
180
51
270.00000000109429
0
LINE
5
251
100
AcDbEntity
8
0
100
AcDbLine
10
451.43628852079473
20
348.17547098085919
30
0
11
433.23628852153973
21
348.17547098085902
31
0
0
ARC
5
252
100
AcDbEntity
8
0
100
AcDbCircle
10
433.23628851834115
20
362.17547098405782
30
0
40
0.99999999680136398
210
0
220
-0
230
1
100
AcDbArc
50
89.99999981674469
51
180
0
LINE
5
253
100
AcDbEntity
8
0
100
AcDbLine
10
451.43628852079473
20
363.17547098085919
30
0
11
433.23628852153956
21
363.17547098085919
31
0
0
CIRCLE
5
254
100
AcDbEntity
8
0
100
AcDbCircle
10
442.23628852153968
20
355.67547098085919
30
0
40
2.5
210
0
220
-0
230
1
0
LINE
5
255
100
AcDbEntity
8
0
100
AcDbLine
10
460.08246710677133
20
774.64638389799597
30
0
11
513.86072094425845
21
774.47214830642133
31
0
0
SPLINE
5
256
100
AcDbEntity
8
0
100
AcDbSpline
70
0
71
3
72
59
73
55
74
0
42
0.000000001
43
0.0000000001
44
0.0000000001
40
0
40
0
40
0
40
0
40
20.07394898531475
40
60.221846955944251
40
80.295795941259001
40
100.36974492657376
40
120.4436939118885
40
140.51764289720325
40
160.591591882518
40
214.12212251002401
40
240.88738782377703
40
254.27002048065353
40
267.65265313753002
40
294.41791845128301
40
321.18318376503601
40
341.25713275035076
40
361.33108173566552
40
401.47897970629504
40
441.62687767692455
40
461.70082666223925
40
481.77477564755401
40
521.92267361818347
40
562.07057158881298
40
602.2184695594425
40
617.27393129842858
40
642.36636753007201
40
662.44031651538671
40
682.51426550070153
40
722.66216347133104
40
762.81006144196056
40
782.88401042727537
40
802.95795941259007
40
823.03190839790477
40
843.10585738321959
40
863.1798063685344
40
883.2537553538491
40
903.3277043391638
40
923.4016533244785
40
943.4756023097932
40
953.51257680245067
40
963.54955129510802
40
983.62350028042283
40
993.66047477308018
40
1003.6974492657375
40
1023.7713982510522
40
1033.8083727437097
40
1043.8453472363669
40
1063.9192962216816
40
1073.9562707143391
40
1083.9932452069966
40
1104.0671941923113
40
1109.0856814386398
40
1114.1041686849685
40
1124.141143177626
40
1124.141143177626
40
1124.141143177626
40
1124.141143177626
10
513.86072094520421
20
774.47214830637051
30
0
10
517.37169235891224
20
777.54335992015945
30
0
10
527.27574650410975
20
787.20769362132489
30
0
10
537.56063412799836
20
801.46459571850698
30
0
10
543.81822926551956
20
818.40935753990505
30
0
10
546.39052767965927
20
832.5162756157373
30
0
10
546.99342417416756
20
847.33163274375465
30
0
10
545.48838573500848
20
862.2269828606095
30
0
10
539.72371530407861
20
884.58219099633141
30
0
10
526.22998726370031
20
905.64047932071685
30
0
10
508.20927995289537
20
920.9224780947643
30
0
10
496.81492523358224
20
928.14570566162729
30
0
10
484.77955971099641
20
934.33131269119315
30
0
10
468.86786299789782
20
940.07259054204428
30
0
10
450.94052331715216
20
943.34006207772336
30
0
10
434.55593179213815
20
943.68115782259054
30
0
10
414.83554412970818
20
941.24695101304565
30
0
10
389.97663005045871
20
933.49417275281905
30
0
10
366.99563531131332
20
920.83449807865782
30
0
10
351.38378815934999
20
907.75864839849521
30
0
10
337.76903018825533
20
892.88751749519565
30
0
10
324.00697858277107
20
871.48623328272959
30
0
10
312.26231590162712
20
843.44762645898277
30
0
10
308.51727889389355
20
820.20840716299585
30
0
10
308.64598888729563
20
800.22737376752059
30
0
10
310.30092107455977
20
785.17521919689239
30
0
10
313.90050559237847
20
769.26344246369149
30
0
10
320.26493359446363
20
750.59368259450719
30
0
10
331.66413252013376
20
729.43212129427491
30
0
10
346.88797153365738
20
710.66473082944185
30
0
10
361.80749733469048
20
698.27269832721004
30
0
10
373.97524774713639
20
690.56940495173183
30
0
10
386.60774767585968
20
684.32601132010916
30
0
10
399.33032573194458
20
679.69113449893257
30
0
10
412.7014583578304
20
677.02393970504977
30
0
10
426.87640662372559
20
676.30664828445424
30
0
10
441.09426353633398
20
677.04624698615544
30
0
10
454.11697219792222
20
679.00405932175488
30
0
10
463.69091211036061
20
682.02921572381626
30
0
10
471.3939987211196
20
685.49673924921967
30
0
10
479.06444398665894
20
689.52703039534242
30
0
10
486.53029051150605
20
694.37260174331755
30
0
10
492.96007656578814
20
699.69630987749144
30
0
10
498.59816167636336
20
705.31292284952417
30
0
10
503.32618451476674
20
711.09874199962223
30
0
10
507.62692519632947
20
717.24661030338007
30
0
10
511.51680997908869
20
723.93785131706545
30
0
10
514.5733310054643
20
731.62021312277159
30
0
10
516.55060135298288
20
739.38498566624378
30
0
10
517.79376020532902
20
746.73563860276749
30
0
10
517.98365685872909
20
752.485062077566
30
0
10
517.77857893098383
20
757.71047483953669
30
0
10
517.48353480174319
20
761.34358179312085
30
0
10
517.08745619340289
20
764.19169660399291
30
0
10
516.6912834197899
20
766.1629340350986
30
0
0
LINE
5
257
100
AcDbEntity
8
0
100
AcDbLine
10
516.6912834197899
20
766.16293403509849
30
0
11
460.05557616552295
21
766.34642745971996
31
0
0
ARC
5
258
100
AcDbEntity
8
0
100
AcDbCircle
10
464.40230017476892
20
770.48236633589397
30
0
40
5.9999999994049791
210
0
220
0
230
1
100
AcDbArc
50
136.05218345565072
51
223.57655386687745
0
CIRCLE
5
259
100
AcDbEntity
8
0
100
AcDbCircle
10
472.99358366011978
20
786.39930498457693
30
0
40
3.1999999999724076
210
0
220
0
230
1
0
CIRCLE
5
260
100
AcDbEntity
8
0
100
AcDbCircle
10
455.80120741329904
20
754.76985353597786
30
0
40
3.1999999999962241
210
0
220
0
230
1
0
LINE
5
261
100
AcDbEntity
8
0
100
AcDbLine
10
326.74974481960408
20
764.06393180276905
30
0
11
328.98222535979522
21
765.16984184728005
31
0
0
ARC
5
262
100
AcDbEntity
8
0
100
AcDbCircle
10
326.52015519134136
20
764.52740021945465
30
0
40
0.51721791410454487
210
0
220
0
230
1
100
AcDbArc
50
171.67858164295524
51
296.35256174748139
0
LINE
5
263
100
AcDbEntity
8
0
100
AcDbLine
10
327.07293268375327
20
771.88043231166284
30
0
11
326.00838267334126
21
764.60225514908825
31
0
0
ARC
5
264
100
AcDbEntity
8
0
100
AcDbCircle
10
327.71444559339534
20
771.78660077123948
30
0
40
0.64833877812111207
210
0
220
-0
230
1
100
AcDbArc
50
52.647523479152866
51
171.67858164295703
0
LINE
5
265
100
AcDbEntity
8
0
100
AcDbLine
10
333.44021154228784
20
768.23204716539078
30
0
11
328.10780356425488
21
772.30197702018472
31
0
0
ARC
5
266
100
AcDbEntity
8
0
100
AcDbCircle
10
333.11851587377123
20
767.81056261639401
30
0
40
0.53022384724314653
210
-0
220
0
230
1
100
AcDbArc
50
-63.647438252523067
51
52.647523479152071
0
LINE
5
267
100
AcDbEntity
8
0
100
AcDbLine
10
330.99451311995665
20
766.16667438684556
30
0
11
333.35387875016204
21
767.33543984846733
31
0
0
ELLIPSE
5
268
100
AcDbEntity
8
0
100
AcDbEllipse
10
445.05972415929637
20
772.57277130986938
30
0
11
106.93367262772603
21
-71.283435874620551
31
0.0
40
0.75893564103527789
41
3.9216600760901552
42
4.0652001371031705
0
ARC
5
269
100
AcDbEntity
8
0
100
AcDbCircle
10
336.44208239937518
20
750.3188188000131
30
0
40
1.0978851555082199
210
-0
220
0
230
1
100
AcDbArc
50
-55.504983693937589
51
26.473039326341176
0
LINE
5
270
100
AcDbEntity
8
0
100
AcDbLine
10
336.91741742382385
20
749.31334424247768
30
0
11
337.06385269569154
21
749.41396880509456
31
0
0
ARC
5
271
100
AcDbEntity
8
0
100
AcDbCircle
10
336.36776868951523
20
750.11322083086395
30
0
40
0.97052371829635287
210
0
220
0
230
1
100
AcDbArc
50
206.53762205711323
51
304.49556215357137
0
ELLIPSE
5
272
100
AcDbEntity
8
0
100
AcDbEllipse
10
433.47805487541973
20
770.86593654479475
30
0
11
94.335904853394098
21
-76.348999580857011
31
0.0
40
0.75226764650830535
41
4.0181892929558352
42
4.1681943111228801
0
ARC
5
273
100
AcDbEntity
8
0
100
AcDbCircle
10
394.93467876294091
20
730.70722380518657
30
0
40
29.999999999999908
210
0
220
-0
230
1
100
AcDbArc
50
89.814368663984823
51
239.73809472822606
0
LINE
5
274
100
AcDbEntity
8
0
100
AcDbLine
10
413.13541652205811
20
760.64841288168975
30
0
11
395.03187493314931
21
760.70706635318163
31
0
0
ARC
5
275
100
AcDbEntity
8
0
100
AcDbCircle
10
413.03822035184976
20
730.64857033369458
30
0
40
29.999999999999925
210
0
220
-0
230
1
100
AcDbArc
50
37.79424110883685
51
89.814368663984922
0
ARC
5
276
100
AcDbEntity
8
0
100
AcDbCircle
10
464.40230017476881
20
770.48236633589431
30
0
40
35.000000000000455
210
0
220
0
230
1
100
AcDbArc
50
217.79424110883718
51
270.46372774962504
0
ARC
5
277
100
AcDbEntity
8
0
100
AcDbCircle
10
464.76650712132198
20
725.48384021225206
30
0
40
10.000000000000199
210
0
220
-0
230
1
100
AcDbArc
50
5.9673799054709802
51
90.463727749625178
0
ARC
5
278
100
AcDbEntity
8
0
100
AcDbCircle
10
444.87488221788169
20
723.40459546936449
30
0
40
29.999999999999961
210
-0
220
0
230
1
100
AcDbArc
50
-75.431000889412118
51
5.9673799054701853
0
SPLINE
5
279
100
AcDbEntity
8
0
100
AcDbSpline
70
0
71
3
72
23
73
19
74
0
42
0.000000001
43
0.0000000001
44
0.0000000001
40
950.81775811165608
40
950.81775811165608
40
950.81775811165608
40
950.81775811165608
40
956.9667395060485
40
956.9667395060485
40
956.9667395060485
40
974.6912094709736
40
974.6912094709736
40
974.6912094709736
40
992.40066873934097
40
992.40066873934097
40
992.40066873934097
40
1027.8478746231906
40
1027.8478746231906
40
1027.8478746231906
40
1045.5844163161287
40
1045.5844163161287
40
1045.5844163161287
40
1098.7412349865594
40
1098.7412349865594
40
1098.7412349865594
40
1098.7412349865594
10
379.81532109960818
20
704.79400415017585
30
0
10
380.75554389190745
20
704.24454120382825
30
0
10
381.70400804509711
20
703.7084964167509
30
0
10
382.65952922653412
20
703.18640415131415
30
0
10
385.41382386412641
20
701.68147055595557
30
0
10
388.22446243127587
20
700.29366885121567
30
0
10
391.02503022756144
20
699.04173185384184
30
0
10
393.8232262477959
20
697.79085511081757
30
0
10
396.61550300453473
20
696.67413509476592
30
0
10
399.39775959182441
20
695.72987297059558
30
0
10
404.96671686922235
20
693.83984045088039
30
0
10
410.51158118225248
20
692.63262501143913
30
0
10
416.50422465562497
20
692.03223950602933
30
0
10
419.5027337952356
20
691.73182760379268
30
0
10
422.60058135923367
20
691.58420358463343
30
0
10
425.74470722284991
20
691.55653996667434
30
0
10
435.16772391362878
20
691.47363147475494
30
0
10
444.96571066818376
20
692.48351813872091
30
0
10
452.42125397692791
20
694.36923300780245
30
0
0
LINE
5
280
100
AcDbEntity
8
0
100
AcDbLine
10
425.42359745245551
20
824.41470205593589
30
0
11
398.79464444656202
21
876.1981793833047
31
0
0
ARC
5
281
100
AcDbEntity
8
0
100
AcDbCircle
10
398.74442915182243
20
810.69530050971355
30
0
40
29.999999999999908
210
0
220
0
230
1
100
AcDbArc
50
-90.185631336015419
51
27.213880554173329
0
LINE
5
282
100
AcDbEntity
8
0
100
AcDbLine
10
353.55866688313233
20
780.84153992658003
30
0
11
398.64723298161391
21
780.69545796171849
31
0
0
ARC
5
283
100
AcDbEntity
8
0
100
AcDbCircle
10
353.65586305334085
20
810.84138247457554
30
0
40
30.000000000000068
210
0
220
0
230
1
100
AcDbArc
50
178.71960099598562
51
269.81436866398457
0
SPLINE
5
284
100
AcDbEntity
8
0
100
AcDbSpline
70
0
71
3
72
20
73
16
74
0
42
0.000000001
43
0.0000000001
44
0.0000000001
40
586.61921053941387
40
586.61921053941387
40
586.61921053941387
40
586.61921053941387
40
602.53522579715082
40
602.53522579715082
40
602.53522579715082
40
637.97842929818876
40
637.97842929818876
40
637.97842929818876
40
673.41760245082321
40
673.41760245082321
40
673.41760245082321
40
708.8628246675197
40
708.8628246675197
40
708.8628246675197
40
718.47845630412041
40
718.47845630412041
40
718.47845630412041
40
718.47845630412041
10
347.53297682756147
20
879.67803831840899
30
0
10
345.82796360489488
20
877.24116283383853
30
0
10
344.19653721395821
20
874.73386159869096
30
0
10
342.63621180473251
20
872.16920883638068
30
0
10
339.16153990278485
20
866.45801113443838
30
0
10
336.03929079297637
20
860.46236813967357
30
0
10
333.38626122726623
20
854.35972132172787
30
0
10
330.73353334516304
20
848.25776845326868
30
0
10
328.55370210389776
20
842.0569302708434
30
0
10
326.9585933590767
20
835.80038622100471
30
0
10
325.36321234732236
20
829.54277425020769
30
0
10
324.35114164261347
20
823.22343015535421
30
0
10
323.90361379746082
20
816.78055123762283
30
0
10
323.78220779019136
20
815.03271763755765
30
0
10
323.70234809745256
20
813.27579072333288
30
0
10
323.66270527498796
20
811.51175655837403
30
0
0
ARC
5
285
100
AcDbEntity
8
0
100
AcDbCircle
10
372.11547614592905
20
862.47877783708236
30
0
40
29.999999999999808
210
0
220
-0
230
1
100
AcDbArc
50
27.213880554173436
51
145.02126104898673
0
LINE
5
286
100
AcDbEntity
8
0
100
AcDbLine
10
416.9512405145432
20
884.62399280863929
30
0
11
449.86501757788426
21
820.6188541935245
31
0
0
ARC
5
287
100
AcDbEntity
8
0
100
AcDbCircle
10
443.63040881517645
20
898.34339435486197
30
0
40
30.000000000000021
210
0
220
-0
230
1
100
AcDbArc
50
86.405473889513445
51
207.21388055417373
0
SPLINE
5
288
100
AcDbEntity
8
0
100
AcDbSpline
70
0
71
3
72
29
73
25
74
0
42
0.000000001
43
0.0000000001
44
0.0000000001
40
106.31709253997661
40
106.31709253997661
40
106.31709253997661
40
106.31709253997661
40
155.20160591264781
40
155.20160591264781
40
155.20160591264781
40
177.20207935526162
40
177.20207935526162
40
177.20207935526162
40
212.65045413424173
40
212.65045413424173
40
212.65045413424173
40
248.09170599353908
40
248.09170599353908
40
248.09170599353908
40
283.54002639831089
40
283.54002639831089
40
283.54002639831089
40
318.95342114968724
40
318.95342114968724
40
318.95342114968724
40
354.32836013324811
40
354.32836013324811
40
354.32836013324811
40
381.76268364531478
40
381.76268364531478
40
381.76268364531478
40
381.76268364531478
10
530.50067742889962
20
829.53376601494529
30
0
10
531.85351266299654
20
837.80753598603269
30
0
10
532.07796830699544
20
846.79814764222567
30
0
10
530.9816948968172
20
855.41404439052326
30
0
10
530.48831708894988
20
859.29162840471122
30
0
10
529.73270635662357
20
863.10485711877163
30
0
10
528.70121947422138
20
866.79583674428113
30
0
10
527.03923098645691
20
872.74294644662109
30
0
10
524.65405208819857
20
878.38417136221869
30
0
10
521.55831334485219
20
883.70868290969656
30
0
10
518.46319665254669
20
889.03212456135168
30
0
10
514.65995606352124
20
894.04171445348902
30
0
10
510.2889723862595
20
898.63138904890195
30
0
10
505.91711694247522
20
903.22197902743142
30
0
10
500.98962651818374
20
907.37910380742142
30
0
10
495.65854474095482
20
911.01054379665754
30
0
10
490.33271544148079
20
914.63840588959442
30
0
10
484.5987808614118
20
917.74467485384434
30
0
10
478.59216213086802
20
920.29718751563701
30
0
10
472.59206604908138
20
922.84692837780551
30
0
10
466.32578882814084
20
924.83961087880698
30
0
10
460.06176187743392
20
926.21635746257027
30
0
10
455.20382157303203
20
927.284065627117
30
0
10
450.34720364814211
20
927.9816124848378
30
0
10
445.51136101358895
20
928.28592021433394
30
0
0
ARC
5
289
100
AcDbEntity
8
0
100
AcDbCircle
10
500.9170114779235
20
834.51439939846239
30
0
40
29.999999999999623
210
0
220
0
230
1
100
AcDbArc
50
269.81436866398428
51
350.4434418850895
0
LINE
5
290
100
AcDbEntity
8
0
100
AcDbLine
10
472.17955012825303
20
804.60734814044656
30
0
11
500.8198153077148
21
804.51455685046767
31
0
0
ARC
5
291
100
AcDbEntity
8
0
100
AcDbCircle
10
464.40230017491399
20
770.48236633658257
30
0
40
34.999999999296506
210
0
220
-0
230
1
100
AcDbArc
50
77.161297810623694
51
79.234008109344657
0
ARC
5
292
100
AcDbEntity
8
0
100
AcDbCircle
10
476.54418587851774
20
834.3382557397473
30
0
40
30.000000000000444
210
0
220
0
230
1
100
AcDbArc
50
207.21388055417373
51
259.23400810932134
0
LWPOLYLINE
5
293
100
AcDbEntity
8
0
100
AcDbPolyline
90
31
70
1
43
0.0
10
354.64259351216685
20
745.2004147653555
42
-0.072872758697292359
10
352.8802631351607
20
744.66387466847982
42
-0.068321888641017306
10
351.65261957694406
20
744.65782326108138
42
-0.16382915835021186
10
349.16452273289053
20
745.92317678421807
42
-0.054663599143772189
10
348.30359602466706
20
746.98450393226176
42
-0.047043046521220294
10
347.614001782049
20
748.28533062239012
42
-0.10809007411097414
10
347.2226241033693
20
750.39515927830973
42
-0.23785133936147476
10
349.06954297155562
20
753.72394568676395
42
-0.1902014851544386
10
352.73848215947817
20
754.52329823013383
42
-0.028687641907765717
10
353.90994430141455
20
754.31017879254784
10
355.03922531920517
20
753.99966564099645
10
356.98134500668766
20
753.35524273637452
10
358.9452292858
20
752.59695794376034
10
360.09635979911258
20
752.21254282102507
10
361.11055406618846
20
752.001238462522
10
361.75628856211034
20
751.99389938530862
10
357.85472553958135
20
758.80245263971801
10
359.49294504041313
20
759.74121545589946
10
364.75110173976395
20
750.56529296000872
42
-0.11578647091883527
10
363.19788752910569
20
750.04973843202254
42
-0.075684846100827957
10
360.96389000718284
20
750.14984525728153
10
359.98773321510987
20
750.37525933685117
10
358.86102148313864
20
750.71706141629522
10
357.58375485052341
20
751.17525164023641
42
0.02893213792563026
10
354.09668303295007
20
752.31897962297194
42
0.030451714165860105
10
352.89076375603224
20
752.54900379172693
42
0.072912089496362312
10
351.35679119916642
20
752.51789623893262
42
0.10623584871411508
10
350.16868419705128
20
752.03390323527901
42
0.40499579162187221
10
349.47723826294003
20
748.17775455242258
42
0.078733972382039233
10
350.19444907847924
20
747.26437713575228
42
0.34449948767724276
10
353.81863430627527
20
747.05536893242891
0
LWPOLYLINE
5
294
100
AcDbEntity
8
0
100
AcDbPolyline
90
51
70
1
43
0.0
10
342.47272551305491
20
766.32809371999554
10
343.61460405721169
20
764.64273997950215
42
0.074821457036287911
10
342.72078433516191
20
763.78516636350787
42
0.095896098778651004
10
342.23463137663498
20
762.80588588617729
42
0.07665505231263281
10
342.1418997298361
20
761.98721434098593
42
0.064247996685721426
10
342.29697148718731
20
761.08163654235022
42
0.04736297602996023
10
342.70093362725663
20
760.08806825330862
42
0.033658293981175029
10
343.31993085204891
20
759.05854439771349
42
0.04610124106094942
10
343.9806232456624
20
758.27265754883967
42
0.067533933680664404
10
344.66188482951742
20
757.76551233811483
42
0.14167633984431388
10
346.00017723828677
20
757.47996180135851
42
0.29951295057168542
10
347.67891981183504
20
758.80844503840854
10
347.7525911055364
20
759.18571297425444
10
347.73777785958521
20
759.71454909989052
10
347.6285657073584
20
760.41353900826937
10
347.42495464089757
20
761.28268283957573
10
346.6844622550625
20
763.844155814386
10
346.32884806240264
20
765.36230078145354
42
-0.050170512787787343
10
346.22377648557222
20
766.5603019295645
42
-0.059300086553041635
10
346.36447075473711
20
767.73918040417186
42
-0.27424409334258654
10
349.316350545646
20
770.63675103912021
42
-0.093731145900496748
10
351.03367915544595
20
770.74816042688087
42
-0.082864128691131189
10
352.47557956321816
20
770.32001713368743
42
-0.056101603953853246
10
353.57343270419278
20
769.62274555447777
42
-0.09516330322144799
10
355.38315571996009
20
767.46192601892392
42
-0.060516552366612915
10
356.42329610934956
20
765.08093581455671
42
-0.071097491628095255
10
356.68099867031862
20
763.29462695319069
42
-0.26322427489428551
10
354.07777917004665
20
758.8520212739212
10
352.93324131980165
20
760.49811373824332
42
0.057133707708767842
10
353.83901438389211
20
761.33279527814898
42
0.060853155092730885
10
354.31418646994211
20
762.05047686873183
42
0.07231051278453933
10
354.57171612097392
20
762.8596134602077
42
0.057974787839206232
10
354.61569062066451
20
763.80727282768794
42
0.10710597155058234
10
353.92827676018777
20
766.16947858597143
42
0.078110062042462763
10
352.74365999646477
20
767.81030753276525
42
0.11035961469489816
10
351.37839440132637
20
768.70174078511036
42
0.27226020329161799
10
349.058139412228
20
768.24708410819073
42
0.1150512589673211
10
348.52718758626679
20
767.49557568070497
42
0.10344574491321046
10
348.36120938449903
20
766.43886923854961
42
0.048362152539161526
10
348.4962471555292
20
765.39873874849877
10
348.90692297212513
20
763.81011701619047
10
349.52098000019043
20
761.59665645045061
42
-0.026347560615039404
10
349.7885526646059
20
760.2429911195843
42
-0.11750010643605953
10
349.58149947306316
20
757.94887446647476
42
-0.13044248884676593
10
348.52674886797172
20
756.44747004296039
42
-0.10880531553766593
10
346.96597792671065
20
755.63764689361619
42
-0.20601927244332491
10
343.7566501360788
20
756.10861036520851
42
-0.052367591234345527
10
342.76209117337066
20
756.87237473627192
42
-0.084484742823326603
10
341.12718906685666
20
759.07568042867842
42
-0.065413159356668873
10
340.36626475014293
20
761.08648977326891
42
-0.069430547700133238
10
340.21988606290438
20
762.68625383205415
42
-0.24683343045873191
0
LINE
5
295
100
AcDbEntity
8
0
100
AcDbLine
10
263.81712664180191
20
766.9724986532816
30
0
11
207.38348715390913
21
767.15533740053058
31
0
0
ARC
5
296
100
AcDbEntity
8
0
100
AcDbCircle
10
211.73021116233031
20
771.29127627670766
30
0
40
5.9999999999997673
210
0
220
0
230
1
100
AcDbArc
50
136.05218346109137
51
223.57655387232796
0
LINE
5
297
100
AcDbEntity
8
0
100
AcDbLine
10
207.41037809350905
20
775.45529383881228
30
0
11
260.71781157603499
21
775.28258365308886
31
0
0
SPLINE
5
298
100
AcDbEntity
8
0
100
AcDbSpline
70
0
71
3
72
52
73
48
74
0
42
0.000000001
43
0.0000000001
44
0.0000000001
40
7.8960452184941715e-10
40
7.8960452184941715e-10
40
7.8960452184941715e-10
40
7.8960452184941715e-10
40
21.727724851416845
40
32.591587276730465
40
43.455449702044085
40
76.047036977984959
40
86.910899403298572
40
130.36634910455308
40
173.82179880580756
40
188.30694870622574
40
202.79209860664389
40
231.76239840748022
40
260.73269820831655
40
289.70299800915285
40
347.64359761082551
40
405.58419721249817
40
463.52479681417077
40
521.46539641584343
40
543.1931212664706
40
564.92084611709788
40
608.37629581835245
40
630.10402066897973
40
651.8317455196069
40
695.28719522086135
40
717.01492007148863
40
738.7426449221158
40
760.47036977274297
40
782.19809462337025
40
825.65354432462482
40
847.3812691752521
40
869.10899402587927
40
890.83671887650644
40
912.56444372713372
40
934.292168577761
40
956.01989342838829
40
977.74761827901557
40
999.47534312964285
40
1021.2030679802701
40
1032.0669304055837
40
1042.9307928308974
40
1064.6585176815247
40
1086.3862425321518
40
1108.113967382779
40
1129.8416922334063
40
1151.5694170840336
40
1173.2971419346609
40
1216.7525916359152
40
1216.7525916359152
40
1216.7525916359152
40
1216.7525916359152
10
260.71781157543796
20
775.28258365300712
30
0
10
264.64021945869621
20
778.41617443463304
30
0
10
270.20206310049804
20
783.31029002029868
30
0
10
276.87016734890244
20
790.34146156941677
30
0
10
284.51834207395768
20
799.49987195747099
30
0
10
290.66297118316521
20
809.72179101686584
30
0
10
297.41543784129044
20
828.44051876671085
30
0
10
300.84906737005122
20
852.58611505812598
30
0
10
297.50964119500077
20
877.94201365790116
30
0
10
291.19467050646006
20
894.3975912005227
30
0
10
284.67067150590987
20
906.92800340425481
30
0
10
273.94426398278819
20
921.23503142066625
30
0
10
257.89114981265539
20
936.0092800949476
30
0
10
233.1233010216734
20
951.62536535063259
30
0
10
197.42466524769779
20
961.86621641538761
30
0
10
152.78378140300779
20
958.49524372399742
30
0
10
111.86953146701333
20
940.98110163971967
30
0
10
85.292590746650461
20
919.05129368201813
30
0
10
69.615636742690043
20
898.87198057556373
30
0
10
57.990891483835426
20
879.99266771771897
30
0
10
49.272976495206521
20
859.53516024054102
30
0
10
44.109056104424184
20
838.63887046381819
30
0
10
41.493155750947849
20
817.4750441463442
30
0
10
42.38090379269444
20
795.79838098514642
30
0
10
46.573573293878653
20
774.36203303257525
30
0
10
51.505842310581613
20
758.92598752201695
30
0
10
58.071676564022553
20
744.30145840261343
30
0
10
68.577323775962512
20
726.19713373279922
30
0
10
81.026564707250913
20
710.02488362707413
30
0
10
97.168158407296715
20
696.56724742355721
30
0
10
110.83152366904956
20
687.95953885146776
30
0
10
125.08343973758556
20
680.79535236603294
30
0
10
138.97667476494294
20
675.30599983602553
30
0
10
152.34639360831255
20
672.05161194686286
30
0
10
166.60808830324018
20
670.90519888970846
30
0
10
181.6807040987066
20
671.26676409049423
30
0
10
196.26310357668831
20
673.16618963209532
30
0
10
207.21883078211641
20
676.40751366032407
30
0
10
215.50599316332654
20
680.05228420607511
30
0
10
223.57791291651708
20
684.29224806303978
30
0
10
233.28868554250658
20
690.57088207800189
30
0
10
243.40549799452856
20
699.23090779265226
30
0
10
251.63142354907208
20
708.95704464389132
30
0
10
258.37056208339749
20
719.74663915012457
30
0
10
262.9663776212517
20
731.51381783868362
30
0
10
265.90713301965775
20
747.71426187732209
30
0
10
265.5351940344496
20
759.47493549474882
30
0
10
263.81712664187904
20
766.97249865408253
30
0
0
CIRCLE
5
299
100
AcDbEntity
8
0
100
AcDbCircle
10
220.32149464768401
20
787.20821492539244
30
0
40
3.2000000000940054
210
0
220
0
230
1
0
CIRCLE
5
300
100
AcDbEntity
8
0
100
AcDbCircle
10
203.12911840086585
20
755.57876347679394
30
0
40
3.2000000002395756
210
0
220
0
230
1
0
LINE
5
301
100
AcDbEntity
8
0
100
AcDbLine
10
56.710542511793847
20
767.11636780587526
30
0
11
58.943023051985186
21
768.22227785038638
31
0
0
ARC
5
302
100
AcDbEntity
8
0
100
AcDbCircle
10
56.480952883531202
20
767.57983622256108
30
0
40
0.51721791410457985
210
0
220
0
230
1
100
AcDbArc
50
171.67858164299457
51
296.35256174746314
0
LINE
5
303
100
AcDbEntity
8
0
100
AcDbLine
10
57.033730375943144
20
774.93286831476905
30
0
11
55.969180365530981
21
767.65469115219435
31
0
0
ARC
5
304
100
AcDbEntity
8
0
100
AcDbCircle
10
57.675243285585218
20
774.83903677434569
30
0
40
0.64833877812125218
210
0
220
-0
230
1
100
AcDbArc
50
52.6475234791369
51
171.67858164295703
0
LINE
5
305
100
AcDbEntity
8
0
100
AcDbLine
10
63.401009234477606
20
771.2844831684971
30
0
11
58.068601256444985
21
775.35441302329093
31
0
0
ARC
5
306
100
AcDbEntity
8
0
100
AcDbCircle
10
63.07931356596108
20
770.86299861950056
30
0
40
0.53022384724313865
210
-0
220
0
230
1
100
AcDbArc
50
-63.647438252528566
51
52.647523479144489
0
LINE
5
307
100
AcDbEntity
8
0
100
AcDbLine
10
60.955310812146656
20
769.21911038995188
30
0
11
63.314676442351889
21
770.38787585157377
31
0
0
ELLIPSE
5
308
100
AcDbEntity
8
0
100
AcDbEllipse
10
175.02052190064296
20
775.62520732060068
30
0
11
106.93367268947257
21
-71.283435854795783
31
0.0
40
0.75893564106704914
41
3.9216600757023445
42
4.0652001366832966
0
ARC
5
309
100
AcDbEntity
8
0
100
AcDbCircle
10
66.402880091565351
20
753.37125480311954
30
0
40
1.0978851555079014
210
-0
220
0
230
1
100
AcDbArc
50
-55.504983693946798
51
26.473039326296995
0
LINE
5
310
100
AcDbEntity
8
0
100
AcDbLine
10
66.87821511601372
20
752.36578024558366
30
0
11
67.024650387881337
21
752.46640480820122
31
0
0
ARC
5
311
100
AcDbEntity
8
0
100
AcDbCircle
10
66.328566381705059
20
753.16565683397039
30
0
40
0.97052371829626538
210
0
220
0
230
1
100
AcDbArc
50
206.53762205712448
51
304.49556215355824
0
ELLIPSE
5
312
100
AcDbEntity
8
0
100
AcDbEllipse
10
163.43885258634924
20
773.91837255112944
30
0
11
94.335904876359706
21
-76.348999576004815
31
0.0
40
0.75226764653622114
41
4.0181892928100096
42
4.1681943109630026
0
LINE
5
313
100
AcDbEntity
8
0
100
AcDbLine
10
160.46332750962006
20
761.4573228225031
30
0
11
126.35023344380957
21
761.56784547247526
31
0
0
ARC
5
314
100
AcDbEntity
8
0
100
AcDbCircle
10
160.36613133941177
20
731.45748027450838
30
0
40
29.999999999999861
210
0
220
-0
230
1
100
AcDbArc
50
37.794241108836445
51
89.814368663985036
0
ARC
5
315
100
AcDbEntity
8
0
100
AcDbCircle
10
211.73021116233036
20
771.29127627670732
30
0
40
34.999999999999766
210
0
220
0
230
1
100
AcDbArc
50
217.79424110883696
51
272.38426908175182
0
ARC
5
316
100
AcDbEntity
8
0
100
AcDbCircle
10
213.60227131243863
20
726.33023324171586
30
0
40
9.9999999999999964
210
0
220
-0
230
1
100
AcDbArc
50
18.302641850495753
51
92.384269081751697
0
ARC
5
317
100
AcDbEntity
8
0
100
AcDbCircle
10
194.61405133728275
20
720.04950858805569
30
0
40
30.000000000000032
210
-0
220
0
230
1
100
AcDbArc
50
-66.056913749041328
51
18.302641850496624
0
SPLINE
5
318
100
AcDbEntity
8
0
100
AcDbSpline
70
0
71
3
72
35
73
31
74
0
42
0.000000001
43
0.0000000001
44
0.0000000001
40
1017.6483176994436
40
1017.6483176994436
40
1017.6483176994436
40
1017.6483176994436
40
1020.0470552814439
40
1020.0470552814439
40
1020.0470552814439
40
1040.0252864698734
40
1040.0252864698734
40
1040.0252864698734
40
1059.9918529490087
40
1059.9918529490087
40
1059.9918529490087
40
1079.9693731568448
40
1079.9693731568448
40
1079.9693731568448
40
1099.9366368717624
40
1099.9366368717624
40
1099.9366368717624
40
1119.8991404693379
40
1119.8991404693379
40
1119.8991404693379
40
1139.8786372630861
40
1139.8786372630861
40
1139.8786372630861
40
1179.8225828690106
40
1179.8225828690106
40
1179.8225828690106
40
1209.7351482402194
40
1209.7351482402194
40
1209.7351482402194
40
1219.7602629059209
40
1219.7602629059209
40
1219.7602629059209
40
1219.7602629059209
10
109.51227300531124
20
706.67332427211136
30
0
10
109.87494194155045
20
706.42957163930669
30
0
10
110.23966024195188
20
706.18733265377614
30
0
10
110.60636929140074
20
705.9465850068209
30
0
10
113.66055838809612
20
703.94148357970607
30
0
10
116.85118016689711
20
702.04089373598561
30
0
10
120.10307229630627
20
700.25962344206903
30
0
10
123.35306574029191
20
698.47939318017336
30
0
10
126.66688981675691
20
696.81718142721127
30
0
10
129.96834060339867
20
695.30045279486387
30
0
10
133.27160257757103
20
693.78289207984596
30
0
10
136.55941603880603
20
692.41138143568696
30
0
10
139.74999764102077
20
691.24348975807663
30
0
10
142.93894119320385
20
690.07619767804374
30
0
10
146.01052813708515
20
689.12099954849043
30
0
10
149.05306990957524
20
688.38045579608638
30
0
10
152.09488635204207
20
687.64008858640761
30
0
10
155.13777476926623
20
687.10766971832584
30
0
10
158.34055566901858
20
686.74473079842699
30
0
10
161.54606295446004
20
686.38148292468202
30
0
10
164.90903105039254
20
686.18657165867285
30
0
10
168.35936599942627
20
686.12680831016428
30
0
10
175.25743720458038
20
686.00732662517999
30
0
10
182.46890036489756
20
686.42923340342679
30
0
10
188.97166705340675
20
687.45769460825704
30
0
10
193.84135207608261
20
688.22787172908397
30
0
10
198.31418033675112
20
689.34123716976387
30
0
10
202.55654061715873
20
690.9096546140463
30
0
10
203.97835608957021
20
691.43530544096461
30
0
10
205.37275472701481
20
692.0112430717561
30
0
10
206.78892098746928
20
692.63103764234063
30
0
0
ARC
5
319
100
AcDbEntity
8
0
100
AcDbCircle
10
126.25303727360121
20
731.56800292448042
30
0
40
29.999999999999766
210
0
220
-0
230
1
100
AcDbArc
50
89.814368663984894
51
236.08060584324056
0
LINE
5
320
100
AcDbEntity
8
0
100
AcDbLine
10
87.011345682963039
20
781.69540408431101
30
0
11
145.9751439691758
21
781.50436790253138
31
0
0
ARC
5
321
100
AcDbEntity
8
0
100
AcDbCircle
10
87.108541853171445
20
811.69524663230663
30
0
40
30.000000000000028
210
0
220
0
230
1
100
AcDbArc
50
180.56199317245472
51
269.81436866398485
0
SPLINE
5
322
100
AcDbEntity
8
0
100
AcDbSpline
70
0
71
3
72
20
73
16
74
0
42
0.000000001
43
0.0000000001
44
0.0000000001
40
628.1032216898476
40
628.1032216898476
40
628.1032216898476
40
628.1032216898476
40
660.574856105246
40
660.574856105246
40
660.574856105246
40
700.5007134239911
40
700.5007134239911
40
700.5007134239911
40
740.44642060282285
40
740.44642060282285
40
740.44642060282285
40
780.38827857497915
40
780.38827857497915
40
780.38827857497915
40
795.25840242747063
40
795.25840242747063
40
795.25840242747063
40
795.25840242747063
10
88.016183616334189
20
897.93549012877509
30
0
10
84.207267352312016
20
893.2285798680573
30
0
10
80.706506952793617
20
888.21369616797233
30
0
10
77.508167494568539
20
882.94377434930857
30
0
10
73.575613831502807
20
876.46408367771323
30
0
10
70.10640655076331
20
869.60651748266173
30
0
10
67.209854637460026
20
862.62234425517761
30
0
10
64.31186265112953
20
855.63469872000383
30
0
10
61.98751495731792
20
848.52246785124964
30
0
10
60.324597747952097
20
841.3644980801721
30
0
10
58.661840778884283
20
834.20721805793039
30
0
10
57.659573131935311
20
826.99389116363761
30
0
10
57.278817706158776
20
819.65028680849764
30
0
10
57.137064652438724
20
816.91630517046883
30
0
10
57.081198957817527
20
814.16439799768625
30
0
10
57.10862967015764
20
811.40097934500307
30
0
0
ARC
5
323
100
AcDbEntity
8
0
100
AcDbCircle
10
111.33369495334128
20
879.0580434899573
30
0
40
29.999999999999993
210
0
220
-0
230
1
100
AcDbArc
50
27.213880554172285
51
141.00697802690283
0
LINE
5
324
100
AcDbEntity
8
0
100
AcDbLine
10
172.75150844001732
20
825.22361199674924
30
0
11
138.01286325397467
21
892.77744503617919
31
0
0
ARC
5
325
100
AcDbEntity
8
0
100
AcDbCircle
10
146.07234013938432
20
811.50421045052724
30
0
40
30.00000000000076
210
0
220
0
230
1
100
AcDbArc
50
-90.185631336015419
51
27.213880554172821
0
LINE
5
326
100
AcDbEntity
8
0
100
AcDbLine
10
156.18933825265148
20
901.16460128423921
30
0
11
197.19292856544598
21
821.42776413433796
31
0
0
ARC
5
327
100
AcDbEntity
8
0
100
AcDbCircle
10
182.8685065532849
20
914.88400283046212
30
0
40
30.000000000000199
210
0
220
0
230
1
100
AcDbArc
50
91.011562781826669
51
207.21388055417401
0
SPLINE
5
328
100
AcDbEntity
8
0
100
AcDbSpline
70
0
71
3
72
35
73
31
74
0
42
0.000000001
43
0.0000000001
44
0.0000000001
40
101.37798295615411
40
101.37798295615411
40
101.37798295615411
40
101.37798295615411
40
141.32444117341589
40
141.32444117341589
40
141.32444117341589
40
181.26714953275922
40
181.26714953275922
40
181.26714953275922
40
201.23997481581449
40
201.23997481581449
40
201.23997481581449
40
221.21304654401791
40
221.21304654401791
40
221.21304654401791
40
261.15710718031846
40
261.15710718031846
40
261.15710718031846
40
281.1142513917431
40
281.1142513917431
40
281.1142513917431
40
301.09011015330452
40
301.09011015330452
40
301.09011015330452
40
341.02560574235389
40
341.02560574235389
40
341.02560574235389
40
420.93227465292716
40
420.93227465292716
40
420.93227465292716
40
433.58989585791113
40
433.58989585791113
40
433.58989585791113
40
433.58989585791113
10
280.68449553777202
20
826.64169368149771
30
0
10
282.62312438265803
20
833.02085837812922
30
0
10
283.78395083662684
20
840.11486236820474
30
0
10
284.20064560619784
20
847.34153706117013
30
0
10
284.61730125975583
20
854.56753337100622
30
0
10
284.283462003387
20
861.90773215742422
30
0
10
283.10766185203204
20
868.91748445065309
30
0
10
282.51971847123946
20
872.42261876880195
30
0
10
281.72055563982542
20
875.84983066690722
30
0
10
280.70576369578043
20
879.17982083251127
30
0
10
279.69095923019444
20
882.50985208694033
30
0
10
278.46092908441841
20
885.74185077274581
30
0
10
277.0054418692074
20
888.89002955391584
30
0
10
274.09461921904602
20
895.18605881973008
30
0
10
270.2831303093318
20
901.14660720086886
30
0
10
265.75755593694799
20
906.72935413046957
30
0
10
263.49645531396544
20
909.51864705149728
30
0
10
261.05786171045065
20
912.2121472700328
30
0
10
258.47137206458069
20
914.77574042697586
30
0
10
255.88245697198144
20
917.34173755976599
30
0
10
253.14690311822716
20
919.77656301354818
30
0
10
250.29134949092636
20
922.06655324371059
30
0
10
244.58256116555023
20
926.64467405579796
30
0
10
238.39599626624891
20
930.64048572694242
30
0
10
231.84730181208374
20
933.91241623432109
30
0
10
218.7440624049591
20
940.45920033941673
30
0
10
204.21367440604638
20
944.11199786785323
30
0
10
189.39678205409461
20
944.78549460512158
30
0
10
187.04971123531325
20
944.89217990059615
30
0
10
184.69541418800429
20
944.92383890638575
30
0
10
182.33884615058821
20
944.8813698549227
30
0
0
ARC
5
329
100
AcDbEntity
8
0
100
AcDbCircle
10
251.96449121167404
20
835.31125834812974
30
0
40
30.00000000000005
210
0
220
0
230
1
100
AcDbArc
50
269.81436866398485
51
343.20277152699998
0
LINE
5
330
100
AcDbEntity
8
0
100
AcDbLine
10
219.50746111581483
20
805.41625808125968
30
0
11
251.86729504146567
21
805.31141580013457
31
0
0
ARC
5
331
100
AcDbEntity
8
0
100
AcDbCircle
10
211.73021116241642
20
771.29127627711057
30
0
40
34.9999999995878
210
0
220
-0
230
1
100
AcDbArc
50
77.161297810632647
51
79.234008109336472
0
ARC
5
332
100
AcDbEntity
8
0
100
AcDbCircle
10
223.87209686607923
20
835.14716568056087
30
0
40
30.00000000000032
210
0
220
0
230
1
100
AcDbArc
50
207.21388055417412
51
259.23400810932196
0
LWPOLYLINE
5
333
100
AcDbEntity
8
0
100
AcDbPolyline
90
31
70
1
43
0.0
10
86.152727888213434
20
739.65110351039539
42
-0.07287275869729358
10
84.390397511207325
20
739.11456341351959
42
-0.068321888640920606
10
83.162753952990727
20
739.10851200612126
42
-0.16382915835015999
10
80.674657108937083
20
740.37386552925796
42
-0.05466359914366295
10
79.813730400713524
20
741.43519267730187
42
-0.047043046521171666
10
79.12413615809561
20
742.73601936743012
42
-0.10809007411088283
10
78.732758479415949
20
744.84584802334962
42
-0.23785133936150046
10
80.57967734760237
20
748.17463443180395
42
-0.1902014851544295
10
84.248616535524818
20
748.97398697517372
42
-0.028687641907774494
10
85.420078677461106
20
748.76086753758773
10
86.549359695251525
20
748.45035438603634
10
88.491479382734042
20
747.80593148141429
10
90.455363661846491
20
747.04764668880011
10
91.606494175158957
20
746.66323156606484
10
92.620688442234979
20
746.45192720756188
10
93.266422938157007
20
746.44458813034839
10
89.364859915627932
20
753.25314138475801
10
91.003079416459713
20
754.19190420093958
10
96.261236115810661
20
745.01598170504849
42
-0.11578647091883618
10
94.708021905152322
20
744.50042717706208
42
-0.075684846100838796
10
92.474024383229207
20
744.6005340023213
10
91.497867591156151
20
744.82594808189094
10
90.371155859185052
20
745.16775016133511
10
89.093889226569985
20
745.62594038527618
42
0.028932137925714963
10
85.60681740899679
20
746.76966836801182
42
0.030451714166062058
10
84.400898132078879
20
746.99969253676682
42
0.072912089496267055
10
82.866925575213031
20
746.96858498397262
42
0.10623584871429068
10
81.678818573097857
20
746.48459198031856
42
0.40499579162180721
10
80.987372638986628
20
742.62844329746247
42
0.07873397238197255
10
81.70458345452586
20
741.71506588079228
42
0.34449948767724037
10
85.328768682321922
20
741.50605767746879
0
LWPOLYLINE
5
334
100
AcDbEntity
8
0
100
AcDbPolyline
90
12
70
1
43
0.0
10
76.12237386786127
20
747.97922274096595
10
74.868880959955803
20
750.16667253178514
10
78.050182691461757
20
756.82001419288497
10
70.554913794903229
20
757.69490545059966
10
69.409948255491628
20
759.69296592137368
10
78.747939602406092
20
758.56580989213785
10
83.07514623381158
20
768.02680958623546
10
84.377475604053259
20
765.75413609080033
10
80.84655085091255
20
758.28407435344366
10
89.103848097026543
20
757.50622143896305
10
90.368193552117617
20
755.29983304711845
10
80.056759060193087
20
756.5232754186685
0
LWPOLYLINE
5
335
100
AcDbEntity
8
0
100
AcDbPolyline
90
6
70
1
43
0.0
10
68.123897706028799
20
761.93723151527013
10
67.071180714331973
20
763.77431056753767
10
79.315213928807452
20
770.79061277612766
10
75.397371374261454
20
777.62757517324587
10
77.035590875093149
20
778.56633798942744
10
82.006150421336088
20
769.89229654004157
0
LINE
5
336
100
AcDbEntity
8
0
100
AcDbLine
10
1268.063479782388
20
762.3102872470663
30
0
11
1211.6119662904266
21
762.49318390411099
31
0
0
ARC
5
337
100
AcDbEntity
8
0
100
AcDbCircle
10
1215.9586902988481
20
766.62912278028773
30
0
40
6.000000000000016
210
0
220
0
230
1
100
AcDbArc
50
136.05218346108978
51
223.57655387232373
0
LINE
5
338
100
AcDbEntity
8
0
100
AcDbLine
10
1211.6388572300268
20
770.79314034239258
30
0
11
1265.5647476077479
21
770.61842642476404
31
0
0
ARC
5
339
100
AcDbEntity
8
0
100
AcDbCircle
10
1260.3185041036841
20
767.4936519991353
30
0
40
6.1063316414190814
210
0
220
-0
230
1
100
AcDbArc
50
30.778929180118134
51
37.167778614472518
0
SPLINE
5
340
100
AcDbEntity
8
0
100
AcDbSpline
70
0
71
3
72
51
73
47
74
0
42
0.000000001
43
0.0000000001
44
0.0000000001
40
0
40
0
40
0
40
0
40
19.344839752708847
40
58.034519258126537
40
77.379359010835387
40
96.724198763544223
40
116.06903851625307
40
135.41387826896192
40
154.75871802167077
40
180.55183769194923
40
206.34495736222769
40
219.24151719736693
40
245.03463686764539
40
257.93119670278463
40
309.51743604334155
40
348.20711554875925
40
386.89679505417689
40
425.58647455959459
40
464.27615406501229
40
502.96583357042999
40
541.65551307584769
40
580.34519258126534
40
619.03487208668309
40
638.37971183939203
40
657.72455159210085
40
677.06939134480967
40
696.4142310975185
40
735.10391060293614
40
773.7935901083539
40
793.13842986106283
40
812.48326961377165
40
831.82810936648048
40
851.1729491191893
40
870.51778887189812
40
889.86262862460694
40
909.20746837731576
40
918.87988825367017
40
928.55230813002458
40
947.89714788273341
40
967.24198763544223
40
986.58682738815105
40
1005.93166714086
40
1025.2765068935689
40
1044.6213466462777
40
1063.9661863989866
40
1083.3110261516954
40
1083.3110261516954
40
1083.3110261516954
40
1083.3110261516954
10
1265.1844553770143
20
771.1827988262138
30
0
10
1268.4943026852741
20
774.11238678912594
30
0
10
1277.8184428024297
20
783.3919094806281
30
0
10
1287.1454011444453
20
797.19288631391282
30
0
10
1292.7607824952859
20
813.88754967381988
30
0
10
1295.2171883271351
20
827.77207233688603
30
0
10
1295.866855328479
20
842.28494670816758
30
0
10
1294.4164196210691
20
856.7173492021966
30
0
10
1290.0963927382511
20
871.87763320836893
30
0
10
1281.9503304393081
20
886.86304179110903
30
0
10
1272.1563603121865
20
899.05090977290865
30
0
10
1260.8247614391655
20
910.08941197633942
30
0
10
1250.4244709398261
20
917.67060465554687
30
0
10
1230.1374876333546
20
928.10708312296924
30
0
10
1203.9150002194547
20
934.2723743226519
30
0
10
1170.9421717707219
20
932.3976882393805
30
0
10
1143.076425202979
20
923.75389519252178
30
0
10
1118.1616215168951
20
908.49141143433098
30
0
10
1096.7016449452992
20
887.86094670888349
30
0
10
1080.0829346974685
20
863.61807154430539
30
0
10
1069.4712635138985
20
836.73075203206213
30
0
10
1065.077615555376
20
808.17584193712503
30
0
10
1066.4625902250873
20
784.01237689148547
30
0
10
1070.6617184638246
20
765.30747623171783
30
0
10
1075.3149546379641
20
751.83028542168233
30
0
10
1081.3206026207674
20
739.09458315243364
30
0
10
1090.7462295762632
20
723.14223151423539
30
0
10
1105.3364737226163
20
705.44478892837765
30
0
10
1125.1642046112886
20
691.73284152403789
30
0
10
1141.5801531206851
20
683.34605380852986
30
0
10
1153.5086208824814
20
678.76705387138611
30
0
10
1165.9252088960216
20
676.27081551739252
30
0
10
1179.5489989992652
20
675.44375159569438
30
0
10
1193.4505131893452
20
675.87627012538087
30
0
10
1206.1772753203541
20
677.77834901584879
30
0
10
1215.1485565090265
20
680.92795678828122
30
0
10
1222.3297229995762
20
684.17369725233675
30
0
10
1229.5963269074578
20
687.8783182281486
30
0
10
1238.607609452961
20
693.2590852555046
30
0
10
1247.861288231232
20
701.21637496309916
30
0
10
1255.124298381168
20
709.90562611634323
30
0
10
1260.9098805836354
20
718.97619685201505
30
0
10
1265.367688582098
20
729.66014404954262
30
0
10
1268.3356937295898
20
741.06850153833147
30
0
10
1269.3947967148918
20
751.85772078797436
30
0
10
1268.7449160998858
20
758.82162802545054
30
0
10
1268.063479783242
20
762.31028724651821
30
0
0
CIRCLE
5
341
100
AcDbEntity
8
0
100
AcDbCircle
10
1224.5499737841997
20
782.54606142896876
30
0
40
3.1999999998712445
210
0
220
0
230
1
0
CIRCLE
5
342
100
AcDbEntity
8
0
100
AcDbCircle
10
1207.3575975373783
20
750.91660998036571
30
0
40
3.1999999998713458
210
0
220
0
230
1
0
LINE
5
343
100
AcDbEntity
8
0
100
AcDbLine
10
1078.3061349436834
20
760.21068824716326
30
0
11
1080.5386154838745
21
761.31659829167415
31
0
0
ARC
5
344
100
AcDbEntity
8
0
100
AcDbCircle
10
1078.0765453154208
20
760.67415666384886
30
0
40
0.517217914104665
210
0
220
0
230
1
100
AcDbArc
50
171.67858164295797
51
296.35256174747008
0
LINE
5
345
100
AcDbEntity
8
0
100
AcDbLine
10
1078.6293228078325
20
768.02718875605706
30
0
11
1077.5647727974206
21
760.74901159348246
31
0
0
ARC
5
346
100
AcDbEntity
8
0
100
AcDbCircle
10
1079.2708357174747
20
767.93335721563381
30
0
40
0.64833877812088603
210
0
220
-0
230
1
100
AcDbArc
50
52.647523479130584
51
171.67858164296848
0
LINE
5
347
100
AcDbEntity
8
0
100
AcDbLine
10
1084.996601666367
20
764.37880360978511
30
0
11
1079.6641936883343
21
768.44873346457871
31
0
0
ARC
5
348
100
AcDbEntity
8
0
100
AcDbCircle
10
1084.6749059978504
20
763.95731906078822
30
0
40
0.530223847243115
210
-0
220
0
230
1
100
AcDbArc
50
-63.647438252523067
51
52.64752347915465
0
LINE
5
349
100
AcDbEntity
8
0
100
AcDbLine
10
1082.5509032440359
20
762.31343083123966
30
0
11
1084.9102688742412
21
763.48219629286154
31
0
0
ELLIPSE
5
350
100
AcDbEntity
8
0
100
AcDbEllipse
10
1196.6161146208965
20
768.71952779190588
30
0
11
106.93367305338398
21
-71.283435742415648
31
0.0
40
0.75893564115222423
41
3.9216600733789435
42
4.0652001341753419
0
ARC
5
351
100
AcDbEntity
8
0
100
AcDbCircle
10
1087.9984725234549
20
746.46557524440732
30
0
40
1.0978851555079383
210
-0
220
0
230
1
100
AcDbArc
50
-55.504983693956262
51
26.473039326409957
0
LINE
5
352
100
AcDbEntity
8
0
100
AcDbLine
10
1088.4738075479031
20
745.46010068687201
30
0
11
1088.6202428197707
21
745.56072524948888
31
0
0
ARC
5
353
100
AcDbEntity
8
0
100
AcDbCircle
10
1087.9241588135944
20
746.25997727525817
30
0
40
0.97052371829616235
210
0
220
0
230
1
100
AcDbArc
50
206.53762205711774
51
304.49556215357796
0
ELLIPSE
5
354
100
AcDbEntity
8
0
100
AcDbEllipse
10
1185.0344449292229
20
767.01269297931447
30
0
11
94.335904766575354
21
-76.34899959916946
31
0.0
40
0.75226764641930366
41
4.0181892935178034
42
4.1681943117368885
0
ARC
5
355
100
AcDbEntity
8
0
100
AcDbCircle
10
1215.9586902988865
20
766.62912278045883
30
0
40
34.999999999824645
210
0
220
-0
230
1
100
AcDbArc
50
77.161297810642239
51
79.234008109330887
0
ARC
5
356
100
AcDbEntity
8
0
100
AcDbCircle
10
1228.1005760025973
20
830.48501218414117
30
0
40
30.000000000000504
210
0
220
0
230
1
100
AcDbArc
50
207.21388055417344
51
259.23400810932117
0
LINE
5
357
100
AcDbEntity
8
0
100
AcDbLine
10
1171.9089376601526
20
874.1564634794305
30
0
11
1201.4214077019637
21
816.76561063791848
31
0
0
ARC
5
358
100
AcDbEntity
8
0
100
AcDbCircle
10
1198.5881059607864
20
887.87586502565318
30
0
40
30.000000000000036
210
0
220
-0
230
1
100
AcDbArc
50
85.322243987734197
51
207.21388055417322
0
SPLINE
5
359
100
AcDbEntity
8
0
100
AcDbSpline
70
0
71
3
72
35
73
31
74
0
42
0.000000001
43
0.0000000001
44
0.0000000001
40
105.28476682814835
40
105.28476682814835
40
105.28476682814835
40
105.28476682814835
40
122.24487972385883
40
122.24487972385883
40
122.24487972385883
40
139.16126339312427
40
139.16126339312427
40
139.16126339312427
40
173.01842672827254
40
173.01842672827254
40
173.01842672827254
40
189.94799666034342
40
189.94799666034342
40
189.94799666034342
40
206.87804773455764
40
206.87804773455764
40
206.87804773455764
40
240.74898030840302
40
240.74898030840302
40
240.74898030840302
40
257.67561704930506
40
257.67561704930506
40
257.67561704930506
40
274.61199085652896
40
274.61199085652896
40
274.61199085652896
40
308.49598807242495
40
308.49598807242495
40
308.49598807242495
40
360.0247533891947
40
360.0247533891947
40
360.0247533891947
40
360.0247533891947
10
1279.6123438523168
20
826.39998497466695
30
0
10
1280.0419146609213
20
829.37704286578582
30
0
10
1280.3256382486645
20
832.40148789828618
30
0
10
1280.4618688781347
20
835.45041216343179
30
0
10
1280.5977482564024
20
838.49147521324085
30
0
10
1280.5869000292678
20
841.5568627751893
30
0
10
1280.4067941341596
20
844.55983848813503
30
0
10
1280.0463226038655
20
850.57012066147036
30
0
10
1279.0089608673552
20
856.32798554842634
30
0
10
1277.2295030099701
20
861.7283024734129
30
0
10
1276.3397221402745
20
864.42861856699415
30
0
10
1275.2620423783401
20
867.0448487362795
30
0
10
1274.0022137896842
20
869.61041099654847
30
0
10
1272.7423493964193
20
872.17604617066729
30
0
10
1271.298113779005
20
874.69676663134942
30
0
10
1269.700537211658
20
877.1748863136288
30
0
10
1266.5043620815911
20
882.13271097112454
30
0
10
1262.7108829195981
20
886.89666622695017
30
0
10
1258.528324392305
20
891.25778294462509
30
0
10
1256.4381354468219
20
893.43720443837378
30
0
10
1254.2491709556496
20
895.51695572922597
30
0
10
1251.966202837812
20
897.47178605042222
30
0
10
1249.6819214400641
20
899.42774088990166
30
0
10
1247.3033427198895
20
901.25906347564194
30
0
10
1244.8186633191997
20
902.95365952388215
30
0
10
1239.8476541259893
20
906.34397721728021
30
0
10
1234.4514804485559
20
909.18808479024528
30
0
10
1228.730591194666
20
911.45233239070421
30
0
10
1220.030603472183
20
914.89566531508444
30
0
10
1210.5852735449032
20
916.99254892309239
30
0
10
1201.0345800090954
20
917.7750416611326
30
0
0
ARC
5
360
100
AcDbEntity
8
0
100
AcDbCircle
10
1249.9177014450029
20
830.66943602856327
30
0
40
30.000000000000476
210
0
220
0
230
1
100
AcDbArc
50
269.81436866398383
51
351.81817042314418
0
LINE
5
361
100
AcDbEntity
8
0
100
AcDbLine
10
1223.7359402523318
20
800.75410458484021
30
0
11
1249.820505274794
21
800.66959348056776
31
0
0
ARC
5
362
100
AcDbEntity
8
0
100
AcDbCircle
10
1111.0888170710721
20
806.96909950222789
30
0
40
29.999999999999698
210
0
220
0
230
1
100
AcDbArc
50
176.65927282923352
51
269.81436866398428
0
SPLINE
5
363
100
AcDbEntity
8
0
100
AcDbSpline
70
0
71
3
72
14
73
10
74
0
42
0.000000001
43
0.0000000001
44
0.0000000001
40
566.6462265526776
40
566.6462265526776
40
566.6462265526776
40
566.6462265526776
40
579.39513608643472
40
579.39513608643472
40
579.39513608643472
40
647.13832667252734
40
647.13832667252734
40
647.13832667252734
40
685.36956079427978
40
685.36956079427978
40
685.36956079427978
40
685.36956079427978
10
1102.688467005285
20
869.55764104346952
30
0
10
1101.2990771541747
20
867.62632821310126
30
0
10
1099.9700714727906
20
865.6603017615862
30
0
10
1098.7065398361078
20
863.66325870662604
30
0
10
1091.9925801638144
20
853.05167911053741
30
0
10
1087.1262214706289
20
841.56482411120237
30
0
10
1084.212476337942
20
829.51794689010273
30
0
10
1082.5680885939473
20
822.71922690819463
30
0
10
1081.5452158596727
20
815.72881334256999
30
0
10
1081.1379485538255
20
808.71741798642915
30
0
0
ARC
5
364
100
AcDbEntity
8
0
100
AcDbCircle
10
1127.052814749542
20
852.05083835196774
30
0
40
29.999999999999996
210
0
220
-0
230
1
100
AcDbArc
50
27.213880554173283
51
144.30117121289521
0
LINE
5
365
100
AcDbEntity
8
0
100
AcDbLine
10
1176.9799875765348
20
820.56145850032965
30
0
11
1153.7319830501751
21
865.77023989819008
31
0
0
ARC
5
366
100
AcDbEntity
8
0
100
AcDbCircle
10
1150.3008192759016
20
806.84205695410765
30
0
40
30.000000000000476
210
0
220
0
230
1
100
AcDbArc
50
-90.185631336016186
51
27.2138805541727
0
LINE
5
367
100
AcDbEntity
8
0
100
AcDbLine
10
1110.9916209008634
20
776.96925695423306
30
0
11
1150.2036231056927
21
776.84221440611213
31
0
0
LINE
5
368
100
AcDbEntity
8
0
100
AcDbLine
10
1164.6918066461371
20
756.79516932608351
30
0
11
1155.6073424475371
21
756.82460198484125
31
0
0
ARC
5
369
100
AcDbEntity
8
0
100
AcDbCircle
10
1164.5946104759287
20
726.79532677808857
30
0
40
30.000000000000146
210
0
220
-0
230
1
100
AcDbArc
50
37.794241108836431
51
89.814368663984709
0
ARC
5
370
100
AcDbEntity
8
0
100
AcDbCircle
10
1215.9586902988481
20
766.62912278028739
30
0
40
35.000000000000128
210
0
220
0
230
1
100
AcDbArc
50
217.79424110883602
51
269.34029382295381
0
ARC
5
371
100
AcDbEntity
8
0
100
AcDbCircle
10
1215.4405697273442
20
721.63210564500002
30
0
40
9.9999999999996874
210
-0
220
0
230
1
100
AcDbArc
50
-0.6954117656878579
51
89.340293822954678
0
ARC
5
372
100
AcDbEntity
8
0
100
AcDbCircle
10
1195.4420428315595
20
721.87484418453801
30
0
40
29.999999999999748
210
-0
220
0
230
1
100
AcDbArc
50
284.03122103913802
51
359.30458823431371
0
SPLINE
5
373
100
AcDbEntity
8
0
100
AcDbSpline
70
0
71
3
72
29
73
25
74
0
42
0.000000001
43
0.0000000001
44
0.0000000001
40
928.478877958878
40
928.478877958878
40
928.478877958878
40
928.478877958878
40
951.92600006909151
40
951.92600006909151
40
951.92600006909151
40
968.8574744231737
40
968.8574744231737
40
968.8574744231737
40
985.79448708350947
40
985.79448708350947
40
985.79448708350947
40
1019.6552429997528
40
1019.6552429997528
40
1019.6552429997528
40
1028.107434334411
40
1028.107434334411
40
1028.107434334411
40
1036.5594866798237
40
1036.5594866798237
40
1036.5594866798237
40
1052.0326546258066
40
1052.0326546258066
40
1052.0326546258066
40
1053.5149101093753
40
1053.5149101093753
40
1053.5149101093753
40
1053.5149101093753
10
1141.7646276208413
20
700.15889995960833
30
0
10
1145.5133347416595
20
698.22342634620793
30
0
10
1149.217205652885
20
696.53815577889316
30
0
10
1152.7837390317545
20
695.1943062123969
30
0
10
1155.3591795550506
20
694.22389481760308
30
0
10
1157.8514900251459
20
693.43761549219516
30
0
10
1160.4094128731178
20
692.81395654754965
30
0
10
1162.9681724208249
20
692.19009360329005
30
0
10
1165.6066766354261
20
691.72519028757188
30
0
10
1168.4078061142684
20
691.38285685430492
30
0
10
1174.0078705102164
20
690.69845819095735
30
0
10
1180.2205347408058
20
690.50612560531306
30
0
10
1186.2485460172256
20
690.72057602190694
30
0
10
1187.7532349498001
20
690.77410630803899
30
0
10
1189.2482626940168
20
690.85317148555305
30
0
10
1190.7132255037645
20
690.96293780807832
30
0
10
1192.1781642234189
20
691.07270232558778
30
0
10
1193.6129973793745
20
691.21317075638888
30
0
10
1194.9972011352777
20
691.38200177131625
30
0
10
1197.5312622498157
20
691.69108062479484
30
0
10
1199.8691873556036
20
692.08881073286238
30
0
10
1202.081894565081
20
692.61478773985459
30
0
10
1202.2938613327287
20
692.66517382146162
30
0
10
1202.5050245099962
20
692.71685291494691
30
0
10
1202.71556033452
20
692.7699314869526
30
0
0
ARC
5
374
100
AcDbEntity
8
0
100
AcDbCircle
10
1155.5101462773289
20
726.82475943684619
30
0
40
29.999999999999908
210
0
220
-0
230
1
100
AcDbArc
50
89.81436866398515
51
242.7301369525299
0
LWPOLYLINE
5
375
100
AcDbEntity
8
0
100
AcDbPolyline
90
31
70
1
43
0.0
10
1114.422848401086
20
731.85502329818132
42
-0.072872758697179629
10
1112.7139867738831
20
731.16692768538485
42
-0.068321888640894612
10
1111.4915421849478
20
731.05390311927283
42
-0.16382915835015202
10
1108.9026304744157
20
732.09758966176173
42
-0.054663599143761607
10
1107.9524790963515
20
733.07984343287762
42
-0.047043046521059402
10
1107.1521344516568
20
734.31561798630969
42
-0.10809007411082183
10
1106.5783623996278
20
736.3833072949385
42
-0.23785133936146385
10
1108.1281303320434
20
739.86039625187209
42
-0.19020148515444688
10
1111.7134399340384
20
740.97647613750246
42
-0.028687641907980056
10
1112.899018891728
20
740.86626733680009
10
1114.051065658663
20
740.65535910741335
10
1116.0419601512888
20
740.18265531036729
10
1118.0644601321208
20
739.5984198133383
10
1119.2447142318397
20
739.31579514109012
10
1120.2734655718468
20
739.19368771410302
10
1120.9173824957845
20
739.24265603390427
10
1116.4372615825453
20
745.68525706451692
10
1117.9874285930764
20
746.76322784214153
10
1124.0253107592296
20
738.08050105424968
42
-0.1157864709188679
10
1122.5229405353839
20
737.43153682871616
42
-0.075684846100760511
10
1120.2887191637856
20
737.3365570039623
10
1119.2966308114856
20
737.47603564465362
10
1118.144416543711
20
737.71833766613054
10
1116.8320763869629
20
738.06346321588558
42
0.02893213792562617
10
1113.2585914685942
20
738.89892063407092
42
0.030451714165889154
10
1112.0372131513241
20
739.02296670114379
42
0.072912089496269095
10
1110.5117890250251
20
738.85828300443154
42
0.1062358487141228
10
1109.3703858984707
20
738.27258139204514
42
0.40499579162178828
10
1109.0176566274911
20
734.37084303517292
42
0.078733972381897124
10
1109.8117443265046
20
733.52345033666427
42
0.34449948767729072
10
1113.4403547005388
20
733.63110602803954
0
LWPOLYLINE
5
376
100
AcDbEntity
8
0
100
AcDbPolyline
90
12
70
1
43
0.0
10
1103.7048194887971
20
739.27724856608597
10
1102.2654476886037
20
741.34712534462449
10
1104.8547666723325
20
748.25241774731876
10
1097.3117677394202
20
748.47072405188783
10
1095.9970166951755
20
750.36139097733167
10
1105.3977122867182
20
750.0523836886963
10
1108.8838721349975
20
759.85452233058663
10
1110.3793222953191
20
757.7040025275063
10
1107.5128925559693
20
749.95462626088749
10
1115.806562641626
20
749.8994041861597
10
1117.2583962996255
20
747.81160673550085
10
1106.8795699004479
20
748.13169280752254
0
LWPOLYLINE
5
377
100
AcDbEntity
8
0
100
AcDbPolyline
90
51
70
1
43
0.0
10
1091.5848835947061
20
764.60138774458369
10
1092.8693052033045
20
763.02196855653915
42
0.074821457035976577
10
1092.0536292006111
20
762.08975674530393
42
0.095896098778747843
10
1091.6546761182253
20
761.07183170365317
42
0.076654669105994111
10
1091.6336488307643
20
760.24819398683508
42
0.064248107392899947
10
1091.8670568795796
20
759.35957746331997
42
0.047362941995115718
10
1092.3560773265983
20
758.40499715796091
42
0.03365823871229269
10
1093.0624491615044
20
757.43333843884682
42
0.046101288519516698
10
1093.7891224570951
20
756.7080245670162
42
0.067534354353901441
10
1094.511991284518
20
756.262186448227
42
0.1416759984638396
10
1095.8700786170782
20
756.0943621543812
42
0.299512960104794
10
1097.4266476410803
20
757.56410286348932
10
1097.4671569166544
20
757.94635693367456
10
1097.4063087370798
20
758.47188990228415
10
1097.2365913109018
20
759.15870129634823
10
1096.9580044028735
20
760.00679156414685
10
1095.9970833439293
20
762.49397832065802
10
1095.5105069599315
20
763.97535298422997
42
-0.050170664316231142
10
1095.3014225322968
20
765.15963778496587
42
-0.059300026516185031
10
1095.3388357467265
20
766.34629206905583
42
-0.2742442808678956
10
1098.0269423390073
20
769.49011054459174
42
-0.093730839540544605
10
1099.7280256685324
20
769.75077155206282
42
-0.082864663097623067
10
1101.2017535052153
20
769.44992859876845
42
-0.056101532482736208
10
1102.3562014532004
20
768.85099276071912
42
-0.095163222044287385
10
1104.347366809686
20
766.85612203723053
42
-0.060516561707845661
10
1105.5910650719925
20
764.57484793557785
42
-0.071097198291819902
10
1106.0034748283397
20
762.81779568991556
42
-0.26322444721161348
10
1103.7973597102155
20
758.16521029938417
10
1102.513711305148
20
759.70528505549714
42
0.057133236624186096
10
1103.3432893463576
20
760.6157351327754
42
0.060853023796355793
10
1103.7541030914786
20
761.37209984180186
42
0.072310512784634767
10
1103.9401318638236
20
762.20060261227729
42
0.057974787839112821
10
1103.9013450712221
20
763.14848847994017
42
0.10710585568128528
10
1103.0106674815841
20
765.44179290568309
42
0.078109975228095568
10
1101.687551755037
20
766.97313058597445
42
0.11035975141679308
10
1100.2497868318437
20
767.74218243661812
42
0.27225981759779139
10
1097.9779867312056
20
767.08703278266341
42
0.1150524889099379
10
1097.5145538544066
20
766.2921082228886
42
0.10344574491298023
10
1097.4413052846392
20
765.22495691431891
42
0.048362091099726882
10
1097.6664824161212
20
764.20055393247731
10
1098.2140526805867
20
762.65377059239813
10
1099.0186897590565
20
760.50225018123479
42
-0.026347630087735857
10
1099.4032235775453
20
759.17705696547841
42
-0.11749984365086898
10
1099.3969048351203
20
756.87362265028003
42
-0.13044291801688543
10
1098.4770235456658
20
755.2860044498359
42
-0.10880346654272288
10
1096.9927725620587
20
754.34323274994176
42
-0.20601954480146473
10
1093.7546097357815
20
754.53269318430375
42
-0.052367113105901614
10
1092.6972686054612
20
755.20687012734231
42
-0.084484894619757708
10
1090.8765575901737
20
757.25929969352615
42
-0.065413232598769785
10
1089.9432753995877
20
759.19613814549075
42
-0.069430368312593901
10
1089.6580249458393
20
760.77705710138889
42
-0.24683323845502009
0
ENDSEC
0
SECTION
2
OBJECTS
0
DICTIONARY
5
C
100
AcDbDictionary
3
ACAD_GROUP
350
D
3
ACAD_MLINESTYLE
350
17
0
DICTIONARY
5
D
100
AcDbDictionary
0
DICTIONARY
5
1A
330
C
100
AcDbDictionary
0
DICTIONARY
5
17
100
AcDbDictionary
0
ENDSEC
0
EOF
