0
SECTION
2
HEADER
9
$INSUNITS
70
4
9
$ACADVER
1
AC1014
9
$HANDSEED
5
FFFF
0
ENDSEC
0
SECTION
2
TABLES
0
TABLE
2
VPORT
5
8
100
AcDbSymbolTable
0
ENDTAB
0
TABLE
2
LTYPE
5
5
100
AcDbSymbolTable
0
LTYPE
5
14
100
AcDbSymbolTableRecord
100
AcDbLinetypeTableRecord
2
BYBLOCK
70
0
0
LTYPE
5
15
100
AcDbSymbolTableRecord
100
AcDbLinetypeTableRecord
2
BYLAYER
70
0
0
ENDTAB
0
TABLE
2
LAYER
5
2
100
AcDbSymbolTable
70
2
0
LAYER
5
50
100
AcDbSymbolTableRecord
100
AcDbLayerTableRecord
2
0
70
0
6
CONTINUOUS
0
ENDTAB
0
TABLE
2
STYLE
5
3
100
AcDbSymbolTable
70
1
0
STYLE
5
11
100
AcDbSymbolTableRecord
100
AcDbTextStyleTableRecord
2
STANDARD
70
0
0
ENDTAB
0
TABLE
2
VIEW
5
6
100
AcDbSymbolTable
70
0
0
ENDTAB
0
TABLE
2
UCS
5
7
100
AcDbSymbolTable
70
0
0
ENDTAB
0
TABLE
2
APPID
5
9
100
AcDbSymbolTable
70
2
0
APPID
5
12
100
AcDbSymbolTableRecord
100
AcDbRegAppTableRecord
2
ACAD
70
0
0
ENDTAB
0
TABLE
2
DIMSTYLE
5
A
100
AcDbSymbolTable
70
1
0
ENDTAB
0
TABLE
2
BLOCK_RECORD
5
1
100
AcDbSymbolTable
70
1
0
BLOCK_RECORD
5
1F
100
AcDbSymbolTableRecord
100
AcDbBlockTableRecord
2
*MODEL_SPACE
0
BLOCK_RECORD
5
1B
100
AcDbSymbolTableRecord
100
AcDbBlockTableRecord
2
*PAPER_SPACE
0
ENDTAB
0
ENDSEC
0
SECTION
2
BLOCKS
0
BLOCK
5
20
100
AcDbEntity
100
AcDbBlockBegin
2
*MODEL_SPACE
0
ENDBLK
5
21
100
AcDbEntity
100
AcDbBlockEnd
0
BLOCK
5
1C
100
AcDbEntity
100
AcDbBlockBegin
2
*PAPER_SPACE
0
ENDBLK
5
1D
100
AcDbEntity
100
AcDbBlockEnd
0
ENDSEC
0
SECTION
2
ENTITIES
0
SPLINE
5
100
100
AcDbEntity
8
0
100
AcDbSpline
70
0
71
3
72
10
73
6
74
0
42
0.000000001
43
0.0000000001
44
0.0000000001
40
310.11061266951998
40
310.11061266951998
40
310.11061266951998
40
310.11061266951998
40
321.55498590759709
40
334.90675468535369
40
336.81415022503325
40
336.81415022503325
40
336.81415022503325
40
336.81415022503325
10
2136.0507069436858
20
659.23231393314245
30
0
10
2136.0651464818347
20
655.42023817903794
30
0
10
2133.153497126721
20
647.16459044969145
30
0
10
2124.7917186533541
20
642.47384468709527
30
0
10
2119.6820982114282
20
642.24311360318654
30
0
10
2119.0507069436858
20
642.23231393314234
30
0
0
LINE
5
101
100
AcDbEntity
8
0
100
AcDbLine
10
2136.0507069436858
20
659.23231393314245
30
0
11
2136.0507069436844
21
735.83231393463336
31
0
0
SPLINE
5
102
100
AcDbEntity
8
0
100
AcDbSpline
70
0
71
3
72
10
73
6
74
0
42
0.000000001
43
0.0000000001
44
0.0000000001
40
206.8070751125166
40
206.8070751125166
40
206.8070751125166
40
206.8070751125166
40
218.25144835059371
40
231.60321712835031
40
233.51061266802984
40
233.51061266802984
40
233.51061266802984
40
233.51061266802984
10
2119.0507069436858
20
752.83231393463234
30
0
10
2122.8627826977931
20
752.84675347278323
30
0
10
2131.1184304271337
20
749.93510411766601
30
0
10
2135.8091761897349
20
741.57332564430226
30
0
10
2136.0399072736409
20
736.4637052023744
30
0
10
2136.0507069436858
20
735.83231393463257
30
0
0
LINE
5
103
100
AcDbEntity
8
0
100
AcDbLine
10
2119.0507069436858
20
752.83231393463234
30
0
11
2080.6507069436839
21
752.83231393463325
31
0
0
SPLINE
5
104
100
AcDbEntity
8
0
100
AcDbSpline
70
0
71
3
72
10
73
6
74
0
42
0.000000001
43
0.0000000001
44
0.0000000001
40
141.70353755700336
40
141.70353755700336
40
141.70353755700336
40
141.70353755700336
40
153.14791079508046
40
166.49967957283707
40
168.40707511251659
40
168.40707511251659
40
168.40707511251659
40
168.40707511251659
10
2063.6507069436857
20
735.83231393463257
30
0
10
2063.6362674055367
20
739.64438968874083
30
0
10
2066.54791676065
20
747.90003741807914
30
0
10
2074.9096952340178
20
752.59078318068214
30
0
10
2080.0193156759437
20
752.82151426458745
30
0
10
2080.6507069436857
20
752.83231393463234
30
0
0
LINE
5
105
100
AcDbEntity
8
0
100
AcDbLine
10
2063.6507069436857
20
735.83231393463257
30
0
11
2063.6507069436839
21
659.23231393314279
31
0
0
SPLINE
5
106
100
AcDbEntity
8
0
100
AcDbSpline
70
0
71
3
72
10
73
6
74
0
42
0.000000001
43
0.0000000001
44
0.0000000001
40
38.399999999999977
40
38.399999999999977
40
38.399999999999977
40
38.399999999999977
40
49.84437323807709
40
63.196142015833722
40
65.103537555513242
40
65.103537555513242
40
65.103537555513242
40
65.103537555513242
10
2080.6507069436857
20
642.23231393314234
30
0
10
2076.8386311895792
20
642.21787439499224
30
0
10
2068.5829834602364
20
645.12952375010877
30
0
10
2063.8922376976375
20
653.49130222347242
30
0
10
2063.6615066137301
20
658.60092266540073
30
0
10
2063.6507069436857
20
659.23231393314245
30
0
0
LINE
5
107
100
AcDbEntity
8
0
100
AcDbLine
10
2080.6507069436857
20
642.23231393314234
30
0
11
2119.0507069436853
21
642.23231393314234
31
0
0
CIRCLE
5
108
100
AcDbEntity
8
0
100
AcDbCircle
10
2129.0507069436844
20
740.83231393463336
30
0
40
3.0000000000048885
210
0
220
0
230
1
0
CIRCLE
5
109
100
AcDbEntity
8
0
100
AcDbCircle
10
2070.6507069436843
20
740.83231393463291
30
0
40
2.9999999999781721
210
0
220
0
230
1
0
CIRCLE
5
110
100
AcDbEntity
8
0
100
AcDbCircle
10
2070.6507069436839
20
654.23231393314279
30
0
40
3.0000000000169962
210
0
220
0
230
1
0
CIRCLE
5
111
100
AcDbEntity
8
0
100
AcDbCircle
10
2129.0507069436849
20
654.23231393314256
30
0
40
2.9999999999878924
210
0
220
0
230
1
0
CIRCLE
5
112
100
AcDbEntity
8
0
100
AcDbCircle
10
2079.8507069436846
20
697.53231393388762
30
0
40
2
210
0
220
0
230
1
0
CIRCLE
5
113
100
AcDbEntity
8
0
100
AcDbCircle
10
2119.8507069436846
20
697.53231393388774
30
0
40
2
210
0
220
0
230
1
0
LWPOLYLINE
5
114
100
AcDbEntity
8
0
100
AcDbPolyline
90
8
70
1
43
0.0
10
2085.8507069436846
20
670.43231393388749
10
2085.8507069436846
20
724.63231393388764
42
-0.41421356237313667
10
2086.8507069436846
20
725.63231393388776
10
2112.8507069436846
20
725.63231393388776
42
-0.41421356237313667
10
2113.8507069436846
20
724.63231393388764
10
2113.8507069436846
20
670.4323139338876
42
-0.4142135623731783
10
2112.8507069436846
20
669.43231393388771
10
2086.8507069436846
20
669.43231393388771
42
-0.4142135623730534
0
LWPOLYLINE
5
115
100
AcDbEntity
8
0
100
AcDbPolyline
90
8
70
1
43
0.0
10
2119.050706943684
20
501.63231393165211
10
2080.6507069436839
20
501.63231393165182
42
-0.41421356237310236
10
2063.6507069436839
20
518.63231393165245
10
2063.6507069436839
20
595.23231393314256
42
-0.41421356237309503
10
2080.6507069436839
20
612.23231393314256
10
2119.0507069436835
20
612.2323139331429
42
-0.41421356237310236
10
2136.050706943684
20
595.23231393314234
10
2136.050706943684
20
518.63231393165233
42
-0.41421356237309748
0
CIRCLE
5
116
100
AcDbEntity
8
0
100
AcDbCircle
10
2129.0507069436844
20
513.63231393165211
30
0
40
2.999999999996362
210
0
220
0
230
1
0
CIRCLE
5
117
100
AcDbEntity
8
0
100
AcDbCircle
10
2070.6507069436839
20
513.63231393165211
30
0
40
3.0000000000097202
210
0
220
0
230
1
0
CIRCLE
5
118
100
AcDbEntity
8
0
100
AcDbCircle
10
2070.6507069436834
20
600.23231393314268
30
0
40
3.0000000000121081
210
0
220
0
230
1
0
CIRCLE
5
119
100
AcDbEntity
8
0
100
AcDbCircle
10
2129.050706943684
20
600.23231393314268
30
0
40
3.0000000000023874
210
0
220
0
230
1
0
CIRCLE
5
120
100
AcDbEntity
8
0
100
AcDbCircle
10
2099.8507069436841
20
528.93231393239728
30
0
40
2
210
0
220
0
230
1
0
CIRCLE
5
121
100
AcDbEntity
8
0
100
AcDbCircle
10
2099.8507069436841
20
584.93231393239751
30
0
40
2
210
0
220
0
230
1
0
LWPOLYLINE
5
122
100
AcDbEntity
8
0
100
AcDbPolyline
90
8
70
1
43
0.0
10
2085.6507069436839
20
534.2823139323973
10
2085.6507069436839
20
579.58231393239748
42
-0.41421356237309503
10
2086.6507069436839
20
580.58231393239748
10
2113.050706943684
20
580.58231393239748
42
-0.41421356237315748
10
2114.050706943684
20
579.58231393239737
10
2114.050706943684
20
534.2823139323973
42
-0.4142135623731783
10
2113.0507069436835
20
533.2823139323973
10
2086.6507069436839
20
533.2823139323973
42
-0.41421356237309503
0
LINE
5
123
100
AcDbEntity
8
0
100
AcDbLine
10
2136.050706943684
20
378.03231393016188
30
0
11
2136.050706943684
21
454.63231393165216
31
0
0
SPLINE
5
124
100
AcDbEntity
8
0
100
AcDbSpline
70
0
71
3
72
10
73
6
74
0
42
0.000000001
43
0.0000000001
44
0.0000000001
40
233.51061266802955
40
233.51061266802955
40
233.51061266802955
40
233.51061266802955
40
244.95498590610663
40
258.30675468386323
40
260.21415022354273
40
260.21415022354273
40
260.21415022354273
40
260.21415022354273
10
2119.0507069436858
20
471.6323139316512
30
0
10
2122.8627826977927
20
471.64675346980118
30
0
10
2131.1184304271337
20
468.73510411468476
30
0
10
2135.8091761897349
20
460.37332564132157
30
0
10
2136.0399072736404
20
455.2637051993928
30
0
10
2136.0507069436853
20
454.63231393165131
30
0
0
LINE
5
125
100
AcDbEntity
8
0
100
AcDbLine
10
2119.0507069436858
20
471.6323139316512
30
0
11
2080.6507069436839
21
471.63231393165199
31
0
0
SPLINE
5
126
100
AcDbEntity
8
0
100
AcDbSpline
70
0
71
3
72
10
73
6
74
0
42
0.000000001
43
0.0000000001
44
0.0000000001
40
168.40707511251634
40
168.40707511251634
40
168.40707511251634
40
168.40707511251634
40
179.85144835059344
40
193.20321712835008
40
195.1106126680296
40
195.1106126680296
40
195.1106126680296
40
195.1106126680296
10
2063.6507069436857
20
454.63231393165125
30
0
10
2063.6362674055367
20
458.44438968575702
30
0
10
2066.5479167606504
20
466.70003741510158
30
0
10
2074.9096952340169
20
471.39078317769884
30
0
10
2080.0193156759437
20
471.62151426160676
30
0
10
2080.6507069436857
20
471.6323139316512
30
0
0
LINE
5
127
100
AcDbEntity
8
0
100
AcDbLine
10
2063.6507069436857
20
454.63231393165125
30
0
11
2063.6507069436839
21
378.03231393016165
31
0
0
SPLINE
5
128
100
AcDbEntity
8
0
100
AcDbSpline
70
0
71
3
72
10
73
6
74
0
42
0.000000001
43
0.0000000001
44
0.0000000001
40
65.103537555513014
40
65.103537555513014
40
65.103537555513014
40
65.103537555513014
40
67.010933095192541
40
80.36270187294916
40
91.807075111026279
40
91.807075111026279
40
91.807075111026279
40
91.807075111026279
10
2080.6507069436857
20
361.03231393016119
30
0
10
2080.0193156759437
20
361.04311360020574
30
0
10
2074.9096952340165
20
361.27384468411276
30
0
10
2066.5479167606504
20
365.96459044671207
30
0
10
2063.6362674055367
20
374.22023817605464
30
0
10
2063.6507069436857
20
378.03231393016114
30
0
0
LINE
5
129
100
AcDbEntity
8
0
100
AcDbLine
10
2080.6507069436857
20
361.03231393016119
30
0
11
2119.0507069436844
21
361.03231393016137
31
0
0
SPLINE
5
130
100
AcDbEntity
8
0
100
AcDbSpline
70
0
71
3
72
10
73
6
74
0
42
0.000000001
43
0.0000000001
44
0.0000000001
40
0
40
0
40
0
40
0
40
11.444373238077089
40
24.796142015833695
40
26.703537555513208
40
26.703537555513208
40
26.703537555513208
40
26.703537555513208
10
2136.0507069436853
20
378.03231393016119
30
0
10
2136.0651464818338
20
374.22023817605526
30
0
10
2133.1534971267215
20
365.96459044671133
30
0
10
2124.7917186533541
20
361.27384468411321
30
0
10
2119.6820982114277
20
361.04311360020563
30
0
10
2119.0507069436858
20
361.03231393016119
30
0
0
CIRCLE
5
131
100
AcDbEntity
8
0
100
AcDbCircle
10
2129.0507069436844
20
459.63231393165216
30
0
40
3.0000000000048885
210
0
220
0
230
1
0
CIRCLE
5
132
100
AcDbEntity
8
0
100
AcDbCircle
10
2070.6507069436848
20
459.6323139316512
30
0
40
2.9999999999417923
210
0
220
0
230
1
0
CIRCLE
5
133
100
AcDbEntity
8
0
100
AcDbCircle
10
2070.6507069436839
20
373.03231393016108
30
0
40
3.0000000000000004
210
0
220
0
230
1
0
CIRCLE
5
134
100
AcDbEntity
8
0
100
AcDbCircle
10
2129.0507069436849
20
373.03231393016091
30
0
40
2.9999999999733125
210
0
220
0
230
1
0
CIRCLE
5
135
100
AcDbEntity
8
0
100
AcDbCircle
10
2079.8507069436846
20
416.33231393090625
30
0
40
1.9999999999818101
210
0
220
0
230
1
0
CIRCLE
5
136
100
AcDbEntity
8
0
100
AcDbCircle
10
2119.8507069436846
20
416.33231393090654
30
0
40
2
210
0
220
0
230
1
0
LWPOLYLINE
5
137
100
AcDbEntity
8
0
100
AcDbPolyline
90
6
70
1
43
0.0
10
2086.2507069436842
20
398.38916818039905
10
2086.2507069436842
20
439.93231393090684
10
2113.4507069436845
20
439.93231393090696
10
2113.4507069436841
20
398.38916818039911
10
2107.7938526941921
20
392.73231393090668
10
2091.9075611931767
20
392.73231393090674
0
CIRCLE
5
138
100
AcDbEntity
8
0
100
AcDbCircle
10
2260.6096946894422
20
779.86860543565058
30
0
40
3.0000000000000004
210
0
220
-0
230
1
0
ARC
5
139
100
AcDbEntity
8
0
100
AcDbCircle
10
2266.6096946894422
20
782.35388680988899
30
0
40
1.5000000000000568
210
-0
220
0
230
1
100
AcDbArc
50
0
51
45
0
LINE
5
140
100
AcDbEntity
8
0
100
AcDbLine
10
2268.1096946894395
20
331.51074105938096
30
0
11
2268.1096946894427
21
782.35388680988933
31
0
0
ARC
5
141
100
AcDbEntity
8
0
100
AcDbCircle
10
2266.6096946894399
20
331.51074105938153
30
0
40
1.4999999999998213
210
-0
220
0
230
1
100
AcDbArc
50
314.99999999996624
51
360
0
LINE
5
142
100
AcDbEntity
8
0
100
AcDbLine
10
2267.670354861219
20
330.45008088760119
30
0
11
2254.3518178298323
21
317.13154385621471
31
0
0
ARC
5
143
100
AcDbEntity
8
0
100
AcDbCircle
10
2253.2939409702258
20
318.18942071582177
30
0
40
1.4960638021764228
210
-0
220
0
230
1
100
AcDbArc
50
294.30428546568265
51
314.99999999998465
0
ARC
5
144
100
AcDbEntity
8
0
100
AcDbCircle
10
2253.2939409702285
20
795.67520715344915
30
0
40
1.4960638021765655
210
0
220
-0
230
1
100
AcDbArc
50
45.00000000001539
51
65.695714534298773
0
LINE
5
145
100
AcDbEntity
8
0
100
AcDbLine
10
2267.6703548612222
20
783.41454698166899
30
0
11
2254.351817829835
21
796.73308401305621
31
0
0
CIRCLE
5
146
100
AcDbEntity
8
0
100
AcDbCircle
10
2260.6096946894399
20
333.99602243362028
30
0
40
3.0000000000000004
210
0
220
-0
230
1
0
ELLIPSE
5
147
100
AcDbEntity
8
0
100
AcDbEllipse
10
2253.6055460950324
20
796.02930292244037
30
0
11
-0.14908695201470407
21
1.1413704275620165
31
0.0
40
0.68312540501768293
41
5.7010580780353575
42
6.1955332305600201
0
LINE
5
148
100
AcDbEntity
8
0
100
AcDbLine
10
2253.5252862565362
20
797.17520715344858
30
0
11
2252.1802008165623
21
797.17520715344892
31
0
0
ELLIPSE
5
149
100
AcDbEntity
8
0
100
AcDbEllipse
10
2253.6004460054232
20
317.85075707999727
30
0
11
0.13904099306883397
21
1.1574718673611293
31
0.0
40
0.68088093259520732
41
3.2221646764428193
42
3.7129784095382496
0
LINE
5
150
100
AcDbEntity
8
0
100
AcDbLine
10
2253.5252862565335
20
316.68942071582194
30
0
11
2252.1802008165596
21
316.68942071582194
31
0
0
ARC
5
151
100
AcDbEntity
8
0
100
AcDbCircle
10
2162.5222798189347
20
886.44130168039601
30
0
40
1.4999999999995701
210
0
220
-0
230
1
100
AcDbArc
50
44.999999999993861
51
90
0
ARC
5
152
100
AcDbEntity
8
0
100
AcDbCircle
10
2037.1791340684265
20
886.44130168039601
30
0
40
1.4999999999996305
210
0
220
-0
230
1
100
AcDbArc
50
90
51
135.00000000001538
0
ARC
5
153
100
AcDbEntity
8
0
100
AcDbCircle
10
2023.8578137248658
20
873.12554796118229
30
0
40
1.4960638021755603
210
0
220
0
230
1
100
AcDbArc
50
134.99999999998769
51
155.69571453430032
0
ARC
5
154
100
AcDbEntity
8
0
100
AcDbCircle
10
2175.8436001624968
20
873.12554796118332
30
0
40
1.4960638021739412
210
0
220
-0
230
1
100
AcDbArc
50
24.304285465670375
51
45.000000000012314
0
CIRCLE
5
155
100
AcDbEntity
8
0
100
AcDbCircle
10
1939.0917191979199
20
333.99602243362028
30
0
40
3.0000000000000004
210
0
220
0
230
1
0
CIRCLE
5
156
100
AcDbEntity
8
0
100
AcDbCircle
10
1939.0917191979202
20
779.86860543565103
30
0
40
3.0000000000000004
210
0
220
-0
230
1
0
LINE
5
157
100
AcDbEntity
8
0
100
AcDbLine
10
1932.0310590261402
20
783.41454698166956
30
0
11
1945.3495960575274
21
796.73308401305667
31
0
0
LINE
5
158
100
AcDbEntity
8
0
100
AcDbLine
10
1931.5917191979202
20
782.35388680988979
30
0
11
1931.5917191979202
21
331.51074105938176
31
0
0
LINE
5
159
100
AcDbEntity
8
0
100
AcDbLine
10
1932.0310590261402
20
330.45008088760164
30
0
11
1945.3495960575274
21
317.13154385621476
31
0
0
ARC
5
160
100
AcDbEntity
8
0
100
AcDbCircle
10
1933.0917191979199
20
331.51074105938136
30
0
40
1.4999999999997726
210
0
220
0
230
1
100
AcDbArc
50
180
51
224.99999999999844
0
ARC
5
161
100
AcDbEntity
8
0
100
AcDbCircle
10
1933.0917191979197
20
782.3538868098899
30
0
40
1.4999999999995701
210
0
220
0
230
1
100
AcDbArc
50
134.99999999999696
51
180
0
ARC
5
162
100
AcDbEntity
8
0
100
AcDbCircle
10
1946.4074729171339
20
318.18942071582109
30
0
40
1.4960638021760377
210
0
220
0
230
1
100
AcDbArc
50
224.99999999999537
51
245.69571453429253
0
ARC
5
163
100
AcDbEntity
8
0
100
AcDbCircle
10
1946.4074729171357
20
795.6752071534479
30
0
40
1.4960638021790422
210
0
220
0
230
1
100
AcDbArc
50
114.30428546571838
51
134.99999999998769
0
LINE
5
164
100
AcDbEntity
8
0
100
AcDbLine
10
2037.1791340684265
20
887.94130168039555
30
0
11
2162.5222798189347
21
887.94130168039555
31
0
0
LINE
5
165
100
AcDbEntity
8
0
100
AcDbLine
10
2163.5829399907143
20
887.50196185217533
30
0
11
2176.9014770221015
21
874.18342482078845
31
0
0
LINE
5
166
100
AcDbEntity
8
0
100
AcDbLine
10
2036.1184738966467
20
887.50196185217521
30
0
11
2022.79993686526
21
874.18342482078856
31
0
0
CIRCLE
5
167
100
AcDbEntity
8
0
100
AcDbCircle
10
2039.6644154426656
20
880.44130168039578
30
0
40
3.0000000000000004
210
0
220
-0
230
1
0
CIRCLE
5
168
100
AcDbEntity
8
0
100
AcDbCircle
10
2160.0369984446961
20
880.44130168039578
30
0
40
3.0000000000000004
210
0
220
-0
230
1
0
LINE
5
169
100
AcDbEntity
8
0
100
AcDbLine
10
2177.3436001624946
20
872.01180780751554
30
0
11
2177.3436001624946
21
873.35689324748932
31
0
0
LINE
5
170
100
AcDbEntity
8
0
100
AcDbLine
10
2022.3578137248671
20
873.35689324748944
30
0
11
2022.3578137248671
21
872.01180780751554
31
0
0
ELLIPSE
5
171
100
AcDbEntity
8
0
100
AcDbEllipse
10
2023.5037179561457
20
873.43715308601531
30
0
11
1.1413704278338552
21
0.14908695202570738
31
0.0
40
0.68312540492233309
41
2.5594654245312669
42
3.0539405770027623
0
ELLIPSE
5
172
100
AcDbEntity
8
0
100
AcDbEllipse
10
2176.1822769257128
20
873.43205435102186
30
0
11
1.1574584560348149
21
-0.13904464695107144
31
0.0
40
0.68088415549800752
41
0.080575439440320015
42
0.57139204201063865
0
LINE
5
173
100
AcDbEntity
8
0
100
AcDbLine
10
1946.1761276308275
20
797.17520715345108
30
0
11
1947.5212130708021
21
797.17520715345108
31
0
0
LINE
5
174
100
AcDbEntity
8
0
100
AcDbLine
10
1946.1761276308271
20
316.68942071582319
30
0
11
1947.5212130708005
21
316.68942071582319
31
0
0
ELLIPSE
5
175
100
AcDbEntity
8
0
100
AcDbEllipse
10
1946.0958677923131
20
317.83532494687307
30
0
11
-0.14908695203402098
21
1.1413704276040533
31
0.0
40
0.6831254049950567
41
2.5594654244491255
42
3.053940576969687
0
ELLIPSE
5
176
100
AcDbEntity
8
0
100
AcDbEllipse
10
1946.1009665274419
20
796.01388391497449
30
0
11
0.13904464652470813
21
1.1574584577620541
31
0.0
40
0.68088415507223043
41
0.080575439022295414
42
0.57139204122445686
0
LINE
5
177
100
AcDbEntity
8
0
100
AcDbLine
10
2251.180200816561
20
316.6894207158216
30
0
11
2252.1802008165596
21
316.68942071582194
31
0
0
LINE
5
178
100
AcDbEntity
8
0
100
AcDbLine
10
2251.180200816561
20
797.17520715344892
30
0
11
2252.1802008165623
21
797.17520715344892
31
0
0
LINE
5
179
100
AcDbEntity
8
0
100
AcDbLine
10
2180.7802008165609
20
797.88231393463548
30
0
11
2179.7802008165609
21
797.88231393463548
31
0
0
LWPOLYLINE
5
180
100
AcDbEntity
8
0
100
AcDbPolyline
90
5
70
1
43
0.0
10
2194.1802008165182
20
401.18231393463475
42
-0.41421886856632079
10
2190.9802008165098
20
397.98231393463192
10
2184.9802008166448
20
397.98231393463755
42
-0.99999702951109337
10
2184.9802008165107
20
404.38231393463457
10
2190.9802008165102
20
404.38231393463911
42
-0.41421886856604762
0
LWPOLYLINE
5
181
100
AcDbEntity
8
0
100
AcDbPolyline
90
5
70
1
43
0.0
10
2194.1802008165182
20
712.68231393463589
42
-0.41421886856606066
10
2190.9802008165107
20
709.48231393463175
10
2184.9802008166448
20
709.48231393463607
42
-0.99999702951109337
10
2184.9802008165107
20
715.88231393463298
10
2190.9802008165107
20
715.88231393463866
42
-0.41421886856626877
0
LWPOLYLINE
5
182
100
AcDbEntity
8
0
100
AcDbPolyline
90
5
70
1
43
0.0
10
2198.1802008165182
20
733.432313934636
42
-0.41421886856634682
10
2194.9802008165102
20
730.23231393463334
10
2188.9802008166448
20
730.23231393463914
42
-0.99999702951109337
10
2188.9802008165098
20
736.63231393463616
10
2194.9802008165098
20
736.63231393464025
42
-0.4142188685659956
0
LWPOLYLINE
5
183
100
AcDbEntity
8
0
100
AcDbPolyline
90
5
70
1
43
0.0
10
2194.1802008165187
20
754.18231393463566
42
-0.41421886856629475
10
2190.9802008165107
20
750.98231393463277
10
2184.9802008165252
20
750.98231393463834
42
-0.99999702949240599
10
2184.9802008165107
20
757.38231393463536
10
2190.9802008165102
20
757.38231393463946
42
-0.41421886856609968
0
LWPOLYLINE
5
184
100
AcDbEntity
8
0
100
AcDbPolyline
90
5
70
1
43
0.0
10
2188.9802008165098
20
383.63231393463593
10
2194.9802008165098
20
383.63231393463735
42
-0.41421886856635981
10
2198.1802008165182
20
380.43231393463475
42
-0.41421886856606066
10
2194.9802008165093
20
377.23231393463038
10
2188.9802008165248
20
377.23231393462981
42
-0.99999702949240599
0
LWPOLYLINE
5
185
100
AcDbEntity
8
0
100
AcDbPolyline
90
5
70
1
43
0.0
10
2194.1802008165187
20
359.68231393463492
42
-0.41421886856610618
10
2190.9802008165102
20
356.48231393463095
10
2184.9802008165252
20
356.48231393463527
42
-0.99999702949240599
10
2184.9802008165107
20
362.88231393463229
10
2190.9802008165107
20
362.88231393463832
42
-0.41421886856632728
0
ARC
5
186
100
AcDbEntity
8
0
100
AcDbCircle
10
2180.7802008165609
20
798.88231393463559
30
0
40
1.0000000000000853
210
-0
220
0
230
1
100
AcDbArc
50
270
51
317.1563569563944
0
LINE
5
187
100
AcDbEntity
8
0
100
AcDbLine
10
2248.8858244631915
20
798.68231393463566
30
0
11
2182.6132310945432
21
798.68231393463566
31
0
0
ARC
5
188
100
AcDbEntity
8
0
100
AcDbCircle
10
2251.180200816561
20
798.1752071534487
30
0
40
0.99999999999975331
210
0
220
0
230
1
100
AcDbArc
50
203.40058665282177
51
270
0
ARC
5
189
100
AcDbEntity
8
0
100
AcDbCircle
10
2251.180200816561
20
315.6894207158216
30
0
40
1.0000000000000142
210
0
220
-0
230
1
100
AcDbArc
50
90
51
156.59941334715131
0
LINE
5
190
100
AcDbEntity
8
0
100
AcDbLine
10
2248.8858244184876
20
315.18231393463486
30
0
11
2182.6132310945432
21
315.18231393463486
31
0
0
ARC
5
191
100
AcDbEntity
8
0
100
AcDbCircle
10
2180.7802008165609
20
314.98231393463482
30
0
40
0.99999999999990741
210
0
220
-0
230
1
100
AcDbArc
50
42.843643043585502
51
90
0
ARC
5
192
100
AcDbEntity
8
0
100
AcDbCircle
10
2182.6132310945432
20
316.68231393463475
30
0
40
1.4999999999999138
210
0
220
0
230
1
100
AcDbArc
50
222.84364304360287
51
270
0
ARC
5
193
100
AcDbEntity
8
0
100
AcDbCircle
10
2248.8858244184876
20
316.68231393463481
30
0
40
1.4999999999999503
210
-0
220
0
230
1
100
AcDbArc
50
270
51
336.59941334716768
0
ARC
5
194
100
AcDbEntity
8
0
100
AcDbCircle
10
2248.8858244184885
20
797.18231393463554
30
0
40
1.4999999999997817
210
0
220
-0
230
1
100
AcDbArc
50
23.400586652862014
51
89.999998292470082
0
ARC
5
195
100
AcDbEntity
8
0
100
AcDbCircle
10
2182.6132310945432
20
797.18231393463509
30
0
40
1.5000000000004832
210
0
220
-0
230
1
100
AcDbArc
50
90
51
137.15635695639463
0
LINE
5
196
100
AcDbEntity
8
0
100
AcDbLine
10
2022.3578137248671
20
871.01180780751542
30
0
11
2022.3578137248671
21
872.01180780751554
31
0
0
LINE
5
197
100
AcDbEntity
8
0
100
AcDbLine
10
2177.3436001624946
20
871.01180780751542
30
0
11
2177.3436001624946
21
872.01180780751554
31
0
0
LINE
5
198
100
AcDbEntity
8
0
100
AcDbLine
10
2178.0507069436808
20
799.61180780751533
30
0
11
2178.0507069436808
21
800.61180780751556
31
0
0
ARC
5
199
100
AcDbEntity
8
0
100
AcDbCircle
10
2020.6507069436816
20
800.61180780751579
30
0
40
0.99999999999880629
210
0
220
0
230
1
100
AcDbArc
50
0
51
47.156356956442501
0
ARC
5
200
100
AcDbEntity
8
0
100
AcDbCircle
10
2179.0507069436799
20
800.61180780751567
30
0
40
0.9999999999991992
210
0
220
0
230
1
100
AcDbArc
50
132.84364304355819
51
180
0
LINE
5
201
100
AcDbEntity
8
0
100
AcDbLine
10
2020.8507069436805
20
802.44483808549785
30
0
11
2020.8507069436805
21
868.7174314094425
31
0
0
LINE
5
202
100
AcDbEntity
8
0
100
AcDbLine
10
2178.850706943681
20
868.7174314094425
30
0
11
2178.850706943681
21
802.44483808549774
31
0
0
ARC
5
203
100
AcDbEntity
8
0
100
AcDbCircle
10
2178.343600162495
20
871.01180780751588
30
0
40
1.0000000000005116
210
0
220
0
230
1
100
AcDbArc
50
180
51
246.59941334711763
0
ARC
5
204
100
AcDbEntity
8
0
100
AcDbCircle
10
2021.3578137248674
20
871.01180780751531
30
0
40
0.99999999999962286
210
0
220
0
230
1
100
AcDbArc
50
-66.599413347164486
51
0
0
ARC
5
205
100
AcDbEntity
8
0
100
AcDbCircle
10
2177.350706943681
20
868.71743140944272
30
0
40
1.4999999999997726
210
0
220
0
230
1
100
AcDbArc
50
0
51
66.59941334715684
0
ARC
5
206
100
AcDbEntity
8
0
100
AcDbCircle
10
2177.350706943681
20
802.44483808549762
30
0
40
1.4999999999996163
210
0
220
0
230
1
100
AcDbArc
50
-47.156356956398703
51
0
0
ARC
5
207
100
AcDbEntity
8
0
100
AcDbCircle
10
2022.3507069436803
20
802.44483808549785
30
0
40
1.4999999999997726
210
0
220
0
230
1
100
AcDbArc
50
180
51
227.15635695640756
0
ARC
5
208
100
AcDbEntity
8
0
100
AcDbCircle
10
2022.3507069436812
20
868.71743140944216
30
0
40
1.5000000000006595
210
0
220
0
230
1
100
AcDbArc
50
113.40058665286644
51
180
0
LINE
5
209
100
AcDbEntity
8
0
100
AcDbLine
10
2021.6507069436805
20
799.61180780751545
30
0
11
2021.6507069436805
21
800.61180780751545
31
0
0
CIRCLE
5
210
100
AcDbEntity
8
0
100
AcDbCircle
10
2011.8212130708523
20
471.18231393464157
30
0
40
3.0000000000000004
210
0
220
0
230
1
0
CIRCLE
5
211
100
AcDbEntity
8
0
100
AcDbCircle
10
2011.8212130708516
20
493.18231393464157
30
0
40
3.0000000000000004
210
0
220
0
230
1
0
ARC
5
212
100
AcDbEntity
8
0
100
AcDbCircle
10
2019.7212130707999
20
514.18231393463509
30
0
40
1.0000000000000142
210
0
220
-0
230
1
100
AcDbArc
50
90
51
270
0
LINE
5
213
100
AcDbEntity
8
0
100
AcDbLine
10
2020.7212130708001
20
513.18231393463509
30
0
11
2019.7212130707999
21
513.18231393463509
31
0
0
LINE
5
214
100
AcDbEntity
8
0
100
AcDbLine
10
2020.7212130707994
20
449.38231393465014
30
0
11
2020.7212130708001
21
513.18231393463509
31
0
0
LINE
5
215
100
AcDbEntity
8
0
100
AcDbLine
10
2019.7212130708001
20
449.38231393465031
30
0
11
2020.7212130707994
21
449.38231393465014
31
0
0
ARC
5
216
100
AcDbEntity
8
0
100
AcDbCircle
10
2019.7212130707996
20
448.38231393465037
30
0
40
0.99999999999994316
210
0
220
-0
230
1
100
AcDbArc
50
89.999999999973952
51
270
0
LINE
5
217
100
AcDbEntity
8
0
100
AcDbLine
10
1947.5212130708005
20
316.68942071582319
30
0
11
1948.5212130707987
21
316.68942071582416
31
0
0
LINE
5
218
100
AcDbEntity
8
0
100
AcDbLine
10
2019.7212130707996
20
447.38231393465037
30
0
11
2019.9212130708006
21
447.38231393464673
31
0
0
LINE
5
219
100
AcDbEntity
8
0
100
AcDbLine
10
2019.7212130707999
20
515.18231393463509
30
0
11
2019.9212130707997
21
515.18231393463532
31
0
0
LINE
5
220
100
AcDbEntity
8
0
100
AcDbLine
10
2018.9212130708017
20
797.88231393463559
30
0
11
2019.9212130708017
21
797.88231393463559
31
0
0
LINE
5
221
100
AcDbEntity
8
0
100
AcDbLine
10
1947.5212130708021
20
797.17520715345108
30
0
11
1948.5212130708028
21
797.17520715345188
31
0
0
ARC
5
222
100
AcDbEntity
8
0
100
AcDbCircle
10
2018.9212130708017
20
798.88231393463559
30
0
40
0.99999999999997979
210
0
220
0
230
1
100
AcDbArc
50
222.84364304359673
51
270
0
LINE
5
223
100
AcDbEntity
8
0
100
AcDbLine
10
2017.0881827928201
20
798.68231393463543
30
0
11
1950.8155894688748
21
798.68231393463543
31
0
0
ARC
5
224
100
AcDbEntity
8
0
100
AcDbCircle
10
2018.9212130707986
20
314.98231393463476
30
0
40
1.0000000000000497
210
0
220
-0
230
1
100
AcDbArc
50
90
51
137.15635695640086
0
LINE
5
225
100
AcDbEntity
8
0
100
AcDbLine
10
2017.0881827704652
20
315.18231393463481
30
0
11
1950.8155894465199
21
315.18231393463481
31
0
0
ARC
5
226
100
AcDbEntity
8
0
100
AcDbCircle
10
1948.5212130708019
20
798.17520715344938
30
0
40
0.99999999999752731
210
0
220
0
230
1
100
AcDbArc
50
270.00000000005213
51
336.59941334715512
0
ARC
5
227
100
AcDbEntity
8
0
100
AcDbCircle
10
1948.5212130707985
20
315.68942071582177
30
0
40
1.0000000000002116
210
0
220
-0
230
1
100
AcDbArc
50
23.400586652848688
51
89.999999999986969
0
ARC
5
228
100
AcDbEntity
8
0
100
AcDbCircle
10
1950.8155894688712
20
316.6823139346352
30
0
40
1.4999999999997113
210
0
220
0
230
1
100
AcDbArc
50
203.40058665285059
51
269.99999914624374
0
ARC
5
229
100
AcDbEntity
8
0
100
AcDbCircle
10
2017.0881827928165
20
316.68231393463481
30
0
40
1.4999999999999858
210
0
220
0
230
1
100
AcDbArc
50
269.99999914624374
51
317.15635695639713
0
ARC
5
230
100
AcDbEntity
8
0
100
AcDbCircle
10
2017.0881827928192
20
797.1823139346352
30
0
40
1.5000000000003155
210
0
220
-0
230
1
100
AcDbArc
50
42.843643043602221
51
89.999999999965269
0
ARC
5
231
100
AcDbEntity
8
0
100
AcDbCircle
10
1950.8155894688748
20
797.18231393463589
30
0
40
1.4999999999996305
210
0
220
-0
230
1
100
AcDbArc
50
90
51
156.59941334714833
0
LINE
5
232
100
AcDbEntity
8
0
100
AcDbLine
10
2180.7802008165609
20
315.98231393463476
30
0
11
2179.7802008165609
21
315.98231393463573
31
0
0
LINE
5
233
100
AcDbEntity
8
0
100
AcDbLine
10
2018.9212130707986
20
315.98231393463482
30
0
11
2019.9212130707992
21
315.98231393463527
31
0
0
LINE
5
234
100
AcDbEntity
8
0
100
AcDbLine
10
2178.0507069436808
20
797.88231393463559
30
0
11
2179.7802008165609
21
797.88231393463548
31
0
0
LINE
5
235
100
AcDbEntity
8
0
100
AcDbLine
10
2178.0507069436808
20
799.61180780751533
30
0
11
2178.0507069436808
21
797.88231393463559
31
0
0
LINE
5
236
100
AcDbEntity
8
0
100
AcDbLine
10
2021.6507069436805
20
799.61180780751545
30
0
11
2021.6507069436805
21
797.88231393463536
31
0
0
LINE
5
237
100
AcDbEntity
8
0
100
AcDbLine
10
2019.9212130707997
20
515.18231393463532
30
0
11
2021.6507069436805
21
515.18231393453266
31
0
0
LINE
5
238
100
AcDbEntity
8
0
100
AcDbLine
10
2021.6507069436805
20
797.88231393463536
30
0
11
2019.9212130708017
21
797.88231393463559
31
0
0
LINE
5
239
100
AcDbEntity
8
0
100
AcDbLine
10
2019.9212130708006
20
447.38231393464673
30
0
11
2021.6507069436802
21
447.38231393464662
31
0
0
LINE
5
240
100
AcDbEntity
8
0
100
AcDbLine
10
2178.0507069436808
20
315.98231393463521
30
0
11
2179.7802008165609
21
315.98231393463573
31
0
0
LINE
5
241
100
AcDbEntity
8
0
100
AcDbLine
10
2019.9212130707992
20
315.98231393463527
30
0
11
2021.6507069436802
21
315.98231393463521
31
0
0
LINE
5
242
100
AcDbEntity
8
0
100
AcDbLine
10
2035.8507069436803
20
330.18231393463543
30
0
11
2035.8507069436803
21
442.3823592253342
31
0
0
ARC
5
243
100
AcDbEntity
8
0
100
AcDbCircle
10
2030.8507522343684
20
442.38235922533482
30
0
40
4.9999547093119645
210
0
220
0
230
1
100
AcDbArc
50
0
51
90.000518997757581
0
SPLINE
5
244
100
AcDbEntity
8
0
100
AcDbSpline
70
0
71
3
72
10
73
6
74
0
42
0.000000001
43
0.0000000001
44
0.0000000001
40
0
40
0
40
0
40
0
40
1.1219872131216095
40
6.7319232787296572
40
7.8539104918512663
40
7.8539104918512663
40
7.8539104918512663
40
7.8539104918512663
10
2035.8507069437828
20
520.18229128929147
30
0
10
2035.8434848462059
20
519.81472163500689
30
0
10
2035.6283481155783
20
517.53856303023326
30
0
10
2033.4944567771295
20
515.40467422493907
30
0
10
2031.2182996375095
20
515.18953498733003
30
0
10
2030.850729589024
20
515.18231393453254
30
0
0
LINE
5
245
100
AcDbEntity
8
0
100
AcDbLine
10
2035.8507069437828
20
520.18229128929147
30
0
11
2035.8507069436805
21
783.6823139346352
31
0
0
LINE
5
246
100
AcDbEntity
8
0
100
AcDbLine
10
2163.8507069436805
20
330.18231393463486
30
0
11
2035.8507069436803
21
330.18231393463543
31
0
0
LINE
5
247
100
AcDbEntity
8
0
100
AcDbLine
10
2163.850706943681
20
783.68231393463543
30
0
11
2035.8507069436805
21
783.6823139346352
31
0
0
LINE
5
248
100
AcDbEntity
8
0
100
AcDbLine
10
2163.8507069436805
20
330.18231393463486
30
0
11
2163.850706943681
21
783.68231393463543
31
0
0
LINE
5
249
100
AcDbEntity
8
0
100
AcDbLine
10
2030.850729589024
20
515.18231393453254
30
0
11
2021.6507069436805
21
515.18231393453266
31
0
0
LINE
5
250
100
AcDbEntity
8
0
100
AcDbLine
10
2030.8507069436803
20
447.38231393464662
30
0
11
2021.6507069436802
21
447.38231393464662
31
0
0
LINE
5
251
100
AcDbEntity
8
0
100
AcDbLine
10
2178.0507069436808
20
314.25282006175485
30
0
11
2178.0507069436808
21
315.98231393463521
31
0
0
LINE
5
252
100
AcDbEntity
8
0
100
AcDbLine
10
2021.6507069436802
20
315.98231393463521
30
0
11
2021.6507069436802
21
314.25282006175479
31
0
0
LINE
5
253
100
AcDbEntity
8
0
100
AcDbLine
10
2178.0507069436808
20
314.25282006175485
30
0
11
2178.0507069436808
21
313.2528200617549
31
0
0
LINE
5
254
100
AcDbEntity
8
0
100
AcDbLine
10
2021.6507069436802
20
314.25282006175479
30
0
11
2021.6507069436802
21
313.2528200617549
31
0
0
LINE
5
255
100
AcDbEntity
8
0
100
AcDbLine
10
2178.8507069436805
20
311.41978978377256
30
0
11
2178.8507069436805
21
245.14719645982777
31
0
0
ARC
5
256
100
AcDbEntity
8
0
100
AcDbCircle
10
2179.0507069436799
20
313.25282006175428
30
0
40
0.99999999999937472
210
0
220
0
230
1
100
AcDbArc
50
180
51
227.15635695640498
0
ARC
5
257
100
AcDbEntity
8
0
100
AcDbCircle
10
2020.6507069436816
20
313.25282006175416
30
0
40
0.99999999999856304
210
0
220
0
230
1
100
AcDbArc
50
-47.156356956429242
51
0
0
LINE
5
258
100
AcDbEntity
8
0
100
AcDbLine
10
2020.8507069436803
20
245.14719645982774
30
0
11
2020.8507069436803
21
311.41978978377256
31
0
0
ARC
5
259
100
AcDbEntity
8
0
100
AcDbCircle
10
2021.3578137248664
20
242.85282006175467
30
0
40
1.0000000000002274
210
0
220
-0
230
1
100
AcDbArc
50
0
51
66.599413347135723
0
ARC
5
260
100
AcDbEntity
8
0
100
AcDbCircle
10
2178.3436001624941
20
242.85282006175498
30
0
40
0.99999999999980094
210
0
220
0
230
1
100
AcDbArc
50
113.40058665284491
51
180
0
ARC
5
261
100
AcDbEntity
8
0
100
AcDbCircle
10
2022.3507069436814
20
245.14719645982834
30
0
40
1.5000000000011937
210
0
220
0
230
1
100
AcDbArc
50
180
51
246.59941334712067
0
ARC
5
262
100
AcDbEntity
8
0
100
AcDbCircle
10
2022.3507069436803
20
311.41978978377244
30
0
40
1.5000000000000964
210
0
220
0
230
1
100
AcDbArc
50
132.84364304359244
51
180
0
ARC
5
263
100
AcDbEntity
8
0
100
AcDbCircle
10
2177.3507069436805
20
311.41978978377205
30
0
40
1.5000000000003411
210
0
220
-0
230
1
100
AcDbArc
50
0
51
47.156356956417895
0
ARC
5
264
100
AcDbEntity
8
0
100
AcDbCircle
10
2177.3507069436805
20
245.14719645982808
30
0
40
1.5000000000004163
210
0
220
0
230
1
100
AcDbArc
50
293.40058665285306
51
360
0
LINE
5
265
100
AcDbEntity
8
0
100
AcDbLine
10
2022.3578137248664
20
242.85282006175478
30
0
11
2022.3578137248669
21
241.85282006175487
31
0
0
LINE
5
266
100
AcDbEntity
8
0
100
AcDbLine
10
2177.3436001624946
20
242.85282006175478
30
0
11
2177.3436001624941
21
241.85282006175481
31
0
0
LINE
5
267
100
AcDbEntity
8
0
100
AcDbLine
10
2022.3578137248669
20
240.50773462178117
30
0
11
2022.3578137248669
21
241.85282006175487
31
0
0
LINE
5
268
100
AcDbEntity
8
0
100
AcDbLine
10
2177.3436001624941
20
241.85282006175481
30
0
11
2177.3436001624941
21
240.50773462178111
31
0
0
ELLIPSE
5
269
100
AcDbEntity
8
0
100
AcDbEllipse
10
2176.1976959310032
20
240.42747478325921
30
0
11
1.1413704280501114
21
0.14908695199355196
31
0.0
40
0.68312540486197249
41
5.7010580782114264
42
6.1955332306366433
0
ELLIPSE
5
270
100
AcDbEntity
8
0
100
AcDbEllipse
10
2023.5191369634754
20
240.43257351839378
30
0
11
1.1574584578977705
21
-0.13904464650885651
31
0.0
40
0.68088415502889621
41
3.222168092585961
42
3.7129846947618987
0
CIRCLE
5
271
100
AcDbEntity
8
0
100
AcDbCircle
10
2160.0369984446957
20
233.42332618887474
30
0
40
3.0000000000000004
210
0
220
-0
230
1
0
LINE
5
272
100
AcDbEntity
8
0
100
AcDbLine
10
2163.5829399907143
20
226.36266601709485
30
0
11
2176.9014770221011
21
239.68120304848173
31
0
0
LINE
5
273
100
AcDbEntity
8
0
100
AcDbLine
10
2036.1184738966467
20
226.36266601709502
30
0
11
2022.7999368652595
21
239.68120304848196
31
0
0
LINE
5
274
100
AcDbEntity
8
0
100
AcDbLine
10
2162.5222798189343
20
225.92332618887474
30
0
11
2037.1791340684267
21
225.92332618887474
31
0
0
ARC
5
275
100
AcDbEntity
8
0
100
AcDbCircle
10
2175.8436001624927
20
240.73907990809005
30
0
40
1.4960638021788513
210
-0
220
0
230
1
100
AcDbArc
50
315
51
335.69571453428381
0
ARC
5
276
100
AcDbEntity
8
0
100
AcDbCircle
10
2037.1791340684263
20
227.42332618887485
30
0
40
1.4999999999998967
210
0
220
0
230
1
100
AcDbArc
50
225.00000000000767
51
270.00000000001734
0
ARC
5
277
100
AcDbEntity
8
0
100
AcDbCircle
10
2023.857813724866
20
240.7390799080886
30
0
40
1.4960638021758357
210
0
220
0
230
1
100
AcDbArc
50
204.30428546570502
51
225.00000000000384
0
ARC
5
278
100
AcDbEntity
8
0
100
AcDbCircle
10
2162.5222798189343
20
227.42332618887477
30
0
40
1.5000000000000213
210
-0
220
0
230
1
100
AcDbArc
50
270
51
315.00000000000227
0
CIRCLE
5
279
100
AcDbEntity
8
0
100
AcDbCircle
10
2039.6644154426654
20
233.42332618887434
30
0
40
3.0000000000000004
210
0
220
-0
230
1
0
ARC
5
280
100
AcDbEntity
8
0
100
AcDbCircle
10
1461.9075645817677
20
906.65889014956997
30
0
40
2.0000000000000284
210
0
220
0
230
1
100
AcDbArc
50
90.000000000006523
51
180
0
LINE
5
281
100
AcDbEntity
8
0
100
AcDbLine
10
1459.9075645817675
20
783.40153083668952
30
0
11
1459.9075645817675
21
906.65889014956997
31
0
0
ARC
5
282
100
AcDbEntity
8
0
100
AcDbCircle
10
1461.9075645817666
20
783.40153083668861
30
0
40
1.9999999999990337
210
0
220
0
230
1
100
AcDbArc
50
180
51
225
0
LINE
5
283
100
AcDbEntity
8
0
100
AcDbLine
10
1460.4933510193941
20
781.98731727431618
30
0
11
1473.6654414413742
21
768.81522685233631
31
0
0
ARC
5
284
100
AcDbEntity
8
0
100
AcDbCircle
10
1474.7233183009769
20
769.87310371193757
30
0
40
1.4960638021696318
210
0
220
0
230
1
100
AcDbArc
50
224.99999999996305
51
245.6957145343502
0
LINE
5
285
100
AcDbEntity
8
0
100
AcDbLine
10
1474.1075645817671
20
908.6588901495702
30
0
11
1461.9075645817675
21
908.65889014957008
31
0
0
LINE
5
286
100
AcDbEntity
8
0
100
AcDbLine
10
1475.8370584546469
20
908.6588901495702
30
0
11
1474.1075645817671
21
908.6588901495702
31
0
0
ELLIPSE
5
287
100
AcDbEntity
8
0
100
AcDbEllipse
10
1474.4117131762114
20
769.51900794305652
30
0
11
-0.14908695194323246
21
1.1413704276720553
31
0.0
40
0.68312540499932817
41
2.5594654245215582
42
3.0539405770238628
0
LINE
5
288
100
AcDbEntity
8
0
100
AcDbLine
10
1474.4919730146735
20
768.37310371194337
30
0
11
1475.8370584546469
21
768.37310371194349
31
0
0
LINE
5
289
100
AcDbEntity
8
0
100
AcDbLine
10
1475.8370584546469
20
768.37310371194349
30
0
11
1476.8370584546471
21
768.37310371194349
31
0
0
ARC
5
290
100
AcDbEntity
8
0
100
AcDbCircle
10
1476.8370584546469
20
767.37310371194337
30
0
40
1.0000000000000966
210
0
220
0
230
1
100
AcDbArc
50
-15.396691778538598
51
89.999999999986969
0
ARC
5
291
100
AcDbEntity
8
0
100
AcDbCircle
10
1479.2472382482479
20
766.70937930972923
30
0
40
1.4998993418888564
210
0
220
0
230
1
100
AcDbArc
50
164.6033082214972
51
170.42423195106625
0
ARC
5
292
100
AcDbEntity
8
0
100
AcDbCircle
10
1476.8370584546471
20
909.6588901495702
30
0
40
0.99999999999994316
210
0
220
0
230
1
100
AcDbArc
50
-90
51
90
0
LINE
5
293
100
AcDbEntity
8
0
100
AcDbLine
10
1475.8370584546469
20
908.6588901495702
30
0
11
1476.8370584546471
21
908.6588901495702
31
0
0
ARC
5
294
100
AcDbEntity
8
0
100
AcDbCircle
10
1475.537058454647
20
912.1588901495702
30
0
40
1.4999999999997726
210
0
220
0
230
1
100
AcDbArc
50
180
51
270
0
LINE
5
295
100
AcDbEntity
8
0
100
AcDbLine
10
1474.0370584546472
20
912.1588901495702
30
0
11
1474.0370584546472
21
922.15889014957031
31
0
0
ARC
5
296
100
AcDbEntity
8
0
100
AcDbCircle
10
1476.0370584546472
20
922.15889014956997
30
0
40
2.0000000000000284
210
0
220
0
230
1
100
AcDbArc
50
90.000000000006523
51
180
0
LINE
5
297
100
AcDbEntity
8
0
100
AcDbLine
10
1881.037058454647
20
924.15889014956997
30
0
11
1476.037058454647
21
924.15889014956997
31
0
0
ARC
5
298
100
AcDbEntity
8
0
100
AcDbCircle
10
1881.0370584546472
20
922.15889014957042
30
0
40
1.9999999999996021
210
0
220
0
230
1
100
AcDbArc
50
0
51
90.000000000006523
0
LINE
5
299
100
AcDbEntity
8
0
100
AcDbLine
10
1883.0370584546472
20
768.45889014957027
30
0
11
1883.037058454647
21
922.1588901495702
31
0
0
ARC
5
300
100
AcDbEntity
8
0
100
AcDbCircle
10
1881.5370584546467
20
768.45889014957015
30
0
40
1.5000000000000568
210
0
220
0
230
1
100
AcDbArc
50
-89.999999999982649
51
0
0
LINE
5
301
100
AcDbEntity
8
0
100
AcDbLine
10
1879.2572625573898
20
766.95889014957038
30
0
11
1881.5370584546472
21
766.95889014957004
31
0
0
LINE
5
302
100
AcDbEntity
8
0
100
AcDbLine
10
1476.8370584546471
20
910.65889014957008
30
0
11
1475.537058454647
21
910.65889014957042
31
0
0
CIRCLE
5
303
100
AcDbEntity
8
0
100
AcDbCircle
10
1602.0370584546467
20
916.25889014957181
30
0
40
3.0000000000461
210
0
220
-0
230
1
0
CIRCLE
5
304
100
AcDbEntity
8
0
100
AcDbCircle
10
1680.0370584546472
20
916.25889014956988
30
0
40
3.000000000003638
210
0
220
-0
230
1
0
CIRCLE
5
305
100
AcDbEntity
8
0
100
AcDbCircle
10
1858.037058454647
20
916.25889014957011
30
0
40
3.0000000000004552
210
0
220
-0
230
1
0
CIRCLE
5
306
100
AcDbEntity
8
0
100
AcDbCircle
10
1758.037058454647
20
916.25889014957011
30
0
40
3.0000000000024447
210
0
220
-0
230
1
0
CIRCLE
5
307
100
AcDbEntity
8
0
100
AcDbCircle
10
1502.037058454647
20
916.25889014957068
30
0
40
3.0000000000242721
210
0
220
-0
230
1
0
LINE
5
308
100
AcDbEntity
8
0
100
AcDbLine
10
1879.2572625573896
20
765.22939627633741
30
0
11
1879.2572625573898
21
766.95889014957038
31
0
0
LINE
5
309
100
AcDbEntity
8
0
100
AcDbLine
10
1477.7472382482429
20
766.80577548947008
30
0
11
1477.7472382482429
21
765.38251093679048
31
0
0
ELLIPSE
5
310
100
AcDbEntity
8
0
100
AcDbEllipse
10
1478.3962801980658
20
765.33127770459168
30
0
11
-0.60238990332295861
21
0.27071916124914969
31
0.0
40
0.89252425376482358
41
0.38124983634746334
42
0.6365324736606689
0
ARC
5
311
100
AcDbEntity
8
0
100
AcDbCircle
10
1479.2472382482579
20
765.47890711653486
30
0
40
1.4998993418990501
210
0
220
0
230
1
100
AcDbArc
50
189.57576780800181
51
195.39669177852275
0
ARC
5
312
100
AcDbEntity
8
0
100
AcDbCircle
10
1476.8370584546471
20
764.81518271431719
30
0
40
0.99999999999994316
210
0
220
0
230
1
100
AcDbArc
50
-90.000000000013031
51
15.396691778554585
0
LINE
5
313
100
AcDbEntity
8
0
100
AcDbLine
10
1476.8370584546469
20
763.8151827143173
30
0
11
1475.8370584546471
21
763.8151827143173
31
0
0
LINE
5
314
100
AcDbEntity
8
0
100
AcDbLine
10
1474.4919730146735
20
763.8151827143173
30
0
11
1475.8370584546471
21
763.8151827143173
31
0
0
ELLIPSE
5
315
100
AcDbEntity
8
0
100
AcDbEllipse
10
1474.4168119116978
20
762.65385947184427
30
0
11
0.13904464541508055
21
1.1574584618471024
31
0.0
40
0.68088415408679048
41
0.080575437983162732
42
0.57139203931208438
0
ARC
5
316
100
AcDbEntity
8
0
100
AcDbCircle
10
1474.7233183009826
20
286.24360983906462
30
0
40
1.4960638021784998
210
0
220
0
230
1
100
AcDbArc
50
225.00000000001387
51
245.69571453427625
0
ELLIPSE
5
317
100
AcDbEntity
8
0
100
AcDbEllipse
10
1474.4117131760818
20
285.8895140691962
30
0
11
-0.14908695227095653
21
1.1413704266646696
31
0.0
40
0.68312540522699827
41
2.5594654240038852
42
3.0539405767269088
0
LINE
5
318
100
AcDbEntity
8
0
100
AcDbLine
10
1474.4919730146735
20
284.74360983906348
30
0
11
1475.8370584546474
21
284.74360983906337
31
0
0
LINE
5
319
100
AcDbEntity
8
0
100
AcDbLine
10
1476.8370584546471
20
284.74360983906337
30
0
11
1475.8370584546474
21
284.74360983906337
31
0
0
ARC
5
320
100
AcDbEntity
8
0
100
AcDbCircle
10
1476.8370584546474
20
283.74360983906342
30
0
40
0.99999999999983236
210
-0
220
0
230
1
100
AcDbArc
50
-15.396691778485213
51
90.000000000013031
0
ARC
5
321
100
AcDbEntity
8
0
100
AcDbCircle
10
1479.2472382482702
20
283.07988543684576
30
0
40
1.4998993419111635
210
0
220
0
230
1
100
AcDbArc
50
164.60330822155316
51
170.42423195052243
0
CIRCLE
5
322
100
AcDbEntity
8
0
100
AcDbCircle
10
1890.0665523275268
20
729.02939627669059
30
0
40
3.0000000000097131
210
0
220
-0
230
1
0
LINE
5
323
100
AcDbEntity
8
0
100
AcDbLine
10
1882.9665523275271
20
764.02939627669014
30
0
11
1895.6665523275271
21
764.02939627669014
31
0
0
ARC
5
324
100
AcDbEntity
8
0
100
AcDbCircle
10
1895.6665523275269
20
762.52939627668991
30
0
40
1.5000000000003411
210
0
220
-0
230
1
100
AcDbArc
50
0
51
89.999999999991317
0
LINE
5
325
100
AcDbEntity
8
0
100
AcDbLine
10
1897.1665523275271
20
762.52939627669002
30
0
11
1897.1665523275271
21
286.02939627669031
31
0
0
ARC
5
326
100
AcDbEntity
8
0
100
AcDbCircle
10
1895.6665523275269
20
286.02939627669087
30
0
40
1.50000000000027
210
0
220
0
230
1
100
AcDbArc
50
270.00000000000864
51
360
0
LINE
5
327
100
AcDbEntity
8
0
100
AcDbLine
10
1895.6665523275271
20
284.52939627669059
30
0
11
1882.9665523275271
21
284.52939627669059
31
0
0
CIRCLE
5
328
100
AcDbEntity
8
0
100
AcDbCircle
10
1890.066552327527
20
329.52939627669036
30
0
40
3.0000000000006111
210
0
220
-0
230
1
0
CIRCLE
5
329
100
AcDbEntity
8
0
100
AcDbCircle
10
1890.066552327527
20
504.02939627669042
30
0
40
3.0000000000009095
210
0
220
-0
230
1
0
CIRCLE
5
330
100
AcDbEntity
8
0
100
AcDbCircle
10
1890.066552327527
20
629.02939627669048
30
0
40
3.000000000003638
210
0
220
-0
230
1
0
LINE
5
331
100
AcDbEntity
8
0
100
AcDbLine
10
1881.237058454647
20
284.52939627669053
30
0
11
1882.9665523275271
21
284.52939627669059
31
0
0
LINE
5
332
100
AcDbEntity
8
0
100
AcDbLine
10
1881.237058454647
20
764.02939627669048
30
0
11
1882.9665523275271
21
764.02939627669014
31
0
0
LINE
5
333
100
AcDbEntity
8
0
100
AcDbLine
10
1459.9075645817675
20
299.77203696380974
30
0
11
1459.9075645817675
21
748.78675558957093
31
0
0
ARC
5
334
100
AcDbEntity
8
0
100
AcDbCircle
10
1461.9075645817668
20
748.78675558957161
30
0
40
1.9999999999992926
210
0
220
0
230
1
100
AcDbArc
50
135.0000000000023
51
180
0
LINE
5
335
100
AcDbEntity
8
0
100
AcDbLine
10
1460.4933510193941
20
750.20096915194415
30
0
11
1473.6654414413742
21
763.37305957392448
31
0
0
ARC
5
336
100
AcDbEntity
8
0
100
AcDbCircle
10
1474.7233183009844
20
762.31518271431332
30
0
40
1.4960638021818289
210
0
220
0
230
1
100
AcDbArc
50
114.30428546574426
51
134.99999999997232
0
LINE
5
337
100
AcDbEntity
8
0
100
AcDbLine
10
1473.6654414413747
20
285.18573297945625
30
0
11
1460.4933510193941
21
298.35782340143669
31
0
0
ARC
5
338
100
AcDbEntity
8
0
100
AcDbCircle
10
1461.9075645817666
20
299.77203696380917
30
0
40
1.9999999999990337
210
0
220
0
230
1
100
AcDbArc
50
180
51
225.00000000000117
0
ELLIPSE
5
339
100
AcDbEntity
8
0
100
AcDbEllipse
10
1478.3962777339689
20
766.85700710586025
30
0
11
-0.60238768922085673
21
-0.27071707820172985
31
0.0
40
0.89252706174103758
41
5.646652637962073
42
5.901935823905947
0
LINE
5
340
100
AcDbEntity
8
0
100
AcDbLine
10
1880.237058454647
20
764.02939627669048
30
0
11
1881.237058454647
21
764.02939627669048
31
0
0
ARC
5
341
100
AcDbEntity
8
0
100
AcDbCircle
10
1880.237058454647
20
765.02939627669036
30
0
40
1.0000000000704881
210
0
220
0
230
1
100
AcDbArc
50
168.46304098865042
51
270
0
LWPOLYLINE
5
342
100
AcDbEntity
8
0
100
AcDbPolyline
90
5
70
1
43
0.0
10
1487.0370584546463
20
724.72939627669973
42
-0.41421849251131265
10
1490.2370584546561
20
721.52939627669684
42
-0.41421849251383608
10
1487.0370584546472
20
718.32939627669271
10
1481.0370584546704
20
718.32939627669566
42
-0.99999522761935133
10
1481.0370584546472
20
724.72939627669552
0
LWPOLYLINE
5
343
100
AcDbEntity
8
0
100
AcDbPolyline
90
5
70
1
43
0.0
10
1485.0370584546406
20
697.57939386119915
42
-0.99999522760771953
10
1485.0370584546522
20
703.97939386119617
10
1491.0370584546517
20
703.97939386120061
42
-0.41421849251466852
10
1494.2370584546575
20
700.77939386119647
42
-0.41421849251306864
10
1491.0370584546513
20
697.57939386119665
0
LWPOLYLINE
5
344
100
AcDbEntity
8
0
100
AcDbPolyline
90
5
70
1
43
0.0
10
1487.0370584546467
20
676.8293962766902
10
1481.0370584546226
20
676.8293962766877
42
-0.99999522760771953
10
1481.0370584546472
20
683.22939627669473
10
1487.0370584546472
20
683.22939627669439
42
-0.41421849251195003
10
1490.2370584546529
20
680.02939627668991
42
-0.41421849251253534
0
LWPOLYLINE
5
345
100
AcDbEntity
8
0
100
AcDbPolyline
90
5
70
1
43
0.0
10
1481.0370584546476
20
330.22939627802742
10
1487.0370584546476
20
330.22939627802714
42
-0.4142184925133483
10
1490.23705845465
20
327.02939627802272
42
-0.41421849251237275
10
1487.037058454647
20
323.82939627802614
10
1481.0370584546172
20
323.82939627802074
42
-0.99999522760771953
0
LWPOLYLINE
5
346
100
AcDbEntity
8
0
100
AcDbPolyline
90
5
70
1
43
0.0
10
1485.0370584546522
20
350.97939869352172
10
1491.0370584546517
20
350.97939869352643
42
-0.41421886856638579
10
1494.237058454662
20
347.77939869352326
42
-0.41421886856607365
10
1491.0370584546524
20
344.57939869351804
10
1485.037058454667
20
344.57939869352219
42
-0.99999702949240599
0
LWPOLYLINE
5
347
100
AcDbEntity
8
0
100
AcDbPolyline
90
5
70
1
43
0.0
10
1481.0370584546472
20
371.72939627802776
10
1487.037058454647
20
371.7293962780326
42
-0.41421849251542303
10
1490.2370584546561
20
368.52939627802971
42
-0.41421849251457749
10
1487.0370584546472
20
365.32939627802534
10
1481.0370584546231
20
365.32939627802904
42
-0.99999522760771953
0
CIRCLE
5
348
100
AcDbEntity
8
0
100
AcDbCircle
10
1658.7149587656947
20
552.28634436278355
30
0
40
3.0000000000060254
210
0
220
-0
230
1
0
CIRCLE
5
349
100
AcDbEntity
8
0
100
AcDbCircle
10
1858.0370584546472
20
308.52939627669048
30
0
40
2.9999999999987499
210
0
220
0
230
1
0
CIRCLE
5
350
100
AcDbEntity
8
0
100
AcDbCircle
10
1778.0370584546472
20
308.52939627669031
30
0
40
3.0000000000023874
210
0
220
0
230
1
0
CIRCLE
5
351
100
AcDbEntity
8
0
100
AcDbCircle
10
1818.0370584546472
20
308.52939627669031
30
0
40
3.0000000000000004
210
0
220
0
230
1
0
LINE
5
352
100
AcDbEntity
8
0
100
AcDbLine
10
1773.0370584546472
20
386.02939627669031
30
0
11
1823.0370584546472
21
386.02939627669031
31
0
0
SPLINE
5
353
100
AcDbEntity
8
0
100
AcDbSpline
70
0
71
3
72
29
73
25
74
0
42
0.000000001
43
0.0000000001
44
0.0000000001
40
0
40
0
40
0
40
0
40
35.216881111925467
40
35.216881111925467
40
35.216881111925467
40
70.471935834337359
40
70.471935834337359
40
70.471935834337359
40
105.70763000123551
40
105.70763000123551
40
105.70763000123551
40
140.94335927472079
40
140.94335927472079
40
140.94335927472079
40
176.17876476429811
40
176.17876476429811
40
176.17876476429811
40
193.79774565021049
40
193.79774565021049
40
193.79774565021049
40
237.12642893374306
40
237.12642893374306
40
237.12642893374306
40
246.65160566006887
40
246.65160566006887
40
246.65160566006887
40
246.65160566006887
10
1823.0370584546472
20
386.02939627669031
30
0
10
1831.2971218017492
20
386.02292459671889
30
0
10
1839.5061428700458
20
387.91007062585749
30
0
10
1846.9023786117132
20
391.47283050275416
30
0
10
1854.3066315602809
20
395.03945226075746
30
0
10
1860.9072096595055
20
400.29961943104354
30
0
10
1866.039797514286
20
406.73569942848985
30
0
10
1871.1695667731833
20
413.16824500838777
30
0
10
1874.8303689739203
20
420.77002065885097
30
0
10
1876.6609048418502
20
428.78989400401707
30
0
10
1878.4914425336087
20
436.80977533967109
30
0
10
1878.4916370253698
20
445.24849952667154
30
0
10
1876.6607252264639
20
453.26894069618135
30
0
10
1874.829830251952
20
461.28930816522171
30
0
10
1871.1676222254937
20
468.89060589574768
30
0
10
1866.0406000934872
20
475.32375278619998
30
0
10
1863.4769030481336
20
478.54055958959179
30
0
10
1860.5462835849187
20
481.46624164647233
30
0
10
1857.3280200200568
20
484.02953578809928
30
0
10
1849.4136506460416
20
490.33320117852469
30
0
10
1839.7382371189294
20
494.4503665620374
30
0
10
1829.693128497827
20
495.65922098391991
30
0
10
1827.4848584189738
20
495.92496993201252
30
0
10
1825.2606707122077
20
496.0503142865511
30
0
10
1823.0370584546472
20
496.02939627669031
30
0
0
LINE
5
354
100
AcDbEntity
8
0
100
AcDbLine
10
1823.0370584546472
20
496.02939627669031
30
0
11
1773.0370584546472
21
496.02939627669031
31
0
0
SPLINE
5
355
100
AcDbEntity
8
0
100
AcDbSpline
70
0
71
3
72
14
73
10
74
0
42
0.000000001
43
0.0000000001
44
0.0000000001
40
0
40
0
40
0
40
0
40
38.402383545695976
40
38.402383545695976
40
38.402383545695976
40
64.004136057906365
40
64.004136057906365
40
64.004136057906365
40
89.605691974821383
40
89.605691974821383
40
89.605691974821383
40
89.605691974821383
10
1773.0370584546472
20
496.02939627669031
30
0
10
1764.0496620907209
20
496.07136979384961
30
0
10
1755.1124131732367
20
492.89880903009703
30
0
10
1748.095765513101
20
487.30617819006807
30
0
10
1743.4179705359631
20
483.57773382181165
30
0
10
1739.5937565148076
20
478.77371796919789
30
0
10
1736.996852746302
20
473.38370093541994
30
0
10
1734.3999689193633
20
467.99372529146439
30
0
10
1733.0305313659392
20
462.01776459614365
30
0
10
1733.0370584544471
20
456.02939627669031
30
0
0
LINE
5
356
100
AcDbEntity
8
0
100
AcDbLine
10
1733.0370584544471
20
456.02939627669031
30
0
11
1733.0370584545494
21
426.02939627669031
31
0
0
SPLINE
5
357
100
AcDbEntity
8
0
100
AcDbSpline
70
0
71
3
72
14
73
10
74
0
42
0.000000001
43
0.0000000001
44
0.0000000001
40
0
40
0
40
0
40
0
40
38.40238354529685
40
38.40238354529685
40
38.40238354529685
40
64.004136057471555
40
64.004136057471555
40
64.004136057471555
40
89.605691974248884
40
89.605691974248884
40
89.605691974248884
40
89.605691974248884
10
1733.0370584545494
20
426.02939627669031
30
0
10
1732.9950849373108
20
417.04199991270048
30
0
10
1736.1676457011727
20
408.10475099524194
30
0
10
1741.7602765411959
20
401.0881033351879
30
0
10
1745.4887209094823
20
396.41030835806248
30
0
10
1750.2927367620862
20
392.58609433694517
30
0
10
1755.6827537958957
20
389.98919056845807
30
0
10
1761.0727294398616
20
387.3923067415484
30
0
10
1767.0486901352185
20
386.02286918815338
30
0
10
1773.0370584546472
20
386.02939627669031
30
0
0
CIRCLE
5
358
100
AcDbEntity
8
0
100
AcDbCircle
10
1579.3872393298352
20
541.93680673515871
30
0
40
3.0000000000048885
210
0
220
-0
230
1
0
ARC
5
359
100
AcDbEntity
8
0
100
AcDbCircle
10
1880.2370584546472
20
283.52939627669059
30
0
40
0.99999999999994316
210
0
220
-0
230
1
100
AcDbArc
50
90
51
191.53695900147929
0
LINE
5
360
100
AcDbEntity
8
0
100
AcDbLine
10
1880.2370584546472
20
284.52939627669053
30
0
11
1881.237058454647
21
284.52939627669053
31
0
0
LINE
5
361
100
AcDbEntity
8
0
100
AcDbLine
10
1879.2572625574246
20
283.32939627722646
30
0
11
1879.2572625573898
21
281.59990240381057
31
0
0
LINE
5
362
100
AcDbEntity
8
0
100
AcDbLine
10
1477.7472382482438
20
283.17628161659172
30
0
11
1477.7472382482438
21
281.75301706390906
31
0
0
ELLIPSE
5
363
100
AcDbEntity
8
0
100
AcDbEllipse
10
1478.3962777208344
20
283.22751323256995
30
0
11
-0.6023876688207056
21
-0.27071709385239057
31
0.0
40
0.89252706767656598
41
5.6466526013728044
42
5.9019357899211737
0
ELLIPSE
5
364
100
AcDbEntity
8
0
100
AcDbEllipse
10
1478.396280209862
20
281.70178383168832
30
0
11
-0.60238992194423724
21
0.27071914622330889
31
0.0
40
0.892524248851844
41
0.38124980458257163
42
0.63653243956634287
0
CIRCLE
5
365
100
AcDbEntity
8
0
100
AcDbCircle
10
1705.0370584546472
20
202.89990240381059
30
0
40
3.000000000003638
210
0
220
-0
230
1
0
CIRCLE
5
366
100
AcDbEntity
8
0
100
AcDbCircle
10
1758.0370584546472
20
132.29990240381056
30
0
40
2.9999999999993894
210
0
220
-0
230
1
0
CIRCLE
5
367
100
AcDbEntity
8
0
100
AcDbCircle
10
1858.0370584546472
20
132.29990240381056
30
0
40
2.9999999999989342
210
0
220
-0
230
1
0
CIRCLE
5
368
100
AcDbEntity
8
0
100
AcDbCircle
10
1502.037058454647
20
132.29990240380971
30
0
40
3.0000000000339497
210
0
220
-0
230
1
0
CIRCLE
5
369
100
AcDbEntity
8
0
100
AcDbCircle
10
1680.0370584546472
20
132.29990240381099
30
0
40
2.9999999999939462
210
0
220
-0
230
1
0
ARC
5
370
100
AcDbEntity
8
0
100
AcDbCircle
10
1881.0370584546472
20
126.39990240381044
30
0
40
1.9999999999999041
210
0
220
0
230
1
100
AcDbArc
50
-90
51
0
0
ARC
5
371
100
AcDbEntity
8
0
100
AcDbCircle
10
1476.0370584546472
20
126.3999024038103
30
0
40
1.9999999999998863
210
0
220
0
230
1
100
AcDbArc
50
180
51
270
0
LINE
5
372
100
AcDbEntity
8
0
100
AcDbLine
10
1881.0370584546472
20
124.39990240381053
30
0
11
1476.0370584546472
21
124.39990240381042
31
0
0
CIRCLE
5
373
100
AcDbEntity
8
0
100
AcDbCircle
10
1602.037058454647
20
132.29990240380857
30
0
40
3.0000000000509317
210
0
220
-0
230
1
0
LINE
5
374
100
AcDbEntity
8
0
100
AcDbLine
10
1475.8370584546471
20
139.89990240381047
30
0
11
1476.8370584546474
21
139.89990240381047
31
0
0
ARC
5
375
100
AcDbEntity
8
0
100
AcDbCircle
10
1476.8370584546471
20
138.89990240381053
30
0
40
0.99999999999999645
210
0
220
0
230
1
100
AcDbArc
50
-90
51
89.999999999986969
0
LINE
5
376
100
AcDbEntity
8
0
100
AcDbLine
10
1883.0370584546472
20
126.39990240381054
30
0
11
1883.0370584546472
21
280.09990240381057
31
0
0
LINE
5
377
100
AcDbEntity
8
0
100
AcDbLine
10
1881.5370584546472
20
281.59990240381063
30
0
11
1879.2572625573898
21
281.59990240381057
31
0
0
LINE
5
378
100
AcDbEntity
8
0
100
AcDbLine
10
1476.8370584546471
20
137.89990240381053
30
0
11
1475.5370584546472
21
137.89990240381044
31
0
0
LINE
5
379
100
AcDbEntity
8
0
100
AcDbLine
10
1474.0370584546474
20
136.39990240381042
30
0
11
1474.0370584546474
21
126.3999024038104
31
0
0
ARC
5
380
100
AcDbEntity
8
0
100
AcDbCircle
10
1476.8370584546478
20
281.18568884143701
30
0
40
0.99999999999972999
210
0
220
0
230
1
100
AcDbArc
50
-90.00000000003908
51
15.396691778500916
0
ARC
5
381
100
AcDbEntity
8
0
100
AcDbCircle
10
1881.5370584546472
20
280.09990240381063
30
0
40
1.5000000000000568
210
0
220
0
230
1
100
AcDbArc
50
0
51
90
0
ARC
5
382
100
AcDbEntity
8
0
100
AcDbCircle
10
1479.2472382483309
20
281.84941324366685
30
0
40
1.4998993419727047
210
0
220
0
230
1
100
AcDbArc
50
189.57576780796765
51
195.39669177827324
0
ARC
5
383
100
AcDbEntity
8
0
100
AcDbCircle
10
1475.5370584546472
20
136.39990240381042
30
0
40
1.5000000000000213
210
0
220
-0
230
1
100
AcDbArc
50
90
51
180
0
LINE
5
384
100
AcDbEntity
8
0
100
AcDbLine
10
1475.8370584546471
20
280.18568884143718
30
0
11
1476.8370584546471
21
280.18568884143724
31
0
0
LINE
5
385
100
AcDbEntity
8
0
100
AcDbLine
10
1475.8370584546471
20
139.89990240381047
30
0
11
1474.1075645817671
21
139.89990240381047
31
0
0
LINE
5
386
100
AcDbEntity
8
0
100
AcDbLine
10
1474.4919730146735
20
280.18568884143718
30
0
11
1475.8370584546471
21
280.18568884143718
31
0
0
ELLIPSE
5
387
100
AcDbEntity
8
0
100
AcDbEllipse
10
1474.4168119113892
20
279.02436560162414
30
0
11
0.1390446462147942
21
1.1574584591263664
31
0.0
40
0.68088415472790131
41
0.080575438708110625
42
0.57139204061862481
0
ARC
5
388
100
AcDbEntity
8
0
100
AcDbCircle
10
1461.9075645817675
20
141.89990240381042
30
0
40
1.9999999999998863
210
0
220
0
230
1
100
AcDbArc
50
180
51
270
0
LINE
5
389
100
AcDbEntity
8
0
100
AcDbLine
10
1461.9075645817675
20
139.89990240381053
30
0
11
1474.1075645817671
21
139.89990240381047
31
0
0
ARC
5
390
100
AcDbEntity
8
0
100
AcDbCircle
10
1474.7233183009826
20
278.68568884143497
30
0
40
1.4960638021796377
210
0
220
0
230
1
100
AcDbArc
50
114.30428546570495
51
134.99999999997385
0
LINE
5
391
100
AcDbEntity
8
0
100
AcDbLine
10
1459.9075645817675
20
265.15726171669115
30
0
11
1459.9075645817675
21
141.89990240381053
31
0
0
LINE
5
392
100
AcDbEntity
8
0
100
AcDbLine
10
1460.4933510193946
20
266.57147527906432
30
0
11
1473.6654414413742
21
279.74356570104425
31
0
0
ARC
5
393
100
AcDbEntity
8
0
100
AcDbCircle
10
1461.9075645817666
20
265.15726171669166
30
0
40
1.9999999999989408
210
0
220
0
230
1
100
AcDbArc
50
134.99999999998619
51
180
0
LWPOLYLINE
5
394
100
AcDbEntity
8
0
100
AcDbPolyline
90
74
70
1
43
0.0
10
1126.8884816184354
20
978.39751465508925
42
-0.41421356237312001
10
1131.8884363279531
20
983.39746936460688
10
1408.3884816186421
20
983.39746936440008
42
-0.41421356237321988
10
1409.3884816186417
20
982.39746936439997
10
1409.3884816186417
20
972.23707716983711
42
-0.18910303072933049
10
1408.8551482853084
20
970.87733863287906
42
0.18910303072939394
10
1408.5884816186417
20
970.19746936440004
10
1408.5884816186419
20
969.19746936439992
10
1408.5884816186419
20
967.46797549151984
10
1410.3179754915218
20
967.4679754915195
10
1411.3179754915218
20
967.4679754915195
42
0.18910303072961915
10
1411.9978447600008
20
967.73464215818649
42
-0.18910303072953472
10
1413.3575832969598
20
968.26797549152059
10
1423.5179754915214
20
968.26797549152036
42
-0.41421356237313667
10
1424.5179754915218
20
967.26797549152047
10
1424.5179754915221
20
562.26797549152002
42
-0.41421356237292856
10
1423.5179754915221
20
561.26797549151991
10
1413.3575832969589
20
561.26797549151991
42
-0.18910303072939752
10
1411.9978447600008
20
561.80130882485332
42
0.18910303072935961
10
1411.317975491522
20
562.06797549151997
10
1410.3179754915218
20
562.06797549151997
10
1408.5884816186419
20
562.06797549151997
10
1408.5884816186419
20
560.33848161864
10
1408.5884816186419
20
559.33848161864012
42
0.18910303072921564
10
1408.8551482853084
20
558.65861235016087
42
-0.1891030307292732
10
1409.3884816186417
20
557.29887381320282
10
1409.3884816186417
20
547.13848161863984
42
-0.41421356237371937
10
1408.3884816186398
20
546.13848161863984
10
928.88848161863962
20
546.13848161864007
42
-0.4142135623730534
10
927.88848161863962
20
547.13848161864018
10
927.8884816186395
20
557.29887378340072
42
-0.18910303458781608
10
928.42181495197292
20
558.65861235016132
42
0.18910303072927551
10
928.68848161863968
20
559.33848161864023
10
928.68848161863968
20
560.33848161864012
10
928.68848161863968
20
562.0679754915202
10
926.95898774575971
20
562.0679754915202
10
925.95898774575971
20
562.0679754915202
42
0.18910303072930643
10
925.27911847728069
20
561.80130882485366
42
-0.18910303072949974
10
923.91937994032241
20
561.26797549152013
10
913.75898774575967
20
561.26797549152161
42
-0.41421356237307422
10
912.75898774575967
20
562.26797549152184
10
912.75898774575967
20
967.26797549152207
42
-0.4142135623731783
10
913.75898774575967
20
968.26797549152218
10
923.91937994031991
20
968.26797549152218
42
-0.18910303072984311
10
925.27911847727978
20
967.73464215818706
42
0.18910303072955584
10
925.95898774575971
20
967.46797549151961
10
926.95898774575971
20
967.46797549151961
10
928.68848161863968
20
967.46797549151893
10
928.68848161863957
20
969.1974693644031
10
928.68848161863968
20
970.1974693644031
42
0.18910303072946361
10
928.42181495197292
20
970.87733863288213
42
-0.18910303072952253
10
927.8884816186395
20
972.23707716984018
10
927.88848161863962
20
982.39746936440326
42
-0.4142135623731783
10
928.88848161863962
20
983.39746936440315
10
1034.0884816186515
20
983.39746936440235
42
-0.41421356237310336
10
1039.0884816186519
20
978.39746936440235
10
1039.0884816186513
20
969.19746936440242
10
1039.0884816186526
20
967.46797549151938
10
1039.0884816186517
20
966.46797549151961
42
0.99999999999999989
10
1041.0884816186517
20
966.46797549151938
10
1041.0884816186517
20
968.26797549152036
42
-0.41421356237338641
10
1042.0884816186517
20
969.26797549152184
10
1058.0884816186497
20
969.26797549152184
42
-0.41421356237334478
10
1059.088481618651
20
968.26797549152184
10
1059.0884816186517
20
961.26797549152184
42
0.99999702948306235
10
1067.0884816186517
20
961.26797549152002
10
1067.0884816186517
20
963.26797549152172
42
-0.41421886856516577
10
1072.0884816186517
20
968.26797549152184
10
1123.888481618641
20
968.26797549152138
42
-0.41421356237330315
10
1124.8884816186405
20
967.26797549151968
10
1124.8884816186408
20
966.46797549151961
42
0.99999999999999989
10
1126.8884816186405
20
966.46797549151938
10
1126.8884816186405
20
967.46797549152097
10
1126.8884816186403
20
969.19746936440174
0
CIRCLE
5
395
100
AcDbEntity
8
0
100
AcDbCircle
10
1417.4179754915215
20
941.26797549152013
30
0
40
3.0000000000048388
210
0
220
-0
230
1
0
CIRCLE
5
396
100
AcDbEntity
8
0
100
AcDbCircle
10
1417.4179754915215
20
841.26797549151991
30
0
40
3.0000000000072764
210
0
220
-0
230
1
0
CIRCLE
5
397
100
AcDbEntity
8
0
100
AcDbCircle
10
1417.4179754915215
20
763.26797549152025
30
0
40
3.000000000002423
210
0
220
-0
230
1
0
CIRCLE
5
398
100
AcDbEntity
8
0
100
AcDbCircle
10
1417.4179754915215
20
685.26797549152002
30
0
40
3.0000000000000004
210
0
220
-0
230
1
0
CIRCLE
5
399
100
AcDbEntity
8
0
100
AcDbCircle
10
1417.4179754915215
20
585.26797549152002
30
0
40
2.9999999999993983
210
0
220
-0
230
1
0
CIRCLE
5
400
100
AcDbEntity
8
0
100
AcDbCircle
10
919.8589877457598
20
841.26797549152172
30
0
40
3.0000000000097131
210
0
220
-0
230
1
0
CIRCLE
5
401
100
AcDbEntity
8
0
100
AcDbCircle
10
919.85898774575958
20
585.26797549152036
30
0
40
3.0000000000005689
210
0
220
-0
230
1
0
CIRCLE
5
402
100
AcDbEntity
8
0
100
AcDbCircle
10
919.8589877457598
20
685.26797549152207
30
0
40
3.000000000002423
210
0
220
-0
230
1
0
CIRCLE
5
403
100
AcDbEntity
8
0
100
AcDbCircle
10
919.85898774575958
20
763.26797549152116
30
0
40
3.0000000000023874
210
0
220
-0
230
1
0
CIRCLE
5
404
100
AcDbEntity
8
0
100
AcDbCircle
10
951.88848161863939
20
553.23848161864009
30
0
40
3.0000000000121645
210
0
220
-0
230
1
0
CIRCLE
5
405
100
AcDbEntity
8
0
100
AcDbCircle
10
1378.3884816186414
20
553.23848161863998
30
0
40
3.0000000000005689
210
0
220
-0
230
1
0
CIRCLE
5
406
100
AcDbEntity
8
0
100
AcDbCircle
10
1051.8884816186401
20
553.23848161864009
30
0
40
3.000000000003638
210
0
220
-0
230
1
0
CIRCLE
5
407
100
AcDbEntity
8
0
100
AcDbCircle
10
1318.3884816186414
20
553.23848161863998
30
0
40
3.0000000000003411
210
0
220
-0
230
1
0
CIRCLE
5
408
100
AcDbEntity
8
0
100
AcDbCircle
10
1151.8884816186405
20
553.23848161864009
30
0
40
3.0000000000003411
210
0
220
-0
230
1
0
CIRCLE
5
409
100
AcDbEntity
8
0
100
AcDbCircle
10
919.8589877457598
20
941.26797549152218
30
0
40
3.0000000000097131
210
0
220
-0
230
1
0
CIRCLE
5
410
100
AcDbEntity
8
0
100
AcDbCircle
10
1145.8884816186405
20
824.26797549152127
30
0
40
17.500000000000909
210
0
220
0
230
1
0
SPLINE
5
411
100
AcDbEntity
8
0
100
AcDbSpline
70
0
71
3
72
11
73
7
74
0
42
0.000000001
43
0.0000000001
44
0.0000000001
40
2.780334664259208e-12
40
2.780334664259208e-12
40
2.780334664259208e-12
40
2.780334664259208e-12
40
0.69351857079423929
40
0.69351857079423929
40
0.69351857079423929
40
4.8535300408386748
40
4.8535300408386748
40
4.8535300408386748
40
4.8535300408386748
10
1114.4512569342196
20
931.42000781506897
30
0
10
1114.4972522715416
20
931.28555914535877
30
0
10
1114.5607901690337
20
931.13168976002908
30
0
10
1114.64622540762
20
930.99766198279872
30
0
10
1115.1587013346311
20
930.1937078940897
30
0
10
1116.4596446556752
20
930.10364661462472
30
0
10
1117.0489157797692
20
930.881812676869
30
0
0
SPLINE
5
412
100
AcDbEntity
8
0
100
AcDbSpline
70
0
71
3
72
8
73
4
74
0
42
0.000000001
43
0.0000000001
44
0.0000000001
40
0
40
0
40
0
40
0
40
2.0819780966085206
40
2.0819780966085206
40
2.0819780966085206
40
2.0819780966085206
10
1117.048915779769
20
930.88181267686889
30
0
10
1117.3620300677012
20
931.25562961573792
30
0
10
1117.4719406760369
20
931.78612949144645
30
0
10
1117.3331245353104
20
932.25357792596594
30
0
0
ELLIPSE
5
413
100
AcDbEntity
8
0
100
AcDbEllipse
10
1098.2397154060161
20
927.79640983855779
30
0
11
9.6119308562483869
21
-20.399921289605278
31
0.0
40
0.86461507474260735
41
1.3876897398092545
42
1.7539029136667448
0
SPLINE
5
414
100
AcDbEntity
8
0
100
AcDbSpline
70
0
71
3
72
8
73
4
74
0
42
0.000000001
43
0.0000000001
44
0.0000000001
40
0
40
0
40
0
40
0
40
4.0806582994429643
40
4.0806582994429643
40
4.0806582994429643
40
4.0806582994429643
10
1113.8327457424198
20
939.68262136539863
30
0
10
1113.3200656966749
20
940.4964761319211
30
0
10
1112.022040065435
20
940.5559316705768
30
0
10
1111.4372413961491
20
939.79177306416614
30
0
0
SPLINE
5
415
100
AcDbEntity
8
0
100
AcDbSpline
70
0
71
3
72
8
73
4
74
0
42
0.000000001
43
0.0000000001
44
0.0000000001
40
4.5348941613395911e-13
40
4.5348941613395911e-13
40
4.5348941613395911e-13
40
4.5348941613395911e-13
40
2.7830119940845495
40
2.7830119940845495
40
2.7830119940845495
40
2.7830119940845495
10
1111.4372413961487
20
939.79177306416568
30
0
10
1111.0151862970836
20
939.29560659264166
30
0
10
1110.9794751633463
20
938.52420657132882
30
0
10
1111.3551871398859
20
937.99096437563662
30
0
0
ELLIPSE
5
416
100
AcDbEntity
8
0
100
AcDbEllipse
10
1097.5632197343846
20
927.47766205924927
30
0
11
-8.5017109727194757
21
18.043641514457011
31
0.0
40
0.86461507467286325
41
4.5292823932843778
42
4.895495567172599
0
LWPOLYLINE
5
417
100
AcDbEntity
8
0
100
AcDbPolyline
90
8
70
1
43
0.0
10
1193.1884816186409
20
766.8804801175213
10
1193.6884816186412
20
766.8804801175213
10
1193.6884816186409
20
738.88048011752119
10
1193.1884816186409
20
738.88048011752119
10
1191.5884816186413
20
738.88048011752119
10
1191.0884816186408
20
738.88048011752051
10
1191.088481618641
20
766.8804801175213
10
1191.5884816186413
20
766.8804801175213
0
LWPOLYLINE
5
418
100
AcDbEntity
8
0
100
AcDbPolyline
90
8
70
1
43
0.0
10
940.43848161863991
20
766.88048011752142
10
940.93848161863991
20
766.88048011752153
10
940.93848161864128
20
738.8804801175213
10
940.43848161864162
20
738.8804801175213
10
938.83848161864171
20
738.8804801175213
10
938.33848161864
20
738.88048011752062
10
938.33848161864125
20
766.88048011752142
10
938.83848161864125
20
766.88048011752142
0
CIRCLE
5
419
100
AcDbEntity
8
0
100
AcDbCircle
10
1298.1384816186405
20
831.65738696889321
30
0
40
3.0000000000048885
210
0
220
0
230
1
0
LINE
5
420
100
AcDbEntity
8
0
100
AcDbLine
10
1306.8884816186412
20
620.26797549152025
30
0
11
1306.8884816186412
21
670.26797549152047
31
0
0
SPLINE
5
421
100
AcDbEntity
8
0
100
AcDbSpline
70
0
71
3
72
14
73
10
74
0
42
0.000000001
43
0.0000000001
44
0.0000000001
40
0
40
0
40
0
40
0
40
25.596532885475202
40
25.596532885475202
40
25.596532885475202
40
51.20423747903952
40
51.20423747903952
40
51.20423747903952
40
89.605691974682102
40
89.605691974682102
40
89.605691974682102
40
89.605691974682102
10
1306.8884816186412
20
670.26797549152047
30
0
10
1306.895010962651
20
676.25841315695322
30
0
10
1305.5244194176109
20
682.234694998093
30
0
10
1302.9286873268002
20
687.62228015019195
30
0
10
1300.3318223184438
20
693.01221673515442
30
0
10
1296.5116608276833
20
697.81305206656612
30
0
10
1291.8297745600667
20
701.54475740481519
30
0
10
1284.808792191157
20
707.14084323181009
30
0
10
1275.8706789277703
20
710.30992472766582
30
0
10
1266.888481618641
20
710.26797549152082
30
0
0
LINE
5
422
100
AcDbEntity
8
0
100
AcDbLine
10
1266.8884816186412
20
710.2679754915207
30
0
11
1236.888481618641
21
710.26797549152047
31
0
0
SPLINE
5
423
100
AcDbEntity
8
0
100
AcDbSpline
70
0
71
3
72
14
73
10
74
0
42
0.000000001
43
0.0000000001
44
0.0000000001
40
0
40
0
40
0
40
0
40
25.596532885054181
40
25.596532885054181
40
25.596532885054181
40
51.204237478962945
40
51.204237478962945
40
51.204237478962945
40
89.605691974992027
40
89.605691974992027
40
89.605691974992027
40
89.605691974992027
10
1236.888481618641
20
710.2679754915207
30
0
10
1230.8980439531181
20
710.27450483552468
30
0
10
1224.9217621119869
20
708.9039132904511
30
0
10
1219.5341769599709
20
706.30818119968103
30
0
10
1214.1442403749295
20
703.71131619128823
30
0
10
1209.3434050435646
20
699.89115470052366
30
0
10
1205.6116997053462
20
695.2092684329449
30
0
10
1200.0156138784157
20
688.18828606411614
30
0
10
1196.8465323824987
20
679.2501728006697
30
0
10
1196.8884816186405
20
670.26797549152047
30
0
0
LINE
5
424
100
AcDbEntity
8
0
100
AcDbLine
10
1196.8884816186405
20
670.2679754915207
30
0
11
1196.888481618641
21
620.26797549152002
31
0
0
SPLINE
5
425
100
AcDbEntity
8
0
100
AcDbSpline
70
0
71
3
72
29
73
25
74
0
42
0.000000001
43
0.0000000001
44
0.0000000001
40
0
40
0
40
0
40
0
40
35.216881111986737
40
35.216881111986737
40
35.216881111986737
40
70.471935834477932
40
70.471935834477932
40
70.471935834477932
40
105.70763000173577
40
105.70763000173577
40
105.70763000173577
40
140.9433592757612
40
140.9433592757612
40
140.9433592757612
40
176.17876476609445
40
176.17876476609445
40
176.17876476609445
40
193.79774565247004
40
193.79774565247004
40
193.79774565247004
40
237.12642893231134
40
237.12642893231134
40
237.12642893231134
40
246.65160566309359
40
246.65160566309359
40
246.65160566309359
40
246.65160566309359
10
1196.888481618641
20
620.26797549152025
30
0
10
1196.8820099386676
20
612.00791214440483
30
0
10
1198.769155967811
20
603.79889107611643
30
0
10
1202.3319158447057
20
596.40265533445404
30
0
10
1205.8985376027083
20
588.9984023858874
30
0
10
1211.1587047730138
20
582.39782428664591
30
0
10
1217.5947847704399
20
577.26523643188159
30
0
10
1224.0273303503686
20
572.13546717295935
30
0
10
1231.6291060008209
20
568.47466497224241
30
0
10
1239.6489793459693
20
566.64412910431656
30
0
10
1247.6688606816465
20
564.81359141255257
30
0
10
1256.1075848686523
20
564.81339692080439
30
0
10
1264.1280260381309
20
566.64430871970319
30
0
10
1272.1483935071892
20
568.47520369421943
30
0
10
1279.7496912377169
20
572.1374117206874
30
0
10
1286.1828381281518
20
577.26443385267987
30
0
10
1289.3996449315505
20
579.82813089803915
30
0
10
1292.3253269884251
20
582.7587503612516
30
0
10
1294.8886211300492
20
585.9770139261102
30
0
10
1301.192286519765
20
593.89138329923549
30
0
10
1305.3094519031195
20
603.56679682505501
30
0
10
1306.5183063254972
20
613.61190544521594
30
0
10
1306.7840552738453
20
615.82017552508364
30
0
10
1306.909399628513
20
618.04436323289815
30
0
10
1306.8884816186412
20
620.26797549152025
30
0
0
LWPOLYLINE
5
426
100
AcDbEntity
8
0
100
AcDbPolyline
90
8
70
1
43
0.0
10
1191.5884816186408
20
906.26797549152138
10
1191.0884816186408
20
906.26797549152138
10
1191.088481618641
20
934.26797549152161
10
1191.5884816186413
20
934.26797549152161
10
1193.1884816186409
20
934.26797549152161
10
1193.6884816186409
20
934.26797549152013
10
1193.6884816186412
20
906.26797549152138
10
1193.1884816186409
20
906.26797549152138
0
LWPOLYLINE
5
427
100
AcDbEntity
8
0
100
AcDbPolyline
90
8
70
1
43
0.0
10
938.33848161864
20
906.26797549152172
10
938.33848161864
20
934.26797549152172
10
938.83848161864103
20
934.26797549152172
10
940.43848161864105
20
934.26797549152172
10
940.93848161863991
20
934.26797549152013
10
940.93848161864128
20
906.26797549152172
10
940.43848161864105
20
906.26797549152172
10
938.83848161864103
20
906.26797549152172
0
LWPOLYLINE
5
428
100
AcDbEntity
8
0
100
AcDbPolyline
90
8
70
1
43
0.0
10
1191.5884816186408
20
576.26797549152013
10
1191.0884816186408
20
576.26797549152013
10
1191.088481618641
20
604.26797549152025
10
1191.5884816186413
20
604.26797549152025
10
1193.1884816186409
20
604.26797549152025
10
1193.6884816186409
20
604.26797549152002
10
1193.6884816186412
20
576.26797549152013
10
1193.1884816186409
20
576.26797549152013
0
LWPOLYLINE
5
429
100
AcDbEntity
8
0
100
AcDbPolyline
90
8
70
1
43
0.0
10
938.33848161863966
20
576.26797549152025
10
938.33848161863966
20
604.26797549152047
10
938.83848161864103
20
604.26797549152047
10
940.43848161864105
20
604.26797549152047
10
940.9384816186398
20
604.26797549152013
10
940.93848161864116
20
576.26797549152025
10
940.43848161864105
20
576.26797549152025
10
938.83848161864103
20
576.26797549152025
0
LWPOLYLINE
5
430
100
AcDbEntity
8
0
100
AcDbPolyline
90
6
70
1
43
0.0
10
1156.6596898378746
20
944.26797549213325
10
1159.2708009489761
20
948.96797549154599
10
1164.506162287526
20
948.96797549209236
10
1167.1172733994058
20
944.26797549213211
10
1164.5061622884939
20
939.56797549167982
10
1159.2708009489536
20
939.56797549131875
0
LWPOLYLINE
5
431
100
AcDbEntity
8
0
100
AcDbPolyline
90
6
70
1
43
0.0
10
1024.9096898378741
20
944.26797549213336
10
1027.520800948575
20
948.96797549127245
10
1032.7561622886587
20
948.96797549154462
10
1035.3672733994042
20
944.26797549213325
10
1032.7561622880442
20
939.56797549140674
10
1027.5208009489243
20
939.56797549137093
0
LWPOLYLINE
5
432
100
AcDbEntity
8
0
100
AcDbPolyline
90
6
70
1
43
0.0
10
1024.9096898375083
20
764.26797549129083
10
1027.5208009485593
20
768.96797549124426
10
1032.7561622886735
20
768.96797549151665
10
1035.3672733997714
20
764.26797549129049
10
1032.7561622879705
20
759.5679754912702
10
1027.5208009490379
20
759.56797549116527
0
LWPOLYLINE
5
433
100
AcDbEntity
8
0
100
AcDbPolyline
90
6
70
1
43
0.0
10
1116.6596898375089
20
764.26797549129083
10
1119.2708009482451
20
768.96797549124403
10
1124.5061622889593
20
768.96797549151711
10
1127.1172733997716
20
764.26797549129037
10
1124.5061622876933
20
759.5679754912702
10
1119.2708009490671
20
759.56797549111343
0
LWPOLYLINE
5
434
100
AcDbEntity
8
0
100
AcDbPolyline
90
6
70
1
43
0.0
10
1161.6596898374873
20
596.26797549213268
10
1164.2708009490216
20
600.96797549162591
10
1169.5061622881963
20
600.96797549189955
10
1172.1172733994854
20
596.26797549157766
10
1169.5061622883059
20
591.56797549133739
10
1164.2708009487385
20
591.5679754917046
0
CIRCLE
5
435
100
AcDbEntity
8
0
100
AcDbCircle
10
1384.3884816186417
20
625.26797549152025
30
0
40
3.000000000001819
210
0
220
0
230
1
0
CIRCLE
5
436
100
AcDbEntity
8
0
100
AcDbCircle
10
1108.5240867181328
20
814.25621605210699
30
0
40
7.9999999999990914
210
0
220
0
230
1
0
CIRCLE
5
437
100
AcDbEntity
8
0
100
AcDbCircle
10
1157.9235672157015
20
869.18352641380466
30
0
40
7.9999999999954525
210
0
220
0
230
1
0
CIRCLE
5
438
100
AcDbEntity
8
0
100
AcDbCircle
10
1384.3884816186414
20
665.26797549152036
30
0
40
3.0000000000012506
210
0
220
0
230
1
0
CIRCLE
5
439
100
AcDbEntity
8
0
100
AcDbCircle
10
1092.3828308966069
20
925.03679287051739
30
0
40
1.5000000000291176
210
0
220
0
230
1
0
CIRCLE
5
440
100
AcDbEntity
8
0
100
AcDbCircle
10
1384.3884816186414
20
585.26797549152002
30
0
40
2.9999999999987499
210
0
220
0
230
1
0
CIRCLE
5
441
100
AcDbEntity
8
0
100
AcDbCircle
10
1055.3995203961949
20
899.54053534373384
30
0
40
10.000000000001478
210
0
220
-0
230
1
0
CIRCLE
5
442
100
AcDbEntity
8
0
100
AcDbCircle
10
960.71893161863954
20
863.81797549226644
30
0
40
3.0000000000097771
210
0
220
-0
230
1
0
CIRCLE
5
443
100
AcDbEntity
8
0
100
AcDbCircle
10
1173.4656460851029
20
796.69081102498194
30
0
40
7.9999999999972715
210
0
220
-0
230
1
0
CIRCLE
5
444
100
AcDbEntity
8
0
100
AcDbCircle
10
986.88848161863973
20
741.18326964588175
30
0
40
13.999999999998408
210
0
220
-0
230
1
0
CIRCLE
5
445
100
AcDbEntity
8
0
100
AcDbCircle
10
1156.2412434227413
20
785.63094243995852
30
0
40
3.0000000000048885
210
0
220
-0
230
1
0
CIRCLE
5
446
100
AcDbEntity
8
0
100
AcDbCircle
10
1109.8137192070731
20
749.48139717719505
30
0
40
1.7500000000042064
210
0
220
-0
230
1
0
CIRCLE
5
447
100
AcDbEntity
8
0
100
AcDbCircle
10
1135.5357198145398
20
862.90500854308402
30
0
40
3.0000000000048885
210
0
220
-0
230
1
0
CIRCLE
5
448
100
AcDbEntity
8
0
100
AcDbCircle
10
1298.1384816186412
20
871.65738696889321
30
0
40
3.0000000000000004
210
0
220
0
230
1
0
CIRCLE
5
449
100
AcDbEntity
8
0
100
AcDbCircle
10
1087.6137192070728
20
739.18139717719487
30
0
40
1.7500000000042064
210
0
220
-0
230
1
0
LINE
5
450
100
AcDbEntity
8
0
100
AcDbLine
10
934.51797549152411
20
480.70621294522448
30
0
11
956.68272242860314
21
442.31574511320389
31
0
0
ARC
5
451
100
AcDbEntity
8
0
100
AcDbCircle
10
957.81734234576766
20
430.35052576874966
30
0
40
4.9999999999999227
210
-0
220
0
230
1
100
AcDbArc
50
-60.000000001688527
51
29.999999998180726
0
LINE
5
452
100
AcDbEntity
8
0
100
AcDbLine
10
960.31734234563999
20
426.02039874975389
30
0
11
955.12118992282785
21
423.0203987499134
31
0
0
ARC
5
453
100
AcDbEntity
8
0
100
AcDbCircle
10
952.62118992296553
20
427.35052576891496
30
0
40
5.0000000000000568
210
0
220
0
230
1
100
AcDbArc
50
209.99999999817942
51
299.99999999817896
0
LINE
5
454
100
AcDbEntity
8
0
100
AcDbLine
10
943.69106290547779
20
432.81795948477958
30
0
11
948.29106290396385
21
424.85052576905252
31
0
0
LINE
5
455
100
AcDbEntity
8
0
100
AcDbLine
10
957.54746936628317
20
440.81795948433887
30
0
11
962.14746936476911
21
432.8505257686121
31
0
0
LINE
5
456
100
AcDbEntity
8
0
100
AcDbLine
10
957.54746936628317
20
440.81795948433887
30
0
11
956.68272242860314
21
442.31574511320389
31
0
0
LINE
5
457
100
AcDbEntity
8
0
100
AcDbLine
10
943.69106290547779
20
432.81795948477958
30
0
11
942.82631596779765
21
434.31574511364454
31
0
0
LINE
5
458
100
AcDbEntity
8
0
100
AcDbLine
10
920.62631596740232
20
472.76727304245179
30
0
11
942.82631596779765
21
434.31574511364454
31
0
0
LINE
5
459
100
AcDbEntity
8
0
100
AcDbLine
10
919.76156903096376
20
474.26505867205634
30
0
11
920.62631596740232
21
472.76727304245179
31
0
0
LINE
5
460
100
AcDbEntity
8
0
100
AcDbLine
10
919.26156903096489
20
475.13108407584133
30
0
11
919.76156903096376
21
474.26505867205634
31
0
0
ARC
5
461
100
AcDbEntity
8
0
100
AcDbCircle
10
918.3955436271799
20
474.63108407584224
30
0
40
0.99999999999998623
210
0
220
-0
230
1
100
AcDbArc
50
29.999999999939131
51
209.99999999994475
0
LINE
5
462
100
AcDbEntity
8
0
100
AcDbLine
10
917.52951822339492
20
474.13108407584303
30
0
11
918.92784281165677
21
471.70911484349438
31
0
0
SPLINE
5
463
100
AcDbEntity
8
0
100
AcDbSpline
70
0
71
3
72
11
73
7
74
0
42
0.000000001
43
0.0000000001
44
0.0000000001
40
0.97221362994035554
40
0.97221362994035554
40
0.97221362994035554
40
0.97221362994035554
40
28.895274232412607
40
28.895274232412607
40
28.895274232412607
40
66.449843227696405
40
66.449843227696405
40
66.449843227696405
40
66.449843227696405
10
875.10883297595694
20
471.71036034991675
30
0
10
880.78697099889894
20
468.54279531521297
30
0
10
887.16904456886937
20
466.62481115456228
30
0
10
893.65558130974773
20
466.14007940886006
30
0
10
902.37952081780418
20
465.48814901887374
30
0
10
911.28959572845838
20
467.42870460691881
30
0
10
918.92782309237873
20
471.70910347546737
30
0
0
LINE
5
464
100
AcDbEntity
8
0
100
AcDbLine
10
876.50643275968207
20
474.13108407624088
30
0
11
875.10883297595694
21
471.71036034991675
31
0
0
ARC
5
465
100
AcDbEntity
8
0
100
AcDbCircle
10
875.6404073558806
20
474.63108407621155
30
0
40
1.0000000000000515
210
0
220
0
230
1
100
AcDbArc
50
-29.999999998056623
51
150.00000000193731
0
LINE
5
466
100
AcDbEntity
8
0
100
AcDbLine
10
934.51797549152411
20
480.70621294522448
30
0
11
934.51797549134437
21
518.13848161863098
31
0
0
SPLINE
5
467
100
AcDbEntity
8
0
100
AcDbSpline
70
0
71
3
72
14
73
10
74
0
42
0.000000001
43
0.0000000001
44
0.0000000001
40
0
40
0
40
0
40
0
40
19.557147659571342
40
19.557147659571342
40
19.557147659571342
40
39.113725432323733
40
39.113725432323733
40
39.113725432323733
40
45.632967475884008
40
45.632967475884008
40
45.632967475884008
40
45.632967475884008
10
934.51797549134437
20
518.13848161863098
30
0
10
934.53919336643958
20
522.62564323243839
30
0
10
932.95353832886735
20
527.10393338304141
30
0
10
930.15608368995208
20
530.61038597173979
30
0
10
927.35871056765416
20
534.11673638392745
30
0
10
923.34945583664853
20
536.65115093135614
30
0
10
918.97005982731503
20
537.64010018163845
30
0
10
917.51017543848207
20
537.96976928869321
30
0
10
916.00914291846379
20
538.12774859673198
30
0
10
914.51797549134471
20
538.13848161863098
30
0
0
LINE
5
468
100
AcDbEntity
8
0
100
AcDbLine
10
914.51797549134471
20
538.13848161863098
30
0
11
879.51797549134471
21
538.13848161863143
31
0
0
SPLINE
5
469
100
AcDbEntity
8
0
100
AcDbSpline
70
0
71
3
72
14
73
10
74
0
42
0.000000001
43
0.0000000001
44
0.0000000001
40
0
40
0
40
0
40
0
40
19.557147659595405
40
19.557147659595405
40
19.557147659595405
40
39.113725431320802
40
39.113725431320802
40
39.113725431320802
40
45.632967474994821
40
45.632967474994821
40
45.632967474994821
40
45.632967474994821
10
879.51797549134471
20
538.13848161863143
30
0
10
875.03081387769942
20
538.15969949381395
30
0
10
870.5525237270723
20
536.57404445644522
30
0
10
867.04607113813563
20
533.7765898173559
30
0
10
863.53972072589829
20
530.97921669503432
30
0
10
861.00530617838228
20
526.96996196352177
30
0
10
860.01635692826642
20
522.59056595463346
30
0
10
859.68668782124405
20
521.13068156584643
30
0
10
859.52870851321927
20
519.62964904594332
30
0
10
859.51797549134437
20
518.13848161863166
30
0
0
LINE
5
470
100
AcDbEntity
8
0
100
AcDbLine
10
859.51797549134426
20
518.13848161863166
30
0
11
859.51797549134415
21
480.70621294507754
31
0
0
LINE
5
471
100
AcDbEntity
8
0
100
AcDbLine
10
874.77438195207924
20
475.13108407618228
30
0
11
874.27438195210857
21
474.2650586723812
31
0
0
CIRCLE
5
472
100
AcDbEntity
8
0
100
AcDbCircle
10
897.01797549134415
20
482.63848161863143
30
0
40
2.4999999996100044
210
0
220
0
230
1
0
CIRCLE
5
473
100
AcDbEntity
8
0
100
AcDbCircle
10
897.01797549134449
20
522.63848161863154
30
0
40
2.4999999996187512
210
0
220
0
230
1
0
LINE
5
474
100
AcDbEntity
8
0
100
AcDbLine
10
833.71860864002099
20
426.02039875140287
30
0
11
838.91476106282926
21
423.02039875157851
31
0
0
ARC
5
475
100
AcDbEntity
8
0
100
AcDbCircle
10
836.21860863987467
20
430.35052577040949
30
0
40
4.9999999999999938
210
0
220
0
230
1
100
AcDbArc
50
150.00000000193612
51
240.00000000193572
0
ARC
5
476
100
AcDbEntity
8
0
100
AcDbCircle
10
841.41476106268271
20
427.35052577058525
30
0
40
4.9999999999999485
210
0
220
0
230
1
100
AcDbArc
50
240.0000000019387
51
330.00000000193791
0
LINE
5
477
100
AcDbEntity
8
0
100
AcDbLine
10
836.48848161979583
20
440.81795948384558
30
0
11
831.88848162086799
21
432.85052577026318
31
0
0
LINE
5
478
100
AcDbEntity
8
0
100
AcDbLine
10
850.34488808061735
20
432.81795948431414
30
0
11
845.74488808168951
21
424.85052577073168
31
0
0
LINE
5
479
100
AcDbEntity
8
0
100
AcDbLine
10
836.48848161979583
20
440.81795948384558
30
0
11
837.35322855616596
21
442.31574511344434
31
0
0
LINE
5
480
100
AcDbEntity
8
0
100
AcDbLine
10
850.34488808061735
20
432.81795948431414
30
0
11
851.20963501698736
21
434.3157451139129
31
0
0
LINE
5
481
100
AcDbEntity
8
0
100
AcDbLine
10
859.51797549134415
20
480.70621294507754
30
0
11
837.35322855616596
21
442.31574511344434
31
0
0
LINE
5
482
100
AcDbEntity
8
0
100
AcDbLine
10
873.40963501571923
20
472.76727304274806
30
0
11
851.20963501698736
21
434.3157451139129
31
0
0
LINE
5
483
100
AcDbEntity
8
0
100
AcDbLine
10
874.27438195210857
20
474.2650586723812
30
0
11
873.40963501571923
21
472.76727304274806
31
0
0
LWPOLYLINE
5
484
100
AcDbEntity
8
0
100
AcDbPolyline
90
114
70
1
43
0.0
10
990.32797549151769
20
410.43848161864105
10
990.32797549151769
20
411.63848161864104
42
0.41421356237309503
10
989.32797549151758
20
412.63848161864104
10
988.32797549151769
20
412.63848161864098
10
986.59848161863749
20
412.63848161864121
10
973.39848161863756
20
412.63848161864132
42
-0.41421356237301177
10
972.39848161863756
20
413.63848161864098
10
972.39848161863756
20
530.13848161864121
42
-0.41421356237307422
10
973.39848161863756
20
531.13848161864132
10
986.59848161863749
20
531.13848161864109
10
988.32797549151769
20
531.13848161864098
10
1029.5179754915189
20
531.13848161864098
10
1029.5179754915189
20
532.43848161864139
42
-0.4142135623730534
10
1032.5179754915189
20
535.43848161864094
10
1053.5179754915175
20
535.43848161864094
42
-0.41421356237351126
10
1054.5179754915189
20
534.43848161864094
10
1054.5179754915191
20
533.85269518101404
10
1053.103761929146
20
532.43848161864094
10
1048.0179754915187
20
532.43848161864094
10
1048.0179754915187
20
531.13848161864098
10
1139.5179754915264
20
531.13848161864098
10
1158.0179754915262
20
531.13848161864098
10
1196.9054708655217
20
531.13848161864087
10
1196.9054708655217
20
535.43848161864082
10
1215.4054708655215
20
535.43848161864094
10
1215.4054708655215
20
531.13848161864087
10
1249.5179754915123
20
531.13848161864087
10
1268.0179754915121
20
531.13848161864087
10
1359.5179754915198
20
531.13848161864087
10
1359.5179754915198
20
532.43848161864116
42
-0.41421356237306034
10
1362.5179754915198
20
535.43848161864082
10
1383.51797549152
20
535.43848161864071
42
-0.41421356237309503
10
1384.5179754915198
20
534.43848161864082
10
1384.5179754915198
20
533.85269518101393
10
1383.1037619291467
20
532.43848161864082
10
1378.0179754915198
20
532.43848161864082
10
1378.0179754915198
20
531.13848161864075
10
1393.5179754915193
20
531.13848161864087
42
-0.41421356237309503
10
1394.5179754915193
20
530.13848161864087
10
1394.5179754915193
20
410.43848161864082
10
1394.5179754915193
20
408.70898774576085
10
1394.5179754915193
20
158.55898774576093
10
1394.5179754915193
20
156.82949387287999
10
1394.5179754915175
20
37.129493872880047
42
-0.4142135623730846
10
1393.5179754915177
20
36.129493872880076
10
1378.0179754915182
20
36.12949387288009
10
1378.0179754915182
20
34.829493872880093
10
1383.1037619291451
20
34.829493872880079
10
1384.517975491518
20
33.415280310507114
10
1384.517975491518
20
32.829493872879652
42
-0.41421356237297013
10
1383.517975491518
20
31.829493872880093
10
1362.5179754915198
20
31.829493872879961
42
-0.41421356237326501
10
1359.517975491518
20
34.829493872880107
10
1359.5179754915182
20
36.12949387288009
10
1268.0179754915105
20
36.129493872880133
10
1249.5179754915105
20
36.129493872880147
10
1215.4054708655199
20
36.129493872880147
10
1215.4054708655199
20
31.829493872880153
10
1196.9054708655199
20
31.829493872880164
10
1196.9054708655199
20
36.129493872880147
10
1158.0179754915248
20
36.129493872880168
10
1139.5179754915246
20
36.129493872880182
10
1048.0179754915171
20
36.129493872880225
10
1048.0179754915171
20
34.829493872880207
10
1053.1037619291442
20
34.829493872880221
10
1054.5179754915173
20
33.415280310507079
10
1054.5179754915173
20
32.829493872879766
42
-0.41421356237291945
10
1053.5179754915175
20
31.829493872880235
10
1032.5179754915173
20
31.829493872880228
42
-0.41421356237312495
10
1029.5179754915171
20
34.829493872880221
10
1029.5179754915171
20
36.129493872879877
10
988.32797549151792
20
36.129493872880246
10
986.59848161863795
20
36.129493872880062
10
973.39848161491261
20
36.12949387287987
42
-0.41421356237332657
10
972.3984816149117
20
37.129493872879884
10
972.39848161491159
20
153.62949387288006
42
-0.41421356237348006
10
973.39848161491261
20
154.62949387287992
10
986.59848161863795
20
154.62949387288009
10
988.3279754915178
20
154.62949387288023
10
989.32797549151769
20
154.62949387288023
42
0.41421356237309503
10
990.32797549151769
20
155.62949387288023
10
990.3279754915186
20
156.82949387288096
10
990.3279754915186
20
158.55898774576093
10
987.31797549151781
20
158.55898774576056
10
985.58848161863762
20
158.55898774576056
10
984.58848161863784
20
158.55898774576096
42
0.33333333333354964
10
983.62848161863758
20
157.83898774576025
42
-0.33333333333318704
10
982.18848161863775
20
156.75898774576103
10
865.88848161863723
20
156.75898774576027
42
-0.41421356237310542
10
864.88848161863734
20
157.75898774576024
10
864.88848161863734
20
267.70898774577222
42
-0.41421356237309503
10
865.88848161863723
20
268.70898774577222
10
867.6884816186373
20
268.70898774577267
42
0.99999999999999989
10
867.6884816186373
20
270.70898774577222
10
866.68848161863775
20
270.70898774577222
10
864.95898774575721
20
270.70898774577222
10
853.25898774575717
20
270.70898774577194
42
-0.41421356237326501
10
850.2589877457558
20
273.70898774577222
10
850.25898774575569
20
287.70898774577222
42
-0.41421356237318868
10
853.25898774575717
20
290.70898774577188
10
864.95898774575721
20
290.70898774577222
10
866.68848161863775
20
290.70898774577267
10
867.6884816186373
20
290.70898774577267
42
0.99999999999999989
10
867.68848161863787
20
292.70898774577222
10
865.88848161863723
20
292.70898774577233
42
-0.41421356237309503
10
864.88848161863734
20
293.70898774577228
10
864.88848161863734
20
409.50898774576103
42
-0.41421356237309503
10
865.88848161863723
20
410.50898774576103
10
982.18848161863775
20
410.50898774576115
42
-0.33333333333337223
10
983.62848161863792
20
409.42898774576099
42
0.33333333333330961
10
984.58848161863784
20
408.70898774576108
10
985.58848161863762
20
408.70898774576062
10
987.31797549151781
20
408.70898774576062
10
990.32797549151769
20
408.70898774576096
0
CIRCLE
5
485
100
AcDbEntity
8
0
100
AcDbCircle
10
1201.9054708655194
20
470.38848161864098
30
0
40
9.400000000372529
210
0
220
0
230
1
0
CIRCLE
5
486
100
AcDbEntity
8
0
100
AcDbCircle
10
1100.5179754915193
20
447.13848161864092
30
0
40
19.999999999999275
210
0
220
0
230
1
0
CIRCLE
5
487
100
AcDbEntity
8
0
100
AcDbCircle
10
979.4984816186377
20
424.63848162236661
30
0
40
3.4999999999999858
210
0
220
0
230
1
0
CIRCLE
5
488
100
AcDbEntity
8
0
100
AcDbCircle
10
979.49848161863758
20
516.13848161864132
30
0
40
3.5000000000000004
210
0
220
0
230
1
0
LWPOLYLINE
5
489
100
AcDbEntity
8
0
100
AcDbPolyline
90
12
70
1
43
0.0
10
1173.7679754913322
20
140.67949387362526
42
-0.4142135623730534
10
1178.7679754913315
20
135.67949387362512
10
1181.7373920223322
20
97.769942827114932
42
-0.03910460170133577
10
1181.737392022332
20
96.989044918645192
10
1178.7679754913313
20
59.079493872135096
42
-0.41421356237303469
10
1173.7679754913322
20
54.079493872135131
10
1135.3679754913314
20
54.079493872134989
42
-0.41421356237308304
10
1130.3679754913312
20
59.079493872134783
10
1127.398558960331
20
96.989044918645661
42
-0.039104601701305641
10
1127.398558960331
20
97.769942827114761
10
1130.3679754913314
20
135.6794938736254
42
-0.41421356237312001
10
1135.3679754913319
20
140.6794938736252
0
CIRCLE
5
490
100
AcDbEntity
8
0
100
AcDbCircle
10
1090.9679754907725
20
96.879493872880261
30
0
40
3.0000000000097202
210
0
220
0
230
1
0
CIRCLE
5
491
100
AcDbEntity
8
0
100
AcDbCircle
10
1183.7679754913315
20
54.079493872134975
30
0
40
2.9999999999975699
210
0
220
-0
230
1
0
CIRCLE
5
492
100
AcDbEntity
8
0
100
AcDbCircle
10
1183.7679754913315
20
140.67949387362529
30
0
40
3.0000000000072764
210
0
220
-0
230
1
0
CIRCLE
5
493
100
AcDbEntity
8
0
100
AcDbCircle
10
1125.3679754913314
20
140.67949387362535
30
0
40
3.0000000000121219
210
0
220
-0
230
1
0
CIRCLE
5
494
100
AcDbEntity
8
0
100
AcDbCircle
10
1125.3679754913314
20
54.079493872135167
30
0
40
3.000000000009706
210
0
220
-0
230
1
0
SPLINE
5
495
100
AcDbEntity
8
0
100
AcDbSpline
70
0
71
3
72
11
73
7
74
0
42
0.000000001
43
0.0000000001
44
0.0000000001
40
0
40
0
40
0
40
0
40
4.3123772523464599
40
4.3123772523464599
40
4.3123772523464599
40
5.4413502649683156
40
5.4413502649683156
40
5.4413502649683156
40
5.4413502649683156
10
1290.3501014689714
20
51.067685007000009
30
0
10
1291.1794685880002
20
51.046322049436611
30
0
10
1291.9750656725182
20
51.641193805610172
30
0
10
1292.2482820720757
20
52.426150958418916
30
0
10
1292.3198096596816
20
52.631651402774374
30
0
10
1292.3556948900577
20
52.850558141949122
30
0
10
1292.3501014689716
20
53.067685007000087
30
0
0
LINE
5
496
100
AcDbEntity
8
0
100
AcDbLine
10
1292.3501014689716
20
53.067685007000087
30
0
11
1292.3501014689714
21
125.0676991569517
31
0
0
SPLINE
5
497
100
AcDbEntity
8
0
100
AcDbSpline
70
0
71
3
72
11
73
7
74
0
42
0.000000001
43
0.0000000001
44
0.0000000001
40
0
40
0
40
0
40
0
40
4.3123772324517677
40
4.3123772324517677
40
4.3123772324517677
40
5.4413502642326383
40
5.4413502642326383
40
5.4413502642326383
40
5.4413502642326383
10
1292.3501014689714
20
125.06769915695168
30
0
10
1292.3714644263757
20
125.89706627215742
30
0
10
1291.7765926752556
20
126.69266335370864
30
0
10
1290.9916355280282
20
126.96587975642844
30
0
10
1290.7861350806984
20
127.03740734640587
30
0
10
1290.5672283377066
20
127.07329257814352
30
0
10
1290.3501014689714
20
127.06769915695169
30
0
0
LINE
5
498
100
AcDbEntity
8
0
100
AcDbLine
10
1290.3501014689714
20
127.0676991569517
30
0
11
1290.1651014689717
21
127.06769915695168
31
0
0
SPLINE
5
499
100
AcDbEntity
8
0
100
AcDbSpline
70
0
71
3
72
11
73
7
74
0
42
0.000000001
43
0.0000000001
44
0.0000000001
40
0
40
0
40
0
40
0
40
4.312377247717416
40
4.312377247717416
40
4.312377247717416
40
5.4413502650590706
40
5.4413502650590706
40
5.4413502650590706
40
5.4413502650590706
10
1290.1651014689717
20
127.0676991569517
30
0
10
1289.3357343508287
20
127.08906211440299
30
0
10
1288.5401372670631
20
126.49419035953458
30
0
10
1288.2669208667587
20
125.70923320807847
30
0
10
1288.1953932785816
20
125.5037327629974
30
0
10
1288.1595080478764
20
125.28482602291135
30
0
10
1288.1651014689714
20
125.06769915695176
30
0
0
LINE
5
500
100
AcDbEntity
8
0
100
AcDbLine
10
1288.1651014690008
20
53.067670857048448
30
0
11
1288.1651014689714
21
125.06769915695176
31
0
0
SPLINE
5
501
100
AcDbEntity
8
0
100
AcDbSpline
70
0
71
3
72
11
73
7
74
0
42
0.000000001
43
0.0000000001
44
0.0000000001
40
0
40
0
40
0
40
0
40
4.3123846620185482
40
4.3123846620185482
40
4.3123846620185482
40
5.4413257551516123
40
5.4413257551516123
40
5.4413257551516123
40
5.4413257551516123
10
1288.1651014690194
20
53.067670857048427
30
0
10
1288.1437445679453
20
52.238302150231192
30
0
10
1288.738623552098
20
51.442707733425408
30
0
10
1289.5235848808711
20
51.169498420176815
30
0
10
1289.7290802552466
20
51.097974832898167
30
0
10
1289.9479807397179
20
51.062091802969761
30
0
10
1290.1651014689717
20
51.06768500700003
30
0
0
LINE
5
502
100
AcDbEntity
8
0
100
AcDbLine
10
1290.3501014689714
20
51.067685007000009
30
0
11
1290.1651014689717
21
51.06768500700003
31
0
0
SPLINE
5
503
100
AcDbEntity
8
0
100
AcDbSpline
70
0
71
3
72
11
73
7
74
0
42
0.000000001
43
0.0000000001
44
0.0000000001
40
0
40
0
40
0
40
0
40
4.3123846664827781
40
4.3123846664827781
40
4.3123846664827781
40
5.4413257561156474
40
5.4413257561156474
40
5.4413257561156474
40
5.4413257561156474
10
1352.1651014690215
20
53.067670857048334
30
0
10
1352.1437445679351
20
52.238302149372309
30
0
10
1352.7386235529855
20
51.442707732165246
30
0
10
1353.5235848828056
20
51.169498419501934
30
0
10
1353.7290802566054
20
51.097974832672293
30
0
10
1353.9479807403907
20
51.062091802988519
30
0
10
1354.1651014689714
20
51.067685006999959
30
0
0
LINE
5
504
100
AcDbEntity
8
0
100
AcDbLine
10
1354.3501014689716
20
51.06768500699998
30
0
11
1354.1651014689714
21
51.067685006999959
31
0
0
SPLINE
5
505
100
AcDbEntity
8
0
100
AcDbSpline
70
0
71
3
72
11
73
7
74
0
42
0.000000001
43
0.0000000001
44
0.0000000001
40
0
40
0
40
0
40
0
40
4.3123772454420388
40
4.3123772454420388
40
4.3123772454420388
40
5.4413502640806453
40
5.4413502640806453
40
5.4413502640806453
40
5.4413502640806453
10
1354.3501014689716
20
51.067685006999987
30
0
10
1355.1794685866741
20
51.046322049491181
30
0
10
1355.9750656703714
20
51.641193804090534
30
0
10
1356.2482820709242
20
52.426150955095693
30
0
10
1356.3198096592864
20
52.631651400403186
30
0
10
1356.3556948900921
20
52.850558140792117
30
0
10
1356.3501014689714
20
53.067685007000087
30
0
0
LINE
5
506
100
AcDbEntity
8
0
100
AcDbLine
10
1356.3501014689714
20
53.067685007000087
30
0
11
1356.3501014689714
21
125.06769915695166
31
0
0
SPLINE
5
507
100
AcDbEntity
8
0
100
AcDbSpline
70
0
71
3
72
11
73
7
74
0
42
0.000000001
43
0.0000000001
44
0.0000000001
40
0
40
0
40
0
40
0
40
4.3123772362283024
40
4.3123772362283024
40
4.3123772362283024
40
5.4413502644282552
40
5.4413502644282552
40
5.4413502644282552
40
5.4413502644282552
10
1356.3501014689714
20
125.06769915695168
30
0
10
1356.3714644264696
20
125.89706627287993
30
0
10
1355.7765926743373
20
126.69266335496192
30
0
10
1354.9916355260941
20
126.96587975711076
30
0
10
1354.7861350793303
20
127.03740734664919
30
0
10
1354.5672283370172
20
127.07329257814055
30
0
10
1354.3501014689716
20
127.06769915695168
30
0
0
LINE
5
508
100
AcDbEntity
8
0
100
AcDbLine
10
1354.3501014689716
20
127.06769915695169
30
0
11
1354.1651014689714
21
127.06769915695165
31
0
0
SPLINE
5
509
100
AcDbEntity
8
0
100
AcDbSpline
70
0
71
3
72
11
73
7
74
0
42
0.000000001
43
0.0000000001
44
0.0000000001
40
0
40
0
40
0
40
0
40
4.3123772512051612
40
4.3123772512051612
40
4.3123772512051612
40
5.4413502650942958
40
5.4413502650942958
40
5.4413502650942958
40
5.4413502650942958
10
1354.1651014689714
20
127.0676991569517
30
0
10
1353.3357343501655
20
127.08906211458756
30
0
10
1352.540137265946
20
126.49419035877349
30
0
10
1352.2669208661216
20
125.70923320627246
30
0
10
1352.1953932783467
20
125.5037327617125
30
0
10
1352.159508047873
20
125.28482602224619
30
0
10
1352.1651014689724
20
125.06769915695182
30
0
0
LINE
5
510
100
AcDbEntity
8
0
100
AcDbLine
10
1352.1651014690215
20
53.067670857048334
30
0
11
1352.1651014689724
21
125.06769915695182
31
0
0
SPLINE
5
511
100
AcDbEntity
8
0
100
AcDbSpline
70
0
71
3
72
11
73
7
74
0
42
0.000000001
43
0.0000000001
44
0.0000000001
40
0
40
0
40
0
40
0
40
4.3123846735949023
40
4.3123846735949023
40
4.3123846735949023
40
5.4413257556283421
40
5.4413257556283421
40
5.4413257556283421
40
5.4413257556283421
10
1368.1651014690215
20
53.067670857048334
30
0
10
1368.1437445678218
20
52.238302148008515
30
0
10
1368.7386235552888
20
51.442707729327246
30
0
10
1369.5235848869911
20
51.169498418006434
30
0
10
1369.7290802595612
20
51.097974832127669
30
0
10
1369.9479807418552
20
51.062091802976923
30
0
10
1370.1651014689717
20
51.067685006999938
30
0
0
LINE
5
512
100
AcDbEntity
8
0
100
AcDbLine
10
1370.3501014689714
20
51.06768500699998
30
0
11
1370.1651014689717
21
51.067685006999938
31
0
0
SPLINE
5
513
100
AcDbEntity
8
0
100
AcDbSpline
70
0
71
3
72
11
73
7
74
0
42
0.000000001
43
0.0000000001
44
0.0000000001
40
0
40
0
40
0
40
0
40
4.3123772559048303
40
4.3123772559048303
40
4.3123772559048303
40
5.4413502655160686
40
5.4413502655160686
40
5.4413502655160686
40
5.4413502655160686
10
1370.3501014689714
20
51.067685006999987
30
0
10
1371.1794685886866
20
51.04632204945878
30
0
10
1371.9750656738074
20
51.641193806794618
30
0
10
1372.2482820727239
20
52.426150960148057
30
0
10
1372.3198096599119
20
52.631651403928537
30
0
10
1372.3556948900844
20
52.850558142530218
30
0
10
1372.3501014689714
20
53.067685007000087
30
0
0
LINE
5
514
100
AcDbEntity
8
0
100
AcDbLine
10
1372.3501014689714
20
53.067685007000087
30
0
11
1372.3501014689714
21
125.06769915695166
31
0
0
SPLINE
5
515
100
AcDbEntity
8
0
100
AcDbSpline
70
0
71
3
72
11
73
7
74
0
42
0.000000001
43
0.0000000001
44
0.0000000001
40
0
40
0
40
0
40
0
40
4.3123772403859562
40
4.3123772403859562
40
4.3123772403859562
40
5.4413502639739946
40
5.4413502639739946
40
5.4413502639739946
40
5.4413502639739946
10
1372.3501014689705
20
125.06769915695168
30
0
10
1372.3714644264223
20
125.89706627368251
30
0
10
1371.776592672948
20
126.69266335671938
30
0
10
1370.9916355234909
20
126.96587975801371
30
0
10
1370.7861350774467
20
127.0374073469673
30
0
10
1370.5672283361307
20
127.07329257811378
30
0
10
1370.3501014689714
20
127.06769915695168
30
0
0
LINE
5
516
100
AcDbEntity
8
0
100
AcDbLine
10
1370.3501014689714
20
127.06769915695169
30
0
11
1370.1651014689717
21
127.06769915695165
31
0
0
SPLINE
5
517
100
AcDbEntity
8
0
100
AcDbSpline
70
0
71
3
72
11
73
7
74
0
42
0.000000001
43
0.0000000001
44
0.0000000001
40
0
40
0
40
0
40
0
40
4.312377254103108
40
4.312377254103108
40
4.312377254103108
40
5.4413502647319962
40
5.4413502647319962
40
5.4413502647319962
40
5.4413502647319962
10
1370.1651014689717
20
127.0676991569517
30
0
10
1369.335734349602
20
127.08906211447174
30
0
10
1368.5401372644308
20
126.4941903573007
30
0
10
1368.2669208653933
20
125.70923320429564
30
0
10
1368.1953932780791
20
125.50373276033527
30
0
10
1368.1595080478546
20
125.28482602161743
30
0
10
1368.1651014689714
20
125.06769915695176
30
0
0
LINE
5
518
100
AcDbEntity
8
0
100
AcDbLine
10
1368.1651014690215
20
53.067670857048334
30
0
11
1368.1651014689714
21
125.06769915695176
31
0
0
SPLINE
5
519
100
AcDbEntity
8
0
100
AcDbSpline
70
0
71
3
72
11
73
7
74
0
42
0.000000001
43
0.0000000001
44
0.0000000001
40
9.8455689542825416e-13
40
9.8455689542825416e-13
40
9.8455689542825416e-13
40
9.8455689542825416e-13
40
4.3123772505124913
40
4.3123772505124913
40
4.3123772505124913
40
5.4413502651931527
40
5.4413502651931527
40
5.4413502651931527
40
5.4413502651931527
10
1338.1651014689714
20
127.06769915695162
30
0
10
1337.3357343502862
20
127.08906211433521
30
0
10
1336.5401372659087
20
126.49419035846869
30
0
10
1336.2669208661864
20
125.70923320652997
30
0
10
1336.1953932783767
20
125.5037327619401
30
0
10
1336.1595080478601
20
125.28482602239794
30
0
10
1336.1651014689714
20
125.06769915695162
30
0
0
LINE
5
520
100
AcDbEntity
8
0
100
AcDbLine
10
1336.1651014689714
20
53.067670857048341
30
0
11
1336.1651014689714
21
125.06769915695162
31
0
0
SPLINE
5
521
100
AcDbEntity
8
0
100
AcDbSpline
70
0
71
3
72
11
73
7
74
0
42
0.000000001
43
0.0000000001
44
0.0000000001
40
0
40
0
40
0
40
0
40
4.3123846789352616
40
4.3123846789352616
40
4.3123846789352616
40
5.4413257563009125
40
5.4413257563009125
40
5.4413257563009125
40
5.4413257563009125
10
1336.1651014690215
20
53.067670857048334
30
0
10
1336.1437445677675
20
52.238302146982889
30
0
10
1336.7386235565014
20
51.442707727652405
30
0
10
1337.5235848895527
20
51.169498417111981
30
0
10
1337.729080261372
20
51.097974831821816
30
0
10
1337.9479807427524
20
51.062091802998367
30
0
10
1338.1651014689714
20
51.067685006999959
30
0
0
LINE
5
522
100
AcDbEntity
8
0
100
AcDbLine
10
1338.3501014689714
20
51.067685006999994
30
0
11
1338.1651014689714
21
51.067685006999959
31
0
0
SPLINE
5
523
100
AcDbEntity
8
0
100
AcDbSpline
70
0
71
3
72
11
73
7
74
0
42
0.000000001
43
0.0000000001
44
0.0000000001
40
0
40
0
40
0
40
0
40
4.3123772484682155
40
4.3123772484682155
40
4.3123772484682155
40
5.4413502647033853
40
5.4413502647033853
40
5.4413502647033853
40
5.4413502647033853
10
1338.3501014689714
20
51.067685006999987
30
0
10
1339.1794685872615
20
51.046322049608939
30
0
10
1339.9750656714509
20
51.64119380502779
30
0
10
1340.2482820714413
20
52.426150956560932
30
0
10
1340.3198096594538
20
52.631651401424968
30
0
10
1340.3556948900737
20
52.850558141254055
30
0
10
1340.3501014689714
20
53.067685007000087
30
0
0
LINE
5
524
100
AcDbEntity
8
0
100
AcDbLine
10
1340.3501014689714
20
53.067685007000087
30
0
11
1340.3501014689714
21
125.06769915695162
31
0
0
SPLINE
5
525
100
AcDbEntity
8
0
100
AcDbSpline
70
0
71
3
72
11
73
7
74
0
42
0.000000001
43
0.0000000001
44
0.0000000001
40
0
40
0
40
0
40
0
40
4.3123772595628376
40
4.3123772595628376
40
4.3123772595628376
40
5.4413502653112822
40
5.4413502653112822
40
5.4413502653112822
40
5.4413502653112822
10
1340.3501014689714
20
125.06769915695162
30
0
10
1340.3714644263991
20
125.89706627737719
30
0
10
1339.7765926682205
20
126.69266336318239
30
0
10
1338.9916355136579
20
126.96587976141737
30
0
10
1338.7861350704384
20
127.03740734812169
30
0
10
1338.5672283327003
20
127.07329257799665
30
0
10
1338.3501014689714
20
127.06769915695165
30
0
0
LINE
5
526
100
AcDbEntity
8
0
100
AcDbLine
10
1338.3501014689714
20
127.06769915695168
30
0
11
1338.1651014689714
21
127.06769915695162
31
0
0
SPLINE
5
527
100
AcDbEntity
8
0
100
AcDbSpline
70
0
71
3
72
11
73
7
74
0
42
0.000000001
43
0.0000000001
44
0.0000000001
40
0
40
0
40
0
40
0
40
4.3123772515228627
40
4.3123772515228627
40
4.3123772515228627
40
5.4413502644422911
40
5.4413502644422911
40
5.4413502644422911
40
5.4413502644422911
10
1322.3501014689714
20
51.067685006999923
30
0
10
1323.1794685878469
20
51.046322049528342
30
0
10
1323.9750656726872
20
51.641193806031474
30
0
10
1324.248282072097
20
52.426150958390998
30
0
10
1324.3198096596966
20
52.631651402722269
30
0
10
1324.3556948900821
20
52.850558141892876
30
0
10
1324.3501014689716
20
53.067685006999987
30
0
0
LINE
5
528
100
AcDbEntity
8
0
100
AcDbLine
10
1324.3501014689716
20
53.067685006999987
30
0
11
1324.3501014689716
21
125.06769915695168
31
0
0
SPLINE
5
529
100
AcDbEntity
8
0
100
AcDbSpline
70
0
71
3
72
11
73
7
74
0
42
0.000000001
43
0.0000000001
44
0.0000000001
40
0
40
0
40
0
40
0
40
4.3123772492235073
40
4.3123772492235073
40
4.3123772492235073
40
5.4413502649260357
40
5.4413502649260357
40
5.4413502649260357
40
5.4413502649260357
10
1324.3501014689716
20
125.06769915695168
30
0
10
1324.3714644264376
20
125.89706627538413
30
0
10
1323.7765926706793
20
126.69266335967721
30
0
10
1322.9916355190794
20
126.96587975956535
30
0
10
1322.786135074331
20
127.03740734750463
30
0
10
1322.5672283346137
20
127.07329257808811
30
0
10
1322.3501014689716
20
127.06769915695173
30
0
0
LINE
5
530
100
AcDbEntity
8
0
100
AcDbLine
10
1322.3501014689716
20
127.06769915695175
30
0
11
1322.1651014689714
21
127.06769915695169
31
0
0
SPLINE
5
531
100
AcDbEntity
8
0
100
AcDbSpline
70
0
71
3
72
11
73
7
74
0
42
0.000000001
43
0.0000000001
44
0.0000000001
40
0
40
0
40
0
40
0
40
4.3123772592694039
40
4.3123772592694039
40
4.3123772592694039
40
5.4413502645344067
40
5.4413502645344067
40
5.4413502645344067
40
5.4413502645344067
10
1322.1651014689714
20
127.06769915695169
30
0
10
1321.3357343486134
20
127.08906211460018
30
0
10
1320.5401372627241
20
126.49419035623117
30
0
10
1320.266920864452
20
125.70923320150335
30
0
10
1320.1953932777635
20
125.50373275831453
30
0
10
1320.1595080479067
20
125.28482602058718
30
0
10
1320.1651014689717
20
125.06769915695173
30
0
0
LINE
5
532
100
AcDbEntity
8
0
100
AcDbLine
10
1320.165101469001
20
53.067670857048412
30
0
11
1320.1651014689717
21
125.06769915695173
31
0
0
SPLINE
5
533
100
AcDbEntity
8
0
100
AcDbSpline
70
0
71
3
72
11
73
7
74
0
42
0.000000001
43
0.0000000001
44
0.0000000001
40
0
40
0
40
0
40
0
40
4.3123846752182668
40
4.3123846752182668
40
4.3123846752182668
40
5.4413257556630761
40
5.4413257556630761
40
5.4413257556630761
40
5.4413257556630761
10
1320.1651014690194
20
53.067670857048412
30
0
10
1320.1437445677839
20
52.238302147697937
30
0
10
1320.7386235556473
20
51.442707728797529
30
0
10
1321.5235848878353
20
51.169498417712596
30
0
10
1321.729080260166
20
51.097974832023155
30
0
10
1321.9479807421601
20
51.062091802981982
30
0
10
1322.1651014689714
20
51.067685006999966
30
0
0
LINE
5
534
100
AcDbEntity
8
0
100
AcDbLine
10
1322.3501014689714
20
51.067685006999923
30
0
11
1322.1651014689714
21
51.067685006999966
31
0
0
SPLINE
5
535
100
AcDbEntity
8
0
100
AcDbSpline
70
0
71
3
72
11
73
7
74
0
42
0.000000001
43
0.0000000001
44
0.0000000001
40
4.910896809326385e-13
40
4.910896809326385e-13
40
4.910896809326385e-13
40
4.910896809326385e-13
40
4.3123772475670163
40
4.3123772475670163
40
4.3123772475670163
40
5.4413502647744449
40
5.4413502647744449
40
5.4413502647744449
40
5.4413502647744449
10
1306.3501014689714
20
51.067685007000009
30
0
10
1307.1794685870871
20
51.046322049578031
30
0
10
1307.975065671111
20
51.641193804812929
30
0
10
1308.2482820712726
20
52.426150956025161
30
0
10
1308.3198096594062
20
52.631651401025117
30
0
10
1308.3556948901014
20
52.850558141068149
30
0
10
1308.3501014689714
20
53.067685007000058
30
0
0
LINE
5
536
100
AcDbEntity
8
0
100
AcDbLine
10
1308.3501014689714
20
53.067685007000058
30
0
11
1308.3501014689716
21
125.0676991569517
31
0
0
SPLINE
5
537
100
AcDbEntity
8
0
100
AcDbSpline
70
0
71
3
72
11
73
7
74
0
42
0.000000001
43
0.0000000001
44
0.0000000001
40
0
40
0
40
0
40
0
40
4.3123772440919641
40
4.3123772440919641
40
4.3123772440919641
40
5.4413502649797545
40
5.4413502649797545
40
5.4413502649797545
40
5.4413502649797545
10
1308.3501014689714
20
125.06769915695168
30
0
10
1308.3714644264742
20
125.89706627439382
30
0
10
1307.7765926725217
20
126.69266335754158
30
0
10
1306.9916355221053
20
126.96587975848082
30
0
10
1306.7861350764783
20
127.0374073471089
30
0
10
1306.5672283356125
20
127.07329257808225
30
0
10
1306.3501014689714
20
127.06769915695169
30
0
0
LINE
5
538
100
AcDbEntity
8
0
100
AcDbLine
10
1306.3501014689714
20
127.0676991569517
30
0
11
1306.1651014689714
21
127.06769915695168
31
0
0
SPLINE
5
539
100
AcDbEntity
8
0
100
AcDbSpline
70
0
71
3
72
11
73
7
74
0
42
0.000000001
43
0.0000000001
44
0.0000000001
40
0
40
0
40
0
40
0
40
4.3123772527377255
40
4.3123772527377255
40
4.3123772527377255
40
5.4413502648092695
40
5.4413502648092695
40
5.4413502648092695
40
5.4413502648092695
10
1306.1651014689714
20
127.0676991569517
30
0
10
1305.3357343498619
20
127.08906211440527
30
0
10
1304.5401372650344
20
126.49419035787503
30
0
10
1304.2669208657187
20
125.70923320513575
30
0
10
1304.1953932782178
20
125.5037327609173
30
0
10
1304.1595080478896
20
125.28482602189713
30
0
10
1304.1651014689714
20
125.06769915695176
30
0
0
LINE
5
540
100
AcDbEntity
8
0
100
AcDbLine
10
1304.165101469001
20
53.067670857048448
30
0
11
1304.1651014689714
21
125.06769915695176
31
0
0
SPLINE
5
541
100
AcDbEntity
8
0
100
AcDbSpline
70
0
71
3
72
11
73
7
74
0
42
0.000000001
43
0.0000000001
44
0.0000000001
40
0
40
0
40
0
40
0
40
4.3123846705221256
40
4.3123846705221256
40
4.3123846705221256
40
5.4413257552307446
40
5.4413257552307446
40
5.4413257552307446
40
5.4413257552307446
10
1304.1651014690194
20
53.067670857048427
30
0
10
1304.1437445678209
20
52.238302148600368
30
0
10
1304.738623554613
20
51.442707730280219
30
0
10
1305.5235848855245
20
51.169498418513548
30
0
10
1305.7290802585208
20
51.097974832297616
30
0
10
1305.9479807413402
20
51.062091802958918
30
0
10
1306.1651014689714
20
51.067685007000009
30
0
0
LINE
5
542
100
AcDbEntity
8
0
100
AcDbLine
10
1306.3501014689714
20
51.067685007000009
30
0
11
1306.1651014689714
21
51.067685007000009
31
0
0
CIRCLE
5
543
100
AcDbEntity
8
0
100
AcDbCircle
10
979.49848161863702
20
142.62949387288012
30
0
40
3.4999999999999858
210
0
220
0
230
1
0
CIRCLE
5
544
100
AcDbEntity
8
0
100
AcDbCircle
10
979.49848161863679
20
51.129493872879863
30
0
40
3.5000000000000004
210
0
220
0
230
1
0
CIRCLE
5
545
100
AcDbEntity
8
0
100
AcDbCircle
10
1363.5179665417986
20
364.25898774576063
30
0
40
3.9999999999997726
210
0
220
-0
230
1
0
SPLINE
5
546
100
AcDbEntity
8
0
100
AcDbSpline
70
0
71
3
72
20
73
16
74
0
42
0.000000001
43
0.0000000001
44
0.0000000001
40
4.7687455858499816e-13
40
4.7687455858499816e-13
40
4.7687455858499816e-13
40
4.7687455858499816e-13
40
3.757729447441204
40
3.757729447441204
40
3.757729447441204
40
4.1134948944001408
40
4.1134948944001408
40
4.1134948944001408
40
5.4994457628269533
40
5.4994457628269533
40
5.4994457628269533
40
8.3787342819295514
40
8.3787342819295514
40
8.3787342819295514
40
9.6162992259889659
40
9.6162992259889659
40
9.6162992259889659
40
9.6162992259889659
10
1293.0099341096741
20
354.35453828276076
30
0
10
1292.9898048388193
20
355.21759104135606
30
0
10
1293.6015840300056
20
356.03457719838786
30
0
10
1294.4018978189824
20
356.32775945367325
30
0
10
1294.4776680405553
20
356.35551667184211
30
0
10
1294.5549236694842
20
356.37872069069147
30
0
10
1294.6332050546248
20
356.3971130301029
30
0
10
1294.9381648382264
20
356.46876382980099
30
0
10
1295.2642495850573
20
356.46883812267498
30
0
10
1295.5705925265454
20
356.39670982977134
30
0
10
1296.2070145920234
20
356.24686457162335
30
0
10
1296.7582363325548
20
355.78855110636226
30
0
10
1297.0273387153861
20
355.18030502635889
30
0
10
1297.1430032877779
20
354.91887098771366
30
0
10
1297.2010205763854
20
354.62339538843452
30
0
10
1297.1945349397574
20
354.35453828277412
30
0
0
LINE
5
547
100
AcDbEntity
8
0
100
AcDbLine
10
1297.1945349397574
20
354.35453828277417
30
0
11
1297.1945349397197
21
246.9533847187611
31
0
0
SPLINE
5
548
100
AcDbEntity
8
0
100
AcDbSpline
70
0
71
3
72
14
73
10
74
0
42
0.000000001
43
0.0000000001
44
0.0000000001
40
0
40
0
40
0
40
0
40
4.1214161851572824
40
4.1214161851572824
40
4.1214161851572824
40
5.4948859002159622
40
5.4948859002159622
40
5.4948859002159622
40
9.6162992257607112
40
9.6162992257607112
40
9.6162992257607112
40
9.6162992257607112
10
1297.1945349397588
20
246.95338471876028
30
0
10
1297.2170131548087
20
245.98961977967946
30
0
10
1296.4879264870674
20
245.12618132251092
30
0
10
1295.5712639948115
20
244.91080997141785
30
0
10
1295.2657844908058
20
244.83903706256118
30
0
10
1294.9394540742221
20
244.83926508957734
30
0
10
1294.6338765228918
20
244.91121317175009
30
0
10
1293.7169204529969
20
245.12711002143152
30
0
10
1292.9866598895442
20
245.98856972502747
30
0
10
1293.0099341096741
20
246.95338471874692
30
0
0
LINE
5
549
100
AcDbEntity
8
0
100
AcDbLine
10
1293.0099341096741
20
246.95338471874692
30
0
11
1293.0099341096741
21
354.35453828276076
31
0
0
SPLINE
5
550
100
AcDbEntity
8
0
100
AcDbSpline
70
0
71
3
72
20
73
16
74
0
42
0.000000001
43
0.0000000001
44
0.0000000001
40
4.0873320790532866e-13
40
4.0873320790532866e-13
40
4.0873320790532866e-13
40
4.0873320790532866e-13
40
0.68358129705849324
40
0.68358129705849324
40
0.68358129705849324
40
4.1292111732214734
40
4.1292111732214734
40
4.1292111732214734
40
7.3822420618591531
40
7.3822420618591531
40
7.3822420618591531
40
8.285975196006552
40
8.285975196006552
40
8.285975196006552
40
9.6162992245415637
40
9.6162992245415637
40
9.6162992245415637
40
9.6162992245415637
10
1316.6196905793799
20
354.35453828276059
30
0
10
1316.6299178153065
20
354.5134922072088
30
0
10
1316.6407340723706
20
354.66968835497573
30
0
10
1316.6716374057817
20
354.82083560993289
30
0
10
1316.8274073914909
20
355.58270182777954
30
0
10
1317.4795294113892
20
356.22567591683548
30
0
10
1318.247895986992
20
356.39951522765671
30
0
10
1318.9733134851176
20
356.56363751243049
30
0
10
1319.7645043396583
20
356.29132657814978
30
0
10
1320.2588620377669
20
355.76727955754455
30
0
10
1320.3962008602975
20
355.62169266563205
30
0
10
1320.5128257617801
20
355.45498173272881
30
0
10
1320.6002656698633
20
355.26704478181966
30
0
10
1320.7289800064088
20
354.99039558948931
30
0
10
1320.7941652539848
20
354.66539108071629
30
0
10
1320.8042914094606
20
354.35453828277412
30
0
0
LINE
5
551
100
AcDbEntity
8
0
100
AcDbLine
10
1320.8042914094606
20
354.354538282774
30
0
11
1320.8042914095197
21
246.95338471876101
31
0
0
SPLINE
5
552
100
AcDbEntity
8
0
100
AcDbSpline
70
0
71
3
72
20
73
16
74
0
42
0.000000001
43
0.0000000001
44
0.0000000001
40
0
40
0
40
0
40
0
40
0.68358129739676954
40
0.68358129739676954
40
0.68358129739676954
40
4.1292111739814024
40
4.1292111739814024
40
4.1292111739814024
40
7.3822420599874512
40
7.3822420599874512
40
7.3822420599874512
40
8.2859751969249871
40
8.2859751969249871
40
8.2859751969249871
40
9.6162992254834538
40
9.6162992254834538
40
9.6162992254834538
40
9.6162992254834538
10
1320.804291409459
20
246.95338471876028
30
0
10
1320.7940641735283
20
246.79443079432727
30
0
10
1320.7832479164688
20
246.63823464655874
30
0
10
1320.7523445830566
20
246.48708739158792
30
0
10
1320.5965745974001
20
245.72522117395664
30
0
10
1319.9444525775414
20
245.08224708470635
30
0
10
1319.1760860018439
20
244.90840777386424
30
0
10
1318.450668504305
20
244.7442854892235
30
0
10
1317.6594776504444
20
245.01659642297778
30
0
10
1317.1651199523176
20
245.54064344265757
30
0
10
1317.0277811292467
20
245.68623033488024
30
0
10
1316.9111562273256
20
245.85294126822217
30
0
10
1316.8237163189765
20
246.04087821970143
30
0
10
1316.6950019824342
20
246.31752741202172
30
0
10
1316.6298167348514
20
246.64253192079113
30
0
10
1316.6196905793802
20
246.95338471874692
30
0
0
LINE
5
553
100
AcDbEntity
8
0
100
AcDbLine
10
1316.6196905793802
20
246.95338471874692
30
0
11
1316.6196905793799
21
354.35453828276059
31
0
0
SPLINE
5
554
100
AcDbEntity
8
0
100
AcDbSpline
70
0
71
3
72
14
73
10
74
0
42
0.000000001
43
0.0000000001
44
0.0000000001
40
1.835713543979479e-13
40
1.835713543979479e-13
40
1.835713543979479e-13
40
1.835713543979479e-13
40
4.121416184896014
40
4.121416184896014
40
4.121416184896014
40
5.4948859001272821
40
5.4948859001272821
40
5.4948859001272821
40
9.6162992260029405
40
9.6162992260029405
40
9.6162992260029405
40
9.6162992260029405
10
1340.2294470491775
20
354.3545382827607
30
0
10
1340.2069688341246
20
355.31830322211755
30
0
10
1340.9360555020285
20
356.18174167904658
30
0
10
1341.8527179941257
20
356.39711303010301
30
0
10
1342.1581974981361
20
356.46888593896097
30
0
10
1342.484527914711
20
356.46865791194477
30
0
10
1342.7901054660451
20
356.39670982977128
30
0
10
1343.7070615359105
20
356.18081298009724
30
0
10
1344.4373220993971
20
355.3193532765311
30
0
10
1344.4140478792576
20
354.35453828277412
30
0
0
LINE
5
555
100
AcDbEntity
8
0
100
AcDbLine
10
1344.4140478792576
20
354.35453828277412
30
0
11
1344.4140478792199
21
246.95338471876101
31
0
0
SPLINE
5
556
100
AcDbEntity
8
0
100
AcDbSpline
70
0
71
3
72
14
73
10
74
0
42
0.000000001
43
0.0000000001
44
0.0000000001
40
0
40
0
40
0
40
0
40
4.1206181990995523
40
4.1206181990995523
40
4.1206181990995523
40
5.4940845802373248
40
5.4940845802373248
40
5.4940845802373248
40
9.616299225461832
40
9.616299225461832
40
9.616299225461832
40
9.616299225461832
10
1344.4140478792583
20
246.95338471876028
30
0
10
1344.436547108417
20
245.98871878907985
30
0
10
1343.7078899398466
20
245.12628717134248
30
0
10
1342.7907769343117
20
244.91080997141776
30
0
10
1342.4850888506453
20
244.83898805642866
30
0
10
1342.1587581989377
20
244.83931425491451
30
0
10
1341.8533894623931
20
244.91121317175001
30
0
10
1340.93687960437
20
245.12700496106885
30
0
10
1340.2061945356886
20
245.98946955740942
30
0
10
1340.2294470491775
20
246.95338471874692
30
0
0
LINE
5
557
100
AcDbEntity
8
0
100
AcDbLine
10
1340.2294470491775
20
246.95338471874692
30
0
11
1340.2294470491775
21
354.3545382827607
31
0
0
LINE
5
558
100
AcDbEntity
8
0
100
AcDbLine
10
1363.8392035188776
20
246.95338471874754
30
0
11
1363.8392035188776
21
354.35453828276093
31
0
0
SPLINE
5
559
100
AcDbEntity
8
0
100
AcDbSpline
70
0
71
3
72
20
73
16
74
0
42
0.000000001
43
0.0000000001
44
0.0000000001
40
5.3322210909112542e-13
40
5.3322210909112542e-13
40
5.3322210909112542e-13
40
5.3322210909112542e-13
40
1.3310208992704902
40
1.3310208992704902
40
1.3310208992704902
40
4.9037698007224577
40
4.9037698007224577
40
4.9037698007224577
40
5.4879195133902003
40
5.4879195133902003
40
5.4879195133902003
40
8.9332080566160208
40
8.9332080566160208
40
8.9332080566160208
40
9.6162992255229565
40
9.6162992255229565
40
9.6162992255229565
40
9.6162992255229565
10
1363.8392035188776
20
354.3545382827607
30
0
10
1363.8493242158765
20
354.66522351649786
30
0
10
1363.9144579879226
20
354.99027321969083
30
0
10
1364.0432292584769
20
355.26704478181699
30
0
10
1364.3888792897151
20
356.00995970905979
30
0
10
1365.1775520512977
20
356.45953030324858
30
0
10
1365.9974139048445
20
356.44658529611951
30
0
10
1366.1314625266164
20
356.44446876836918
30
0
10
1366.2652432936136
20
356.4290075776392
30
0
10
1366.3955989413432
20
356.39951522765608
30
0
10
1367.1644306465191
20
356.22557068346481
30
0
10
1367.8160359078279
20
355.58295434377078
30
0
10
1367.9718575225565
20
354.82083560993294
30
0
10
1368.0027519941257
20
354.66973169796404
30
0
10
1368.0135738422325
20
354.51354304260968
30
0
10
1368.0238043489524
20
354.35453828286597
30
0
0
LINE
5
560
100
AcDbEntity
8
0
100
AcDbLine
10
1368.0238043489524
20
354.35453828286597
30
0
11
1368.0238043489578
21
246.95338471876033
31
0
0
SPLINE
5
561
100
AcDbEntity
8
0
100
AcDbSpline
70
0
71
3
72
20
73
16
74
0
42
0.000000001
43
0.0000000001
44
0.0000000001
40
0
40
0
40
0
40
0
40
0.68358129723084304
40
0.68358129723084304
40
0.68358129723084304
40
4.1292111737786543
40
4.1292111737786543
40
4.1292111737786543
40
7.3822420717170694
40
7.3822420717170694
40
7.3822420717170694
40
8.2859751967364517
40
8.2859751967364517
40
8.2859751967364517
40
9.6162992255033917
40
9.6162992255033917
40
9.6162992255033917
40
9.6162992255033917
10
1368.023804348958
20
246.95338471876033
30
0
10
1368.0135771130285
20
246.79443079432048
30
0
10
1368.0027608559678
20
246.63823464655241
30
0
10
1367.971857522557
20
246.48708739158786
30
0
10
1367.8160875368701
20
245.72522117381112
30
0
10
1367.1639655169108
20
245.08224708467702
30
0
10
1366.3955989413439
20
244.90840777386421
30
0
10
1365.6701814412586
20
244.74428548864745
30
0
10
1364.8789905844683
20
245.01659642468883
30
0
10
1364.3846328864283
20
245.5406434483719
30
0
10
1364.2472940656965
20
245.68623033925277
30
0
10
1364.1306691656748
20
245.85294127069494
30
0
10
1364.0432292584751
20
246.04087821970123
30
0
10
1363.9145149219084
20
246.31752741207299
30
0
10
1363.8493296743454
20
246.64253192085911
30
0
10
1363.8392035188772
20
246.95338471874686
30
0
0
LINE
5
562
100
AcDbEntity
8
0
100
AcDbLine
10
1269.40017763948
20
246.95338471874754
30
0
11
1269.40017763948
21
354.35453828276104
31
0
0
SPLINE
5
563
100
AcDbEntity
8
0
100
AcDbSpline
70
0
71
3
72
14
73
10
74
0
42
0.000000001
43
0.0000000001
44
0.0000000001
40
6.7007560858421493e-13
40
6.7007560858421493e-13
40
6.7007560858421493e-13
40
6.7007560858421493e-13
40
4.1206181994275592
40
4.1206181994275592
40
4.1206181994275592
40
5.4940845802652127
40
5.4940845802652127
40
5.4940845802652127
40
9.6162992254238517
40
9.6162992254238517
40
9.6162992254238517
40
9.6162992254238517
10
1269.4001776394798
20
354.3545382827607
30
0
10
1269.3776784103238
20
355.31920421230035
30
0
10
1270.1063355786832
20
356.18163583012978
30
0
10
1271.0234485844262
20
356.39711303010336
30
0
10
1271.3291366680714
20
356.46893494508731
30
0
10
1271.655467319815
20
356.46860874660348
30
0
10
1271.9608360563454
20
356.39670982977117
30
0
10
1272.8773459145132
20
356.18091804041819
30
0
10
1273.6080309830447
20
355.31845344410158
30
0
10
1273.5847784695873
20
354.35453828277412
30
0
0
LINE
5
564
100
AcDbEntity
8
0
100
AcDbLine
10
1273.5847784695873
20
354.35453828277412
30
0
11
1273.5847784705195
21
246.95338471876042
31
0
0
SPLINE
5
565
100
AcDbEntity
8
0
100
AcDbSpline
70
0
71
3
72
20
73
16
74
0
42
0.000000001
43
0.0000000001
44
0.0000000001
40
0
40
0
40
0
40
0
40
3.7577294244024406
40
3.7577294244024406
40
3.7577294244024406
40
4.1134948937553544
40
4.1134948937553544
40
4.1134948937553544
40
5.499445762232348
40
5.499445762232348
40
5.499445762232348
40
8.3787342830359766
40
8.3787342830359766
40
8.3787342830359766
40
9.6162992258766931
40
9.6162992258766931
40
9.6162992258766931
40
9.6162992258766931
10
1273.5847784695593
20
246.9533847187603
30
0
10
1273.6049077402895
20
246.090331965676
30
0
10
1272.9931285567247
20
245.27334581265598
30
0
10
1272.1928147745762
20
244.98016355309343
30
0
10
1272.1170445484158
20
244.95240633260227
30
0
10
1272.0397889146846
20
244.92920231198764
30
0
10
1271.9615075246134
20
244.9108099714179
30
0
10
1271.6565477409895
20
244.83915917171461
30
0
10
1271.3304629941656
20
244.83908487884969
30
0
10
1271.0241200526921
20
244.91121317175001
30
0
10
1270.3876979868915
20
245.06105842997431
30
0
10
1269.8364762461633
20
245.51937189557862
30
0
10
1269.5673738634728
20
246.12761797601922
30
0
10
1269.4517092913238
20
246.38905201444047
30
0
10
1269.3936920028586
20
246.68452761334237
30
0
10
1269.40017763948
20
246.95338471874692
30
0
0
LINE
5
566
100
AcDbEntity
8
0
100
AcDbLine
10
1249.9750220005576
20
354.35453828277446
30
0
11
1249.9750220005194
21
246.9533847187611
31
0
0
SPLINE
5
567
100
AcDbEntity
8
0
100
AcDbSpline
70
0
71
3
72
14
73
10
74
0
42
0.000000001
43
0.0000000001
44
0.0000000001
40
0
40
0
40
0
40
0
40
4.1214161843973507
40
4.1214161843973507
40
4.1214161843973507
40
5.4948858994345224
40
5.4948858994345224
40
5.4948858994345224
40
9.6162992254802866
40
9.6162992254802866
40
9.6162992254802866
40
9.6162992254802866
10
1249.9750220005587
20
246.9533847187603
30
0
10
1249.9975002156057
20
245.98961977972581
30
0
10
1249.2684135477602
20
245.12618132248588
30
0
10
1248.3517510556123
20
244.9108099714179
30
0
10
1248.046271551591
20
244.83903706255748
30
0
10
1247.7199411350221
20
244.83926508957762
30
0
10
1247.4143635836931
20
244.91121317175003
30
0
10
1246.4974075136754
20
245.12711002146023
30
0
10
1245.7671469503491
20
245.98856972534315
30
0
10
1245.7904211704799
20
246.95338471874692
30
0
0
LINE
5
568
100
AcDbEntity
8
0
100
AcDbLine
10
1245.7904211704799
20
246.95338471874692
30
0
11
1245.7904211704799
21
354.35453828276076
31
0
0
SPLINE
5
569
100
AcDbEntity
8
0
100
AcDbSpline
70
0
71
3
72
14
73
10
74
0
42
0.000000001
43
0.0000000001
44
0.0000000001
40
0
40
0
40
0
40
0
40
4.1214370037107724
40
4.1214370037107724
40
4.1214370037107724
40
5.494903342562778
40
5.494903342562778
40
5.494903342562778
40
9.616299225488314
40
9.616299225488314
40
9.616299225488314
40
9.616299225488314
10
1245.7904211704799
20
354.35453828276076
30
0
10
1245.7671463577085
20
355.31937784360696
30
0
10
1246.4974098984922
20
356.1808135415647
30
0
10
1247.4143635836922
20
356.39670982977094
30
0
10
1247.7199378335897
20
356.4686571346229
30
0
10
1248.046268804575
20
356.46888658437933
30
0
10
1248.351751055611
20
356.3971130301033
30
0
10
1249.2684195287384
20
356.18174027379439
30
0
10
1249.9974996881188
20
355.31828060536265
30
0
10
1249.9750220005576
20
354.35453828277412
30
0
0
CIRCLE
5
570
100
AcDbEntity
8
0
100
AcDbCircle
10
926.13848161863757
20
203.75898774576027
30
0
40
10.800000000001319
210
0
220
-0
230
1
0
CIRCLE
5
571
100
AcDbEntity
8
0
100
AcDbCircle
10
879.88848161863734
20
165.65898774576033
30
0
40
3.0000000000000004
210
0
220
-0
230
1
0
CIRCLE
5
572
100
AcDbEntity
8
0
100
AcDbCircle
10
971.38848161863791
20
165.65898774576016
30
0
40
3.0000000000000004
210
0
220
0
230
1
0
CIRCLE
5
573
100
AcDbEntity
8
0
100
AcDbCircle
10
971.38848161491251
20
401.60898774576106
30
0
40
3.0000000000000004
210
0
220
0
230
1
0
CIRCLE
5
574
100
AcDbEntity
8
0
100
AcDbCircle
10
879.88848161863746
20
401.60898774576094
30
0
40
3.0000000000000004
210
0
220
0
230
1
0
LWPOLYLINE
5
575
100
AcDbEntity
8
0
100
AcDbPolyline
90
6
70
1
43
0.0
10
855.06900069183871
20
278.57857256145007
10
858.75899360115841
20
276.44815768688369
10
862.44898055085378
20
278.57857264591792
10
862.44898360293996
20
282.83940768249158
10
858.75898569344577
20
284.96983154763728
10
855.06899929559904
20
282.83941690792028
0
ENDSEC
0
SECTION
2
OBJECTS
0
DICTIONARY
5
C
100
AcDbDictionary
3
ACAD_GROUP
350
D
3
ACAD_MLINESTYLE
350
17
0
DICTIONARY
5
D
100
AcDbDictionary
0
DICTIONARY
5
1A
330
C
100
AcDbDictionary
0
DICTIONARY
5
17
100
AcDbDictionary
0
ENDSEC
0
EOF
