0
SECTION
2
HEADER
9
$INSUNITS
70
4
9
$ACADVER
1
AC1014
9
$HANDSEED
5
FFFF
0
ENDSEC
0
SECTION
2
TABLES
0
TABLE
2
VPORT
5
8
100
AcDbSymbolTable
0
ENDTAB
0
TABLE
2
LTYPE
5
5
100
AcDbSymbolTable
0
LTYPE
5
14
100
AcDbSymbolTableRecord
100
AcDbLinetypeTableRecord
2
BYBLOCK
70
0
0
LTYPE
5
15
100
AcDbSymbolTableRecord
100
AcDbLinetypeTableRecord
2
BYLAYER
70
0
0
ENDTAB
0
TABLE
2
LAYER
5
2
100
AcDbSymbolTable
70
2
0
LAYER
5
50
100
AcDbSymbolTableRecord
100
AcDbLayerTableRecord
2
0
70
0
6
CONTINUOUS
0
ENDTAB
0
TABLE
2
STYLE
5
3
100
AcDbSymbolTable
70
1
0
STYLE
5
11
100
AcDbSymbolTableRecord
100
AcDbTextStyleTableRecord
2
STANDARD
70
0
0
ENDTAB
0
TABLE
2
VIEW
5
6
100
AcDbSymbolTable
70
0
0
ENDTAB
0
TABLE
2
UCS
5
7
100
AcDbSymbolTable
70
0
0
ENDTAB
0
TABLE
2
APPID
5
9
100
AcDbSymbolTable
70
2
0
APPID
5
12
100
AcDbSymbolTableRecord
100
AcDbRegAppTableRecord
2
ACAD
70
0
0
ENDTAB
0
TABLE
2
DIMSTYLE
5
A
100
AcDbSymbolTable
70
1
0
ENDTAB
0
TABLE
2
BLOCK_RECORD
5
1
100
AcDbSymbolTable
70
1
0
BLOCK_RECORD
5
1F
100
AcDbSymbolTableRecord
100
AcDbBlockTableRecord
2
*MODEL_SPACE
0
BLOCK_RECORD
5
1B
100
AcDbSymbolTableRecord
100
AcDbBlockTableRecord
2
*PAPER_SPACE
0
ENDTAB
0
ENDSEC
0
SECTION
2
BLOCKS
0
BLOCK
5
20
100
AcDbEntity
100
AcDbBlockBegin
2
*MODEL_SPACE
0
ENDBLK
5
21
100
AcDbEntity
100
AcDbBlockEnd
0
BLOCK
5
1C
100
AcDbEntity
100
AcDbBlockBegin
2
*PAPER_SPACE
0
ENDBLK
5
1D
100
AcDbEntity
100
AcDbBlockEnd
0
ENDSEC
0
SECTION
2
ENTITIES
0
LINE
5
100
100
AcDbEntity
8
0
100
AcDbLine
10
110.77397351498678
20
91.570753581557
30
0
11
103.34836788403969
21
83.754377658141664
31
0
0
LINE
5
101
100
AcDbEntity
8
0
100
AcDbLine
10
103.34836788403969
20
83.754377658141664
30
0
11
101.85624720844206
21
85.171901559158059
31
0
0
LINE
5
102
100
AcDbEntity
8
0
100
AcDbLine
10
101.85624720844206
20
85.171901559158059
30
0
11
107.19844582472804
21
90.795231792104275
31
0
0
SPLINE
5
103
100
AcDbEntity
8
0
100
AcDbSpline
70
0
71
3
72
9
73
5
74
0
42
0.000000001
43
0.0000000001
44
0.0000000001
40
0
40
0
40
0
40
0
40
0.15333287375923751
40
0.31011671084778569
40
0.31011671084778569
40
0.31011671084778569
40
0.31011671084778569
10
107.19844582472804
20
90.795231792104261
30
0
10
106.68467654004394
20
90.828713526136369
30
0
10
105.64557489931532
20
90.89643054582659
30
0
10
104.6830345519527
20
91.294249387481841
30
0
10
104.19640882772296
20
91.495372262448242
30
0
0
LINE
5
104
100
AcDbEntity
8
0
100
AcDbLine
10
104.19640882772296
20
91.495372262448242
30
0
11
105.48277393362751
21
92.849431950268141
31
0
0
SPLINE
5
105
100
AcDbEntity
8
0
100
AcDbSpline
70
0
71
3
72
9
73
5
74
0
42
0.000000001
43
0.0000000001
44
0.0000000001
40
0
40
0
40
0
40
0
40
0.092310084654538632
40
0.20231293332005096
40
0.20231293332005096
40
0.20231293332005096
40
0.20231293332005096
10
105.48277393362751
20
92.849431950268155
30
0
10
105.7706002083448
20
92.737174391793872
30
0
10
106.40141945352869
20
92.49114324549744
30
0
10
107.07449037355173
20
92.411761870629363
30
0
10
107.44045668792137
20
92.368600134880822
30
0
0
SPLINE
5
106
100
AcDbEntity
8
0
100
AcDbSpline
70
0
71
3
72
9
73
5
74
0
42
0.000000001
43
0.0000000001
44
0.0000000001
40
0
40
0
40
0
40
0
40
0.11270810935552886
40
0.21742062626120065
40
0.21742062626120065
40
0.21742062626120065
40
0.21742062626120065
10
107.44045668792137
20
92.368600134880822
30
0
10
107.82072986460706
20
92.35097917592752
30
0
10
108.55429937170024
20
92.316987301226987
30
0
10
109.23530429116333
20
92.589614584038372
30
0
10
109.56328485293604
20
92.72091532330694
30
0
0
LINE
5
107
100
AcDbEntity
8
0
100
AcDbLine
10
109.56328485293604
20
92.720915323306926
30
0
11
110.77397351498678
21
91.570753581557
31
0
0
LWPOLYLINE
5
108
100
AcDbEntity
8
0
100
AcDbPolyline
90
13
70
1
43
0.0
10
108.90797766108848
20
78.472713870368821
10
110.36823810873742
20
77.085457383608997
10
116.18967078408588
20
83.213241225743033
10
111.9081491262581
20
75.622532361207746
10
113.42150995382154
20
74.184830184020299
10
120.78816368468213
20
78.844644434710304
10
114.96673100933366
20
72.716860592576268
10
116.42699145698258
20
71.329604105816458
10
123.8223296736731
20
79.114119801283081
10
121.46467280546902
20
81.353908456269835
10
115.02356377095452
20
77.370592123065876
10
118.65566270799164
20
84.022485479891444
10
116.30331587777901
20
86.257229565835445
0
LWPOLYLINE
5
109
100
AcDbEntity
8
0
100
AcDbPolyline
90
10
70
1
43
0.0
10
120.33745711867772
20
90.7375175261962
42
-0.99999999999999989
10
122.33174612656657
20
93.613767054774101
42
-0.076904766290536233
10
140.84467124055348
20
76.026373316467868
10
142.31564171198551
20
77.16217348825451
42
-0.57735026919210775
10
143.51729446105159
20
76.668685220162132
10
144.48092222641657
20
69.516429996061305
42
-0.57735026918962984
10
143.45272248721724
20
68.722512332138578
10
136.77687388611349
20
71.464113819590878
42
-0.57735026918713273
10
136.60342088822713
20
72.751519760788142
10
138.07439135965924
20
73.887319932575068
42
0.076904766290375348
0
ARC
5
110
100
AcDbEntity
8
0
100
AcDbCircle
10
-2.2204460492503131e-15
20
5.5511151231257827e-16
30
0
40
35.000000000000007
210
-0
220
0
230
1
100
AcDbArc
50
-3.6122000387568414
51
3.6122000387568587
0
ARC
5
111
100
AcDbEntity
8
0
100
AcDbCircle
10
44.910600109422347
20
2.8351362950576044
30
0
40
9.9999999999999911
210
0
220
0
230
1
100
AcDbArc
50
120.00000000000004
51
183.61220003875704
0
LINE
5
112
100
AcDbEntity
8
0
100
AcDbLine
10
39.910600109422347
20
11.49539033290198
30
0
11
118.67794003593404
21
56.971735242824209
31
0
0
SPLINE
5
113
100
AcDbEntity
8
0
100
AcDbSpline
70
0
71
3
72
16
73
12
74
0
42
0.000000001
43
0.0000000001
44
0.0000000001
40
0
40
0
40
0
40
0
40
1.1328689728220884
40
1.1328689728220884
40
2.2657379456441786
40
2.2657379456441786
40
3.3986069184662675
40
3.3986069184662675
40
4.1031810369614643
40
4.1031810369614643
40
4.8077551554566611
40
4.8077551554566611
40
4.8077551554566611
40
4.8077551554566611
10
159.40558232578758
20
44.230792612317487
30
0
10
157.79433090182633
20
47.646020449151003
30
0
10
155.53141397976992
20
50.713883614417767
30
0
10
149.95699475551228
20
55.809518965090525
30
0
10
146.69878693938819
20
57.78857409920824
30
0
10
139.60716439514582
20
60.386369126686851
30
0
10
135.84154944378346
20
60.980272683677363
30
0
10
129.7212261541994
20
60.745871114253276
30
0
10
127.39395118689066
20
60.371228364264063
30
0
10
122.88094077940266
20
59.068901005756366
30
0
10
120.71187032082028
20
58.146025440316208
30
0
10
118.67794003593404
20
56.971735242824209
30
0
0
SPLINE
5
114
100
AcDbEntity
8
0
100
AcDbSpline
70
0
71
3
72
17
73
13
74
0
42
0.000000001
43
0.0000000001
44
0.0000000001
40
-0.90334674105666268
40
-0.90334674105666268
40
-0.90334674105666268
40
-0.90334674105666268
40
-0.88044038872389874
40
-0.88044038872389874
40
-0.88044038872389874
40
-0.84997844580028203
40
-0.84997844580028203
40
-0.84997844580028203
40
-0.81374971176945743
40
-0.81374971176945743
40
-0.81374971176945743
40
-0.7921919975658025
40
-0.7921919975658025
40
-0.7921919975658025
40
-0.7921919975658025
10
159.40558232578758
20
44.230792612317501
30
0
10
162.015866446057
20
38.698003094172776
30
0
10
164.11615946451221
20
33.006765181794876
30
0
10
165.65632012407079
20
27.178469340008107
30
0
10
167.70449808899133
20
19.427727855930069
30
0
10
168.78760234267889
20
11.367736460012022
30
0
10
168.90581020446038
20
3.0105644973291352
30
0
10
169.04639615446274
20
-6.9287148534692573
30
0
10
167.80173838277193
20
-17.261912480598699
30
0
10
165.23583971287135
20
-27.024237713679561
30
0
10
163.70901544807117
20
-32.833257072700654
30
0
10
161.71867858373071
20
-38.415299314559391
30
0
10
159.32874318654504
20
-43.68494717652321
30
0
0
SPLINE
5
115
100
AcDbEntity
8
0
100
AcDbSpline
70
0
71
3
72
16
73
12
74
0
42
0.000000001
43
0.0000000001
44
0.0000000001
40
0
40
0
40
0
40
0
40
1.1328689728220915
40
1.1328689728220915
40
2.2657379456441822
40
2.2657379456441822
40
3.3986069184662724
40
3.3986069184662724
40
4.1250674602108379
40
4.1250674602108379
40
4.8515280019553977
40
4.8515280019553977
40
4.8515280019553977
40
4.8515280019553977
10
118.41800661337709
20
-56.821662611339647
30
0
10
121.68831764545415
20
-58.70977756604313
30
0
10
125.29615355769438
20
-59.941076647208853
30
0
10
132.78072661221421
20
-60.951430796185704
30
0
10
136.58590715668512
20
-60.720826327647032
30
0
10
143.89369187456967
20
-58.814014372615233
30
0
10
147.32642964302991
20
-57.156037047705027
30
0
10
152.28034279360892
20
-53.431653059228978
30
0
10
154.02603142394878
20
-51.739776947471078
30
0
10
157.05608976402675
20
-47.961672108236392
30
0
10
158.32856389638761
20
-45.89027568212493
30
0
10
159.32874318654945
20
-43.684947176513475
30
0
0
LINE
5
116
100
AcDbEntity
8
0
100
AcDbLine
10
118.41800661337709
20
-56.821662611339647
30
0
11
39.910600109422347
21
-11.49539033290198
31
0
0
ARC
5
117
100
AcDbEntity
8
0
100
AcDbCircle
10
44.910600109422376
20
-2.8351362950575942
30
0
40
10.000000000000016
210
0
220
0
230
1
100
AcDbArc
50
176.38779996124308
51
239.99999999999983
0
ARC
5
118
100
AcDbEntity
8
0
100
AcDbCircle
10
-2.2204460492503131e-15
20
5.5511151231257827e-16
30
0
40
35.000000000000007
210
0
220
0
230
1
100
AcDbArc
50
266.38779996124305
51
303.61220003875701
0
ARC
5
119
100
AcDbEntity
8
0
100
AcDbCircle
10
24.91060010942234
20
-37.476152446435187
30
0
40
10.000000000000027
210
0
220
-0
230
1
100
AcDbArc
50
60.000000000000071
51
123.61220003875687
0
LINE
5
120
100
AcDbEntity
8
0
100
AcDbLine
10
29.910600109422344
20
-28.815898408590769
30
0
11
69.603315219293847
21
-51.732498162142178
31
0
0
SPLINE
5
121
100
AcDbEntity
8
0
100
AcDbSpline
70
0
71
3
72
20
73
16
74
0
42
0.000000001
43
0.0000000001
44
0.0000000001
40
0
40
0
40
0
40
0
40
1.1328689728220815
40
1.1328689728220815
40
2.2657379456441737
40
2.2657379456441737
40
3.3986069184662639
40
3.3986069184662639
40
4.5314758912883555
40
4.5314758912883555
40
5.6643448641104461
40
5.6643448641104461
40
6.7972138369325377
40
6.7972138369325377
40
7.9015672553998586
40
7.9015672553998586
40
7.9015672553998586
40
7.9015672553998586
10
52.260346132698487
20
-105.70754545186668
30
0
10
56.018386408797731
20
-106.07774217242948
30
0
10
59.81280542304421
20
-105.71037077825912
30
0
10
67.04724799088649
20
-103.54184822882826
30
0
10
70.418106330457931
20
-101.76142933107647
30
0
10
76.287626104556651
20
-97.00870517157982
30
0
10
78.730171730908125
20
-94.081838543234554
30
0
10
82.355867323899545
20
-87.456585281527367
30
0
10
83.504353664513715
20
-83.821539680389378
30
0
10
84.343313729391056
20
-76.3158221714273
30
0
10
84.025766538165456
20
-72.516909013920966
30
0
10
81.9523652667975
20
-65.254632753498981
30
0
10
80.216334032900406
20
-61.860700969879325
30
0
10
75.599883463016312
20
-56.003968281662743
30
0
10
72.791308936456886
20
-53.573087192921101
30
0
10
69.603315219293933
20
-51.732498162142235
30
0
0
SPLINE
5
122
100
AcDbEntity
8
0
100
AcDbSpline
70
0
71
3
72
17
73
13
74
0
42
0.000000001
43
0.0000000001
44
0.0000000001
40
-0.62068953903019453
40
-0.62068953903019453
40
-0.62068953903019453
40
-0.62068953903019453
40
-0.6013306011136873
40
-0.6013306011136873
40
-0.6013306011136873
40
-0.57100435712966124
40
-0.57100435712966124
40
-0.57100435712966124
40
-0.53572171853291983
40
-0.53572171853291983
40
-0.53572171853291983
40
-0.51615319026842632
40
-0.51615319026842632
40
-0.51615319026842632
40
-0.51615319026842632
10
52.260346132698444
20
-105.70754545186674
30
0
10
47.476346467784502
20
-105.23628360872254
30
0
10
42.841413950311065
20
-104.45039309452888
30
0
10
38.384207439023925
20
-103.42621608537927
30
0
10
31.401885747025283
20
-101.82181805506083
30
0
10
24.886370009384002
20
-99.67365680071282
30
0
10
18.926852127379512
20
-97.086857557987742
30
0
10
11.993335541799775
20
-94.077282654763053
30
0
10
5.7405362889102163
20
-90.416389112568567
30
0
10
0.014881490885325643
20
-85.987193588094172
30
0
10
-3.16069273496724
20
-83.530664222468701
30
0
10
-6.1583561947511019
20
-80.838414639652285
30
0
10
-8.9681768770144856
20
-77.972911043586237
30
0
0
SPLINE
5
123
100
AcDbEntity
8
0
100
AcDbSpline
70
0
71
3
72
14
73
10
74
0
42
0.000000001
43
0.0000000001
44
0.0000000001
40
0
40
0
40
0
40
0
40
1.1328689728220906
40
1.1328689728220906
40
2.26573794564418
40
2.26573794564418
40
3.0213066661553869
40
3.0213066661553869
40
3.7768753866665916
40
3.7768753866665916
40
3.7768753866665916
40
3.7768753866665916
10
-13.37661988952874
20
-43.168985282200261
30
0
10
-15.264734844232235
20
-46.4392963142773
30
0
10
-16.496033925397999
20
-50.047132226517526
30
0
10
-17.506388074374875
20
-57.531705281037347
30
0
10
-17.275783605836207
20
-61.336885825508247
30
0
10
-15.686502031193747
20
-67.427747366909756
30
0
10
-14.735861948099163
20
-69.771530665129788
30
0
10
-12.253094390565584
20
-74.154279978103006
30
0
10
-10.731511498725384
20
-76.17463198205192
30
0
10
-8.9681768770144821
20
-77.972911043586237
30
0
0
LINE
5
124
100
AcDbEntity
8
0
100
AcDbLine
10
-13.37661988952874
20
-43.168985282200261
30
0
11
-11.495390332901964
21
-39.910600109422354
31
0
0
ARC
5
125
100
AcDbEntity
8
0
100
AcDbCircle
10
-2.8351362950575778
20
-44.910600109422361
30
0
40
10.000000000000007
210
0
220
-0
230
1
100
AcDbArc
50
86.387799961243019
51
149.99999999999997
0
LINE
5
126
100
AcDbEntity
8
0
100
AcDbLine
10
-11.495390332901977
20
39.910600109422361
30
0
11
-13.547393561743304
21
43.464773959073341
31
0
0
SPLINE
5
127
100
AcDbEntity
8
0
100
AcDbSpline
70
0
71
3
72
14
73
10
74
0
42
0.000000001
43
0.0000000001
44
0.0000000001
40
0
40
0
40
0
40
0
40
1.1328689728220851
40
1.1328689728220851
40
2.2657379456441751
40
2.2657379456441751
40
3.0404222777765502
40
3.0404222777765502
40
3.8151066099089261
40
3.8151066099089261
40
3.8151066099089261
40
3.8151066099089261
10
-8.870657312254151
20
78.538741422495377
30
0
10
-11.54969287399787
20
75.877410780201544
30
0
10
-13.683298341950474
20
72.718248691284202
30
0
10
-16.619460582231348
20
65.759901142221452
30
0
10
-17.393946043210509
20
62.027241277237522
30
0
10
-17.45674655562723
20
55.669040396266439
30
0
10
-17.13724803731829
20
53.095007989399832
30
0
10
-15.82521271750881
20
48.099883748294474
30
0
10
-14.838534115296598
20
45.701094997541759
30
0
10
-13.547393561743295
20
43.46477395907332
30
0
0
SPLINE
5
128
100
AcDbEntity
8
0
100
AcDbSpline
70
0
71
3
72
20
73
16
74
0
42
0.000000001
43
0.0000000001
44
0.0000000001
40
-0.17877076854210139
40
-0.17877076854210139
40
-0.17877076854210139
40
-0.17877076854210139
40
-0.17693704937147606
40
-0.17693704937147606
40
-0.17693704937147606
40
-0.14934110258799985
40
-0.14934110258799985
40
-0.14934110258799985
40
-0.12586496458606736
40
-0.12586496458606736
40
-0.12586496458606736
40
-0.094398723439550525
40
-0.094398723439550525
40
-0.094398723439550525
40
-0.0696210393750957
40
-0.0696210393750957
40
-0.0696210393750957
40
-0.0696210393750957
10
-8.8706573122526216
20
78.538741422496969
30
0
10
-8.5997611766332369
20
78.807847289137129
30
0
10
-8.3285833739253086
20
79.074309809079779
30
0
10
-8.057281512044856
20
79.337914868183091
30
0
10
-3.9744143736935413
20
83.304951533011874
30
0
10
0.13611324594427598
20
86.646921016111662
30
0
10
4.7481649161251918
20
89.711327559699072
30
0
10
8.6716817401988564
20
92.318247752571736
30
0
10
13.016285885609173
20
94.761166137751687
30
0
10
17.758242516606277
20
97.000139548152958
30
0
10
24.114124001243855
20
100.00114751831083
30
0
10
31.099944666798464
20
102.58871476193073
30
0
10
38.242839455851268
20
104.3632422861622
30
0
10
43.867419448253138
20
105.76057100281298
30
0
10
49.606236910255241
20
106.658080415276
30
0
10
55.572198789768422
20
106.98133346668628
30
0
0
SPLINE
5
129
100
AcDbEntity
8
0
100
AcDbSpline
70
0
71
3
72
20
73
16
74
0
42
0.000000001
43
0.0000000001
44
0.0000000001
40
0
40
0
40
0
40
0
40
1.1328689728220906
40
1.1328689728220906
40
2.2657379456441786
40
2.2657379456441786
40
3.3986069184662675
40
3.3986069184662675
40
4.531475891288359
40
4.531475891288359
40
5.6643448641104497
40
5.6643448641104497
40
6.7185113494036832
40
6.7185113494036832
40
7.7726778346969203
40
7.7726778346969203
40
7.7726778346969203
40
7.7726778346969203
10
71.641201136959609
20
52.909072145284242
30
0
10
74.911512169036655
20
54.797187099987724
30
0
10
77.781766409102758
20
57.306015112090691
30
0
10
82.399045296195638
20
63.282668439296927
30
0
10
84.101926240450368
20
66.693353691064374
30
0
10
86.10447100609521
20
73.975486879655975
30
0
10
86.384989408054551
20
77.777313654127951
30
0
10
85.472939170863782
20
85.274500705258475
30
0
10
84.289090229087009
20
88.898183787425552
30
0
10
80.599015313322866
20
95.487796555323783
30
0
10
78.128068466776426
20
98.390725951377377
30
0
10
72.418002367302591
20
102.92294046726408
30
0
10
69.291437445985295
20
104.58918422428852
30
0
10
62.595198609155815
20
106.72226390836104
30
0
10
59.080940392423145
20
107.17144722412607
30
0
10
55.572198789818337
20
106.98133346668898
30
0
0
LINE
5
130
100
AcDbEntity
8
0
100
AcDbLine
10
71.641201136959609
20
52.909072145284242
30
0
11
29.910600109422347
21
28.815898408590755
31
0
0
ARC
5
131
100
AcDbEntity
8
0
100
AcDbCircle
10
24.910600109422354
20
37.476152446435151
30
0
40
10
210
0
220
0
230
1
100
AcDbArc
50
236.38779996124285
51
299.99999999999994
0
ARC
5
132
100
AcDbEntity
8
0
100
AcDbCircle
10
-2.2204460492503131e-15
20
5.5511151231257827e-16
30
0
40
35.000000000000007
210
0
220
-0
230
1
100
AcDbArc
50
56.38779996124304
51
93.612200038756981
0
ARC
5
133
100
AcDbEntity
8
0
100
AcDbCircle
10
-2.8351362950575947
20
44.910600109422354
30
0
40
9.9999999999999929
210
0
220
0
230
1
100
AcDbArc
50
209.99999999999997
51
273.61220003875701
0
LINE
5
134
100
AcDbEntity
8
0
100
AcDbLine
10
3.9532011979922728
20
-4.5135573872714279
30
0
11
-49.841846133234355
21
0.21589402938687441
31
0
0
SPLINE
5
135
100
AcDbEntity
8
0
100
AcDbSpline
70
4
71
5
72
90
73
84
74
0
42
0.000000001
43
0.0000000001
44
0.0000000001
40
0.34705654313671908
40
0.34705654313671908
40
0.34705654313671908
40
0.34705654313671908
40
0.34705654313671908
40
0.34705654313671908
40
0.35000000000000026
40
0.35833333333333361
40
0.36666666666666697
40
0.37500000000000033
40
0.38333333333333369
40
0.39166666666666705
40
0.40000000000000041
40
0.40833333333333377
40
0.41666666666666713
40
0.42500000000000049
40
0.43333333333333385
40
0.44166666666666721
40
0.45000000000000057
40
0.45833333333333393
40
0.46666666666666728
40
0.47500000000000064
40
0.483333333333334
40
0.49166666666666736
40
0.50000000000000067
40
0.50833333333333397
40
0.51666666666666727
40
0.52500000000000058
40
0.53333333333333388
40
0.54166666666666718
40
0.55000000000000049
40
0.55833333333333379
40
0.5666666666666671
40
0.5750000000000004
40
0.5833333333333337
40
0.59166666666666701
40
0.60000000000000031
40
0.60833333333333361
40
0.61666666666666692
40
0.62500000000000022
40
0.63333333333333353
40
0.64166666666666683
40
0.65000000000000013
40
0.65833333333333344
40
0.66666666666666674
40
0.67500000000000004
40
0.68333333333333335
40
0.69166666666666665
40
0.69999999999999996
40
0.70833333333333326
40
0.71666666666666656
40
0.72499999999999987
40
0.73333333333333317
40
0.74166666666666647
40
0.74999999999999978
40
0.75833333333333308
40
0.76666666666666639
40
0.77499999999999969
40
0.78333333333333299
40
0.7916666666666663
40
0.7999999999999996
40
0.8083333333333329
40
0.81666666666666621
40
0.82499999999999951
40
0.83333333333333282
40
0.84166666666666612
40
0.84999999999999942
40
0.85833333333333273
40
0.86666666666666603
40
0.87499999999999933
40
0.88333333333333264
40
0.89166666666666594
40
0.89999999999999925
40
0.90833333333333255
40
0.91666666666666585
40
0.92499999999999916
40
0.93333333333333246
40
0.94166666666666576
40
0.94999999999999907
40
0.95833333333333237
40
0.96666666666666567
40
0.97499999999999898
40
0.98333333333333228
40
0.99166666666666559
40
1
40
1
40
1
40
1
40
1
40
1
41
1
41
1
41
1
41
1
41
1
41
1
41
1
41
1
41
1
41
1
41
1
41
1
41
1
41
1
41
1
41
1
41
1
41
1
41
1
41
1
41
1
41
1
41
1
41
1
41
1
41
1
41
1
41
1
41
1
41
1
41
1
41
1
41
1
41
1
41
1
41
1
41
1
41
1
41
1
41
1
41
1
41
1
41
1
41
1
41
1
41
1
41
1
41
1
41
1
41
1
41
1
41
1
41
1
41
1
41
1
41
1
41
1
41
1
41
1
41
1
41
1
41
1
41
1
41
1
41
1
41
1
41
1
41
1
41
1
41
1
41
1
41
1
41
1
41
1
41
1
41
1
41
1
41
1
41
1
41
1
41
1
41
1
41
1
41
1
10
-49.841846133234355
20
0.21589402938687452
30
0
10
-49.843127512742214
20
-0.12786313999846244
30
0
10
-49.857877338350882
20
-1.4427967841635159
30
0
10
-49.948994083938572
20
-3.7122329459101939
30
0
10
-50.2333336540011
20
-6.8713445202637384
30
0
10
-50.772856577281196
20
-10.761478172274888
30
0
10
-51.342054771200083
20
-14.897125127347525
30
0
10
-51.593961595380108
20
-18.749828624733667
30
0
10
-51.430172624816407
20
-22.486075687121513
30
0
10
-50.909809494354462
20
-26.334465533303085
30
0
10
-50.149218293889021
20
-30.489841864526447
30
0
10
-49.235797308598748
20
-35.010780514483805
30
0
10
-48.175816865432459
20
-39.781168473109339
30
0
10
-46.936744458999414
20
-44.615961521901191
30
0
10
-45.466219485156657
20
-49.328222958102508
30
0
10
-43.724465724528265
20
-53.827078922600123
30
0
10
-41.697016957053627
20
-58.149207655342124
30
0
10
-39.382380500099366
20
-62.389854229767352
30
0
10
-36.785804582864735
20
-66.660209905249317
30
0
10
-33.909222515601456
20
-71.026235165229153
30
0
10
-30.747503575759175
20
-75.482306958717317
30
0
10
-27.29392588557133
20
-79.979111548696679
30
0
10
-23.543870156565806
20
-84.440251907375981
30
0
10
-19.498828932125072
20
-88.782453627872187
30
0
10
-15.171296247520123
20
-92.936527329418084
30
0
10
-10.581673021904777
20
-96.850549372171614
30
0
10
-5.7531730434412953
20
-100.48798957189064
30
0
10
-0.7072802502199691
20
-103.82771737241998
30
0
10
4.5407156832709559
20
-106.86296084958273
30
0
10
9.9870297699642059
20
-109.60141355323692
30
0
10
15.637146957821672
20
-112.05891017090374
30
0
10
21.502092146186946
20
-114.25213995617987
30
0
10
27.595206745235572
20
-116.19131413119796
30
0
10
33.928750691234242
20
-117.87370021991536
30
0
10
40.510485811349341
20
-119.27462382497805
30
0
10
47.340762247925952
20
-120.35139606693819
30
0
10
54.40982006632629
20
-121.05297749420583
30
0
10
61.695081002170767
20
-121.32772187576163
30
0
10
69.158293779610688
20
-121.13209377644705
30
0
10
76.743073753873276
20
-120.4385597016143
30
0
10
84.371357738550756
20
-119.24494088842471
30
0
10
91.951697089374292
20
-117.56949483962339
30
0
10
99.389144106551555
20
-115.44421246806766
30
0
10
106.59433851591076
20
-112.9088477590482
30
0
10
113.49345227475125
20
-110.0044338511639
30
0
10
120.03656005423483
20
-106.76751126699727
30
0
10
126.20974277919657
20
-103.22281884753339
30
0
10
132.03142373794543
20
-99.382357888833596
30
0
10
137.53865903923366
20
-95.24846614353271
30
0
10
142.77658641764359
20
-90.815687670998443
30
0
10
147.78629898469364
20
-86.07312307966636
30
0
10
152.59403812292425
20
-81.006602413740751
30
0
10
157.1981115385945
20
-75.600849220984983
30
0
10
161.57364921109797
20
-69.84251215832407
30
0
10
165.68032108646042
20
-63.723402569800214
30
0
10
169.46894187305534
20
-57.243594528962717
30
0
10
172.88870137327353
20
-50.414735453720681
30
0
10
175.89374381661816
20
-43.262923185218128
30
0
10
178.45102783859926
20
-35.832691196209929
30
0
10
180.53921015707175
20
-28.182784398749074
30
0
10
182.14563605615453
20
-20.38016153237081
30
0
10
183.26402939659076
20
-12.494696454707217
30
0
10
183.89179534442468
20
-4.5934025143995267
30
0
10
184.02771814998937
20
3.2647075717125338
30
0
10
183.66894249733815
20
11.0350829155655
30
0
10
182.81008830182066
20
18.690054134517876
30
0
10
181.4467901002925
20
26.212820015988612
30
0
10
179.57830868608971
20
33.593203665485589
30
0
10
177.2105302683874
20
40.822690933509911
30
0
10
174.35876801155146
20
47.889811641161216
30
0
10
171.05073664906766
20
54.775290934286069
30
0
10
167.32922638784521
20
61.447524805286413
30
0
10
163.24526218895829
20
67.867544173304012
30
0
10
158.85144912541352
20
73.993776269781932
30
0
10
154.19536413552254
20
79.786810396440714
30
0
10
149.31266903223218
20
85.214319353986738
30
0
10
144.22094417056559
20
90.255548602363007
30
0
10
138.91160523347042
20
94.90696969413824
30
0
10
133.35816989405538
20
99.177987124099701
30
0
10
127.5273280764352
20
103.08493966271422
30
0
10
122.61668914316306
20
105.93354910045693
30
0
10
118.78802323948619
20
107.92041270395214
30
0
10
116.1718696232527
20
109.17904962212725
30
0
10
114.84828285374078
20
109.7918247208227
30
0
0
SPLINE
5
136
100
AcDbEntity
8
0
100
AcDbSpline
70
4
71
5
72
51
73
45
74
0
42
0.000000001
43
0.0000000001
44
0.0000000001
40
0
40
0
40
0
40
0
40
0
40
0
40
0.0083333333333333332
40
0.016666666666666666
40
0.025000000000000001
40
0.033333333333333333
40
0.041666666666666664
40
0.049999999999999996
40
0.058333333333333327
40
0.066666666666666666
40
0.074999999999999997
40
0.083333333333333329
40
0.09166666666666666
40
0.099999999999999992
40
0.10833333333333332
40
0.11666666666666665
40
0.12499999999999999
40
0.13333333333333333
40
0.14166666666666666
40
0.14999999999999999
40
0.15833333333333333
40
0.16666666666666666
40
0.17499999999999999
40
0.18333333333333332
40
0.19166666666666665
40
0.19999999999999998
40
0.20833333333333331
40
0.21666666666666665
40
0.22499999999999998
40
0.23333333333333331
40
0.24166666666666664
40
0.24999999999999997
40
0.2583333333333333
40
0.26666666666666666
40
0.27500000000000002
40
0.28333333333333338
40
0.29166666666666674
40
0.3000000000000001
40
0.30833333333333346
40
0.31666666666666682
40
0.32500000000000018
40
0.3326260871673663
40
0.3326260871673663
40
0.3326260871673663
40
0.3326260871673663
40
0.3326260871673663
40
0.3326260871673663
41
1
41
1
41
1
41
1
41
1
41
1
41
1
41
1
41
1
41
1
41
1
41
1
41
1
41
1
41
1
41
1
41
1
41
1
41
1
41
1
41
1
41
1
41
1
41
1
41
1
41
1
41
1
41
1
41
1
41
1
41
1
41
1
41
1
41
1
41
1
41
1
41
1
41
1
41
1
41
1
41
1
41
1
41
1
41
1
41
1
10
114.84828285374078
20
109.7918247208227
30
0
10
113.52469608422901
20
110.40459981951807
30
0
10
110.84650262241546
20
111.59706329612476
30
0
10
106.73865741335754
20
113.2861464123083
30
0
10
101.09733855566682
20
115.33457603250852
30
0
10
93.838769096326445
20
117.53385019312674
30
0
10
86.454344745254602
20
119.34401953812636
30
0
10
79.029517398378346
20
120.73575050765254
30
0
10
71.643817028347954
20
121.68288770692402
30
0
10
64.361396077188061
20
122.16685443709156
30
0
10
57.219363878278351
20
122.18175570083861
30
0
10
50.233398033796128
20
121.73397093108731
30
0
10
43.406652342013992
20
120.84066712052672
30
0
10
36.737605206995802
20
119.52871755614049
30
0
10
30.228147627828204
20
117.83339733003756
30
0
10
23.892047620629711
20
115.79731709453492
30
0
10
17.761869149713757
20
113.46885311476237
30
0
10
11.877466148333227
20
110.8948249582417
30
0
10
6.2761165983826226
20
108.1138328198786
30
0
10
0.981507394652814
20
105.14886151199428
30
0
10
-4.005591909265835
20
102.00129328532552
30
0
10
-8.7205518715332104
20
98.641412953051855
30
0
10
-13.218840881311586
20
95.025677558498217
30
0
10
-17.554194546002815
20
91.119301570884375
30
0
10
-21.758743769072506
20
86.917037906284946
30
0
10
-25.822415936055108
20
82.464649874571677
30
0
10
-29.672304372409506
20
77.880399847634322
30
0
10
-33.205045654947895
20
73.31033316434511
30
0
10
-36.321451163547351
20
68.879972624416169
30
0
10
-38.95733064831029
20
64.652596234661544
30
0
10
-41.122929141061206
20
60.57231342658681
30
0
10
-42.915784292343353
20
56.454628118748118
30
0
10
-44.465691211058605
20
52.103941684679917
30
0
10
-45.89667227521231
20
47.393764719709552
30
0
10
-47.273912919531121
20
42.389530528465102
30
0
10
-48.586583636781327
20
37.352630042296184
30
0
10
-49.774693584492425
20
32.578556772789867
30
0
10
-50.746737830178986
20
28.289458938921292
30
0
10
-51.397738833797099
20
24.473713469377397
30
0
10
-51.637573589909067
20
20.848729289952054
30
0
10
-51.445128994525362
20
17.128857310721934
30
0
10
-51.028893110480027
20
13.849985268633549
30
0
10
-50.674941280522347
20
11.23298282725661
30
0
10
-50.456072652324963
20
9.4544136502566403
30
0
10
-50.357860261089591
20
8.5932745997891971
30
0
0
LINE
5
137
100
AcDbEntity
8
0
100
AcDbLine
10
-50.357860261089598
20
8.5932745997891971
30
0
11
4.6801011434812168
21
3.7545510100124964
31
0
0
ARC
5
138
100
AcDbEntity
8
0
100
AcDbCircle
10
-2.2204460492503131e-15
20
5.5511151231257827e-16
30
0
40
6.0000000000000036
210
0
220
0
230
1
100
AcDbArc
50
-48.786489267389697
51
38.737881138387792
0
CIRCLE
5
139
100
AcDbEntity
8
0
100
AcDbCircle
10
-10.330629435422722
20
-14.740356015645537
30
0
40
3.2000000000000006
210
0
220
-0
230
1
0
CIRCLE
5
140
100
AcDbEntity
8
0
100
AcDbCircle
10
10.330629435422727
20
14.740356015645538
30
0
40
3.2000000000000006
210
0
220
-0
230
1
0
ENDSEC
0
SECTION
2
OBJECTS
0
DICTIONARY
5
C
100
AcDbDictionary
3
ACAD_GROUP
350
D
3
ACAD_MLINESTYLE
350
17
0
DICTIONARY
5
D
100
AcDbDictionary
0
DICTIONARY
5
1A
330
C
100
AcDbDictionary
0
DICTIONARY
5
17
100
AcDbDictionary
0
ENDSEC
0
EOF
