0
SECTION
2
HEADER
9
$INSUNITS
70
4
9
$ACADVER
1
AC1014
9
$HANDSEED
5
FFFF
0
ENDSEC
0
SECTION
2
TABLES
0
TABLE
2
VPORT
5
8
100
AcDbSymbolTable
0
ENDTAB
0
TABLE
2
LTYPE
5
5
100
AcDbSymbolTable
0
LTYPE
5
14
100
AcDbSymbolTableRecord
100
AcDbLinetypeTableRecord
2
BYBLOCK
70
0
0
LTYPE
5
15
100
AcDbSymbolTableRecord
100
AcDbLinetypeTableRecord
2
BYLAYER
70
0
0
ENDTAB
0
TABLE
2
LAYER
5
2
100
AcDbSymbolTable
70
2
0
LAYER
5
50
100
AcDbSymbolTableRecord
100
AcDbLayerTableRecord
2
0
70
0
6
CONTINUOUS
0
ENDTAB
0
TABLE
2
STYLE
5
3
100
AcDbSymbolTable
70
1
0
STYLE
5
11
100
AcDbSymbolTableRecord
100
AcDbTextStyleTableRecord
2
STANDARD
70
0
0
ENDTAB
0
TABLE
2
VIEW
5
6
100
AcDbSymbolTable
70
0
0
ENDTAB
0
TABLE
2
UCS
5
7
100
AcDbSymbolTable
70
0
0
ENDTAB
0
TABLE
2
APPID
5
9
100
AcDbSymbolTable
70
2
0
APPID
5
12
100
AcDbSymbolTableRecord
100
AcDbRegAppTableRecord
2
ACAD
70
0
0
ENDTAB
0
TABLE
2
DIMSTYLE
5
A
100
AcDbSymbolTable
70
1
0
ENDTAB
0
TABLE
2
BLOCK_RECORD
5
1
100
AcDbSymbolTable
70
1
0
BLOCK_RECORD
5
1F
100
AcDbSymbolTableRecord
100
AcDbBlockTableRecord
2
*MODEL_SPACE
0
BLOCK_RECORD
5
1B
100
AcDbSymbolTableRecord
100
AcDbBlockTableRecord
2
*PAPER_SPACE
0
ENDTAB
0
ENDSEC
0
SECTION
2
BLOCKS
0
BLOCK
5
20
100
AcDbEntity
100
AcDbBlockBegin
2
*MODEL_SPACE
0
ENDBLK
5
21
100
AcDbEntity
100
AcDbBlockEnd
0
BLOCK
5
1C
100
AcDbEntity
100
AcDbBlockBegin
2
*PAPER_SPACE
0
ENDBLK
5
1D
100
AcDbEntity
100
AcDbBlockEnd
0
ENDSEC
0
SECTION
2
ENTITIES
0
LINE
5
100
100
AcDbEntity
8
0
100
AcDbLine
10
115.75075093665535
20
95.351518913493095
30
0
11
108.32514530570826
21
87.535142990077759
31
0
0
LINE
5
101
100
AcDbEntity
8
0
100
AcDbLine
10
108.32514530570826
20
87.535142990077759
30
0
11
106.83302463011063
21
88.952666891094168
31
0
0
LINE
5
102
100
AcDbEntity
8
0
100
AcDbLine
10
106.83302463011063
20
88.952666891094168
30
0
11
112.17522324639661
21
94.575997124040384
31
0
0
SPLINE
5
103
100
AcDbEntity
8
0
100
AcDbSpline
70
0
71
3
72
9
73
5
74
0
42
0.000000001
43
0.0000000001
44
0.0000000001
40
0
40
0
40
0
40
0
40
0.15333287375923751
40
0.31011671084778569
40
0.31011671084778569
40
0.31011671084778569
40
0.31011671084778569
10
112.17522324639661
20
94.575997124040356
30
0
10
111.66145396171251
20
94.609478858072464
30
0
10
110.62235232098389
20
94.677195877762699
30
0
10
109.65981197362127
20
95.075014719417936
30
0
10
109.17318624939153
20
95.276137594384352
30
0
0
LINE
5
104
100
AcDbEntity
8
0
100
AcDbLine
10
109.17318624939153
20
95.276137594384352
30
0
11
110.45955135529609
21
96.63019728220425
31
0
0
SPLINE
5
105
100
AcDbEntity
8
0
100
AcDbSpline
70
0
71
3
72
9
73
5
74
0
42
0.000000001
43
0.0000000001
44
0.0000000001
40
0
40
0
40
0
40
0
40
0.092310084654538632
40
0.20231293332005096
40
0.20231293332005096
40
0.20231293332005096
40
0.20231293332005096
10
110.45955135529609
20
96.630197282204264
30
0
10
110.74737763001337
20
96.517939723729981
30
0
10
111.37819687519726
20
96.27190857743355
30
0
10
112.0512677952203
20
96.192527202565472
30
0
10
112.41723410958994
20
96.149365466816917
30
0
0
SPLINE
5
106
100
AcDbEntity
8
0
100
AcDbSpline
70
0
71
3
72
9
73
5
74
0
42
0.000000001
43
0.0000000001
44
0.0000000001
40
0
40
0
40
0
40
0
40
0.11270810935552886
40
0.21742062626120065
40
0.21742062626120065
40
0.21742062626120065
40
0.21742062626120065
10
112.41723410958994
20
96.149365466816917
30
0
10
112.79750728627563
20
96.131744507863615
30
0
10
113.53107679336881
20
96.097752633163083
30
0
10
114.2120817128319
20
96.370379915974468
30
0
10
114.54006227460461
20
96.50168065524305
30
0
0
LINE
5
107
100
AcDbEntity
8
0
100
AcDbLine
10
114.54006227460461
20
96.501680655243035
30
0
11
115.75075093665535
21
95.351518913493095
31
0
0
LWPOLYLINE
5
108
100
AcDbEntity
8
0
100
AcDbPolyline
90
6
70
1
43
0.0
10
113.94847553865446
20
82.192944373791775
10
119.42843474583151
20
76.986949121660388
10
120.67444329939397
20
78.298528505548703
10
116.7662553376863
20
82.011331321022254
10
122.85505017230122
20
88.420547176703138
10
121.28327892683183
20
89.913739613361003
0
LWPOLYLINE
5
109
100
AcDbEntity
8
0
100
AcDbPolyline
90
10
70
1
43
0.0
10
125.31423454034632
20
94.518282858132324
42
-0.99999999999999989
10
127.30852354823514
20
97.394532386710168
42
-0.076904766290536455
10
145.82144866222205
20
79.807138648403935
10
147.29241913365405
20
80.942938820190648
42
-0.57735026919210386
10
148.49407188272014
20
80.449450552098241
10
149.45769964808511
20
73.297195327997414
42
-0.5773502691896244
10
148.42949990888582
20
72.503277664074687
10
141.75365130778206
20
75.244879151527016
42
-0.57735026918713184
10
141.58019830989571
20
76.532285092724251
10
143.05116878132779
20
77.668085264511163
42
0.076904766290375723
0
LINE
5
110
100
AcDbEntity
8
0
100
AcDbLine
10
-11.495390332901977
20
39.910600109422354
30
0
11
-14.238320168938301
21
44.661493947036853
31
0
0
SPLINE
5
111
100
AcDbEntity
8
0
100
AcDbSpline
70
0
71
3
72
14
73
10
74
0
42
0.000000001
43
0.0000000001
44
0.0000000001
40
0
40
0
40
0
40
0
40
1.1328689728220909
40
1.1328689728220909
40
2.2657379456441804
40
2.2657379456441804
40
2.9343820045644984
40
2.9343820045644984
40
3.6030260634848168
40
3.6030260634848168
40
3.6030260634848168
40
3.6030260634848168
10
-11.004865293150976
20
78.193296418224804
30
0
10
-13.483088111138954
20
75.344029145204686
30
0
10
-15.381092511547401
20
72.037950396451095
30
0
10
-17.802998524413741
20
64.884348465979926
30
0
10
-18.303745395347867
20
61.105217617731931
30
0
10
-17.925837426879603
20
55.112077182756053
30
0
10
-17.529604661468714
20
52.911248415391235
30
0
10
-16.240906739805709
20
48.643966298163718
30
0
10
-15.352726933804972
20
46.591703084085609
30
0
10
-14.238320168938303
20
44.661493947036853
30
0
0
SPLINE
5
112
100
AcDbEntity
8
0
100
AcDbSpline
70
0
71
3
72
23
73
19
74
0
42
0.000000001
43
0.0000000001
44
0.0000000001
40
-0.18556681363434965
40
-0.18556681363434965
40
-0.18556681363434965
40
-0.18556681363434965
40
-0.17142947352750404
40
-0.17142947352750404
40
-0.17142947352750404
40
-0.15000078933656602
40
-0.15000078933656602
40
-0.15000078933656602
40
-0.12865555684361057
40
-0.12865555684361057
40
-0.12865555684361057
40
-0.1019671551324621
40
-0.1019671551324621
40
-0.1019671551324621
40
-0.078896815687484967
40
-0.078896815687484967
40
-0.078896815687484967
40
-0.063284450843576187
40
-0.063284450843576187
40
-0.063284450843576187
40
-0.063284450843576187
10
-11.004865293150994
20
78.19329641822479
30
0
10
-9.0149854897214219
20
80.481104988141325
30
0
10
-7.0230391259235292
20
82.569822891856305
30
0
10
-5.0034112762345924
20
84.454342359232328
30
0
10
-1.9421588024929943
20
87.31080419808427
30
0
10
1.2181084322247608
20
89.752735906370532
30
0
10
4.8847661087791101
20
92.115834469904229
30
0
10
8.5371443827204558
20
94.469730201109542
30
0
10
12.715892468427947
20
96.751770167214147
30
0
10
17.274928244618728
20
98.905045576372416
30
0
10
22.975188396417636
20
101.5973319749075
30
0
10
29.201698775271328
20
104.05616417222237
30
0
10
35.374072848869773
20
105.92820580543642
30
0
10
40.709677678281807
20
107.54646067138204
30
0
10
45.985433735769504
20
108.72120732977754
30
0
10
51.352377613128517
20
109.38318542343742
30
0
10
54.984343502054969
20
109.83116511361678
30
0
10
58.686078269490771
20
110.04850227902267
30
0
10
62.536440709500347
20
110.02175781167239
30
0
0
SPLINE
5
113
100
AcDbEntity
8
0
100
AcDbSpline
70
0
71
3
72
20
73
16
74
0
42
0.000000001
43
0.0000000001
44
0.0000000001
40
0
40
0
40
0
40
0
40
1.1328689728220918
40
1.1328689728220918
40
2.2657379456441831
40
2.2657379456441831
40
3.3986069184662755
40
3.3986069184662755
40
4.5314758912883661
40
4.5314758912883661
40
5.6643448641104577
40
5.6643448641104577
40
6.6292865933376985
40
6.6292865933376985
40
7.5942283225649403
40
7.5942283225649403
40
7.5942283225649403
40
7.5942283225649403
10
76.835012699500155
20
55.907720649037095
30
0
10
80.105323731577187
20
57.795835603740585
30
0
10
82.975577971643304
20
60.304663615843552
30
0
10
87.592856858736184
20
66.281316943049802
30
0
10
89.295737802990914
20
69.692002194817263
30
0
10
91.298282568635756
20
76.974135383408878
30
0
10
91.578800970595069
20
80.775962157880883
30
0
10
90.666750733404314
20
88.273149209011422
30
0
10
89.482901791627526
20
91.896832291178498
30
0
10
85.792826875863369
20
98.486445059076715
30
0
10
83.321880029316929
20
101.38937445513031
30
0
10
77.844768202694823
20
105.73668765489147
30
0
10
75.010212077731225
20
107.30334424678705
30
0
10
68.943218477326781
20
109.44212152456589
30
0
10
65.752835551526658
20
109.99941685853304
30
0
10
62.53644070952798
20
110.02175781167226
30
0
0
LINE
5
114
100
AcDbEntity
8
0
100
AcDbLine
10
76.835012699500155
20
55.907720649037095
30
0
11
29.910600109422347
21
28.815898408590755
31
0
0
ARC
5
115
100
AcDbEntity
8
0
100
AcDbCircle
10
24.910600109422354
20
37.476152446435137
30
0
40
9.9999999999999858
210
0
220
0
230
1
100
AcDbArc
50
236.38779996124273
51
299.99999999999994
0
ARC
5
116
100
AcDbEntity
8
0
100
AcDbCircle
10
-2.2204460492503131e-15
20
5.5511151231257827e-16
30
0
40
35.000000000000007
210
0
220
-0
230
1
100
AcDbArc
50
56.387799961243054
51
93.61220003875701
0
ARC
5
117
100
AcDbEntity
8
0
100
AcDbCircle
10
-2.8351362950575987
20
44.91060010942234
30
0
40
9.9999999999999822
210
0
220
0
230
1
100
AcDbArc
50
209.99999999999997
51
273.61220003875701
0
ARC
5
118
100
AcDbEntity
8
0
100
AcDbCircle
10
-2.2204460492503131e-15
20
5.5511151231257827e-16
30
0
40
35.000000000000007
210
-0
220
0
230
1
100
AcDbArc
50
-3.6122000387568414
51
3.6122000387569599
0
ARC
5
119
100
AcDbEntity
8
0
100
AcDbCircle
10
44.910600109422354
20
2.8351362950576031
30
0
40
10
210
0
220
0
230
1
100
AcDbArc
50
120.00000000000011
51
183.61220003875692
0
LINE
5
120
100
AcDbEntity
8
0
100
AcDbLine
10
39.91060010942234
20
11.49539033290198
30
0
11
122.56079111009569
21
59.213500355636377
31
0
0
SPLINE
5
121
100
AcDbEntity
8
0
100
AcDbSpline
70
0
71
3
72
16
73
12
74
0
42
0.000000001
43
0.0000000001
44
0.0000000001
40
0
40
0
40
0
40
0
40
1.1328689728220909
40
1.1328689728220909
40
2.2657379456441813
40
2.2657379456441813
40
3.3986069184662684
40
3.3986069184662684
40
4.0860751022645898
40
4.0860751022645898
40
4.7735432860629121
40
4.7735432860629121
40
4.7735432860629121
40
4.7735432860629121
10
163.14116994291362
20
46.78000333037869
30
0
10
161.4898845434318
20
50.176055282006928
30
0
10
159.19106186926987
20
53.217106368340232
30
0
10
153.5571296418714
20
58.24686351674012
30
0
10
150.27588355145906
20
60.187482359038562
30
0
10
143.15421442396018
20
62.701737348737936
30
0
10
139.38187842534208
20
63.25133584806251
30
0
10
133.32168175263919
20
62.94785914737642
30
0
10
131.0546193553136
20
62.562374641212642
30
0
10
126.65872228358268
20
61.265806439865017
30
0
10
124.54534081497283
20
60.359280661965499
30
0
10
122.56079111009569
20
59.21350035563637
30
0
0
SPLINE
5
122
100
AcDbEntity
8
0
100
AcDbSpline
70
0
71
3
72
17
73
13
74
0
42
0.000000001
43
0.0000000001
44
0.0000000001
40
-0.90504437673702365
40
-0.90504437673702365
40
-0.90504437673702365
40
-0.90504437673702365
40
-0.8941231606512996
40
-0.8941231606512996
40
-0.8941231606512996
40
-0.85798473643204054
40
-0.85798473643204054
40
-0.85798473643204054
40
-0.81963003724791594
40
-0.81963003724791594
40
-0.81963003724791594
40
-0.78900562401400165
40
-0.78900562401400165
40
-0.78900562401400165
40
-0.78900562401400165
10
163.14116994291362
20
46.780003330378705
30
0
10
164.46619821984612
20
44.054935412227572
30
0
10
165.67919335304779
20
41.284042879961298
30
0
10
166.76264718050555
20
38.482795506837661
30
0
10
170.34780781933131
20
29.213437120516964
30
0
10
172.54166960769766
20
19.559859607294079
30
0
10
173.31373535912289
20
9.5951039555432462
30
0
10
174.13314988219713
20
-0.98076407753295736
30
0
10
173.35720830408249
20
-11.944547674501004
30
0
10
171.09511636376553
20
-22.481955327680424
30
0
10
169.28894293972661
20
-30.895576950314535
30
0
10
166.54407925171452
20
-38.983453749503461
30
0
10
162.9719724396881
20
-46.457450453924388
30
0
0
SPLINE
5
123
100
AcDbEntity
8
0
100
AcDbSpline
70
0
71
3
72
16
73
12
74
0
42
0.000000001
43
0.0000000001
44
0.0000000001
40
0
40
0
40
0
40
0
40
1.13286897282209
40
1.13286897282209
40
2.2657379456441786
40
2.2657379456441786
40
3.3986069184662693
40
3.3986069184662693
40
4.0958737659973936
40
4.0958737659973936
40
4.7931406135285215
40
4.7931406135285215
40
4.7931406135285215
40
4.7931406135285215
10
122.30679241109283
20
-59.066854138471534
30
0
10
125.57710344316986
20
-60.954969093175009
30
0
10
129.18493935541005
20
-62.186268174340839
30
0
10
136.66951240992989
20
-63.19662232331769
30
0
10
140.47469295440078
20
-62.966017854779004
30
0
10
147.78247767228532
20
-61.059205899747212
30
0
10
151.21521544074557
20
-59.401228574837006
30
0
10
156.09134623776922
20
-55.73532186348757
30
0
10
157.77448723245624
20
-54.120354476588531
30
0
10
160.71900078248882
20
-50.523427049379627
30
0
10
161.96972483787096
20
-48.554474889973022
30
0
10
162.9719724396881
20
-46.457450453924388
30
0
0
LINE
5
124
100
AcDbEntity
8
0
100
AcDbLine
10
122.30679241109283
20
-59.066854138471534
30
0
11
39.910600109422347
21
-11.495390332901989
31
0
0
ARC
5
125
100
AcDbEntity
8
0
100
AcDbCircle
10
44.910600109422354
20
-2.8351362950576018
30
0
40
9.9999999999999982
210
0
220
0
230
1
100
AcDbArc
50
176.38779996124296
51
239.99999999999994
0
ARC
5
126
100
AcDbEntity
8
0
100
AcDbCircle
10
-2.2204460492503131e-15
20
5.5511151231257827e-16
30
0
40
35.000000000000007
210
0
220
0
230
1
100
AcDbArc
50
266.38779996124305
51
303.61220003875701
0
ARC
5
127
100
AcDbEntity
8
0
100
AcDbCircle
10
24.910600109422333
20
-37.476152446435222
30
0
40
10.000000000000053
210
0
220
-0
230
1
100
AcDbArc
50
60.000000000000085
51
123.6122000387567
0
LINE
5
128
100
AcDbEntity
8
0
100
AcDbLine
10
29.910600109422347
20
-28.81589840859078
30
0
11
73.542037560112618
21
-54.006520565877111
31
0
0
SPLINE
5
129
100
AcDbEntity
8
0
100
AcDbSpline
70
0
71
3
72
20
73
16
74
0
42
0.000000001
43
0.0000000001
44
0.0000000001
40
0
40
0
40
0
40
0
40
1.1328689728220902
40
1.1328689728220902
40
2.2657379456441804
40
2.2657379456441804
40
3.3986069184662702
40
3.3986069184662702
40
4.5314758912883617
40
4.5314758912883617
40
5.6643448641104506
40
5.6643448641104506
40
6.7342501737246199
40
6.7342501737246199
40
7.8041554833387892
40
7.8041554833387892
40
7.8041554833387892
40
7.8041554833387892
10
57.161402397772292
20
-108.060213915183
30
0
10
60.9296835567146
20
-108.30510049272479
30
0
10
64.709769687967196
20
-107.81161671665734
30
0
10
71.868012468158923
20
-105.40346190132014
30
0
10
75.177732414575715
20
-103.5118141346308
30
0
10
80.885780997352015
20
-98.56632824429964
30
0
10
83.229537578133375
20
-95.55977166126749
30
0
10
86.632669258464773
20
-88.817491328833682
30
0
10
87.659508564300779
20
-85.146227454236794
30
0
10
88.248138696366027
20
-77.616741158185519
30
0
10
87.804301897704534
20
-73.830504729608492
30
0
10
85.554594253155344
20
-66.841061948108432
30
0
10
83.844976466374987
20
-63.676741054778994
30
0
10
79.363872406076595
20
-58.127403694704853
30
0
10
76.630588152678371
20
-55.789696081900722
30
0
10
73.542037560112618
20
-54.006520565877111
30
0
0
SPLINE
5
130
100
AcDbEntity
8
0
100
AcDbSpline
70
0
71
3
72
20
73
16
74
0
42
0.000000001
43
0.0000000001
44
0.0000000001
40
-0.62527254342494154
40
-0.62527254342494154
40
-0.62527254342494154
40
-0.62527254342494154
40
-0.6009596205651937
40
-0.6009596205651937
40
-0.6009596205651937
40
-0.58217192599159706
40
-0.58217192599159706
40
-0.58217192599159706
40
-0.56033235650380098
40
-0.56033235650380098
40
-0.56033235650380098
40
-0.54274443577295584
40
-0.54274443577295584
40
-0.54274443577295584
40
-0.5213142046292486
40
-0.5213142046292486
40
-0.5213142046292486
40
-0.5213142046292486
10
57.161402397826357
20
-108.06021391518652
30
0
10
50.658153312954894
20
-107.63759194402425
30
0
10
44.288266366606166
20
-106.73335756532256
30
0
10
38.575327609742367
20
-105.50972652646524
30
0
10
34.160681575582529
20
-104.56417150778485
30
0
10
30.157191150988069
20
-103.43741945099902
30
0
10
26.486492508171438
20
-102.11192917009265
30
0
10
22.219525224638161
20
-100.57112612042334
30
0
10
18.337546776436007
20
-98.747656753106895
30
0
10
14.279934545610855
20
-96.378569281167486
30
0
10
11.012243654902633
20
-94.47068722863014
30
0
10
7.6180905089764384
20
-92.188095274833131
30
0
10
4.1626269614645146
20
-89.609406481103605
30
0
10
-0.047727614558001411
20
-86.467369526138583
30
0
10
-4.308756021875781
20
-82.915715764863592
30
0
10
-8.0656106256634956
20
-79.48105695558921
30
0
0
SPLINE
5
131
100
AcDbEntity
8
0
100
AcDbSpline
70
0
71
3
72
14
73
10
74
0
42
0.000000001
43
0.0000000001
44
0.0000000001
40
0
40
0
40
0
40
0
40
1.1328689728220898
40
1.1328689728220898
40
2.2657379456441795
40
2.2657379456441795
40
3.1008227207220549
40
3.1008227207220549
40
3.935907495799932
40
3.935907495799932
40
3.935907495799932
40
3.935907495799932
10
-13.612598148130861
20
-43.577711615580839
30
0
10
-15.500713102834361
20
-46.848022647657871
30
0
10
-16.732012184000141
20
-50.45585855989809
30
0
10
-17.742366332977031
20
-57.940431614417911
30
0
10
-17.511761864438363
20
-61.745612158888818
30
0
10
-15.855560739917616
20
-68.092940344857894
30
0
10
-14.768611358818049
20
-70.671210580955346
30
0
10
-11.893394959437231
20
-75.438515998965855
30
0
10
-10.120048307177861
20
-77.602812193653435
30
0
10
-8.0656106256635027
20
-79.481056955589196
30
0
0
LINE
5
132
100
AcDbEntity
8
0
100
AcDbLine
10
-13.612598148130861
20
-43.577711615580839
30
0
11
-11.495390332901964
21
-39.910600109422347
31
0
0
ARC
5
133
100
AcDbEntity
8
0
100
AcDbCircle
10
-2.8351362950575765
20
-44.910600109422361
30
0
40
10.000000000000007
210
0
220
-0
230
1
100
AcDbArc
50
86.387799961243019
51
149.99999999999991
0
LINE
5
134
100
AcDbEntity
8
0
100
AcDbLine
10
3.9532011979922728
20
-4.5135573872714279
30
0
11
-49.69108928297085
21
0.20264007322507327
31
0
0
SPLINE
5
135
100
AcDbEntity
8
0
100
AcDbSpline
70
4
71
5
72
90
73
84
74
0
42
0.000000001
43
0.0000000001
44
0.0000000001
40
0.34784859384365496
40
0.34784859384365496
40
0.34784859384365496
40
0.34784859384365496
40
0.34784859384365496
40
0.34784859384365496
40
0.35000000000000026
40
0.35833333333333361
40
0.36666666666666697
40
0.37500000000000033
40
0.38333333333333369
40
0.39166666666666705
40
0.40000000000000041
40
0.40833333333333377
40
0.41666666666666713
40
0.42500000000000049
40
0.43333333333333385
40
0.44166666666666721
40
0.45000000000000057
40
0.45833333333333393
40
0.46666666666666728
40
0.47500000000000064
40
0.483333333333334
40
0.49166666666666736
40
0.50000000000000067
40
0.50833333333333397
40
0.51666666666666727
40
0.52500000000000058
40
0.53333333333333388
40
0.54166666666666718
40
0.55000000000000049
40
0.55833333333333379
40
0.5666666666666671
40
0.5750000000000004
40
0.5833333333333337
40
0.59166666666666701
40
0.60000000000000031
40
0.60833333333333361
40
0.61666666666666692
40
0.62500000000000022
40
0.63333333333333353
40
0.64166666666666683
40
0.65000000000000013
40
0.65833333333333344
40
0.66666666666666674
40
0.67500000000000004
40
0.68333333333333335
40
0.69166666666666665
40
0.69999999999999996
40
0.70833333333333326
40
0.71666666666666656
40
0.72499999999999987
40
0.73333333333333317
40
0.74166666666666647
40
0.74999999999999978
40
0.75833333333333308
40
0.76666666666666639
40
0.77499999999999969
40
0.78333333333333299
40
0.7916666666666663
40
0.7999999999999996
40
0.8083333333333329
40
0.81666666666666621
40
0.82499999999999951
40
0.83333333333333282
40
0.84166666666666612
40
0.84999999999999942
40
0.85833333333333273
40
0.86666666666666603
40
0.87499999999999933
40
0.88333333333333264
40
0.89166666666666594
40
0.89999999999999925
40
0.90833333333333255
40
0.91666666666666585
40
0.92499999999999916
40
0.93333333333333246
40
0.94166666666666576
40
0.94999999999999907
40
0.95833333333333237
40
0.96666666666666567
40
0.97499999999999898
40
0.98333333333333228
40
0.99166666666666559
40
1
40
1
40
1
40
1
40
1
40
1
41
1
41
1
41
1
41
1
41
1
41
1
41
1
41
1
41
1
41
1
41
1
41
1
41
1
41
1
41
1
41
1
41
1
41
1
41
1
41
1
41
1
41
1
41
1
41
1
41
1
41
1
41
1
41
1
41
1
41
1
41
1
41
1
41
1
41
1
41
1
41
1
41
1
41
1
41
1
41
1
41
1
41
1
41
1
41
1
41
1
41
1
41
1
41
1
41
1
41
1
41
1
41
1
41
1
41
1
41
1
41
1
41
1
41
1
41
1
41
1
41
1
41
1
41
1
41
1
41
1
41
1
41
1
41
1
41
1
41
1
41
1
41
1
41
1
41
1
41
1
41
1
41
1
41
1
41
1
41
1
41
1
41
1
41
1
41
1
10
-49.691089282970836
20
0.20264007322506497
30
0
10
-49.694446378899485
20
-0.05567081935404148
30
0
10
-49.717227832427994
20
-1.3085866464573435
30
0
10
-49.81395337595238
20
-3.5027166408225558
30
0
10
-50.089552504245702
20
-6.4996476720020109
30
0
10
-50.599314881312964
20
-10.10673699409605
30
0
10
-51.130989067462366
20
-14.064068637808113
30
0
10
-51.343325977060452
20
-17.966080716827268
30
0
10
-51.175283507652971
20
-21.947107973638008
30
0
10
-50.715331651628979
20
-26.053041854038199
30
0
10
-50.091525034124714
20
-30.289093001840733
30
0
10
-49.365313356593454
20
-34.65953222490765
30
0
10
-48.483570028170384
20
-39.187306987610519
30
0
10
-47.357126256173252
20
-43.8817171811816
30
0
10
-45.903313346507453
20
-48.722422767240595
30
0
10
-44.117657692580828
20
-53.627720122455429
30
0
10
-42.067175532052005
20
-58.470909097342684
30
0
10
-39.832472928500145
20
-63.130310691565946
30
0
10
-37.469767889940442
20
-67.524557150577039
30
0
10
-34.953150636419338
20
-71.665170122688323
30
0
10
-32.166002124895947
20
-75.6622791806751
30
0
10
-28.96667561731272
20
-79.658007072887486
30
0
10
-25.233494124004263
20
-83.780026397915577
30
0
10
-20.925620882664006
20
-88.079750164791818
30
0
10
-16.113607769943748
20
-92.49968609814141
30
0
10
-10.929343634525273
20
-96.918094721010448
30
0
10
-5.5301253337831699
20
-101.18014700986038
30
0
10
-0.05674675133151106
20
-105.1347143777236
30
0
10
5.4048277852863436
20
-108.66795482631632
30
0
10
10.866154241862173
20
-111.74045351305099
30
0
10
16.405633368407106
20
-114.3673930529402
30
0
10
22.134740811606243
20
-116.59628779651869
30
0
10
28.164573261095125
20
-118.48511489328578
30
0
10
34.574133924295644
20
-120.0814206876109
30
0
10
41.372948290608853
20
-121.39802484444645
30
0
10
48.512579237769089
20
-122.41839604183929
30
0
10
55.906909303521353
20
-123.10735736201046
30
0
10
63.449318250753549
20
-123.41990893687041
30
0
10
71.031211059193723
20
-123.31086558789566
30
0
10
78.559826903599173
20
-122.74407506523386
30
0
10
85.976734846451677
20
-121.70200785030731
30
0
10
93.250560053303303
20
-120.18235853917051
30
0
10
100.36928758868348
20
-118.19444121677913
30
0
10
107.33274693170412
20
-115.75567166090559
30
0
10
114.14498672520796
20
-112.8880032385714
30
0
10
120.80679504233839
20
-109.61441987365654
30
0
10
127.30789635131721
20
-105.9553127873601
30
0
10
133.62900741893361
20
-101.92833919894619
30
0
10
139.74423479251189
20
-97.548393307117749
30
0
10
145.62333200838037
20
-92.827547086195267
30
0
10
151.23404122740513
20
-87.774976075373786
30
0
10
156.54433319534286
20
-82.396953349074678
30
0
10
161.52486274798633
20
-76.696644415074758
30
0
10
166.1490951665792
20
-70.676231520479931
30
0
10
170.39316788580453
20
-64.33933822969172
30
0
10
174.2358437263278
20
-57.693292720419514
30
0
10
177.65843634487013
20
-50.751584327854715
30
0
10
180.64472769538835
20
-43.535951292230315
30
0
10
183.18094581938732
20
-36.079371187336143
30
0
10
185.25538601473133
20
-28.424305481636445
30
0
10
186.85787819054497
20
-20.619103316135341
30
0
10
187.97933128202712
20
-12.715051067417619
30
0
10
188.61118946495165
20
-4.7630581665057221
30
0
10
188.74505914455955
20
3.1892771409036005
30
0
10
188.3719437068589
20
11.101306495567737
30
0
10
187.48268843813761
20
18.940908462465181
30
0
10
186.07128108261503
20
26.681229490376257
30
0
10
184.13760634395271
20
34.298369776025844
30
0
10
181.69038835327098
20
41.768713673161393
30
0
10
178.7501305374164
20
49.066370413632121
30
0
10
175.35188916133521
20
56.160666088970636
30
0
10
171.54859903598631
20
63.013340640824389
30
0
10
167.40267336187404
20
69.58239428854985
30
0
10
162.97681045498535
20
75.826370902853654
30
0
10
158.32531760246846
20
81.708387330472405
30
0
10
153.48470152702683
20
87.200485922186729
30
0
10
148.46576601949101
20
92.287351453721044
30
0
10
143.24194729894026
20
96.971603076619147
30
0
10
137.76016364403415
20
101.26968415702969
30
0
10
131.95841599828492
20
105.20493438953568
30
0
10
127.01658481847404
20
108.08227339126839
30
0
10
123.12642447820735
20
110.09637547637274
30
0
10
120.45206464694755
20
111.37610355076875
30
0
10
119.09520571184318
20
112.00018506756399
30
0
0
SPLINE
5
136
100
AcDbEntity
8
0
100
AcDbSpline
70
4
71
5
72
52
73
46
74
0
42
0.000000001
43
0.0000000001
44
0.0000000001
40
0
40
0
40
0
40
0
40
0
40
0
40
0.0083333333333333332
40
0.016666666666666666
40
0.025000000000000001
40
0.033333333333333333
40
0.041666666666666664
40
0.049999999999999996
40
0.058333333333333327
40
0.066666666666666666
40
0.074999999999999997
40
0.083333333333333329
40
0.09166666666666666
40
0.099999999999999992
40
0.10833333333333332
40
0.11666666666666665
40
0.12499999999999999
40
0.13333333333333333
40
0.14166666666666666
40
0.14999999999999999
40
0.15833333333333333
40
0.16666666666666666
40
0.17499999999999999
40
0.18333333333333332
40
0.19166666666666665
40
0.19999999999999998
40
0.20833333333333331
40
0.21666666666666665
40
0.22499999999999998
40
0.23333333333333331
40
0.24166666666666664
40
0.24999999999999997
40
0.2583333333333333
40
0.26666666666666666
40
0.27500000000000002
40
0.28333333333333338
40
0.29166666666666674
40
0.3000000000000001
40
0.30833333333333346
40
0.31666666666666682
40
0.32500000000000018
40
0.33333333333333354
40
0.33435459358606323
40
0.33435459358606323
40
0.33435459358606323
40
0.33435459358606323
40
0.33435459358606323
40
0.33435459358606323
41
1
41
1
41
1
41
1
41
1
41
1
41
1
41
1
41
1
41
1
41
1
41
1
41
1
41
1
41
1
41
1
41
1
41
1
41
1
41
1
41
1
41
1
41
1
41
1
41
1
41
1
41
1
41
1
41
1
41
1
41
1
41
1
41
1
41
1
41
1
41
1
41
1
41
1
41
1
41
1
41
1
41
1
41
1
41
1
41
1
41
1
10
119.09520571184318
20
112.00018506756399
30
0
10
117.73834677673904
20
112.62426658435913
30
0
10
114.98527086758213
20
113.84086457714392
30
0
10
110.74088817649795
20
115.57088129473942
30
0
10
104.87632545682233
20
117.68347890818009
30
0
10
97.301371493308878
20
119.97694993918942
30
0
10
89.60080351519548
20
121.8913881675907
30
0
10
81.89712966307863
20
123.39200759932559
30
0
10
74.299094374479978
20
124.44607373371845
30
0
10
66.886230487884873
20
125.02764246106709
30
0
10
59.687868071416752
20
125.12316821256876
30
0
10
52.691340844805346
20
124.73253378139803
30
0
10
45.861459140812677
20
123.86830356928863
30
0
10
39.156362445195711
20
122.55557204870843
30
0
10
32.544753347306468
20
120.83154511892749
30
0
10
26.022830563490832
20
118.74530305596534
30
0
10
19.630533344071324
20
116.35730285492308
30
0
10
13.432922819268896
20
113.72813663427431
30
0
10
7.5031425968800356
20
110.90816723397774
30
0
10
1.9037693161889706
20
107.92569712190506
30
0
10
-3.3288234663728606
20
104.77834333181664
30
0
10
-8.2072932539079062
20
101.41648623826691
30
0
10
-12.783368923871672
20
97.762891461026072
30
0
10
-17.121608084105738
20
93.749717433729813
30
0
10
-21.27729959014745
20
89.352139296119162
30
0
10
-25.274754411090502
20
84.618833102879222
30
0
10
-29.079935750997755
20
79.715699608917618
30
0
10
-32.619464573898696
20
74.868383221320585
30
0
10
-35.810865017377189
20
70.279976988701577
30
0
10
-38.588295173867103
20
66.059664093169289
30
0
10
-40.931647729484183
20
62.141169840410896
30
0
10
-42.889948752669255
20
58.222125940972298
30
0
10
-44.547959087296348
20
53.952199291541483
30
0
10
-45.998546337324541
20
49.085022002936462
30
0
10
-47.309581982484858
20
43.680775337121247
30
0
10
-48.503504114342945
20
38.169992226080652
30
0
10
-49.565265640550052
20
33.070793563473458
30
0
10
-50.446119422025681
20
28.78225348103625
30
0
10
-51.066356566030507
20
25.326994051097479
30
0
10
-51.325610502515275
20
22.171929344098839
30
0
10
-51.171649211006233
20
18.634803277907483
30
0
10
-50.764175076817075
20
15.055097009342699
30
0
10
-50.405521776123905
20
12.01209204908456
30
0
10
-50.18229370264423
20
9.851958784128751
30
0
10
-50.075685748150264
20
8.6940400513451621
30
0
10
-50.06419088706204
20
8.5674563301542044
30
0
0
LINE
5
137
100
AcDbEntity
8
0
100
AcDbLine
10
-50.064190887062054
20
8.5674563301542044
30
0
11
4.6801011434812168
21
3.7545510100124964
31
0
0
ARC
5
138
100
AcDbEntity
8
0
100
AcDbCircle
10
-2.2204460492503131e-15
20
5.5511151231257827e-16
30
0
40
6.0000000000000036
210
0
220
0
230
1
100
AcDbArc
50
-48.786489267389697
51
38.737881138387792
0
CIRCLE
5
139
100
AcDbEntity
8
0
100
AcDbCircle
10
-10.330629435422722
20
-14.740356015645537
30
0
40
3.2000000000000006
210
0
220
-0
230
1
0
CIRCLE
5
140
100
AcDbEntity
8
0
100
AcDbCircle
10
10.330629435422727
20
14.740356015645538
30
0
40
3.2000000000000006
210
0
220
-0
230
1
0
ENDSEC
0
SECTION
2
OBJECTS
0
DICTIONARY
5
C
100
AcDbDictionary
3
ACAD_GROUP
350
D
3
ACAD_MLINESTYLE
350
17
0
DICTIONARY
5
D
100
AcDbDictionary
0
DICTIONARY
5
1A
330
C
100
AcDbDictionary
0
DICTIONARY
5
17
100
AcDbDictionary
0
ENDSEC
0
EOF
