0
SECTION
2
HEADER
9
$INSUNITS
70
4
9
$ACADVER
1
AC1014
9
$HANDSEED
5
FFFF
0
ENDSEC
0
SECTION
2
TABLES
0
TABLE
2
VPORT
5
8
100
AcDbSymbolTable
0
ENDTAB
0
TABLE
2
LTYPE
5
5
100
AcDbSymbolTable
0
LTYPE
5
14
100
AcDbSymbolTableRecord
100
AcDbLinetypeTableRecord
2
BYBLOCK
70
0
0
LTYPE
5
15
100
AcDbSymbolTableRecord
100
AcDbLinetypeTableRecord
2
BYLAYER
70
0
0
ENDTAB
0
TABLE
2
LAYER
5
2
100
AcDbSymbolTable
70
2
0
LAYER
5
50
100
AcDbSymbolTableRecord
100
AcDbLayerTableRecord
2
0
70
0
6
CONTINUOUS
0
ENDTAB
0
TABLE
2
STYLE
5
3
100
AcDbSymbolTable
70
1
0
STYLE
5
11
100
AcDbSymbolTableRecord
100
AcDbTextStyleTableRecord
2
STANDARD
70
0
0
ENDTAB
0
TABLE
2
VIEW
5
6
100
AcDbSymbolTable
70
0
0
ENDTAB
0
TABLE
2
UCS
5
7
100
AcDbSymbolTable
70
0
0
ENDTAB
0
TABLE
2
APPID
5
9
100
AcDbSymbolTable
70
2
0
APPID
5
12
100
AcDbSymbolTableRecord
100
AcDbRegAppTableRecord
2
ACAD
70
0
0
ENDTAB
0
TABLE
2
DIMSTYLE
5
A
100
AcDbSymbolTable
70
1
0
ENDTAB
0
TABLE
2
BLOCK_RECORD
5
1
100
AcDbSymbolTable
70
1
0
BLOCK_RECORD
5
1F
100
AcDbSymbolTableRecord
100
AcDbBlockTableRecord
2
*MODEL_SPACE
0
BLOCK_RECORD
5
1B
100
AcDbSymbolTableRecord
100
AcDbBlockTableRecord
2
*PAPER_SPACE
0
ENDTAB
0
ENDSEC
0
SECTION
2
BLOCKS
0
BLOCK
5
20
100
AcDbEntity
100
AcDbBlockBegin
2
*MODEL_SPACE
0
ENDBLK
5
21
100
AcDbEntity
100
AcDbBlockEnd
0
BLOCK
5
1C
100
AcDbEntity
100
AcDbBlockBegin
2
*PAPER_SPACE
0
ENDBLK
5
1D
100
AcDbEntity
100
AcDbBlockEnd
0
ENDSEC
0
SECTION
2
ENTITIES
0
LINE
5
100
100
AcDbEntity
8
0
100
AcDbLine
10
50.091960773529181
20
-4.1499999999992703
30
0
11
-4.3333012819334638
21
-4.1499999999992507
31
0
0
ARC
5
101
100
AcDbEntity
8
0
100
AcDbCircle
10
2.2204460492503131e-15
20
5.5511151231257827e-16
30
0
40
6.0000000000000018
210
0
220
0
230
1
100
AcDbArc
50
136.23781479711639
51
223.76218520288336
0
LINE
5
102
100
AcDbEntity
8
0
100
AcDbLine
10
-4.3333012819334442
20
4.1499999999992738
30
0
11
50.100243454608744
21
4.1499999999968935
31
0
0
SPLINE
5
103
100
AcDbEntity
8
0
100
AcDbSpline
70
4
71
5
72
52
73
46
74
0
42
0.000000001
43
0.0000000001
44
0.0000000001
40
-0.33935296231547635
40
-0.33935296231547635
40
-0.33935296231547635
40
-0.33935296231547635
40
-0.33935296231547635
40
-0.33935296231547635
40
-0.33333333333333354
40
-0.32500000000000018
40
-0.31666666666666682
40
-0.30833333333333346
40
-0.3000000000000001
40
-0.29166666666666674
40
-0.28333333333333338
40
-0.27500000000000002
40
-0.26666666666666666
40
-0.2583333333333333
40
-0.24999999999999997
40
-0.24166666666666664
40
-0.23333333333333331
40
-0.22499999999999998
40
-0.21666666666666665
40
-0.20833333333333331
40
-0.19999999999999998
40
-0.19166666666666665
40
-0.18333333333333332
40
-0.17499999999999999
40
-0.16666666666666666
40
-0.15833333333333333
40
-0.14999999999999999
40
-0.14166666666666666
40
-0.13333333333333333
40
-0.12499999999999999
40
-0.11666666666666665
40
-0.10833333333333332
40
-0.099999999999999992
40
-0.09166666666666666
40
-0.083333333333333329
40
-0.074999999999999997
40
-0.066666666666666666
40
-0.058333333333333327
40
-0.049999999999999996
40
-0.041666666666666664
40
-0.033333333333333333
40
-0.025000000000000001
40
-0.016666666666666666
40
-0.0083333333333333332
40
0
40
0
40
0
40
0
40
0
40
0
41
1
41
1
41
1
41
1
41
1
41
1
41
1
41
1
41
1
41
1
41
1
41
1
41
1
41
1
41
1
41
1
41
1
41
1
41
1
41
1
41
1
41
1
41
1
41
1
41
1
41
1
41
1
41
1
41
1
41
1
41
1
41
1
41
1
41
1
41
1
41
1
41
1
41
1
41
1
41
1
41
1
41
1
41
1
41
1
41
1
41
1
10
50.100243454608744
20
4.1499999999969042
30
0
10
50.160631193955837
20
4.904749539176513
30
0
10
50.333399826022536
20
6.6938576002668748
30
0
10
50.703008686067868
20
9.467570511606727
30
0
10
51.332937719895675
20
13.072540416509318
30
0
10
52.060089190210583
20
17.196415547681603
30
0
10
52.423058025743885
20
21.052511725686266
30
0
10
52.269168021533794
20
24.66053116946955
30
0
10
51.670164234184533
20
28.416232897116554
30
0
10
50.772773399871845
20
32.65335083971933
30
0
10
49.701080983320352
20
37.420255155231153
30
0
10
48.520935507855384
20
42.501825819660269
30
0
10
47.248586177080448
20
47.600688122067602
30
0
10
45.847359281590784
20
52.454916364640368
30
0
10
44.223926538689049
20
57.015569506089619
30
0
10
42.254719001105812
20
61.416271342536099
30
0
10
39.830816888858543
20
65.852141444454389
30
0
10
36.892258753081116
20
70.495600356367646
30
0
10
33.477927975160299
20
75.376496321549212
30
0
10
29.70238727951287
20
80.399012285767824
30
0
10
25.707308882227476
20
85.404219970913985
30
0
10
21.620136714513272
20
90.218949277817032
30
0
10
17.512116476315068
20
94.707919172483841
30
0
10
13.350237972394829
20
98.830915942309105
30
0
10
9.0297440281723098
20
102.61903029644826
30
0
10
4.4181785944592216
20
106.13929336178182
30
0
10
-0.60640574226445432
20
109.46470372061567
30
0
10
-6.1108210249869002
20
112.63916747672036
30
0
10
-12.076839712869052
20
115.65315479767736
30
0
10
-18.43284245262123
20
118.46302815768189
30
0
10
-25.076450876822953
20
121.00407533261041
30
0
10
-31.901424204480922
20
123.20638116480623
30
0
10
-38.820947912279408
20
125.00855678744725
30
0
10
-45.797128479418312
20
126.37481085778488
30
0
10
-52.832147107550647
20
127.29201699606266
30
0
10
-59.950414045630041
20
127.76210524058737
30
0
10
-67.183614916657277
20
127.79598122272297
30
0
10
-74.554951417340746
20
127.40696269804263
30
0
10
-82.062775212451541
20
126.60406530247297
30
0
10
-89.667246133676827
20
125.38640384600214
30
0
10
-97.302930947120743
20
123.74744541966963
30
0
10
-104.8889116390701
20
121.67831371601602
30
0
10
-110.84965547508634
20
119.67282815127038
30
0
10
-115.22383362731827
20
117.97051635201311
30
0
10
-118.08883960100889
20
116.7483147929098
30
0
10
-119.50776141103282
20
116.11557716656694
30
0
0
SPLINE
5
104
100
AcDbEntity
8
0
100
AcDbSpline
70
4
71
5
72
89
73
83
74
0
42
0.000000001
43
0.0000000001
44
0.0000000001
40
-1
40
-1
40
-1
40
-1
40
-1
40
-1
40
-0.99166666666666559
40
-0.98333333333333228
40
-0.97499999999999898
40
-0.96666666666666567
40
-0.95833333333333237
40
-0.94999999999999907
40
-0.94166666666666576
40
-0.93333333333333246
40
-0.92499999999999916
40
-0.91666666666666585
40
-0.90833333333333255
40
-0.89999999999999925
40
-0.89166666666666594
40
-0.88333333333333264
40
-0.87499999999999933
40
-0.86666666666666603
40
-0.85833333333333273
40
-0.84999999999999942
40
-0.84166666666666612
40
-0.83333333333333282
40
-0.82499999999999951
40
-0.81666666666666621
40
-0.8083333333333329
40
-0.7999999999999996
40
-0.7916666666666663
40
-0.78333333333333299
40
-0.77499999999999969
40
-0.76666666666666639
40
-0.75833333333333308
40
-0.74999999999999978
40
-0.74166666666666647
40
-0.73333333333333317
40
-0.72499999999999987
40
-0.71666666666666656
40
-0.70833333333333326
40
-0.69999999999999996
40
-0.69166666666666665
40
-0.68333333333333335
40
-0.67500000000000004
40
-0.66666666666666674
40
-0.65833333333333344
40
-0.65000000000000013
40
-0.64166666666666683
40
-0.63333333333333353
40
-0.62500000000000022
40
-0.61666666666666692
40
-0.60833333333333361
40
-0.60000000000000031
40
-0.59166666666666701
40
-0.5833333333333337
40
-0.5750000000000004
40
-0.5666666666666671
40
-0.55833333333333379
40
-0.55000000000000049
40
-0.54166666666666718
40
-0.53333333333333388
40
-0.52500000000000058
40
-0.51666666666666727
40
-0.50833333333333397
40
-0.50000000000000067
40
-0.49166666666666736
40
-0.483333333333334
40
-0.47500000000000064
40
-0.46666666666666728
40
-0.45833333333333393
40
-0.45000000000000057
40
-0.44166666666666721
40
-0.43333333333333385
40
-0.42500000000000049
40
-0.41666666666666713
40
-0.40833333333333377
40
-0.40000000000000041
40
-0.39166666666666705
40
-0.38333333333333369
40
-0.37500000000000033
40
-0.36666666666666697
40
-0.35833333333333361
40
-0.35253853455221923
40
-0.35253853455221923
40
-0.35253853455221923
40
-0.35253853455221923
40
-0.35253853455221923
40
-0.35253853455221923
41
1
41
1
41
1
41
1
41
1
41
1
41
1
41
1
41
1
41
1
41
1
41
1
41
1
41
1
41
1
41
1
41
1
41
1
41
1
41
1
41
1
41
1
41
1
41
1
41
1
41
1
41
1
41
1
41
1
41
1
41
1
41
1
41
1
41
1
41
1
41
1
41
1
41
1
41
1
41
1
41
1
41
1
41
1
41
1
41
1
41
1
41
1
41
1
41
1
41
1
41
1
41
1
41
1
41
1
41
1
41
1
41
1
41
1
41
1
41
1
41
1
41
1
41
1
41
1
41
1
41
1
41
1
41
1
41
1
41
1
41
1
41
1
41
1
41
1
41
1
41
1
41
1
41
1
41
1
41
1
41
1
41
1
41
1
10
-119.50776141103282
20
116.11557716656694
30
0
10
-120.92668322105692
20
115.48283954022408
30
0
10
-123.73736448746207
20
114.17409059395598
30
0
10
-127.86708145662789
20
112.08231555218957
30
0
10
-133.18705001666581
20
109.04305216443549
30
0
10
-139.51358010414421
20
104.85209981346557
30
0
10
-145.51873892684949
20
100.29746291446364
30
0
10
-151.21312072392624
20
95.405854588117407
30
0
10
-156.60944865409365
20
90.198044083195725
30
0
10
-161.71613772081213
20
84.684339834755235
30
0
10
-166.53094558891556
20
78.860195801800359
30
0
10
-171.04282908800388
20
72.712996564913283
30
0
10
-175.23371223623028
20
66.22874777063285
30
0
10
-179.08028134818977
20
59.398748977778659
30
0
10
-182.55577201777811
20
52.226392684044079
30
0
10
-185.63174415548235
20
44.733639174976936
30
0
10
-188.27989833149724
20
36.968385057801754
30
0
10
-190.4732143806811
20
28.997154723031837
30
0
10
-192.187055576739
20
20.89662580636675
30
0
10
-193.40025712873924
20
12.745747192999616
30
0
10
-194.096289595256
20
4.6172367857790446
30
0
10
-194.26423811574014
20
-3.4297892651077722
30
0
10
-193.90024440591367
20
-11.359813693037177
30
0
10
-193.00729817385752
20
-19.161645452090262
30
0
10
-191.59312880610028
20
-26.838580194086266
30
0
10
-189.66863243189255
20
-34.401428843498174
30
0
10
-187.24600512940714
20
-41.860167575102622
30
0
10
-184.33718317902773
20
-49.216675629605163
30
0
10
-180.95171883645315
20
-56.455806779033608
30
0
10
-177.09627202563843
20
-63.540967704302453
30
0
10
-172.77865731389849
20
-70.422328571274562
30
0
10
-168.01110924409494
20
-77.04279999022701
30
0
10
-162.81378844415343
20
-83.344826752547633
30
0
10
-157.21834882576169
20
-89.276971720608174
30
0
10
-151.27110690027513
20
-94.800263496330089
30
0
10
-145.03740097076368
20
-99.895531207660341
30
0
10
-138.59216010384517
20
-104.55890862440503
30
0
10
-132.00865928412009
20
-108.79586593311868
30
0
10
-125.34826132394535
20
-112.61588981150757
30
0
10
-118.6489739441474
20
-116.02662775705116
30
0
10
-111.91629315049767
20
-119.0288832055345
30
0
10
-105.10847465414602
20
-121.60965506352461
30
0
10
-98.150554500130681
20
-123.74514801281114
30
0
10
-90.96016062575498
20
-125.40782416260978
30
0
10
-83.46904177787107
20
-126.57205281764469
30
0
10
-75.647408027183062
20
-127.22055022846183
30
0
10
-67.524689174388129
20
-127.35000410845929
30
0
10
-59.21811165858891
20
-126.97830787678789
30
0
10
-50.908608232909273
20
-126.1413060013918
30
0
10
-42.803923484567534
20
-124.88710906698438
30
0
10
-35.10699946736181
20
-123.27123160307002
30
0
10
-27.980158001288352
20
-121.35141842462278
30
0
10
-21.515705004167852
20
-119.18253977165166
30
0
10
-15.692237500741463
20
-116.81161921682003
30
0
10
-10.384851924730887
20
-114.27222855404128
30
0
10
-5.4199281983872378
20
-111.57882607037068
30
0
10
-0.61866995741726216
20
-108.72033033756276
30
0
10
4.1577853460351157
20
-105.65570441189914
30
0
10
8.9560496369887925
20
-102.30423922924074
30
0
10
13.744289366863939
20
-98.573562530233374
30
0
10
18.441626396729884
20
-94.396182465334704
30
0
10
22.942178660715719
20
-89.763170561178896
30
0
10
27.141226544202542
20
-84.758931128257728
30
0
10
30.960754058593167
20
-79.596042980044913
30
0
10
34.351627925894334
20
-74.535617479814306
30
0
10
37.295725479810812
20
-69.80195856292832
30
0
10
39.807318737664403
20
-65.507604892823792
30
0
10
41.936639661190604
20
-61.554479566455321
30
0
10
43.766563265508196
20
-57.608151071067233
30
0
10
45.387447214655197
20
-53.307048049019308
30
0
10
46.877639678850599
20
-48.406612077874492
30
0
10
48.277826321416441
20
-43.001181025698578
30
0
10
49.58466929393709
20
-37.477214143257612
30
0
10
50.753626514346458
20
-32.279019958097145
30
0
10
51.703970087766926
20
-27.751801895826986
30
0
10
52.311674375334654
20
-23.902606723537261
30
0
10
52.444223559250162
20
-20.36640995163711
30
0
10
52.050002200814625
20
-16.675826560779406
30
0
10
51.305856161701222
20
-12.747795347957032
30
0
10
50.677891826361545
20
-9.2842991277757889
30
0
10
50.315809100356446
20
-6.5998744912035878
30
0
10
50.148987179086546
20
-4.8669045511965381
30
0
10
50.091960773529181
20
-4.1499999999992792
30
0
0
CIRCLE
5
105
100
AcDbEntity
8
0
100
AcDbCircle
10
-8.9999999999999947
20
15.588457268119901
30
0
40
3.2000000000000006
210
0
220
0
230
1
0
CIRCLE
5
106
100
AcDbEntity
8
0
100
AcDbCircle
10
8.9999999999999964
20
-15.588457268119903
30
0
40
3.2000000000000006
210
0
220
0
230
1
0
ENDSEC
0
SECTION
2
OBJECTS
0
DICTIONARY
5
C
100
AcDbDictionary
3
ACAD_GROUP
350
D
3
ACAD_MLINESTYLE
350
17
0
DICTIONARY
5
D
100
AcDbDictionary
0
DICTIONARY
5
1A
330
C
100
AcDbDictionary
0
DICTIONARY
5
17
100
AcDbDictionary
0
ENDSEC
0
EOF
