0
SECTION
2
HEADER
9
$INSUNITS
70
4
9
$ACADVER
1
AC1014
9
$HANDSEED
5
FFFF
0
ENDSEC
0
SECTION
2
TABLES
0
TABLE
2
VPORT
5
8
100
AcDbSymbolTable
0
ENDTAB
0
TABLE
2
LTYPE
5
5
100
AcDbSymbolTable
0
LTYPE
5
14
100
AcDbSymbolTableRecord
100
AcDbLinetypeTableRecord
2
BYBLOCK
70
0
0
LTYPE
5
15
100
AcDbSymbolTableRecord
100
AcDbLinetypeTableRecord
2
BYLAYER
70
0
0
ENDTAB
0
TABLE
2
LAYER
5
2
100
AcDbSymbolTable
70
2
0
LAYER
5
50
100
AcDbSymbolTableRecord
100
AcDbLayerTableRecord
2
0
70
0
6
CONTINUOUS
0
ENDTAB
0
TABLE
2
STYLE
5
3
100
AcDbSymbolTable
70
1
0
STYLE
5
11
100
AcDbSymbolTableRecord
100
AcDbTextStyleTableRecord
2
STANDARD
70
0
0
ENDTAB
0
TABLE
2
VIEW
5
6
100
AcDbSymbolTable
70
0
0
ENDTAB
0
TABLE
2
UCS
5
7
100
AcDbSymbolTable
70
0
0
ENDTAB
0
TABLE
2
APPID
5
9
100
AcDbSymbolTable
70
2
0
APPID
5
12
100
AcDbSymbolTableRecord
100
AcDbRegAppTableRecord
2
ACAD
70
0
0
ENDTAB
0
TABLE
2
DIMSTYLE
5
A
100
AcDbSymbolTable
70
1
0
ENDTAB
0
TABLE
2
BLOCK_RECORD
5
1
100
AcDbSymbolTable
70
1
0
BLOCK_RECORD
5
1F
100
AcDbSymbolTableRecord
100
AcDbBlockTableRecord
2
*MODEL_SPACE
0
BLOCK_RECORD
5
1B
100
AcDbSymbolTableRecord
100
AcDbBlockTableRecord
2
*PAPER_SPACE
0
ENDTAB
0
ENDSEC
0
SECTION
2
BLOCKS
0
BLOCK
5
20
100
AcDbEntity
100
AcDbBlockBegin
2
*MODEL_SPACE
0
ENDBLK
5
21
100
AcDbEntity
100
AcDbBlockEnd
0
BLOCK
5
1C
100
AcDbEntity
100
AcDbBlockBegin
2
*PAPER_SPACE
0
ENDBLK
5
1D
100
AcDbEntity
100
AcDbBlockEnd
0
ENDSEC
0
SECTION
2
ENTITIES
0
LINE
5
100
100
AcDbEntity
8
0
100
AcDbLine
10
50.329218329224403
20
-4.1499999999992703
30
0
11
-4.3333012819334638
21
-4.1499999999992507
31
0
0
ARC
5
101
100
AcDbEntity
8
0
100
AcDbCircle
10
2.2204460492503131e-15
20
5.5511151231257827e-16
30
0
40
6.0000000000000018
210
0
220
0
230
1
100
AcDbArc
50
136.23781479711639
51
223.76218520288336
0
LINE
5
102
100
AcDbEntity
8
0
100
AcDbLine
10
-4.3333012819334442
20
4.1499999999992738
30
0
11
50.2509850313497
21
4.1499999999968935
31
0
0
SPLINE
5
103
100
AcDbEntity
8
0
100
AcDbSpline
70
4
71
5
72
40
73
34
74
0
42
0.000000001
43
0.0000000001
44
0.0000000001
40
-0.24105212645470717
40
-0.24105212645470717
40
-0.24105212645470717
40
-0.24105212645470717
40
-0.24105212645470717
40
-0.24105212645470717
40
-0.23333333333333331
40
-0.22499999999999998
40
-0.21666666666666665
40
-0.20833333333333331
40
-0.19999999999999998
40
-0.19166666666666665
40
-0.18333333333333332
40
-0.17499999999999999
40
-0.16666666666666666
40
-0.15833333333333333
40
-0.14999999999999999
40
-0.14166666666666666
40
-0.13333333333333333
40
-0.12499999999999999
40
-0.11666666666666665
40
-0.10833333333333332
40
-0.099999999999999992
40
-0.09166666666666666
40
-0.083333333333333329
40
-0.074999999999999997
40
-0.066666666666666666
40
-0.058333333333333327
40
-0.049999999999999996
40
-0.041666666666666664
40
-0.033333333333333333
40
-0.025000000000000001
40
-0.016666666666666666
40
-0.0083333333333333332
40
0
40
0
40
0
40
0
40
0
40
0
41
1
41
1
41
1
41
1
41
1
41
1
41
1
41
1
41
1
41
1
41
1
41
1
41
1
41
1
41
1
41
1
41
1
41
1
41
1
41
1
41
1
41
1
41
1
41
1
41
1
41
1
41
1
41
1
41
1
41
1
41
1
41
1
41
1
41
1
10
50.2509850313497
20
4.1499999999968979
30
0
10
50.282129689953898
20
5.0082065795867603
30
0
10
50.365188704667723
20
6.8008316926194388
30
0
10
50.541929100529956
20
9.5307432628609696
30
0
10
50.835710162820277
20
13.114483976288556
30
0
10
51.145496643316477
20
17.273680937899499
30
0
10
51.245084409317023
20
21.080341475273894
30
0
10
51.039052179937087
20
24.691282690114924
30
0
10
50.493864564718045
20
28.435953327932904
30
0
10
49.624417942759457
20
32.589393061944463
30
0
10
48.489210612752657
20
37.161411453829921
30
0
10
47.166361570694299
20
41.942082709047767
30
0
10
45.719420151952981
20
46.661170811835476
30
0
10
44.17082183919338
20
51.09736199694774
30
0
10
42.46152074680186
20
55.240773873341446
30
0
10
40.474719700391404
20
59.256554189811077
30
0
10
38.090872591976435
20
63.358726775671563
30
0
10
35.228060181683531
20
67.721673465893417
30
0
10
31.899880544862746
20
72.353252930568573
30
0
10
28.198290180449277
20
77.118845935556308
30
0
10
24.25072974234061
20
81.81614242459014
30
0
10
20.184292956443493
20
86.235790654194091
30
0
10
16.08990825899162
20
90.222815063883886
30
0
10
11.97889946921439
20
93.750921896771985
30
0
10
7.7973515824443949
20
96.896433389419656
30
0
10
3.457209990299726
20
99.782813323919413
30
0
10
-1.1391990807801435
20
102.53717769616564
30
0
10
-6.0698648602146097
20
105.2372429040342
30
0
10
-11.372009042767658
20
107.87616273333234
30
0
10
-17.050621164811005
20
110.39379946992852
30
0
10
-21.876353919340715
20
112.23756032216103
30
0
10
-25.634560254245038
20
113.48058921580713
30
0
10
-28.193557156443436
20
114.23649238276639
30
0
10
-29.485317642470875
20
114.5952698924785
30
0
0
SPLINE
5
104
100
AcDbEntity
8
0
100
AcDbSpline
70
4
71
5
72
101
73
95
74
0
42
0.000000001
43
0.0000000001
44
0.0000000001
40
-1
40
-1
40
-1
40
-1
40
-1
40
-1
40
-0.99166666666666559
40
-0.98333333333333228
40
-0.97499999999999898
40
-0.96666666666666567
40
-0.95833333333333237
40
-0.94999999999999907
40
-0.94166666666666576
40
-0.93333333333333246
40
-0.92499999999999916
40
-0.91666666666666585
40
-0.90833333333333255
40
-0.89999999999999925
40
-0.89166666666666594
40
-0.88333333333333264
40
-0.87499999999999933
40
-0.86666666666666603
40
-0.85833333333333273
40
-0.84999999999999942
40
-0.84166666666666612
40
-0.83333333333333282
40
-0.82499999999999951
40
-0.81666666666666621
40
-0.8083333333333329
40
-0.7999999999999996
40
-0.7916666666666663
40
-0.78333333333333299
40
-0.77499999999999969
40
-0.76666666666666639
40
-0.75833333333333308
40
-0.74999999999999978
40
-0.74166666666666647
40
-0.73333333333333317
40
-0.72499999999999987
40
-0.71666666666666656
40
-0.70833333333333326
40
-0.69999999999999996
40
-0.69166666666666665
40
-0.68333333333333335
40
-0.67500000000000004
40
-0.66666666666666674
40
-0.65833333333333344
40
-0.65000000000000013
40
-0.64166666666666683
40
-0.63333333333333353
40
-0.62500000000000022
40
-0.61666666666666692
40
-0.60833333333333361
40
-0.60000000000000031
40
-0.59166666666666701
40
-0.5833333333333337
40
-0.5750000000000004
40
-0.5666666666666671
40
-0.55833333333333379
40
-0.55000000000000049
40
-0.54166666666666718
40
-0.53333333333333388
40
-0.52500000000000058
40
-0.51666666666666727
40
-0.50833333333333397
40
-0.50000000000000067
40
-0.49166666666666736
40
-0.483333333333334
40
-0.47500000000000064
40
-0.46666666666666728
40
-0.45833333333333393
40
-0.45000000000000057
40
-0.44166666666666721
40
-0.43333333333333385
40
-0.42500000000000049
40
-0.41666666666666713
40
-0.40833333333333377
40
-0.40000000000000041
40
-0.39166666666666705
40
-0.38333333333333369
40
-0.37500000000000033
40
-0.36666666666666697
40
-0.35833333333333361
40
-0.35000000000000026
40
-0.3416666666666669
40
-0.33333333333333354
40
-0.32500000000000018
40
-0.31666666666666682
40
-0.30833333333333346
40
-0.3000000000000001
40
-0.29166666666666674
40
-0.28333333333333338
40
-0.27500000000000002
40
-0.26666666666666666
40
-0.2583333333333333
40
-0.25655065078021599
40
-0.25655065078021599
40
-0.25655065078021599
40
-0.25655065078021599
40
-0.25655065078021599
40
-0.25655065078021599
41
1
41
1
41
1
41
1
41
1
41
1
41
1
41
1
41
1
41
1
41
1
41
1
41
1
41
1
41
1
41
1
41
1
41
1
41
1
41
1
41
1
41
1
41
1
41
1
41
1
41
1
41
1
41
1
41
1
41
1
41
1
41
1
41
1
41
1
41
1
41
1
41
1
41
1
41
1
41
1
41
1
41
1
41
1
41
1
41
1
41
1
41
1
41
1
41
1
41
1
41
1
41
1
41
1
41
1
41
1
41
1
41
1
41
1
41
1
41
1
41
1
41
1
41
1
41
1
41
1
41
1
41
1
41
1
41
1
41
1
41
1
41
1
41
1
41
1
41
1
41
1
41
1
41
1
41
1
41
1
41
1
41
1
41
1
41
1
41
1
41
1
41
1
41
1
41
1
41
1
41
1
41
1
41
1
41
1
41
1
10
-29.485317642470875
20
114.5952698924785
30
0
10
-30.777078128498488
20
114.95404740219072
30
0
10
-33.385123170410047
20
115.63325427407997
30
0
10
-37.364046133951504
20
116.53114983964386
30
0
10
-42.773884071034836
20
117.47151133864554
30
0
10
-49.633762304200673
20
118.21296822729656
30
0
10
-56.517564313518648
20
118.53547743390794
30
0
10
-63.36209975945291
20
118.46419768153721
30
0
10
-70.121393244366487
20
118.02413373916075
30
0
10
-76.774925652026297
20
117.2284660670698
30
0
10
-83.331457519537707
20
116.07101731458812
30
0
10
-89.816240037070628
20
114.53410988828119
30
0
10
-96.261064726495505
20
112.59389949821157
30
0
10
-102.69272340565246
20
110.22692697010656
30
0
10
-109.12325189106083
20
107.41561597935086
30
0
10
-115.53666480773089
20
104.15554737726355
30
0
10
-121.88819469272843
20
100.45666270041052
30
0
10
-128.11536687673262
20
96.338777393156732
30
0
10
-134.14572297384635
20
91.828694392447716
30
0
10
-139.90611975886864
20
86.956586543335703
30
0
10
-145.33086703154316
20
81.752880870444756
30
0
10
-150.3715348018595
20
76.244479489026915
30
0
10
-155.00233211876491
20
70.452693075381177
30
0
10
-159.21331345814619
20
64.395848879294917
30
0
10
-163.00579158917304
20
58.091052479514083
30
0
10
-166.3868716036763
20
51.556291617659085
30
0
10
-169.36439489866495
20
44.812375067226711
30
0
10
-171.9416348624062
20
37.884989516693445
30
0
10
-174.11230408805693
20
30.806580328128838
30
0
10
-175.86333190928542
20
23.613545824261195
30
0
10
-177.17744004698466
20
16.343533959533822
30
0
10
-178.03576968621118
20
9.0327587107881477
30
0
10
-178.42053472251106
20
1.7131792594450055
30
0
10
-178.31755004300703
20
-5.5899617857492796
30
0
10
-177.71911400033781
20
-12.861548512746294
30
0
10
-176.62433231982192
20
-20.093109859733072
30
0
10
-175.038892839037
20
-27.277723079810208
30
0
10
-172.97499511616434
20
-34.405616504370798
30
0
10
-170.45130168967603
20
-41.459157237705647
30
0
10
-167.49269007746659
20
-48.408847244583136
30
0
10
-164.13057889982031
20
-55.207008852590711
30
0
10
-160.40082199369613
20
-61.790873345078829
30
0
10
-156.33985037143216
20
-68.092277339180384
30
0
10
-151.98142180299098
20
-74.045245650167814
30
0
10
-147.3529257753984
20
-79.594792025775163
30
0
10
-142.4723242434431
20
-84.70440172763
30
0
10
-137.3437310838633
20
-89.366027881327113
30
0
10
-131.95718463672381
20
-93.602564441154797
30
0
10
-126.29749587469786
20
-97.454216111204175
30
0
10
-120.35102326196321
20
-100.96844520697884
30
0
10
-114.1136825030194
20
-104.18798961070586
30
0
10
-107.59749433956314
20
-107.14087136041898
30
0
10
-100.84007342853774
20
-109.82667660831876
30
0
10
-93.904131943403087
20
-112.21528035147826
30
0
10
-86.865215200631582
20
-114.26013789744211
30
0
10
-79.802682368726693
20
-115.90762741807282
30
0
10
-72.788943620524577
20
-117.10838173320346
30
0
10
-65.88042701336974
20
-117.82687471484863
30
0
10
-59.105401048875876
20
-118.05393777998603
30
0
10
-52.461346163225798
20
-117.8105804759513
30
0
10
-45.929609649699913
20
-117.13621206895887
30
0
10
-39.485967059525748
20
-116.08047749810721
30
0
10
-33.11336955509568
20
-114.69332335205955
30
0
10
-26.812488935177686
20
-113.01657895204914
30
0
10
-20.616491399310934
20
-111.07293000661997
30
0
10
-14.582250483992238
20
-108.86904912953571
30
0
10
-8.7749429795576646
20
-106.40278736965486
30
0
10
-3.2541390292200401
20
-103.66924170704836
30
0
10
1.9391275595900828
20
-100.66676810514338
30
0
10
6.7996106497007966
20
-97.404286214549302
30
0
10
11.359604405831856
20
-93.903572830769747
30
0
10
15.667229290759323
20
-90.193733276651983
30
0
10
19.769198887162229
20
-86.307354196330124
30
0
10
23.694097023120388
20
-82.276358625336755
30
0
10
27.429757779697237
20
-78.127061505304013
30
0
10
30.926265956396229
20
-73.879347213570398
30
0
10
34.122307852241441
20
-69.54971716312906
30
0
10
36.965421575955375
20
-65.153291831733213
30
0
10
39.433784387782381
20
-60.706145852186928
30
0
10
41.559956127493479
20
-56.227758656426616
30
0
10
43.409538566054842
20
-51.738859423006424
30
0
10
45.054439677669237
20
-47.258623459914418
30
0
10
46.55026035158501
20
-42.802478601011771
30
0
10
47.906540588473419
20
-38.378704985605211
30
0
10
49.094322125815744
20
-33.992018258233379
30
0
10
50.065666959037387
20
-29.650247436655299
30
0
10
50.769430503084465
20
-25.368551231307528
30
0
10
51.168127604525083
20
-21.178213380599338
30
0
10
51.254921566746461
20
-17.101893023868982
30
0
10
51.067346186050948
20
-13.128895206057905
30
0
10
50.76562549458076
20
-9.8014106406846579
30
0
10
50.533061584187642
20
-7.2014281705260039
30
0
10
50.40035810424034
20
-5.3591692169008445
30
0
10
50.339545048353919
20
-4.3316270133708237
30
0
10
50.329218329224403
20
-4.14999999999928
30
0
0
CIRCLE
5
105
100
AcDbEntity
8
0
100
AcDbCircle
10
-8.9999999999999947
20
15.588457268119901
30
0
40
3.2000000000000006
210
0
220
0
230
1
0
CIRCLE
5
106
100
AcDbEntity
8
0
100
AcDbCircle
10
8.9999999999999964
20
-15.588457268119903
30
0
40
3.2000000000000006
210
0
220
0
230
1
0
ENDSEC
0
SECTION
2
OBJECTS
0
DICTIONARY
5
C
100
AcDbDictionary
3
ACAD_GROUP
350
D
3
ACAD_MLINESTYLE
350
17
0
DICTIONARY
5
D
100
AcDbDictionary
0
DICTIONARY
5
1A
330
C
100
AcDbDictionary
0
DICTIONARY
5
17
100
AcDbDictionary
0
ENDSEC
0
EOF
