0
SECTION
2
HEADER
9
$INSUNITS
70
4
9
$ACADVER
1
AC1014
9
$HANDSEED
5
FFFF
0
ENDSEC
0
SECTION
2
TABLES
0
TABLE
2
VPORT
5
8
100
AcDbSymbolTable
0
ENDTAB
0
TABLE
2
LTYPE
5
5
100
AcDbSymbolTable
0
LTYPE
5
14
100
AcDbSymbolTableRecord
100
AcDbLinetypeTableRecord
2
BYBLOCK
70
0
0
LTYPE
5
15
100
AcDbSymbolTableRecord
100
AcDbLinetypeTableRecord
2
BYLAYER
70
0
0
ENDTAB
0
TABLE
2
LAYER
5
2
100
AcDbSymbolTable
70
2
0
LAYER
5
50
100
AcDbSymbolTableRecord
100
AcDbLayerTableRecord
2
0
70
0
6
CONTINUOUS
0
ENDTAB
0
TABLE
2
STYLE
5
3
100
AcDbSymbolTable
70
1
0
STYLE
5
11
100
AcDbSymbolTableRecord
100
AcDbTextStyleTableRecord
2
STANDARD
70
0
0
ENDTAB
0
TABLE
2
VIEW
5
6
100
AcDbSymbolTable
70
0
0
ENDTAB
0
TABLE
2
UCS
5
7
100
AcDbSymbolTable
70
0
0
ENDTAB
0
TABLE
2
APPID
5
9
100
AcDbSymbolTable
70
2
0
APPID
5
12
100
AcDbSymbolTableRecord
100
AcDbRegAppTableRecord
2
ACAD
70
0
0
ENDTAB
0
TABLE
2
DIMSTYLE
5
A
100
AcDbSymbolTable
70
1
0
ENDTAB
0
TABLE
2
BLOCK_RECORD
5
1
100
AcDbSymbolTable
70
1
0
BLOCK_RECORD
5
1F
100
AcDbSymbolTableRecord
100
AcDbBlockTableRecord
2
*MODEL_SPACE
0
BLOCK_RECORD
5
1B
100
AcDbSymbolTableRecord
100
AcDbBlockTableRecord
2
*PAPER_SPACE
0
ENDTAB
0
ENDSEC
0
SECTION
2
BLOCKS
0
BLOCK
5
20
100
AcDbEntity
100
AcDbBlockBegin
2
*MODEL_SPACE
0
ENDBLK
5
21
100
AcDbEntity
100
AcDbBlockEnd
0
BLOCK
5
1C
100
AcDbEntity
100
AcDbBlockBegin
2
*PAPER_SPACE
0
ENDBLK
5
1D
100
AcDbEntity
100
AcDbBlockEnd
0
ENDSEC
0
SECTION
2
ENTITIES
0
LINE
5
100
100
AcDbEntity
8
0
100
AcDbLine
10
120.72752835832392
20
99.132284245429204
30
0
11
113.30192272737683
21
91.315908322013854
31
0
0
LINE
5
101
100
AcDbEntity
8
0
100
AcDbLine
10
113.30192272737683
20
91.315908322013854
30
0
11
111.8098020517792
21
92.733432223030263
31
0
0
LINE
5
102
100
AcDbEntity
8
0
100
AcDbLine
10
111.8098020517792
20
92.733432223030263
30
0
11
117.15200066806518
21
98.356762455976479
31
0
0
SPLINE
5
103
100
AcDbEntity
8
0
100
AcDbSpline
70
0
71
3
72
9
73
5
74
0
42
0.000000001
43
0.0000000001
44
0.0000000001
40
0
40
0
40
0
40
0
40
0.15333287375923751
40
0.31011671084778569
40
0.31011671084778569
40
0.31011671084778569
40
0.31011671084778569
10
117.15200066806518
20
98.356762455976465
30
0
10
116.63823138338108
20
98.390244190008573
30
0
10
115.59912974265247
20
98.457961209698794
30
0
10
114.63658939528985
20
98.855780051354031
30
0
10
114.14996367106011
20
99.056902926320447
30
0
0
LINE
5
104
100
AcDbEntity
8
0
100
AcDbLine
10
114.14996367106011
20
99.056902926320447
30
0
11
115.43632877696466
21
100.41096261414035
31
0
0
SPLINE
5
105
100
AcDbEntity
8
0
100
AcDbSpline
70
0
71
3
72
9
73
5
74
0
42
0.000000001
43
0.0000000001
44
0.0000000001
40
0
40
0
40
0
40
0
40
0.092310084654538632
40
0.20231293332005096
40
0.20231293332005096
40
0.20231293332005096
40
0.20231293332005096
10
115.43632877696466
20
100.41096261414037
30
0
10
115.72415505168195
20
100.29870505566608
30
0
10
116.35497429686583
20
100.05267390936964
30
0
10
117.02804521688887
20
99.973292534501581
30
0
10
117.39401153125851
20
99.930130798753027
30
0
0
SPLINE
5
106
100
AcDbEntity
8
0
100
AcDbSpline
70
0
71
3
72
9
73
5
74
0
42
0.000000001
43
0.0000000001
44
0.0000000001
40
0
40
0
40
0
40
0
40
0.11270810935552886
40
0.21742062626120065
40
0.21742062626120065
40
0.21742062626120065
40
0.21742062626120065
10
117.39401153125851
20
99.930130798753027
30
0
10
117.7742847079442
20
99.912509839799725
30
0
10
118.50785421503738
20
99.878517965099178
30
0
10
119.18885913450048
20
100.15114524791058
30
0
10
119.51683969627318
20
100.28244598717916
30
0
0
LINE
5
107
100
AcDbEntity
8
0
100
AcDbLine
10
119.51683969627318
20
100.28244598717913
30
0
11
120.72752835832392
21
99.132284245429204
31
0
0
LWPOLYLINE
5
108
100
AcDbEntity
8
0
100
AcDbPolyline
90
6
70
1
43
0.0
10
126.17876485664461
20
79.082828393313648
10
131.65872406382167
20
73.87683314118226
10
132.9047326173841
20
75.188412525070575
10
128.99654465567644
20
78.901215340544127
10
135.08533949029135
20
85.310431196225025
10
133.51356824482198
20
86.803623632882875
0
LWPOLYLINE
5
109
100
AcDbEntity
8
0
100
AcDbPolyline
90
12
70
1
43
0.0
10
118.09157699566529
20
86.765707045441644
10
119.97664048263026
20
84.974885035260797
10
124.265309372524
20
86.022544788985556
10
123.43347521506462
20
81.690870588422101
10
125.3291587780125
20
79.889959440155735
10
126.47243480253903
20
86.421057176133758
10
132.48554528508774
20
87.90148074254671
10
130.66420225402018
20
89.631767924214387
10
126.75891929334105
20
88.583575914556874
10
127.57376014299592
20
92.567707107102436
10
125.73648699795399
20
94.313127995898412
10
124.61100134709574
20
88.300557018477136
0
LWPOLYLINE
5
110
100
AcDbEntity
8
0
100
AcDbPolyline
90
10
70
1
43
0.0
10
130.29101196201489
20
98.299048190068419
42
-0.99999999999999989
10
132.28530096990363
20
101.17529771864632
42
-0.076904766290539356
10
150.79822608389063
20
83.587903980340016
10
152.26919655532265
20
84.723704152126771
42
-0.57735026919211274
10
153.47084930438874
20
84.230215884034351
10
154.43447706975371
20
77.077960659933524
42
-0.57735026918962984
10
153.40627733055439
20
76.284042996010797
10
146.73042872945064
20
79.025644483463111
42
-0.57735026918713017
10
146.55697573156428
20
80.313050424660361
10
148.02794620299639
20
81.44885059644723
42
0.076904766290378304
0
ARC
5
111
100
AcDbEntity
8
0
100
AcDbCircle
10
-2.2204460492503131e-15
20
5.5511151231257827e-16
30
0
40
35.000000000000007
210
0
220
0
230
1
100
AcDbArc
50
266.38779996124305
51
303.61220003875701
0
ARC
5
112
100
AcDbEntity
8
0
100
AcDbCircle
10
24.910600109422326
20
-37.476152446435215
30
0
40
10.000000000000046
210
0
220
-0
230
1
100
AcDbArc
50
60.000000000000007
51
123.61220003875665
0
LINE
5
113
100
AcDbEntity
8
0
100
AcDbLine
10
29.910600109422347
20
-28.815898408590787
30
0
11
80.567035651873312
21
-58.062405105211823
31
0
0
SPLINE
5
114
100
AcDbEntity
8
0
100
AcDbSpline
70
0
71
3
72
20
73
16
74
0
42
0.000000001
43
0.0000000001
44
0.0000000001
40
0
40
0
40
0
40
0
40
1.1328689728220911
40
1.1328689728220911
40
2.2657379456441822
40
2.2657379456441822
40
3.3986069184662724
40
3.3986069184662724
40
4.5314758912883608
40
4.5314758912883608
40
5.6643448641104523
40
5.6643448641104523
40
6.6928410485885124
40
6.6928410485885124
40
7.7213372330665706
40
7.7213372330665706
40
7.7213372330665706
40
7.7213372330665706
10
65.006845665673708
20
-112.15775597672673
30
0
10
68.780551251558009
20
-112.29580842967641
30
0
10
72.545142869103941
20
-111.69545241027393
30
0
10
79.632303020015414
20
-109.0855079070073
30
0
10
82.887114439537513
20
-107.10087191512403
30
0
10
88.452792816678738
20
-101.99569086867511
30
0
10
90.710448855483349
20
-98.923954127452149
30
0
10
93.921241256201213
20
-92.087985909687276
30
0
10
94.843680692746545
20
-88.389110015197744
30
0
10
95.218803338446278
20
-80.845971920513122
30
0
10
94.667900170650171
20
-77.073826231831134
30
0
10
92.267116584329585
20
-70.281051656642262
30
0
10
90.56050339581644
20
-67.276719804361278
30
0
10
86.177708275790224
20
-62.003709668698306
30
0
10
83.53604839671786
20
-59.776565412675254
30
0
10
80.567035651873312
20
-58.062405105211823
30
0
0
SPLINE
5
115
100
AcDbEntity
8
0
100
AcDbSpline
70
0
71
3
72
20
73
16
74
0
42
0.000000001
43
0.0000000001
44
0.0000000001
40
-0.63027955827185189
40
-0.63027955827185189
40
-0.63027955827185189
40
-0.63027955827185189
40
-0.60372138185503343
40
-0.60372138185503343
40
-0.60372138185503343
40
-0.58578338460792612
40
-0.58578338460792612
40
-0.58578338460792612
40
-0.55729334793890939
40
-0.55729334793890939
40
-0.55729334793890939
40
-0.53159298966751478
40
-0.53159298966751478
40
-0.53159298966751478
40
-0.50951130012681101
40
-0.50951130012681101
40
-0.50951130012681101
40
-0.50951130012681101
10
65.006845665673723
20
-112.15775597672672
30
0
10
57.165958108139108
20
-111.87091490341427
30
0
10
48.986910234163304
20
-110.82080223475378
30
0
10
41.723280325569938
20
-109.27850794824866
30
0
10
36.817259247185859
20
-108.2368072594906
30
0
10
32.357081196798639
20
-106.9853933853783
30
0
10
28.439888718083743
20
-105.62239543748233
30
0
10
22.218405025071103
20
-103.45761299380047
30
0
10
17.281989932180185
20
-101.02956520773355
30
0
10
12.319825105993601
20
-98.180705735940904
30
0
10
7.8435439654572825
20
-95.610799984659394
30
0
10
3.3526864534364513
20
-92.725358373845665
30
0
10
-0.8885854676720073
20
-89.508784453024191
30
0
10
-4.5326766834688677
20
-86.745111435151884
30
0
10
-7.9860355384869441
20
-83.687198416049227
30
0
10
-11.220875550132272
20
-80.180799401842648
30
0
0
SPLINE
5
116
100
AcDbEntity
8
0
100
AcDbSpline
70
0
71
3
72
14
73
10
74
0
42
0.000000001
43
0.0000000001
44
0.0000000001
40
0
40
0
40
0
40
0
40
1.1328689728220878
40
1.1328689728220878
40
2.2657379456441786
40
2.2657379456441786
40
2.9769779396807019
40
2.9769779396807019
40
3.6882179337172296
40
3.6882179337172296
40
3.6882179337172296
40
3.6882179337172296
10
-15.02075066085051
20
-46.016703312416823
30
0
10
-16.908865615553982
20
-49.287014344493869
30
0
10
-18.140164696719769
20
-52.894850256734074
30
0
10
-19.150518845696606
20
-60.379423311253902
30
0
10
-18.919914377157912
20
-64.184603855724802
30
0
10
-17.367939211120948
20
-70.132489996763809
30
0
10
-16.490315473288991
20
-72.344450567206209
30
0
10
-14.216292030170159
20
-76.505170163998002
30
0
10
-12.828449295577887
20
-78.438272730970951
30
0
10
-11.220875550132254
20
-80.180799401842663
30
0
0
LINE
5
117
100
AcDbEntity
8
0
100
AcDbLine
10
-15.02075066085051
20
-46.016703312416823
30
0
11
-11.495390332901962
21
-39.910600109422347
31
0
0
ARC
5
118
100
AcDbEntity
8
0
100
AcDbCircle
10
-2.8351362950575809
20
-44.91060010942234
30
0
40
9.9999999999999805
210
0
220
-0
230
1
100
AcDbArc
50
86.387799961242948
51
150.00000000000003
0
ARC
5
119
100
AcDbEntity
8
0
100
AcDbCircle
10
-2.2204460492503131e-15
20
5.5511151231257827e-16
30
0
40
35.000000000000007
210
-0
220
0
230
1
100
AcDbArc
50
-3.6122000387568414
51
3.6122000387569599
0
ARC
5
120
100
AcDbEntity
8
0
100
AcDbCircle
10
44.910600109422354
20
2.8351362950576053
30
0
40
9.9999999999999982
210
0
220
0
230
1
100
AcDbArc
50
120.00000000000006
51
183.61220003875692
0
LINE
5
121
100
AcDbEntity
8
0
100
AcDbLine
10
39.910600109422347
20
11.495390332901984
30
0
11
126.71412932486103
21
61.611431291965744
31
0
0
SPLINE
5
122
100
AcDbEntity
8
0
100
AcDbSpline
70
0
71
3
72
16
73
12
74
0
42
0.000000001
43
0.0000000001
44
0.0000000001
40
0
40
0
40
0
40
0
40
1.1328689728220906
40
1.1328689728220906
40
2.265737945644184
40
2.265737945644184
40
3.3986069184662799
40
3.3986069184662799
40
4.0903889122032213
40
4.0903889122032213
40
4.7821709059401574
40
4.7821709059401574
40
4.7821709059401574
40
4.7821709059401574
10
167.33198841851612
20
49.100560511480182
30
0
10
165.69077822898933
20
52.501492948694015
30
0
10
163.40098117292308
20
55.549345773054178
30
0
10
157.78198494804013
20
60.595783203514451
30
0
10
154.50650644572281
20
62.546121117258394
30
0
10
147.39232238760974
20
65.081477995902773
30
0
10
143.62163230893944
20
65.642257567167107
30
0
10
137.54619913923554
20
65.356071695042047
30
0
10
135.26395387290282
20
64.973224765472693
30
0
10
130.83854377670593
20
63.675079076517832
30
0
10
128.71113192638464
20
62.764401281525949
30
0
10
126.71412932486106
20
61.611431291965758
30
0
0
SPLINE
5
123
100
AcDbEntity
8
0
100
AcDbSpline
70
0
71
3
72
20
73
16
74
0
42
0.000000001
43
0.0000000001
44
0.0000000001
40
-0.90399774391396281
40
-0.90399774391396281
40
-0.90399774391396281
40
-0.90399774391396281
40
-0.89224759632592621
40
-0.89224759632592621
40
-0.89224759632592621
40
-0.85808028957627536
40
-0.85808028957627536
40
-0.85808028957627536
40
-0.83190349041161216
40
-0.83190349041161216
40
-0.83190349041161216
40
-0.80096706762132985
40
-0.80096706762132985
40
-0.80096706762132985
40
-0.78313786999580848
40
-0.78313786999580848
40
-0.78313786999580848
40
-0.78313786999580848
10
167.33198841847778
20
49.100560511559195
30
0
10
168.76995644587976
20
46.120788548610108
30
0
10
170.09659578381536
20
43.042644123991209
30
0
10
171.30233198495046
20
39.869081930596444
30
0
10
174.80839506498228
20
30.640936314688293
30
0
10
177.26324508439632
20
20.631853765131854
30
0
10
178.39844683839567
20
10.786135400541417
30
0
10
179.26816561791634
20
3.2429774293807592
30
0
10
179.36986402580945
20
-4.1593285907779034
30
0
10
178.71506444071997
20
-11.307244114457042
30
0
10
177.94120524274075
20
-19.754836783016415
30
0
10
176.11967872797706
20
-27.920229516646472
30
0
10
173.27941894635791
20
-35.999291173971059
30
0
10
171.64252791672618
20
-40.655394689677429
30
0
10
169.66339584904037
20
-45.283772483874493
30
0
10
167.36831374419697
20
-49.802179566061071
30
0
0
SPLINE
5
124
100
AcDbEntity
8
0
100
AcDbSpline
70
0
71
3
72
16
73
12
74
0
42
0.000000001
43
0.0000000001
44
0.0000000001
40
0
40
0
40
0
40
0
40
1.132868972822084
40
1.132868972822084
40
2.2657379456441742
40
2.2657379456441742
40
3.3986069184662648
40
3.3986069184662648
40
4.0607552756148495
40
4.0607552756148495
40
4.7229036327634439
40
4.7229036327634439
40
4.7229036327634439
40
4.7229036327634439
10
127.01256859735791
20
-61.783735286357754
30
0
10
130.28287962943492
20
-63.671850241061222
30
0
10
133.89071554167509
20
-64.903149322227137
30
0
10
141.37528859619491
20
-65.913503471203981
30
0
10
145.18046914066582
20
-65.682899002665295
30
0
10
152.48825385855037
20
-63.776087047633482
30
0
10
155.92099162701061
20
-62.118109722723283
30
0
10
160.70355431253407
20
-58.52254812355298
30
0
10
162.31058019621941
20
-56.999130746726678
30
0
10
165.14780931414026
20
-53.617360054362031
30
0
10
166.36876038606655
20
-51.77003464317616
30
0
10
167.36831374425356
20
-49.802179565949764
30
0
0
LINE
5
125
100
AcDbEntity
8
0
100
AcDbLine
10
127.01256859735791
20
-61.783735286357754
30
0
11
39.910600109422347
21
-11.495390332901989
31
0
0
ARC
5
126
100
AcDbEntity
8
0
100
AcDbCircle
10
44.910600109422354
20
-2.8351362950576
30
0
40
9.9999999999999982
210
0
220
0
230
1
100
AcDbArc
50
176.38779996124296
51
239.99999999999997
0
ARC
5
127
100
AcDbEntity
8
0
100
AcDbCircle
10
-2.2204460492503131e-15
20
5.5511151231257827e-16
30
0
40
35.000000000000007
210
0
220
-0
230
1
100
AcDbArc
50
56.387799961243033
51
93.612200038756981
0
ARC
5
128
100
AcDbEntity
8
0
100
AcDbCircle
10
-2.8351362950576009
20
44.910600109422347
30
0
40
9.9999999999999876
210
0
220
0
230
1
100
AcDbArc
50
209.99999999999997
51
273.61220003875712
0
LINE
5
129
100
AcDbEntity
8
0
100
AcDbLine
10
-11.495390332901977
20
39.910600109422354
30
0
11
-14.686032063847447
21
45.436953696172857
31
0
0
SPLINE
5
130
100
AcDbEntity
8
0
100
AcDbSpline
70
0
71
3
72
14
73
10
74
0
42
0.000000001
43
0.0000000001
44
0.0000000001
40
0
40
0
40
0
40
0
40
1.1328689728220902
40
1.1328689728220902
40
2.2657379456441795
40
2.2657379456441795
40
2.9279410396725987
40
2.9279410396725987
40
3.5901441337010178
40
3.5901441337010178
40
3.5901441337010178
40
3.5901441337010178
10
-11.536626416967637
20
78.87168979938113
30
0
10
-14.002209754887931
20
76.01147807077264
30
0
10
-15.885557820002267
20
72.697028272908753
30
0
10
-18.275767374158825
20
65.532773419679586
30
0
10
-18.759777157098441
20
61.751462545531759
30
0
10
-18.356784133860589
20
55.781475181617253
30
0
10
-17.957157953465309
20
53.603299895668499
30
0
10
-16.671521262136025
20
49.379959724962447
30
0
10
-15.789703887227633
20
47.348569369150709
30
0
10
-14.686032063847449
20
45.436953696172857
30
0
0
SPLINE
5
131
100
AcDbEntity
8
0
100
AcDbSpline
70
0
71
3
72
26
73
22
74
0
42
0.000000001
43
0.0000000001
44
0.0000000001
40
-0.18594969735068206
40
-0.18594969735068206
40
-0.18594969735068206
40
-0.18594969735068206
40
-0.18317313228205628
40
-0.18317313228205628
40
-0.18317313228205628
40
-0.16588573766381079
40
-0.16588573766381079
40
-0.16588573766381079
40
-0.14515002045583444
40
-0.14515002045583444
40
-0.14515002045583444
40
-0.12524783459518057
40
-0.12524783459518057
40
-0.12524783459518057
40
-0.10012679405545696
40
-0.10012679405545696
40
-0.10012679405545696
40
-0.075998092647572943
40
-0.075998092647572943
40
-0.075998092647572943
40
-0.056969597243422904
40
-0.056969597243422904
40
-0.056969597243422904
40
-0.056969597243422904
10
-11.536626416903148
20
78.87168979945595
30
0
10
-11.120661097103872
20
79.354232355647284
30
0
10
-10.705590883046641
20
79.83008788391885
30
0
10
-10.292411081276128
20
80.297914322096346
30
0
10
-7.7198791560543985
20
83.210686056138684
30
0
10
-5.2318908887483273
20
85.797747858585296
30
0
10
-2.7504925065903874
20
88.082671680842296
30
0
10
0.22587126996457374
20
90.823370049009625
30
0
10
3.2351559887427399
20
93.183860291867177
30
0
10
6.7767929719986286
20
95.500970831202125
30
0
10
10.176063746419221
20
97.724938497764668
30
0
10
14.089003068697536
20
99.908472104530517
30
0
10
18.419859975086187
20
101.9627984021617
30
0
10
23.886376702387864
20
104.55582082522321
30
0
10
29.951785032281322
20
106.90435508632957
30
0
10
36.024431286228435
20
108.67711511842339
30
0
10
41.85719398511015
20
110.37984703410913
30
0
10
47.676837419666171
20
111.55251068228824
30
0
10
53.583307578146766
20
112.17715719854846
30
0
10
58.241297180051887
20
112.66976901229455
30
0
10
62.99566809467219
20
112.8300746173452
30
0
10
67.915705493831794
20
112.66433689251133
30
0
0
SPLINE
5
132
100
AcDbEntity
8
0
100
AcDbSpline
70
0
71
3
72
20
73
16
74
0
42
0.000000001
43
0.0000000001
44
0.0000000001
40
0
40
0
40
0
40
0
40
1.1328689728220893
40
1.1328689728220893
40
2.2657379456441791
40
2.2657379456441791
40
3.3986069184662684
40
3.3986069184662684
40
4.5314758912883573
40
4.5314758912883573
40
5.664344864110447
40
5.664344864110447
40
6.5902761029605461
40
6.5902761029605461
40
7.5162073418106461
40
7.5162073418106461
40
7.5162073418106461
40
7.5162073418106461
10
81.43935737178586
20
58.566040285041019
30
0
10
84.709668403863404
20
60.454155239743628
30
0
10
87.579922643930175
20
62.962983251845806
30
0
10
92.197201531024646
20
68.939636579050799
30
0
10
93.9000824752803
20
72.350321830817791
30
0
10
95.902627240927103
20
79.632455019408866
30
0
10
96.183145642887453
20
83.434281793880771
30
0
10
95.271095405698702
20
90.931468845011523
30
0
10
94.087246463922924
20
94.55515192717894
30
0
10
90.397171548160543
20
101.14476469507814
30
0
10
87.926224701614885
20
104.0476940911324
30
0
10
82.550964208862254
20
108.31416547824715
30
0
10
79.842579206042146
20
109.83480082494502
30
0
10
74.048806732147312
20
111.96472696654497
30
0
10
71.000393255025315
20
112.56042525731715
30
0
10
67.915705493832235
20
112.6643368925113
30
0
0
LINE
5
133
100
AcDbEntity
8
0
100
AcDbLine
10
81.43935737178586
20
58.566040285041019
30
0
11
29.91060010942234
21
28.815898408590751
31
0
0
ARC
5
134
100
AcDbEntity
8
0
100
AcDbCircle
10
24.910600109422354
20
37.476152446435151
30
0
40
10
210
0
220
0
230
1
100
AcDbArc
50
236.38779996124288
51
299.99999999999983
0
LINE
5
135
100
AcDbEntity
8
0
100
AcDbLine
10
3.9532011979922728
20
-4.5135573872714279
30
0
11
-49.928717319641166
21
0.22353140635744229
31
0
0
SPLINE
5
136
100
AcDbEntity
8
0
100
AcDbSpline
70
4
71
5
72
90
73
84
74
0
42
0.000000001
43
0.0000000001
44
0.0000000001
40
0.34557068833151305
40
0.34557068833151305
40
0.34557068833151305
40
0.34557068833151305
40
0.34557068833151305
40
0.34557068833151305
40
0.35000000000000026
40
0.35833333333333361
40
0.36666666666666697
40
0.37500000000000033
40
0.38333333333333369
40
0.39166666666666705
40
0.40000000000000041
40
0.40833333333333377
40
0.41666666666666713
40
0.42500000000000049
40
0.43333333333333385
40
0.44166666666666721
40
0.45000000000000057
40
0.45833333333333393
40
0.46666666666666728
40
0.47500000000000064
40
0.483333333333334
40
0.49166666666666736
40
0.50000000000000067
40
0.50833333333333397
40
0.51666666666666727
40
0.52500000000000058
40
0.53333333333333388
40
0.54166666666666718
40
0.55000000000000049
40
0.55833333333333379
40
0.5666666666666671
40
0.5750000000000004
40
0.5833333333333337
40
0.59166666666666701
40
0.60000000000000031
40
0.60833333333333361
40
0.61666666666666692
40
0.62500000000000022
40
0.63333333333333353
40
0.64166666666666683
40
0.65000000000000013
40
0.65833333333333344
40
0.66666666666666674
40
0.67500000000000004
40
0.68333333333333335
40
0.69166666666666665
40
0.69999999999999996
40
0.70833333333333326
40
0.71666666666666656
40
0.72499999999999987
40
0.73333333333333317
40
0.74166666666666647
40
0.74999999999999978
40
0.75833333333333308
40
0.76666666666666639
40
0.77499999999999969
40
0.78333333333333299
40
0.7916666666666663
40
0.7999999999999996
40
0.8083333333333329
40
0.81666666666666621
40
0.82499999999999951
40
0.83333333333333282
40
0.84166666666666612
40
0.84999999999999942
40
0.85833333333333273
40
0.86666666666666603
40
0.87499999999999933
40
0.88333333333333264
40
0.89166666666666594
40
0.89999999999999925
40
0.90833333333333255
40
0.91666666666666585
40
0.92499999999999916
40
0.93333333333333246
40
0.94166666666666576
40
0.94999999999999907
40
0.95833333333333237
40
0.96666666666666567
40
0.97499999999999898
40
0.98333333333333228
40
0.99166666666666559
40
1
40
1
40
1
40
1
40
1
40
1
41
1
41
1
41
1
41
1
41
1
41
1
41
1
41
1
41
1
41
1
41
1
41
1
41
1
41
1
41
1
41
1
41
1
41
1
41
1
41
1
41
1
41
1
41
1
41
1
41
1
41
1
41
1
41
1
41
1
41
1
41
1
41
1
41
1
41
1
41
1
41
1
41
1
41
1
41
1
41
1
41
1
41
1
41
1
41
1
41
1
41
1
41
1
41
1
41
1
41
1
41
1
41
1
41
1
41
1
41
1
41
1
41
1
41
1
41
1
41
1
41
1
41
1
41
1
41
1
41
1
41
1
41
1
41
1
41
1
41
1
41
1
41
1
41
1
41
1
41
1
41
1
41
1
41
1
41
1
41
1
41
1
41
1
41
1
41
1
10
-49.928717319641166
20
0.22353140635743557
30
0
10
-49.925450331083908
20
-0.33728805733712452
30
0
10
-49.938469143049289
20
-1.9519143057202173
30
0
10
-50.067491266939243
20
-4.6051182545255509
30
0
10
-50.48324965652715
20
-8.2081755739027251
30
0
10
-51.257577843005578
20
-12.492954587177085
30
0
10
-52.050002200814625
20
-16.675826560779406
30
0
10
-52.444223559250162
20
-20.36640995163711
30
0
10
-52.311674375334654
20
-23.902606723537261
30
0
10
-51.703970087766926
20
-27.751801895826986
30
0
10
-50.753626514346458
20
-32.279019958097145
30
0
10
-49.58466929393709
20
-37.477214143257612
30
0
10
-48.277826321416441
20
-43.001181025698578
30
0
10
-46.877639678850599
20
-48.406612077874492
30
0
10
-45.387447214655197
20
-53.307048049019308
30
0
10
-43.766563265508196
20
-57.608151071067233
30
0
10
-41.936639661190604
20
-61.554479566455321
30
0
10
-39.807318737664403
20
-65.507604892823792
30
0
10
-37.295725479810812
20
-69.80195856292832
30
0
10
-34.351627925894334
20
-74.535617479814306
30
0
10
-30.960754058593167
20
-79.596042980044913
30
0
10
-27.141226544202542
20
-84.758931128257728
30
0
10
-22.942178660715719
20
-89.763170561178896
30
0
10
-18.441626396729884
20
-94.396182465334704
30
0
10
-13.744289366863939
20
-98.573562530233374
30
0
10
-8.9560496369887925
20
-102.30423922924074
30
0
10
-4.1577853460351157
20
-105.65570441189914
30
0
10
0.61866995741726216
20
-108.72033033756276
30
0
10
5.4199281983872378
20
-111.57882607037068
30
0
10
10.384851924730887
20
-114.27222855404128
30
0
10
15.692237500741463
20
-116.81161921682003
30
0
10
21.515705004167852
20
-119.18253977165166
30
0
10
27.980158001288352
20
-121.35141842462278
30
0
10
35.10699946736181
20
-123.27123160307002
30
0
10
42.803923484567534
20
-124.88710906698438
30
0
10
50.908608232909273
20
-126.1413060013918
30
0
10
59.21811165858891
20
-126.97830787678789
30
0
10
67.524689174388129
20
-127.35000410845929
30
0
10
75.647408027183062
20
-127.22055022846183
30
0
10
83.46904177787107
20
-126.57205281764469
30
0
10
90.96016062575498
20
-125.40782416260978
30
0
10
98.150554500130681
20
-123.74514801281114
30
0
10
105.10847465414602
20
-121.60965506352461
30
0
10
111.91629315049767
20
-119.0288832055345
30
0
10
118.6489739441474
20
-116.02662775705116
30
0
10
125.34826132394535
20
-112.61588981150757
30
0
10
132.00865928412009
20
-108.79586593311868
30
0
10
138.59216010384517
20
-104.55890862440503
30
0
10
145.03740097076368
20
-99.895531207660341
30
0
10
151.27110690027513
20
-94.800263496330089
30
0
10
157.21834882576169
20
-89.276971720608174
30
0
10
162.81378844415343
20
-83.344826752547633
30
0
10
168.01110924409494
20
-77.04279999022701
30
0
10
172.77865731389849
20
-70.422328571274562
30
0
10
177.09627202563843
20
-63.540967704302453
30
0
10
180.95171883645315
20
-56.455806779033608
30
0
10
184.33718317902773
20
-49.216675629605163
30
0
10
187.24600512940714
20
-41.860167575102622
30
0
10
189.66863243189255
20
-34.401428843498174
30
0
10
191.59312880610028
20
-26.838580194086266
30
0
10
193.00729817385752
20
-19.161645452090262
30
0
10
193.90024440591367
20
-11.359813693037177
30
0
10
194.26423811574014
20
-3.4297892651077722
30
0
10
194.096289595256
20
4.6172367857790446
30
0
10
193.40025712873924
20
12.745747192999616
30
0
10
192.187055576739
20
20.89662580636675
30
0
10
190.4732143806811
20
28.997154723031837
30
0
10
188.27989833149724
20
36.968385057801754
30
0
10
185.63174415548235
20
44.733639174976936
30
0
10
182.55577201777811
20
52.226392684044079
30
0
10
179.08028134818977
20
59.398748977778659
30
0
10
175.23371223623028
20
66.22874777063285
30
0
10
171.04282908800388
20
72.712996564913283
30
0
10
166.53094558891556
20
78.860195801800359
30
0
10
161.71613772081213
20
84.684339834755235
30
0
10
156.60944865409365
20
90.198044083195725
30
0
10
151.21312072392624
20
95.405854588117407
30
0
10
145.51873892684949
20
100.29746291446364
30
0
10
139.51358010414421
20
104.85209981346557
30
0
10
133.18705001666581
20
109.04305216443549
30
0
10
127.86708145662789
20
112.08231555218957
30
0
10
123.73736448746207
20
114.17409059395598
30
0
10
120.92668322105692
20
115.48283954022408
30
0
10
119.50776141103282
20
116.11557716656694
30
0
0
SPLINE
5
137
100
AcDbEntity
8
0
100
AcDbSpline
70
4
71
5
72
51
73
45
74
0
42
0.000000001
43
0.0000000001
44
0.0000000001
40
0
40
0
40
0
40
0
40
0
40
0
40
0.0083333333333333332
40
0.016666666666666666
40
0.025000000000000001
40
0.033333333333333333
40
0.041666666666666664
40
0.049999999999999996
40
0.058333333333333327
40
0.066666666666666666
40
0.074999999999999997
40
0.083333333333333329
40
0.09166666666666666
40
0.099999999999999992
40
0.10833333333333332
40
0.11666666666666665
40
0.12499999999999999
40
0.13333333333333333
40
0.14166666666666666
40
0.14999999999999999
40
0.15833333333333333
40
0.16666666666666666
40
0.17499999999999999
40
0.18333333333333332
40
0.19166666666666665
40
0.19999999999999998
40
0.20833333333333331
40
0.21666666666666665
40
0.22499999999999998
40
0.23333333333333331
40
0.24166666666666664
40
0.24999999999999997
40
0.2583333333333333
40
0.26666666666666666
40
0.27500000000000002
40
0.28333333333333338
40
0.29166666666666674
40
0.3000000000000001
40
0.30833333333333346
40
0.31666666666666682
40
0.32500000000000018
40
0.33208379874958238
40
0.33208379874958238
40
0.33208379874958238
40
0.33208379874958238
40
0.33208379874958238
40
0.33208379874958238
41
1
41
1
41
1
41
1
41
1
41
1
41
1
41
1
41
1
41
1
41
1
41
1
41
1
41
1
41
1
41
1
41
1
41
1
41
1
41
1
41
1
41
1
41
1
41
1
41
1
41
1
41
1
41
1
41
1
41
1
41
1
41
1
41
1
41
1
41
1
41
1
41
1
41
1
41
1
41
1
41
1
41
1
41
1
41
1
41
1
10
119.50776141103282
20
116.11557716656694
30
0
10
118.08883960100887
20
116.74831479290974
30
0
10
115.22383362731827
20
117.97051635201311
30
0
10
110.84965547508634
20
119.67282815127038
30
0
10
104.8889116390701
20
121.67831371601602
30
0
10
97.302930947120743
20
123.74744541966963
30
0
10
89.667246133676827
20
125.38640384600214
30
0
10
82.062775212451541
20
126.60406530247297
30
0
10
74.554951417340746
20
127.40696269804263
30
0
10
67.183614916657277
20
127.79598122272297
30
0
10
59.950414045630041
20
127.76210524058737
30
0
10
52.832147107550647
20
127.29201699606266
30
0
10
45.797128479418312
20
126.37481085778488
30
0
10
38.820947912279408
20
125.00855678744725
30
0
10
31.901424204480922
20
123.20638116480623
30
0
10
25.076450876822953
20
121.00407533261041
30
0
10
18.43284245262123
20
118.46302815768189
30
0
10
12.076839712869052
20
115.65315479767736
30
0
10
6.1108210249869002
20
112.63916747672036
30
0
10
0.60640574226445432
20
109.46470372061567
30
0
10
-4.4181785944592216
20
106.13929336178182
30
0
10
-9.0297440281723098
20
102.61903029644826
30
0
10
-13.350237972394829
20
98.830915942309105
30
0
10
-17.512116476315068
20
94.707919172483841
30
0
10
-21.620136714513272
20
90.218949277817032
30
0
10
-25.707308882227476
20
85.404219970913985
30
0
10
-29.70238727951287
20
80.399012285767824
30
0
10
-33.477927975160299
20
75.376496321549212
30
0
10
-36.892258753081116
20
70.495600356367646
30
0
10
-39.830816888858543
20
65.852141444454389
30
0
10
-42.254719001105812
20
61.416271342536099
30
0
10
-44.223926538689049
20
57.015569506089619
30
0
10
-45.847359281590784
20
52.454916364640368
30
0
10
-47.248586177080448
20
47.600688122067602
30
0
10
-48.520935507855384
20
42.501825819660269
30
0
10
-49.701080983320352
20
37.420255155231153
30
0
10
-50.772773399871845
20
32.65335083971933
30
0
10
-51.670164234184533
20
28.416232897116554
30
0
10
-52.269168021533794
20
24.66053116946955
30
0
10
-52.423058025743885
20
21.052511725686266
30
0
10
-52.070974200918329
20
17.312055360466104
30
0
10
-51.489886043367584
20
13.964658136845093
30
0
10
-51.019856574024217
20
11.278988964975296
30
0
10
-50.73577685774228
20
9.4633004436271033
30
0
10
-50.61307236370908
20
8.6157118556363663
30
0
0
LINE
5
138
100
AcDbEntity
8
0
100
AcDbLine
10
-50.61307236370908
20
8.6157118556363663
30
0
11
4.6801011434812168
21
3.7545510100124964
31
0
0
ARC
5
139
100
AcDbEntity
8
0
100
AcDbCircle
10
-2.2204460492503131e-15
20
5.5511151231257827e-16
30
0
40
6.0000000000000036
210
0
220
0
230
1
100
AcDbArc
50
-48.786489267389697
51
38.737881138387792
0
CIRCLE
5
140
100
AcDbEntity
8
0
100
AcDbCircle
10
-10.330629435422722
20
-14.740356015645537
30
0
40
3.2000000000000006
210
0
220
-0
230
1
0
CIRCLE
5
141
100
AcDbEntity
8
0
100
AcDbCircle
10
10.330629435422727
20
14.740356015645538
30
0
40
3.2000000000000006
210
0
220
-0
230
1
0
ENDSEC
0
SECTION
2
OBJECTS
0
DICTIONARY
5
C
100
AcDbDictionary
3
ACAD_GROUP
350
D
3
ACAD_MLINESTYLE
350
17
0
DICTIONARY
5
D
100
AcDbDictionary
0
DICTIONARY
5
1A
330
C
100
AcDbDictionary
0
DICTIONARY
5
17
100
AcDbDictionary
0
ENDSEC
0
EOF
