0
SECTION
2
HEADER
9
$INSUNITS
70
4
9
$ACADVER
1
AC1014
9
$HANDSEED
5
FFFF
0
ENDSEC
0
SECTION
2
TABLES
0
TABLE
2
VPORT
5
8
100
AcDbSymbolTable
0
ENDTAB
0
TABLE
2
LTYPE
5
5
100
AcDbSymbolTable
0
LTYPE
5
14
100
AcDbSymbolTableRecord
100
AcDbLinetypeTableRecord
2
BYBLOCK
70
0
0
LTYPE
5
15
100
AcDbSymbolTableRecord
100
AcDbLinetypeTableRecord
2
BYLAYER
70
0
0
ENDTAB
0
TABLE
2
LAYER
5
2
100
AcDbSymbolTable
70
2
0
LAYER
5
50
100
AcDbSymbolTableRecord
100
AcDbLayerTableRecord
2
0
70
0
6
CONTINUOUS
0
ENDTAB
0
TABLE
2
STYLE
5
3
100
AcDbSymbolTable
70
1
0
STYLE
5
11
100
AcDbSymbolTableRecord
100
AcDbTextStyleTableRecord
2
STANDARD
70
0
0
ENDTAB
0
TABLE
2
VIEW
5
6
100
AcDbSymbolTable
70
0
0
ENDTAB
0
TABLE
2
UCS
5
7
100
AcDbSymbolTable
70
0
0
ENDTAB
0
TABLE
2
APPID
5
9
100
AcDbSymbolTable
70
2
0
APPID
5
12
100
AcDbSymbolTableRecord
100
AcDbRegAppTableRecord
2
ACAD
70
0
0
ENDTAB
0
TABLE
2
DIMSTYLE
5
A
100
AcDbSymbolTable
70
1
0
ENDTAB
0
TABLE
2
BLOCK_RECORD
5
1
100
AcDbSymbolTable
70
1
0
BLOCK_RECORD
5
1F
100
AcDbSymbolTableRecord
100
AcDbBlockTableRecord
2
*MODEL_SPACE
0
BLOCK_RECORD
5
1B
100
AcDbSymbolTableRecord
100
AcDbBlockTableRecord
2
*PAPER_SPACE
0
ENDTAB
0
ENDSEC
0
SECTION
2
BLOCKS
0
BLOCK
5
20
100
AcDbEntity
100
AcDbBlockBegin
2
*MODEL_SPACE
0
ENDBLK
5
21
100
AcDbEntity
100
AcDbBlockEnd
0
BLOCK
5
1C
100
AcDbEntity
100
AcDbBlockBegin
2
*PAPER_SPACE
0
ENDBLK
5
1D
100
AcDbEntity
100
AcDbBlockEnd
0
ENDSEC
0
SECTION
2
ENTITIES
0
LINE
5
100
100
AcDbEntity
8
0
100
AcDbLine
10
50.233623794344346
20
-4.1499999999992703
30
0
11
-4.3333012819334638
21
-4.1499999999992507
31
0
0
ARC
5
101
100
AcDbEntity
8
0
100
AcDbCircle
10
2.2204460492503131e-15
20
5.5511151231257827e-16
30
0
40
6.0000000000000018
210
0
220
0
230
1
100
AcDbArc
50
136.23781479711639
51
223.76218520288336
0
LINE
5
102
100
AcDbEntity
8
0
100
AcDbLine
10
-4.3333012819334442
20
4.1499999999992738
30
0
11
50.286246329330233
21
4.1499999999968935
31
0
0
SPLINE
5
103
100
AcDbEntity
8
0
100
AcDbSpline
70
4
71
5
72
131
73
125
74
0
42
0.000000001
43
0.0000000001
44
0.0000000001
40
0.0081251552670945273
40
0.0081251552670945273
40
0.0081251552670945273
40
0.0081251552670945273
40
0.0081251552670945273
40
0.0081251552670945273
40
0.0083333333333333332
40
0.016666666666666666
40
0.025000000000000001
40
0.033333333333333333
40
0.041666666666666664
40
0.049999999999999996
40
0.058333333333333327
40
0.066666666666666666
40
0.074999999999999997
40
0.083333333333333329
40
0.09166666666666666
40
0.099999999999999992
40
0.10833333333333332
40
0.11666666666666665
40
0.12499999999999999
40
0.13333333333333333
40
0.14166666666666666
40
0.14999999999999999
40
0.15833333333333333
40
0.16666666666666666
40
0.17499999999999999
40
0.18333333333333332
40
0.19166666666666665
40
0.19999999999999998
40
0.20833333333333331
40
0.21666666666666665
40
0.22499999999999998
40
0.23333333333333331
40
0.24166666666666664
40
0.24999999999999997
40
0.2583333333333333
40
0.26666666666666666
40
0.27500000000000002
40
0.28333333333333338
40
0.29166666666666674
40
0.3000000000000001
40
0.30833333333333346
40
0.31666666666666682
40
0.32500000000000018
40
0.33333333333333354
40
0.3416666666666669
40
0.35000000000000026
40
0.35833333333333361
40
0.36666666666666697
40
0.37500000000000033
40
0.38333333333333369
40
0.39166666666666705
40
0.40000000000000041
40
0.40833333333333377
40
0.41666666666666713
40
0.42500000000000049
40
0.43333333333333385
40
0.44166666666666721
40
0.45000000000000057
40
0.45833333333333393
40
0.46666666666666728
40
0.47500000000000064
40
0.483333333333334
40
0.49166666666666736
40
0.50000000000000067
40
0.50833333333333397
40
0.51666666666666727
40
0.52500000000000058
40
0.53333333333333388
40
0.54166666666666718
40
0.55000000000000049
40
0.55833333333333379
40
0.5666666666666671
40
0.5750000000000004
40
0.5833333333333337
40
0.59166666666666701
40
0.60000000000000031
40
0.60833333333333361
40
0.61666666666666692
40
0.62500000000000022
40
0.63333333333333353
40
0.64166666666666683
40
0.65000000000000013
40
0.65833333333333344
40
0.66666666666666674
40
0.67500000000000004
40
0.68333333333333335
40
0.69166666666666665
40
0.69999999999999996
40
0.70833333333333326
40
0.71666666666666656
40
0.72499999999999987
40
0.73333333333333317
40
0.74166666666666647
40
0.74999999999999978
40
0.75833333333333308
40
0.76666666666666639
40
0.77499999999999969
40
0.78333333333333299
40
0.7916666666666663
40
0.7999999999999996
40
0.8083333333333329
40
0.81666666666666621
40
0.82499999999999951
40
0.83333333333333282
40
0.84166666666666612
40
0.84999999999999942
40
0.85833333333333273
40
0.86666666666666603
40
0.87499999999999933
40
0.88333333333333264
40
0.89166666666666594
40
0.89999999999999925
40
0.90833333333333255
40
0.91666666666666585
40
0.92499999999999916
40
0.93333333333333246
40
0.94166666666666576
40
0.94999999999999907
40
0.95833333333333237
40
0.96666666666666567
40
0.97499999999999898
40
0.98333333333333228
40
0.99166666666666559
40
0.99199491750151669
40
0.99199491750151669
40
0.99199491750151669
40
0.99199491750151669
40
0.99199491750151669
40
0.99199491750151669
41
1
41
1
41
1
41
1
41
1
41
1
41
1
41
1
41
1
41
1
41
1
41
1
41
1
41
1
41
1
41
1
41
1
41
1
41
1
41
1
41
1
41
1
41
1
41
1
41
1
41
1
41
1
41
1
41
1
41
1
41
1
41
1
41
1
41
1
41
1
41
1
41
1
41
1
41
1
41
1
41
1
41
1
41
1
41
1
41
1
41
1
41
1
41
1
41
1
41
1
41
1
41
1
41
1
41
1
41
1
41
1
41
1
41
1
41
1
41
1
41
1
41
1
41
1
41
1
41
1
41
1
41
1
41
1
41
1
41
1
41
1
41
1
41
1
41
1
41
1
41
1
41
1
41
1
41
1
41
1
41
1
41
1
41
1
41
1
41
1
41
1
41
1
41
1
41
1
41
1
41
1
41
1
41
1
41
1
41
1
41
1
41
1
41
1
41
1
41
1
41
1
41
1
41
1
41
1
41
1
41
1
41
1
41
1
41
1
41
1
41
1
41
1
41
1
41
1
41
1
41
1
41
1
41
1
41
1
41
1
41
1
41
1
41
1
41
1
41
1
10
50.286246329330233
20
4.1499999999968935
30
0
10
50.288379449139612
20
4.1708907373162827
30
0
10
50.37632289969725
20
5.0278560009136157
30
0
10
50.584060436583712
20
6.7064418681538136
30
0
10
50.969669099757169
20
9.1698494778202573
30
0
10
51.500323404109317
20
12.366227105584661
30
0
10
51.850451128700747
20
16.260307661551405
30
0
10
51.718356895507817
20
20.162653589109091
30
0
10
51.152712901142543
20
24.166381548658077
30
0
10
50.293234672544891
20
28.342909236590398
30
0
10
49.289905382427825
20
32.716890505963235
30
0
10
48.189689782938324
20
37.233317891946271
30
0
10
46.962160125704948
20
41.788050637095736
30
0
10
45.544537183103195
20
46.269921655654414
30
0
10
43.87744790335006
20
50.595913489176979
30
0
10
41.951465399356856
20
54.756539964037472
30
0
10
39.792716945595643
20
58.797574791176608
30
0
10
37.434295840626149
20
62.786853827413694
30
0
10
34.894700931733851
20
66.788063638031232
30
0
10
32.147833575014182
20
70.826912208226346
30
0
10
29.13625562495476
20
74.89397834598077
30
0
10
25.796796173496585
20
78.957235617311909
30
0
10
22.080094193764946
20
82.970889391128338
30
0
10
17.977163007403767
20
86.886784465455776
30
0
10
13.527856795200911
20
90.661201161128702
30
0
10
8.7974958132569387
20
94.254297578037111
30
0
10
3.8598622799189322
20
97.631146370464393
30
0
10
-1.2211755580333492
20
100.76206420328228
30
0
10
-6.4122409439830177
20
103.62342112916423
30
0
10
-11.721197003990866
20
106.19768766373134
30
0
10
-17.179570991681345
20
108.4717691703309
30
0
10
-22.83015861982307
20
110.43563645921354
30
0
10
-28.712801870590106
20
112.08086156193079
30
0
10
-34.850431616190384
20
113.39914886934159
30
0
10
-41.236471309905305
20
114.38100149381164
30
0
10
-47.841983513052391
20
115.0161195618189
30
0
10
-54.621266472087896
20
115.29367761976992
30
0
10
-61.518140596655456
20
115.20263219819856
30
0
10
-68.471694497809821
20
114.732053204406
30
0
10
-75.422842506149735
20
113.87135710570904
30
0
10
-82.318600253181245
20
112.61087822484808
30
0
10
-89.111622292145668
20
110.94319944174147
30
0
10
-95.760705502327411
20
108.86429472657964
30
0
10
-102.2309384095186
20
106.37481548246413
30
0
10
-108.49394015015628
20
103.48116417886618
30
0
10
-114.52822020933309
20
100.19703313827418
30
0
10
-120.31898543715393
20
96.543546814346044
30
0
10
-125.85642538333406
20
92.545776489127832
30
0
10
-131.13430138758821
20
88.230006046155978
30
0
10
-136.14839807687298
20
83.620575091095318
30
0
10
-140.89507870252521
20
78.737191767612472
30
0
10
-145.36969060187607
20
73.591338902048989
30
0
10
-149.56539567990546
20
68.185481003588706
30
0
10
-153.47271233227309
20
62.517269209974337
30
0
10
-157.07893133219676
20
56.582586067340884
30
0
10
-160.36751150380439
20
50.379150593069383
30
0
10
-163.31764262303724
20
43.909664203054945
30
0
10
-165.90334583030469
20
37.185691245548249
30
0
10
-168.09410334982235
20
30.229394308755918
30
0
10
-169.85823986868564
20
23.071502914329471
30
0
10
-171.16569073790333
20
15.750122375656678
30
0
10
-171.99101495676547
20
8.3092095187494408
30
0
10
-172.31631060074233
20
0.7971937892479769
30
0
10
-172.13416426453367
20
-6.7344612436605704
30
0
10
-171.45062382315496
20
-14.232669727483032
30
0
10
-170.2820703348186
20
-21.644470622760352
30
0
10
-168.65201684387173
20
-28.918790755916177
30
0
10
-166.58799369742491
20
-36.008167091505221
30
0
10
-164.11827534835808
20
-42.870568992945579
30
0
10
-161.26896723542598
20
-49.470990799162841
30
0
10
-158.06021162664982
20
-55.783618915487338
30
0
10
-154.5059291427867
20
-61.791703080757358
30
0
10
-150.61624436552012
20
-67.485695221978531
30
0
10
-146.39910235917748
20
-72.861897004327275
30
0
10
-141.86227843495627
20
-77.920896860161889
30
0
10
-137.0150773700492
20
-82.666109982755032
30
0
10
-131.87052089857127
20
-87.10225081349536
30
0
10
-126.44579576054475
20
-91.233936437565006
30
0
10
-120.7613950684599
20
-95.06433686575896
30
0
10
-114.84064741205744
20
-98.593863389211052
30
0
10
-108.70906789126552
20
-101.81872910007294
30
0
10
-102.39383387587696
20
-104.72982083378977
30
0
10
-95.923089639267758
20
-107.31078523640838
30
0
10
-89.325891889298674
20
-109.53953564653276
30
0
10
-82.632550534178492
20
-111.39186980102426
30
0
10
-75.874820077679914
20
-112.84438799265351
30
0
10
-69.086221000682968
20
-113.87782795249839
30
0
10
-62.3021494740224
20
-114.47992764092382
30
0
10
-55.5604734677284
20
-114.64923668752128
30
0
10
-48.900059790483084
20
-114.39503544851092
30
0
10
-42.358007553219778
20
-113.73488128172254
30
0
10
-35.96730843343942
20
-112.69287281610148
30
0
10
-29.754249379121426
20
-111.29762804429831
30
0
10
-23.736108344213832
20
-109.58037189237052
30
0
10
-17.918225492945513
20
-107.57301871448175
30
0
10
-12.298482531715699
20
-105.30588681687534
30
0
10
-6.8723064795542914
20
-102.80549234089264
30
0
10
-1.6378246118633302
20
-100.0920732205947
30
0
10
3.3998163342052665
20
-97.177770769745351
30
0
10
8.221827341955759
20
-94.063152191192628
30
0
10
12.799717165454279
20
-90.74120125674979
30
0
10
17.104618759019353
20
-87.205067337797303
30
0
10
21.115452440907188
20
-83.455070189932087
30
0
10
24.826441834769795
20
-79.505077306501221
30
0
10
28.257823252530333
20
-75.391567273753537
30
0
10
31.446038273917342
20
-71.165688981329453
30
0
10
34.426742168774119
20
-66.879408031692137
30
0
10
37.221101754039559
20
-62.574315617522373
30
0
10
39.818671012662243
20
-58.267742353360639
30
0
10
42.167676578393284
20
-53.944620967186808
30
0
10
44.207105792072468
20
-49.581633859752372
30
0
10
45.895298132979235
20
-45.168673529880351
30
0
10
47.237573473984831
20
-40.729530368318478
30
0
10
48.320339252400224
20
-36.347653927693621
30
0
10
49.258138020437208
20
-32.123842659216677
30
0
10
50.132859488887938
20
-28.12781607144515
30
0
10
50.933228558734058
20
-24.349987908867242
30
0
10
51.501711655245607
20
-20.65888710246557
30
0
10
51.668717019728938
20
-16.886131762477913
30
0
10
51.358728647471132
20
-12.895671593427007
30
0
10
50.8628414692581
20
-9.4876840622215326
30
0
10
50.504034602235706
20
-6.860683674312229
30
0
10
50.315024157825249
20
-5.088022507908204
30
0
10
50.236571043346466
20
-4.1842508631528856
30
0
10
50.233623794344346
20
-4.1499999999992747
30
0
0
CIRCLE
5
104
100
AcDbEntity
8
0
100
AcDbCircle
10
-8.9999999999999947
20
15.588457268119901
30
0
40
3.2000000000000006
210
0
220
0
230
1
0
CIRCLE
5
105
100
AcDbEntity
8
0
100
AcDbCircle
10
8.9999999999999964
20
-15.588457268119903
30
0
40
3.2000000000000006
210
0
220
0
230
1
0
ENDSEC
0
SECTION
2
OBJECTS
0
DICTIONARY
5
C
100
AcDbDictionary
3
ACAD_GROUP
350
D
3
ACAD_MLINESTYLE
350
17
0
DICTIONARY
5
D
100
AcDbDictionary
0
DICTIONARY
5
1A
330
C
100
AcDbDictionary
0
DICTIONARY
5
17
100
AcDbDictionary
0
ENDSEC
0
EOF
