0
SECTION
2
HEADER
9
$INSUNITS
70
4
9
$ACADVER
1
AC1014
9
$HANDSEED
5
FFFF
0
ENDSEC
0
SECTION
2
TABLES
0
TABLE
2
VPORT
5
8
100
AcDbSymbolTable
0
ENDTAB
0
TABLE
2
LTYPE
5
5
100
AcDbSymbolTable
0
LTYPE
5
14
100
AcDbSymbolTableRecord
100
AcDbLinetypeTableRecord
2
BYBLOCK
70
0
0
LTYPE
5
15
100
AcDbSymbolTableRecord
100
AcDbLinetypeTableRecord
2
BYLAYER
70
0
0
ENDTAB
0
TABLE
2
LAYER
5
2
100
AcDbSymbolTable
70
2
0
LAYER
5
50
100
AcDbSymbolTableRecord
100
AcDbLayerTableRecord
2
0
70
0
6
CONTINUOUS
0
ENDTAB
0
TABLE
2
STYLE
5
3
100
AcDbSymbolTable
70
1
0
STYLE
5
11
100
AcDbSymbolTableRecord
100
AcDbTextStyleTableRecord
2
STANDARD
70
0
0
ENDTAB
0
TABLE
2
VIEW
5
6
100
AcDbSymbolTable
70
0
0
ENDTAB
0
TABLE
2
UCS
5
7
100
AcDbSymbolTable
70
0
0
ENDTAB
0
TABLE
2
APPID
5
9
100
AcDbSymbolTable
70
2
0
APPID
5
12
100
AcDbSymbolTableRecord
100
AcDbRegAppTableRecord
2
ACAD
70
0
0
ENDTAB
0
TABLE
2
DIMSTYLE
5
A
100
AcDbSymbolTable
70
1
0
ENDTAB
0
TABLE
2
BLOCK_RECORD
5
1
100
AcDbSymbolTable
70
1
0
BLOCK_RECORD
5
1F
100
AcDbSymbolTableRecord
100
AcDbBlockTableRecord
2
*MODEL_SPACE
0
BLOCK_RECORD
5
1B
100
AcDbSymbolTableRecord
100
AcDbBlockTableRecord
2
*PAPER_SPACE
0
ENDTAB
0
ENDSEC
0
SECTION
2
BLOCKS
0
BLOCK
5
20
100
AcDbEntity
100
AcDbBlockBegin
2
*MODEL_SPACE
0
ENDBLK
5
21
100
AcDbEntity
100
AcDbBlockEnd
0
BLOCK
5
1C
100
AcDbEntity
100
AcDbBlockBegin
2
*PAPER_SPACE
0
ENDBLK
5
1D
100
AcDbEntity
100
AcDbBlockEnd
0
ENDSEC
0
SECTION
2
ENTITIES
0
LINE
5
100
100
AcDbEntity
8
0
100
AcDbLine
10
50.021478962669676
20
-4.1499999999992703
30
0
11
-4.3333012819334638
21
-4.1499999999992507
31
0
0
ARC
5
101
100
AcDbEntity
8
0
100
AcDbCircle
10
2.2204460492503131e-15
20
5.5511151231257827e-16
30
0
40
6.0000000000000018
210
0
220
0
230
1
100
AcDbArc
50
136.23781479711639
51
223.76218520288336
0
LINE
5
102
100
AcDbEntity
8
0
100
AcDbLine
10
-4.3333012819334442
20
4.1499999999992738
30
0
11
49.957825950586937
21
4.1499999999968935
31
0
0
SPLINE
5
103
100
AcDbEntity
8
0
100
AcDbSpline
70
4
71
5
72
52
73
46
74
0
42
0.000000001
43
0.0000000001
44
0.0000000001
40
-0.34033712358696355
40
-0.34033712358696355
40
-0.34033712358696355
40
-0.34033712358696355
40
-0.34033712358696355
40
-0.34033712358696355
40
-0.33333333333333354
40
-0.32500000000000018
40
-0.31666666666666682
40
-0.30833333333333346
40
-0.3000000000000001
40
-0.29166666666666674
40
-0.28333333333333338
40
-0.27500000000000002
40
-0.26666666666666666
40
-0.2583333333333333
40
-0.24999999999999997
40
-0.24166666666666664
40
-0.23333333333333331
40
-0.22499999999999998
40
-0.21666666666666665
40
-0.20833333333333331
40
-0.19999999999999998
40
-0.19166666666666665
40
-0.18333333333333332
40
-0.17499999999999999
40
-0.16666666666666666
40
-0.15833333333333333
40
-0.14999999999999999
40
-0.14166666666666666
40
-0.13333333333333333
40
-0.12499999999999999
40
-0.11666666666666665
40
-0.10833333333333332
40
-0.099999999999999992
40
-0.09166666666666666
40
-0.083333333333333329
40
-0.074999999999999997
40
-0.066666666666666666
40
-0.058333333333333327
40
-0.049999999999999996
40
-0.041666666666666664
40
-0.033333333333333333
40
-0.025000000000000001
40
-0.016666666666666666
40
-0.0083333333333333332
40
0
40
0
40
0
40
0
40
0
40
0
41
1
41
1
41
1
41
1
41
1
41
1
41
1
41
1
41
1
41
1
41
1
41
1
41
1
41
1
41
1
41
1
41
1
41
1
41
1
41
1
41
1
41
1
41
1
41
1
41
1
41
1
41
1
41
1
41
1
41
1
41
1
41
1
41
1
41
1
41
1
41
1
41
1
41
1
41
1
41
1
41
1
41
1
41
1
41
1
41
1
41
1
10
49.957825950586937
20
4.1499999999968988
30
0
10
50.007810626109887
20
4.968517086274292
30
0
10
50.144289532135048
20
6.7546862301884936
30
0
10
50.434981150463152
20
9.4744664513867249
30
0
10
50.920147501137585
20
13.002342639881849
30
0
10
51.441806054391385
20
17.064626294681204
30
0
10
51.637573589909067
20
20.848729289952054
30
0
10
51.397738833797099
20
24.473713469377397
30
0
10
50.746737830178986
20
28.289458938921292
30
0
10
49.774693584492425
20
32.578556772789867
30
0
10
48.586583636781327
20
37.352630042296184
30
0
10
47.273912919531121
20
42.389530528465102
30
0
10
45.89667227521231
20
47.393764719709552
30
0
10
44.465691211058605
20
52.103941684679917
30
0
10
42.915784292343353
20
56.454628118748118
30
0
10
41.122929141061206
20
60.57231342658681
30
0
10
38.95733064831029
20
64.652596234661544
30
0
10
36.321451163547351
20
68.879972624416169
30
0
10
33.205045654947895
20
73.31033316434511
30
0
10
29.672304372409506
20
77.880399847634322
30
0
10
25.822415936055108
20
82.464649874571677
30
0
10
21.758743769072506
20
86.917037906284946
30
0
10
17.554194546002815
20
91.119301570884375
30
0
10
13.218840881311586
20
95.025677558498217
30
0
10
8.7205518715332104
20
98.641412953051855
30
0
10
4.005591909265835
20
102.00129328532552
30
0
10
-0.981507394652814
20
105.14886151199428
30
0
10
-6.2761165983826226
20
108.1138328198786
30
0
10
-11.877466148333227
20
110.8948249582417
30
0
10
-17.761869149713757
20
113.46885311476237
30
0
10
-23.892047620629711
20
115.79731709453492
30
0
10
-30.228147627828204
20
117.83339733003756
30
0
10
-36.737605206995802
20
119.52871755614049
30
0
10
-43.406652342013992
20
120.84066712052672
30
0
10
-50.233398033796128
20
121.73397093108731
30
0
10
-57.219363878278351
20
122.18175570083861
30
0
10
-64.361396077188061
20
122.16685443709156
30
0
10
-71.643817028347954
20
121.68288770692402
30
0
10
-79.029517398378346
20
120.73575050765254
30
0
10
-86.454344745254602
20
119.34401953812636
30
0
10
-93.838769096326445
20
117.53385019312674
30
0
10
-101.09733855566682
20
115.33457603250852
30
0
10
-106.73865741335754
20
113.2861464123083
30
0
10
-110.84650262241546
20
111.59706329612476
30
0
10
-113.52469608422905
20
110.40459981951814
30
0
10
-114.84828285374078
20
109.7918247208227
30
0
0
SPLINE
5
104
100
AcDbEntity
8
0
100
AcDbSpline
70
4
71
5
72
89
73
83
74
0
42
0.000000001
43
0.0000000001
44
0.0000000001
40
-1
40
-1
40
-1
40
-1
40
-1
40
-1
40
-0.99166666666666559
40
-0.98333333333333228
40
-0.97499999999999898
40
-0.96666666666666567
40
-0.95833333333333237
40
-0.94999999999999907
40
-0.94166666666666576
40
-0.93333333333333246
40
-0.92499999999999916
40
-0.91666666666666585
40
-0.90833333333333255
40
-0.89999999999999925
40
-0.89166666666666594
40
-0.88333333333333264
40
-0.87499999999999933
40
-0.86666666666666603
40
-0.85833333333333273
40
-0.84999999999999942
40
-0.84166666666666612
40
-0.83333333333333282
40
-0.82499999999999951
40
-0.81666666666666621
40
-0.8083333333333329
40
-0.7999999999999996
40
-0.7916666666666663
40
-0.78333333333333299
40
-0.77499999999999969
40
-0.76666666666666639
40
-0.75833333333333308
40
-0.74999999999999978
40
-0.74166666666666647
40
-0.73333333333333317
40
-0.72499999999999987
40
-0.71666666666666656
40
-0.70833333333333326
40
-0.69999999999999996
40
-0.69166666666666665
40
-0.68333333333333335
40
-0.67500000000000004
40
-0.66666666666666674
40
-0.65833333333333344
40
-0.65000000000000013
40
-0.64166666666666683
40
-0.63333333333333353
40
-0.62500000000000022
40
-0.61666666666666692
40
-0.60833333333333361
40
-0.60000000000000031
40
-0.59166666666666701
40
-0.5833333333333337
40
-0.5750000000000004
40
-0.5666666666666671
40
-0.55833333333333379
40
-0.55000000000000049
40
-0.54166666666666718
40
-0.53333333333333388
40
-0.52500000000000058
40
-0.51666666666666727
40
-0.50833333333333397
40
-0.50000000000000067
40
-0.49166666666666736
40
-0.483333333333334
40
-0.47500000000000064
40
-0.46666666666666728
40
-0.45833333333333393
40
-0.45000000000000057
40
-0.44166666666666721
40
-0.43333333333333385
40
-0.42500000000000049
40
-0.41666666666666713
40
-0.40833333333333377
40
-0.40000000000000041
40
-0.39166666666666705
40
-0.38333333333333369
40
-0.37500000000000033
40
-0.36666666666666697
40
-0.35833333333333361
40
-0.35463136882793511
40
-0.35463136882793511
40
-0.35463136882793511
40
-0.35463136882793511
40
-0.35463136882793511
40
-0.35463136882793511
41
1
41
1
41
1
41
1
41
1
41
1
41
1
41
1
41
1
41
1
41
1
41
1
41
1
41
1
41
1
41
1
41
1
41
1
41
1
41
1
41
1
41
1
41
1
41
1
41
1
41
1
41
1
41
1
41
1
41
1
41
1
41
1
41
1
41
1
41
1
41
1
41
1
41
1
41
1
41
1
41
1
41
1
41
1
41
1
41
1
41
1
41
1
41
1
41
1
41
1
41
1
41
1
41
1
41
1
41
1
41
1
41
1
41
1
41
1
41
1
41
1
41
1
41
1
41
1
41
1
41
1
41
1
41
1
41
1
41
1
41
1
41
1
41
1
41
1
41
1
41
1
41
1
41
1
41
1
41
1
41
1
41
1
41
1
10
-114.84828285374078
20
109.7918247208227
30
0
10
-116.1718696232527
20
109.17904962212725
30
0
10
-118.78802323948619
20
107.92041270395214
30
0
10
-122.61668914316306
20
105.93354910045693
30
0
10
-127.5273280764352
20
103.08493966271422
30
0
10
-133.35816989405538
20
99.177987124099701
30
0
10
-138.91160523347042
20
94.90696969413824
30
0
10
-144.22094417056559
20
90.255548602363007
30
0
10
-149.31266903223218
20
85.214319353986738
30
0
10
-154.19536413552254
20
79.786810396440714
30
0
10
-158.85144912541352
20
73.993776269781932
30
0
10
-163.24526218895829
20
67.867544173304012
30
0
10
-167.32922638784521
20
61.447524805286413
30
0
10
-171.05073664906766
20
54.775290934286069
30
0
10
-174.35876801155146
20
47.889811641161216
30
0
10
-177.2105302683874
20
40.822690933509911
30
0
10
-179.57830868608971
20
33.593203665485589
30
0
10
-181.4467901002925
20
26.212820015988612
30
0
10
-182.81008830182066
20
18.690054134517876
30
0
10
-183.66894249733815
20
11.0350829155655
30
0
10
-184.02771814998937
20
3.2647075717125338
30
0
10
-183.89179534442468
20
-4.5934025143995267
30
0
10
-183.26402939659076
20
-12.494696454707217
30
0
10
-182.14563605615453
20
-20.38016153237081
30
0
10
-180.53921015707175
20
-28.182784398749074
30
0
10
-178.45102783859926
20
-35.832691196209929
30
0
10
-175.89374381661816
20
-43.262923185218128
30
0
10
-172.88870137327353
20
-50.414735453720681
30
0
10
-169.46894187305534
20
-57.243594528962717
30
0
10
-165.68032108646042
20
-63.723402569800214
30
0
10
-161.57364921109797
20
-69.84251215832407
30
0
10
-157.1981115385945
20
-75.600849220984983
30
0
10
-152.59403812292425
20
-81.006602413740751
30
0
10
-147.78629898469364
20
-86.07312307966636
30
0
10
-142.77658641764359
20
-90.815687670998443
30
0
10
-137.53865903923366
20
-95.24846614353271
30
0
10
-132.03142373794543
20
-99.382357888833596
30
0
10
-126.20974277919657
20
-103.22281884753339
30
0
10
-120.03656005423483
20
-106.76751126699727
30
0
10
-113.49345227475125
20
-110.0044338511639
30
0
10
-106.59433851591076
20
-112.9088477590482
30
0
10
-99.389144106551555
20
-115.44421246806766
30
0
10
-91.951697089374292
20
-117.56949483962339
30
0
10
-84.371357738550756
20
-119.24494088842471
30
0
10
-76.743073753873276
20
-120.4385597016143
30
0
10
-69.158293779610688
20
-121.13209377644705
30
0
10
-61.695081002170767
20
-121.32772187576163
30
0
10
-54.40982006632629
20
-121.05297749420583
30
0
10
-47.340762247925952
20
-120.35139606693819
30
0
10
-40.510485811349341
20
-119.27462382497805
30
0
10
-33.928750691234242
20
-117.87370021991536
30
0
10
-27.595206745235572
20
-116.19131413119796
30
0
10
-21.502092146186946
20
-114.25213995617987
30
0
10
-15.637146957821672
20
-112.05891017090374
30
0
10
-9.9870297699642059
20
-109.60141355323692
30
0
10
-4.5407156832709559
20
-106.86296084958273
30
0
10
0.7072802502199691
20
-103.82771737241998
30
0
10
5.7531730434412953
20
-100.48798957189064
30
0
10
10.581673021904777
20
-96.850549372171614
30
0
10
15.171296247520123
20
-92.936527329418084
30
0
10
19.498828932125072
20
-88.782453627872187
30
0
10
23.543870156565806
20
-84.440251907375981
30
0
10
27.29392588557133
20
-79.979111548696679
30
0
10
30.747503575759175
20
-75.482306958717317
30
0
10
33.909222515601456
20
-71.026235165229153
30
0
10
36.785804582864735
20
-66.660209905249317
30
0
10
39.382380500099366
20
-62.389854229767352
30
0
10
41.697016957053627
20
-58.149207655342124
30
0
10
43.724465724528265
20
-53.827078922600123
30
0
10
45.466219485156657
20
-49.328222958102508
30
0
10
46.936744458999414
20
-44.615961521901191
30
0
10
48.175816865432459
20
-39.781168473109339
30
0
10
49.235797308598748
20
-35.010780514483805
30
0
10
50.149218293889021
20
-30.489841864526447
30
0
10
50.909809494354462
20
-26.334465533303085
30
0
10
51.430172624816407
20
-22.486075687121513
30
0
10
51.593961595380108
20
-18.749828624733667
30
0
10
51.342054771200083
20
-14.897125127347525
30
0
10
50.836124579814779
20
-11.221167125660498
30
0
10
50.41408938065976
20
-8.1751385675391983
30
0
10
50.168610582412882
20
-5.9247065755482691
30
0
10
50.053695589187697
20
-4.5692032749260827
30
0
10
50.021478962669676
20
-4.1499999999992614
30
0
0
CIRCLE
5
105
100
AcDbEntity
8
0
100
AcDbCircle
10
-8.9999999999999947
20
15.588457268119901
30
0
40
3.2000000000000006
210
0
220
0
230
1
0
CIRCLE
5
106
100
AcDbEntity
8
0
100
AcDbCircle
10
8.9999999999999964
20
-15.588457268119903
30
0
40
3.2000000000000006
210
0
220
0
230
1
0
ENDSEC
0
SECTION
2
OBJECTS
0
DICTIONARY
5
C
100
AcDbDictionary
3
ACAD_GROUP
350
D
3
ACAD_MLINESTYLE
350
17
0
DICTIONARY
5
D
100
AcDbDictionary
0
DICTIONARY
5
1A
330
C
100
AcDbDictionary
0
DICTIONARY
5
17
100
AcDbDictionary
0
ENDSEC
0
EOF
