0
SECTION
2
HEADER
9
$INSUNITS
70
4
9
$ACADVER
1
AC1014
9
$HANDSEED
5
FFFF
0
ENDSEC
0
SECTION
2
TABLES
0
TABLE
2
VPORT
5
8
100
AcDbSymbolTable
0
ENDTAB
0
TABLE
2
LTYPE
5
5
100
AcDbSymbolTable
0
LTYPE
5
14
100
AcDbSymbolTableRecord
100
AcDbLinetypeTableRecord
2
BYBLOCK
70
0
0
LTYPE
5
15
100
AcDbSymbolTableRecord
100
AcDbLinetypeTableRecord
2
BYLAYER
70
0
0
ENDTAB
0
TABLE
2
LAYER
5
2
100
AcDbSymbolTable
70
2
0
LAYER
5
50
100
AcDbSymbolTableRecord
100
AcDbLayerTableRecord
2
0
70
0
6
CONTINUOUS
0
ENDTAB
0
TABLE
2
STYLE
5
3
100
AcDbSymbolTable
70
1
0
STYLE
5
11
100
AcDbSymbolTableRecord
100
AcDbTextStyleTableRecord
2
STANDARD
70
0
0
ENDTAB
0
TABLE
2
VIEW
5
6
100
AcDbSymbolTable
70
0
0
ENDTAB
0
TABLE
2
UCS
5
7
100
AcDbSymbolTable
70
0
0
ENDTAB
0
TABLE
2
APPID
5
9
100
AcDbSymbolTable
70
2
0
APPID
5
12
100
AcDbSymbolTableRecord
100
AcDbRegAppTableRecord
2
ACAD
70
0
0
ENDTAB
0
TABLE
2
DIMSTYLE
5
A
100
AcDbSymbolTable
70
1
0
ENDTAB
0
TABLE
2
BLOCK_RECORD
5
1
100
AcDbSymbolTable
70
1
0
BLOCK_RECORD
5
1F
100
AcDbSymbolTableRecord
100
AcDbBlockTableRecord
2
*MODEL_SPACE
0
BLOCK_RECORD
5
1B
100
AcDbSymbolTableRecord
100
AcDbBlockTableRecord
2
*PAPER_SPACE
0
ENDTAB
0
ENDSEC
0
SECTION
2
BLOCKS
0
BLOCK
5
20
100
AcDbEntity
100
AcDbBlockBegin
2
*MODEL_SPACE
0
ENDBLK
5
21
100
AcDbEntity
100
AcDbBlockEnd
0
BLOCK
5
1C
100
AcDbEntity
100
AcDbBlockBegin
2
*PAPER_SPACE
0
ENDBLK
5
1D
100
AcDbEntity
100
AcDbBlockEnd
0
ENDSEC
0
SECTION
2
ENTITIES
0
LINE
5
100
100
AcDbEntity
8
0
100
AcDbLine
10
49.901669950363257
20
-4.1499999999992703
30
0
11
-4.3333012819334638
21
-4.1499999999992507
31
0
0
ARC
5
101
100
AcDbEntity
8
0
100
AcDbCircle
10
2.2204460492503131e-15
20
5.5511151231257827e-16
30
0
40
6.0000000000000018
210
0
220
0
230
1
100
AcDbArc
50
136.23781479711639
51
223.76218520288336
0
LINE
5
102
100
AcDbEntity
8
0
100
AcDbLine
10
-4.3333012819334442
20
4.1499999999992738
30
0
11
49.757391858129694
21
4.1499999999968944
31
0
0
SPLINE
5
103
100
AcDbEntity
8
0
100
AcDbSpline
70
4
71
5
72
52
73
46
74
0
42
0.000000001
43
0.0000000001
44
0.0000000001
40
-0.34142131700102013
40
-0.34142131700102013
40
-0.34142131700102013
40
-0.34142131700102013
40
-0.34142131700102013
40
-0.34142131700102013
40
-0.33333333333333354
40
-0.32500000000000018
40
-0.31666666666666682
40
-0.30833333333333346
40
-0.3000000000000001
40
-0.29166666666666674
40
-0.28333333333333338
40
-0.27500000000000002
40
-0.26666666666666666
40
-0.2583333333333333
40
-0.24999999999999997
40
-0.24166666666666664
40
-0.23333333333333331
40
-0.22499999999999998
40
-0.21666666666666665
40
-0.20833333333333331
40
-0.19999999999999998
40
-0.19166666666666665
40
-0.18333333333333332
40
-0.17499999999999999
40
-0.16666666666666666
40
-0.15833333333333333
40
-0.14999999999999999
40
-0.14166666666666666
40
-0.13333333333333333
40
-0.12499999999999999
40
-0.11666666666666665
40
-0.10833333333333332
40
-0.099999999999999992
40
-0.09166666666666666
40
-0.083333333333333329
40
-0.074999999999999997
40
-0.066666666666666666
40
-0.058333333333333327
40
-0.049999999999999996
40
-0.041666666666666664
40
-0.033333333333333333
40
-0.025000000000000001
40
-0.016666666666666666
40
-0.0083333333333333332
40
0
40
0
40
0
40
0
40
0
40
0
41
1
41
1
41
1
41
1
41
1
41
1
41
1
41
1
41
1
41
1
41
1
41
1
41
1
41
1
41
1
41
1
41
1
41
1
41
1
41
1
41
1
41
1
41
1
41
1
41
1
41
1
41
1
41
1
41
1
41
1
41
1
41
1
41
1
41
1
41
1
41
1
41
1
41
1
41
1
41
1
41
1
41
1
41
1
41
1
41
1
41
1
10
49.757391858129694
20
4.1499999999968882
30
0
10
49.802330907659112
20
5.1599288208069574
30
0
10
49.92737343914272
20
7.2229317643725164
30
0
10
50.207030161967829
20
10.334825894279231
30
0
10
50.680357842948467
20
14.318753147688136
30
0
10
51.171649211006233
20
18.634803277907483
30
0
10
51.325610502515275
20
22.171929344098839
30
0
10
51.066356566030507
20
25.326994051097479
30
0
10
50.446119422025681
20
28.78225348103625
30
0
10
49.565265640550052
20
33.070793563473458
30
0
10
48.503504114342945
20
38.169992226080652
30
0
10
47.309581982484858
20
43.680775337121247
30
0
10
45.998546337324541
20
49.085022002936462
30
0
10
44.547959087296348
20
53.952199291541483
30
0
10
42.889948752669255
20
58.222125940972298
30
0
10
40.931647729484183
20
62.141169840410896
30
0
10
38.588295173867103
20
66.059664093169289
30
0
10
35.810865017377189
20
70.279976988701577
30
0
10
32.619464573898696
20
74.868383221320585
30
0
10
29.079935750997755
20
79.715699608917618
30
0
10
25.274754411090502
20
84.618833102879222
30
0
10
21.27729959014745
20
89.352139296119162
30
0
10
17.121608084105738
20
93.749717433729813
30
0
10
12.783368923871672
20
97.762891461026072
30
0
10
8.2072932539079062
20
101.41648623826691
30
0
10
3.3288234663728606
20
104.77834333181664
30
0
10
-1.9037693161889706
20
107.92569712190506
30
0
10
-7.5031425968800356
20
110.90816723397774
30
0
10
-13.432922819268896
20
113.72813663427431
30
0
10
-19.630533344071324
20
116.35730285492308
30
0
10
-26.022830563490832
20
118.74530305596534
30
0
10
-32.544753347306468
20
120.83154511892749
30
0
10
-39.156362445195711
20
122.55557204870843
30
0
10
-45.861459140812677
20
123.86830356928863
30
0
10
-52.691340844805346
20
124.73253378139803
30
0
10
-59.687868071416752
20
125.12316821256876
30
0
10
-66.886230487884873
20
125.02764246106709
30
0
10
-74.299094374479978
20
124.44607373371845
30
0
10
-81.89712966307863
20
123.39200759932559
30
0
10
-89.60080351519548
20
121.8913881675907
30
0
10
-97.301371493308878
20
119.97694993918942
30
0
10
-104.87632545682233
20
117.68347890818009
30
0
10
-110.74088817649795
20
115.57088129473942
30
0
10
-114.98527086758213
20
113.84086457714392
30
0
10
-117.73834677673905
20
112.62426658435916
30
0
10
-119.09520571184318
20
112.00018506756399
30
0
0
SPLINE
5
104
100
AcDbEntity
8
0
100
AcDbSpline
70
4
71
5
72
89
73
83
74
0
42
0.000000001
43
0.0000000001
44
0.0000000001
40
-1
40
-1
40
-1
40
-1
40
-1
40
-1
40
-0.99166666666666559
40
-0.98333333333333228
40
-0.97499999999999898
40
-0.96666666666666567
40
-0.95833333333333237
40
-0.94999999999999907
40
-0.94166666666666576
40
-0.93333333333333246
40
-0.92499999999999916
40
-0.91666666666666585
40
-0.90833333333333255
40
-0.89999999999999925
40
-0.89166666666666594
40
-0.88333333333333264
40
-0.87499999999999933
40
-0.86666666666666603
40
-0.85833333333333273
40
-0.84999999999999942
40
-0.84166666666666612
40
-0.83333333333333282
40
-0.82499999999999951
40
-0.81666666666666621
40
-0.8083333333333329
40
-0.7999999999999996
40
-0.7916666666666663
40
-0.78333333333333299
40
-0.77499999999999969
40
-0.76666666666666639
40
-0.75833333333333308
40
-0.74999999999999978
40
-0.74166666666666647
40
-0.73333333333333317
40
-0.72499999999999987
40
-0.71666666666666656
40
-0.70833333333333326
40
-0.69999999999999996
40
-0.69166666666666665
40
-0.68333333333333335
40
-0.67500000000000004
40
-0.66666666666666674
40
-0.65833333333333344
40
-0.65000000000000013
40
-0.64166666666666683
40
-0.63333333333333353
40
-0.62500000000000022
40
-0.61666666666666692
40
-0.60833333333333361
40
-0.60000000000000031
40
-0.59166666666666701
40
-0.5833333333333337
40
-0.5750000000000004
40
-0.5666666666666671
40
-0.55833333333333379
40
-0.55000000000000049
40
-0.54166666666666718
40
-0.53333333333333388
40
-0.52500000000000058
40
-0.51666666666666727
40
-0.50833333333333397
40
-0.50000000000000067
40
-0.49166666666666736
40
-0.483333333333334
40
-0.47500000000000064
40
-0.46666666666666728
40
-0.45833333333333393
40
-0.45000000000000057
40
-0.44166666666666721
40
-0.43333333333333385
40
-0.42500000000000049
40
-0.41666666666666713
40
-0.40833333333333377
40
-0.40000000000000041
40
-0.39166666666666705
40
-0.38333333333333369
40
-0.37500000000000033
40
-0.36666666666666697
40
-0.35833333333333361
40
-0.35537821635241129
40
-0.35537821635241129
40
-0.35537821635241129
40
-0.35537821635241129
40
-0.35537821635241129
40
-0.35537821635241129
41
1
41
1
41
1
41
1
41
1
41
1
41
1
41
1
41
1
41
1
41
1
41
1
41
1
41
1
41
1
41
1
41
1
41
1
41
1
41
1
41
1
41
1
41
1
41
1
41
1
41
1
41
1
41
1
41
1
41
1
41
1
41
1
41
1
41
1
41
1
41
1
41
1
41
1
41
1
41
1
41
1
41
1
41
1
41
1
41
1
41
1
41
1
41
1
41
1
41
1
41
1
41
1
41
1
41
1
41
1
41
1
41
1
41
1
41
1
41
1
41
1
41
1
41
1
41
1
41
1
41
1
41
1
41
1
41
1
41
1
41
1
41
1
41
1
41
1
41
1
41
1
41
1
41
1
41
1
41
1
41
1
41
1
41
1
10
-119.09520571184318
20
112.00018506756399
30
0
10
-120.45206464694755
20
111.37610355076875
30
0
10
-123.12642447820735
20
110.09637547637274
30
0
10
-127.01658481847404
20
108.08227339126839
30
0
10
-131.95841599828492
20
105.20493438953568
30
0
10
-137.76016364403415
20
101.26968415702969
30
0
10
-143.24194729894026
20
96.971603076619147
30
0
10
-148.46576601949101
20
92.287351453721044
30
0
10
-153.48470152702683
20
87.200485922186729
30
0
10
-158.32531760246846
20
81.708387330472405
30
0
10
-162.97681045498535
20
75.826370902853654
30
0
10
-167.40267336187404
20
69.58239428854985
30
0
10
-171.54859903598631
20
63.013340640824389
30
0
10
-175.35188916133521
20
56.160666088970636
30
0
10
-178.7501305374164
20
49.066370413632121
30
0
10
-181.69038835327098
20
41.768713673161393
30
0
10
-184.13760634395271
20
34.298369776025844
30
0
10
-186.07128108261503
20
26.681229490376257
30
0
10
-187.48268843813761
20
18.940908462465181
30
0
10
-188.3719437068589
20
11.101306495567737
30
0
10
-188.74505914455955
20
3.1892771409036005
30
0
10
-188.61118946495165
20
-4.7630581665057221
30
0
10
-187.97933128202712
20
-12.715051067417619
30
0
10
-186.85787819054497
20
-20.619103316135341
30
0
10
-185.25538601473133
20
-28.424305481636445
30
0
10
-183.18094581938732
20
-36.079371187336143
30
0
10
-180.64472769538835
20
-43.535951292230315
30
0
10
-177.65843634487013
20
-50.751584327854715
30
0
10
-174.2358437263278
20
-57.693292720419514
30
0
10
-170.39316788580453
20
-64.33933822969172
30
0
10
-166.1490951665792
20
-70.676231520479931
30
0
10
-161.52486274798633
20
-76.696644415074758
30
0
10
-156.54433319534286
20
-82.396953349074678
30
0
10
-151.23404122740513
20
-87.774976075373786
30
0
10
-145.62333200838037
20
-92.827547086195267
30
0
10
-139.74423479251189
20
-97.548393307117749
30
0
10
-133.62900741893361
20
-101.92833919894619
30
0
10
-127.30789635131721
20
-105.9553127873601
30
0
10
-120.80679504233839
20
-109.61441987365654
30
0
10
-114.14498672520796
20
-112.8880032385714
30
0
10
-107.33274693170412
20
-115.75567166090559
30
0
10
-100.36928758868348
20
-118.19444121677913
30
0
10
-93.250560053303303
20
-120.18235853917051
30
0
10
-85.976734846451677
20
-121.70200785030731
30
0
10
-78.559826903599173
20
-122.74407506523386
30
0
10
-71.031211059193723
20
-123.31086558789566
30
0
10
-63.449318250753549
20
-123.41990893687041
30
0
10
-55.906909303521353
20
-123.10735736201046
30
0
10
-48.512579237769089
20
-122.41839604183929
30
0
10
-41.372948290608853
20
-121.39802484444645
30
0
10
-34.574133924295644
20
-120.0814206876109
30
0
10
-28.164573261095125
20
-118.48511489328578
30
0
10
-22.134740811606243
20
-116.59628779651869
30
0
10
-16.405633368407106
20
-114.3673930529402
30
0
10
-10.866154241862173
20
-111.74045351305099
30
0
10
-5.4048277852863436
20
-108.66795482631632
30
0
10
0.05674675133151106
20
-105.1347143777236
30
0
10
5.5301253337831699
20
-101.18014700986038
30
0
10
10.929343634525273
20
-96.918094721010448
30
0
10
16.113607769943748
20
-92.49968609814141
30
0
10
20.925620882664006
20
-88.079750164791818
30
0
10
25.233494124004263
20
-83.780026397915577
30
0
10
28.96667561731272
20
-79.658007072887486
30
0
10
32.166002124895947
20
-75.6622791806751
30
0
10
34.953150636419338
20
-71.665170122688323
30
0
10
37.469767889940442
20
-67.524557150577039
30
0
10
39.832472928500145
20
-63.130310691565946
30
0
10
42.067175532052005
20
-58.470909097342684
30
0
10
44.117657692580828
20
-53.627720122455429
30
0
10
45.903313346507453
20
-48.722422767240595
30
0
10
47.357126256173252
20
-43.8817171811816
30
0
10
48.483570028170384
20
-39.187306987610519
30
0
10
49.365313356593454
20
-34.65953222490765
30
0
10
50.091525034124714
20
-30.289093001840733
30
0
10
50.715331651628979
20
-26.053041854038199
30
0
10
51.175283507652971
20
-21.947107973638008
30
0
10
51.343325977060452
20
-17.966080716827268
30
0
10
51.130989067462366
20
-14.064068637808113
30
0
10
50.667941892563448
20
-10.61753825229107
30
0
10
50.273589192442486
20
-7.8059602936043397
30
0
10
50.039716555901521
20
-5.718791768612328
30
0
10
49.928900251315078
20
-4.4776863252989099
30
0
10
49.901669950363257
20
-4.1499999999992614
30
0
0
CIRCLE
5
105
100
AcDbEntity
8
0
100
AcDbCircle
10
-8.9999999999999947
20
15.588457268119901
30
0
40
3.2000000000000006
210
0
220
0
230
1
0
CIRCLE
5
106
100
AcDbEntity
8
0
100
AcDbCircle
10
8.9999999999999964
20
-15.588457268119903
30
0
40
3.2000000000000006
210
0
220
0
230
1
0
ENDSEC
0
SECTION
2
OBJECTS
0
DICTIONARY
5
C
100
AcDbDictionary
3
ACAD_GROUP
350
D
3
ACAD_MLINESTYLE
350
17
0
DICTIONARY
5
D
100
AcDbDictionary
0
DICTIONARY
5
1A
330
C
100
AcDbDictionary
0
DICTIONARY
5
17
100
AcDbDictionary
0
ENDSEC
0
EOF
